<?xml version="1.0" encoding="UTF-8"?>
<svg id="Layer_2" data-name="Layer 2" xmlns="http://www.w3.org/2000/svg" xmlns:xlink="http://www.w3.org/1999/xlink" viewBox="0 0 695.21 157.74">
  <defs>
    <style>
      .cls-1 {
        fill: none;
      }

      .cls-1, .cls-2 {
        stroke: #071b1e;
        stroke-miterlimit: 10;
        stroke-width: 3.05px;
      }

      .cls-3 {
        clip-path: url(#clippath-18);
      }

      .cls-4 {
        clip-path: url(#clippath-12);
      }

      .cls-5 {
        clip-path: url(#clippath-30);
      }

      .cls-6 {
        clip-path: url(#clippath-36);
      }

      .cls-7 {
        clip-path: url(#clippath-24);
      }

      .cls-8 {
        clip-path: url(#clippath-42);
      }

      .cls-9 {
        clip-path: url(#clippath-6);
      }

      .cls-10, .cls-2 {
        fill: #071b1e;
      }

      .cls-11 {
        fill: #6fb260;
      }

      .cls-12 {
        fill: #f6e8d4;
      }

      .cls-13 {
        clip-path: url(#clippath);
      }
    </style>
    <clipPath id="clippath">
      <rect class="cls-2" x="1.52" y="1.52" width="154.69" height="154.69" rx="12.44" ry="12.44"/>
    </clipPath>
    <clipPath id="clippath-6">
      <rect class="cls-2" x="1.52" y="1.52" width="154.69" height="154.69" rx="12.44" ry="12.44"/>
    </clipPath>
    <clipPath id="clippath-12">
      <rect class="cls-2" x="180.68" y="1.52" width="154.69" height="154.69" rx="12.44" ry="12.44"/>
    </clipPath>
    <clipPath id="clippath-18">
      <rect class="cls-2" x="180.68" y="1.52" width="154.69" height="154.69" rx="12.44" ry="12.44"/>
    </clipPath>
    <clipPath id="clippath-24">
      <rect class="cls-2" x="359.84" y="1.52" width="154.69" height="154.69" rx="12.44" ry="12.44"/>
    </clipPath>
    <clipPath id="clippath-30">
      <rect class="cls-2" x="359.84" y="1.52" width="154.69" height="154.69" rx="12.44" ry="12.44"/>
    </clipPath>
    <clipPath id="clippath-36">
      <rect class="cls-2" x="539" y="1.52" width="154.69" height="154.69" rx="12.44" ry="12.44"/>
    </clipPath>
    <clipPath id="clippath-42">
      <rect class="cls-2" x="539" y="1.52" width="154.69" height="154.69" rx="12.44" ry="12.44"/>
    </clipPath>
  </defs>
  <g id="Layer_1-2" data-name="Layer 1">
    <g>
      <g>
        <g>
          <g>
            <rect class="cls-10" x="1.52" y="1.52" width="154.69" height="154.69" rx="12.44" ry="12.44"/>
            <g class="cls-13">
              <g>
                <g>
                  <rect class="cls-10" x="1.52" y="1.53" width="154.68" height="154.68"/>
                  <rect class="cls-1" x="1.52" y="1.53" width="154.68" height="154.68"/>
                </g>
                <rect class="cls-2" x="1.52" y="1.53" width="154.69" height="154.68"/>
                <g>
                  <rect class="cls-10" x="1.52" y="1.53" width="154.69" height="154.68"/>
                  <rect class="cls-1" x="1.52" y="1.53" width="154.69" height="154.68"/>
                </g>
                <g>
                  <rect class="cls-10" x="1.52" y="1.53" width="154.69" height="154.68"/>
                  <rect class="cls-1" x="1.52" y="1.53" width="154.69" height="154.68"/>
                </g>
                <g>
                  <rect class="cls-10" x="1.52" y="1.53" width="154.69" height="154.68"/>
                  <rect class="cls-1" x="1.52" y="1.53" width="154.69" height="154.68"/>
                </g>
                <g>
                  <rect class="cls-10" x="1.52" y="1.53" width="154.69" height="154.68"/>
                  <rect class="cls-1" x="1.52" y="1.53" width="154.69" height="154.68"/>
                </g>
              </g>
            </g>
            <rect class="cls-1" x="1.52" y="1.52" width="154.69" height="154.69" rx="12.44" ry="12.44"/>
          </g>
          <g>
            <rect class="cls-10" x="1.52" y="1.52" width="154.69" height="154.69" rx="12.44" ry="12.44"/>
            <g class="cls-9">
              <g>
                <g>
                  <rect class="cls-10" x="1.52" y="1.53" width="154.68" height="154.68"/>
                  <rect class="cls-1" x="1.52" y="1.53" width="154.68" height="154.68"/>
                </g>
                <rect class="cls-11" x="1.52" y="1.53" width="154.69" height="154.68"/>
                <g>
                  <rect class="cls-10" x="1.52" y="1.53" width="154.69" height="154.68"/>
                  <rect class="cls-1" x="1.52" y="1.53" width="154.69" height="154.68"/>
                </g>
                <g>
                  <rect class="cls-10" x="1.52" y="1.53" width="154.69" height="154.68"/>
                  <rect class="cls-1" x="1.52" y="1.53" width="154.69" height="154.68"/>
                </g>
                <g>
                  <rect class="cls-10" x="1.52" y="1.53" width="154.69" height="154.68"/>
                  <rect class="cls-1" x="1.52" y="1.53" width="154.69" height="154.68"/>
                </g>
                <g>
                  <rect class="cls-10" x="1.52" y="1.53" width="154.69" height="154.68"/>
                  <rect class="cls-1" x="1.52" y="1.53" width="154.69" height="154.68"/>
                </g>
              </g>
            </g>
            <rect class="cls-1" x="1.52" y="1.52" width="154.69" height="154.69" rx="12.44" ry="12.44"/>
          </g>
        </g>
        <g>
          <path class="cls-12" d="M69.44,38.12c0,9.2,3.6,17.55,9.43,23.77,5.83-6.23,9.43-14.57,9.43-23.77s-3.59-17.55-9.43-23.77c-5.83,6.23-9.43,14.57-9.43,23.77"/>
          <path class="cls-12" d="M101.01,43.4c-6.51,6.51-9.86,14.95-10.14,23.48,8.53-.28,16.97-3.64,23.48-10.14,6.51-6.51,9.86-14.95,10.14-23.48-8.52.28-16.97,3.64-23.48,10.14"/>
          <path class="cls-12" d="M119.61,69.44c-9.2,0-17.55,3.6-23.77,9.43,6.23,5.83,14.57,9.43,23.77,9.43s17.55-3.59,23.77-9.43c-6.23-5.83-14.57-9.43-23.77-9.43"/>
          <path class="cls-12" d="M114.34,101.01c-6.51-6.51-14.95-9.86-23.48-10.14.28,8.53,3.64,16.97,10.14,23.48,6.51,6.51,14.95,9.86,23.48,10.14-.28-8.52-3.64-16.97-10.14-23.48"/>
          <path class="cls-12" d="M88.3,119.61c0-9.2-3.6-17.55-9.43-23.77-5.83,6.23-9.43,14.57-9.43,23.77s3.59,17.55,9.43,23.77c5.83-6.23,9.43-14.57,9.43-23.77"/>
          <path class="cls-12" d="M56.72,114.35c6.51-6.51,9.86-14.95,10.14-23.48-8.53.28-16.97,3.64-23.48,10.14-6.51,6.51-9.86,14.95-10.14,23.48,8.52-.28,16.97-3.64,23.48-10.14"/>
          <path class="cls-12" d="M38.13,88.3c9.2,0,17.55-3.6,23.77-9.43-6.23-5.83-14.57-9.43-23.77-9.43s-17.55,3.59-23.77,9.43c6.23,5.83,14.57,9.43,23.77,9.43"/>
          <path class="cls-12" d="M43.39,56.73c6.51,6.51,14.95,9.86,23.48,10.14-.28-8.53-3.64-16.97-10.14-23.48-6.51-6.51-14.95-9.86-23.48-10.14.28,8.52,3.64,16.97,10.14,23.48"/>
          <path class="cls-12" d="M91.11,78.87c0,6.76-5.48,12.25-12.25,12.25s-12.25-5.48-12.25-12.25,5.48-12.25,12.25-12.25,12.25,5.48,12.25,12.25"/>
        </g>
      </g>
      <g>
        <g>
          <g>
            <rect class="cls-10" x="180.68" y="1.52" width="154.69" height="154.69" rx="12.44" ry="12.44"/>
            <g class="cls-4">
              <g>
                <g>
                  <rect class="cls-10" x="180.68" y="1.53" width="154.68" height="154.68"/>
                  <rect class="cls-1" x="180.68" y="1.53" width="154.68" height="154.68"/>
                </g>
                <rect class="cls-2" x="180.68" y="1.53" width="154.69" height="154.68"/>
                <g>
                  <rect class="cls-10" x="180.68" y="1.53" width="154.69" height="154.68"/>
                  <rect class="cls-1" x="180.68" y="1.53" width="154.69" height="154.68"/>
                </g>
                <g>
                  <rect class="cls-10" x="180.68" y="1.53" width="154.69" height="154.68"/>
                  <rect class="cls-1" x="180.68" y="1.53" width="154.69" height="154.68"/>
                </g>
                <g>
                  <rect class="cls-10" x="180.68" y="1.53" width="154.69" height="154.68"/>
                  <rect class="cls-1" x="180.68" y="1.53" width="154.69" height="154.68"/>
                </g>
                <g>
                  <rect class="cls-10" x="180.68" y="1.53" width="154.69" height="154.68"/>
                  <rect class="cls-1" x="180.68" y="1.53" width="154.69" height="154.68"/>
                </g>
              </g>
            </g>
            <rect class="cls-1" x="180.68" y="1.52" width="154.69" height="154.69" rx="12.44" ry="12.44"/>
          </g>
          <g>
            <rect class="cls-10" x="180.68" y="1.52" width="154.69" height="154.69" rx="12.44" ry="12.44"/>
            <g class="cls-3">
              <g>
                <g>
                  <rect class="cls-10" x="180.68" y="1.53" width="154.68" height="154.68"/>
                  <rect class="cls-1" x="180.68" y="1.53" width="154.68" height="154.68"/>
                </g>
                <rect class="cls-11" x="180.68" y="1.53" width="154.69" height="154.68"/>
                <g>
                  <rect class="cls-10" x="180.68" y="1.53" width="154.69" height="154.68"/>
                  <rect class="cls-1" x="180.68" y="1.53" width="154.69" height="154.68"/>
                </g>
                <g>
                  <rect class="cls-10" x="180.68" y="1.53" width="154.69" height="154.68"/>
                  <rect class="cls-1" x="180.68" y="1.53" width="154.69" height="154.68"/>
                </g>
                <g>
                  <rect class="cls-10" x="180.68" y="1.53" width="154.69" height="154.68"/>
                  <rect class="cls-1" x="180.68" y="1.53" width="154.69" height="154.68"/>
                </g>
                <g>
                  <rect class="cls-10" x="180.68" y="1.53" width="154.69" height="154.68"/>
                  <rect class="cls-1" x="180.68" y="1.53" width="154.69" height="154.68"/>
                </g>
              </g>
            </g>
            <rect class="cls-1" x="180.68" y="1.52" width="154.69" height="154.69" rx="12.44" ry="12.44"/>
          </g>
        </g>
        <g>
          <path class="cls-12" d="M248.6,38.12c0,9.2,3.6,17.55,9.43,23.77,5.83-6.23,9.43-14.57,9.43-23.77s-3.59-17.55-9.43-23.77c-5.83,6.23-9.43,14.57-9.43,23.77"/>
          <path class="cls-12" d="M280.17,43.4c-6.51,6.51-9.86,14.95-10.14,23.48,8.53-.28,16.97-3.64,23.48-10.14,6.51-6.51,9.86-14.95,10.14-23.48-8.52.28-16.97,3.64-23.48,10.14"/>
          <path class="cls-12" d="M298.77,69.44c-9.2,0-17.55,3.6-23.77,9.43,6.23,5.83,14.57,9.43,23.77,9.43s17.55-3.59,23.77-9.43c-6.23-5.83-14.57-9.43-23.77-9.43"/>
          <path class="cls-12" d="M293.5,101.01c-6.51-6.51-14.95-9.86-23.48-10.14.28,8.53,3.64,16.97,10.14,23.48,6.51,6.51,14.95,9.86,23.48,10.14-.28-8.52-3.64-16.97-10.14-23.48"/>
          <path class="cls-12" d="M267.45,119.61c0-9.2-3.6-17.55-9.43-23.77-5.83,6.23-9.43,14.57-9.43,23.77s3.59,17.55,9.43,23.77c5.83-6.23,9.43-14.57,9.43-23.77"/>
          <path class="cls-12" d="M235.88,114.35c6.51-6.51,9.86-14.95,10.14-23.48-8.53.28-16.97,3.64-23.48,10.14-6.51,6.51-9.86,14.95-10.14,23.48,8.52-.28,16.97-3.64,23.48-10.14"/>
          <path class="cls-12" d="M217.28,88.3c9.2,0,17.55-3.6,23.77-9.43-6.23-5.83-14.57-9.43-23.77-9.43s-17.55,3.59-23.77,9.43c6.23,5.83,14.57,9.43,23.77,9.43"/>
          <path class="cls-12" d="M222.55,56.73c6.51,6.51,14.95,9.86,23.48,10.14-.28-8.53-3.64-16.97-10.14-23.48-6.51-6.51-14.95-9.86-23.48-10.14.28,8.52,3.64,16.97,10.14,23.48"/>
          <path class="cls-12" d="M270.27,78.87c0,6.76-5.48,12.25-12.25,12.25s-12.25-5.48-12.25-12.25,5.48-12.25,12.25-12.25,12.25,5.48,12.25,12.25"/>
        </g>
      </g>
      <g>
        <g>
          <g>
            <rect class="cls-10" x="359.84" y="1.52" width="154.69" height="154.69" rx="12.44" ry="12.44"/>
            <g class="cls-7">
              <g>
                <g>
                  <rect class="cls-10" x="359.84" y="1.53" width="154.68" height="154.68"/>
                  <rect class="cls-1" x="359.84" y="1.53" width="154.68" height="154.68"/>
                </g>
                <rect class="cls-2" x="359.84" y="1.53" width="154.69" height="154.68"/>
                <g>
                  <rect class="cls-10" x="359.84" y="1.53" width="154.69" height="154.68"/>
                  <rect class="cls-1" x="359.84" y="1.53" width="154.69" height="154.68"/>
                </g>
                <g>
                  <rect class="cls-10" x="359.84" y="1.53" width="154.69" height="154.68"/>
                  <rect class="cls-1" x="359.84" y="1.53" width="154.69" height="154.68"/>
                </g>
                <g>
                  <rect class="cls-10" x="359.84" y="1.53" width="154.69" height="154.68"/>
                  <rect class="cls-1" x="359.84" y="1.53" width="154.69" height="154.68"/>
                </g>
                <g>
                  <rect class="cls-10" x="359.84" y="1.53" width="154.69" height="154.68"/>
                  <rect class="cls-1" x="359.84" y="1.53" width="154.69" height="154.68"/>
                </g>
              </g>
            </g>
            <rect class="cls-1" x="359.84" y="1.52" width="154.69" height="154.69" rx="12.44" ry="12.44"/>
          </g>
          <g>
            <rect class="cls-10" x="359.84" y="1.52" width="154.69" height="154.69" rx="12.44" ry="12.44"/>
            <g class="cls-5">
              <g>
                <g>
                  <rect class="cls-10" x="359.84" y="1.53" width="154.68" height="154.68"/>
                  <rect class="cls-1" x="359.84" y="1.53" width="154.68" height="154.68"/>
                </g>
                <rect class="cls-11" x="359.84" y="1.53" width="154.69" height="154.68"/>
                <g>
                  <rect class="cls-10" x="359.84" y="1.53" width="154.69" height="154.68"/>
                  <rect class="cls-1" x="359.84" y="1.53" width="154.69" height="154.68"/>
                </g>
                <g>
                  <rect class="cls-10" x="359.84" y="1.53" width="154.69" height="154.68"/>
                  <rect class="cls-1" x="359.84" y="1.53" width="154.69" height="154.68"/>
                </g>
                <g>
                  <rect class="cls-10" x="359.84" y="1.53" width="154.69" height="154.68"/>
                  <rect class="cls-1" x="359.84" y="1.53" width="154.69" height="154.68"/>
                </g>
                <g>
                  <rect class="cls-10" x="359.84" y="1.53" width="154.69" height="154.68"/>
                  <rect class="cls-1" x="359.84" y="1.53" width="154.69" height="154.68"/>
                </g>
              </g>
            </g>
            <rect class="cls-1" x="359.84" y="1.52" width="154.69" height="154.69" rx="12.44" ry="12.44"/>
          </g>
        </g>
        <g>
          <path class="cls-12" d="M427.76,38.12c0,9.2,3.6,17.55,9.43,23.77,5.83-6.23,9.43-14.57,9.43-23.77s-3.59-17.55-9.43-23.77c-5.83,6.23-9.43,14.57-9.43,23.77"/>
          <path class="cls-12" d="M459.33,43.4c-6.51,6.51-9.86,14.95-10.14,23.48,8.53-.28,16.97-3.64,23.48-10.14,6.51-6.51,9.86-14.95,10.14-23.48-8.52.28-16.97,3.64-23.48,10.14"/>
          <path class="cls-12" d="M477.93,69.44c-9.2,0-17.55,3.6-23.77,9.43,6.23,5.83,14.57,9.43,23.77,9.43s17.55-3.59,23.77-9.43c-6.23-5.83-14.57-9.43-23.77-9.43"/>
          <path class="cls-12" d="M472.66,101.01c-6.51-6.51-14.95-9.86-23.48-10.14.28,8.53,3.64,16.97,10.14,23.48,6.51,6.51,14.95,9.86,23.48,10.14-.28-8.52-3.64-16.97-10.14-23.48"/>
          <path class="cls-12" d="M446.61,119.61c0-9.2-3.6-17.55-9.43-23.77-5.83,6.23-9.43,14.57-9.43,23.77s3.59,17.55,9.43,23.77c5.83-6.23,9.43-14.57,9.43-23.77"/>
          <path class="cls-12" d="M415.04,114.35c6.51-6.51,9.86-14.95,10.14-23.48-8.53.28-16.97,3.64-23.48,10.14-6.51,6.51-9.86,14.95-10.14,23.48,8.52-.28,16.97-3.64,23.48-10.14"/>
          <path class="cls-12" d="M396.44,88.3c9.2,0,17.55-3.6,23.77-9.43-6.23-5.83-14.57-9.43-23.77-9.43s-17.55,3.59-23.77,9.43c6.23,5.83,14.57,9.43,23.77,9.43"/>
          <path class="cls-12" d="M401.71,56.73c6.51,6.51,14.95,9.86,23.48,10.14-.28-8.53-3.64-16.97-10.14-23.48-6.51-6.51-14.95-9.86-23.48-10.14.28,8.52,3.64,16.97,10.14,23.48"/>
          <path class="cls-12" d="M449.43,78.87c0,6.76-5.48,12.25-12.25,12.25s-12.25-5.48-12.25-12.25,5.48-12.25,12.25-12.25,12.25,5.48,12.25,12.25"/>
        </g>
      </g>
      <g>
        <g>
          <g>
            <rect class="cls-10" x="539" y="1.52" width="154.69" height="154.69" rx="12.44" ry="12.44"/>
            <g class="cls-6">
              <g>
                <g>
                  <rect class="cls-10" x="539" y="1.53" width="154.68" height="154.68"/>
                  <rect class="cls-1" x="539" y="1.53" width="154.68" height="154.68"/>
                </g>
                <rect class="cls-2" x="539" y="1.53" width="154.69" height="154.68"/>
                <g>
                  <rect class="cls-10" x="539" y="1.53" width="154.69" height="154.68"/>
                  <rect class="cls-1" x="539" y="1.53" width="154.69" height="154.68"/>
                </g>
                <g>
                  <rect class="cls-10" x="539" y="1.53" width="154.69" height="154.68"/>
                  <rect class="cls-1" x="539" y="1.53" width="154.69" height="154.68"/>
                </g>
                <g>
                  <rect class="cls-10" x="539" y="1.53" width="154.69" height="154.68"/>
                  <rect class="cls-1" x="539" y="1.53" width="154.69" height="154.68"/>
                </g>
                <g>
                  <rect class="cls-10" x="539" y="1.53" width="154.69" height="154.68"/>
                  <rect class="cls-1" x="539" y="1.53" width="154.69" height="154.68"/>
                </g>
              </g>
            </g>
            <rect class="cls-1" x="539" y="1.52" width="154.69" height="154.69" rx="12.44" ry="12.44"/>
          </g>
          <g>
            <rect class="cls-10" x="539" y="1.52" width="154.69" height="154.69" rx="12.44" ry="12.44"/>
            <g class="cls-8">
              <g>
                <g>
                  <rect class="cls-10" x="539" y="1.53" width="154.68" height="154.68"/>
                  <rect class="cls-1" x="539" y="1.53" width="154.68" height="154.68"/>
                </g>
                <rect class="cls-11" x="539" y="1.53" width="154.69" height="154.68"/>
                <g>
                  <rect class="cls-10" x="539" y="1.53" width="154.69" height="154.68"/>
                  <rect class="cls-1" x="539" y="1.53" width="154.69" height="154.68"/>
                </g>
                <g>
                  <rect class="cls-10" x="539" y="1.53" width="154.69" height="154.68"/>
                  <rect class="cls-1" x="539" y="1.53" width="154.69" height="154.68"/>
                </g>
                <g>
                  <rect class="cls-10" x="539" y="1.53" width="154.69" height="154.68"/>
                  <rect class="cls-1" x="539" y="1.53" width="154.69" height="154.68"/>
                </g>
                <g>
                  <rect class="cls-10" x="539" y="1.53" width="154.69" height="154.68"/>
                  <rect class="cls-1" x="539" y="1.53" width="154.69" height="154.68"/>
                </g>
              </g>
            </g>
            <rect class="cls-1" x="539" y="1.52" width="154.69" height="154.69" rx="12.44" ry="12.44"/>
          </g>
        </g>
        <g>
          <path class="cls-12" d="M606.91,38.12c0,9.2,3.6,17.55,9.43,23.77,5.83-6.23,9.43-14.57,9.43-23.77s-3.59-17.55-9.43-23.77c-5.83,6.23-9.43,14.57-9.43,23.77"/>
          <path class="cls-12" d="M638.49,43.4c-6.51,6.51-9.86,14.95-10.14,23.48,8.53-.28,16.97-3.64,23.48-10.14,6.51-6.51,9.86-14.95,10.14-23.48-8.52.28-16.97,3.64-23.48,10.14"/>
          <path class="cls-12" d="M657.09,69.44c-9.2,0-17.55,3.6-23.77,9.43,6.23,5.83,14.57,9.43,23.77,9.43s17.55-3.59,23.77-9.43c-6.23-5.83-14.57-9.43-23.77-9.43"/>
          <path class="cls-12" d="M651.82,101.01c-6.51-6.51-14.95-9.86-23.48-10.14.28,8.53,3.64,16.97,10.14,23.48,6.51,6.51,14.95,9.86,23.48,10.14-.28-8.52-3.64-16.97-10.14-23.48"/>
          <path class="cls-12" d="M625.77,119.61c0-9.2-3.6-17.55-9.43-23.77-5.83,6.23-9.43,14.57-9.43,23.77s3.59,17.55,9.43,23.77c5.83-6.23,9.43-14.57,9.43-23.77"/>
          <path class="cls-12" d="M594.2,114.35c6.51-6.51,9.86-14.95,10.14-23.48-8.53.28-16.97,3.64-23.48,10.14-6.51,6.51-9.86,14.95-10.14,23.48,8.52-.28,16.97-3.64,23.48-10.14"/>
          <path class="cls-12" d="M575.6,88.3c9.2,0,17.55-3.6,23.77-9.43-6.23-5.83-14.57-9.43-23.77-9.43s-17.55,3.59-23.77,9.43c6.23,5.83,14.57,9.43,23.77,9.43"/>
          <path class="cls-12" d="M580.87,56.73c6.51,6.51,14.95,9.86,23.48,10.14-.28-8.53-3.64-16.97-10.14-23.48-6.51-6.51-14.95-9.86-23.48-10.14.28,8.52,3.64,16.97,10.14,23.48"/>
          <path class="cls-12" d="M628.59,78.87c0,6.76-5.48,12.25-12.25,12.25s-12.25-5.48-12.25-12.25,5.48-12.25,12.25-12.25,12.25,5.48,12.25,12.25"/>
        </g>
      </g>
    </g>
  </g>
</svg>