<?xml version="1.0" encoding="UTF-8"?>
<svg id="Layer_2" data-name="Layer 2" xmlns="http://www.w3.org/2000/svg" viewBox="0 0 639.31 174.88">
  <g id="Layer_1-2" data-name="Layer 1">
    <g>
      <path d="M13.75,38.82c-8.41,0-13.75-5.06-13.75-17.32v-4.18C0,5.06,5.33,0,13.75,0s13.75,5.06,13.75,17.32v4.18c0,12.26-5.33,17.32-13.75,17.32ZM4.73,21.5c0,9.4,3.19,13.03,9.02,13.03s9.02-3.63,9.02-13.03v-4.18c0-9.4-3.19-13.03-9.02-13.03s-9.02,3.63-9.02,13.03v4.18Z"/>
      <path d="M34.92,10.89h4.4v2.69c1.38-2.09,3.3-3.13,7.37-3.13,5.88,0,10.01,3.08,10.01,10.78v17.16h-4.4v-17.1c0-5.55-3.03-6.76-6.27-6.76-4.12,0-6.71,2.91-6.71,6.71v17.16h-4.4V10.89Z"/>
      <path d="M84.97,34.21c-1.71,3.19-5.06,4.62-9.51,4.62-7.54,0-11.88-4.84-11.88-12.43v-3.63c0-7.81,4.46-12.32,11.88-12.32,4.12,0,7.53,1.48,9.51,4.29l-3.46,2.42c-1.21-1.76-3.52-2.75-6.05-2.75-4.73,0-7.48,3.19-7.48,8.36v3.63c0,4.73,2.2,8.47,7.48,8.47,2.58,0,4.95-.88,6.1-3.08l3.41,2.42Z"/>
      <path d="M110.49,34.21c-1.92,3.35-4.84,4.62-9.62,4.62-7.37,0-11.77-4.78-11.77-12.43v-3.63c0-7.81,3.68-12.32,10.89-12.32s10.89,4.45,10.89,12.32v2.86h-17.38v.77c0,4.73,2.25,8.47,7.04,8.47,3.57,0,5.39-1.04,6.54-3.08l3.41,2.42ZM93.5,21.78h12.92c-.22-4.62-2.26-7.37-6.44-7.37s-6.21,2.8-6.49,7.37Z"/>
      <path d="M140.74,38.66l-10.78-27.77h4.73l8.19,21.34,7.21-21.34h4.67l-9.68,28.38c-2.26,6.6-3.74,9.57-11.44,9.57v-4.29c3.63,0,5.33-.6,6.98-5.5l.11-.39Z"/>
      <path d="M181.49,26.4c0,7.15-3.52,12.43-11.44,12.43-7.31,0-11.44-4.84-11.44-12.43v-3.63c0-7.81,4.23-12.32,11.44-12.32s11.44,4.45,11.44,12.32v3.63ZM177.09,26.4v-3.63c0-5.22-2.53-8.36-7.04-8.36s-7.04,3.19-7.04,8.36v3.63c0,4.73,1.98,8.47,7.04,8.47,4.67,0,7.04-3.79,7.04-8.47Z"/>
      <path d="M210.15,38.38h-4.4v-2.69c-1.38,2.09-3.3,3.13-7.37,3.13-5.88,0-10.01-3.08-10.01-10.78V10.89h4.4v17.1c0,5.55,3.03,6.76,6.27,6.76,4.12,0,6.71-2.91,6.71-6.71V10.89h4.4v27.5Z"/>
      <path d="M253.27,34.21c-1.93,3.35-4.84,4.62-9.62,4.62-7.37,0-11.77-4.78-11.77-12.43v-3.63c0-7.81,3.68-12.32,10.89-12.32s10.89,4.45,10.89,12.32v2.86h-17.38v.77c0,4.73,2.25,8.47,7.04,8.47,3.57,0,5.39-1.04,6.54-3.08l3.41,2.42ZM236.28,21.78h12.92c-.22-4.62-2.25-7.37-6.43-7.37s-6.21,2.8-6.49,7.37Z"/>
      <path d="M261.19,10.89h4.4v2.69c1.38-2.09,3.3-3.13,7.37-3.13,5.88,0,10.01,3.08,10.01,10.78v17.16h-4.4v-17.1c0-5.55-3.02-6.76-6.27-6.76-4.12,0-6.71,2.91-6.71,6.71v17.16h-4.4V10.89Z"/>
      <path d="M288.8,10.89h3.52v-6.05h4.4v6.05h6.32v3.96h-6.32v13.97c0,3.79.44,5.39,4.12,5.39h2.2v4.18h-2.37c-6.49,0-8.36-2.75-8.36-8.47v-15.07h-3.52v-3.96Z"/>
      <path d="M329.66,34.21c-1.92,3.35-4.84,4.62-9.62,4.62-7.37,0-11.77-4.78-11.77-12.43v-3.63c0-7.81,3.68-12.32,10.89-12.32s10.89,4.45,10.89,12.32v2.86h-17.38v.77c0,4.73,2.25,8.47,7.04,8.47,3.57,0,5.39-1.04,6.54-3.08l3.41,2.42ZM312.67,21.78h12.92c-.22-4.62-2.26-7.37-6.44-7.37s-6.21,2.8-6.49,7.37Z"/>
      <path d="M352.49,16.83c-1.16-1.59-2.59-2.31-4.62-2.31-3.36,0-5.88,2.53-5.88,6.65v17.21h-4.4V10.89h4.4v2.69c1.15-1.92,3.03-3.13,6.38-3.13,3.74,0,6.1,1.27,7.86,3.74l-3.74,2.64Z"/>
      <path d="M363.16,41.63l-5.28,4.56v-14.19h5.28v9.62Z"/>
      <path d="M393.46,38.66l-10.78-27.77h4.73l8.19,21.34,7.21-21.34h4.67l-9.68,28.38c-2.26,6.6-3.74,9.57-11.44,9.57v-4.29c3.63,0,5.33-.6,6.98-5.5l.11-.39Z"/>
      <path d="M434.21,26.4c0,7.15-3.52,12.43-11.44,12.43-7.31,0-11.44-4.84-11.44-12.43v-3.63c0-7.81,4.23-12.32,11.44-12.32s11.44,4.45,11.44,12.32v3.63ZM429.81,26.4v-3.63c0-5.22-2.53-8.36-7.04-8.36s-7.04,3.19-7.04,8.36v3.63c0,4.73,1.98,8.47,7.04,8.47,4.67,0,7.04-3.79,7.04-8.47Z"/>
      <path d="M462.87,38.38h-4.4v-2.69c-1.38,2.09-3.3,3.13-7.37,3.13-5.88,0-10.01-3.08-10.01-10.78V10.89h4.4v17.1c0,5.55,3.03,6.76,6.27,6.76,4.12,0,6.71-2.91,6.71-6.71V10.89h4.4v27.5Z"/>
      <path d="M505.99,34.21c-1.71,3.19-5.06,4.62-9.51,4.62-7.54,0-11.88-4.84-11.88-12.43v-3.63c0-7.81,4.46-12.32,11.88-12.32,4.12,0,7.53,1.48,9.51,4.29l-3.46,2.42c-1.21-1.76-3.52-2.75-6.05-2.75-4.73,0-7.48,3.19-7.48,8.36v3.63c0,4.73,2.2,8.47,7.48,8.47,2.58,0,4.95-.88,6.1-3.08l3.41,2.42Z"/>
      <path d="M519.85,22.49h6.54v-3.19c0-3.9-1.81-4.78-6.11-4.78-3.3,0-5.06.27-6.6,2.8l-3.3-2.31c1.93-3.19,4.73-4.56,9.96-4.56,6.98,0,10.45,2.25,10.45,8.85v19.08h-4.4v-2.69c-1.54,2.53-3.41,3.13-6.98,3.13-6.38,0-9.84-3.13-9.84-8.47,0-5.94,4.23-7.86,10.28-7.86ZM526.39,26.23h-6.54c-4.34,0-5.88,1.48-5.88,4.23,0,3.08,2.2,4.29,5.44,4.29,4.07,0,6.98-.77,6.98-6.93v-1.59Z"/>
      <path d="M539.04,10.89h4.4v2.69c1.38-2.09,3.3-3.13,7.37-3.13,5.88,0,10.01,3.08,10.01,10.78v17.16h-4.4v-17.1c0-5.55-3.02-6.76-6.27-6.76-4.12,0-6.71,2.91-6.71,6.71v17.16h-4.4V10.89Z"/>
      <path d="M569.07,10.89h4.4v2.69c1.38-2.09,3.3-3.13,7.37-3.13,5.88,0,10.01,3.08,10.01,10.78v17.16h-4.4v-17.1c0-5.55-3.02-6.76-6.27-6.76-4.12,0-6.71,2.91-6.71,6.71v17.16h-4.4V10.89Z"/>
      <path d="M620.61,26.4c0,7.15-3.52,12.43-11.44,12.43-7.31,0-11.44-4.84-11.44-12.43v-3.63c0-7.81,4.23-12.32,11.44-12.32s11.44,4.45,11.44,12.32v3.63ZM616.21,26.4v-3.63c0-5.22-2.53-8.36-7.04-8.36s-7.04,3.19-7.04,8.36v3.63c0,4.73,1.98,8.47,7.04,8.47,4.67,0,7.04-3.79,7.04-8.47Z"/>
      <path d="M625.06,10.89h3.52v-6.05h4.4v6.05h6.32v3.96h-6.32v13.97c0,3.79.44,5.39,4.12,5.39h2.2v4.18h-2.37c-6.49,0-8.36-2.75-8.36-8.47v-15.07h-3.52v-3.96Z"/>
      <path d="M62.28,102.21c-1.92,3.35-4.84,4.62-9.62,4.62-7.37,0-11.77-4.78-11.77-12.43v-3.63c0-7.81,3.68-12.32,10.89-12.32s10.89,4.45,10.89,12.32v2.86h-17.38v.77c0,4.73,2.25,8.47,7.04,8.47,3.57,0,5.39-1.04,6.54-3.08l3.41,2.42ZM45.29,89.78h12.92c-.22-4.62-2.26-7.37-6.44-7.37s-6.21,2.8-6.49,7.37Z"/>
      <path d="M85.66,85.32c-1.48-1.92-3.02-2.8-6.82-2.8-3.24,0-5.33,1.26-5.33,3.68,0,3.13,2.75,4.07,6.38,4.34,5.17.38,9.9,1.87,9.9,8.19,0,4.78-3.24,8.08-10.34,8.08-5.61,0-8.53-1.7-10.61-4.56l3.24-2.31c1.48,1.98,3.46,2.8,7.42,2.8,3.68,0,5.88-1.43,5.88-3.9,0-2.97-1.76-4.01-7.1-4.4-4.62-.33-9.18-2.2-9.18-8.19,0-4.56,3.3-7.81,9.84-7.81,4.46,0,7.87,1.16,10.01,4.56l-3.3,2.31Z"/>
      <path d="M116.95,102.21c-1.71,3.19-5.06,4.62-9.51,4.62-7.54,0-11.88-4.84-11.88-12.43v-3.63c0-7.81,4.46-12.32,11.88-12.32,4.12,0,7.53,1.48,9.51,4.29l-3.46,2.42c-1.21-1.76-3.52-2.75-6.05-2.75-4.73,0-7.48,3.19-7.48,8.36v3.63c0,4.73,2.2,8.47,7.48,8.47,2.58,0,4.95-.88,6.1-3.08l3.41,2.42Z"/>
      <path d="M130.81,90.49h6.54v-3.19c0-3.9-1.81-4.78-6.11-4.78-3.3,0-5.06.27-6.6,2.8l-3.3-2.31c1.93-3.19,4.73-4.56,9.96-4.56,6.98,0,10.45,2.25,10.45,8.85v19.08h-4.4v-2.69c-1.54,2.53-3.41,3.13-6.98,3.13-6.38,0-9.84-3.13-9.84-8.47,0-5.94,4.23-7.86,10.28-7.86ZM137.36,94.23h-6.54c-4.34,0-5.88,1.48-5.88,4.23,0,3.08,2.2,4.29,5.44,4.29,4.07,0,6.98-.77,6.98-6.93v-1.59Z"/>
      <path d="M161.89,78.45c6.82,0,11,4.45,11,12.32v3.63c0,7.15-3.52,12.43-11,12.43-3.63,0-5.99-1.15-7.48-3.19v13.2h-4.4v-37.94h4.4v2.75c1.49-2.03,3.85-3.19,7.48-3.19ZM168.49,94.4v-3.63c0-5.22-2.53-8.36-7.04-8.36s-7.04,3.02-7.04,7.97v4.01c0,4.73,1.98,8.47,7.04,8.47,4.68,0,7.04-3.79,7.04-8.47Z"/>
      <path d="M199.78,102.21c-1.92,3.35-4.84,4.62-9.62,4.62-7.37,0-11.77-4.78-11.77-12.43v-3.63c0-7.81,3.68-12.32,10.89-12.32s10.89,4.45,10.89,12.32v2.86h-17.38v.77c0,4.73,2.25,8.47,7.04,8.47,3.57,0,5.39-1.04,6.54-3.08l3.41,2.42ZM182.79,89.78h12.92c-.22-4.62-2.26-7.37-6.44-7.37s-6.21,2.8-6.49,7.37Z"/>
      <path d="M244.33,106.38h-4.4v-2.69c-1.38,2.09-3.3,3.13-7.37,3.13-5.88,0-10.01-3.08-10.01-10.78v-17.16h4.4v17.1c0,5.55,3.03,6.76,6.27,6.76,4.12,0,6.71-2.91,6.71-6.71v-17.16h4.4v27.5Z"/>
      <path d="M252.58,78.89h4.4v2.69c1.38-2.09,3.3-3.13,7.37-3.13,5.88,0,10.01,3.08,10.01,10.78v17.16h-4.4v-17.1c0-5.55-3.02-6.76-6.27-6.76-4.12,0-6.71,2.91-6.71,6.71v17.16h-4.4v-27.5Z"/>
      <path d="M280.2,78.89h3.52v-6.05h4.4v6.05h6.32v3.96h-6.32v13.97c0,3.79.44,5.39,4.12,5.39h2.2v4.18h-2.37c-6.49,0-8.36-2.75-8.36-8.47v-15.07h-3.52v-3.96Z"/>
      <path d="M301.59,68.44h4.95v4.95h-4.95v-4.95ZM301.86,78.89h4.4v27.5h-4.4v-27.5Z"/>
      <path d="M315.34,68.44h4.4v28.38c0,2.97.16,5.5,4.67,5.5v4.07c-6.93,0-9.07-2.75-9.07-8.47v-29.48Z"/>
      <path d="M353.84,106.66l-10.78-27.77h4.73l8.2,21.34,7.2-21.34h4.68l-9.68,28.38c-2.25,6.6-3.74,9.57-11.44,9.57v-4.29c3.63,0,5.33-.6,6.98-5.5l.11-.39Z"/>
      <path d="M394.59,94.4c0,7.15-3.52,12.43-11.44,12.43-7.31,0-11.44-4.84-11.44-12.43v-3.63c0-7.81,4.23-12.32,11.44-12.32s11.44,4.45,11.44,12.32v3.63ZM390.19,94.4v-3.63c0-5.22-2.53-8.36-7.04-8.36s-7.04,3.19-7.04,8.36v3.63c0,4.73,1.98,8.47,7.04,8.47,4.67,0,7.04-3.79,7.04-8.47Z"/>
      <path d="M423.24,106.38h-4.4v-2.69c-1.38,2.09-3.3,3.13-7.37,3.13-5.88,0-10.01-3.08-10.01-10.78v-17.16h4.4v17.1c0,5.55,3.03,6.76,6.27,6.76,4.12,0,6.71-2.91,6.71-6.71v-17.16h4.4v27.5Z"/>
      <path d="M466.36,102.21c-1.71,3.19-5.06,4.62-9.51,4.62-7.53,0-11.88-4.84-11.88-12.43v-3.63c0-7.81,4.45-12.32,11.88-12.32,4.12,0,7.54,1.48,9.51,4.29l-3.46,2.42c-1.21-1.76-3.52-2.75-6.05-2.75-4.73,0-7.48,3.19-7.48,8.36v3.63c0,4.73,2.2,8.47,7.48,8.47,2.59,0,4.95-.88,6.11-3.08l3.41,2.42Z"/>
      <path d="M493.37,94.4c0,7.15-3.52,12.43-11.44,12.43-7.31,0-11.44-4.84-11.44-12.43v-3.63c0-7.81,4.23-12.32,11.44-12.32s11.44,4.45,11.44,12.32v3.63ZM488.97,94.4v-3.63c0-5.22-2.53-8.36-7.04-8.36s-7.04,3.19-7.04,8.36v3.63c0,4.73,1.98,8.47,7.04,8.47,4.67,0,7.04-3.79,7.04-8.47Z"/>
      <path d="M500.24,68.44h4.4v28.38c0,2.97.16,5.5,4.67,5.5v4.07c-6.93,0-9.07-2.75-9.07-8.47v-29.48Z"/>
      <path d="M516.41,68.44h4.4v28.38c0,2.97.17,5.5,4.68,5.5v4.07c-6.93,0-9.07-2.75-9.07-8.47v-29.48Z"/>
      <path d="M552.6,102.21c-1.92,3.35-4.84,4.62-9.62,4.62-7.37,0-11.77-4.78-11.77-12.43v-3.63c0-7.81,3.68-12.32,10.89-12.32s10.89,4.45,10.89,12.32v2.86h-17.38v.77c0,4.73,2.25,8.47,7.04,8.47,3.57,0,5.39-1.04,6.54-3.08l3.41,2.42ZM535.61,89.78h12.92c-.22-4.62-2.26-7.37-6.44-7.37s-6.21,2.8-6.49,7.37Z"/>
      <path d="M580.54,102.21c-1.71,3.19-5.06,4.62-9.51,4.62-7.54,0-11.88-4.84-11.88-12.43v-3.63c0-7.81,4.46-12.32,11.88-12.32,4.12,0,7.53,1.48,9.51,4.29l-3.46,2.42c-1.21-1.76-3.52-2.75-6.05-2.75-4.73,0-7.48,3.19-7.48,8.36v3.63c0,4.73,2.2,8.47,7.48,8.47,2.58,0,4.95-.88,6.1-3.08l3.41,2.42Z"/>
      <path d="M583.62,78.89h3.52v-6.05h4.4v6.05h6.32v3.96h-6.32v13.97c0,3.79.44,5.39,4.12,5.39h2.2v4.18h-2.37c-6.49,0-8.36-2.75-8.36-8.47v-15.07h-3.52v-3.96Z"/>
      <path d="M143.35,136.44v5.55h-16.88v10.89h15.23v5.5h-15.23v16h-6.38v-37.94h23.26Z"/>
      <path d="M156.99,174.38h-6.38v-37.94h6.38v37.94Z"/>
      <path d="M170.08,136.44l9.35,27.77,9.46-27.77h6.98l-13.47,37.94h-5.83l-13.47-37.94h6.98Z"/>
      <path d="M224.75,136.44v5.55h-16.88v10.01h15.23v5.5h-15.23v11.38h16.88v5.5h-23.26v-37.94h23.26Z"/>
      <path d="M270.01,136.44v5.55h-16.88v10.89h15.23v5.5h-15.23v16h-6.38v-37.94h23.26Z"/>
      <path d="M283.11,168.89h16.88v5.5h-23.26v-37.94h6.38v32.45Z"/>
      <path d="M316.88,174.88c-8.47,0-14.19-5.11-14.19-17.05v-4.84c0-11.93,5.72-17.05,14.19-17.05s14.24,5.11,14.24,17.05v4.84c0,11.93-5.72,17.05-14.24,17.05ZM309.06,157.83c0,8.19,2.75,11.49,7.81,11.49s7.86-3.3,7.86-11.49v-4.84c0-8.19-2.8-11.49-7.86-11.49s-7.81,3.3-7.81,11.49v4.84Z"/>
      <path d="M350.42,174.38h-6.16l-8.96-37.94h6.82l5.83,27.11,7.75-27.11h5.88l7.92,27.28,5.83-27.28h6.82l-8.96,37.94h-6.21l-8.3-27.61-8.25,27.61Z"/>
      <path d="M411.14,136.44v5.55h-16.88v10.01h15.23v5.5h-15.23v11.38h16.88v5.5h-23.26v-37.94h23.26Z"/>
      <path d="M439.36,174.38l-7.31-15.4h-7.37v15.4h-6.38v-37.94h12.92c8.74,0,13.97,3.79,13.97,11.33,0,5.22-2.47,8.58-6.88,10.17l8.08,16.44h-7.04ZM430.78,153.49c5.39,0,8.03-1.43,8.03-5.72s-2.64-5.77-8.03-5.77h-6.11v11.49h6.11Z"/>
      <path d="M472.74,145.62c-1.87-2.58-3.9-4.12-8.2-4.12-3.9,0-6.21,1.76-6.21,4.95,0,3.63,2.86,5.06,8.14,6.21,7.64,1.65,11.6,4.51,11.6,11.33,0,5.66-3.79,10.89-12.92,10.89-6.49,0-11.05-1.98-14.19-6.21l5-3.46c2.25,2.69,4.51,4.12,8.85,4.12,5.22,0,6.88-2.31,6.88-5.06,0-3.02-1.71-4.89-8.3-6.32-7.31-1.54-11.44-5.06-11.44-11.49,0-5.72,3.74-10.5,12.65-10.5,6.05,0,10.28,2.03,12.98,6.21l-4.84,3.46Z"/>
      <path d="M491.11,174.38h-6.38v-6.38h6.38v6.38Z"/>
      <path d="M505.19,174.38h-6.38v-6.38h6.38v6.38Z"/>
      <path d="M519.27,174.38h-6.38v-6.38h6.38v6.38Z"/>
    </g>
  </g>
</svg>