<?xml version="1.0" encoding="UTF-8"?>
<svg id="Layer_2" data-name="Layer 2" xmlns="http://www.w3.org/2000/svg" viewBox="0 0 542.77 96.5">
  <g id="Layer_1-2" data-name="Layer 1">
    <g>
      <path d="M22.49,10.52c-.77-.97-1.77-1.74-3-2.32s-2.42-.86-3.57-.86c-.59,0-1.19.05-1.79.16-.61.11-1.15.31-1.64.6-.48.3-.89.68-1.22,1.15-.33.47-.5,1.07-.5,1.79,0,.62.14,1.15.39,1.56.26.42.64.78,1.15,1.09.5.31,1.1.6,1.79.86s1.47.53,2.34.81c1.25.41,2.55.88,3.91,1.38,1.35.5,2.58,1.17,3.7,2,1.11.83,2.03,1.86,2.76,3.1.73,1.23,1.09,2.77,1.09,4.61,0,2.12-.39,3.95-1.18,5.5-.78,1.54-1.83,2.82-3.15,3.82-1.32,1.01-2.83,1.75-4.53,2.24s-3.45.73-5.26.73c-2.64,0-5.19-.46-7.66-1.38-2.47-.92-4.51-2.23-6.14-3.93l5.83-5.93c.9,1.11,2.09,2.04,3.57,2.79,1.47.75,2.94,1.12,4.4,1.12.66,0,1.3-.07,1.92-.21.62-.14,1.18-.36,1.64-.68s.84-.73,1.12-1.25.41-1.14.41-1.87-.18-1.28-.52-1.77-.84-.93-1.48-1.33c-.65-.4-1.44-.76-2.4-1.09-.95-.33-2.04-.68-3.25-1.07-1.18-.38-2.33-.83-3.46-1.35-1.13-.52-2.13-1.19-3.02-2-.88-.82-1.6-1.81-2.13-2.97-.54-1.16-.81-2.58-.81-4.24,0-2.05.42-3.8,1.25-5.26.84-1.46,1.93-2.66,3.28-3.59,1.35-.94,2.88-1.62,4.58-2.06,1.7-.43,3.42-.65,5.16-.65,2.09,0,4.21.38,6.38,1.14s4.07,1.89,5.7,3.38l-5.67,5.99Z"/>
      <path d="M57.05,37.8v-15.41h-14.37v15.41h-8.91V.94h8.91v13.95h14.37V.94h8.91v36.86h-8.91Z"/>
      <path d="M73.55,37.8V.94h24.79v7.5h-16.19v6.98h15.3v7.13h-15.3v7.65h17.13v7.6h-25.72Z"/>
      <path d="M130.14,37.8l-2.86-7.24h-14.26l-2.71,7.24h-9.68L116.09.94h8.64l15.3,36.86h-9.89ZM120.25,10.78l-4.69,12.65h9.27l-4.58-12.65Z"/>
      <path d="M162.84,37.8l-8-14.63h-3.04v14.63h-8.69V.94h14.06c1.77,0,3.49.18,5.18.55,1.68.36,3.19.98,4.53,1.85s2.4,2.01,3.2,3.43c.8,1.43,1.2,3.2,1.2,5.31,0,2.5-.68,4.6-2.03,6.3-1.35,1.7-3.23,2.91-5.62,3.64l9.63,15.77h-10.41ZM162.47,12.23c0-.87-.18-1.57-.54-2.11-.37-.54-.84-.95-1.41-1.25-.58-.29-1.22-.49-1.94-.6-.72-.11-1.41-.16-2.07-.16h-4.75v8.59h4.23c.73,0,1.49-.06,2.26-.18.77-.12,1.46-.34,2.09-.65.62-.31,1.14-.76,1.54-1.36.4-.59.6-1.35.6-2.29Z"/>
      <path d="M197.09,10.52c-.77-.97-1.77-1.74-3-2.32-1.23-.57-2.42-.86-3.57-.86-.59,0-1.19.05-1.79.16-.61.11-1.15.31-1.64.6-.48.3-.89.68-1.22,1.15-.33.47-.5,1.07-.5,1.79,0,.62.14,1.15.39,1.56.26.42.64.78,1.15,1.09.5.31,1.1.6,1.79.86s1.47.53,2.34.81c1.25.41,2.55.88,3.91,1.38,1.35.5,2.58,1.17,3.7,2,1.11.83,2.03,1.86,2.76,3.1.73,1.23,1.09,2.77,1.09,4.61,0,2.12-.39,3.95-1.18,5.5-.78,1.54-1.83,2.82-3.15,3.82-1.32,1.01-2.83,1.75-4.53,2.24s-3.45.73-5.26.73c-2.64,0-5.19-.46-7.66-1.38-2.47-.92-4.51-2.23-6.14-3.93l5.83-5.93c.9,1.11,2.09,2.04,3.57,2.79s2.94,1.12,4.4,1.12c.66,0,1.3-.07,1.92-.21.62-.14,1.18-.36,1.64-.68s.84-.73,1.12-1.25.41-1.14.41-1.87-.18-1.28-.52-1.77c-.35-.49-.84-.93-1.48-1.33-.65-.4-1.44-.76-2.4-1.09-.95-.33-2.04-.68-3.25-1.07-1.18-.38-2.33-.83-3.46-1.35-1.13-.52-2.13-1.19-3.02-2-.88-.82-1.6-1.81-2.13-2.97s-.81-2.58-.81-4.24c0-2.05.42-3.8,1.25-5.26.84-1.46,1.93-2.66,3.28-3.59,1.35-.94,2.88-1.62,4.58-2.06,1.7-.43,3.42-.65,5.16-.65,2.09,0,4.21.38,6.38,1.14,2.17.76,4.07,1.89,5.7,3.38l-5.67,5.99Z"/>
      <path d="M14.03,87.24c-2.23,0-4.05-.38-5.47-1.15-1.42-.76-2.55-1.73-3.38-2.9-.84-1.17-1.41-2.44-1.73-3.82-.33-1.38-.48-2.68-.48-3.9v-18.53h3v18.2c0,1.2.14,2.36.42,3.48.28,1.12.73,2.13,1.35,3,.63.88,1.45,1.59,2.49,2.13s2.3.82,3.8.82,2.77-.27,3.8-.82c1.03-.54,1.86-1.25,2.49-2.13s1.07-1.88,1.35-3c.28-1.13.42-2.29.42-3.48v-18.2h3v18.53c0,1.23-.16,2.52-.48,3.9-.33,1.38-.9,2.65-1.73,3.82s-1.97,2.14-3.4,2.9-3.25,1.15-5.45,1.15Z"/>
      <path d="M35.15,66.95c.05.53.1,1.11.12,1.75.03.64.04,1.17.04,1.59h.09c.55-1.14,1.46-2.07,2.71-2.77,1.25-.71,2.57-1.06,3.97-1.06,2.47,0,4.33.74,5.57,2.21s1.85,3.42,1.85,5.84v11.98h-2.84v-10.81c0-1.03-.08-1.96-.24-2.8-.17-.84-.46-1.55-.86-2.15-.41-.6-.95-1.06-1.63-1.4-.68-.34-1.54-.5-2.57-.5-.75,0-1.48.15-2.19.46-.71.31-1.34.77-1.9,1.4s-1,1.42-1.34,2.38c-.33.96-.5,2.1-.5,3.4v10.02h-2.84v-15.23c0-.53-.01-1.21-.04-2.04-.03-.84-.07-1.59-.13-2.26h2.72Z"/>
      <path d="M59.78,86.49h-2.84v-31.55h2.84v31.55Z"/>
      <path d="M86.78,76.72c0,1.47-.26,2.84-.77,4.09-.52,1.25-1.23,2.34-2.15,3.25-.92.92-2.02,1.64-3.3,2.15-1.28.52-2.68.77-4.21.77s-2.89-.25-4.17-.77c-1.28-.51-2.38-1.23-3.3-2.15-.92-.92-1.64-2-2.15-3.25-.52-1.25-.77-2.62-.77-4.09s.26-2.84.77-4.09c.51-1.25,1.23-2.34,2.15-3.25.92-.92,2.02-1.63,3.3-2.15,1.28-.51,2.67-.77,4.17-.77s2.93.26,4.21.77c1.28.52,2.38,1.23,3.3,2.15.92.92,1.63,2,2.15,3.25.52,1.25.77,2.62.77,4.09ZM83.78,76.72c0-1.09-.18-2.11-.52-3.07-.35-.96-.84-1.79-1.48-2.5-.65-.71-1.42-1.27-2.34-1.69-.92-.41-1.95-.62-3.09-.62s-2.17.21-3.07.62c-.9.42-1.67.98-2.32,1.69-.64.71-1.13,1.55-1.48,2.5-.35.96-.52,1.98-.52,3.07s.18,2.11.52,3.07c.35.96.84,1.79,1.48,2.5.65.71,1.41,1.27,2.32,1.67.9.4,1.93.6,3.07.6s2.17-.2,3.09-.6c.92-.4,1.69-.96,2.34-1.67.64-.71,1.13-1.55,1.48-2.5.35-.96.52-1.98.52-3.07Z"/>
      <path d="M106.93,71.42c-.47-.75-1.16-1.37-2.07-1.86-.9-.49-1.88-.73-2.94-.73-1.14,0-2.17.2-3.08.6-.92.4-1.7.96-2.36,1.67-.65.71-1.15,1.55-1.5,2.5-.35.96-.52,2-.52,3.11s.18,2.14.52,3.09c.35.95.84,1.77,1.48,2.48.65.71,1.42,1.27,2.34,1.67.92.4,1.95.6,3.09.6,1.25,0,2.31-.24,3.17-.71s1.57-1.09,2.13-1.84l2.13,1.59c-.84,1.03-1.86,1.85-3.07,2.46s-2.66.92-4.36.92c-1.58,0-3.02-.25-4.3-.77-1.28-.51-2.37-1.23-3.27-2.15-.9-.92-1.61-2-2.11-3.25-.5-1.25-.75-2.62-.75-4.09s.25-2.84.75-4.09c.5-1.25,1.2-2.34,2.11-3.25.9-.92,2-1.63,3.27-2.15,1.28-.51,2.72-.77,4.3-.77,1.31,0,2.64.29,3.99.86,1.34.57,2.44,1.41,3.27,2.52l-2.21,1.59Z"/>
      <path d="M116.66,75.76h.12l9.02-8.81h4.09l-9.85,8.93,10.85,10.6h-4.17l-9.94-10.27h-.12v10.27h-2.84v-31.55h2.84v20.83Z"/>
      <path d="M145.16,71.59c-.42-.8-1.05-1.47-1.9-1.98-.85-.52-1.81-.77-2.9-.77-.5,0-1,.06-1.5.17-.5.11-.94.29-1.34.54-.39.25-.7.57-.94.96s-.35.85-.35,1.38c0,.92.37,1.62,1.13,2.11.75.49,1.94.9,3.55,1.23,2.31.48,4.01,1.16,5.11,2.07,1.1.91,1.64,2.12,1.64,3.65,0,1.11-.21,2.05-.65,2.82-.43.77-.99,1.39-1.69,1.88-.69.49-1.48.84-2.36,1.04-.88.21-1.76.31-2.65.31-1.47,0-2.91-.31-4.3-.92s-2.53-1.57-3.42-2.88l2.26-1.67c.5.86,1.24,1.59,2.21,2.17.97.58,2.04.88,3.21.88.61,0,1.2-.06,1.75-.17.56-.11,1.05-.31,1.46-.58s.75-.64,1.01-1.07c.24-.43.37-.96.37-1.61,0-1.03-.5-1.8-1.48-2.32-.99-.51-2.42-1-4.28-1.44-.58-.14-1.2-.31-1.85-.52-.66-.21-1.26-.52-1.82-.92-.56-.4-1.01-.91-1.37-1.52-.37-.61-.54-1.38-.54-2.3,0-1,.19-1.86.58-2.57.39-.71.91-1.29,1.56-1.75s1.4-.8,2.23-1.02c.84-.22,1.7-.33,2.59-.33,1.36,0,2.68.31,3.96.92,1.28.61,2.24,1.47,2.88,2.59l-2.17,1.63Z"/>
      <path d="M179.8,83.19c-.83,1.25-1.92,2.2-3.25,2.84-1.33.64-2.71.96-4.13.96-1.53,0-2.91-.26-4.15-.79-1.24-.53-2.3-1.25-3.17-2.17-.88-.92-1.56-2-2.04-3.25-.49-1.25-.73-2.6-.73-4.05s.24-2.8.73-4.05c.48-1.25,1.17-2.34,2.04-3.26.88-.92,1.93-1.64,3.17-2.17,1.24-.53,2.62-.79,4.15-.79,1.42,0,2.8.33,4.13.98,1.34.65,2.43,1.62,3.25,2.9h.09v-15.4h2.83v31.55h-2.83v-3.3h-.09ZM165.32,76.72c0,1.08.17,2.11.5,3.07.33.96.82,1.79,1.44,2.5s1.4,1.27,2.32,1.67c.92.4,1.96.6,3.13.6,1.09,0,2.09-.2,3-.6.92-.4,1.71-.95,2.38-1.65.67-.69,1.2-1.52,1.57-2.48.37-.96.56-2,.56-3.11s-.19-2.15-.56-3.11c-.37-.96-.9-1.79-1.57-2.5-.67-.71-1.46-1.27-2.38-1.67-.92-.4-1.92-.6-3-.6-1.17,0-2.21.21-3.13.62-.92.42-1.69.98-2.32,1.69s-1.11,1.55-1.44,2.5c-.33.96-.5,1.98-.5,3.07Z"/>
      <path d="M193.79,59.44c0,.58-.21,1.07-.62,1.44-.42.38-.88.56-1.38.56s-.96-.19-1.38-.56c-.41-.37-.62-.86-.62-1.44s.21-1.06.62-1.44c.42-.37.88-.56,1.38-.56s.96.19,1.38.56c.41.38.62.86.62,1.44ZM193.2,86.49h-2.84v-19.53h2.84v19.53Z"/>
      <path d="M213.06,73.84c0-1.68-.44-2.94-1.33-3.77s-2.19-1.24-3.89-1.24c-1.17,0-2.25.21-3.25.62-1,.42-1.85.97-2.55,1.67l-1.58-1.88c.81-.8,1.87-1.47,3.19-2,1.32-.53,2.82-.79,4.48-.79,1.06,0,2.05.15,2.97.44s1.73.73,2.42,1.31c.69.58,1.24,1.32,1.63,2.21.39.89.58,1.94.58,3.13v8.56c0,.75.03,1.53.08,2.34s.14,1.49.25,2.04h-2.55c-.08-.47-.16-.99-.21-1.55-.05-.55-.08-1.1-.08-1.63h-.08c-.89,1.31-1.9,2.25-3.03,2.82-1.13.57-2.48.85-4.07.85-.75,0-1.52-.1-2.32-.31-.79-.21-1.51-.55-2.17-1.03-.66-.48-1.2-1.09-1.63-1.84-.43-.75-.65-1.67-.65-2.76,0-1.51.38-2.7,1.15-3.58.76-.88,1.79-1.54,3.06-1.97,1.28-.43,2.75-.71,4.41-.84,1.65-.13,3.37-.19,5.15-.19v-.62ZM212.23,76.72c-1.17,0-2.35.05-3.53.15-1.18.1-2.25.29-3.21.58-.96.29-1.75.72-2.36,1.27-.61.56-.92,1.29-.92,2.21,0,.7.13,1.28.39,1.75s.62.86,1.07,1.15.94.5,1.48.62,1.09.19,1.65.19c1,0,1.89-.17,2.67-.52.78-.35,1.43-.82,1.96-1.42s.93-1.29,1.21-2.07c.28-.78.41-1.6.41-2.46v-1.46h-.83Z"/>
      <path d="M224.09,90.41c.77,1,1.84,1.85,3.19,2.55,1.34.69,2.77,1.04,4.27,1.04,1.39,0,2.57-.2,3.55-.6.97-.4,1.76-.95,2.36-1.65.6-.7,1.03-1.51,1.31-2.44.28-.93.42-1.93.42-2.98v-3.67h-.09c-.75,1.22-1.81,2.17-3.19,2.84-1.37.67-2.77,1-4.19,1-1.53,0-2.91-.25-4.15-.75-1.24-.5-2.3-1.19-3.17-2.07s-1.56-1.93-2.04-3.15c-.49-1.23-.73-2.55-.73-3.97s.24-2.7.73-3.92c.48-1.22,1.17-2.29,2.04-3.21.88-.92,1.93-1.64,3.17-2.17,1.24-.53,2.62-.79,4.15-.79,1.42,0,2.81.33,4.17,1,1.37.67,2.44,1.63,3.21,2.88h.09v-3.38h2.83v19.37c0,1.06-.14,2.18-.43,3.38-.29,1.2-.84,2.3-1.63,3.3-.79,1-1.87,1.84-3.23,2.5-1.37.67-3.13,1-5.3,1-1.81,0-3.53-.35-5.18-1.04s-3.04-1.66-4.21-2.88l2.04-2.17ZM224.62,76.47c0,1.03.17,2,.5,2.92s.82,1.73,1.44,2.42,1.4,1.24,2.32,1.65,1.96.6,3.13.6c1.09,0,2.09-.18,3-.54.92-.36,1.71-.88,2.38-1.55.67-.67,1.2-1.47,1.57-2.4.37-.93.56-1.97.56-3.11,0-1.03-.19-2-.56-2.92-.37-.92-.9-1.73-1.57-2.42-.67-.7-1.46-1.25-2.38-1.67-.92-.41-1.92-.62-3-.62-1.17,0-2.21.21-3.13.62-.92.42-1.69.97-2.32,1.67s-1.11,1.5-1.44,2.42c-.33.92-.5,1.89-.5,2.92Z"/>
      <path d="M268.83,76.72c0,1.47-.26,2.84-.77,4.09-.52,1.25-1.23,2.34-2.15,3.25-.92.92-2.02,1.64-3.3,2.15-1.28.52-2.68.77-4.21.77s-2.89-.25-4.17-.77c-1.28-.51-2.38-1.23-3.3-2.15-.92-.92-1.64-2-2.15-3.25-.52-1.25-.77-2.62-.77-4.09s.26-2.84.77-4.09c.51-1.25,1.23-2.34,2.15-3.25s2.02-1.63,3.3-2.15c1.28-.51,2.67-.77,4.17-.77s2.93.26,4.21.77c1.28.52,2.38,1.23,3.3,2.15s1.63,2,2.15,3.25c.52,1.25.77,2.62.77,4.09ZM265.82,76.72c0-1.09-.18-2.11-.52-3.07-.35-.96-.84-1.79-1.48-2.5-.65-.71-1.42-1.27-2.34-1.69-.92-.41-1.95-.62-3.09-.62s-2.17.21-3.07.62c-.9.42-1.67.98-2.32,1.69-.64.71-1.13,1.55-1.48,2.5-.35.96-.52,1.98-.52,3.07s.18,2.11.52,3.07c.35.96.84,1.79,1.48,2.5.65.71,1.41,1.27,2.32,1.67.9.4,1.93.6,3.07.6s2.17-.2,3.09-.6c.92-.4,1.69-.96,2.34-1.67.64-.71,1.13-1.55,1.48-2.5.35-.96.52-1.98.52-3.07Z"/>
      <path d="M277.47,66.95c.05.53.1,1.11.12,1.75.03.64.04,1.17.04,1.59h.09c.55-1.14,1.46-2.07,2.71-2.77,1.25-.71,2.57-1.06,3.97-1.06,2.47,0,4.33.74,5.57,2.21s1.85,3.42,1.85,5.84v11.98h-2.84v-10.81c0-1.03-.08-1.96-.24-2.8-.17-.84-.46-1.55-.86-2.15-.41-.6-.95-1.06-1.63-1.4-.68-.34-1.54-.5-2.57-.5-.75,0-1.48.15-2.19.46-.71.31-1.34.77-1.9,1.4s-1,1.42-1.34,2.38c-.33.96-.5,2.1-.5,3.4v10.02h-2.84v-15.23c0-.53-.01-1.21-.04-2.04s-.07-1.59-.13-2.26h2.72Z"/>
      <path d="M311.48,73.84c0-1.68-.44-2.94-1.33-3.77s-2.19-1.24-3.89-1.24c-1.17,0-2.25.21-3.25.62-1,.42-1.85.97-2.55,1.67l-1.58-1.88c.81-.8,1.87-1.47,3.19-2,1.32-.53,2.82-.79,4.48-.79,1.06,0,2.05.15,2.97.44.92.29,1.73.73,2.42,1.31s1.24,1.32,1.63,2.21c.39.89.58,1.94.58,3.13v8.56c0,.75.03,1.53.08,2.34s.14,1.49.25,2.04h-2.55c-.08-.47-.16-.99-.21-1.55-.05-.55-.08-1.1-.08-1.63h-.08c-.89,1.31-1.9,2.25-3.03,2.82-1.13.57-2.48.85-4.07.85-.75,0-1.52-.1-2.32-.31-.79-.21-1.51-.55-2.17-1.03-.66-.48-1.2-1.09-1.63-1.84-.43-.75-.65-1.67-.65-2.76,0-1.51.38-2.7,1.15-3.58.76-.88,1.79-1.54,3.06-1.97,1.28-.43,2.75-.71,4.41-.84,1.65-.13,3.37-.19,5.15-.19v-.62ZM310.65,76.72c-1.17,0-2.35.05-3.53.15-1.18.1-2.25.29-3.21.58-.96.29-1.75.72-2.36,1.27-.61.56-.92,1.29-.92,2.21,0,.7.13,1.28.39,1.75s.62.86,1.07,1.15.94.5,1.48.62,1.09.19,1.65.19c1,0,1.89-.17,2.67-.52.78-.35,1.43-.82,1.96-1.42s.93-1.29,1.21-2.07c.28-.78.41-1.6.41-2.46v-1.46h-.83Z"/>
      <path d="M324.38,86.49h-2.84v-31.55h2.84v31.55Z"/>
      <path d="M347.76,67.52c1.15-.71,2.45-1.06,3.87-1.06.53,0,1.07.05,1.64.17s1.13.33,1.67.65c.54.32,1.05.75,1.5,1.27.46.53.86,1.21,1.2,2.04.67-1.33,1.58-2.36,2.73-3.07,1.15-.71,2.53-1.06,4.11-1.06,2.48,0,4.33.74,5.57,2.21,1.24,1.47,1.86,3.42,1.86,5.84v11.98h-2.84v-10.81c0-2.06-.38-3.71-1.15-4.97s-2.07-1.88-3.9-1.88c-1.03,0-1.9.21-2.61.62-.71.42-1.28.97-1.71,1.65-.43.68-.75,1.45-.94,2.32-.19.86-.29,1.75-.29,2.67v10.39h-2.83v-11.39c0-.94-.07-1.81-.21-2.58-.14-.78-.38-1.44-.73-1.98-.35-.54-.83-.96-1.44-1.25s-1.39-.44-2.34-.44c-.67,0-1.34.15-2.02.46-.68.31-1.29.77-1.83,1.4-.54.62-.98,1.42-1.32,2.38-.33.96-.5,2.1-.5,3.4v10.02h-2.84v-15.23c0-.53-.01-1.21-.04-2.04s-.07-1.59-.13-2.26h2.72c.05.53.1,1.11.12,1.75.03.64.04,1.17.04,1.59h.09c.55-1.14,1.41-2.07,2.56-2.77Z"/>
      <path d="M398.66,76.72c0,1.47-.26,2.84-.77,4.09-.52,1.25-1.23,2.34-2.15,3.25-.92.92-2.02,1.64-3.3,2.15-1.28.52-2.68.77-4.21.77s-2.89-.25-4.17-.77c-1.28-.51-2.38-1.23-3.3-2.15-.92-.92-1.64-2-2.15-3.25-.52-1.25-.77-2.62-.77-4.09s.26-2.84.77-4.09c.51-1.25,1.23-2.34,2.15-3.25s2.02-1.63,3.3-2.15c1.28-.51,2.67-.77,4.17-.77s2.93.26,4.21.77c1.28.52,2.38,1.23,3.3,2.15.92.92,1.63,2,2.15,3.25.52,1.25.77,2.62.77,4.09ZM395.66,76.72c0-1.09-.18-2.11-.52-3.07-.35-.96-.84-1.79-1.48-2.5-.65-.71-1.42-1.27-2.34-1.69-.92-.41-1.95-.62-3.09-.62s-2.17.21-3.07.62c-.9.42-1.67.98-2.32,1.69-.64.71-1.13,1.55-1.48,2.5-.35.96-.52,1.98-.52,3.07s.18,2.11.52,3.07c.35.96.84,1.79,1.48,2.5.65.71,1.41,1.27,2.32,1.67.9.4,1.93.6,3.07.6s2.17-.2,3.09-.6c.92-.4,1.69-.96,2.34-1.67.64-.71,1.13-1.55,1.48-2.5.35-.96.52-1.98.52-3.07Z"/>
      <path d="M412.77,86.49h-3.13l-7.97-19.53h3.17l6.34,16.53h.08l6.39-16.53h3.05l-7.93,19.53Z"/>
      <path d="M442.9,76.14v.62c0,.22-.01.46-.04.71h-16.19c.03.97.22,1.89.58,2.75.36.86.86,1.61,1.5,2.25.65.64,1.39,1.15,2.26,1.52.86.37,1.79.56,2.8.56,1.47,0,2.74-.34,3.82-1.02s1.89-1.47,2.45-2.36l2.13,1.67c-1.17,1.47-2.46,2.53-3.86,3.17-1.41.64-2.92.96-4.53.96-1.45,0-2.79-.25-4.03-.77-1.24-.51-2.3-1.23-3.19-2.15-.89-.92-1.6-2-2.11-3.25-.52-1.25-.77-2.62-.77-4.09s.25-2.84.75-4.09c.5-1.25,1.2-2.34,2.09-3.25s1.93-1.63,3.13-2.15c1.2-.51,2.49-.77,3.88-.77,1.53,0,2.88.26,4.05.77,1.17.52,2.14,1.21,2.92,2.09.78.88,1.37,1.9,1.77,3.07.41,1.17.6,2.42.6,3.76ZM440.02,75.22c-.08-1.83-.67-3.36-1.77-4.57-1.1-1.21-2.66-1.82-4.69-1.82-.94,0-1.82.17-2.63.52-.81.35-1.51.82-2.13,1.42-.62.6-1.1,1.28-1.46,2.04-.37.76-.57,1.56-.63,2.4h13.31Z"/>
      <path d="M454.35,67.52c1.15-.71,2.45-1.06,3.87-1.06.53,0,1.07.05,1.64.17s1.13.33,1.67.65c.54.32,1.05.75,1.5,1.27.46.53.86,1.21,1.2,2.04.67-1.33,1.58-2.36,2.73-3.07,1.15-.71,2.53-1.06,4.11-1.06,2.48,0,4.33.74,5.57,2.21,1.24,1.47,1.86,3.42,1.86,5.84v11.98h-2.84v-10.81c0-2.06-.38-3.71-1.15-4.97s-2.07-1.88-3.9-1.88c-1.03,0-1.9.21-2.61.62-.71.42-1.28.97-1.71,1.65-.43.68-.75,1.45-.94,2.32-.19.86-.29,1.75-.29,2.67v10.39h-2.83v-11.39c0-.94-.07-1.81-.21-2.58-.14-.78-.38-1.44-.73-1.98-.35-.54-.83-.96-1.44-1.25s-1.39-.44-2.34-.44c-.67,0-1.34.15-2.02.46-.68.31-1.29.77-1.83,1.4-.54.62-.98,1.42-1.32,2.38-.33.96-.5,2.1-.5,3.4v10.02h-2.84v-15.23c0-.53-.01-1.21-.04-2.04s-.07-1.59-.13-2.26h2.72c.05.53.1,1.11.12,1.75.03.64.04,1.17.04,1.59h.09c.55-1.14,1.41-2.07,2.56-2.77Z"/>
      <path d="M503.62,76.14v.62c0,.22-.01.46-.04.71h-16.19c.03.97.22,1.89.58,2.75s.86,1.61,1.5,2.25c.65.64,1.39,1.15,2.26,1.52.86.37,1.79.56,2.8.56,1.47,0,2.74-.34,3.82-1.02s1.89-1.47,2.45-2.36l2.13,1.67c-1.17,1.47-2.46,2.53-3.86,3.17-1.41.64-2.92.96-4.53.96-1.45,0-2.79-.25-4.03-.77-1.24-.51-2.3-1.23-3.19-2.15-.89-.92-1.6-2-2.11-3.25-.52-1.25-.77-2.62-.77-4.09s.25-2.84.75-4.09c.5-1.25,1.2-2.34,2.09-3.25s1.93-1.63,3.13-2.15c1.2-.51,2.49-.77,3.88-.77,1.53,0,2.88.26,4.05.77,1.17.52,2.14,1.21,2.92,2.09.78.88,1.37,1.9,1.77,3.07.41,1.17.6,2.42.6,3.76ZM500.74,75.22c-.08-1.83-.67-3.36-1.77-4.57-1.1-1.21-2.66-1.82-4.69-1.82-.94,0-1.82.17-2.63.52-.81.35-1.51.82-2.13,1.42-.62.6-1.1,1.28-1.46,2.04-.37.76-.57,1.56-.63,2.4h13.31Z"/>
      <path d="M512.26,66.95c.05.53.1,1.11.12,1.75.03.64.04,1.17.04,1.59h.09c.55-1.14,1.46-2.07,2.71-2.77,1.25-.71,2.57-1.06,3.97-1.06,2.47,0,4.33.74,5.57,2.21,1.24,1.47,1.85,3.42,1.85,5.84v11.98h-2.84v-10.81c0-1.03-.08-1.96-.24-2.8-.17-.84-.46-1.55-.86-2.15-.41-.6-.95-1.06-1.63-1.4-.68-.34-1.54-.5-2.57-.5-.75,0-1.48.15-2.19.46-.71.31-1.34.77-1.9,1.4s-1,1.42-1.34,2.38c-.33.96-.5,2.1-.5,3.4v10.02h-2.84v-15.23c0-.53-.01-1.21-.04-2.04s-.07-1.59-.13-2.26h2.72Z"/>
      <path d="M542.77,69.33h-5.51v11.39c0,.72.07,1.32.21,1.8.14.47.34.84.6,1.1.26.26.58.44.94.54.37.1.75.15,1.17.15s.8-.05,1.24-.17c.43-.11.84-.26,1.23-.46l.12,2.46c-.5.19-1.02.34-1.56.44-.54.1-1.13.15-1.77.15-.53,0-1.09-.07-1.67-.21s-1.13-.4-1.63-.79c-.5-.39-.91-.92-1.23-1.59-.32-.67-.48-1.55-.48-2.63v-12.19h-4.05v-2.38h4.05v-5.51h2.83v5.51h5.51v2.38Z"/>
    </g>
  </g>
</svg>