<?xml version="1.0" encoding="UTF-8"?>
<svg id="Layer_2" data-name="Layer 2" xmlns="http://www.w3.org/2000/svg" viewBox="0 0 915.73 146">
  <defs>
    <style>
      .cls-1, .cls-2 {
        fill: none;
        stroke: #081a1d;
        stroke-miterlimit: 10;
        stroke-width: 9px;
      }

      .cls-2 {
        stroke-linecap: round;
      }
    </style>
  </defs>
  <g id="Layer_1-2" data-name="Layer 1">
    <g>
      <g>
        <path d="M255.9,77.45v15.31h-7.66v-40.6h15.89c2.09,0,3.9.34,5.45,1.01,1.55.68,2.83,1.57,3.86,2.67,1.02,1.1,1.8,2.36,2.32,3.77.52,1.41.78,2.85.78,4.32v1.39c0,1.51-.26,2.99-.78,4.44-.52,1.45-1.3,2.75-2.32,3.89-1.03,1.14-2.31,2.06-3.86,2.75-1.55.7-3.36,1.04-5.45,1.04h-8.24ZM255.9,70.14h7.48c1.7,0,3.04-.46,4.03-1.39.99-.93,1.48-2.13,1.48-3.6v-.7c0-1.47-.49-2.67-1.48-3.6-.99-.93-2.33-1.39-4.03-1.39h-7.48v10.67Z"/>
        <path d="M284.9,52.16h27.14v7.31h-9.74v25.98h9.74v7.31h-27.14v-7.31h9.74v-25.98h-9.74v-7.31Z"/>
        <path d="M335.25,86.61c1.47,0,2.68-.22,3.62-.67.95-.44,1.68-1.04,2.2-1.8.52-.75.88-1.62,1.07-2.61.19-.99.29-2,.29-3.04v-1.04h7.66v1.04c0,4.83-1.27,8.55-3.8,11.17-2.53,2.61-6.22,3.91-11.05,3.91s-8.31-1.41-11.02-4.23c-2.71-2.82-4.06-6.94-4.06-12.35v-9.05c0-2.59.35-4.92,1.04-6.99.7-2.07,1.7-3.81,3.02-5.22,1.31-1.41,2.9-2.49,4.76-3.25,1.86-.75,3.94-1.13,6.26-1.13s4.52.35,6.38,1.04c1.86.7,3.41,1.7,4.67,3.02,1.26,1.31,2.2,2.9,2.84,4.76.64,1.86.96,3.94.96,6.26v1.04h-7.66v-1.04c0-.97-.12-1.93-.35-2.9-.23-.97-.62-1.84-1.16-2.61-.54-.77-1.28-1.4-2.2-1.88-.93-.48-2.09-.73-3.48-.73-1.28,0-2.38.24-3.31.73-.93.48-1.7,1.14-2.32,1.97-.62.83-1.07,1.8-1.36,2.9-.29,1.1-.43,2.25-.43,3.45v10.21c0,1.32.13,2.52.41,3.62.27,1.1.7,2.06,1.28,2.87.58.81,1.34,1.44,2.29,1.88.95.45,2.1.67,3.45.67Z"/>
        <path d="M366.16,92.76h-7.66v-40.6h7.66v16.65h1.68l10.73-16.65h8.64v.35l-12.53,19.43v1.04l13.22,19.43v.35h-8.99l-11.08-16.65h-1.68v16.65Z"/>
        <path d="M439.18,77.45v15.31h-7.66v-40.6h15.89c2.09,0,3.9.34,5.45,1.01,1.55.68,2.83,1.57,3.86,2.67,1.02,1.1,1.8,2.36,2.32,3.77.52,1.41.78,2.85.78,4.32v1.39c0,1.51-.26,2.99-.78,4.44-.52,1.45-1.3,2.75-2.32,3.89-1.03,1.14-2.31,2.06-3.86,2.75-1.55.7-3.36,1.04-5.45,1.04h-8.24ZM439.18,70.14h7.48c1.7,0,3.04-.46,4.03-1.39.99-.93,1.48-2.13,1.48-3.6v-.7c0-1.47-.49-2.67-1.48-3.6-.99-.93-2.33-1.39-4.03-1.39h-7.48v10.67Z"/>
        <path d="M468.76,52.16h25.64v7.31h-17.98v9.28h17.28v7.31h-17.28v9.4h18.68v7.31h-26.33v-40.6Z"/>
        <path d="M532.16,92.76h-7.66v-12.18c0-.93-.24-1.68-.72-2.26-.48-.58-1.29-.87-2.41-.87h-8.82v15.31h-7.66v-40.6h15.54c2.09,0,3.92.29,5.51.87,1.58.58,2.91,1.38,3.97,2.41,1.06,1.03,1.88,2.21,2.44,3.57.56,1.35.84,2.8.84,4.35v1.39c0,1.66-.45,3.22-1.33,4.67-.89,1.45-2.26,2.56-4.12,3.33v1.04c1.35.16,2.43.68,3.22,1.57.79.89,1.19,2.01,1.19,3.36v14.04ZM512.55,70.14h7.31c1.86,0,3.27-.43,4.23-1.3s1.45-2.1,1.45-3.68v-.7c0-1.35-.48-2.52-1.45-3.51-.97-.99-2.38-1.48-4.23-1.48h-7.31v10.67Z"/>
        <path d="M542.42,52.16h25.98v7.31h-18.33v9.28h17.98v7.31h-17.98v16.7h-7.66v-40.6Z"/>
        <path d="M578.73,52.16h25.64v7.31h-17.98v9.28h17.28v7.31h-17.28v9.4h18.68v7.31h-26.33v-40.6Z"/>
        <path d="M628.5,86.61c1.47,0,2.68-.22,3.62-.67.95-.44,1.68-1.04,2.2-1.8.52-.75.88-1.62,1.07-2.61.19-.99.29-2,.29-3.04v-1.04h7.66v1.04c0,4.83-1.27,8.55-3.8,11.17-2.53,2.61-6.22,3.91-11.05,3.91s-8.31-1.41-11.02-4.23c-2.71-2.82-4.06-6.94-4.06-12.35v-9.05c0-2.59.35-4.92,1.04-6.99.7-2.07,1.7-3.81,3.02-5.22,1.31-1.41,2.9-2.49,4.76-3.25,1.86-.75,3.94-1.13,6.26-1.13s4.52.35,6.38,1.04c1.86.7,3.41,1.7,4.67,3.02,1.26,1.31,2.2,2.9,2.84,4.76.64,1.86.96,3.94.96,6.26v1.04h-7.66v-1.04c0-.97-.12-1.93-.35-2.9-.23-.97-.62-1.84-1.16-2.61-.54-.77-1.28-1.4-2.2-1.88-.93-.48-2.09-.73-3.48-.73-1.28,0-2.38.24-3.31.73-.93.48-1.7,1.14-2.32,1.97-.62.83-1.07,1.8-1.36,2.9-.29,1.1-.43,2.25-.43,3.45v10.21c0,1.32.13,2.52.41,3.62.27,1.1.7,2.06,1.28,2.87.58.81,1.34,1.44,2.29,1.88.95.45,2.1.67,3.45.67Z"/>
        <path d="M650.42,52.16h29.23v7.31h-10.79v33.29h-7.66v-33.29h-10.79v-7.31Z"/>
      </g>
      <line class="cls-2" x1="4.5" y1="4.5" x2="911.23" y2="4.5"/>
      <line class="cls-1" x1="4.5" y1="141.5" x2="911.23" y2="141.5"/>
    </g>
  </g>
</svg>