<?xml version="1.0" encoding="UTF-8"?>
<svg id="Layer_2" data-name="Layer 2" xmlns="http://www.w3.org/2000/svg" viewBox="0 0 800.4 42.22">
  <g id="Layer_1-2" data-name="Layer 1">
    <g>
      <path d="M33.18,41.41h-13.34l-1.86-30.86v-5.57h-1.39v5.57l-1.86,30.86H1.39L0,.81h6.96l.93,30.86v5.22h1.39v-5.22L11.14.81h12.3l1.86,30.86v5.22h1.39v-5.22l.93-30.86h6.96l-1.39,40.6Z"/>
      <path d="M40.95.81h25.64v7.31h-17.98v9.28h17.28v7.31h-17.28v9.4h18.68v7.31h-26.33V.81Z"/>
      <path d="M77.6.81h7.66v33.29h18.44v7.31h-26.1V.81Z"/>
      <path d="M127.37,35.26c1.47,0,2.68-.22,3.62-.67.95-.44,1.68-1.04,2.2-1.8.52-.75.88-1.62,1.07-2.61.19-.99.29-2,.29-3.04v-1.04h7.66v1.04c0,4.83-1.27,8.55-3.8,11.17-2.53,2.61-6.22,3.91-11.05,3.91s-8.31-1.41-11.02-4.23c-2.71-2.82-4.06-6.94-4.06-12.35v-9.05c0-2.59.35-4.92,1.04-6.99.7-2.07,1.7-3.81,3.02-5.22,1.31-1.41,2.9-2.49,4.76-3.25,1.86-.75,3.94-1.13,6.26-1.13s4.52.35,6.38,1.04c1.86.7,3.41,1.7,4.67,3.02,1.26,1.31,2.2,2.9,2.84,4.76.64,1.86.96,3.94.96,6.26v1.04h-7.66v-1.04c0-.97-.12-1.93-.35-2.9-.23-.97-.62-1.84-1.16-2.61-.54-.77-1.28-1.4-2.2-1.88-.93-.48-2.09-.73-3.48-.73-1.28,0-2.38.24-3.31.73-.93.48-1.7,1.14-2.32,1.97-.62.83-1.07,1.8-1.36,2.9-.29,1.1-.43,2.25-.43,3.45v10.21c0,1.32.13,2.52.41,3.62.27,1.1.7,2.06,1.28,2.87.58.81,1.34,1.44,2.29,1.88.95.45,2.1.67,3.45.67Z"/>
      <path d="M148.94,16.59c0-5.26,1.32-9.34,3.97-12.24,2.65-2.9,6.31-4.35,10.99-4.35s8.34,1.45,10.99,4.35c2.65,2.9,3.97,6.98,3.97,12.24v9.05c0,5.41-1.33,9.53-3.97,12.35-2.65,2.82-6.31,4.23-10.99,4.23s-8.34-1.41-10.99-4.23c-2.65-2.82-3.97-6.94-3.97-12.35v-9.05ZM163.91,35.26c1.39,0,2.55-.22,3.48-.67.93-.44,1.68-1.07,2.26-1.88.58-.81.99-1.78,1.22-2.9s.35-2.36.35-3.71v-9.98c0-1.28-.14-2.47-.41-3.6-.27-1.12-.7-2.09-1.28-2.9-.58-.81-1.33-1.46-2.26-1.94-.93-.48-2.05-.73-3.36-.73s-2.44.24-3.36.73-1.68,1.13-2.26,1.94c-.58.81-1.01,1.78-1.28,2.9-.27,1.12-.41,2.32-.41,3.6v9.98c0,1.35.12,2.59.35,3.71.23,1.12.64,2.09,1.22,2.9.58.81,1.33,1.44,2.26,1.88.93.45,2.09.67,3.48.67Z"/>
      <path d="M184.09.81h13.46l2.32,30.51v5.92h1.39v-5.92l2.32-30.51h13.46v40.6h-6.96V14.27l.7-9.28h-1.39l-3.02,36.42h-11.48l-3.13-36.42h-1.39l.7,9.28v27.14h-6.96V.81Z"/>
      <path d="M224.23.81h25.64v7.31h-17.98v9.28h17.28v7.31h-17.28v9.4h18.68v7.31h-26.33V.81Z"/>
      <path d="M295.92.81h29.23v7.31h-10.79v33.29h-7.66V8.12h-10.79V.81Z"/>
      <path d="M332.23,16.59c0-5.26,1.32-9.34,3.97-12.24,2.65-2.9,6.31-4.35,10.99-4.35s8.34,1.45,10.99,4.35c2.65,2.9,3.97,6.98,3.97,12.24v9.05c0,5.41-1.33,9.53-3.97,12.35-2.65,2.82-6.31,4.23-10.99,4.23s-8.34-1.41-10.99-4.23c-2.65-2.82-3.97-6.94-3.97-12.35v-9.05ZM347.19,35.26c1.39,0,2.55-.22,3.48-.67.93-.44,1.68-1.07,2.26-1.88.58-.81.99-1.78,1.22-2.9s.35-2.36.35-3.71v-9.98c0-1.28-.14-2.47-.41-3.6-.27-1.12-.7-2.09-1.28-2.9-.58-.81-1.33-1.46-2.26-1.94-.93-.48-2.05-.73-3.36-.73s-2.44.24-3.36.73-1.68,1.13-2.26,1.94c-.58.81-1.01,1.78-1.28,2.9-.27,1.12-.41,2.32-.41,3.6v9.98c0,1.35.12,2.59.35,3.71.23,1.12.64,2.09,1.22,2.9.58.81,1.33,1.44,2.26,1.88.93.45,2.09.67,3.48.67Z"/>
      <path d="M414.88,41.41h-7.66V.81h7.66v16.65h1.68l10.73-16.65h8.64v.35l-12.53,19.43v1.04l13.22,19.43v.35h-8.99l-11.08-16.65h-1.68v16.65Z"/>
      <path d="M471.77.81v26.56c0,4.64-1.23,8.28-3.68,10.9-2.46,2.63-6.1,3.94-10.93,3.94s-8.48-1.31-10.93-3.94c-2.46-2.63-3.68-6.26-3.68-10.9V.81h7.66v26.56c0,2.4.56,4.27,1.68,5.63,1.12,1.35,2.88,2.03,5.28,2.03s4.16-.68,5.28-2.03c1.12-1.35,1.68-3.23,1.68-5.63V.81h7.66Z"/>
      <path d="M479.14.81h28.88v12.53l-22.97,19.72v1.04h23.66v7.31h-29.93v-12.53l22.97-19.72v-1.04h-22.62V.81Z"/>
      <path d="M545.09.81v26.56c0,4.64-1.23,8.28-3.68,10.9-2.46,2.63-6.1,3.94-10.93,3.94s-8.48-1.31-10.93-3.94c-2.46-2.63-3.68-6.26-3.68-10.9V.81h7.66v26.56c0,2.4.56,4.27,1.68,5.63,1.12,1.35,2.88,2.03,5.28,2.03s4.16-.68,5.28-2.03c1.12-1.35,1.68-3.23,1.68-5.63V.81h7.66Z"/>
      <path d="M561.62,5.45c0-.73.14-1.44.43-2.12.29-.68.69-1.26,1.19-1.74.5-.48,1.08-.87,1.74-1.16s1.37-.44,2.15-.44c.73,0,1.44.15,2.12.44.68.29,1.27.68,1.77,1.16.5.48.9,1.06,1.19,1.74.29.68.43,1.38.43,2.12v7.08c0,1.47-.49,2.71-1.48,3.71-.99,1.01-2.21,1.51-3.68,1.51h-3.71v-4.52h2.78c1.04,0,1.57-.58,1.57-1.74v-.7c-.31.12-.64.17-.99.17-.77,0-1.49-.14-2.15-.43s-1.24-.69-1.74-1.19c-.5-.5-.9-1.08-1.19-1.74-.29-.66-.43-1.37-.43-2.15Z"/>
      <path d="M610.74,13.22c0-1.62-.63-3.03-1.88-4.23-1.26-1.2-3.03-1.8-5.31-1.8-1.93,0-3.46.4-4.58,1.19-1.12.79-1.68,1.87-1.68,3.22,0,.7.13,1.32.41,1.88.27.56.74,1.06,1.42,1.51.68.45,1.57.84,2.67,1.19,1.1.35,2.5.68,4.21.99,4.25.77,7.5,2.07,9.74,3.89,2.24,1.82,3.36,4.5,3.36,8.06v.7c0,1.89-.34,3.61-1.01,5.13-.68,1.53-1.65,2.83-2.93,3.92-1.28,1.08-2.82,1.91-4.64,2.49s-3.87.87-6.15.87c-2.67,0-5.02-.38-7.05-1.13-2.03-.75-3.72-1.8-5.08-3.13-1.35-1.33-2.38-2.9-3.07-4.7-.7-1.8-1.04-3.76-1.04-5.89v-1.74h7.66v1.39c0,2.44.71,4.38,2.12,5.83,1.41,1.45,3.6,2.17,6.58,2.17,2.32,0,4.04-.5,5.16-1.51,1.12-1,1.68-2.2,1.68-3.6,0-.66-.12-1.29-.35-1.88-.23-.6-.64-1.14-1.22-1.62-.58-.48-1.37-.92-2.38-1.3-1.01-.39-2.28-.71-3.83-.99-2.05-.35-3.92-.8-5.63-1.36-1.7-.56-3.18-1.3-4.44-2.23-1.26-.93-2.23-2.09-2.93-3.48-.7-1.39-1.04-3.09-1.04-5.1v-.35c0-1.66.34-3.2,1.01-4.61.68-1.41,1.62-2.64,2.84-3.68,1.22-1.04,2.69-1.86,4.41-2.44,1.72-.58,3.64-.87,5.77-.87,2.4,0,4.52.34,6.38,1.01,1.86.68,3.41,1.6,4.67,2.76,1.26,1.16,2.2,2.49,2.84,4,.64,1.51.96,3.09.96,4.76v2.09h-7.66v-1.39Z"/>
      <path d="M660.62.81h13.46l2.32,30.51v5.92h1.39v-5.92l2.32-30.51h13.46v40.6h-6.96V14.27l.7-9.28h-1.39l-3.02,36.42h-11.48l-3.13-36.42h-1.39l.7,9.28v27.14h-6.96V.81Z"/>
      <path d="M720.65,32.71h-13.8l-1.97,8.7h-8l9.69-40.6h14.38l9.69,40.6h-8l-1.97-8.7ZM708.47,25.4h10.5l-4.7-20.76h-1.04l-4.76,20.76Z"/>
      <path d="M735.73.81h28.88v12.53l-22.97,19.72v1.04h23.66v7.31h-29.93v-12.53l22.97-19.72v-1.04h-22.62V.81Z"/>
      <path d="M774.07.81h25.64v7.31h-17.98v9.28h17.28v7.31h-17.28v9.4h18.68v7.31h-26.33V.81Z"/>
    </g>
  </g>
</svg>