<?xml version="1.0" encoding="UTF-8"?>
<svg id="Layer_2" data-name="Layer 2" xmlns="http://www.w3.org/2000/svg" xmlns:xlink="http://www.w3.org/1999/xlink" viewBox="0 0 231.49 231.49">
  <defs>
    <style>
      .cls-1, .cls-2 {
        fill: none;
      }

      .cls-2 {
        stroke: #d5b78f;
        stroke-miterlimit: 10;
        stroke-width: 6.61px;
      }

      .cls-3 {
        clip-path: url(#clippath-6);
      }

      .cls-4 {
        fill: #fff;
      }

      .cls-5 {
        fill: #6fb260;
      }

      .cls-6 {
        fill: #f7e9d5;
      }

      .cls-7 {
        fill: #081b1e;
      }

      .cls-8 {
        clip-path: url(#clippath);
      }
    </style>
    <clipPath id="clippath">
      <rect class="cls-1" x="3.5" y="3.5" width="224.49" height="224.49" rx="18.06" ry="18.06"/>
    </clipPath>
    <clipPath id="clippath-6">
      <rect class="cls-2" x="3.5" y="3.5" width="224.49" height="224.49" rx="18.06" ry="18.06"/>
    </clipPath>
  </defs>
  <g id="Layer_1-2" data-name="Layer 1">
    <g>
      <g class="cls-8">
        <rect class="cls-6" x="3.5" y="3.5" width="224.49" height="224.49"/>
      </g>
      <path class="cls-5" d="M100,199.75c0-18.94,6.89-58.51,15.4-58.51s15.4,39.58,15.4,58.51-6.89.89-15.4.89-15.4,18.04-15.4-.89"/>
      <path class="cls-7" d="M128.55,209.52c-1.51,0-3.11-1.42-5.05-3.13-2.33-2.06-5.23-4.63-8.1-4.63s-5.77,2.57-8.1,4.63c-2.36,2.09-4.22,3.74-6.02,2.92-1.72-.77-2.39-3.45-2.39-9.56,0-17.7,6.41-59.62,16.51-59.62s16.51,41.92,16.51,59.62c0,6.11-.67,8.79-2.39,9.56-.32.15-.64.21-.97.21ZM115.4,199.53c3.71,0,6.96,2.88,9.57,5.19,1.1.97,3.16,2.79,3.64,2.56.11-.05,1.08-.68,1.08-7.54,0-20.08-7.34-57.41-14.29-57.41s-14.29,37.33-14.29,57.41c0,6.85.97,7.49,1.08,7.54.5.23,2.54-1.59,3.64-2.56,2.61-2.31,5.86-5.19,9.57-5.19Z"/>
      <path class="cls-5" d="M53.63,174.45c11.13-15.32,39.97-43.29,46.85-38.29,6.88,5-10.81,41.07-21.94,56.39-11.13,15.32-6.1-3.33-12.98-8.33-6.88-5-23.06,5.54-11.93-9.77"/>
      <path class="cls-7" d="M72.39,199.59c-.17,0-.33-.02-.49-.05-1.93-.4-2.47-2.83-3.15-5.9-.67-3.04-1.51-6.82-3.83-8.51-2.32-1.69-6.18-1.31-9.28-1.02-3.13.31-5.61.54-6.59-1.17-.93-1.64.1-4.2,3.69-9.14,10.4-14.32,40.23-44.49,48.4-38.53,3.62,2.63,2.32,11.26-3.85,25.66-4.82,11.26-12,24.23-17.84,32.28-3.28,4.51-5.33,6.38-7.06,6.38ZM59.69,181.63c2.34,0,4.68.36,6.53,1.7,3,2.18,3.94,6.42,4.69,9.82.32,1.43.91,4.1,1.44,4.21.13.03,1.28.07,5.3-5.46,5.76-7.93,12.83-20.73,17.6-31.85,6.34-14.8,6.53-21.58,4.58-22.99-5.61-4.06-33.5,21.81-45.3,38.04-4.03,5.54-3.62,6.62-3.56,6.73.27.47,2.99.2,4.45.06,1.34-.13,2.8-.27,4.27-.27Z"/>
      <path class="cls-5" d="M30.99,126.73c18.01-5.85,57.78-11.53,60.41-3.44,2.63,8.09-32.89,26.88-50.89,32.73-18.01,5.85-2.98-6.28-5.61-14.37-2.63-8.09-21.91-9.07-3.91-14.92"/>
      <path class="cls-7" d="M33.63,158.67c-1.23,0-2.06-.31-2.61-.91-1.33-1.46-.34-3.74.92-6.63,1.24-2.86,2.79-6.41,1.9-9.14-.89-2.73-4.23-4.69-6.91-6.27-2.71-1.6-4.86-2.86-4.64-4.82.2-1.87,2.55-3.34,8.36-5.22h0c16.83-5.47,58.68-12.33,61.81-2.73,3.12,9.61-34.77,28.66-51.6,34.12-3.29,1.07-5.61,1.59-7.22,1.59ZM31.33,127.78h0c-6.52,2.12-6.82,3.23-6.84,3.35-.06.54,2.3,1.92,3.56,2.67,3.01,1.77,6.75,3.97,7.89,7.5,1.14,3.53-.59,7.51-1.98,10.71-.59,1.35-1.68,3.85-1.31,4.25.08.09.98.81,7.5-1.3,19.09-6.2,52.32-24.72,50.18-31.33-2.14-6.6-39.92-2.05-59.01,4.15Z"/>
      <path class="cls-5" d="M40.72,74.81c18.01,5.85,53.52,24.64,50.89,32.73-2.63,8.09-42.4,2.41-60.41-3.44-18.01-5.85,1.28-6.83,3.91-14.92,2.63-8.09-12.4-20.22,5.61-14.37"/>
      <path class="cls-7" d="M77.42,112.68c-3.01,0-6.46-.18-10.34-.53-12.2-1.11-26.75-3.92-36.21-6.99-5.81-1.89-8.15-3.35-8.36-5.22-.21-1.96,1.93-3.22,4.64-4.82,2.68-1.58,6.02-3.55,6.91-6.27.89-2.73-.66-6.28-1.9-9.14-1.26-2.89-2.25-5.17-.92-6.63,1.27-1.39,4.02-1.2,9.83.69h0c9.47,3.08,22.89,9.36,33.41,15.63,13.46,8.02,19.58,14.24,18.19,18.5-1.04,3.19-6.15,4.8-15.25,4.8ZM33.8,74.37c-.7,0-.88.15-.92.19-.36.4.73,2.91,1.31,4.25,1.39,3.2,3.13,7.18,1.98,10.71-1.15,3.52-4.89,5.73-7.89,7.5-1.27.75-3.62,2.13-3.56,2.67.01.12.32,1.24,6.84,3.35,9.32,3.03,23.68,5.8,35.73,6.9,16.03,1.45,22.54-.46,23.28-2.75.74-2.28-3.39-7.66-17.22-15.91-10.39-6.19-23.64-12.39-32.96-15.42-3.75-1.22-5.64-1.5-6.58-1.5Z"/>
      <path class="cls-5" d="M79.11,38.53c11.13,15.32,28.82,51.39,21.94,56.39-6.88,5-35.72-22.97-46.85-38.29-11.13-15.32,5.05-4.77,11.93-9.77,6.88-5,1.85-23.64,12.98-8.33"/>
      <path class="cls-7" d="M99.07,96.58c-10.63,0-36.29-26.24-45.78-39.3-3.59-4.94-4.62-7.5-3.69-9.14.98-1.71,3.46-1.47,6.59-1.17,3.1.3,6.96.67,9.28-1.01,2.32-1.69,3.16-5.47,3.83-8.51.68-3.07,1.22-5.5,3.15-5.9,1.84-.38,3.96,1.39,7.55,6.33,5.85,8.05,13.02,21.02,17.84,32.28,6.17,14.4,7.47,23.03,3.85,25.66-.72.52-1.6.76-2.63.76ZM52.93,48.98c-.72,0-1.28.07-1.4.27-.06.11-.47,1.19,3.56,6.73,10.96,15.08,35.78,38.47,43.77,38.47.62,0,1.13-.14,1.53-.43,1.94-1.41,1.76-8.19-4.58-22.99-4.77-11.12-11.84-23.92-17.6-31.85-4.04-5.56-5.2-5.49-5.3-5.46-.53.11-1.12,2.78-1.44,4.21-.76,3.41-1.69,7.65-4.69,9.83-3,2.18-7.32,1.76-10.79,1.43-.84-.08-2.09-.2-3.05-.2Z"/>
      <path class="cls-5" d="M131.49,31.74c0,18.94-6.89,58.51-15.4,58.51s-15.4-39.58-15.4-58.51,6.89-.89,15.4-.89,15.4-18.04,15.4.89"/>
      <path class="cls-7" d="M116.09,91.37c-10.1,0-16.51-41.92-16.51-59.62,0-6.11.67-8.79,2.39-9.56,1.8-.81,3.66.84,6.02,2.92,2.33,2.06,5.23,4.63,8.1,4.63s5.77-2.57,8.1-4.63c2.36-2.09,4.21-3.74,6.02-2.92,1.72.77,2.39,3.45,2.39,9.56,0,17.7-6.41,59.62-16.51,59.62ZM102.98,24.19s-.07,0-.1.02c-.11.05-1.08.68-1.08,7.54,0,20.08,7.34,57.41,14.29,57.41s14.29-37.33,14.29-57.41c0-6.85-.97-7.49-1.08-7.54-.48-.22-2.54,1.59-3.64,2.56-2.61,2.31-5.86,5.19-9.57,5.19s-6.96-2.88-9.57-5.19c-1.04-.92-2.91-2.58-3.54-2.58Z"/>
      <path class="cls-5" d="M177.86,57.04c-11.13,15.32-39.97,43.29-46.85,38.29-6.88-5,10.81-41.07,21.94-56.39,11.13-15.32,6.1,3.33,12.98,8.33,6.88,5,23.06-5.54,11.93,9.77"/>
      <path class="cls-7" d="M132.98,96.99c-1.02,0-1.91-.24-2.62-.76-3.62-2.63-2.32-11.26,3.85-25.66,4.82-11.26,12-24.23,17.84-32.28,3.59-4.94,5.72-6.72,7.55-6.33,1.93.4,2.47,2.83,3.15,5.9.67,3.04,1.51,6.82,3.83,8.51,2.32,1.69,6.18,1.31,9.28,1.01,3.13-.3,5.61-.54,6.59,1.17.93,1.63-.1,4.2-3.69,9.13-9.49,13.06-35.14,39.3-45.78,39.3ZM159.1,34.12c-.26,0-1.52.32-5.26,5.47-5.76,7.93-12.83,20.73-17.6,31.85-6.34,14.8-6.53,21.58-4.58,22.99,5.61,4.08,33.5-21.8,45.3-38.04,4.03-5.54,3.62-6.62,3.56-6.73-.27-.47-2.99-.21-4.45-.07-3.47.34-7.8.75-10.8-1.43-3-2.18-3.94-6.42-4.69-9.82-.32-1.43-.91-4.1-1.44-4.21,0,0-.02,0-.04,0Z"/>
      <path class="cls-5" d="M200.5,104.76c-18.01,5.85-57.78,11.53-60.41,3.44-2.63-8.09,32.89-26.88,50.89-32.73,18.01-5.85,2.98,6.28,5.61,14.37,2.63,8.09,21.91,9.07,3.91,14.92"/>
      <path class="cls-7" d="M154.71,113.35c-8.3,0-14.54-1.32-15.67-4.8-3.12-9.61,34.77-28.66,51.6-34.12,5.81-1.89,8.56-2.08,9.83-.69,1.33,1.46.34,3.74-.92,6.63-1.24,2.86-2.79,6.41-1.9,9.14.89,2.73,4.23,4.69,6.91,6.27,2.71,1.6,4.86,2.86,4.64,4.82-.2,1.87-2.55,3.34-8.36,5.22h0c-10.72,3.48-31.59,7.53-46.14,7.53ZM197.91,75.03c-.95,0-2.84.28-6.58,1.5-19.09,6.2-52.32,24.72-50.18,31.33,2.15,6.6,39.92,2.05,59.01-4.15h0c6.52-2.12,6.82-3.23,6.84-3.35.06-.54-2.3-1.92-3.56-2.67-3.01-1.77-6.75-3.97-7.89-7.5-1.14-3.53.59-7.51,1.98-10.71.59-1.35,1.68-3.85,1.31-4.25-.03-.04-.22-.19-.92-.19Z"/>
      <path class="cls-5" d="M190.77,156.68c-18.01-5.85-53.52-24.64-50.89-32.73,2.63-8.09,42.4-2.41,60.41,3.44,18.01,5.85-1.28,6.83-3.91,14.92-2.63,8.09,12.4,20.22-5.61,14.37"/>
      <path class="cls-7" d="M197.65,159.33c-1.62,0-3.93-.52-7.22-1.59-9.47-3.08-22.89-9.35-33.41-15.63-13.46-8.02-19.58-14.24-18.19-18.5,1.38-4.25,9.99-5.69,25.59-4.27,12.2,1.11,26.75,3.92,36.21,7,5.81,1.89,8.15,3.35,8.36,5.22.21,1.96-1.93,3.23-4.64,4.82-2.68,1.58-6.02,3.55-6.91,6.27-.89,2.73.66,6.28,1.9,9.14,1.26,2.89,2.25,5.16.92,6.63-.55.6-1.37.91-2.61.91ZM154.2,121.04c-8.83,0-12.7,1.52-13.26,3.25-.74,2.29,3.39,7.66,17.22,15.91,10.39,6.19,23.64,12.39,32.96,15.42,6.52,2.12,7.42,1.4,7.5,1.3.36-.4-.73-2.91-1.31-4.25-1.39-3.2-3.12-7.18-1.98-10.71,1.14-3.53,4.89-5.73,7.89-7.5,1.27-.75,3.62-2.13,3.56-2.67-.01-.12-.32-1.23-6.84-3.35-9.32-3.03-23.68-5.8-35.73-6.9-3.88-.35-7.2-.51-10.02-.51Z"/>
      <path class="cls-5" d="M152.38,192.96c-11.13-15.32-28.82-51.39-21.94-56.39,6.88-5,35.72,22.97,46.85,38.29,11.13,15.32-5.05,4.77-11.93,9.77-6.88,5-1.85,23.64-12.98,8.33"/>
      <path class="cls-7" d="M158.55,199.99c-1.73,0-3.78-1.87-7.06-6.38-5.85-8.05-13.02-21.02-17.84-32.28-6.17-14.4-7.47-23.03-3.85-25.66,3.62-2.63,11.43,1.27,23.22,11.59,9.22,8.07,19.34,18.9,25.18,26.95,3.59,4.94,4.63,7.5,3.69,9.14-.98,1.71-3.45,1.48-6.59,1.17-3.1-.3-6.96-.67-9.28,1.02-2.32,1.69-3.16,5.47-3.83,8.51-.68,3.07-1.22,5.5-3.15,5.9-.16.03-.32.05-.49.05ZM132.51,137.09c-.61,0-1.08.13-1.41.38-1.94,1.41-1.76,8.19,4.58,22.99,4.77,11.12,11.84,23.92,17.6,31.85h0c4.02,5.54,5.19,5.5,5.3,5.46.53-.11,1.12-2.78,1.44-4.21.75-3.41,1.69-7.65,4.69-9.82,3-2.18,7.32-1.76,10.79-1.43,1.46.14,4.18.4,4.45-.06.06-.11.47-1.19-3.56-6.73-5.76-7.93-15.75-18.61-24.85-26.58-10.02-8.77-16.13-11.84-19.04-11.84Z"/>
      <g>
        <path class="cls-4" d="M115.75,160.42c-24.63,0-44.67-20.04-44.67-44.67s20.04-44.67,44.67-44.67,44.67,20.04,44.67,44.67-20.04,44.67-44.67,44.67Z"/>
        <path class="cls-7" d="M115.75,72.55c23.86,0,43.2,19.34,43.2,43.2s-19.34,43.2-43.2,43.2-43.2-19.34-43.2-43.2,19.34-43.2,43.2-43.2M115.75,69.6c-25.44,0-46.15,20.7-46.15,46.15s20.7,46.15,46.15,46.15,46.15-20.7,46.15-46.15-20.7-46.15-46.15-46.15h0Z"/>
      </g>
      <g>
        <path class="cls-4" d="M115.75,150.93c-19.4,0-35.18-15.78-35.18-35.18s15.78-35.18,35.18-35.18,35.18,15.78,35.18,35.18-15.78,35.18-35.18,35.18Z"/>
        <path class="cls-7" d="M115.75,82.04c18.62,0,33.71,15.09,33.71,33.71s-15.09,33.71-33.71,33.71-33.71-15.09-33.71-33.71,15.09-33.71,33.71-33.71M115.75,79.09c-20.21,0-36.65,16.44-36.65,36.65s16.44,36.65,36.65,36.65,36.65-16.44,36.65-36.65-16.44-36.65-36.65-36.65h0Z"/>
      </g>
      <path class="cls-7" d="M115.03,112.13c1.19,0,2.21-.16,3.07-.49.86-.32,1.56-.79,2.09-1.38.49-.51.87-1.14,1.11-1.88.25-.74.37-1.55.37-2.42s-.12-1.63-.37-2.33c-.25-.7-.62-1.31-1.11-1.82-.49-.49-1.12-.88-1.88-1.16-.76-.27-1.65-.41-2.65-.41-.83,0-1.61.12-2.33.36-.72.24-1.35.57-1.89,1-.55.46-.99,1-1.31,1.63s-.47,1.35-.47,2.14h-8.24c0-1.76.36-3.36,1.08-4.81.72-1.44,1.72-2.69,2.98-3.74,1.27-1.03,2.75-1.83,4.47-2.4,1.71-.57,3.55-.86,5.53-.86,2.14,0,4.1.26,5.88.79,1.78.52,3.3,1.3,4.57,2.33,1.27,1.05,2.25,2.34,2.96,3.87.7,1.54,1.05,3.31,1.05,5.33,0,.93-.14,1.85-.42,2.75-.28.9-.68,1.76-1.22,2.57-.53.81-1.19,1.56-1.99,2.24-.79.68-1.7,1.27-2.73,1.77,1.21.44,2.25.99,3.13,1.66.88.67,1.61,1.43,2.18,2.28.57.87,1,1.82,1.28,2.85.28,1.03.42,2.12.42,3.26,0,2.02-.39,3.82-1.16,5.4-.78,1.58-1.83,2.91-3.18,3.98-1.35,1.09-2.94,1.91-4.79,2.48-1.85.57-3.85.85-5.98.85-1.84,0-3.63-.25-5.38-.76-1.75-.51-3.31-1.27-4.67-2.3-1.36-1.01-2.46-2.29-3.28-3.83-.82-1.54-1.23-3.36-1.23-5.46h8.25c0,.83.16,1.6.47,2.3.32.7.77,1.3,1.36,1.8.57.51,1.25.91,2.05,1.2.79.28,1.66.43,2.61.43,1.07,0,2.03-.15,2.88-.45.85-.3,1.56-.73,2.14-1.31.55-.51.97-1.15,1.26-1.9.28-.75.43-1.59.43-2.52,0-1.17-.17-2.17-.5-3s-.82-1.51-1.45-2.05c-.66-.53-1.43-.93-2.33-1.19-.9-.25-1.91-.38-3.04-.38h-4.48v-6.41h4.48Z"/>
      <g>
        <g class="cls-3">
          <rect class="cls-2" x="3.5" y="3.5" width="224.49" height="224.49"/>
          <rect class="cls-2" x="3.5" y="3.5" width="224.49" height="224.49"/>
          <rect class="cls-2" x="3.5" y="3.5" width="224.49" height="224.49"/>
          <rect class="cls-2" x="3.5" y="3.5" width="224.49" height="224.49"/>
          <rect class="cls-2" x="3.5" y="3.5" width="224.49" height="224.49"/>
          <rect class="cls-2" x="3.5" y="3.5" width="224.49" height="224.49"/>
        </g>
        <rect class="cls-2" x="3.5" y="3.5" width="224.49" height="224.49" rx="18.06" ry="18.06"/>
      </g>
    </g>
  </g>
</svg>