<?xml version="1.0" encoding="UTF-8"?>
<svg id="Layer_2" data-name="Layer 2" xmlns="http://www.w3.org/2000/svg" viewBox="0 0 776.58 106.38">
  <g id="Layer_1-2" data-name="Layer 1">
    <g>
      <path d="M22.88,0v4.29H4.73v11.88h16.5v4.29H4.73v13.2h18.15v4.29H0V0h22.88Z"/>
      <path d="M29.75,10.45h4.4v2.69c1.38-2.09,3.3-3.13,7.37-3.13,5.88,0,10.01,3.08,10.01,10.78v17.16h-4.4v-17.1c0-5.55-3.03-6.76-6.27-6.76-4.12,0-6.71,2.91-6.71,6.71v17.16h-4.4V10.45Z"/>
      <path d="M57.36,10.45h3.52v-6.05h4.4v6.05h6.32v3.96h-6.32v13.97c0,3.79.44,5.39,4.12,5.39h2.2v4.18h-2.37c-6.49,0-8.36-2.75-8.36-8.47v-15.07h-3.52v-3.96Z"/>
      <path d="M98.22,33.77c-1.93,3.35-4.84,4.62-9.62,4.62-7.37,0-11.77-4.78-11.77-12.43v-3.63c0-7.81,3.68-12.32,10.89-12.32s10.89,4.45,10.89,12.32v2.86h-17.38v.77c0,4.73,2.25,8.47,7.04,8.47,3.57,0,5.39-1.04,6.54-3.08l3.41,2.42ZM81.23,21.34h12.92c-.22-4.62-2.25-7.37-6.43-7.37s-6.21,2.8-6.49,7.37Z"/>
      <path d="M121.05,16.39c-1.16-1.59-2.59-2.31-4.62-2.31-3.36,0-5.88,2.53-5.88,6.65v17.21h-4.4V10.45h4.4v2.69c1.15-1.92,3.03-3.13,6.38-3.13,3.74,0,6.1,1.26,7.86,3.74l-3.74,2.64Z"/>
      <path d="M148.17,13.2c1.48-2.03,3.85-3.19,7.48-3.19,6.82,0,11,4.45,11,12.32v3.63c0,7.15-3.52,12.43-11,12.43-3.68,0-5.99-.94-7.48-2.86v2.42h-4.4V0h4.4v13.2ZM162.24,25.96v-3.63c0-5.22-2.53-8.36-7.04-8.36s-7.04,3.02-7.04,7.97v4.01c0,4.73,1.98,8.47,7.04,8.47,4.67,0,7.04-3.79,7.04-8.47Z"/>
      <path d="M181,38.22l-10.78-27.77h4.73l8.2,21.34,7.2-21.34h4.68l-9.68,28.38c-2.25,6.6-3.74,9.57-11.44,9.57v-4.29c3.63,0,5.33-.6,6.98-5.5l.11-.38Z"/>
      <path d="M235.12,33.77c-1.71,3.19-5.06,4.62-9.51,4.62-7.54,0-11.88-4.84-11.88-12.43v-3.63c0-7.81,4.46-12.32,11.88-12.32,4.12,0,7.53,1.48,9.51,4.29l-3.46,2.42c-1.21-1.76-3.52-2.75-6.05-2.75-4.73,0-7.48,3.19-7.48,8.36v3.63c0,4.73,2.2,8.47,7.48,8.47,2.58,0,4.95-.88,6.1-3.08l3.41,2.42Z"/>
      <path d="M240.62,0h4.4v13.14c1.38-2.09,3.3-3.13,7.37-3.13,5.88,0,10.01,3.08,10.01,10.78v17.16h-4.4v-17.1c0-5.55-3.03-6.76-6.27-6.76-4.12,0-6.71,2.91-6.71,6.71v17.16h-4.4V0Z"/>
      <path d="M292.15,25.96c0,7.15-3.52,12.43-11.44,12.43-7.31,0-11.44-4.84-11.44-12.43v-3.63c0-7.81,4.23-12.32,11.44-12.32s11.44,4.45,11.44,12.32v3.63ZM287.75,25.96v-3.63c0-5.22-2.53-8.36-7.04-8.36s-7.04,3.19-7.04,8.36v3.63c0,4.73,1.98,8.47,7.04,8.47,4.67,0,7.04-3.79,7.04-8.47Z"/>
      <path d="M320.53,25.96c0,7.15-3.52,12.43-11.44,12.43-7.31,0-11.44-4.84-11.44-12.43v-3.63c0-7.81,4.23-12.32,11.44-12.32s11.44,4.45,11.44,12.32v3.63ZM316.13,25.96v-3.63c0-5.22-2.53-8.36-7.04-8.36s-7.04,3.19-7.04,8.36v3.63c0,4.73,1.98,8.47,7.04,8.47,4.67,0,7.04-3.79,7.04-8.47Z"/>
      <path d="M342.86,16.88c-1.48-1.92-3.03-2.8-6.82-2.8-3.24,0-5.33,1.26-5.33,3.68,0,3.13,2.75,4.07,6.38,4.34,5.17.38,9.9,1.87,9.9,8.19,0,4.78-3.25,8.08-10.34,8.08-5.61,0-8.52-1.7-10.61-4.56l3.24-2.31c1.48,1.98,3.46,2.8,7.42,2.8,3.69,0,5.88-1.43,5.88-3.9,0-2.97-1.76-4.01-7.09-4.4-4.62-.33-9.18-2.2-9.18-8.19,0-4.56,3.3-7.81,9.84-7.81,4.45,0,7.86,1.15,10.01,4.56l-3.3,2.31Z"/>
      <path d="M354.69,0h4.95v4.95h-4.95V0ZM354.96,10.45h4.4v27.5h-4.4V10.45Z"/>
      <path d="M368.44,10.45h4.4v2.69c1.38-2.09,3.3-3.13,7.37-3.13,5.88,0,10.01,3.08,10.01,10.78v17.16h-4.4v-17.1c0-5.55-3.03-6.76-6.27-6.76-4.12,0-6.71,2.91-6.71,6.71v17.16h-4.4V10.45Z"/>
      <path d="M415.57,10.45h4.4v26.95c0,7.64-4.4,11.33-11.77,11.33-4.79,0-7.7-1.27-9.62-4.62l3.41-2.42c1.16,2.03,2.97,3.08,6.54,3.08,4.79,0,7.04-2.64,7.04-7.37v-1.87c-1.48,1.92-3.85,2.86-7.48,2.86-7.48,0-11-5.28-11-12.43v-3.63c0-7.86,4.18-12.32,11-12.32,3.63,0,5.99,1.15,7.48,3.19v-2.75ZM415.57,25.96v-3.63c0-5.17-2.53-8.36-7.04-8.36s-7.04,3.13-7.04,8.36v3.63c0,4.67,2.37,8.47,7.04,8.47,5.06,0,7.04-3.74,7.04-8.47Z"/>
      <path d="M451.98,22.05h6.54v-3.19c0-3.9-1.81-4.78-6.1-4.78-3.3,0-5.06.27-6.6,2.8l-3.3-2.31c1.92-3.19,4.73-4.56,9.95-4.56,6.98,0,10.45,2.25,10.45,8.85v19.08h-4.4v-2.69c-1.54,2.53-3.41,3.13-6.98,3.13-6.38,0-9.84-3.13-9.84-8.47,0-5.94,4.23-7.86,10.28-7.86ZM458.52,25.79h-6.54c-4.35,0-5.88,1.48-5.88,4.23,0,3.08,2.2,4.29,5.44,4.29,4.07,0,6.98-.77,6.98-6.93v-1.59Z"/>
      <path d="M471.18,10.45h4.4v2.69c1.38-2.09,3.3-3.13,7.37-3.13,5.88,0,10.01,3.08,10.01,10.78v17.16h-4.4v-17.1c0-5.55-3.03-6.76-6.27-6.76-4.12,0-6.71,2.91-6.71,6.71v17.16h-4.4V10.45Z"/>
      <path d="M508.69,38.22l-10.78-27.77h4.73l8.2,21.34,7.2-21.34h4.68l-9.68,28.38c-2.25,6.6-3.74,9.57-11.44,9.57v-4.29c3.63,0,5.33-.6,6.98-5.5l.11-.38Z"/>
      <path d="M540.37,10.45h3.52v-6.05h4.4v6.05h6.32v3.96h-6.32v13.97c0,3.79.44,5.39,4.12,5.39h2.2v4.18h-2.37c-6.49,0-8.36-2.75-8.36-8.47v-15.07h-3.52v-3.96Z"/>
      <path d="M561.76,0h4.95v4.95h-4.95V0ZM562.03,10.45h4.4v27.5h-4.4V10.45Z"/>
      <path d="M575.51,0h4.4v28.38c0,2.97.16,5.5,4.67,5.5v4.07c-6.93,0-9.07-2.75-9.07-8.47V0Z"/>
      <path d="M611.7,33.77c-1.93,3.35-4.84,4.62-9.62,4.62-7.37,0-11.77-4.78-11.77-12.43v-3.63c0-7.81,3.68-12.32,10.89-12.32s10.89,4.45,10.89,12.32v2.86h-17.38v.77c0,4.73,2.25,8.47,7.04,8.47,3.57,0,5.39-1.04,6.54-3.08l3.41,2.42ZM594.7,21.34h12.92c-.22-4.62-2.25-7.37-6.43-7.37s-6.21,2.8-6.49,7.37Z"/>
      <path d="M655.97,25.96c0,7.15-3.52,12.43-11.44,12.43-7.31,0-11.44-4.84-11.44-12.43v-3.63c0-7.81,4.23-12.32,11.44-12.32s11.44,4.45,11.44,12.32v3.63ZM651.57,25.96v-3.63c0-5.22-2.53-8.36-7.04-8.36s-7.04,3.19-7.04,8.36v3.63c0,4.73,1.98,8.47,7.04,8.47,4.67,0,7.04-3.79,7.04-8.47Z"/>
      <path d="M662.85,10.45h4.4v2.69c1.38-2.09,3.3-3.13,7.37-3.13,5.88,0,10.01,3.08,10.01,10.78v17.16h-4.4v-17.1c0-5.55-3.03-6.76-6.27-6.76-4.12,0-6.71,2.91-6.71,6.71v17.16h-4.4V10.45Z"/>
      <path d="M705.31,10.45h3.52v-6.05h4.4v6.05h6.32v3.96h-6.32v13.97c0,3.79.44,5.39,4.12,5.39h2.2v4.18h-2.37c-6.49,0-8.36-2.75-8.36-8.47v-15.07h-3.52v-3.96Z"/>
      <path d="M726.15,0h4.4v13.14c1.38-2.09,3.3-3.13,7.37-3.13,5.88,0,10.01,3.08,10.01,10.78v17.16h-4.4v-17.1c0-5.55-3.02-6.76-6.27-6.76-4.12,0-6.71,2.91-6.71,6.71v17.16h-4.4V0Z"/>
      <path d="M776.2,33.77c-1.92,3.35-4.84,4.62-9.62,4.62-7.37,0-11.77-4.78-11.77-12.43v-3.63c0-7.81,3.68-12.32,10.89-12.32s10.89,4.45,10.89,12.32v2.86h-17.38v.77c0,4.73,2.25,8.47,7.04,8.47,3.57,0,5.39-1.04,6.54-3.08l3.41,2.42ZM759.21,21.34h12.92c-.22-4.62-2.26-7.37-6.44-7.37s-6.21,2.8-6.49,7.37Z"/>
      <path d="M171.7,93.96c0,7.15-3.52,12.43-11.44,12.43-7.31,0-11.44-4.84-11.44-12.43v-3.63c0-7.81,4.23-12.32,11.44-12.32s11.44,4.45,11.44,12.32v3.63ZM167.3,93.96v-3.63c0-5.22-2.53-8.36-7.04-8.36s-7.04,3.19-7.04,8.36v3.63c0,4.73,1.98,8.47,7.04,8.47,4.67,0,7.04-3.79,7.04-8.47Z"/>
      <path d="M200.36,105.94h-4.4v-2.69c-1.38,2.09-3.3,3.13-7.37,3.13-5.88,0-10.01-3.08-10.01-10.78v-17.16h4.4v17.1c0,5.55,3.03,6.76,6.27,6.76,4.12,0,6.71-2.91,6.71-6.71v-17.16h4.4v27.5Z"/>
      <path d="M206.19,78.45h3.52v-6.05h4.4v6.05h6.32v3.96h-6.32v13.97c0,3.79.44,5.39,4.12,5.39h2.2v4.18h-2.37c-6.49,0-8.36-2.75-8.36-8.47v-15.07h-3.52v-3.96Z"/>
      <path d="M242.49,84.88c-1.48-1.92-3.02-2.8-6.82-2.8-3.24,0-5.33,1.26-5.33,3.68,0,3.13,2.75,4.07,6.38,4.34,5.17.38,9.9,1.87,9.9,8.19,0,4.78-3.24,8.08-10.34,8.08-5.61,0-8.53-1.7-10.61-4.56l3.24-2.31c1.48,1.98,3.46,2.8,7.42,2.8,3.68,0,5.88-1.43,5.88-3.9,0-2.97-1.76-4.01-7.1-4.4-4.62-.33-9.18-2.2-9.18-8.19,0-4.56,3.3-7.81,9.84-7.81,4.46,0,7.87,1.15,10.01,4.56l-3.3,2.31Z"/>
      <path d="M254.31,68h4.95v4.95h-4.95v-4.95ZM254.59,78.45h4.4v27.5h-4.4v-27.5Z"/>
      <path d="M285.17,68h4.4v37.94h-4.4v-2.42c-1.49,1.92-3.85,2.86-7.48,2.86-7.48,0-11-5.28-11-12.43v-3.63c0-7.86,4.18-12.32,11-12.32,3.63,0,5.99,1.15,7.48,3.19v-13.2ZM285.17,94.34v-4.01c0-5.17-2.53-8.36-7.04-8.36s-7.04,3.13-7.04,8.36v3.63c0,4.67,2.36,8.47,7.04,8.47s7.04-3.52,7.04-8.08Z"/>
      <path d="M317.83,101.77c-1.93,3.35-4.84,4.62-9.62,4.62-7.37,0-11.77-4.78-11.77-12.43v-3.63c0-7.81,3.68-12.32,10.89-12.32s10.89,4.45,10.89,12.32v2.86h-17.38v.77c0,4.73,2.25,8.47,7.04,8.47,3.57,0,5.39-1.04,6.54-3.08l3.41,2.42ZM300.84,89.34h12.92c-.22-4.62-2.25-7.37-6.43-7.37s-6.21,2.8-6.49,7.37Z"/>
      <path d="M362.11,93.96c0,7.15-3.52,12.43-11.44,12.43-7.31,0-11.44-4.84-11.44-12.43v-3.63c0-7.81,4.23-12.32,11.44-12.32s11.44,4.45,11.44,12.32v3.63ZM357.71,93.96v-3.63c0-5.22-2.53-8.36-7.04-8.36s-7.04,3.19-7.04,8.36v3.63c0,4.73,1.98,8.47,7.04,8.47,4.67,0,7.04-3.79,7.04-8.47Z"/>
      <path d="M370.09,78.45v-1.98c0-5.72,1.87-8.47,8.36-8.47h1.26v4.18h-1.1c-3.68,0-4.12,1.59-4.12,5.39v.88h5.22v3.96h-5.22v23.54h-4.4v-23.54h-3.52v-3.96h3.52Z"/>
      <path d="M398.19,78.45h3.52v-6.05h4.4v6.05h6.32v3.96h-6.32v13.97c0,3.79.44,5.39,4.12,5.39h2.2v4.18h-2.37c-6.49,0-8.36-2.75-8.36-8.47v-15.07h-3.52v-3.96Z"/>
      <path d="M419.04,68h4.4v13.14c1.38-2.09,3.3-3.13,7.37-3.13,5.88,0,10.01,3.08,10.01,10.78v17.16h-4.4v-17.1c0-5.55-3.02-6.76-6.27-6.76-4.12,0-6.71,2.91-6.71,6.71v17.16h-4.4v-37.94Z"/>
      <path d="M469.08,101.77c-1.93,3.35-4.84,4.62-9.62,4.62-7.37,0-11.77-4.78-11.77-12.43v-3.63c0-7.81,3.68-12.32,10.89-12.32s10.89,4.45,10.89,12.32v2.86h-17.38v.77c0,4.73,2.25,8.47,7.04,8.47,3.57,0,5.39-1.04,6.54-3.08l3.41,2.42ZM452.09,89.34h12.92c-.22-4.62-2.25-7.37-6.43-7.37s-6.21,2.8-6.49,7.37Z"/>
      <path d="M491.85,78.45h4.4v2.69c1.21-1.87,3.3-3.13,6.82-3.13s6.49,1.48,8.03,4.34c1.87-2.91,4.89-4.34,8.25-4.34,5.88,0,9.46,3.63,9.46,10.78v17.16h-4.4v-17.1c0-5-2.47-6.76-5.72-6.76-3.52,0-6.16,2.8-6.16,6.71v17.16h-4.4v-17.1c0-5-2.47-6.76-5.72-6.76-3.57,0-6.16,2.91-6.16,6.71v17.16h-4.4v-27.5Z"/>
      <path d="M545.97,90.05h6.54v-3.19c0-3.9-1.81-4.78-6.1-4.78-3.3,0-5.06.27-6.6,2.8l-3.3-2.31c1.92-3.19,4.73-4.56,9.95-4.56,6.98,0,10.45,2.25,10.45,8.85v19.08h-4.4v-2.69c-1.54,2.53-3.41,3.13-6.98,3.13-6.38,0-9.84-3.13-9.84-8.47,0-5.94,4.23-7.86,10.28-7.86ZM552.52,93.79h-6.54c-4.35,0-5.88,1.48-5.88,4.23,0,3.08,2.2,4.29,5.44,4.29,4.07,0,6.98-.77,6.98-6.93v-1.59Z"/>
      <path d="M578.37,82.41h-14.52v-3.96h20.29v3.41l-14.41,20.13h14.41v3.96h-20.29v-3.41l14.52-20.13Z"/>
      <path d="M610.82,101.77c-1.93,3.35-4.84,4.62-9.62,4.62-7.37,0-11.77-4.78-11.77-12.43v-3.63c0-7.81,3.68-12.32,10.89-12.32s10.89,4.45,10.89,12.32v2.86h-17.38v.77c0,4.73,2.25,8.47,7.04,8.47,3.57,0,5.39-1.04,6.54-3.08l3.41,2.42ZM593.82,89.34h12.92c-.22-4.62-2.25-7.37-6.43-7.37s-6.21,2.8-6.49,7.37Z"/>
      <path d="M624.84,105.94h-6.38v-6.38h6.38v6.38Z"/>
    </g>
  </g>
</svg>