<?xml version="1.0" encoding="UTF-8"?>
<svg id="Layer_2" data-name="Layer 2" xmlns="http://www.w3.org/2000/svg" xmlns:xlink="http://www.w3.org/1999/xlink" viewBox="0 0 231.49 231.49">
  <defs>
    <style>
      .cls-1, .cls-2 {
        fill: none;
      }

      .cls-2 {
        stroke: #d5b78f;
        stroke-miterlimit: 10;
        stroke-width: 6.61px;
      }

      .cls-3 {
        fill: #ed4423;
      }

      .cls-4 {
        clip-path: url(#clippath-6);
      }

      .cls-5 {
        fill: #fff;
      }

      .cls-6 {
        fill: #f7e9d5;
      }

      .cls-7 {
        fill: #081b1e;
      }

      .cls-8 {
        clip-path: url(#clippath);
      }
    </style>
    <clipPath id="clippath">
      <rect class="cls-1" x="3.5" y="3.5" width="224.49" height="224.49" rx="18.06" ry="18.06"/>
    </clipPath>
    <clipPath id="clippath-6">
      <rect class="cls-2" x="3.5" y="3.5" width="224.49" height="224.49" rx="18.06" ry="18.06"/>
    </clipPath>
  </defs>
  <g id="Layer_1-2" data-name="Layer 1">
    <g>
      <g class="cls-8">
        <rect class="cls-6" x="3.5" y="3.5" width="224.49" height="224.49"/>
      </g>
      <g id="Flower_1" data-name="Flower 1">
        <g>
          <g>
            <path class="cls-3" d="M101.6,54.75c0,13.81,5.4,26.33,14.15,35.66,8.75-9.34,14.15-21.86,14.15-35.66s-5.4-26.33-14.15-35.66c-8.75,9.34-14.15,21.86-14.15,35.66"/>
            <path class="cls-7" d="M115.75,92.03l-.81-.86c-9.31-9.94-14.44-22.87-14.44-36.42s5.13-26.48,14.44-36.42l.81-.86.81.86c9.31,9.94,14.44,22.88,14.44,36.42s-5.13,26.48-14.44,36.42l-.81.86ZM115.75,20.72c-8.42,9.41-13.04,21.45-13.04,34.03s4.62,24.62,13.04,34.03c8.42-9.41,13.04-21.44,13.04-34.03s-4.62-24.62-13.04-34.03Z"/>
          </g>
          <g>
            <path class="cls-3" d="M140.16,58.08c-8.12,11.17-11.11,24.47-9.52,37.17,12.57-2.41,24.29-9.37,32.41-20.54,8.12-11.17,11.11-24.47,9.52-37.17-12.57,2.41-24.29,9.37-32.41,20.54"/>
            <path class="cls-7" d="M129.69,96.56l-.15-1.17c-1.69-13.52,1.76-26.99,9.72-37.95h0c7.96-10.96,19.72-18.41,33.09-20.97l1.16-.22.15,1.17c1.69,13.52-1.76,26.99-9.72,37.95-7.96,10.95-19.71,18.4-33.09,20.97l-1.16.22ZM141.05,58.73c-7.4,10.18-10.73,22.64-9.45,35.19,12.34-2.66,23.16-9.68,30.55-19.86,7.4-10.18,10.73-22.64,9.45-35.19-12.34,2.66-23.15,9.68-30.55,19.86h0Z"/>
          </g>
          <g>
            <path class="cls-3" d="M169.39,83.44c-13.13,4.27-23.37,13.27-29.55,24.48,11.58,5.43,25.16,6.7,38.29,2.43,13.13-4.27,23.37-13.27,29.55-24.47-11.58-5.43-25.16-6.7-38.29-2.43"/>
            <path class="cls-7" d="M162.07,114c-7.76,0-15.49-1.71-22.69-5.09l-1.07-.5.57-1.03c6.57-11.93,17.29-20.8,30.17-24.99h0c12.88-4.19,26.76-3.3,39.1,2.48l1.07.5-.57,1.03c-6.58,11.93-17.29,20.81-30.17,24.99-5.36,1.74-10.89,2.6-16.4,2.6ZM141.4,107.41c11.54,5.1,24.42,5.78,36.39,1.89,11.97-3.89,21.99-12,28.33-22.92-11.55-5.1-24.43-5.78-36.39-1.89-11.97,3.89-21.99,12.01-28.33,22.92Z"/>
          </g>
          <g>
            <path class="cls-3" d="M178.13,121.14c-13.13-4.27-26.71-3-38.29,2.43,6.18,11.21,16.42,20.21,29.55,24.47,13.13,4.27,26.71,3,38.29-2.43-6.18-11.21-16.42-20.21-29.55-24.47"/>
            <path class="cls-7" d="M185.45,151.7c-5.52,0-11.05-.86-16.4-2.6-12.88-4.18-23.59-13.06-30.17-24.99l-.57-1.03,1.07-.5c12.33-5.79,26.21-6.67,39.1-2.49h0c12.88,4.18,23.59,13.06,30.17,24.99l.57,1.03-1.07.5c-7.2,3.38-14.94,5.09-22.7,5.09ZM141.4,124.08c6.35,10.92,16.36,19.03,28.33,22.92,11.97,3.89,24.85,3.21,36.39-1.89-6.35-10.92-16.37-19.03-28.33-22.92h0c-11.97-3.89-24.84-3.21-36.39,1.89Z"/>
          </g>
          <g>
            <path class="cls-3" d="M163.04,156.78c-8.12-11.17-19.84-18.13-32.41-20.54-1.59,12.7,1.4,26,9.52,37.17,8.12,11.17,19.84,18.13,32.41,20.54,1.59-12.7-1.4-26-9.52-37.17"/>
            <path class="cls-7" d="M173.51,195.25l-1.16-.22c-13.38-2.57-25.13-10.02-33.09-20.97-7.96-10.96-11.41-24.44-9.72-37.95l.15-1.17,1.16.22c13.38,2.56,25.13,10.02,33.09,20.97h0c7.96,10.95,11.41,24.43,9.72,37.95l-.15,1.17ZM131.6,137.56c-1.28,12.56,2.05,25.01,9.45,35.2,7.4,10.18,18.21,17.2,30.55,19.86,1.28-12.56-2.06-25.02-9.45-35.19h0c-7.4-10.18-18.21-17.21-30.55-19.87Z"/>
          </g>
          <g>
            <path class="cls-3" d="M129.89,176.74c0-13.81-5.4-26.33-14.15-35.66-8.75,9.34-14.15,21.86-14.15,35.66s5.4,26.33,14.15,35.66c8.75-9.34,14.15-21.86,14.15-35.66"/>
            <path class="cls-7" d="M115.75,214.02l-.81-.86c-9.31-9.94-14.44-22.88-14.44-36.42s5.13-26.48,14.44-36.42l.81-.86.81.86c9.31,9.94,14.44,22.88,14.44,36.42s-5.13,26.48-14.44,36.42l-.81.86ZM115.75,142.71c-8.42,9.41-13.04,21.44-13.04,34.03s4.62,24.62,13.04,34.03c8.42-9.41,13.04-21.45,13.04-34.03s-4.62-24.62-13.04-34.03Z"/>
          </g>
          <g>
            <path class="cls-3" d="M91.34,173.41c8.12-11.17,11.11-24.47,9.52-37.17-12.57,2.41-24.29,9.37-32.41,20.54-8.12,11.17-11.11,24.47-9.52,37.17,12.57-2.41,24.29-9.37,32.41-20.54"/>
            <path class="cls-7" d="M57.98,195.25l-.15-1.17c-1.69-13.52,1.76-27,9.72-37.95,7.96-10.95,19.71-18.4,33.09-20.97l1.16-.22.15,1.17c1.69,13.52-1.76,27-9.72,37.95h0c-7.96,10.96-19.72,18.41-33.09,20.97l-1.16.22ZM99.89,137.56c-12.34,2.66-23.16,9.69-30.55,19.86-7.4,10.18-10.73,22.64-9.45,35.2,12.34-2.66,23.15-9.68,30.55-19.86h0c7.4-10.18,10.73-22.64,9.45-35.2Z"/>
          </g>
          <g>
            <path class="cls-3" d="M62.11,148.05c13.13-4.27,23.37-13.27,29.55-24.48-11.58-5.43-25.16-6.7-38.29-2.43-13.13,4.27-23.37,13.27-29.55,24.47,11.58,5.43,25.16,6.7,38.29,2.43"/>
            <path class="cls-7" d="M46.05,151.7c-7.76,0-15.49-1.71-22.7-5.09l-1.07-.5.57-1.03c6.58-11.93,17.29-20.81,30.17-24.99,12.88-4.19,26.77-3.3,39.1,2.48l1.07.5-.57,1.03c-6.57,11.93-17.29,20.8-30.17,24.99h0c-5.35,1.74-10.88,2.6-16.4,2.6ZM25.37,145.11c11.55,5.1,24.43,5.78,36.39,1.89,11.97-3.89,21.99-12.01,28.33-22.92-11.55-5.1-24.42-5.77-36.39-1.89-11.97,3.89-21.99,12.01-28.33,22.92Z"/>
          </g>
          <g>
            <path class="cls-3" d="M53.36,110.35c13.13,4.27,26.71,3,38.29-2.43-6.18-11.21-16.42-20.21-29.55-24.47-13.13-4.27-26.71-3-38.29,2.43,6.18,11.21,16.42,20.21,29.55,24.47"/>
            <path class="cls-7" d="M69.43,114c-5.52,0-11.05-.87-16.4-2.6h0c-12.88-4.18-23.6-13.06-30.17-24.99l-.57-1.03,1.07-.5c12.33-5.79,26.22-6.67,39.1-2.48,12.88,4.19,23.6,13.06,30.17,24.99l.57,1.03-1.07.5c-7.2,3.38-14.94,5.09-22.69,5.09ZM25.37,86.38c6.35,10.91,16.37,19.03,28.33,22.92h0c11.97,3.89,24.85,3.21,36.39-1.89-6.35-10.91-16.36-19.03-28.33-22.92-11.97-3.89-24.85-3.21-36.39,1.89Z"/>
          </g>
          <g>
            <path class="cls-3" d="M68.45,74.71c8.12,11.17,19.84,18.13,32.41,20.54,1.59-12.7-1.4-26-9.52-37.17-8.12-11.17-19.84-18.13-32.41-20.54-1.59,12.7,1.4,26,9.52,37.17"/>
            <path class="cls-7" d="M101.81,96.55l-1.16-.22c-13.38-2.57-25.13-10.01-33.09-20.97-7.96-10.95-11.41-24.43-9.72-37.95l.15-1.17,1.16.22c13.38,2.57,25.13,10.02,33.09,20.97,7.96,10.96,11.41,24.44,9.72,37.95l-.15,1.17ZM59.89,38.87c-1.28,12.56,2.06,25.02,9.45,35.19h0c7.4,10.18,18.21,17.2,30.55,19.86,1.28-12.56-2.05-25.01-9.45-35.2-7.4-10.18-18.21-17.2-30.55-19.86Z"/>
          </g>
        </g>
      </g>
      <g>
        <path class="cls-5" d="M115.75,160.42c-24.63,0-44.67-20.04-44.67-44.67s20.04-44.67,44.67-44.67,44.67,20.04,44.67,44.67-20.04,44.67-44.67,44.67Z"/>
        <path class="cls-7" d="M115.75,72.55c23.86,0,43.2,19.34,43.2,43.2s-19.34,43.2-43.2,43.2-43.2-19.34-43.2-43.2,19.34-43.2,43.2-43.2M115.75,69.6c-25.44,0-46.15,20.7-46.15,46.15s20.7,46.15,46.15,46.15,46.15-20.7,46.15-46.15-20.7-46.15-46.15-46.15h0Z"/>
      </g>
      <g>
        <path class="cls-5" d="M115.75,150.93c-19.4,0-35.18-15.78-35.18-35.18s15.78-35.18,35.18-35.18,35.18,15.78,35.18,35.18-15.78,35.18-35.18,35.18Z"/>
        <path class="cls-7" d="M115.75,82.04c18.62,0,33.71,15.09,33.71,33.71s-15.09,33.71-33.71,33.71-33.71-15.09-33.71-33.71,15.09-33.71,33.71-33.71M115.75,79.09c-20.21,0-36.65,16.44-36.65,36.65s16.44,36.65,36.65,36.65,36.65-16.44,36.65-36.65-16.44-36.65-36.65-36.65h0Z"/>
      </g>
      <path class="cls-7" d="M113.23,141.08v-38.87l-12.81,4.59v-8.42l22.06-7.97h.52v50.66h-9.78Z"/>
      <g>
        <g class="cls-4">
          <g>
            <rect class="cls-2" x="3.5" y="3.5" width="224.49" height="224.49"/>
            <rect class="cls-2" x="3.5" y="3.5" width="224.49" height="224.49"/>
            <rect class="cls-2" x="3.5" y="3.5" width="224.49" height="224.49"/>
            <rect class="cls-2" x="3.5" y="3.5" width="224.49" height="224.49"/>
            <rect class="cls-2" x="3.5" y="3.5" width="224.49" height="224.49"/>
            <rect class="cls-2" x="3.5" y="3.5" width="224.49" height="224.49"/>
          </g>
        </g>
        <rect class="cls-2" x="3.5" y="3.5" width="224.49" height="224.49" rx="18.06" ry="18.06"/>
      </g>
    </g>
  </g>
</svg>