<?xml version="1.0" encoding="UTF-8"?>
<svg id="Layer_2" data-name="Layer 2" xmlns="http://www.w3.org/2000/svg" viewBox="0 0 755.03 116.39">
  <defs>
    <style>
      .cls-1 {
        fill: #f7e9d5;
      }
    </style>
  </defs>
  <g id="Layer_1-2" data-name="Layer 1">
    <g>
      <path class="cls-1" d="M22.88,0v4.29H4.73v11.88h16.5v4.29H4.73v13.2h18.15v4.29H0V0h22.88Z"/>
      <path class="cls-1" d="M46.75,37.94l-7.42-10.23-7.42,10.23h-5.17l10.01-14.08-8.91-13.42h5.17l6.32,9.73,6.32-9.73h5.17l-8.91,13.42,10.01,14.08h-5.17Z"/>
      <path class="cls-1" d="M69.02,10.01c6.82,0,11,4.45,11,12.32v3.63c0,7.15-3.52,12.43-11,12.43-3.63,0-5.99-1.15-7.48-3.19v13.2h-4.4V10.45h4.4v2.75c1.49-2.03,3.85-3.19,7.48-3.19ZM75.62,25.96v-3.63c0-5.22-2.53-8.36-7.04-8.36s-7.04,3.02-7.04,7.97v4.01c0,4.73,1.98,8.47,7.04,8.47,4.67,0,7.04-3.79,7.04-8.47Z"/>
      <path class="cls-1" d="M106.92,33.77c-1.92,3.35-4.84,4.62-9.62,4.62-7.37,0-11.77-4.78-11.77-12.43v-3.63c0-7.81,3.68-12.32,10.89-12.32s10.89,4.45,10.89,12.32v2.86h-17.38v.77c0,4.73,2.25,8.47,7.04,8.47,3.58,0,5.39-1.04,6.54-3.08l3.41,2.42ZM89.92,21.34h12.92c-.22-4.62-2.25-7.37-6.43-7.37s-6.21,2.8-6.49,7.37Z"/>
      <path class="cls-1" d="M134.86,33.77c-1.71,3.19-5.06,4.62-9.51,4.62-7.53,0-11.88-4.84-11.88-12.43v-3.63c0-7.81,4.46-12.32,11.88-12.32,4.12,0,7.53,1.48,9.51,4.29l-3.46,2.42c-1.21-1.76-3.52-2.75-6.05-2.75-4.73,0-7.48,3.19-7.48,8.36v3.63c0,4.73,2.2,8.47,7.48,8.47,2.58,0,4.95-.88,6.1-3.08l3.41,2.42Z"/>
      <path class="cls-1" d="M137.94,10.45h3.52v-6.05h4.4v6.05h6.32v3.96h-6.32v13.97c0,3.79.44,5.39,4.12,5.39h2.2v4.18h-2.36c-6.49,0-8.36-2.75-8.36-8.47v-15.07h-3.52v-3.96Z"/>
      <path class="cls-1" d="M171.21,10.45h3.52v-6.05h4.4v6.05h6.32v3.96h-6.32v13.97c0,3.79.44,5.39,4.12,5.39h2.2v4.18h-2.37c-6.49,0-8.36-2.75-8.36-8.47v-15.07h-3.52v-3.96Z"/>
      <path class="cls-1" d="M192.06,0h4.4v13.14c1.38-2.09,3.3-3.13,7.37-3.13,5.88,0,10.01,3.08,10.01,10.78v17.16h-4.4v-17.1c0-5.55-3.02-6.76-6.27-6.76-4.12,0-6.71,2.91-6.71,6.71v17.16h-4.4V0Z"/>
      <path class="cls-1" d="M242.1,33.77c-1.92,3.35-4.84,4.62-9.62,4.62-7.37,0-11.77-4.78-11.77-12.43v-3.63c0-7.81,3.68-12.32,10.89-12.32s10.89,4.45,10.89,12.32v2.86h-17.38v.77c0,4.73,2.25,8.47,7.04,8.47,3.58,0,5.39-1.04,6.54-3.08l3.41,2.42ZM225.11,21.34h12.92c-.22-4.62-2.25-7.37-6.43-7.37s-6.21,2.8-6.49,7.37Z"/>
      <path class="cls-1" d="M250.03,10.45h4.4v2.69c1.21-1.87,3.3-3.13,6.82-3.13s6.49,1.48,8.03,4.34c1.87-2.91,4.89-4.34,8.25-4.34,5.88,0,9.46,3.63,9.46,10.78v17.16h-4.4v-17.1c0-5-2.47-6.76-5.72-6.76-3.52,0-6.16,2.8-6.16,6.71v17.16h-4.4v-17.1c0-5-2.47-6.76-5.72-6.76-3.57,0-6.16,2.91-6.16,6.71v17.16h-4.4V10.45Z"/>
      <path class="cls-1" d="M318.99,22.05h6.54v-3.19c0-3.9-1.81-4.78-6.1-4.78-3.3,0-5.06.27-6.6,2.8l-3.3-2.31c1.92-3.19,4.73-4.56,9.95-4.56,6.98,0,10.45,2.25,10.45,8.85v19.08h-4.4v-2.69c-1.54,2.53-3.41,3.13-6.98,3.13-6.38,0-9.84-3.13-9.84-8.47,0-5.94,4.24-7.86,10.28-7.86ZM325.54,25.79h-6.54c-4.34,0-5.88,1.48-5.88,4.23,0,3.08,2.2,4.29,5.44,4.29,4.07,0,6.98-.77,6.98-6.93v-1.59Z"/>
      <path class="cls-1" d="M353.09,16.39c-1.16-1.59-2.58-2.31-4.62-2.31-3.35,0-5.88,2.53-5.88,6.65v17.21h-4.4V10.45h4.4v2.69c1.16-1.92,3.03-3.13,6.38-3.13,3.74,0,6.1,1.27,7.86,3.74l-3.74,2.64Z"/>
      <path class="cls-1" d="M382.46,25.96c0,7.15-3.52,12.43-11.44,12.43-7.31,0-11.44-4.84-11.44-12.43v-3.63c0-7.81,4.24-12.32,11.44-12.32s11.44,4.45,11.44,12.32v3.63ZM378.06,25.96v-3.63c0-5.22-2.53-8.36-7.04-8.36s-7.04,3.19-7.04,8.36v3.63c0,4.73,1.98,8.47,7.04,8.47,4.67,0,7.04-3.79,7.04-8.47Z"/>
      <path class="cls-1" d="M411.12,37.94h-4.4v-2.69c-1.38,2.09-3.3,3.13-7.37,3.13-5.88,0-10.01-3.08-10.01-10.78V10.45h4.4v17.1c0,5.55,3.02,6.76,6.27,6.76,4.12,0,6.71-2.91,6.71-6.71V10.45h4.4v27.5Z"/>
      <path class="cls-1" d="M419.37,10.45h4.4v2.69c1.38-2.09,3.3-3.13,7.37-3.13,5.88,0,10.01,3.08,10.01,10.78v17.16h-4.4v-17.1c0-5.55-3.02-6.76-6.27-6.76-4.12,0-6.71,2.91-6.71,6.71v17.16h-4.4V10.45Z"/>
      <path class="cls-1" d="M466.5,0h4.4v37.94h-4.4v-2.42c-1.48,1.92-3.85,2.86-7.48,2.86-7.48,0-11-5.28-11-12.43v-3.63c0-7.86,4.18-12.32,11-12.32,3.63,0,5.99,1.16,7.48,3.19V0ZM466.5,26.34v-4.01c0-5.17-2.53-8.36-7.04-8.36s-7.04,3.13-7.04,8.36v3.63c0,4.67,2.37,8.47,7.04,8.47s7.04-3.52,7.04-8.08Z"/>
      <path class="cls-1" d="M502.91,22.05h6.54v-3.19c0-3.9-1.81-4.78-6.1-4.78-3.3,0-5.06.27-6.6,2.8l-3.3-2.31c1.92-3.19,4.73-4.56,9.95-4.56,6.98,0,10.45,2.25,10.45,8.85v19.08h-4.4v-2.69c-1.54,2.53-3.41,3.13-6.98,3.13-6.38,0-9.84-3.13-9.84-8.47,0-5.94,4.24-7.86,10.28-7.86ZM509.46,25.79h-6.54c-4.34,0-5.88,1.48-5.88,4.23,0,3.08,2.2,4.29,5.44,4.29,4.07,0,6.98-.77,6.98-6.93v-1.59Z"/>
      <path class="cls-1" d="M522.11,10.45h4.4v2.69c1.38-2.09,3.3-3.13,7.37-3.13,5.88,0,10.01,3.08,10.01,10.78v17.16h-4.4v-17.1c0-5.55-3.02-6.76-6.27-6.76-4.12,0-6.71,2.91-6.71,6.71v17.16h-4.4V10.45Z"/>
      <path class="cls-1" d="M559.62,38.22l-10.78-27.77h4.73l8.19,21.34,7.2-21.34h4.67l-9.68,28.38c-2.25,6.6-3.74,9.57-11.44,9.57v-4.29c3.63,0,5.33-.6,6.98-5.5l.11-.39Z"/>
      <path class="cls-1" d="M613.73,33.77c-1.71,3.19-5.06,4.62-9.51,4.62-7.53,0-11.88-4.84-11.88-12.43v-3.63c0-7.81,4.46-12.32,11.88-12.32,4.12,0,7.53,1.48,9.51,4.29l-3.46,2.42c-1.21-1.76-3.52-2.75-6.05-2.75-4.73,0-7.48,3.19-7.48,8.36v3.63c0,4.73,2.2,8.47,7.48,8.47,2.58,0,4.95-.88,6.1-3.08l3.41,2.42Z"/>
      <path class="cls-1" d="M640.74,25.96c0,7.15-3.52,12.43-11.44,12.43-7.31,0-11.44-4.84-11.44-12.43v-3.63c0-7.81,4.24-12.32,11.44-12.32s11.44,4.45,11.44,12.32v3.63ZM636.34,25.96v-3.63c0-5.22-2.53-8.36-7.04-8.36s-7.04,3.19-7.04,8.36v3.63c0,4.73,1.98,8.47,7.04,8.47,4.67,0,7.04-3.79,7.04-8.47Z"/>
      <path class="cls-1" d="M662.52,16.39c-1.16-1.59-2.58-2.31-4.62-2.31-3.35,0-5.88,2.53-5.88,6.65v17.21h-4.4V10.45h4.4v2.69c1.16-1.92,3.02-3.13,6.38-3.13,3.74,0,6.1,1.27,7.86,3.74l-3.74,2.64Z"/>
      <path class="cls-1" d="M670.38,10.45h4.4v2.69c1.38-2.09,3.3-3.13,7.37-3.13,5.88,0,10.01,3.08,10.01,10.78v17.16h-4.4v-17.1c0-5.55-3.02-6.76-6.27-6.76-4.12,0-6.71,2.91-6.71,6.71v17.16h-4.4V10.45Z"/>
      <path class="cls-1" d="M720.43,33.77c-1.92,3.35-4.84,4.62-9.62,4.62-7.37,0-11.77-4.78-11.77-12.43v-3.63c0-7.81,3.68-12.32,10.89-12.32s10.89,4.45,10.89,12.32v2.86h-17.38v.77c0,4.73,2.25,8.47,7.04,8.47,3.58,0,5.39-1.04,6.54-3.08l3.41,2.42ZM703.44,21.34h12.92c-.22-4.62-2.25-7.37-6.43-7.37s-6.21,2.8-6.49,7.37Z"/>
      <path class="cls-1" d="M743.26,16.39c-1.16-1.59-2.58-2.31-4.62-2.31-3.35,0-5.88,2.53-5.88,6.65v17.21h-4.4V10.45h4.4v2.69c1.16-1.92,3.03-3.13,6.38-3.13,3.74,0,6.1,1.27,7.86,3.74l-3.74,2.64Z"/>
      <path class="cls-1" d="M755.03,37.94h-6.38v-6.38h6.38v6.38Z"/>
      <path class="cls-1" d="M14,106.38c-8.41,0-13.75-5.06-13.75-17.32v-4.18c0-12.26,5.33-17.32,13.75-17.32s13.75,5.06,13.75,17.32v4.18c0,12.26-5.33,17.32-13.75,17.32ZM4.98,89.06c0,9.4,3.19,13.03,9.02,13.03s9.02-3.63,9.02-13.03v-4.18c0-9.4-3.19-13.03-9.02-13.03s-9.02,3.63-9.02,13.03v4.18Z"/>
      <path class="cls-1" d="M35.17,78.45h4.4v2.69c1.38-2.09,3.3-3.13,7.37-3.13,5.88,0,10.01,3.08,10.01,10.78v17.16h-4.4v-17.1c0-5.55-3.02-6.76-6.27-6.76-4.12,0-6.71,2.91-6.71,6.71v17.16h-4.4v-27.5Z"/>
      <path class="cls-1" d="M85.22,101.77c-1.92,3.35-4.84,4.62-9.62,4.62-7.37,0-11.77-4.78-11.77-12.43v-3.63c0-7.81,3.68-12.32,10.89-12.32s10.89,4.45,10.89,12.32v2.86h-17.38v.77c0,4.73,2.25,8.47,7.04,8.47,3.57,0,5.39-1.04,6.54-3.08l3.41,2.42ZM68.23,89.34h12.92c-.22-4.62-2.25-7.37-6.43-7.37s-6.21,2.8-6.49,7.37Z"/>
      <path class="cls-1" d="M128.01,101.77c-1.92,3.35-4.84,4.62-9.62,4.62-7.37,0-11.77-4.78-11.77-12.43v-3.63c0-7.81,3.68-12.32,10.89-12.32s10.89,4.45,10.89,12.32v2.86h-17.38v.77c0,4.73,2.25,8.47,7.04,8.47,3.58,0,5.39-1.04,6.54-3.08l3.41,2.42ZM111.02,89.34h12.92c-.22-4.62-2.25-7.37-6.43-7.37s-6.21,2.8-6.49,7.37Z"/>
      <path class="cls-1" d="M135.93,78.45h4.4v2.69c1.38-2.09,3.3-3.13,7.37-3.13,5.88,0,10.01,3.08,10.01,10.78v17.16h-4.4v-17.1c0-5.55-3.02-6.76-6.27-6.76-4.12,0-6.71,2.91-6.71,6.71v17.16h-4.4v-27.5Z"/>
      <path class="cls-1" d="M185.98,101.77c-1.71,3.19-5.06,4.62-9.51,4.62-7.53,0-11.88-4.84-11.88-12.43v-3.63c0-7.81,4.45-12.32,11.88-12.32,4.12,0,7.53,1.48,9.51,4.29l-3.46,2.42c-1.21-1.76-3.52-2.75-6.05-2.75-4.73,0-7.48,3.19-7.48,8.36v3.63c0,4.73,2.2,8.47,7.48,8.47,2.58,0,4.95-.88,6.1-3.08l3.41,2.42Z"/>
      <path class="cls-1" d="M212.98,93.96c0,7.15-3.52,12.43-11.44,12.43-7.31,0-11.44-4.84-11.44-12.43v-3.63c0-7.81,4.23-12.32,11.44-12.32s11.44,4.45,11.44,12.32v3.63ZM208.58,93.96v-3.63c0-5.22-2.53-8.36-7.04-8.36s-7.04,3.19-7.04,8.36v3.63c0,4.73,1.98,8.47,7.04,8.47,4.67,0,7.04-3.79,7.04-8.47Z"/>
      <path class="cls-1" d="M241.64,105.94h-4.4v-2.69c-1.38,2.09-3.3,3.13-7.37,3.13-5.88,0-10.01-3.08-10.01-10.78v-17.16h4.4v17.1c0,5.55,3.03,6.76,6.27,6.76,4.12,0,6.71-2.91,6.71-6.71v-17.16h4.4v27.5Z"/>
      <path class="cls-1" d="M249.89,78.45h4.4v2.69c1.38-2.09,3.3-3.13,7.37-3.13,5.88,0,10.01,3.08,10.01,10.78v17.16h-4.4v-17.1c0-5.55-3.02-6.76-6.27-6.76-4.12,0-6.71,2.91-6.71,6.71v17.16h-4.4v-27.5Z"/>
      <path class="cls-1" d="M277.5,78.45h3.52v-6.05h4.4v6.05h6.32v3.96h-6.32v13.97c0,3.79.44,5.39,4.12,5.39h2.2v4.18h-2.37c-6.49,0-8.36-2.75-8.36-8.47v-15.07h-3.52v-3.96Z"/>
      <path class="cls-1" d="M318.36,101.77c-1.92,3.35-4.84,4.62-9.62,4.62-7.37,0-11.77-4.78-11.77-12.43v-3.63c0-7.81,3.68-12.32,10.89-12.32s10.89,4.45,10.89,12.32v2.86h-17.38v.77c0,4.73,2.25,8.47,7.04,8.47,3.57,0,5.39-1.04,6.54-3.08l3.41,2.42ZM301.37,89.34h12.92c-.22-4.62-2.25-7.37-6.43-7.37s-6.21,2.8-6.49,7.37Z"/>
      <path class="cls-1" d="M341.19,84.39c-1.16-1.59-2.58-2.31-4.62-2.31-3.35,0-5.88,2.53-5.88,6.65v17.21h-4.4v-27.5h4.4v2.69c1.16-1.92,3.03-3.13,6.38-3.13,3.74,0,6.1,1.27,7.86,3.74l-3.74,2.64Z"/>
      <path class="cls-1" d="M372.81,90.05h6.54v-3.19c0-3.9-1.81-4.78-6.1-4.78-3.3,0-5.06.27-6.6,2.8l-3.3-2.31c1.92-3.19,4.73-4.56,9.95-4.56,6.98,0,10.45,2.25,10.45,8.85v19.08h-4.4v-2.69c-1.54,2.53-3.41,3.13-6.98,3.13-6.38,0-9.84-3.13-9.84-8.47,0-5.94,4.24-7.86,10.28-7.86ZM379.36,93.79h-6.54c-4.34,0-5.88,1.48-5.88,4.23,0,3.08,2.2,4.29,5.44,4.29,4.07,0,6.98-.77,6.98-6.93v-1.59Z"/>
      <path class="cls-1" d="M392.01,78.45h4.4v2.69c1.38-2.09,3.3-3.13,7.37-3.13,5.88,0,10.01,3.08,10.01,10.78v17.16h-4.4v-17.1c0-5.55-3.02-6.76-6.27-6.76-4.12,0-6.71,2.91-6.71,6.71v17.16h-4.4v-27.5Z"/>
      <path class="cls-1" d="M439.14,68h4.4v37.94h-4.4v-2.42c-1.48,1.92-3.85,2.86-7.48,2.86-7.48,0-11-5.28-11-12.43v-3.63c0-7.86,4.18-12.32,11-12.32,3.63,0,5.99,1.16,7.48,3.19v-13.2ZM439.14,94.34v-4.01c0-5.17-2.53-8.36-7.04-8.36s-7.04,3.13-7.04,8.36v3.63c0,4.67,2.37,8.47,7.04,8.47s7.04-3.52,7.04-8.08Z"/>
      <path class="cls-1" d="M474.12,106.22l-10.78-27.77h4.73l8.19,21.34,7.2-21.34h4.67l-9.68,28.38c-2.25,6.6-3.74,9.57-11.44,9.57v-4.29c3.63,0,5.33-.6,6.98-5.5l.11-.39Z"/>
      <path class="cls-1" d="M514.87,93.96c0,7.15-3.52,12.43-11.44,12.43-7.31,0-11.44-4.84-11.44-12.43v-3.63c0-7.81,4.24-12.32,11.44-12.32s11.44,4.45,11.44,12.32v3.63ZM510.48,93.96v-3.63c0-5.22-2.53-8.36-7.04-8.36s-7.04,3.19-7.04,8.36v3.63c0,4.73,1.98,8.47,7.04,8.47,4.67,0,7.04-3.79,7.04-8.47Z"/>
      <path class="cls-1" d="M543.53,105.94h-4.4v-2.69c-1.38,2.09-3.3,3.13-7.37,3.13-5.88,0-10.01-3.08-10.01-10.78v-17.16h4.4v17.1c0,5.55,3.02,6.76,6.27,6.76,4.12,0,6.71-2.91,6.71-6.71v-17.16h4.4v27.5Z"/>
      <path class="cls-1" d="M556.24,75.42l-4.73,4.07v-14.24h4.73v10.17Z"/>
      <path class="cls-1" d="M579.99,84.39c-1.16-1.59-2.58-2.31-4.62-2.31-3.35,0-5.88,2.53-5.88,6.65v17.21h-4.4v-27.5h4.4v2.69c1.16-1.92,3.03-3.13,6.38-3.13,3.74,0,6.1,1.27,7.86,3.74l-3.74,2.64Z"/>
      <path class="cls-1" d="M607.88,101.77c-1.92,3.35-4.84,4.62-9.62,4.62-7.37,0-11.77-4.78-11.77-12.43v-3.63c0-7.81,3.68-12.32,10.89-12.32s10.89,4.45,10.89,12.32v2.86h-17.38v.77c0,4.73,2.25,8.47,7.04,8.47,3.58,0,5.39-1.04,6.54-3.08l3.41,2.42ZM590.88,89.34h12.92c-.22-4.62-2.25-7.37-6.43-7.37s-6.21,2.8-6.49,7.37Z"/>
      <path class="cls-1" d="M647.75,68h4.4v37.94h-4.4v-2.42c-1.49,1.92-3.85,2.86-7.48,2.86-7.48,0-11-5.28-11-12.43v-3.63c0-7.86,4.18-12.32,11-12.32,3.63,0,5.99,1.16,7.48,3.19v-13.2ZM647.75,94.34v-4.01c0-5.17-2.53-8.36-7.04-8.36s-7.04,3.13-7.04,8.36v3.63c0,4.67,2.36,8.47,7.04,8.47s7.04-3.52,7.04-8.08Z"/>
      <path class="cls-1" d="M681.91,93.96c0,7.15-3.52,12.43-11.44,12.43-7.31,0-11.44-4.84-11.44-12.43v-3.63c0-7.81,4.24-12.32,11.44-12.32s11.44,4.45,11.44,12.32v3.63ZM677.51,93.96v-3.63c0-5.22-2.53-8.36-7.04-8.36s-7.04,3.19-7.04,8.36v3.63c0,4.73,1.98,8.47,7.04,8.47,4.67,0,7.04-3.79,7.04-8.47Z"/>
      <path class="cls-1" d="M688.78,78.45h4.4v2.69c1.38-2.09,3.3-3.13,7.37-3.13,5.88,0,10.01,3.08,10.01,10.78v17.16h-4.4v-17.1c0-5.55-3.02-6.76-6.27-6.76-4.12,0-6.71,2.91-6.71,6.71v17.16h-4.4v-27.5Z"/>
      <path class="cls-1" d="M738.83,101.77c-1.92,3.35-4.84,4.62-9.62,4.62-7.37,0-11.77-4.78-11.77-12.43v-3.63c0-7.81,3.68-12.32,10.89-12.32s10.89,4.45,10.89,12.32v2.86h-17.38v.77c0,4.73,2.25,8.47,7.04,8.47,3.58,0,5.39-1.04,6.54-3.08l3.41,2.42ZM721.84,89.34h12.92c-.22-4.62-2.25-7.37-6.43-7.37s-6.21,2.8-6.49,7.37Z"/>
      <path class="cls-1" d="M752.86,105.94h-6.38v-6.38h6.38v6.38Z"/>
    </g>
  </g>
</svg>