<?xml version="1.0" encoding="UTF-8"?>
<svg id="Layer_2" data-name="Layer 2" xmlns="http://www.w3.org/2000/svg" xmlns:xlink="http://www.w3.org/1999/xlink" viewBox="0 0 231.49 231.49">
  <defs>
    <style>
      .cls-1, .cls-2 {
        fill: none;
      }

      .cls-2 {
        stroke: #d5b78f;
        stroke-miterlimit: 10;
        stroke-width: 6.61px;
      }

      .cls-3 {
        clip-path: url(#clippath-6);
      }

      .cls-4 {
        fill: #fff;
      }

      .cls-5 {
        fill: #f7e9d5;
      }

      .cls-6 {
        fill: #081b1e;
      }

      .cls-7 {
        fill: #974498;
      }

      .cls-8 {
        clip-path: url(#clippath);
      }
    </style>
    <clipPath id="clippath">
      <rect class="cls-1" x="3.5" y="3.5" width="224.49" height="224.49" rx="18.06" ry="18.06"/>
    </clipPath>
    <clipPath id="clippath-6">
      <rect class="cls-2" x="3.5" y="3.5" width="224.49" height="224.49" rx="18.06" ry="18.06"/>
    </clipPath>
  </defs>
  <g id="Layer_1-2" data-name="Layer 1">
    <g>
      <g class="cls-8">
        <rect class="cls-5" x="3.5" y="3.5" width="224.49" height="224.49"/>
      </g>
      <path class="cls-7" d="M98.5,94.97c-1.11.43-5.37,1.13-13.09-9.16-8.35-11.1-17.28-6.11-27.59-19.92-8.48-11.39-2.11-24.12.07-27.8h0c4.17-.92,18.25-3,26.43,8.61,9.9,14.11,2.37,21.04,10.31,32.43,7.37,10.55,5.03,14.68,4.27,15.59l-.4.24Z"/>
      <path class="cls-6" d="M97.31,96.28c-2.38,0-6.63-1.61-12.78-9.81-3.76-5-7.68-6.59-11.84-8.28-4.75-1.93-10.13-4.11-15.76-11.65-8.88-11.93-2.24-25.23,0-29.02l.24-.41.47-.1c4.3-.95,19.01-3.11,27.57,9.05,5.4,7.7,5.8,13.5,6.15,18.61.3,4.47.59,8.7,4.17,13.83,7.53,10.78,5.46,15.43,4.21,16.93l-.28.24-.56.32c-.38.15-.91.28-1.6.28ZM58.6,39.07c-2.26,3.97-7.66,15.71.11,26.16,5.26,7.04,10.12,9.01,14.82,10.92,4.25,1.72,8.64,3.51,12.77,9,7.23,9.64,11.06,9.03,11.73,8.82l.12-.07c.53-.79,2.24-4.59-4.42-14.13-3.93-5.64-4.25-10.37-4.56-14.94-.34-5.06-.7-10.3-5.75-17.49-7.49-10.64-20.34-9.17-24.82-8.27Z"/>
      <path class="cls-7" d="M114.18,89.06c-1.15-.3-5.01-2.23-5.23-15.1-.25-13.89-10.42-15.08-10.67-32.32-.19-14.2,12.44-20.78,16.35-22.48h0c3.92,1.7,16.54,8.28,16.36,22.48-.25,17.24-10.42,18.43-10.67,32.32-.22,12.86-4.54,14.84-5.69,15.13l-.46-.04Z"/>
      <path class="cls-6" d="M114.73,90.21l-.83-.09c-1.75-.45-5.83-2.93-6.06-16.15-.11-6.25-2.36-9.84-4.73-13.65-2.72-4.35-5.8-9.27-5.94-18.67-.19-14.87,12.98-21.75,17.02-23.51l.44-.19.44.19c4.04,1.75,17.22,8.63,17.02,23.5-.14,9.4-3.22,14.33-5.93,18.68-2.38,3.8-4.62,7.39-4.73,13.65-.22,13.14-4.63,15.7-6.52,16.18l-.18.05ZM114.38,87.97h.14c.89-.32,4.51-2.39,4.7-14.02.13-6.87,2.64-10.89,5.07-14.78,2.69-4.3,5.47-8.75,5.6-17.54.17-13.01-11.1-19.36-15.25-21.25-4.15,1.89-15.42,8.24-15.25,21.25.13,8.78,2.91,13.23,5.6,17.53,2.43,3.89,4.95,7.91,5.07,14.78.2,12.06,3.65,13.8,4.33,14.02Z"/>
      <path class="cls-7" d="M130.45,93.14c-.75-.92-2.72-4.76,4.71-15.27,8.01-11.35.52-18.32,10.5-32.37,8.25-11.56,22.31-9.4,26.48-8.46h0c2.15,3.69,8.45,16.46-.1,27.8-10.39,13.75-19.3,8.7-27.71,19.76-7.78,10.24-12.43,9.28-13.53,8.84l-.35-.3Z"/>
      <path class="cls-6" d="M132.27,94.81c-.82,0-1.45-.16-1.88-.34l-.31-.19-.48-.44c-1.14-1.4-2.97-5.81,4.66-16.6,3.61-5.11,3.92-9.33,4.25-13.8.38-5.11.81-10.91,6.26-18.57,8.63-12.1,23.33-9.87,27.62-8.9l.47.11.24.41c2.22,3.81,8.78,17.14-.17,29.02-5.67,7.5-11.07,9.65-15.83,11.55-4.16,1.66-8.1,3.23-11.89,8.21-6.02,7.93-10.39,9.54-12.94,9.54ZM131.36,92.47c.92.27,5.05.74,12.09-8.53,4.16-5.47,8.57-7.22,12.83-8.92,4.71-1.88,9.58-3.82,14.88-10.83,7.83-10.39,2.5-22.18.26-26.16-4.47-.93-17.31-2.47-24.87,8.12-5.09,7.16-5.48,12.39-5.85,17.45-.34,4.58-.69,9.3-4.65,14.92-6.96,9.84-5.21,13.29-4.8,13.87l.1.09Z"/>
      <path class="cls-7" d="M140.91,106.08c-.07-1.19.59-5.46,12.77-9.6,13.15-4.49,11.17-14.53,27.5-20.05,13.46-4.52,23.59,5.48,26.4,8.69h0c-.42,4.25-2.82,18.29-16.39,22.45-16.49,5.04-20.73-4.28-34.03-.27-12.31,3.73-15.51.22-16.15-.78l-.1-.45Z"/>
      <path class="cls-6" d="M181.73,110.21c-3.84,0-6.93-.78-9.8-1.51-4.35-1.1-8.45-2.14-14.44-.33-12.58,3.81-16.36.4-17.4-1.25l-.14-.34-.13-.64c-.1-1.8,1-6.45,13.52-10.71,5.92-2.02,8.65-5.26,11.54-8.68,3.31-3.92,7.05-8.36,15.96-11.37,14.1-4.74,24.68,5.7,27.59,9.01l.32.36-.05.48c-.43,4.39-2.95,19.03-17.16,23.4-3.79,1.16-6.99,1.58-9.79,1.58ZM163.8,105.18c3.22,0,5.97.7,8.66,1.38,4.92,1.25,10.01,2.53,18.41-.04,12.44-3.82,15.03-16.49,15.56-21.03-3.07-3.38-12.56-12.16-24.9-8.02-8.32,2.81-11.71,6.82-14.98,10.7-2.96,3.5-6.02,7.13-12.52,9.35-11.41,3.88-12.02,7.7-12.03,8.41l.03.13c.59.75,3.66,3.56,14.8.18,2.59-.78,4.87-1.07,6.96-1.07Z"/>
      <path class="cls-7" d="M141.77,123.27c.64-1,3.67-4.08,15.97-.31,13.29,4.05,17.56-5.25,34.03-.16,13.56,4.21,15.92,18.25,16.32,22.5h0c-2.83,3.2-12.99,13.18-26.43,8.61-16.31-5.57-14.31-15.6-27.44-20.13-12.17-4.18-12.71-8.9-12.64-10.08l.18-.43Z"/>
      <path class="cls-6" d="M188.61,156.19c-2.3,0-4.74-.37-7.3-1.23-8.9-3.04-12.63-7.49-15.93-11.42-2.88-3.44-5.6-6.68-11.52-8.72-12.43-4.27-13.5-9.25-13.38-11.2l.08-.36.27-.59c.97-1.52,4.59-4.64,17.23-.77,5.98,1.83,10.09.8,14.44-.28,4.97-1.24,10.61-2.65,19.59.13,14.2,4.41,16.68,19.06,17.09,23.45l.02.19-.11.44-.18.21c-2.39,2.7-9.93,10.16-20.31,10.16ZM142.69,123.92c.04.95.88,5.03,11.89,8.81,6.49,2.24,9.54,5.87,12.49,9.39,3.26,3.89,6.63,7.91,14.95,10.74,12.32,4.18,21.84-4.57,24.92-7.94-.51-4.53-3.07-17.21-15.5-21.07-8.39-2.59-13.48-1.32-18.41-.09-4.45,1.11-9.05,2.26-15.62.26-11.52-3.53-14.25-.79-14.67-.22l-.05.13Z"/>
      <path class="cls-7" d="M133.02,136.52c1.11-.43,5.37-1.13,13.09,9.16,8.35,11.1,17.28,6.11,27.59,19.92,8.48,11.39,2.11,24.12-.07,27.8h0c-4.17.92-18.25,3-26.43-8.61-9.9-14.11-2.37-21.04-10.31-32.43-7.37-10.55-5.03-14.68-4.27-15.59l.4-.24Z"/>
      <path class="cls-6" d="M166.61,195.25c-6.26,0-14.64-1.77-20.31-9.83-5.4-7.7-5.8-13.49-6.15-18.61-.3-4.47-.59-8.7-4.17-13.83-7.53-10.78-5.46-15.43-4.21-16.93l.28-.24.56-.32c1.68-.65,6.44-1.05,14.37,9.53,3.76,5,7.68,6.59,11.84,8.28,4.75,1.93,10.13,4.11,15.76,11.65,8.88,11.93,2.24,25.23,0,29.02l-.24.41-.47.1c-1.45.32-4.08.78-7.26.78ZM133.38,137.59c-.53.79-2.25,4.59,4.42,14.13,3.93,5.64,4.25,10.37,4.56,14.95.35,5.06.7,10.29,5.75,17.49,7.49,10.64,20.34,9.17,24.82,8.27,2.26-3.97,7.66-15.72-.11-26.16-5.26-7.04-10.12-9.01-14.82-10.92-4.25-1.73-8.64-3.51-12.77-9-7.23-9.64-11.06-9.03-11.73-8.82l-.12.07Z"/>
      <path class="cls-7" d="M117.34,142.43c1.15.3,5.01,2.23,5.23,15.1.25,13.89,10.42,15.08,10.67,32.32.19,14.2-12.44,20.78-16.35,22.48h0c-3.92-1.7-16.54-8.28-16.36-22.48.25-17.24,10.42-18.43,10.67-32.32.22-12.86,4.54-14.84,5.69-15.13l.46.04Z"/>
      <path class="cls-6" d="M116.88,213.53l-.44-.19c-4.04-1.76-17.22-8.64-17.02-23.51.14-9.4,3.22-14.33,5.93-18.67,2.38-3.8,4.62-7.39,4.73-13.65.22-13.14,4.63-15.7,6.52-16.18l.18-.05.83.09c1.75.45,5.83,2.92,6.06,16.14.11,6.25,2.36,9.85,4.73,13.65,2.72,4.35,5.8,9.27,5.94,18.67.19,14.86-12.98,21.75-17.02,23.51l-.44.19ZM117,143.51c-.89.33-4.51,2.4-4.7,14.03-.13,6.87-2.64,10.89-5.07,14.78-2.69,4.3-5.47,8.75-5.6,17.54-.17,13.01,11.1,19.36,15.25,21.25,4.15-1.89,15.42-8.24,15.25-21.25-.13-8.79-2.91-13.23-5.6-17.54-2.43-3.89-4.95-7.91-5.07-14.78-.2-12.07-3.65-13.8-4.33-14.02h-.14Z"/>
      <path class="cls-7" d="M101.07,138.35c.75.92,2.72,4.76-4.71,15.27-8.01,11.35-.52,18.32-10.5,32.37-8.25,11.56-22.31,9.4-26.48,8.46h0c-2.15-3.69-8.45-16.46.1-27.8,10.39-13.75,19.3-8.7,27.71-19.76,7.78-10.24,12.43-9.28,13.53-8.84l.35.3Z"/>
      <path class="cls-6" d="M66.59,196.34c-3.26,0-5.97-.48-7.45-.82l-.47-.11-.24-.41c-2.22-3.8-8.78-17.14.17-29.02,5.67-7.5,11.07-9.66,15.83-11.55,4.16-1.66,8.1-3.23,11.89-8.21,7.96-10.47,13.02-9.93,14.82-9.2l.31.19.48.44c1.14,1.4,2.97,5.81-4.66,16.6-3.61,5.11-3.92,9.33-4.25,13.8-.38,5.11-.81,10.9-6.26,18.57-5.67,7.95-13.94,9.71-20.18,9.71ZM60.1,193.47c4.47.94,17.31,2.48,24.87-8.12,5.09-7.16,5.48-12.39,5.85-17.45.34-4.57.69-9.3,4.65-14.92,6.96-9.84,5.21-13.29,4.8-13.87l-.1-.09c-.91-.27-5.04-.75-12.09,8.54-4.16,5.46-8.57,7.22-12.83,8.92-4.71,1.88-9.59,3.82-14.88,10.83-7.83,10.39-2.5,22.17-.26,26.16Z"/>
      <path class="cls-7" d="M90.61,125.41c.07,1.19-.59,5.46-12.77,9.6-13.15,4.49-11.17,14.53-27.5,20.05-13.46,4.52-23.59-5.48-26.4-8.69h0c.42-4.25,2.82-18.29,16.39-22.45,16.49-5.04,20.73,4.28,34.03.27,12.31-3.73,15.51-.22,16.15.78l.1.45Z"/>
      <path class="cls-6" d="M43.45,157.31c-10.42,0-17.96-7.51-20.34-10.22l-.32-.36.05-.48c.43-4.38,2.94-19.03,17.16-23.4,9-2.75,14.63-1.32,19.6-.07,4.35,1.1,8.45,2.14,14.44.33,12.59-3.81,16.36-.39,17.4,1.25l.14.34.13.63c.1,1.8-1,6.45-13.52,10.71-5.92,2.02-8.65,5.26-11.54,8.68-3.31,3.92-7.05,8.36-15.96,11.37-2.54.85-4.96,1.21-7.24,1.21ZM25.09,145.99c3.07,3.38,12.56,12.15,24.9,8.01,8.32-2.81,11.71-6.82,14.98-10.7,2.96-3.5,6.02-7.13,12.52-9.35,11.41-3.88,12.02-7.7,12.03-8.41l-.03-.13c-.59-.75-3.66-3.56-14.8-.19-6.58,1.98-11.18.82-15.62-.3-4.92-1.24-10.01-2.53-18.41.04-12.44,3.82-15.03,16.49-15.56,21.03Z"/>
      <path class="cls-7" d="M89.75,108.22c-.64,1-3.67,4.08-15.97.31-13.29-4.05-17.56,5.25-34.03.16-13.56-4.21-15.92-18.25-16.32-22.5h0c2.83-3.2,12.99-13.18,26.43-8.61,16.31,5.57,14.31,15.6,27.44,20.13,12.17,4.18,12.71,8.9,12.64,10.08l-.18.43Z"/>
      <path class="cls-6" d="M83.77,111.45c-2.5,0-5.84-.49-10.31-1.87-5.98-1.82-10.09-.8-14.44.29-4.97,1.24-10.61,2.65-19.59-.13-14.2-4.41-16.68-19.06-17.1-23.45l-.05-.48.32-.36c2.92-3.3,13.54-13.71,27.61-8.93,8.9,3.04,12.63,7.49,15.93,11.42,2.88,3.43,5.6,6.68,11.52,8.72,12.43,4.27,13.5,9.25,13.38,11.2l-.08.36-.27.59c-.63.98-2.36,2.64-6.92,2.64ZM67.08,106.38c2.1,0,4.41.3,7.02,1.1,11.53,3.53,14.25.79,14.67.22l.05-.13c-.04-.95-.89-5.03-11.89-8.81-6.49-2.24-9.54-5.87-12.49-9.39-3.26-3.89-6.63-7.91-14.95-10.74-12.32-4.18-21.84,4.57-24.92,7.94.52,4.54,3.07,17.21,15.5,21.07,8.39,2.59,13.48,1.32,18.41.09,2.68-.67,5.41-1.35,8.6-1.35Z"/>
      <g>
        <path class="cls-4" d="M115.75,160.42c-24.63,0-44.67-20.04-44.67-44.67s20.04-44.67,44.67-44.67,44.67,20.04,44.67,44.67-20.04,44.67-44.67,44.67Z"/>
        <path class="cls-6" d="M115.75,72.55c23.86,0,43.2,19.34,43.2,43.2s-19.34,43.2-43.2,43.2-43.2-19.34-43.2-43.2,19.34-43.2,43.2-43.2M115.75,69.6c-25.44,0-46.15,20.7-46.15,46.15s20.7,46.15,46.15,46.15,46.15-20.7,46.15-46.15-20.7-46.15-46.15-46.15h0Z"/>
      </g>
      <g>
        <path class="cls-4" d="M115.75,150.93c-19.4,0-35.18-15.78-35.18-35.18s15.78-35.18,35.18-35.18,35.18,15.78,35.18,35.18-15.78,35.18-35.18,35.18Z"/>
        <path class="cls-6" d="M115.75,82.04c18.62,0,33.71,15.09,33.71,33.71s-15.09,33.71-33.71,33.71-33.71-15.09-33.71-33.71,15.09-33.71,33.71-33.71M115.75,79.09c-20.21,0-36.65,16.44-36.65,36.65s16.44,36.65,36.65,36.65,36.65-16.44,36.65-36.65-16.44-36.65-36.65-36.65h0Z"/>
      </g>
      <path class="cls-6" d="M104.84,93.85h23.98v7h-17.18l-1.04,9.5c.61-.36,1.48-.72,2.61-1.1,1.13-.37,2.42-.56,3.89-.56,2.08,0,3.93.33,5.57.99,1.63.66,3.01,1.62,4.14,2.86,1.11,1.25,1.96,2.77,2.55,4.57.59,1.8.89,3.84.89,6.11,0,1.94-.29,3.78-.86,5.52-.58,1.74-1.46,3.28-2.64,4.6-1.19,1.33-2.68,2.37-4.48,3.15-1.8.77-3.93,1.16-6.38,1.16-1.86,0-3.66-.28-5.38-.83-1.73-.55-3.27-1.36-4.61-2.43-1.35-1.07-2.44-2.38-3.28-3.93-.84-1.55-1.29-3.33-1.35-5.33h8.13c.2,1.88.88,3.34,2.03,4.36,1.16,1.03,2.63,1.54,4.44,1.54,1.1,0,2.05-.21,2.83-.63.78-.42,1.42-.99,1.91-1.72.47-.73.82-1.6,1.05-2.61.23-1.01.34-2.1.34-3.26s-.14-2.2-.43-3.16c-.28-.96-.72-1.78-1.32-2.48-.59-.69-1.34-1.23-2.23-1.6s-1.94-.56-3.15-.56c-.81,0-1.51.07-2.1.21-.59.14-1.12.32-1.57.53s-.86.47-1.22.76c-.36.29-.69.59-1,.91l-6.59-1.63,2.46-21.93Z"/>
      <g>
        <g class="cls-3">
          <rect class="cls-2" x="3.5" y="3.5" width="224.49" height="224.49"/>
          <rect class="cls-2" x="3.5" y="3.5" width="224.49" height="224.49"/>
          <rect class="cls-2" x="3.5" y="3.5" width="224.49" height="224.49"/>
          <rect class="cls-2" x="3.5" y="3.5" width="224.49" height="224.49"/>
          <rect class="cls-2" x="3.5" y="3.5" width="224.49" height="224.49"/>
          <rect class="cls-2" x="3.5" y="3.5" width="224.49" height="224.49"/>
        </g>
        <rect class="cls-2" x="3.5" y="3.5" width="224.49" height="224.49" rx="18.06" ry="18.06"/>
      </g>
    </g>
  </g>
</svg>