<?xml version="1.0" encoding="UTF-8"?>
<svg id="Layer_2" data-name="Layer 2" xmlns="http://www.w3.org/2000/svg" viewBox="0 0 486.23 96.5">
  <g id="Layer_1-2" data-name="Layer 1">
    <g>
      <path d="M22.48,10.52c-.76-.97-1.77-1.74-2.99-2.32-1.24-.57-2.42-.86-3.57-.86-.58,0-1.18.05-1.79.16s-1.15.31-1.64.6c-.48.3-.88.68-1.22,1.15-.33.47-.49,1.07-.49,1.79,0,.62.14,1.15.39,1.56.26.42.64.78,1.14,1.09s1.1.6,1.79.86,1.48.53,2.35.81c1.25.41,2.54.88,3.9,1.38s2.58,1.17,3.7,2,2.04,1.86,2.76,3.1c.73,1.23,1.1,2.77,1.1,4.61,0,2.12-.39,3.95-1.18,5.5-.77,1.54-1.82,2.82-3.14,3.82-1.32,1.01-2.84,1.75-4.54,2.24s-3.45.73-5.26.73c-2.64,0-5.19-.46-7.65-1.38-2.47-.92-4.51-2.23-6.14-3.93l5.83-5.93c.9,1.11,2.09,2.04,3.56,2.79,1.48.75,2.95,1.12,4.4,1.12.67,0,1.3-.07,1.93-.21.62-.14,1.17-.36,1.64-.68.46-.31.84-.73,1.11-1.25.29-.52.42-1.14.42-1.87s-.18-1.28-.53-1.77c-.34-.49-.84-.93-1.48-1.33-.64-.4-1.44-.76-2.39-1.09-.95-.33-2.04-.68-3.26-1.07-1.17-.38-2.32-.83-3.45-1.35-1.13-.52-2.13-1.19-3.03-2-.88-.82-1.59-1.81-2.13-2.97-.53-1.16-.8-2.58-.8-4.24,0-2.05.42-3.8,1.25-5.26.83-1.46,1.93-2.66,3.27-3.59,1.36-.94,2.88-1.62,4.58-2.06,1.71-.43,3.42-.65,5.16-.65,2.08,0,4.21.38,6.37,1.14,2.17.76,4.08,1.89,5.71,3.38l-5.68,5.99Z"/>
      <path d="M61.73,12.28c0,2.15-.39,3.97-1.2,5.44s-1.87,2.66-3.22,3.57c-1.36.9-2.92,1.56-4.69,1.98-1.78.42-3.61.62-5.53.62h-4.42v13.9h-8.91V.94h13.54c2.01,0,3.9.2,5.65.6,1.75.4,3.27,1.04,4.58,1.93,1.3.89,2.32,2.05,3.07,3.49.75,1.44,1.11,3.22,1.11,5.34ZM52.83,12.34c0-.87-.18-1.58-.52-2.14-.35-.55-.82-.99-1.41-1.3-.58-.31-1.25-.52-2-.62s-1.52-.16-2.32-.16h-3.9v8.69h3.75c.83,0,1.63-.07,2.39-.21.76-.14,1.45-.38,2.05-.73.61-.35,1.09-.81,1.44-1.38.34-.57.52-1.29.52-2.16Z"/>
      <path d="M86.83,37.8l-8-14.63h-3.03v14.63h-8.69V.94h14.06c1.77,0,3.49.18,5.18.55,1.68.36,3.19.98,4.52,1.85,1.34.87,2.4,2.01,3.21,3.43.8,1.43,1.2,3.2,1.2,5.31,0,2.5-.68,4.6-2.02,6.3-1.36,1.7-3.23,2.91-5.62,3.64l9.63,15.77h-10.42ZM86.46,12.23c0-.87-.18-1.57-.54-2.11-.37-.54-.84-.95-1.41-1.25-.57-.29-1.22-.49-1.93-.6-.72-.11-1.41-.16-2.08-.16h-4.75v8.59h4.24c.73,0,1.48-.06,2.26-.18.76-.12,1.45-.34,2.09-.65.62-.31,1.14-.76,1.54-1.36.41-.59.6-1.35.6-2.29Z"/>
      <path d="M126.6,37.8l-2.87-7.24h-14.26l-2.7,7.24h-9.69L112.54.94h8.64l15.31,36.86h-9.89ZM116.71,10.78l-4.69,12.65h9.27l-4.58-12.65Z"/>
      <path d="M154.35,22.18v15.62h-8.9v-15.62L131.6.94h10.77l7.85,13.64,7.87-13.64h10.42l-14.17,21.24Z"/>
      <path d="M24.09,82.1h.08v-25.17h3v29.55h-3.75L6.22,61.07h-.08v25.42h-3v-29.55h3.75l17.2,25.17Z"/>
      <path d="M52.63,76.14v.62c0,.22-.01.46-.04.71h-16.19c.03.97.23,1.89.58,2.75.37.86.87,1.61,1.51,2.25.64.64,1.39,1.15,2.26,1.52.86.37,1.79.56,2.8.56,1.47,0,2.74-.34,3.82-1.02s1.89-1.47,2.45-2.36l2.12,1.67c-1.17,1.47-2.46,2.53-3.86,3.17-1.4.64-2.92.96-4.52.96-1.45,0-2.8-.25-4.03-.77-1.24-.51-2.3-1.23-3.19-2.15-.88-.92-1.59-2-2.11-3.25-.52-1.25-.77-2.62-.77-4.09s.26-2.84.76-4.09c.49-1.25,1.2-2.34,2.08-3.25.9-.92,1.93-1.63,3.14-2.15,1.2-.51,2.49-.77,3.87-.77,1.54,0,2.88.26,4.05.77,1.17.52,2.15,1.21,2.92,2.09.79.88,1.37,1.9,1.78,3.07s.6,2.42.6,3.76ZM49.75,75.22c-.08-1.83-.67-3.36-1.77-4.57-1.1-1.21-2.66-1.82-4.7-1.82-.94,0-1.82.17-2.62.52-.82.35-1.52.82-2.13,1.42-.61.6-1.1,1.28-1.45,2.04-.37.76-.57,1.56-.64,2.4h13.31Z"/>
      <path d="M72.91,86.49c-.05-.53-.1-1.11-.12-1.75s-.04-1.17-.04-1.59h-.08c-.56,1.14-1.47,2.07-2.72,2.77s-2.57,1.06-3.97,1.06c-2.47,0-4.33-.74-5.57-2.21-1.24-1.47-1.86-3.42-1.86-5.84v-11.98h2.84v10.81c0,1.03.08,1.96.26,2.8.16.84.45,1.55.86,2.15.39.6.94,1.06,1.63,1.4.68.33,1.54.5,2.55.5.76,0,1.49-.15,2.2-.46s1.34-.77,1.9-1.4c.54-.62.99-1.42,1.33-2.38.33-.96.5-2.1.5-3.4v-10.02h2.84v15.23c0,.53.01,1.21.04,2.04.03.84.07,1.59.12,2.26h-2.72Z"/>
      <path d="M91.78,69.33h-5.52v11.39c0,.72.08,1.32.22,1.8.14.47.34.84.6,1.1.27.26.58.44.94.54.37.1.76.15,1.17.15s.8-.05,1.24-.17.84-.26,1.24-.46l.12,2.46c-.5.19-1.02.34-1.56.44-.54.1-1.14.15-1.78.15-.53,0-1.09-.07-1.67-.21s-1.13-.4-1.63-.79c-.49-.39-.91-.92-1.22-1.59-.33-.67-.48-1.55-.48-2.63v-12.19h-4.05v-2.38h4.05v-5.51h2.83v5.51h5.52v2.38Z"/>
      <path d="M96.17,69.21c-.03-.84-.07-1.59-.14-2.26h2.72c.05.53.1,1.11.12,1.75.03.64.04,1.17.04,1.59h.1c.54-1.14,1.39-2.07,2.5-2.77s2.36-1.06,3.75-1.06c.37,0,.69.01.99.04.29.03.58.08.9.17l-.38,2.71c-.16-.05-.45-.11-.83-.17-.39-.06-.79-.08-1.18-.08-.75,0-1.47.14-2.16.42s-1.3.71-1.82,1.31c-.52.6-.94,1.36-1.25,2.29-.33.93-.48,2.05-.48,3.35v9.99h-2.84v-15.23c0-.53-.01-1.21-.04-2.04Z"/>
      <path d="M123.04,73.84c0-1.68-.45-2.94-1.33-3.77-.9-.83-2.19-1.24-3.89-1.24-1.17,0-2.26.21-3.26.62-.99.42-1.85.97-2.54,1.67l-1.59-1.88c.82-.8,1.87-1.47,3.19-2,1.32-.53,2.83-.79,4.48-.79,1.06,0,2.05.15,2.98.44.91.29,1.73.73,2.42,1.31.69.58,1.24,1.32,1.63,2.21.38.89.58,1.94.58,3.13v8.56c0,.75.03,1.53.08,2.34s.14,1.49.24,2.04h-2.54c-.08-.47-.16-.99-.22-1.55-.05-.55-.08-1.1-.08-1.63h-.08c-.88,1.31-1.9,2.25-3.03,2.82-1.13.57-2.47.85-4.06.85-.75,0-1.52-.1-2.32-.31-.79-.21-1.51-.55-2.16-1.03-.67-.48-1.2-1.09-1.63-1.84-.43-.75-.65-1.67-.65-2.76,0-1.51.38-2.7,1.15-3.58.76-.88,1.78-1.54,3.06-1.97,1.29-.43,2.76-.71,4.42-.84,1.64-.13,3.37-.19,5.15-.19v-.62ZM122.22,76.72c-1.17,0-2.35.05-3.53.15-1.18.1-2.26.29-3.22.58-.95.29-1.74.72-2.35,1.27-.61.56-.92,1.29-.92,2.21,0,.7.14,1.28.39,1.75.27.47.62.86,1.07,1.15s.94.5,1.48.62,1.09.19,1.64.19c1.01,0,1.89-.17,2.68-.52.77-.35,1.43-.82,1.96-1.42s.94-1.29,1.21-2.07c.29-.78.42-1.6.42-2.46v-1.46h-.83Z"/>
      <path d="M135.94,86.49h-2.84v-31.55h2.84v31.55Z"/>
      <path d="M147,59.44c0,.58-.2,1.07-.62,1.44-.42.38-.87.56-1.37.56s-.96-.19-1.39-.56c-.41-.37-.62-.86-.62-1.44s.22-1.06.62-1.44c.42-.37.88-.56,1.39-.56s.95.19,1.37.56c.42.38.62.86.62,1.44ZM146.41,86.49h-2.84v-19.53h2.84v19.53Z"/>
      <path d="M166.95,68.96l-11.7,15.07h12.1v2.46h-15.85v-2l11.64-15.15h-11.06v-2.38h14.86v2Z"/>
      <path d="M190.2,76.14v.62c0,.22-.01.46-.04.71h-16.19c.03.97.22,1.89.58,2.75.35.86.86,1.61,1.49,2.25.65.64,1.4,1.15,2.26,1.52.87.37,1.79.56,2.8.56,1.48,0,2.74-.34,3.82-1.02s1.89-1.47,2.45-2.36l2.13,1.67c-1.17,1.47-2.46,2.53-3.86,3.17-1.41.64-2.92.96-4.54.96-1.44,0-2.79-.25-4.02-.77-1.24-.51-2.31-1.23-3.19-2.15-.9-.92-1.6-2-2.11-3.25-.52-1.25-.77-2.62-.77-4.09s.24-2.84.75-4.09c.5-1.25,1.2-2.34,2.09-3.25.88-.92,1.93-1.63,3.12-2.15,1.2-.51,2.49-.77,3.89-.77,1.52,0,2.88.26,4.05.77,1.17.52,2.13,1.21,2.92,2.09.77.88,1.37,1.9,1.77,3.07.41,1.17.61,2.42.61,3.76ZM187.32,75.22c-.08-1.83-.68-3.36-1.78-4.57-1.1-1.21-2.66-1.82-4.69-1.82-.95,0-1.82.17-2.64.52-.8.35-1.51.82-2.12,1.42-.62.6-1.1,1.28-1.47,2.04-.37.76-.57,1.56-.62,2.4h13.31Z"/>
      <path d="M219.03,73.84c0-1.68-.43-2.94-1.33-3.77-.88-.83-2.19-1.24-3.89-1.24-1.17,0-2.24.21-3.25.62-1.01.42-1.85.97-2.55,1.67l-1.58-1.88c.8-.8,1.86-1.47,3.19-2,1.32-.53,2.81-.79,4.48-.79,1.06,0,2.05.15,2.96.44.92.29,1.73.73,2.42,1.31s1.24,1.32,1.63,2.21c.39.89.58,1.94.58,3.13v8.56c0,.75.03,1.53.08,2.34s.14,1.49.26,2.04h-2.55c-.08-.47-.15-.99-.2-1.55-.05-.55-.08-1.1-.08-1.63h-.08c-.9,1.31-1.9,2.25-3.03,2.82-1.13.57-2.49.85-4.08.85-.75,0-1.52-.1-2.31-.31s-1.52-.55-2.17-1.03c-.65-.48-1.2-1.09-1.63-1.84-.42-.75-.64-1.67-.64-2.76,0-1.51.38-2.7,1.14-3.58.76-.88,1.79-1.54,3.07-1.97,1.28-.43,2.74-.71,4.4-.84s3.37-.19,5.15-.19v-.62ZM218.2,76.72c-1.17,0-2.35.05-3.53.15-1.18.1-2.24.29-3.21.58s-1.75.72-2.36,1.27c-.61.56-.91,1.29-.91,2.21,0,.7.12,1.28.39,1.75.26.47.61.86,1.06,1.15s.94.5,1.48.62,1.1.19,1.66.19c.99,0,1.89-.17,2.66-.52.79-.35,1.44-.82,1.97-1.42.53-.6.92-1.29,1.21-2.07.27-.78.41-1.6.41-2.46v-1.46h-.83Z"/>
      <path d="M247.92,82.6h.08l9.59-25.67h3.22l-11.32,29.55h-3.17l-11.28-29.55h3.26l9.61,25.67Z"/>
      <path d="M267.41,59.44c0,.58-.2,1.07-.62,1.44-.42.38-.87.56-1.37.56s-.96-.19-1.39-.56c-.41-.37-.62-.86-.62-1.44s.22-1.06.62-1.44c.42-.37.88-.56,1.39-.56s.95.19,1.37.56c.42.38.62.86.62,1.44ZM266.82,86.49h-2.84v-19.53h2.84v19.53Z"/>
      <path d="M276.93,66.95c.05.53.1,1.11.12,1.75.03.64.04,1.17.04,1.59h.08c.56-1.14,1.47-2.07,2.72-2.77s2.57-1.06,3.97-1.06c2.47,0,4.33.74,5.57,2.21,1.24,1.47,1.85,3.42,1.85,5.84v11.98h-2.84v-10.81c0-1.03-.08-1.96-.24-2.8-.16-.84-.45-1.55-.86-2.15-.41-.6-.95-1.06-1.63-1.4-.68-.34-1.54-.5-2.57-.5-.75,0-1.48.15-2.19.46-.71.31-1.34.77-1.9,1.4s-.99,1.42-1.33,2.38c-.34.96-.5,2.1-.5,3.4v10.02h-2.84v-15.23c0-.53-.01-1.21-.04-2.04s-.07-1.59-.12-2.26h2.72Z"/>
      <path d="M316.41,76.14v.62c0,.22-.01.46-.04.71h-16.19c.03.97.22,1.89.58,2.75.35.86.86,1.61,1.49,2.25.65.64,1.4,1.15,2.26,1.52.87.37,1.79.56,2.8.56,1.48,0,2.74-.34,3.82-1.02s1.89-1.47,2.45-2.36l2.13,1.67c-1.17,1.47-2.46,2.53-3.86,3.17-1.41.64-2.92.96-4.54.96-1.44,0-2.79-.25-4.02-.77-1.24-.51-2.31-1.23-3.19-2.15-.9-.92-1.6-2-2.11-3.25-.52-1.25-.77-2.62-.77-4.09s.24-2.84.75-4.09c.5-1.25,1.2-2.34,2.09-3.25.88-.92,1.93-1.63,3.12-2.15,1.2-.51,2.49-.77,3.89-.77,1.52,0,2.88.26,4.05.77,1.17.52,2.13,1.21,2.92,2.09.77.88,1.37,1.9,1.77,3.07.41,1.17.61,2.42.61,3.76ZM313.53,75.22c-.08-1.83-.68-3.36-1.78-4.57-1.1-1.21-2.66-1.82-4.69-1.82-.95,0-1.82.17-2.64.52-.8.35-1.51.82-2.12,1.42-.62.6-1.1,1.28-1.47,2.04-.37.76-.57,1.56-.62,2.4h13.31Z"/>
      <path d="M347.71,81.39h.04l9.89-24.46h4.59v29.55h-3v-25.67h-.1l-10.68,25.67h-1.59l-10.68-25.67h-.08v25.67h-3v-29.55h4.58l10.03,24.46Z"/>
      <path d="M389.31,76.72c0,1.47-.26,2.84-.77,4.09-.52,1.25-1.22,2.34-2.15,3.25-.91.92-2.01,1.64-3.3,2.15-1.28.52-2.68.77-4.21.77s-2.89-.25-4.17-.77c-1.28-.51-2.38-1.23-3.3-2.15-.91-.92-1.63-2-2.15-3.25-.52-1.25-.77-2.62-.77-4.09s.26-2.84.77-4.09c.52-1.25,1.24-2.34,2.15-3.25.92-.92,2.02-1.63,3.3-2.15,1.28-.51,2.68-.77,4.17-.77s2.93.26,4.21.77c1.29.52,2.39,1.23,3.3,2.15.92.92,1.63,2,2.15,3.25.52,1.25.77,2.62.77,4.09ZM386.31,76.72c0-1.09-.18-2.11-.52-3.07-.35-.96-.84-1.79-1.48-2.5-.65-.71-1.43-1.27-2.34-1.69-.92-.41-1.96-.62-3.1-.62s-2.16.21-3.07.62c-.9.42-1.67.98-2.31,1.69s-1.14,1.55-1.48,2.5c-.35.96-.53,1.98-.53,3.07s.18,2.11.53,3.07c.34.96.84,1.79,1.48,2.5.64.71,1.41,1.27,2.31,1.67.91.4,1.93.6,3.07.6s2.17-.2,3.1-.6c.91-.4,1.68-.96,2.34-1.67.64-.71,1.13-1.55,1.48-2.5.34-.96.52-1.98.52-3.07Z"/>
      <path d="M397.95,66.95c.05.53.1,1.11.12,1.75.03.64.04,1.17.04,1.59h.1c.54-1.14,1.45-2.07,2.7-2.77s2.58-1.06,3.97-1.06c2.47,0,4.33.74,5.57,2.21,1.24,1.47,1.86,3.42,1.86,5.84v11.98h-2.84v-10.81c0-1.03-.08-1.96-.24-2.8-.18-.84-.46-1.55-.86-2.15-.41-.6-.95-1.06-1.63-1.4-.68-.34-1.54-.5-2.57-.5-.75,0-1.48.15-2.19.46-.72.31-1.34.77-1.9,1.4s-1.01,1.42-1.34,2.38c-.33.96-.49,2.1-.49,3.4v10.02h-2.84v-15.23c0-.53-.01-1.21-.04-2.04s-.07-1.59-.14-2.26h2.72Z"/>
      <path d="M430.05,71.59c-.42-.8-1.06-1.47-1.9-1.98-.86-.52-1.82-.77-2.91-.77-.49,0-.99.06-1.49.17-.5.11-.95.29-1.34.54-.38.25-.69.57-.94.96-.23.39-.35.85-.35,1.38,0,.92.38,1.62,1.13,2.11s1.94.9,3.55,1.23c2.31.48,4.02,1.16,5.12,2.07,1.1.91,1.64,2.12,1.64,3.65,0,1.11-.22,2.05-.65,2.82-.42.77-.99,1.39-1.68,1.88-.69.49-1.48.84-2.36,1.04-.87.21-1.75.31-2.65.31-1.47,0-2.91-.31-4.29-.92-1.4-.61-2.53-1.57-3.42-2.88l2.26-1.67c.5.86,1.24,1.59,2.21,2.17.96.58,2.04.88,3.21.88.61,0,1.2-.06,1.75-.17.56-.11,1.05-.31,1.47-.58.41-.28.75-.64,1.01-1.07.24-.43.37-.96.37-1.61,0-1.03-.49-1.8-1.48-2.32-.99-.51-2.42-1-4.28-1.44-.58-.14-1.2-.31-1.85-.52-.67-.21-1.26-.52-1.82-.92-.56-.4-1.02-.91-1.37-1.52-.37-.61-.54-1.38-.54-2.3,0-1,.19-1.86.58-2.57.38-.71.91-1.29,1.56-1.75s1.4-.8,2.23-1.02c.84-.22,1.7-.33,2.59-.33,1.36,0,2.68.31,3.95.92,1.29.61,2.24,1.47,2.88,2.59l-2.16,1.63Z"/>
      <path d="M446.99,69.33h-5.52v11.39c0,.72.08,1.32.22,1.8.14.47.34.84.6,1.1.27.26.58.44.94.54.37.1.76.15,1.17.15s.8-.05,1.24-.17.84-.26,1.24-.46l.12,2.46c-.5.19-1.02.34-1.56.44-.54.1-1.14.15-1.78.15-.53,0-1.09-.07-1.67-.21s-1.13-.4-1.63-.79c-.49-.39-.91-.92-1.22-1.59-.33-.67-.48-1.55-.48-2.63v-12.19h-4.05v-2.38h4.05v-5.51h2.83v5.51h5.52v2.38Z"/>
      <path d="M469.19,76.14v.62c0,.22-.01.46-.04.71h-16.19c.03.97.23,1.89.58,2.75.37.86.87,1.61,1.51,2.25.64.64,1.39,1.15,2.26,1.52.86.37,1.79.56,2.8.56,1.47,0,2.74-.34,3.82-1.02s1.89-1.47,2.45-2.36l2.12,1.67c-1.17,1.47-2.46,2.53-3.86,3.17-1.4.64-2.92.96-4.52.96-1.45,0-2.8-.25-4.03-.77-1.24-.51-2.3-1.23-3.19-2.15-.88-.92-1.59-2-2.11-3.25-.52-1.25-.77-2.62-.77-4.09s.26-2.84.76-4.09c.49-1.25,1.2-2.34,2.08-3.25.9-.92,1.93-1.63,3.14-2.15,1.2-.51,2.49-.77,3.87-.77,1.54,0,2.88.26,4.05.77,1.17.52,2.15,1.21,2.92,2.09.79.88,1.37,1.9,1.78,3.07s.6,2.42.6,3.76ZM466.31,75.22c-.08-1.83-.67-3.36-1.77-4.57-1.1-1.21-2.66-1.82-4.7-1.82-.94,0-1.82.17-2.62.52-.82.35-1.52.82-2.13,1.42s-1.1,1.28-1.45,2.04c-.37.76-.57,1.56-.64,2.4h13.31Z"/>
      <path d="M475.25,69.21c-.03-.84-.07-1.59-.14-2.26h2.72c.05.53.1,1.11.12,1.75.03.64.04,1.17.04,1.59h.1c.54-1.14,1.39-2.07,2.5-2.77s2.36-1.06,3.75-1.06c.37,0,.69.01.99.04.29.03.58.08.9.17l-.38,2.71c-.16-.05-.45-.11-.83-.17-.39-.06-.79-.08-1.18-.08-.75,0-1.47.14-2.16.42s-1.3.71-1.82,1.31-.94,1.36-1.25,2.29c-.33.93-.48,2.05-.48,3.35v9.99h-2.84v-15.23c0-.53-.01-1.21-.04-2.04Z"/>
    </g>
  </g>
</svg>