<?xml version="1.0" encoding="UTF-8"?>
<svg id="Layer_2" data-name="Layer 2" xmlns="http://www.w3.org/2000/svg" viewBox="0 0 710.42 184.39">
  <g id="Layer_1-2" data-name="Layer 1">
    <g>
      <path d="M71.17,23.48v14.46h-4.73V0h12.1c8.74,0,13.8,4.4,13.8,11.77s-5,11.71-13.8,11.71h-7.37ZM78.54,19.19c6.43,0,9.07-2.75,9.07-7.42s-2.64-7.48-9.07-7.48h-7.37v14.9h7.37Z"/>
      <path d="M118.96,25.96c0,7.15-3.52,12.43-11.44,12.43-7.31,0-11.44-4.84-11.44-12.43v-3.63c0-7.81,4.24-12.32,11.44-12.32s11.44,4.45,11.44,12.32v3.63ZM114.56,25.96v-3.63c0-5.22-2.53-8.36-7.04-8.36s-7.04,3.19-7.04,8.36v3.63c0,4.73,1.98,8.47,7.04,8.47,4.67,0,7.04-3.79,7.04-8.47Z"/>
      <path d="M134.64,37.94h-3.85l-7.97-27.5h4.67l5.5,19.3,6.93-19.3h3.68l7.31,19.47,5.5-19.47h4.67l-7.97,27.5h-3.85l-7.31-20.57-7.31,20.57Z"/>
      <path d="M186.33,33.77c-1.92,3.35-4.84,4.62-9.62,4.62-7.37,0-11.77-4.78-11.77-12.43v-3.63c0-7.81,3.68-12.32,10.89-12.32s10.89,4.45,10.89,12.32v2.86h-17.38v.77c0,4.73,2.25,8.47,7.04,8.47,3.58,0,5.39-1.04,6.54-3.08l3.41,2.42ZM169.34,21.34h12.92c-.22-4.62-2.25-7.37-6.43-7.37s-6.21,2.8-6.49,7.37Z"/>
      <path d="M209.16,16.39c-1.16-1.59-2.58-2.31-4.62-2.31-3.35,0-5.88,2.53-5.88,6.65v17.21h-4.4V10.45h4.4v2.69c1.16-1.92,3.02-3.13,6.38-3.13,3.74,0,6.1,1.27,7.86,3.74l-3.74,2.64Z"/>
      <path d="M215.1,20.07h14.24v3.96h-14.24v-3.96Z"/>
      <path d="M257.45,37.94h-4.4v-2.69c-1.38,2.09-3.3,3.13-7.37,3.13-5.88,0-10.01-3.08-10.01-10.78V10.45h4.4v17.1c0,5.55,3.03,6.76,6.27,6.76,4.12,0,6.71-2.91,6.71-6.71V10.45h4.4v27.5Z"/>
      <path d="M277.58,10.01c6.82,0,11,4.45,11,12.32v3.63c0,7.15-3.52,12.43-11,12.43-3.63,0-5.99-1.15-7.48-3.19v13.2h-4.4V10.45h4.4v2.75c1.49-2.03,3.85-3.19,7.48-3.19ZM284.18,25.96v-3.63c0-5.22-2.53-8.36-7.04-8.36s-7.04,3.02-7.04,7.97v4.01c0,4.73,1.98,8.47,7.04,8.47,4.67,0,7.04-3.79,7.04-8.47Z"/>
      <path d="M310.91,16.88c-1.48-1.92-3.02-2.8-6.82-2.8-3.24,0-5.33,1.26-5.33,3.68,0,3.13,2.75,4.07,6.38,4.34,5.17.38,9.9,1.87,9.9,8.19,0,4.78-3.25,8.08-10.34,8.08-5.61,0-8.52-1.7-10.61-4.56l3.25-2.31c1.48,1.98,3.46,2.8,7.42,2.8,3.68,0,5.88-1.43,5.88-3.9,0-2.97-1.76-4.01-7.09-4.4-4.62-.33-9.18-2.2-9.18-8.19,0-4.56,3.3-7.81,9.84-7.81,4.45,0,7.86,1.16,10.01,4.56l-3.3,2.31Z"/>
      <path d="M345.94,22.05h6.54v-3.19c0-3.9-1.81-4.78-6.1-4.78-3.3,0-5.06.27-6.6,2.8l-3.3-2.31c1.92-3.19,4.73-4.56,9.95-4.56,6.98,0,10.45,2.25,10.45,8.85v19.08h-4.4v-2.69c-1.54,2.53-3.41,3.13-6.98,3.13-6.38,0-9.84-3.13-9.84-8.47,0-5.94,4.23-7.86,10.28-7.86ZM352.49,25.79h-6.54c-4.34,0-5.88,1.48-5.88,4.23,0,3.08,2.2,4.29,5.44,4.29,4.07,0,6.98-.77,6.98-6.93v-1.59Z"/>
      <path d="M380.04,16.39c-1.16-1.59-2.58-2.31-4.62-2.31-3.35,0-5.88,2.53-5.88,6.65v17.21h-4.4V10.45h4.4v2.69c1.16-1.92,3.02-3.13,6.38-3.13,3.74,0,6.1,1.27,7.86,3.74l-3.74,2.64Z"/>
      <path d="M407.92,33.77c-1.92,3.35-4.84,4.62-9.62,4.62-7.37,0-11.77-4.78-11.77-12.43v-3.63c0-7.81,3.68-12.32,10.89-12.32s10.89,4.45,10.89,12.32v2.86h-17.38v.77c0,4.73,2.25,8.47,7.04,8.47,3.58,0,5.39-1.04,6.54-3.08l3.41,2.42ZM390.93,21.34h12.92c-.22-4.62-2.25-7.37-6.43-7.37s-6.21,2.8-6.49,7.37Z"/>
      <path d="M446.15,16.88c-1.48-1.92-3.02-2.8-6.82-2.8-3.24,0-5.33,1.26-5.33,3.68,0,3.13,2.75,4.07,6.38,4.34,5.17.38,9.9,1.87,9.9,8.19,0,4.78-3.25,8.08-10.34,8.08-5.61,0-8.52-1.7-10.61-4.56l3.25-2.31c1.48,1.98,3.46,2.8,7.42,2.8,3.68,0,5.88-1.43,5.88-3.9,0-2.97-1.76-4.01-7.09-4.4-4.62-.33-9.18-2.2-9.18-8.19,0-4.56,3.3-7.81,9.84-7.81,4.45,0,7.86,1.16,10.01,4.56l-3.3,2.31Z"/>
      <path d="M477.44,33.77c-1.71,3.19-5.06,4.62-9.51,4.62-7.53,0-11.88-4.84-11.88-12.43v-3.63c0-7.81,4.46-12.32,11.88-12.32,4.12,0,7.53,1.48,9.51,4.29l-3.46,2.42c-1.21-1.76-3.52-2.75-6.05-2.75-4.73,0-7.48,3.19-7.48,8.36v3.63c0,4.73,2.2,8.47,7.48,8.47,2.58,0,4.95-.88,6.1-3.08l3.41,2.42Z"/>
      <path d="M491.3,22.05h6.54v-3.19c0-3.9-1.81-4.78-6.1-4.78-3.3,0-5.06.27-6.6,2.8l-3.3-2.31c1.92-3.19,4.73-4.56,9.95-4.56,6.98,0,10.45,2.25,10.45,8.85v19.08h-4.4v-2.69c-1.54,2.53-3.41,3.13-6.98,3.13-6.38,0-9.84-3.13-9.84-8.47,0-5.94,4.24-7.86,10.28-7.86ZM497.85,25.79h-6.54c-4.34,0-5.88,1.48-5.88,4.23,0,3.08,2.2,4.29,5.44,4.29,4.07,0,6.98-.77,6.98-6.93v-1.59Z"/>
      <path d="M508.08,10.45h3.52v-6.05h4.4v6.05h6.32v3.96h-6.32v13.97c0,3.79.44,5.39,4.12,5.39h2.2v4.18h-2.37c-6.49,0-8.36-2.75-8.36-8.47v-15.07h-3.52v-3.96Z"/>
      <path d="M526.5,10.45h3.52v-6.05h4.4v6.05h6.32v3.96h-6.32v13.97c0,3.79.44,5.39,4.12,5.39h2.2v4.18h-2.37c-6.49,0-8.36-2.75-8.36-8.47v-15.07h-3.52v-3.96Z"/>
      <path d="M567.37,33.77c-1.92,3.35-4.84,4.62-9.62,4.62-7.37,0-11.77-4.78-11.77-12.43v-3.63c0-7.81,3.68-12.32,10.89-12.32s10.89,4.45,10.89,12.32v2.86h-17.38v.77c0,4.73,2.25,8.47,7.04,8.47,3.58,0,5.39-1.04,6.54-3.08l3.41,2.42ZM550.37,21.34h12.92c-.22-4.62-2.25-7.37-6.43-7.37s-6.21,2.8-6.49,7.37Z"/>
      <path d="M590.19,16.39c-1.16-1.59-2.58-2.31-4.62-2.31-3.35,0-5.88,2.53-5.88,6.65v17.21h-4.4V10.45h4.4v2.69c1.16-1.92,3.03-3.13,6.38-3.13,3.74,0,6.1,1.27,7.86,3.74l-3.74,2.64Z"/>
      <path d="M618.08,33.77c-1.92,3.35-4.84,4.62-9.62,4.62-7.37,0-11.77-4.78-11.77-12.43v-3.63c0-7.81,3.68-12.32,10.89-12.32s10.89,4.45,10.89,12.32v2.86h-17.38v.77c0,4.73,2.25,8.47,7.04,8.47,3.58,0,5.39-1.04,6.54-3.08l3.41,2.42ZM601.08,21.34h12.92c-.22-4.62-2.25-7.37-6.43-7.37s-6.21,2.8-6.49,7.37Z"/>
      <path d="M643.1,0h4.4v37.94h-4.4v-2.42c-1.49,1.92-3.85,2.86-7.48,2.86-7.48,0-11-5.28-11-12.43v-3.63c0-7.86,4.18-12.32,11-12.32,3.63,0,5.99,1.16,7.48,3.19V0ZM643.1,26.34v-4.01c0-5.17-2.53-8.36-7.04-8.36s-7.04,3.13-7.04,8.36v3.63c0,4.67,2.36,8.47,7.04,8.47s7.04-3.52,7.04-8.08Z"/>
      <path d="M0,78.45h3.52v-6.05h4.4v6.05h6.32v3.96h-6.32v13.97c0,3.79.44,5.39,4.12,5.39h2.2v4.18h-2.36c-6.49,0-8.36-2.75-8.36-8.47v-15.07H0v-3.96Z"/>
      <path d="M20.84,68h4.4v13.14c1.38-2.09,3.3-3.13,7.37-3.13,5.88,0,10.01,3.08,10.01,10.78v17.16h-4.4v-17.1c0-5.55-3.02-6.76-6.27-6.76-4.12,0-6.71,2.91-6.71,6.71v17.16h-4.4v-37.94Z"/>
      <path d="M65.78,84.39c-1.16-1.59-2.58-2.31-4.62-2.31-3.35,0-5.88,2.53-5.88,6.65v17.21h-4.4v-27.5h4.4v2.69c1.16-1.92,3.02-3.13,6.38-3.13,3.74,0,6.1,1.27,7.86,3.74l-3.74,2.64Z"/>
      <path d="M95.14,93.96c0,7.15-3.52,12.43-11.44,12.43-7.31,0-11.44-4.84-11.44-12.43v-3.63c0-7.81,4.24-12.32,11.44-12.32s11.44,4.45,11.44,12.32v3.63ZM90.75,93.96v-3.63c0-5.22-2.53-8.36-7.04-8.36s-7.04,3.19-7.04,8.36v3.63c0,4.73,1.98,8.47,7.04,8.47,4.67,0,7.04-3.79,7.04-8.47Z"/>
      <path d="M123.8,105.94h-4.4v-2.69c-1.38,2.09-3.3,3.13-7.37,3.13-5.88,0-10.01-3.08-10.01-10.78v-17.16h4.4v17.1c0,5.55,3.03,6.76,6.27,6.76,4.12,0,6.71-2.91,6.71-6.71v-17.16h4.4v27.5Z"/>
      <path d="M149.15,78.45h4.4v26.95c0,7.64-4.4,11.33-11.77,11.33-4.79,0-7.7-1.26-9.62-4.62l3.41-2.42c1.16,2.04,2.97,3.08,6.54,3.08,4.79,0,7.04-2.64,7.04-7.37v-1.87c-1.48,1.92-3.85,2.86-7.48,2.86-7.48,0-11-5.28-11-12.43v-3.63c0-7.86,4.18-12.32,11-12.32,3.63,0,5.99,1.16,7.48,3.19v-2.75ZM149.15,93.96v-3.63c0-5.17-2.53-8.36-7.04-8.36s-7.04,3.13-7.04,8.36v3.63c0,4.67,2.37,8.47,7.04,8.47,5.06,0,7.04-3.74,7.04-8.47Z"/>
      <path d="M161.81,68h4.4v13.14c1.38-2.09,3.3-3.13,7.37-3.13,5.88,0,10.01,3.08,10.01,10.78v17.16h-4.4v-17.1c0-5.55-3.02-6.76-6.27-6.76-4.12,0-6.71,2.91-6.71,6.71v17.16h-4.4v-37.94Z"/>
      <path d="M213.34,93.96c0,7.15-3.52,12.43-11.44,12.43-7.31,0-11.44-4.84-11.44-12.43v-3.63c0-7.81,4.23-12.32,11.44-12.32s11.44,4.45,11.44,12.32v3.63ZM208.94,93.96v-3.63c0-5.22-2.53-8.36-7.04-8.36s-7.04,3.19-7.04,8.36v3.63c0,4.73,1.98,8.47,7.04,8.47,4.67,0,7.04-3.79,7.04-8.47Z"/>
      <path d="M241.99,105.94h-4.4v-2.69c-1.38,2.09-3.3,3.13-7.37,3.13-5.88,0-10.01-3.08-10.01-10.78v-17.16h4.4v17.1c0,5.55,3.03,6.76,6.27,6.76,4.12,0,6.71-2.91,6.71-6.71v-17.16h4.4v27.5Z"/>
      <path d="M247.83,78.45h3.52v-6.05h4.4v6.05h6.32v3.96h-6.32v13.97c0,3.79.44,5.39,4.12,5.39h2.2v4.18h-2.37c-6.49,0-8.36-2.75-8.36-8.47v-15.07h-3.52v-3.96Z"/>
      <path d="M281.1,78.45h3.52v-6.05h4.4v6.05h6.32v3.96h-6.32v13.97c0,3.79.44,5.39,4.12,5.39h2.2v4.18h-2.37c-6.49,0-8.36-2.75-8.36-8.47v-15.07h-3.52v-3.96Z"/>
      <path d="M301.94,68h4.4v13.14c1.38-2.09,3.3-3.13,7.37-3.13,5.88,0,10.01,3.08,10.01,10.78v17.16h-4.4v-17.1c0-5.55-3.02-6.76-6.27-6.76-4.12,0-6.71,2.91-6.71,6.71v17.16h-4.4v-37.94Z"/>
      <path d="M351.99,101.77c-1.92,3.35-4.84,4.62-9.62,4.62-7.37,0-11.77-4.78-11.77-12.43v-3.63c0-7.81,3.68-12.32,10.89-12.32s10.89,4.45,10.89,12.32v2.86h-17.38v.77c0,4.73,2.25,8.47,7.04,8.47,3.58,0,5.39-1.04,6.54-3.08l3.41,2.42ZM335,89.34h12.92c-.22-4.62-2.25-7.37-6.43-7.37s-6.21,2.8-6.49,7.37Z"/>
      <path d="M374.76,78.45h4.4v2.69c1.21-1.87,3.3-3.13,6.82-3.13s6.49,1.48,8.03,4.34c1.87-2.91,4.89-4.34,8.25-4.34,5.88,0,9.46,3.63,9.46,10.78v17.16h-4.4v-17.1c0-5-2.47-6.76-5.72-6.76-3.52,0-6.16,2.8-6.16,6.71v17.16h-4.4v-17.1c0-5-2.47-6.76-5.72-6.76-3.57,0-6.16,2.91-6.16,6.71v17.16h-4.4v-27.5Z"/>
      <path d="M428.88,90.05h6.54v-3.19c0-3.9-1.81-4.78-6.1-4.78-3.3,0-5.06.27-6.6,2.8l-3.3-2.31c1.92-3.19,4.73-4.56,9.95-4.56,6.98,0,10.45,2.25,10.45,8.85v19.08h-4.4v-2.69c-1.54,2.53-3.41,3.13-6.98,3.13-6.38,0-9.84-3.13-9.84-8.47,0-5.94,4.24-7.86,10.28-7.86ZM435.43,93.79h-6.54c-4.34,0-5.88,1.48-5.88,4.23,0,3.08,2.2,4.29,5.44,4.29,4.07,0,6.98-.77,6.98-6.93v-1.59Z"/>
      <path d="M461.28,82.41h-14.52v-3.96h20.29v3.41l-14.41,20.13h14.41v3.96h-20.29v-3.41l14.52-20.13Z"/>
      <path d="M493.73,101.77c-1.92,3.35-4.84,4.62-9.62,4.62-7.37,0-11.77-4.78-11.77-12.43v-3.63c0-7.81,3.68-12.32,10.89-12.32s10.89,4.45,10.89,12.32v2.86h-17.38v.77c0,4.73,2.25,8.47,7.04,8.47,3.58,0,5.39-1.04,6.54-3.08l3.41,2.42ZM476.73,89.34h12.92c-.22-4.62-2.25-7.37-6.43-7.37s-6.21,2.8-6.49,7.37Z"/>
      <path d="M506.65,109.19l-5.28,4.56v-14.19h5.28v9.62Z"/>
      <path d="M530.58,78.45v-1.98c0-5.72,1.87-8.47,8.36-8.47h1.26v4.18h-1.1c-3.68,0-4.12,1.59-4.12,5.39v.88h12.92v27.5h-4.4v-23.54h-8.52v23.54h-4.4v-23.54h-3.52v-3.96h3.52Z"/>
      <path d="M556.15,78.45h4.4v2.69c1.38-2.09,3.3-3.13,7.37-3.13,5.88,0,10.01,3.08,10.01,10.78v17.16h-4.4v-17.1c0-5.55-3.02-6.76-6.27-6.76-4.12,0-6.71,2.91-6.71,6.71v17.16h-4.4v-27.5Z"/>
      <path d="M603.29,68h4.4v37.94h-4.4v-2.42c-1.49,1.92-3.85,2.86-7.48,2.86-7.48,0-11-5.28-11-12.43v-3.63c0-7.86,4.18-12.32,11-12.32,3.63,0,5.99,1.16,7.48,3.19v-13.2ZM603.29,94.34v-4.01c0-5.17-2.53-8.36-7.04-8.36s-7.04,3.13-7.04,8.36v3.63c0,4.67,2.36,8.47,7.04,8.47s7.04-3.52,7.04-8.08Z"/>
      <path d="M639.7,90.05h6.54v-3.19c0-3.9-1.81-4.78-6.1-4.78-3.3,0-5.06.27-6.6,2.8l-3.3-2.31c1.92-3.19,4.73-4.56,9.95-4.56,6.98,0,10.45,2.25,10.45,8.85v19.08h-4.4v-2.69c-1.54,2.53-3.41,3.13-6.98,3.13-6.38,0-9.84-3.13-9.84-8.47,0-5.94,4.23-7.86,10.28-7.86ZM646.24,93.79h-6.54c-4.34,0-5.88,1.48-5.88,4.23,0,3.08,2.2,4.29,5.44,4.29,4.07,0,6.98-.77,6.98-6.93v-1.59Z"/>
      <path d="M658.89,78.45h4.4v2.69c1.38-2.09,3.3-3.13,7.37-3.13,5.88,0,10.01,3.08,10.01,10.78v17.16h-4.4v-17.1c0-5.55-3.02-6.76-6.27-6.76-4.12,0-6.71,2.91-6.71,6.71v17.16h-4.4v-27.5Z"/>
      <path d="M706.02,68h4.4v37.94h-4.4v-2.42c-1.48,1.92-3.85,2.86-7.48,2.86-7.48,0-11-5.28-11-12.43v-3.63c0-7.86,4.18-12.32,11-12.32,3.63,0,5.99,1.16,7.48,3.19v-13.2ZM706.02,94.34v-4.01c0-5.17-2.53-8.36-7.04-8.36s-7.04,3.13-7.04,8.36v3.63c0,4.67,2.37,8.47,7.04,8.47s7.04-3.52,7.04-8.08Z"/>
      <path d="M134.17,173.94h-4.4v-2.69c-1.38,2.09-3.3,3.13-7.37,3.13-5.88,0-10.01-3.08-10.01-10.78v-17.16h4.4v17.1c0,5.55,3.02,6.76,6.27,6.76,4.12,0,6.71-2.91,6.71-6.71v-17.16h4.4v27.5Z"/>
      <path d="M157.87,152.88c-1.48-1.92-3.02-2.8-6.82-2.8-3.24,0-5.33,1.26-5.33,3.68,0,3.13,2.75,4.07,6.38,4.34,5.17.38,9.9,1.87,9.9,8.19,0,4.78-3.25,8.08-10.34,8.08-5.61,0-8.52-1.7-10.61-4.56l3.25-2.31c1.48,1.98,3.46,2.8,7.42,2.8,3.68,0,5.88-1.43,5.88-3.9,0-2.97-1.76-4.01-7.09-4.4-4.62-.33-9.18-2.2-9.18-8.19,0-4.56,3.3-7.81,9.84-7.81,4.45,0,7.86,1.16,10.01,4.56l-3.3,2.31Z"/>
      <path d="M189.17,169.77c-1.92,3.35-4.84,4.62-9.62,4.62-7.37,0-11.77-4.78-11.77-12.43v-3.63c0-7.81,3.68-12.32,10.89-12.32s10.89,4.45,10.89,12.32v2.86h-17.38v.77c0,4.73,2.25,8.47,7.04,8.47,3.58,0,5.39-1.04,6.54-3.08l3.41,2.42ZM172.17,157.34h12.92c-.22-4.62-2.25-7.37-6.43-7.37s-6.21,2.8-6.49,7.37Z"/>
      <path d="M209.52,146.45h3.52v-6.05h4.4v6.05h6.32v3.96h-6.32v13.97c0,3.79.44,5.39,4.12,5.39h2.2v4.18h-2.37c-6.49,0-8.36-2.75-8.36-8.47v-15.07h-3.52v-3.96Z"/>
      <path d="M230.36,136h4.4v13.14c1.38-2.09,3.3-3.13,7.37-3.13,5.88,0,10.01,3.08,10.01,10.78v17.16h-4.4v-17.1c0-5.55-3.02-6.76-6.27-6.76-4.12,0-6.71,2.91-6.71,6.71v17.16h-4.4v-37.94Z"/>
      <path d="M280.41,169.77c-1.92,3.35-4.84,4.62-9.62,4.62-7.37,0-11.77-4.78-11.77-12.43v-3.63c0-7.81,3.68-12.32,10.89-12.32s10.89,4.45,10.89,12.32v2.86h-17.38v.77c0,4.73,2.25,8.47,7.04,8.47,3.57,0,5.39-1.04,6.54-3.08l3.41,2.42ZM263.42,157.34h12.92c-.22-4.62-2.25-7.37-6.43-7.37s-6.21,2.8-6.49,7.37Z"/>
      <path d="M288.33,146.45h4.4v2.69c1.21-1.87,3.3-3.13,6.82-3.13s6.49,1.48,8.03,4.34c1.87-2.91,4.89-4.34,8.25-4.34,5.88,0,9.46,3.63,9.46,10.78v17.16h-4.4v-17.1c0-5-2.47-6.76-5.72-6.76-3.52,0-6.16,2.8-6.16,6.71v17.16h-4.4v-17.1c0-5-2.47-6.76-5.72-6.76-3.57,0-6.16,2.91-6.16,6.71v17.16h-4.4v-27.5Z"/>
      <path d="M368.41,169.77c-1.92,3.35-4.84,4.62-9.62,4.62-7.37,0-11.77-4.78-11.77-12.43v-3.63c0-7.81,3.68-12.32,10.89-12.32s10.89,4.45,10.89,12.32v2.86h-17.38v.77c0,4.73,2.25,8.47,7.04,8.47,3.57,0,5.39-1.04,6.54-3.08l3.41,2.42ZM351.42,157.34h12.92c-.22-4.62-2.25-7.37-6.43-7.37s-6.21,2.8-6.49,7.37Z"/>
      <path d="M377.43,146.45v-1.98c0-5.72,1.87-8.47,8.36-8.47h1.26v4.18h-1.1c-3.68,0-4.12,1.59-4.12,5.39v.88h5.22v3.96h-5.22v23.54h-4.4v-23.54h-3.52v-3.96h3.52Z"/>
      <path d="M394.21,146.45v-1.98c0-5.72,1.87-8.47,8.36-8.47h1.26v4.18h-1.1c-3.68,0-4.12,1.59-4.12,5.39v.88h5.22v3.96h-5.22v23.54h-4.4v-23.54h-3.52v-3.96h3.52Z"/>
      <path d="M429.9,169.77c-1.92,3.35-4.84,4.62-9.62,4.62-7.37,0-11.77-4.78-11.77-12.43v-3.63c0-7.81,3.68-12.32,10.89-12.32s10.89,4.45,10.89,12.32v2.86h-17.38v.77c0,4.73,2.25,8.47,7.04,8.47,3.58,0,5.39-1.04,6.54-3.08l3.41,2.42ZM412.91,157.34h12.92c-.22-4.62-2.25-7.37-6.43-7.37s-6.21,2.8-6.49,7.37Z"/>
      <path d="M457.84,169.77c-1.71,3.19-5.06,4.62-9.51,4.62-7.53,0-11.88-4.84-11.88-12.43v-3.63c0-7.81,4.45-12.32,11.88-12.32,4.12,0,7.53,1.48,9.51,4.29l-3.46,2.42c-1.21-1.76-3.52-2.75-6.05-2.75-4.73,0-7.48,3.19-7.48,8.36v3.63c0,4.73,2.2,8.47,7.48,8.47,2.58,0,4.95-.88,6.1-3.08l3.41,2.42Z"/>
      <path d="M460.92,146.45h3.52v-6.05h4.4v6.05h6.32v3.96h-6.32v13.97c0,3.79.44,5.39,4.12,5.39h2.2v4.18h-2.36c-6.49,0-8.36-2.75-8.36-8.47v-15.07h-3.52v-3.96Z"/>
      <path d="M482.31,136h4.95v4.95h-4.95v-4.95ZM482.59,146.45h4.4v27.5h-4.4v-27.5Z"/>
      <path d="M519.66,146.45l-11,27.5h-4.4l-11.22-27.5h4.95l8.36,21.89,8.36-21.89h4.95Z"/>
      <path d="M544.9,169.77c-1.92,3.35-4.84,4.62-9.62,4.62-7.37,0-11.77-4.78-11.77-12.43v-3.63c0-7.81,3.68-12.32,10.89-12.32s10.89,4.45,10.89,12.32v2.86h-17.38v.77c0,4.73,2.25,8.47,7.04,8.47,3.58,0,5.39-1.04,6.54-3.08l3.41,2.42ZM527.91,157.34h12.92c-.22-4.62-2.25-7.37-6.43-7.37s-6.21,2.8-6.49,7.37Z"/>
      <path d="M552.82,136h4.4v28.38c0,2.97.17,5.5,4.67,5.5v4.07c-6.93,0-9.07-2.75-9.07-8.47v-29.48Z"/>
      <path d="M576.47,174.22l-10.78-27.77h4.73l8.19,21.34,7.2-21.34h4.67l-9.68,28.38c-2.25,6.6-3.74,9.57-11.44,9.57v-4.29c3.63,0,5.33-.6,6.98-5.5l.11-.39Z"/>
      <path d="M600.73,173.94h-6.38v-6.38h6.38v6.38Z"/>
    </g>
  </g>
</svg>