<?xml version="1.0" encoding="UTF-8"?>
<svg id="Layer_2" data-name="Layer 2" xmlns="http://www.w3.org/2000/svg" viewBox="0 0 479.32 96.5">
  <g id="Layer_1-2" data-name="Layer 1">
    <g>
      <path d="M30.71,12.34c0,2.15-.4,3.97-1.2,5.44-.8,1.47-1.87,2.66-3.23,3.57-1.36.9-2.92,1.56-4.69,1.98-1.77.41-3.61.62-5.52.62h-4.42v13.9H2.75V.99h13.54c2.01,0,3.9.2,5.65.6,1.75.4,3.28,1.05,4.58,1.93,1.3.88,2.32,2.04,3.07,3.48.75,1.44,1.12,3.22,1.12,5.34ZM21.81,12.4c0-.87-.18-1.58-.52-2.14-.35-.55-.82-.98-1.41-1.3s-1.26-.52-2-.62c-.75-.11-1.52-.16-2.32-.16h-3.91v8.69h3.75c.83,0,1.63-.07,2.39-.21.77-.14,1.45-.38,2.06-.73s1.09-.81,1.43-1.38c.35-.58.52-1.3.52-2.16Z"/>
      <path d="M74.5,19.26c0,2.91-.51,5.58-1.51,8-1.01,2.41-2.4,4.48-4.19,6.2-1.79,1.72-3.91,3.04-6.38,3.98-2.46.94-5.14,1.41-8.02,1.41s-5.54-.47-7.99-1.41c-2.45-.94-4.56-2.26-6.35-3.98-1.79-1.72-3.19-3.78-4.19-6.2-1.01-2.41-1.51-5.08-1.51-8s.5-5.61,1.51-7.99c1.01-2.38,2.4-4.4,4.19-6.07,1.79-1.66,3.91-2.95,6.35-3.85,2.45-.9,5.11-1.36,7.99-1.36s5.56.46,8.02,1.36c2.47.9,4.59,2.19,6.38,3.85,1.79,1.66,3.19,3.69,4.19,6.07s1.51,5.04,1.51,7.99ZM64.97,19.26c0-1.6-.26-3.09-.78-4.48-.52-1.39-1.24-2.57-2.16-3.57-.92-.99-2.03-1.77-3.34-2.34-1.3-.57-2.73-.86-4.29-.86s-2.98.29-4.27.86c-1.28.58-2.4,1.35-3.34,2.34-.94.99-1.66,2.18-2.16,3.57s-.75,2.88-.75,4.48.26,3.21.78,4.61c.52,1.41,1.24,2.62,2.16,3.62.92,1.01,2.02,1.8,3.31,2.37s2.7.86,4.27.86,2.99-.29,4.27-.86,2.39-1.37,3.33-2.37c.94-1.01,1.66-2.21,2.19-3.62.52-1.4.78-2.94.78-4.61Z"/>
      <path d="M100.11,37.85l-8-14.62h-3.04v14.62h-8.69V.99h14.06c1.77,0,3.49.18,5.18.55,1.68.36,3.19.98,4.53,1.85,1.34.86,2.4,2.01,3.2,3.43.8,1.43,1.2,3.2,1.2,5.31,0,2.5-.68,4.6-2.03,6.3-1.35,1.7-3.23,2.91-5.62,3.64l9.63,15.77h-10.41ZM99.74,12.29c0-.86-.18-1.57-.54-2.11-.37-.54-.84-.96-1.41-1.25-.58-.29-1.22-.5-1.94-.6-.72-.11-1.41-.16-2.07-.16h-4.75v8.59h4.23c.73,0,1.49-.06,2.26-.18.77-.12,1.46-.33,2.09-.65.62-.31,1.14-.77,1.54-1.36.4-.58.6-1.35.6-2.29Z"/>
      <path d="M130.04,8.59v29.26h-8.91V8.59h-10.41V.99h29.73v7.6h-10.41Z"/>
      <path d="M166.38,37.85l-2.86-7.23h-14.26l-2.71,7.23h-9.68L152.32.99h8.64l15.3,36.86h-9.89ZM156.49,10.83l-4.69,12.65h9.27l-4.58-12.65Z"/>
      <path d="M179.34,37.85V.99h8.96v29.1h14.26v7.76h-23.22Z"/>
      <path d="M2.79,78.08c.22,1.17.75,2.15,1.57,2.94.82.79,1.9,1.19,3.23,1.19,1.03,0,1.87-.18,2.55-.56.67-.37,1.2-.88,1.6-1.52s.68-1.37.84-2.19c.15-.82.23-1.67.23-2.56v-20.79h3v21.03c0,.98-.1,2-.31,3.09s-.6,2.09-1.19,3c-.58.92-1.39,1.68-2.42,2.28-1.03.6-2.36.9-3.97.9-2.14,0-3.91-.57-5.3-1.71-1.39-1.13-2.27-2.58-2.63-4.34l2.79-.75Z"/>
      <path d="M37.44,84.13c-.05-.53-.1-1.11-.13-1.75-.03-.64-.04-1.17-.04-1.59h-.08c-.56,1.14-1.46,2.07-2.71,2.78-1.26.71-2.57,1.06-3.97,1.06-2.48,0-4.33-.73-5.57-2.21-1.24-1.47-1.86-3.42-1.86-5.84v-11.98h2.84v10.81c0,1.03.08,1.96.25,2.79s.46,1.56.86,2.15.94,1.06,1.63,1.4c.68.33,1.54.5,2.56.5.75,0,1.49-.15,2.19-.46.71-.31,1.34-.77,1.9-1.4.55-.62,1-1.42,1.33-2.38.33-.96.5-2.1.5-3.4v-10.02h2.84v15.24c0,.53.01,1.21.04,2.04s.07,1.58.12,2.26h-2.71Z"/>
      <path d="M52.85,65.16c1.15-.71,2.45-1.06,3.87-1.06.53,0,1.07.05,1.64.16.57.12,1.13.33,1.67.65.54.33,1.05.75,1.5,1.28.46.53.86,1.21,1.2,2.04.67-1.34,1.58-2.36,2.73-3.07,1.15-.71,2.53-1.06,4.11-1.06,2.48,0,4.33.73,5.57,2.21,1.24,1.47,1.86,3.42,1.86,5.84v11.98h-2.84v-10.81c0-2.06-.38-3.71-1.15-4.97-.77-1.25-2.07-1.87-3.9-1.87-1.03,0-1.9.21-2.61.62-.71.41-1.28.96-1.71,1.65-.43.68-.75,1.45-.94,2.32-.19.86-.29,1.75-.29,2.67v10.39h-2.83v-11.4c0-.94-.07-1.81-.21-2.58-.14-.78-.38-1.44-.73-1.98-.35-.54-.83-.96-1.44-1.26s-1.39-.43-2.34-.43c-.67,0-1.34.15-2.02.46-.68.31-1.29.77-1.83,1.4-.54.62-.98,1.42-1.32,2.38-.33.96-.5,2.1-.5,3.4v10.02h-2.84v-15.24c0-.53-.01-1.21-.04-2.04s-.07-1.58-.13-2.26h2.72c.05.53.1,1.11.12,1.75.03.65.04,1.17.04,1.59h.09c.55-1.14,1.41-2.07,2.56-2.78Z"/>
      <path d="M87.19,94.14h-2.84v-29.55h2.84v3.38h.12c.81-1.28,1.89-2.25,3.23-2.9,1.35-.65,2.72-.98,4.12-.98,1.53,0,2.91.26,4.15.79,1.24.53,2.3,1.26,3.17,2.17.88.92,1.56,2,2.04,3.25.48,1.25.73,2.6.73,4.05s-.24,2.8-.73,4.05c-.49,1.25-1.17,2.34-2.04,3.25-.88.92-1.94,1.64-3.17,2.17s-2.62.79-4.15.79c-1.39,0-2.76-.33-4.12-.98-1.34-.65-2.43-1.59-3.23-2.82h-.12v13.31ZM101.75,74.36c0-1.09-.17-2.11-.5-3.07-.33-.96-.82-1.79-1.44-2.5-.62-.71-1.4-1.28-2.32-1.69s-1.96-.62-3.12-.62c-1.09,0-2.09.2-3.01.6-.92.4-1.71.96-2.38,1.67-.67.71-1.19,1.54-1.56,2.5-.38.96-.56,2-.56,3.11s.18,2.15.56,3.11c.37.96.9,1.79,1.56,2.48.67.7,1.46,1.25,2.38,1.65.92.4,1.92.6,3.01.6,1.17,0,2.21-.2,3.12-.6s1.69-.96,2.32-1.67c.62-.71,1.11-1.54,1.44-2.5.33-.96.5-1.98.5-3.07Z"/>
      <path d="M130.08,66.98h-5.51v11.39c0,.72.07,1.32.21,1.79.14.48.34.84.6,1.11s.58.44.94.54c.37.1.75.14,1.17.14s.8-.05,1.24-.16c.43-.12.84-.26,1.23-.46l.12,2.47c-.5.19-1.02.34-1.56.43s-1.13.15-1.77.15c-.53,0-1.09-.07-1.67-.21-.58-.14-1.13-.4-1.63-.79-.5-.39-.91-.92-1.23-1.58-.32-.67-.48-1.55-.48-2.63v-12.19h-4.05v-2.38h4.05v-5.51h2.83v5.51h5.51v2.38Z"/>
      <path d="M153.92,74.36c0,1.47-.26,2.84-.77,4.09s-1.23,2.34-2.15,3.25c-.92.92-2.02,1.64-3.3,2.15-1.28.52-2.68.77-4.21.77s-2.89-.25-4.17-.77c-1.28-.52-2.38-1.23-3.3-2.15-.92-.92-1.64-2-2.15-3.25-.52-1.25-.77-2.62-.77-4.09s.26-2.84.77-4.09c.51-1.25,1.23-2.34,2.15-3.25s2.02-1.64,3.3-2.15c1.28-.51,2.67-.77,4.17-.77s2.93.26,4.21.77c1.28.52,2.38,1.24,3.3,2.15s1.63,2,2.15,3.25.77,2.62.77,4.09ZM150.92,74.36c0-1.09-.18-2.11-.52-3.07-.35-.96-.84-1.79-1.48-2.5-.65-.71-1.42-1.28-2.34-1.69-.92-.41-1.95-.62-3.09-.62s-2.17.21-3.07.62-1.67.98-2.32,1.69c-.64.71-1.13,1.54-1.48,2.5-.35.96-.52,1.98-.52,3.07s.18,2.11.52,3.07c.35.96.84,1.79,1.48,2.5.65.71,1.41,1.27,2.32,1.67s1.93.6,3.07.6,2.17-.2,3.09-.6c.92-.4,1.69-.96,2.34-1.67.64-.71,1.13-1.54,1.48-2.5.35-.96.52-1.98.52-3.07Z"/>
      <path d="M182.75,71.49c0-1.68-.44-2.94-1.33-3.77s-2.19-1.24-3.89-1.24c-1.17,0-2.25.21-3.25.62-1,.41-1.85.97-2.55,1.67l-1.58-1.88c.81-.8,1.87-1.47,3.19-2,1.32-.52,2.82-.79,4.48-.79,1.06,0,2.05.14,2.97.43s1.73.73,2.42,1.32c.69.58,1.24,1.32,1.63,2.21.39.89.58,1.94.58,3.13v8.56c0,.75.03,1.53.08,2.34s.14,1.49.25,2.04h-2.55c-.08-.48-.16-.99-.21-1.55-.05-.55-.08-1.09-.08-1.62h-.08c-.89,1.3-1.9,2.25-3.03,2.82-1.13.56-2.48.85-4.07.85-.75,0-1.52-.1-2.32-.31-.79-.21-1.51-.55-2.17-1.03-.66-.48-1.2-1.09-1.63-1.84-.43-.75-.65-1.68-.65-2.76,0-1.51.38-2.7,1.15-3.58.76-.88,1.79-1.54,3.06-1.97,1.28-.43,2.75-.71,4.41-.84,1.65-.12,3.37-.19,5.15-.19v-.62ZM181.92,74.36c-1.17,0-2.35.05-3.53.15-1.18.1-2.25.29-3.21.58-.96.29-1.75.71-2.36,1.27-.61.56-.92,1.29-.92,2.21,0,.69.13,1.28.39,1.75.26.47.62.86,1.07,1.15s.94.5,1.48.62c.54.12,1.09.18,1.65.18,1,0,1.89-.17,2.67-.52.78-.35,1.43-.82,1.96-1.42s.93-1.29,1.21-2.07c.28-.78.41-1.6.41-2.47v-1.46h-.83Z"/>
      <path d="M195.28,64.59c.05.53.1,1.11.12,1.75.03.65.04,1.17.04,1.59h.09c.55-1.14,1.46-2.07,2.71-2.78,1.25-.71,2.57-1.06,3.97-1.06,2.47,0,4.33.73,5.57,2.21,1.24,1.47,1.85,3.42,1.85,5.84v11.98h-2.84v-10.81c0-1.03-.08-1.96-.24-2.79-.17-.84-.46-1.55-.86-2.15-.41-.6-.95-1.06-1.63-1.39-.68-.34-1.54-.5-2.57-.5-.75,0-1.48.15-2.19.46-.71.31-1.34.77-1.9,1.4s-1,1.42-1.34,2.38c-.33.96-.5,2.1-.5,3.4v10.02h-2.84v-15.24c0-.53-.01-1.21-.04-2.04-.03-.84-.07-1.58-.13-2.26h2.72Z"/>
      <path d="M223.7,81.08h.08l6.05-16.49h3.09l-9.73,24.58c-.58,1.5-1.32,2.7-2.23,3.61-.9.9-2.21,1.35-3.91,1.35-.86,0-1.71-.08-2.55-.25l.29-2.58c.67.22,1.37.33,2.09.33.97,0,1.74-.3,2.3-.9.55-.6,1.04-1.46,1.46-2.57l1.58-4.09-8.35-19.5h3.17l6.64,16.49Z"/>
      <path d="M260.09,71.49c0-1.68-.44-2.94-1.33-3.77s-2.19-1.24-3.89-1.24c-1.17,0-2.25.21-3.25.62-1,.41-1.85.97-2.55,1.67l-1.58-1.88c.81-.8,1.87-1.47,3.19-2,1.32-.52,2.82-.79,4.48-.79,1.06,0,2.05.14,2.97.43s1.73.73,2.42,1.32c.69.58,1.24,1.32,1.63,2.21.39.89.58,1.94.58,3.13v8.56c0,.75.03,1.53.08,2.34s.14,1.49.25,2.04h-2.55c-.08-.48-.16-.99-.21-1.55-.05-.55-.08-1.09-.08-1.62h-.08c-.89,1.3-1.9,2.25-3.03,2.82-1.13.56-2.48.85-4.07.85-.75,0-1.52-.1-2.32-.31-.79-.21-1.51-.55-2.17-1.03-.66-.48-1.2-1.09-1.63-1.84-.43-.75-.65-1.68-.65-2.76,0-1.51.38-2.7,1.15-3.58.76-.88,1.79-1.54,3.06-1.97,1.28-.43,2.75-.71,4.41-.84,1.65-.12,3.37-.19,5.15-.19v-.62ZM259.26,74.36c-1.17,0-2.35.05-3.53.15-1.18.1-2.25.29-3.21.58-.96.29-1.75.71-2.36,1.27s-.92,1.29-.92,2.21c0,.69.13,1.28.39,1.75.26.47.62.86,1.07,1.15s.94.5,1.48.62c.54.12,1.09.18,1.65.18,1,0,1.89-.17,2.67-.52.78-.35,1.43-.82,1.96-1.42.53-.6.93-1.29,1.21-2.07.28-.78.41-1.6.41-2.47v-1.46h-.83Z"/>
      <path d="M278.08,84.13h-3.13l-7.97-19.54h3.17l6.34,16.53h.08l6.39-16.53h3.05l-7.93,19.54Z"/>
      <path d="M302.74,71.49c0-1.68-.44-2.94-1.33-3.77s-2.19-1.24-3.89-1.24c-1.17,0-2.25.21-3.25.62-1,.41-1.85.97-2.55,1.67l-1.58-1.88c.81-.8,1.87-1.47,3.19-2,1.32-.52,2.82-.79,4.48-.79,1.06,0,2.05.14,2.97.43s1.73.73,2.42,1.32c.69.58,1.24,1.32,1.63,2.21.39.89.58,1.94.58,3.13v8.56c0,.75.03,1.53.08,2.34s.14,1.49.25,2.04h-2.55c-.08-.48-.16-.99-.21-1.55-.05-.55-.08-1.09-.08-1.62h-.08c-.89,1.3-1.9,2.25-3.03,2.82-1.13.56-2.48.85-4.07.85-.75,0-1.52-.1-2.32-.31-.79-.21-1.51-.55-2.17-1.03-.66-.48-1.2-1.09-1.63-1.84-.43-.75-.65-1.68-.65-2.76,0-1.51.38-2.7,1.15-3.58.76-.88,1.79-1.54,3.06-1.97,1.28-.43,2.75-.71,4.41-.84,1.65-.12,3.37-.19,5.15-.19v-.62ZM301.91,74.36c-1.17,0-2.35.05-3.53.15-1.18.1-2.25.29-3.21.58-.96.29-1.75.71-2.36,1.27s-.92,1.29-.92,2.21c0,.69.13,1.28.39,1.75.26.47.62.86,1.07,1.15s.94.5,1.48.62c.54.12,1.09.18,1.65.18,1,0,1.89-.17,2.67-.52.78-.35,1.43-.82,1.96-1.42s.93-1.29,1.21-2.07c.28-.78.41-1.6.41-2.47v-1.46h-.83Z"/>
      <path d="M316.18,57.08c0,.58-.21,1.07-.62,1.44-.42.38-.88.56-1.38.56s-.96-.18-1.38-.56c-.41-.37-.62-.86-.62-1.44s.21-1.06.62-1.44c.42-.37.88-.56,1.38-.56s.96.18,1.38.56c.41.38.62.86.62,1.44ZM315.6,84.13h-2.84v-19.54h2.84v19.54Z"/>
      <path d="M326.07,84.13h-2.84v-31.55h2.84v31.55Z"/>
      <path d="M345.98,71.49c0-1.68-.44-2.94-1.33-3.77s-2.19-1.24-3.89-1.24c-1.17,0-2.25.21-3.25.62-1,.41-1.85.97-2.55,1.67l-1.58-1.88c.81-.8,1.87-1.47,3.19-2,1.32-.52,2.82-.79,4.48-.79,1.06,0,2.05.14,2.97.43s1.73.73,2.42,1.32,1.24,1.32,1.63,2.21c.39.89.58,1.94.58,3.13v8.56c0,.75.03,1.53.08,2.34s.14,1.49.25,2.04h-2.55c-.08-.48-.16-.99-.21-1.55-.05-.55-.08-1.09-.08-1.62h-.08c-.89,1.3-1.9,2.25-3.03,2.82-1.13.56-2.48.85-4.07.85-.75,0-1.52-.1-2.32-.31-.79-.21-1.51-.55-2.17-1.03-.66-.48-1.2-1.09-1.63-1.84-.43-.75-.65-1.68-.65-2.76,0-1.51.38-2.7,1.15-3.58.76-.88,1.79-1.54,3.06-1.97,1.28-.43,2.75-.71,4.41-.84,1.65-.12,3.37-.19,5.15-.19v-.62ZM345.15,74.36c-1.17,0-2.35.05-3.53.15-1.18.1-2.25.29-3.21.58-.96.29-1.75.71-2.36,1.27-.61.56-.92,1.29-.92,2.21,0,.69.13,1.28.39,1.75.26.47.62.86,1.07,1.15s.94.5,1.48.62c.54.12,1.09.18,1.65.18,1,0,1.89-.17,2.67-.52.78-.35,1.43-.82,1.96-1.42s.93-1.29,1.21-2.07c.28-.78.41-1.6.41-2.47v-1.46h-.83Z"/>
      <path d="M358.88,80.83v3.3h-2.84v-31.55h2.84v15.4h.08c.84-1.28,1.92-2.25,3.26-2.9,1.33-.65,2.71-.98,4.13-.98,1.53,0,2.91.26,4.15.79,1.24.53,2.3,1.26,3.17,2.17s1.56,2,2.04,3.25.73,2.6.73,4.05-.24,2.8-.73,4.05-1.17,2.34-2.04,3.25c-.88.92-1.94,1.64-3.17,2.17s-2.62.79-4.15.79c-1.42,0-2.8-.32-4.13-.96-1.34-.64-2.43-1.58-3.26-2.84h-.08ZM373.44,74.36c0-1.09-.16-2.11-.5-3.07-.34-.96-.82-1.79-1.44-2.5-.63-.71-1.4-1.28-2.32-1.69-.92-.41-1.96-.62-3.13-.62-1.09,0-2.09.2-3.01.6-.92.4-1.7.96-2.38,1.67-.67.71-1.19,1.54-1.56,2.5-.37.96-.56,2-.56,3.11s.19,2.15.56,3.11c.37.96.9,1.79,1.56,2.48.67.7,1.46,1.25,2.38,1.65.92.4,1.92.6,3.01.6,1.17,0,2.21-.2,3.13-.6.92-.4,1.68-.96,2.32-1.67.62-.71,1.1-1.54,1.44-2.5.33-.96.5-1.98.5-3.07Z"/>
      <path d="M385.46,84.13h-2.84v-31.55h2.84v31.55Z"/>
      <path d="M410.84,73.78v.62c0,.22-.01.46-.04.71h-16.19c.03.97.22,1.89.58,2.75s.86,1.62,1.5,2.26c.65.64,1.39,1.15,2.26,1.52s1.79.56,2.8.56c1.47,0,2.74-.34,3.82-1.02,1.07-.69,1.89-1.47,2.45-2.36l2.13,1.67c-1.17,1.47-2.46,2.53-3.86,3.17-1.41.64-2.92.96-4.53.96-1.45,0-2.79-.25-4.03-.77s-2.3-1.23-3.19-2.15c-.89-.92-1.6-2-2.11-3.25-.52-1.25-.77-2.62-.77-4.09s.25-2.84.75-4.09c.5-1.25,1.2-2.34,2.09-3.25s1.93-1.64,3.13-2.15c1.2-.51,2.49-.77,3.88-.77,1.53,0,2.88.26,4.05.77,1.17.52,2.14,1.21,2.92,2.09.78.88,1.37,1.9,1.77,3.07.41,1.17.6,2.42.6,3.76ZM407.96,72.86c-.08-1.83-.67-3.36-1.77-4.57-1.1-1.21-2.66-1.81-4.69-1.81-.94,0-1.82.17-2.63.52-.81.35-1.51.82-2.13,1.42-.62.6-1.1,1.28-1.46,2.04-.37.76-.57,1.56-.63,2.4h13.31Z"/>
      <path d="M436.17,66.98h-5.51v11.39c0,.72.07,1.32.21,1.79.14.48.34.84.6,1.11s.58.44.94.54c.37.1.75.14,1.17.14s.8-.05,1.24-.16c.43-.12.84-.26,1.23-.46l.12,2.47c-.5.19-1.02.34-1.56.43s-1.13.15-1.77.15c-.53,0-1.09-.07-1.67-.21-.58-.14-1.13-.4-1.63-.79-.5-.39-.91-.92-1.23-1.58-.32-.67-.48-1.55-.48-2.63v-12.19h-4.05v-2.38h4.05v-5.51h2.83v5.51h5.51v2.38Z"/>
      <path d="M444.06,57.08c0,.58-.21,1.07-.62,1.44-.42.38-.88.56-1.38.56s-.96-.18-1.38-.56c-.41-.37-.62-.86-.62-1.44s.21-1.06.62-1.44c.42-.37.88-.56,1.38-.56s.96.18,1.38.56c.41.38.62.86.62,1.44ZM443.47,84.13h-2.84v-19.54h2.84v19.54Z"/>
      <path d="M453.95,84.13h-2.84v-31.55h2.84v31.55Z"/>
      <path d="M479.32,73.78v.62c0,.22-.01.46-.04.71h-16.19c.03.97.22,1.89.58,2.75.36.86.86,1.62,1.5,2.26.65.64,1.39,1.15,2.26,1.52s1.79.56,2.8.56c1.47,0,2.74-.34,3.82-1.02,1.07-.69,1.89-1.47,2.45-2.36l2.13,1.67c-1.17,1.47-2.46,2.53-3.86,3.17-1.41.64-2.92.96-4.53.96-1.45,0-2.79-.25-4.03-.77s-2.3-1.23-3.19-2.15c-.89-.92-1.6-2-2.11-3.25-.52-1.25-.77-2.62-.77-4.09s.25-2.84.75-4.09c.5-1.25,1.2-2.34,2.09-3.25.89-.92,1.93-1.64,3.13-2.15,1.2-.51,2.49-.77,3.88-.77,1.53,0,2.88.26,4.05.77,1.17.52,2.14,1.21,2.92,2.09.78.88,1.37,1.9,1.77,3.07.41,1.17.6,2.42.6,3.76ZM476.44,72.86c-.08-1.83-.67-3.36-1.77-4.57-1.1-1.21-2.66-1.81-4.69-1.81-.94,0-1.82.17-2.63.52-.81.35-1.51.82-2.13,1.42-.62.6-1.1,1.28-1.46,2.04-.37.76-.57,1.56-.63,2.4h13.31Z"/>
    </g>
  </g>
</svg>