<?xml version="1.0" encoding="UTF-8"?>
<svg id="Layer_2" data-name="Layer 2" xmlns="http://www.w3.org/2000/svg" xmlns:xlink="http://www.w3.org/1999/xlink" viewBox="0 0 231.49 231.49">
  <defs>
    <style>
      .cls-1, .cls-2 {
        fill: none;
      }

      .cls-3 {
        fill: #f7b52c;
      }

      .cls-2 {
        stroke: #d5b78f;
        stroke-miterlimit: 10;
        stroke-width: 6.61px;
      }

      .cls-4 {
        clip-path: url(#clippath-6);
      }

      .cls-5 {
        fill: #fff;
      }

      .cls-6 {
        fill: #f7e9d5;
      }

      .cls-7 {
        fill: #081b1e;
      }

      .cls-8 {
        clip-path: url(#clippath);
      }
    </style>
    <clipPath id="clippath">
      <rect class="cls-1" x="3.5" y="3.5" width="224.49" height="224.49" rx="18.06" ry="18.06"/>
    </clipPath>
    <clipPath id="clippath-6">
      <rect class="cls-2" x="3.5" y="3.5" width="224.49" height="224.49" rx="18.06" ry="18.06"/>
    </clipPath>
  </defs>
  <g id="Layer_1-2" data-name="Layer 1">
    <g>
      <g class="cls-8">
        <rect class="cls-6" x="3.5" y="3.5" width="224.49" height="224.49"/>
      </g>
      <g>
        <g>
          <path class="cls-3" d="M100.1,194.19c0-9.84,6.84-51.92,15.29-51.92s15.29,42.08,15.29,51.92-6.84,17.81-15.29,17.81-15.29-7.97-15.29-17.81"/>
          <path class="cls-7" d="M115.38,213.15c-9.07,0-16.44-8.51-16.44-18.97,0-7.12,6.23-53.08,16.44-53.08s16.44,45.96,16.44,53.08c0,10.46-7.38,18.97-16.44,18.97ZM115.38,143.42c-6.62,0-14.13,38.4-14.13,50.76,0,9.18,6.34,16.65,14.13,16.65s14.13-7.47,14.13-16.65c0-12.36-7.51-50.76-14.13-50.76Z"/>
        </g>
        <g>
          <path class="cls-3" d="M56.98,170.01c5.78-7.96,36.05-37.98,42.89-33.02,6.83,4.96-12.37,43.03-18.15,50.99-5.78,7.96-16.01,10.39-22.84,5.42-6.83-4.96-7.68-15.44-1.9-23.39"/>
          <path class="cls-7" d="M66.98,197.13c-3.13,0-6.18-.9-8.78-2.79-3.58-2.6-5.77-6.65-6.15-11.42-.38-4.69,1.04-9.52,4-13.6,4.18-5.76,36.23-39.28,44.5-33.28,8.26,6-13.71,46.85-17.89,52.61-3.97,5.47-9.96,8.46-15.68,8.46ZM97.8,137.54c-7.73,0-33.11,23.82-39.89,33.15h0c-2.63,3.63-3.9,7.91-3.56,12.05.33,4.08,2.18,7.53,5.2,9.73,6.3,4.58,15.83,2.26,21.22-5.17,7.26-10,23.76-45.49,18.41-49.38-.36-.26-.83-.38-1.38-.38Z"/>
        </g>
        <g>
          <path class="cls-3" d="M36.31,125.1c9.36-3.04,51.5-9.54,54.11-1.51,2.61,8.03-35.3,27.55-44.66,30.58-9.36,3.04-19.06-1.01-21.66-9.04-2.61-8.03,2.86-17,12.22-20.04"/>
          <path class="cls-7" d="M39.48,156.34c-7.57,0-14.31-4.14-16.49-10.84-1.37-4.21-.75-8.77,1.73-12.85,2.45-4.02,6.44-7.09,11.23-8.65,4.95-1.61,18.12-3.98,29.84-4.96,23.71-1.98,25.22,2.67,25.72,4.19.49,1.53,2,6.16-18.34,18.51-10.06,6.11-22.11,11.93-27.06,13.53-2.22.72-4.46,1.06-6.63,1.06ZM36.67,126.2c-4.26,1.39-7.8,4.1-9.97,7.65-2.13,3.49-2.66,7.38-1.51,10.93,2.41,7.41,11.47,11.13,20.21,8.29,4.82-1.57,16.65-7.29,26.57-13.31,13.85-8.4,18.04-13.68,17.34-15.82-.69-2.14-7.19-3.94-23.33-2.6-11.57.96-24.5,3.29-29.32,4.85h0Z"/>
        </g>
        <g>
          <path class="cls-3" d="M45.98,76.63c9.36,3.04,47.27,22.55,44.66,30.58-2.61,8.03-44.75,1.53-54.11-1.51-9.36-3.04-14.83-12.01-12.22-20.04,2.61-8.03,12.31-12.07,21.66-9.04"/>
          <path class="cls-7" d="M76.05,112.19c-14.89,0-35.5-3.96-39.88-5.38-9.95-3.23-15.76-12.88-12.96-21.5,1.37-4.21,4.55-7.54,8.96-9.38,4.35-1.81,9.38-1.95,14.16-.4,4.94,1.61,17,7.43,27.06,13.53,20.34,12.34,18.84,16.98,18.34,18.51-1.12,3.44-7.54,4.62-15.69,4.62ZM39.67,76.77c-2.3,0-4.54.43-6.6,1.29-3.77,1.57-6.49,4.4-7.65,7.96-2.41,7.41,2.74,15.75,11.47,18.58,11.75,3.82,50.6,8.54,52.65,2.25.69-2.14-3.5-7.42-17.34-15.82-9.92-6.02-21.75-11.74-26.57-13.31h0c-1.97-.64-3.98-.96-5.96-.96Z"/>
        </g>
        <g>
          <path class="cls-3" d="M82.3,43.09c5.78,7.96,24.98,46.03,18.15,50.99-6.83,4.96-37.1-25.06-42.89-33.02-5.78-7.96-4.93-18.43,1.9-23.4,6.83-4.96,17.06-2.53,22.84,5.43"/>
          <path class="cls-7" d="M98.57,95.85c-2.88,0-8.63-2.15-20.71-12.55-8.92-7.68-18.18-17.35-21.23-21.55-2.96-4.07-4.38-8.9-4-13.59.39-4.76,2.57-8.82,6.15-11.42,3.58-2.6,8.11-3.43,12.76-2.32,4.58,1.09,8.74,3.93,11.69,8h0c4.18,5.76,26.15,46.6,17.9,52.61-.43.31-1.14.83-2.56.83ZM67.56,36.24c-2.72,0-5.28.8-7.42,2.36-3.03,2.2-4.88,5.66-5.21,9.73-.34,4.14.93,8.42,3.56,12.05,2.98,4.1,12.08,13.58,20.87,21.16,12.27,10.57,18.58,12.92,20.4,11.6,5.35-3.89-11.15-39.37-18.41-49.37h0c-2.63-3.63-6.31-6.15-10.36-7.11-1.16-.28-2.32-.41-3.44-.41Z"/>
        </g>
        <g>
          <path class="cls-3" d="M131.39,37.31c0,9.84-6.84,51.92-15.29,51.92s-15.29-42.08-15.29-51.92,6.84-17.81,15.29-17.81,15.29,7.97,15.29,17.81"/>
          <path class="cls-7" d="M116.11,90.39c-10.22,0-16.44-45.96-16.44-53.08,0-10.46,7.38-18.97,16.44-18.97s16.44,8.51,16.44,18.97c0,7.12-6.23,53.08-16.44,53.08ZM116.11,20.65c-7.79,0-14.13,7.47-14.13,16.65,0,12.36,7.51,50.77,14.13,50.77s14.13-38.41,14.13-50.77c0-9.18-6.34-16.65-14.13-16.65Z"/>
        </g>
        <g>
          <path class="cls-3" d="M174.51,61.48c-5.78,7.96-36.05,37.98-42.89,33.02-6.83-4.96,12.37-43.03,18.15-50.99,5.78-7.96,16.01-10.39,22.84-5.42,6.83,4.96,7.68,15.44,1.9,23.39"/>
          <path class="cls-7" d="M133.51,96.27c-1.42,0-2.13-.52-2.56-.83-8.26-6,13.71-46.85,17.89-52.61,2.96-4.07,7.11-6.91,11.7-8,4.65-1.1,9.18-.28,12.76,2.33,3.58,2.6,5.77,6.66,6.15,11.42.38,4.69-1.04,9.52-4,13.59-3.05,4.2-12.31,13.87-21.23,21.55-12.08,10.41-17.84,12.56-20.71,12.56ZM164.51,36.67c-1.12,0-2.28.14-3.44.41-4.04.96-7.72,3.49-10.36,7.11-7.26,10-23.76,45.49-18.41,49.38,1.82,1.32,8.13-1.03,20.4-11.6,8.8-7.58,17.89-17.06,20.87-21.16h0c2.63-3.63,3.9-7.9,3.56-12.05-.33-4.08-2.18-7.53-5.2-9.73-2.14-1.56-4.7-2.36-7.42-2.36Z"/>
        </g>
        <g>
          <path class="cls-3" d="M195.18,106.39c-9.36,3.04-51.5,9.54-54.11,1.51-2.61-8.03,35.3-27.55,44.66-30.58,9.36-3.04,19.06,1.01,21.66,9.04,2.61,8.03-2.86,17-12.22,20.04"/>
          <path class="cls-7" d="M155.66,112.87c-8.14,0-14.57-1.19-15.68-4.62-.49-1.52-2-6.17,18.34-18.51,10.06-6.11,22.12-11.93,27.06-13.53,9.95-3.23,20.32,1.15,23.12,9.78,1.37,4.21.75,8.77-1.73,12.85-2.45,4.02-6.44,7.09-11.23,8.65h0c-4.38,1.42-25,5.38-39.88,5.38ZM192.03,77.46c-1.94,0-3.95.31-5.94.95-4.82,1.57-16.65,7.29-26.57,13.31-13.85,8.4-18.04,13.68-17.34,15.82,2.05,6.29,40.89,1.57,52.65-2.25,4.26-1.38,7.8-4.1,9.96-7.65,2.13-3.49,2.66-7.38,1.51-10.93-1.86-5.72-7.69-9.24-14.27-9.24Z"/>
        </g>
        <g>
          <path class="cls-3" d="M185.51,154.87c-9.36-3.04-47.27-22.55-44.66-30.58,2.61-8.03,44.75-1.53,54.11,1.51,9.36,3.04,14.83,12.01,12.22,20.04-2.61,8.03-12.31,12.07-21.66,9.04"/>
          <path class="cls-7" d="M191.82,157.04c-2.21,0-4.47-.35-6.67-1.07-4.94-1.61-17-7.43-27.06-13.53-20.34-12.34-18.84-16.98-18.34-18.51,3.16-9.71,48.79-1.43,55.56.76,9.95,3.23,15.76,12.88,12.96,21.5-1.37,4.21-4.55,7.54-8.96,9.38-2.35.98-4.9,1.47-7.5,1.47ZM155.07,121.57c-7.09,0-12.4.85-13.12,3.07-.69,2.14,3.5,7.42,17.34,15.82,9.92,6.02,21.75,11.74,26.57,13.31,4.26,1.38,8.72,1.27,12.56-.33,3.77-1.57,6.49-4.4,7.65-7.96,2.41-7.41-2.74-15.75-11.47-18.58-7.6-2.47-26.55-5.32-39.53-5.32Z"/>
        </g>
        <g>
          <path class="cls-3" d="M149.19,188.41c-5.78-7.96-24.98-46.03-18.15-50.99,6.83-4.96,37.1,25.06,42.89,33.02,5.78,7.96,4.93,18.43-1.9,23.4-6.83,4.96-17.06,2.53-22.84-5.43"/>
          <path class="cls-7" d="M163.94,197.57c-1.31,0-2.64-.16-3.99-.48-4.58-1.09-8.74-3.93-11.69-8h0c-4.18-5.76-26.15-46.61-17.9-52.61,1.3-.95,5.24-3.81,23.27,11.72,8.92,7.68,18.18,17.35,21.23,21.55,6.15,8.46,5.18,19.68-2.15,25.01-2.54,1.85-5.57,2.8-8.77,2.8ZM150.13,187.73c2.63,3.63,6.31,6.15,10.36,7.11,3.98.95,7.84.26,10.87-1.94,6.3-4.58,7.04-14.35,1.64-21.78-2.98-4.1-12.08-13.58-20.87-21.16-12.27-10.57-18.59-12.92-20.4-11.6-5.35,3.89,11.15,39.38,18.41,49.38h0Z"/>
        </g>
      </g>
      <g>
        <g>
          <path class="cls-5" d="M115.75,160.42c-24.63,0-44.67-20.04-44.67-44.67s20.04-44.67,44.67-44.67,44.67,20.04,44.67,44.67-20.04,44.67-44.67,44.67Z"/>
          <path class="cls-7" d="M115.75,72.55c23.86,0,43.2,19.34,43.2,43.2s-19.34,43.2-43.2,43.2-43.2-19.34-43.2-43.2,19.34-43.2,43.2-43.2M115.75,69.6c-25.44,0-46.15,20.7-46.15,46.15s20.7,46.15,46.15,46.15,46.15-20.7,46.15-46.15-20.7-46.15-46.15-46.15h0Z"/>
        </g>
        <g>
          <path class="cls-5" d="M115.75,150.93c-19.4,0-35.18-15.78-35.18-35.18s15.78-35.18,35.18-35.18,35.18,15.78,35.18,35.18-15.78,35.18-35.18,35.18Z"/>
          <path class="cls-7" d="M115.75,82.04c18.62,0,33.71,15.09,33.71,33.71s-15.09,33.71-33.71,33.71-33.71-15.09-33.71-33.71,15.09-33.71,33.71-33.71M115.75,79.09c-20.21,0-36.65,16.44-36.65,36.65s16.44,36.65,36.65,36.65,36.65-16.44,36.65-36.65-16.44-36.65-36.65-36.65h0Z"/>
        </g>
      </g>
      <path class="cls-7" d="M101.46,137.64v-5.64l13.97-15.01c1.09-1.19,2.01-2.26,2.76-3.24.75-.97,1.36-1.86,1.84-2.67.45-.79.79-1.54.99-2.23.21-.69.31-1.36.31-2.02,0-.97-.14-1.83-.42-2.58-.28-.75-.66-1.39-1.16-1.93-.52-.51-1.12-.91-1.83-1.19-.7-.28-1.48-.42-2.33-.42-1.11,0-2.08.15-2.92.46-.84.31-1.54.76-2.09,1.35-.57.61-1.01,1.37-1.31,2.28-.3.91-.44,1.95-.44,3.11h-8.28c0-1.91.36-3.73,1.1-5.44.73-1.71,1.77-3.21,3.12-4.49,1.33-1.29,2.93-2.3,4.82-3.04,1.89-.74,3.98-1.11,6.27-1.11s4.14.31,5.83.92c1.69.62,3.11,1.48,4.26,2.58,1.13,1.11,1.99,2.44,2.58,3.99.59,1.55.89,3.27.89,5.15,0,1.42-.22,2.79-.66,4.08-.45,1.3-1.08,2.58-1.88,3.85-.83,1.27-1.82,2.56-2.97,3.87-1.15,1.32-2.43,2.7-3.83,4.14l-8.13,8.61h18.96v6.62h-29.47Z"/>
      <g>
        <g class="cls-4">
          <g>
            <rect class="cls-2" x="3.5" y="3.5" width="224.49" height="224.49"/>
            <rect class="cls-2" x="3.5" y="3.5" width="224.49" height="224.49"/>
            <rect class="cls-2" x="3.5" y="3.5" width="224.49" height="224.49"/>
            <rect class="cls-2" x="3.5" y="3.5" width="224.49" height="224.49"/>
            <rect class="cls-2" x="3.5" y="3.5" width="224.49" height="224.49"/>
            <rect class="cls-2" x="3.5" y="3.5" width="224.49" height="224.49"/>
          </g>
        </g>
        <rect class="cls-2" x="3.5" y="3.5" width="224.49" height="224.49" rx="18.06" ry="18.06"/>
      </g>
    </g>
  </g>
</svg>