<?xml version="1.0" encoding="UTF-8"?>
<svg id="Layer_2" data-name="Layer 2" xmlns="http://www.w3.org/2000/svg" viewBox="0 0 612.83 42.22">
  <g id="Layer_1-2" data-name="Layer 1">
    <g>
      <path d="M0,.81h25.64v7.31H7.66v9.28h17.28v7.31H7.66v9.4h18.68v7.31H0V.81Z"/>
      <path d="M55.16,37.58h1.04V.81h7.66v40.6h-14.96l-4.76-36.77h-1.04v36.77h-7.66V.81h14.96l4.76,36.77Z"/>
      <path d="M71.69.81h29.23v7.31h-10.79v33.29h-7.66V8.12h-10.79V.81Z"/>
      <path d="M109.97.81h25.64v7.31h-17.98v9.28h17.28v7.31h-17.28v9.4h18.68v7.31h-26.33V.81Z"/>
      <path d="M173.36,41.41h-7.66v-12.18c0-.93-.24-1.68-.72-2.26-.48-.58-1.29-.87-2.41-.87h-8.82v15.31h-7.66V.81h15.54c2.09,0,3.92.29,5.51.87,1.58.58,2.91,1.38,3.97,2.41,1.06,1.03,1.88,2.21,2.44,3.57.56,1.35.84,2.8.84,4.35v1.39c0,1.66-.45,3.22-1.33,4.67-.89,1.45-2.26,2.56-4.12,3.33v1.04c1.35.16,2.43.68,3.22,1.57.79.89,1.19,2.01,1.19,3.36v14.04ZM153.76,18.79h7.31c1.86,0,3.27-.43,4.23-1.3s1.45-2.1,1.45-3.68v-.7c0-1.35-.48-2.52-1.45-3.51-.97-.99-2.38-1.48-4.23-1.48h-7.31v10.67Z"/>
      <path d="M182.7.81h27.14v7.31h-9.74v25.98h9.74v7.31h-27.14v-7.31h9.74V8.12h-9.74V.81Z"/>
      <path d="M238.44,37.58h1.04V.81h7.66v40.6h-14.96l-4.76-36.77h-1.04v36.77h-7.66V.81h14.96l4.76,36.77Z"/>
      <path d="M266.92,20.88h17.4v20.53h-6.96v-4.52h-1.04c-.46,1.51-1.35,2.78-2.67,3.8-1.31,1.02-3.29,1.54-5.92,1.54-1.86,0-3.6-.35-5.22-1.04-1.62-.7-3.04-1.73-4.23-3.1-1.2-1.37-2.15-3.07-2.84-5.1-.7-2.03-1.04-4.4-1.04-7.1v-9.51c0-2.63.38-4.96,1.13-6.99s1.8-3.74,3.13-5.13c1.33-1.39,2.93-2.45,4.78-3.16,1.86-.71,3.91-1.07,6.15-1.07s4.39.38,6.21,1.13c1.82.75,3.36,1.8,4.64,3.13,1.28,1.33,2.24,2.9,2.9,4.7.66,1.8.99,3.72.99,5.77v.7h-7.66v-.7c0-2.44-.63-4.28-1.88-5.54-1.26-1.26-3.03-1.88-5.31-1.88s-3.94.72-5.34,2.17c-1.39,1.45-2.09,3.93-2.09,7.45v8.58c0,6.26,2.55,9.4,7.66,9.4,2.28,0,4.01-.61,5.19-1.83s1.77-2.85,1.77-4.9h-9.74v-7.31Z"/>
      <path d="M328.28.81h29.23v7.31h-10.79v33.29h-7.66V8.12h-10.79V.81Z"/>
      <path d="M365.34.81h7.66v16.59h13.11V.81h7.66v40.6h-7.66v-16.7h-13.11v16.7h-7.66V.81Z"/>
      <path d="M403.22.81h25.64v7.31h-17.98v9.28h17.28v7.31h-17.28v9.4h18.68v7.31h-26.33V.81Z"/>
      <path d="M473.05.81h13.46l2.32,30.51v5.92h1.39v-5.92l2.32-30.51h13.46v40.6h-6.96V14.27l.7-9.28h-1.39l-3.02,36.42h-11.48l-3.13-36.42h-1.39l.7,9.28v27.14h-6.96V.81Z"/>
      <path d="M533.08,32.71h-13.8l-1.97,8.7h-8l9.69-40.6h14.38l9.69,40.6h-8l-1.97-8.7ZM520.9,25.4h10.5l-4.7-20.76h-1.04l-4.76,20.76Z"/>
      <path d="M548.16.81h28.88v12.53l-22.97,19.72v1.04h23.66v7.31h-29.93v-12.53l22.97-19.72v-1.04h-22.62V.81Z"/>
      <path d="M586.5.81h25.64v7.31h-17.98v9.28h17.28v7.31h-17.28v9.4h18.68v7.31h-26.33V.81Z"/>
    </g>
  </g>
</svg>