<?xml version="1.0" encoding="UTF-8"?>
<svg id="Layer_2" data-name="Layer 2" xmlns="http://www.w3.org/2000/svg" viewBox="0 0 391.88 96.5">
  <g id="Layer_1-2" data-name="Layer 1">
    <g>
      <path d="M28.14,37.9c-2.41.59-5.04.89-7.89.89s-5.67-.48-8.15-1.41c-2.48-.94-4.61-2.26-6.4-3.95-1.79-1.7-3.19-3.74-4.19-6.11s-1.51-5.03-1.51-7.94.51-5.62,1.54-8.02c1.02-2.39,2.44-4.43,4.24-6.11,1.81-1.68,3.93-2.98,6.35-3.88,2.43-.9,5.05-1.35,7.87-1.35s5.62.44,8.12,1.32c2.5.89,4.53,2.07,6.09,3.57l-5.62,6.41c-.87-1.01-2.01-1.83-3.44-2.47-1.42-.65-3.04-.96-4.84-.96-1.56,0-3,.29-4.33.86-1.32.57-2.46,1.37-3.43,2.39-.98,1.03-1.73,2.24-2.27,3.64-.54,1.41-.81,2.95-.81,4.61s.24,3.26.73,4.68c.48,1.43,1.2,2.65,2.16,3.67.95,1.03,2.13,1.82,3.54,2.4,1.41.57,3.01.86,4.82.86,1.04,0,2.03-.08,2.97-.23.94-.16,1.8-.41,2.6-.76v-6.71h-7.03v-7.19h15.2v19.52c-1.81.94-3.91,1.7-6.32,2.29Z"/>
      <path d="M61.48,37.85l-8-14.63h-3.04v14.63h-8.69V.99h14.06c1.77,0,3.49.18,5.18.54,1.68.37,3.19.98,4.53,1.85s2.4,2.01,3.2,3.44c.8,1.43,1.2,3.19,1.2,5.31,0,2.5-.68,4.59-2.03,6.3-1.35,1.7-3.23,2.91-5.62,3.65l9.63,15.77h-10.41ZM61.11,12.28c0-.86-.18-1.56-.54-2.11-.37-.54-.84-.95-1.41-1.25-.58-.29-1.22-.49-1.94-.6-.72-.11-1.41-.16-2.07-.16h-4.75v8.59h4.23c.73,0,1.49-.07,2.26-.19.77-.12,1.46-.33,2.09-.65.62-.31,1.14-.77,1.54-1.35.4-.59.6-1.36.6-2.3Z"/>
      <path d="M101.25,37.85l-2.86-7.24h-14.26l-2.71,7.24h-9.68L87.2.99h8.64l15.3,36.86h-9.89ZM91.36,10.83l-4.69,12.65h9.27l-4.58-12.65Z"/>
      <path d="M142.17,12.34c0,2.15-.4,3.97-1.2,5.44-.8,1.47-1.87,2.66-3.23,3.57-1.36.9-2.92,1.56-4.69,1.98-1.77.41-3.61.62-5.52.62h-4.42v13.9h-8.91V.99h13.54c2.01,0,3.9.2,5.65.6,1.75.39,3.28,1.04,4.58,1.92,1.3.89,2.32,2.04,3.07,3.48s1.12,3.22,1.12,5.34ZM133.27,12.39c0-.87-.18-1.58-.52-2.13s-.82-.99-1.41-1.3-1.26-.52-2-.62-1.52-.16-2.32-.16h-3.91v8.69h3.75c.83,0,1.63-.07,2.39-.21.77-.14,1.45-.38,2.06-.73s1.09-.81,1.43-1.38.52-1.29.52-2.16Z"/>
      <path d="M175.49,12.34c0,2.15-.4,3.97-1.2,5.44-.8,1.47-1.87,2.66-3.23,3.57-1.36.9-2.92,1.56-4.69,1.98-1.77.41-3.61.62-5.52.62h-4.42v13.9h-8.91V.99h13.54c2.01,0,3.9.2,5.65.6,1.75.39,3.28,1.04,4.58,1.92,1.3.89,2.32,2.04,3.07,3.48s1.12,3.22,1.12,5.34ZM166.59,12.39c0-.87-.18-1.58-.52-2.13-.35-.56-.82-.99-1.41-1.3s-1.26-.52-2-.62-1.52-.16-2.32-.16h-3.91v8.69h3.75c.83,0,1.63-.07,2.39-.21.77-.14,1.45-.38,2.06-.73s1.09-.81,1.43-1.38c.35-.57.52-1.29.52-2.16Z"/>
      <path d="M180.85,37.85V.99h8.96v29.1h14.26v7.76h-23.22Z"/>
      <path d="M208.23,37.85V.99h24.79v7.49h-16.19v6.98h15.3v7.13h-15.3v7.65h17.13v7.61h-25.72Z"/>
      <path d="M4.84,84.12H1.84v-29.55h17.82v2.68H4.84v10.22h13.77v2.68H4.84v13.98Z"/>
      <path d="M28.05,84.12h-2.84v-31.55h2.84v31.55Z"/>
      <path d="M39.11,57.07c0,.58-.21,1.07-.62,1.44-.42.38-.88.57-1.38.57s-.96-.19-1.38-.57c-.41-.37-.62-.86-.62-1.44s.21-1.06.62-1.44c.42-.37.88-.56,1.38-.56s.96.19,1.38.56c.41.38.62.86.62,1.44ZM38.52,84.12h-2.84v-19.54h2.84v19.54Z"/>
      <path d="M48.91,94.13h-2.84v-29.55h2.84v3.38h.12c.81-1.28,1.89-2.24,3.23-2.89,1.35-.66,2.72-.98,4.12-.98,1.53,0,2.91.26,4.15.79s2.3,1.25,3.17,2.17,1.56,2,2.04,3.25c.48,1.25.73,2.61.73,4.05s-.24,2.8-.73,4.05c-.49,1.25-1.17,2.34-2.04,3.26-.88.91-1.94,1.64-3.17,2.17-1.24.53-2.62.79-4.15.79-1.39,0-2.76-.33-4.12-.98-1.34-.66-2.43-1.6-3.23-2.83h-.12v13.31ZM63.48,74.35c0-1.09-.17-2.11-.5-3.07-.33-.95-.82-1.79-1.44-2.5-.62-.71-1.4-1.28-2.32-1.69s-1.96-.62-3.12-.62c-1.09,0-2.09.2-3.01.6-.92.41-1.71.96-2.38,1.67-.67.71-1.19,1.55-1.56,2.5-.38.96-.56,2-.56,3.11s.18,2.15.56,3.11c.37.96.9,1.79,1.56,2.49.67.69,1.46,1.24,2.38,1.64.92.41,1.92.61,3.01.61,1.17,0,2.21-.2,3.12-.61.92-.4,1.69-.96,2.32-1.67.62-.71,1.11-1.54,1.44-2.5.33-.96.5-1.98.5-3.07Z"/>
      <path d="M95.32,71.48c0-1.68-.44-2.94-1.33-3.77s-2.19-1.24-3.89-1.24c-1.17,0-2.25.21-3.25.62-1,.41-1.85.97-2.55,1.67l-1.58-1.88c.81-.8,1.87-1.47,3.19-2,1.32-.53,2.82-.79,4.48-.79,1.06,0,2.05.14,2.97.44.92.29,1.73.73,2.42,1.31s1.24,1.32,1.63,2.21c.39.9.58,1.94.58,3.14v8.55c0,.75.03,1.53.08,2.34s.14,1.49.25,2.04h-2.55c-.08-.48-.16-.99-.21-1.55-.05-.55-.08-1.09-.08-1.62h-.08c-.89,1.31-1.9,2.25-3.03,2.82s-2.48.86-4.07.86c-.75,0-1.52-.11-2.32-.31-.79-.22-1.51-.56-2.17-1.03-.66-.48-1.2-1.09-1.63-1.84-.43-.75-.65-1.68-.65-2.76,0-1.51.38-2.7,1.15-3.57.76-.88,1.79-1.54,3.06-1.97,1.28-.43,2.75-.71,4.41-.84,1.65-.12,3.37-.19,5.15-.19v-.62ZM94.49,74.35c-1.17,0-2.35.05-3.53.15s-2.25.29-3.21.58c-.96.29-1.75.72-2.36,1.27-.61.56-.92,1.3-.92,2.21,0,.7.13,1.28.39,1.75s.62.86,1.07,1.15.94.5,1.48.62,1.09.19,1.65.19c1,0,1.89-.18,2.67-.52.78-.35,1.43-.82,1.96-1.42.53-.6.93-1.29,1.21-2.07.28-.78.41-1.6.41-2.46v-1.47h-.83Z"/>
      <path d="M107.84,64.59c.05.53.1,1.11.12,1.75.03.65.04,1.17.04,1.59h.09c.55-1.14,1.46-2.07,2.71-2.77,1.25-.71,2.57-1.07,3.97-1.07,2.47,0,4.33.74,5.57,2.21,1.24,1.48,1.85,3.42,1.85,5.84v11.98h-2.84v-10.81c0-1.03-.08-1.96-.24-2.79-.17-.84-.46-1.55-.86-2.15-.41-.6-.95-1.06-1.63-1.39s-1.54-.5-2.57-.5c-.75,0-1.48.16-2.19.46-.71.31-1.34.77-1.9,1.4s-1,1.43-1.34,2.38c-.33.96-.5,2.1-.5,3.41v10.01h-2.84v-15.23c0-.53-.01-1.21-.04-2.05-.03-.83-.07-1.58-.13-2.26h2.72Z"/>
      <path d="M136.26,81.08h.08l6.05-16.49h3.09l-9.73,24.59c-.58,1.49-1.32,2.7-2.23,3.61-.9.9-2.21,1.35-3.91,1.35-.86,0-1.71-.08-2.55-.24l.29-2.59c.67.22,1.37.33,2.09.33.97,0,1.74-.3,2.3-.9.55-.6,1.04-1.45,1.46-2.57l1.58-4.09-8.35-19.5h3.17l6.64,16.49Z"/>
      <path d="M172.65,71.48c0-1.68-.44-2.94-1.33-3.77s-2.19-1.24-3.89-1.24c-1.17,0-2.25.21-3.25.62-1,.41-1.85.97-2.55,1.67l-1.58-1.88c.81-.8,1.87-1.47,3.19-2,1.32-.53,2.82-.79,4.48-.79,1.06,0,2.05.14,2.97.44.92.29,1.73.73,2.42,1.31s1.24,1.32,1.63,2.21c.39.9.58,1.94.58,3.14v8.55c0,.75.03,1.53.08,2.34s.14,1.49.25,2.04h-2.55c-.08-.48-.16-.99-.21-1.55-.05-.55-.08-1.09-.08-1.62h-.08c-.89,1.31-1.9,2.25-3.03,2.82-1.13.57-2.48.86-4.07.86-.75,0-1.52-.11-2.32-.31-.79-.22-1.51-.56-2.17-1.03-.66-.48-1.2-1.09-1.63-1.84-.43-.75-.65-1.68-.65-2.76,0-1.51.38-2.7,1.15-3.57.76-.88,1.79-1.54,3.06-1.97,1.28-.43,2.75-.71,4.41-.84,1.65-.12,3.37-.19,5.15-.19v-.62ZM171.82,74.35c-1.17,0-2.35.05-3.53.15s-2.25.29-3.21.58c-.96.29-1.75.72-2.36,1.27-.61.56-.92,1.3-.92,2.21,0,.7.13,1.28.39,1.75s.62.86,1.07,1.15.94.5,1.48.62,1.09.19,1.65.19c1,0,1.89-.18,2.67-.52.78-.35,1.43-.82,1.96-1.42s.93-1.29,1.21-2.07c.28-.78.41-1.6.41-2.46v-1.47h-.83Z"/>
      <path d="M190.65,84.12h-3.13l-7.97-19.54h3.17l6.34,16.53h.08l6.39-16.53h3.05l-7.93,19.54Z"/>
      <path d="M215.3,71.48c0-1.68-.44-2.94-1.33-3.77s-2.19-1.24-3.89-1.24c-1.17,0-2.25.21-3.25.62-1,.41-1.85.97-2.55,1.67l-1.58-1.88c.81-.8,1.87-1.47,3.19-2,1.32-.53,2.82-.79,4.48-.79,1.06,0,2.05.14,2.97.44.92.29,1.73.73,2.42,1.31.69.58,1.24,1.32,1.63,2.21.39.9.58,1.94.58,3.14v8.55c0,.75.03,1.53.08,2.34s.14,1.49.25,2.04h-2.55c-.08-.48-.16-.99-.21-1.55-.05-.55-.08-1.09-.08-1.62h-.08c-.89,1.31-1.9,2.25-3.03,2.82-1.13.57-2.48.86-4.07.86-.75,0-1.52-.11-2.32-.31-.79-.22-1.51-.56-2.17-1.03-.66-.48-1.2-1.09-1.63-1.84-.43-.75-.65-1.68-.65-2.76,0-1.51.38-2.7,1.15-3.57.76-.88,1.79-1.54,3.06-1.97,1.28-.43,2.75-.71,4.41-.84,1.65-.12,3.37-.19,5.15-.19v-.62ZM214.48,74.35c-1.17,0-2.35.05-3.53.15s-2.25.29-3.21.58c-.96.29-1.75.72-2.36,1.27-.61.56-.92,1.3-.92,2.21,0,.7.13,1.28.39,1.75s.62.86,1.07,1.15.94.5,1.48.62,1.09.19,1.65.19c1,0,1.89-.18,2.67-.52.78-.35,1.43-.82,1.96-1.42s.93-1.29,1.21-2.07c.28-.78.41-1.6.41-2.46v-1.47h-.83Z"/>
      <path d="M228.75,57.07c0,.58-.21,1.07-.62,1.44-.42.38-.88.57-1.38.57s-.96-.19-1.38-.57c-.41-.37-.62-.86-.62-1.44s.21-1.06.62-1.44c.42-.37.88-.56,1.38-.56s.96.19,1.38.56c.41.38.62.86.62,1.44ZM228.16,84.12h-2.84v-19.54h2.84v19.54Z"/>
      <path d="M238.64,84.12h-2.84v-31.55h2.84v31.55Z"/>
      <path d="M258.54,71.48c0-1.68-.44-2.94-1.33-3.77s-2.19-1.24-3.89-1.24c-1.17,0-2.25.21-3.25.62-1,.41-1.85.97-2.55,1.67l-1.58-1.88c.81-.8,1.87-1.47,3.19-2,1.32-.53,2.82-.79,4.48-.79,1.06,0,2.05.14,2.97.44.92.29,1.73.73,2.42,1.31.69.58,1.24,1.32,1.63,2.21.39.9.58,1.94.58,3.14v8.55c0,.75.03,1.53.08,2.34s.14,1.49.25,2.04h-2.55c-.08-.48-.16-.99-.21-1.55-.05-.55-.08-1.09-.08-1.62h-.08c-.89,1.31-1.9,2.25-3.03,2.82-1.13.57-2.48.86-4.07.86-.75,0-1.52-.11-2.32-.31-.79-.22-1.51-.56-2.17-1.03-.66-.48-1.2-1.09-1.63-1.84-.43-.75-.65-1.68-.65-2.76,0-1.51.38-2.7,1.15-3.57.76-.88,1.79-1.54,3.06-1.97,1.28-.43,2.75-.71,4.41-.84,1.65-.12,3.37-.19,5.15-.19v-.62ZM257.71,74.35c-1.17,0-2.35.05-3.53.15s-2.25.29-3.21.58c-.96.29-1.75.72-2.36,1.27-.61.56-.92,1.3-.92,2.21,0,.7.13,1.28.39,1.75s.62.86,1.07,1.15.94.5,1.48.62,1.09.19,1.65.19c1,0,1.89-.18,2.67-.52.78-.35,1.43-.82,1.96-1.42s.93-1.29,1.21-2.07c.28-.78.41-1.6.41-2.46v-1.47h-.83Z"/>
      <path d="M271.44,80.82v3.3h-2.84v-31.55h2.84v15.4h.08c.84-1.28,1.92-2.24,3.26-2.89,1.33-.66,2.71-.98,4.13-.98,1.53,0,2.91.26,4.15.79s2.3,1.25,3.17,2.17c.88.92,1.56,2,2.04,3.25.49,1.25.73,2.61.73,4.05s-.24,2.8-.73,4.05c-.49,1.25-1.17,2.34-2.04,3.26-.88.91-1.94,1.64-3.17,2.17-1.24.53-2.62.79-4.15.79-1.42,0-2.8-.33-4.13-.96-1.34-.64-2.43-1.58-3.26-2.84h-.08ZM286,74.35c0-1.09-.16-2.11-.5-3.07-.34-.95-.82-1.79-1.44-2.5-.63-.71-1.4-1.28-2.32-1.69-.92-.41-1.96-.62-3.13-.62-1.09,0-2.09.2-3.01.6-.92.41-1.7.96-2.38,1.67-.67.71-1.19,1.55-1.56,2.5-.37.96-.56,2-.56,3.11s.19,2.15.56,3.11c.37.96.9,1.79,1.56,2.49.67.69,1.46,1.24,2.38,1.64.92.41,1.92.61,3.01.61,1.17,0,2.21-.2,3.13-.61.92-.4,1.68-.96,2.32-1.67.62-.71,1.1-1.54,1.44-2.5.33-.96.5-1.98.5-3.07Z"/>
      <path d="M298.03,84.12h-2.84v-31.55h2.84v31.55Z"/>
      <path d="M323.4,73.77v.62c0,.23-.01.46-.04.71h-16.19c.03.97.22,1.9.58,2.75.36.87.86,1.62,1.5,2.26.65.64,1.39,1.15,2.26,1.52.86.38,1.79.57,2.8.57,1.47,0,2.74-.34,3.82-1.03,1.07-.69,1.89-1.47,2.45-2.36l2.13,1.67c-1.17,1.47-2.46,2.53-3.86,3.17-1.41.64-2.92.96-4.53.96-1.45,0-2.79-.26-4.03-.77s-2.3-1.23-3.19-2.15c-.89-.92-1.6-2.01-2.11-3.26-.52-1.25-.77-2.61-.77-4.09s.25-2.84.75-4.09c.5-1.25,1.2-2.34,2.09-3.25s1.93-1.64,3.13-2.15c1.2-.51,2.49-.77,3.88-.77,1.53,0,2.88.26,4.05.77,1.17.52,2.14,1.21,2.92,2.09.78.88,1.37,1.9,1.77,3.07.41,1.17.6,2.42.6,3.75ZM320.52,72.85c-.08-1.83-.67-3.36-1.77-4.57s-2.66-1.81-4.69-1.81c-.94,0-1.82.17-2.63.52-.81.35-1.51.82-2.13,1.42-.62.6-1.1,1.28-1.46,2.04-.37.76-.57,1.56-.63,2.4h13.31Z"/>
      <path d="M348.73,66.97h-5.51v11.39c0,.72.07,1.32.21,1.79.14.48.34.84.6,1.11s.58.44.94.54c.37.1.75.14,1.17.14s.8-.05,1.24-.16c.43-.11.84-.26,1.23-.46l.12,2.47c-.5.2-1.02.34-1.56.44-.54.1-1.13.14-1.77.14-.53,0-1.09-.07-1.67-.21s-1.13-.4-1.63-.79c-.5-.39-.91-.92-1.23-1.59s-.48-1.55-.48-2.63v-12.19h-4.05v-2.38h4.05v-5.5h2.83v5.5h5.51v2.38Z"/>
      <path d="M356.62,57.07c0,.58-.21,1.07-.62,1.44-.42.38-.88.57-1.38.57s-.96-.19-1.38-.57c-.41-.37-.62-.86-.62-1.44s.21-1.06.62-1.44c.42-.37.88-.56,1.38-.56s.96.19,1.38.56c.41.38.62.86.62,1.44ZM356.04,84.12h-2.84v-19.54h2.84v19.54Z"/>
      <path d="M366.51,84.12h-2.84v-31.55h2.84v31.55Z"/>
      <path d="M391.88,73.77v.62c0,.23-.01.46-.04.71h-16.19c.03.97.22,1.9.58,2.75.36.87.86,1.62,1.5,2.26.65.64,1.39,1.15,2.26,1.52.86.38,1.79.57,2.8.57,1.47,0,2.74-.34,3.82-1.03,1.07-.69,1.89-1.47,2.45-2.36l2.13,1.67c-1.17,1.47-2.46,2.53-3.86,3.17-1.41.64-2.92.96-4.53.96-1.45,0-2.79-.26-4.03-.77-1.24-.52-2.3-1.23-3.19-2.15-.89-.92-1.6-2.01-2.11-3.26-.52-1.25-.77-2.61-.77-4.09s.25-2.84.75-4.09c.5-1.25,1.2-2.34,2.09-3.25.89-.92,1.93-1.64,3.13-2.15,1.2-.51,2.49-.77,3.88-.77,1.53,0,2.88.26,4.05.77,1.17.52,2.14,1.21,2.92,2.09.78.88,1.37,1.9,1.77,3.07.41,1.17.6,2.42.6,3.75ZM389,72.85c-.08-1.83-.67-3.36-1.77-4.57-1.1-1.21-2.66-1.81-4.69-1.81-.94,0-1.82.17-2.63.52-.81.35-1.51.82-2.13,1.42-.62.6-1.1,1.28-1.46,2.04-.37.76-.57,1.56-.63,2.4h13.31Z"/>
    </g>
  </g>
</svg>