<?xml version="1.0" encoding="UTF-8"?>
<svg id="Layer_2" data-name="Layer 2" xmlns="http://www.w3.org/2000/svg" viewBox="0 0 877.13 106.82">
  <g id="Layer_1-2" data-name="Layer 1">
    <g>
      <path d="M96.96,12.26c-1.32-5.94-4.34-7.97-9.02-7.97-5.83,0-9.02,3.63-9.02,13.03v4.18c0,9.4,3.19,13.03,9.02,13.03,4.95,0,7.75-2.42,9.02-7.97h4.56c-1.21,8.52-6.38,12.26-13.58,12.26-8.41,0-13.75-5.06-13.75-17.32v-4.18c0-12.26,5.33-17.32,13.75-17.32,7.48,0,12.43,3.96,13.64,12.26h-4.62Z"/>
      <path d="M129.41,26.4c0,7.15-3.52,12.43-11.44,12.43-7.31,0-11.44-4.84-11.44-12.43v-3.63c0-7.81,4.23-12.32,11.44-12.32s11.44,4.45,11.44,12.32v3.63ZM125.01,26.4v-3.63c0-5.22-2.53-8.36-7.04-8.36s-7.04,3.19-7.04,8.36v3.63c0,4.73,1.98,8.47,7.04,8.47,4.67,0,7.04-3.79,7.04-8.47Z"/>
      <path d="M136.29.44h4.4v28.38c0,2.97.17,5.5,4.67,5.5v4.07c-6.93,0-9.07-2.75-9.07-8.47V.44Z"/>
      <path d="M152.46.44h4.4v28.38c0,2.97.17,5.5,4.67,5.5v4.07c-6.93,0-9.07-2.75-9.07-8.47V.44Z"/>
      <path d="M188.64,34.21c-1.92,3.35-4.84,4.62-9.62,4.62-7.37,0-11.77-4.78-11.77-12.43v-3.63c0-7.81,3.68-12.32,10.89-12.32s10.89,4.45,10.89,12.32v2.86h-17.38v.77c0,4.73,2.25,8.47,7.04,8.47,3.58,0,5.39-1.04,6.54-3.08l3.41,2.42ZM171.65,21.78h12.92c-.22-4.62-2.25-7.37-6.43-7.37s-6.21,2.8-6.49,7.37Z"/>
      <path d="M216.58,34.21c-1.71,3.19-5.06,4.62-9.51,4.62-7.53,0-11.88-4.84-11.88-12.43v-3.63c0-7.81,4.45-12.32,11.88-12.32,4.12,0,7.53,1.48,9.51,4.29l-3.46,2.42c-1.21-1.76-3.52-2.75-6.05-2.75-4.73,0-7.48,3.19-7.48,8.36v3.63c0,4.73,2.2,8.47,7.48,8.47,2.58,0,4.95-.88,6.1-3.08l3.41,2.42Z"/>
      <path d="M219.67,10.89h3.52v-6.05h4.4v6.05h6.32v3.96h-6.32v13.97c0,3.79.44,5.39,4.12,5.39h2.2v4.18h-2.37c-6.49,0-8.36-2.75-8.36-8.47v-15.07h-3.52v-3.96Z"/>
      <path d="M279.34.44v4.29h-18.15v12.76h16.5v4.29h-16.5v16.61h-4.73V.44h22.88Z"/>
      <path d="M285.66.44h4.4v28.38c0,2.97.17,5.5,4.67,5.5v4.07c-6.93,0-9.07-2.75-9.07-8.47V.44Z"/>
      <path d="M323.33,26.4c0,7.15-3.52,12.43-11.44,12.43-7.31,0-11.44-4.84-11.44-12.43v-3.63c0-7.81,4.24-12.32,11.44-12.32s11.44,4.45,11.44,12.32v3.63ZM318.94,26.4v-3.63c0-5.22-2.53-8.36-7.04-8.36s-7.04,3.19-7.04,8.36v3.63c0,4.73,1.98,8.47,7.04,8.47,4.67,0,7.04-3.79,7.04-8.47Z"/>
      <path d="M339.01,38.38h-3.85l-7.97-27.5h4.67l5.5,19.3,6.93-19.3h3.68l7.31,19.47,5.5-19.47h4.67l-7.97,27.5h-3.85l-7.31-20.57-7.31,20.57Z"/>
      <path d="M390.71,34.21c-1.92,3.35-4.84,4.62-9.62,4.62-7.37,0-11.77-4.78-11.77-12.43v-3.63c0-7.81,3.68-12.32,10.89-12.32s10.89,4.45,10.89,12.32v2.86h-17.38v.77c0,4.73,2.25,8.47,7.04,8.47,3.58,0,5.39-1.04,6.54-3.08l3.41,2.42ZM373.71,21.78h12.92c-.22-4.62-2.25-7.37-6.43-7.37s-6.21,2.8-6.49,7.37Z"/>
      <path d="M413.53,16.83c-1.16-1.59-2.58-2.31-4.62-2.31-3.35,0-5.88,2.53-5.88,6.65v17.21h-4.4V10.89h4.4v2.69c1.16-1.92,3.03-3.13,6.38-3.13,3.74,0,6.1,1.27,7.86,3.74l-3.74,2.64Z"/>
      <path d="M436.85,17.32c-1.48-1.92-3.02-2.8-6.82-2.8-3.24,0-5.33,1.26-5.33,3.68,0,3.13,2.75,4.07,6.38,4.34,5.17.38,9.9,1.87,9.9,8.19,0,4.78-3.25,8.08-10.34,8.08-5.61,0-8.52-1.7-10.61-4.56l3.25-2.31c1.48,1.98,3.46,2.8,7.42,2.8,3.68,0,5.88-1.43,5.88-3.9,0-2.97-1.76-4.01-7.09-4.4-4.62-.33-9.18-2.2-9.18-8.19,0-4.56,3.3-7.81,9.84-7.81,4.45,0,7.86,1.16,10.01,4.56l-3.3,2.31Z"/>
      <path d="M476.4,38.38h-4.73V5.88l-5.44,3.9v-5.17l5.44-4.18h4.73v37.94Z"/>
      <path d="M504.01,10.89h3.52v-6.05h4.4v6.05h6.32v3.96h-6.32v13.97c0,3.79.44,5.39,4.12,5.39h2.2v4.18h-2.36c-6.49,0-8.36-2.75-8.36-8.47v-15.07h-3.52v-3.96Z"/>
      <path d="M524.85.44h4.4v13.14c1.38-2.09,3.3-3.13,7.37-3.13,5.88,0,10.01,3.08,10.01,10.78v17.16h-4.4v-17.1c0-5.55-3.02-6.76-6.27-6.76-4.12,0-6.71,2.91-6.71,6.71v17.16h-4.4V.44Z"/>
      <path d="M569.79,16.83c-1.16-1.59-2.58-2.31-4.62-2.31-3.35,0-5.88,2.53-5.88,6.65v17.21h-4.4V10.89h4.4v2.69c1.16-1.92,3.02-3.13,6.38-3.13,3.74,0,6.1,1.27,7.86,3.74l-3.74,2.64Z"/>
      <path d="M599.15,26.4c0,7.15-3.52,12.43-11.44,12.43-7.31,0-11.44-4.84-11.44-12.43v-3.63c0-7.81,4.24-12.32,11.44-12.32s11.44,4.45,11.44,12.32v3.63ZM594.76,26.4v-3.63c0-5.22-2.53-8.36-7.04-8.36s-7.04,3.19-7.04,8.36v3.63c0,4.73,1.98,8.47,7.04,8.47,4.67,0,7.04-3.79,7.04-8.47Z"/>
      <path d="M627.81,38.38h-4.4v-2.69c-1.38,2.09-3.3,3.13-7.37,3.13-5.88,0-10.01-3.08-10.01-10.78V10.89h4.4v17.1c0,5.55,3.03,6.76,6.27,6.76,4.12,0,6.71-2.91,6.71-6.71V10.89h4.4v27.5Z"/>
      <path d="M653.16,10.89h4.4v26.95c0,7.64-4.4,11.33-11.77,11.33-4.79,0-7.7-1.26-9.62-4.62l3.41-2.42c1.16,2.04,2.97,3.08,6.54,3.08,4.79,0,7.04-2.64,7.04-7.37v-1.87c-1.48,1.92-3.85,2.86-7.48,2.86-7.48,0-11-5.28-11-12.43v-3.63c0-7.86,4.18-12.32,11-12.32,3.63,0,5.99,1.16,7.48,3.19v-2.75ZM653.16,26.4v-3.63c0-5.17-2.53-8.36-7.04-8.36s-7.04,3.13-7.04,8.36v3.63c0,4.67,2.37,8.47,7.04,8.47,5.06,0,7.04-3.74,7.04-8.47Z"/>
      <path d="M665.82.44h4.4v13.14c1.38-2.09,3.3-3.13,7.37-3.13,5.88,0,10.01,3.08,10.01,10.78v17.16h-4.4v-17.1c0-5.55-3.02-6.76-6.27-6.76-4.12,0-6.71,2.91-6.71,6.71v17.16h-4.4V.44Z"/>
      <path d="M715.37,20.18h-4.34V.44h19.25v4.73h-14.68v9.95c1.21-1.38,3.13-2.47,6.05-2.47,7.04,0,10.23,5.39,10.23,13.91,0,7.48-3.85,12.26-11.11,12.26-5.88,0-10.23-4.12-10.61-9.35h4.62c.72,3.19,2.92,5.06,6,5.06,3.9,0,6.38-2.25,6.38-7.97s-1.87-9.18-6.38-9.18c-2.58,0-4.34,1.32-5.39,2.8Z"/>
      <path d="M744.3,41.63l-5.28,4.56v-14.19h5.28v9.62Z"/>
      <path d="M767.67.44h4.95v4.95h-4.95V.44ZM767.95,10.89h4.4v27.5h-4.4V10.89Z"/>
      <path d="M781.42,10.89h4.4v2.69c1.38-2.09,3.3-3.13,7.37-3.13,5.88,0,10.01,3.08,10.01,10.78v17.16h-4.4v-17.1c0-5.55-3.02-6.76-6.27-6.76-4.12,0-6.71,2.91-6.71,6.71v17.16h-4.4V10.89Z"/>
      <path d="M21.39,102.21c-1.71,3.19-5.06,4.62-9.51,4.62-7.53,0-11.88-4.84-11.88-12.43v-3.63c0-7.81,4.46-12.32,11.88-12.32,4.12,0,7.53,1.48,9.51,4.29l-3.46,2.42c-1.21-1.76-3.52-2.75-6.05-2.75-4.73,0-7.48,3.19-7.48,8.36v3.63c0,4.73,2.2,8.47,7.48,8.47,2.58,0,4.95-.88,6.1-3.08l3.41,2.42Z"/>
      <path d="M48.4,94.4c0,7.15-3.52,12.43-11.44,12.43-7.31,0-11.44-4.84-11.44-12.43v-3.63c0-7.81,4.23-12.32,11.44-12.32s11.44,4.45,11.44,12.32v3.63ZM44,94.4v-3.63c0-5.22-2.53-8.36-7.04-8.36s-7.04,3.19-7.04,8.36v3.63c0,4.73,1.98,8.47,7.04,8.47,4.67,0,7.04-3.79,7.04-8.47Z"/>
      <path d="M70.18,84.83c-1.16-1.59-2.58-2.31-4.62-2.31-3.35,0-5.88,2.53-5.88,6.65v17.21h-4.4v-27.5h4.4v2.69c1.16-1.92,3.02-3.13,6.38-3.13,3.74,0,6.1,1.27,7.86,3.74l-3.74,2.64Z"/>
      <path d="M92.95,84.83c-1.16-1.59-2.58-2.31-4.62-2.31-3.35,0-5.88,2.53-5.88,6.65v17.21h-4.4v-27.5h4.4v2.69c1.16-1.92,3.02-3.13,6.38-3.13,3.74,0,6.1,1.27,7.86,3.74l-3.74,2.64Z"/>
      <path d="M120.83,102.21c-1.92,3.35-4.84,4.62-9.62,4.62-7.37,0-11.77-4.78-11.77-12.43v-3.63c0-7.81,3.68-12.32,10.89-12.32s10.89,4.45,10.89,12.32v2.86h-17.38v.77c0,4.73,2.25,8.47,7.04,8.47,3.58,0,5.39-1.04,6.54-3.08l3.41,2.42ZM103.84,89.78h12.92c-.22-4.62-2.25-7.37-6.43-7.37s-6.21,2.8-6.49,7.37Z"/>
      <path d="M148.77,102.21c-1.71,3.19-5.06,4.62-9.51,4.62-7.53,0-11.88-4.84-11.88-12.43v-3.63c0-7.81,4.45-12.32,11.88-12.32,4.12,0,7.53,1.48,9.51,4.29l-3.46,2.42c-1.21-1.76-3.52-2.75-6.05-2.75-4.73,0-7.48,3.19-7.48,8.36v3.63c0,4.73,2.2,8.47,7.48,8.47,2.58,0,4.95-.88,6.1-3.08l3.41,2.42Z"/>
      <path d="M151.85,78.89h3.52v-6.05h4.4v6.05h6.32v3.96h-6.32v13.97c0,3.79.44,5.39,4.12,5.39h2.2v4.18h-2.37c-6.49,0-8.36-2.75-8.36-8.47v-15.07h-3.52v-3.96Z"/>
      <path d="M209.05,94.4c0,7.15-3.52,12.43-11.44,12.43-7.31,0-11.44-4.84-11.44-12.43v-3.63c0-7.81,4.23-12.32,11.44-12.32s11.44,4.45,11.44,12.32v3.63ZM204.65,94.4v-3.63c0-5.22-2.53-8.36-7.04-8.36s-7.04,3.19-7.04,8.36v3.63c0,4.73,1.98,8.47,7.04,8.47,4.67,0,7.04-3.79,7.04-8.47Z"/>
      <path d="M230.83,84.83c-1.16-1.59-2.58-2.31-4.62-2.31-3.35,0-5.88,2.53-5.88,6.65v17.21h-4.4v-27.5h4.4v2.69c1.16-1.92,3.02-3.13,6.38-3.13,3.74,0,6.1,1.27,7.86,3.74l-3.74,2.64Z"/>
      <path d="M255.8,68.44h4.4v37.94h-4.4v-2.42c-1.49,1.92-3.85,2.86-7.48,2.86-7.48,0-11-5.28-11-12.43v-3.63c0-7.86,4.18-12.32,11-12.32,3.63,0,5.99,1.16,7.48,3.19v-13.2ZM255.8,94.78v-4.01c0-5.17-2.53-8.36-7.04-8.36s-7.04,3.13-7.04,8.36v3.63c0,4.67,2.36,8.47,7.04,8.47s7.04-3.52,7.04-8.08Z"/>
      <path d="M288.47,102.21c-1.92,3.35-4.84,4.62-9.62,4.62-7.37,0-11.77-4.78-11.77-12.43v-3.63c0-7.81,3.68-12.32,10.89-12.32s10.89,4.45,10.89,12.32v2.86h-17.38v.77c0,4.73,2.25,8.47,7.04,8.47,3.57,0,5.39-1.04,6.54-3.08l3.41,2.42ZM271.47,89.78h12.92c-.22-4.62-2.25-7.37-6.43-7.37s-6.21,2.8-6.49,7.37Z"/>
      <path d="M311.29,84.83c-1.16-1.59-2.58-2.31-4.62-2.31-3.35,0-5.88,2.53-5.88,6.65v17.21h-4.4v-27.5h4.4v2.69c1.16-1.92,3.03-3.13,6.38-3.13,3.74,0,6.1,1.27,7.86,3.74l-3.74,2.64Z"/>
      <path d="M355.51,94.4c0,7.15-3.52,12.43-11.44,12.43-7.31,0-11.44-4.84-11.44-12.43v-3.63c0-7.81,4.24-12.32,11.44-12.32s11.44,4.45,11.44,12.32v3.63ZM351.11,94.4v-3.63c0-5.22-2.53-8.36-7.04-8.36s-7.04,3.19-7.04,8.36v3.63c0,4.73,1.98,8.47,7.04,8.47,4.67,0,7.04-3.79,7.04-8.47Z"/>
      <path d="M377.29,84.83c-1.16-1.59-2.58-2.31-4.62-2.31-3.35,0-5.88,2.53-5.88,6.65v17.21h-4.4v-27.5h4.4v2.69c1.16-1.92,3.02-3.13,6.38-3.13,3.74,0,6.1,1.27,7.86,3.74l-3.74,2.64Z"/>
      <path d="M415.46,85.32c-1.48-1.92-3.02-2.8-6.82-2.8-3.24,0-5.33,1.26-5.33,3.68,0,3.13,2.75,4.07,6.38,4.34,5.17.38,9.9,1.87,9.9,8.19,0,4.78-3.25,8.08-10.34,8.08-5.61,0-8.52-1.7-10.61-4.56l3.24-2.31c1.48,1.98,3.46,2.8,7.42,2.8,3.68,0,5.88-1.43,5.88-3.9,0-2.97-1.76-4.01-7.09-4.4-4.62-.33-9.18-2.2-9.18-8.19,0-4.56,3.3-7.81,9.84-7.81,4.45,0,7.86,1.16,10.01,4.56l-3.3,2.31Z"/>
      <path d="M448.51,106.38h-4.4v-2.69c-1.38,2.09-3.3,3.13-7.37,3.13-5.88,0-10.01-3.08-10.01-10.78v-17.16h4.4v17.1c0,5.55,3.03,6.76,6.27,6.76,4.12,0,6.71-2.91,6.71-6.71v-17.16h4.4v27.5Z"/>
      <path d="M457.87,78.89v-1.98c0-5.72,1.87-8.47,8.36-8.47h1.26v4.18h-1.1c-3.68,0-4.12,1.59-4.12,5.39v.88h5.22v3.96h-5.22v23.54h-4.4v-23.54h-3.52v-3.96h3.52Z"/>
      <path d="M474.64,78.89v-1.98c0-5.72,1.87-8.47,8.36-8.47h1.26v4.18h-1.1c-3.68,0-4.12,1.59-4.12,5.39v.88h5.22v3.96h-5.22v23.54h-4.4v-23.54h-3.52v-3.96h3.52Z"/>
      <path d="M510.33,102.21c-1.92,3.35-4.84,4.62-9.62,4.62-7.37,0-11.77-4.78-11.77-12.43v-3.63c0-7.81,3.68-12.32,10.89-12.32s10.89,4.45,10.89,12.32v2.86h-17.38v.77c0,4.73,2.25,8.47,7.04,8.47,3.57,0,5.39-1.04,6.54-3.08l3.41,2.42ZM493.34,89.78h12.92c-.22-4.62-2.25-7.37-6.43-7.37s-6.21,2.8-6.49,7.37Z"/>
      <path d="M533.16,84.83c-1.16-1.59-2.58-2.31-4.62-2.31-3.35,0-5.88,2.53-5.88,6.65v17.21h-4.4v-27.5h4.4v2.69c1.16-1.92,3.03-3.13,6.38-3.13,3.74,0,6.1,1.27,7.86,3.74l-3.74,2.64Z"/>
      <path d="M556.43,68.44h4.95v4.95h-4.95v-4.95ZM556.7,78.89h4.4v27.5h-4.4v-27.5Z"/>
      <path d="M570.18,78.89h4.4v2.69c1.38-2.09,3.3-3.13,7.37-3.13,5.88,0,10.01,3.08,10.01,10.78v17.16h-4.4v-17.1c0-5.55-3.02-6.76-6.27-6.76-4.12,0-6.71,2.91-6.71,6.71v17.16h-4.4v-27.5Z"/>
      <path d="M615.66,85.32c-1.48-1.92-3.02-2.8-6.82-2.8-3.24,0-5.33,1.26-5.33,3.68,0,3.13,2.75,4.07,6.38,4.34,5.17.38,9.9,1.87,9.9,8.19,0,4.78-3.25,8.08-10.34,8.08-5.61,0-8.52-1.7-10.61-4.56l3.25-2.31c1.48,1.98,3.46,2.8,7.42,2.8,3.68,0,5.88-1.43,5.88-3.9,0-2.97-1.76-4.01-7.09-4.4-4.62-.33-9.18-2.2-9.18-8.19,0-4.56,3.3-7.81,9.84-7.81,4.45,0,7.86,1.16,10.01,4.56l-3.3,2.31Z"/>
      <path d="M624.52,78.89h3.52v-6.05h4.4v6.05h6.32v3.96h-6.32v13.97c0,3.79.44,5.39,4.12,5.39h2.2v4.18h-2.36c-6.49,0-8.36-2.75-8.36-8.47v-15.07h-3.52v-3.96Z"/>
      <path d="M654.27,90.49h6.54v-3.19c0-3.9-1.81-4.78-6.1-4.78-3.3,0-5.06.27-6.6,2.8l-3.3-2.31c1.92-3.19,4.73-4.56,9.95-4.56,6.98,0,10.45,2.25,10.45,8.85v19.08h-4.4v-2.69c-1.54,2.53-3.41,3.13-6.98,3.13-6.38,0-9.84-3.13-9.84-8.47,0-5.94,4.23-7.86,10.28-7.86ZM660.81,94.23h-6.54c-4.34,0-5.88,1.48-5.88,4.23,0,3.08,2.2,4.29,5.44,4.29,4.07,0,6.98-.77,6.98-6.93v-1.59Z"/>
      <path d="M673.46,78.89h4.4v2.69c1.38-2.09,3.3-3.13,7.37-3.13,5.88,0,10.01,3.08,10.01,10.78v17.16h-4.4v-17.1c0-5.55-3.02-6.76-6.27-6.76-4.12,0-6.71,2.91-6.71,6.71v17.16h-4.4v-27.5Z"/>
      <path d="M701.07,78.89h3.52v-6.05h4.4v6.05h6.32v3.96h-6.32v13.97c0,3.79.44,5.39,4.12,5.39h2.2v4.18h-2.36c-6.49,0-8.36-2.75-8.36-8.47v-15.07h-3.52v-3.96Z"/>
      <path d="M753.87,68.44h4.4v37.94h-4.4v-2.42c-1.49,1.92-3.85,2.86-7.48,2.86-7.48,0-11-5.28-11-12.43v-3.63c0-7.86,4.18-12.32,11-12.32,3.63,0,5.99,1.16,7.48,3.19v-13.2ZM753.87,94.78v-4.01c0-5.17-2.53-8.36-7.04-8.36s-7.04,3.13-7.04,8.36v3.63c0,4.67,2.36,8.47,7.04,8.47s7.04-3.52,7.04-8.08Z"/>
      <path d="M786.54,102.21c-1.92,3.35-4.84,4.62-9.62,4.62-7.37,0-11.77-4.78-11.77-12.43v-3.63c0-7.81,3.68-12.32,10.89-12.32s10.89,4.45,10.89,12.32v2.86h-17.38v.77c0,4.73,2.25,8.47,7.04,8.47,3.58,0,5.39-1.04,6.54-3.08l3.41,2.42ZM769.55,89.78h12.92c-.22-4.62-2.25-7.37-6.43-7.37s-6.21,2.8-6.49,7.37Z"/>
      <path d="M803.37,90.49h6.54v-3.19c0-3.9-1.81-4.78-6.1-4.78-3.3,0-5.06.27-6.6,2.8l-3.3-2.31c1.92-3.19,4.73-4.56,9.95-4.56,6.98,0,10.45,2.25,10.45,8.85v19.08h-4.4v-2.69c-1.54,2.53-3.41,3.13-6.98,3.13-6.38,0-9.84-3.13-9.84-8.47,0-5.94,4.24-7.86,10.28-7.86ZM809.92,94.23h-6.54c-4.34,0-5.88,1.48-5.88,4.23,0,3.08,2.2,4.29,5.44,4.29,4.07,0,6.98-.77,6.98-6.93v-1.59Z"/>
      <path d="M820.15,78.89h3.52v-6.05h4.4v6.05h6.32v3.96h-6.32v13.97c0,3.79.44,5.39,4.12,5.39h2.2v4.18h-2.36c-6.49,0-8.36-2.75-8.36-8.47v-15.07h-3.52v-3.96Z"/>
      <path d="M840.99,68.44h4.4v13.14c1.38-2.09,3.3-3.13,7.37-3.13,5.88,0,10.01,3.08,10.01,10.78v17.16h-4.4v-17.1c0-5.55-3.02-6.76-6.27-6.76-4.12,0-6.71,2.91-6.71,6.71v17.16h-4.4v-37.94Z"/>
      <path d="M877.13,106.38h-6.38v-6.38h6.38v6.38Z"/>
    </g>
  </g>
</svg>