<?xml version="1.0" encoding="UTF-8"?>
<svg id="Layer_2" data-name="Layer 2" xmlns="http://www.w3.org/2000/svg" viewBox="0 0 542.39 96.5">
  <g id="Layer_1-2" data-name="Layer 1">
    <g>
      <path d="M10.26,8.59v7.6h14.26v7.34h-14.26v14.32H1.46V.99h24.26v7.6h-15.46Z"/>
      <path d="M31.44,37.85V.99h8.96v29.1h14.26v7.76h-23.22Z"/>
      <path d="M95.69,19.26c0,2.91-.51,5.58-1.51,7.99-1.01,2.42-2.4,4.48-4.19,6.2-1.79,1.73-3.91,3.04-6.38,3.98-2.46.94-5.14,1.41-8.02,1.41s-5.54-.48-7.99-1.41c-2.45-.94-4.56-2.26-6.35-3.98-1.79-1.71-3.19-3.78-4.19-6.2-1.01-2.4-1.51-5.07-1.51-7.99s.5-5.61,1.51-7.99c1.01-2.38,2.4-4.4,4.19-6.07,1.79-1.66,3.91-2.95,6.35-3.84,2.45-.91,5.11-1.36,7.99-1.36s5.56.45,8.02,1.36c2.47.9,4.59,2.19,6.38,3.84,1.79,1.67,3.19,3.7,4.19,6.07,1.01,2.38,1.51,5.04,1.51,7.99ZM86.16,19.26c0-1.6-.26-3.09-.78-4.48-.52-1.39-1.24-2.57-2.16-3.57s-2.03-1.77-3.34-2.34c-1.3-.58-2.73-.86-4.29-.86s-2.98.29-4.27.86-2.4,1.35-3.34,2.34-1.66,2.17-2.16,3.57c-.5,1.39-.75,2.88-.75,4.48s.26,3.21.78,4.61c.52,1.41,1.24,2.61,2.16,3.62.92,1.01,2.02,1.8,3.31,2.37s2.7.86,4.27.86,2.99-.29,4.27-.86,2.39-1.37,3.33-2.37c.94-1.01,1.66-2.21,2.19-3.62.52-1.4.78-2.94.78-4.61Z"/>
      <path d="M140.62,37.85h-8.8l-7.29-24.94h-.16l-7.29,24.94h-8.85L97.77.99h9.58l5.84,24.52h.16L119.89.99h9.27l6.62,24.52h.16l5.93-24.52h9.27l-10.52,36.86Z"/>
      <path d="M154.93,37.85V.99h24.79v7.5h-16.19v6.97h15.3v7.13h-15.3v7.66h17.13v7.6h-25.72Z"/>
      <path d="M206.26,37.85l-8-14.63h-3.04v14.63h-8.69V.99h14.06c1.77,0,3.49.18,5.18.54s3.19.98,4.53,1.85c1.34.87,2.4,2.02,3.2,3.44.8,1.43,1.2,3.19,1.2,5.31,0,2.5-.68,4.6-2.03,6.3-1.35,1.7-3.23,2.91-5.62,3.64l9.63,15.77h-10.41ZM205.9,12.29c0-.86-.18-1.57-.54-2.11-.37-.53-.84-.95-1.41-1.25-.58-.29-1.22-.49-1.94-.6-.72-.1-1.41-.15-2.07-.15h-4.75v8.59h4.23c.73,0,1.49-.06,2.26-.18.77-.12,1.46-.33,2.09-.65.62-.31,1.14-.77,1.54-1.36.4-.58.6-1.35.6-2.29Z"/>
      <path d="M262.02,12.34c0,2.16-.4,3.97-1.2,5.45-.8,1.47-1.87,2.66-3.23,3.56-1.36.91-2.92,1.56-4.69,1.98-1.77.41-3.61.62-5.52.62h-4.42v13.9h-8.91V.99h13.54c2.01,0,3.9.2,5.65.6,1.75.4,3.28,1.05,4.58,1.93,1.3.88,2.32,2.04,3.07,3.48.75,1.44,1.12,3.22,1.12,5.33ZM253.12,12.39c0-.87-.18-1.58-.52-2.13-.35-.56-.82-.99-1.41-1.3s-1.26-.52-2-.62c-.75-.1-1.52-.15-2.32-.15h-3.91v8.69h3.75c.83,0,1.63-.07,2.39-.22.77-.14,1.45-.38,2.06-.72.6-.35,1.09-.82,1.43-1.39.35-.57.52-1.29.52-2.16Z"/>
      <path d="M305.81,19.26c0,2.91-.51,5.58-1.51,7.99-1.01,2.42-2.4,4.48-4.19,6.2-1.79,1.73-3.91,3.04-6.38,3.98-2.46.94-5.14,1.41-8.02,1.41s-5.54-.48-7.99-1.41c-2.45-.94-4.56-2.26-6.35-3.98-1.79-1.71-3.19-3.78-4.19-6.2-1.01-2.4-1.51-5.07-1.51-7.99s.5-5.61,1.51-7.99c1.01-2.38,2.4-4.4,4.19-6.07,1.79-1.66,3.91-2.95,6.35-3.84,2.45-.91,5.11-1.36,7.99-1.36s5.56.45,8.02,1.36c2.47.9,4.59,2.19,6.38,3.84,1.79,1.67,3.19,3.7,4.19,6.07,1.01,2.38,1.51,5.04,1.51,7.99ZM296.27,19.26c0-1.6-.26-3.09-.78-4.48-.52-1.39-1.24-2.57-2.16-3.57s-2.03-1.77-3.34-2.34c-1.3-.58-2.73-.86-4.29-.86s-2.98.29-4.27.86-2.4,1.35-3.34,2.34c-.94.99-1.66,2.17-2.16,3.57-.5,1.39-.75,2.88-.75,4.48s.26,3.21.78,4.61c.52,1.41,1.24,2.61,2.16,3.62.92,1.01,2.02,1.8,3.31,2.37s2.7.86,4.27.86,2.99-.29,4.27-.86,2.39-1.37,3.33-2.37c.94-1.01,1.66-2.21,2.19-3.62.52-1.4.78-2.94.78-4.61Z"/>
      <path d="M350.73,37.85h-8.8l-7.29-24.94h-.16l-7.29,24.94h-8.85L307.88.99h9.58l5.84,24.52h.16l6.56-24.52h9.27l6.62,24.52h.16l5.93-24.52h9.27l-10.52,36.86Z"/>
      <path d="M365.05,37.85V.99h24.79v7.5h-16.19v6.97h15.3v7.13h-15.3v7.66h17.13v7.6h-25.72Z"/>
      <path d="M416.38,37.85l-8-14.63h-3.04v14.63h-8.69V.99h14.06c1.77,0,3.49.18,5.18.54s3.19.98,4.53,1.85c1.34.87,2.4,2.02,3.2,3.44.8,1.43,1.2,3.19,1.2,5.31,0,2.5-.68,4.6-2.03,6.3-1.35,1.7-3.23,2.91-5.62,3.64l9.63,15.77h-10.41ZM416.01,12.29c0-.86-.18-1.57-.54-2.11-.37-.53-.84-.95-1.41-1.25-.58-.29-1.22-.49-1.94-.6-.72-.1-1.41-.15-2.07-.15h-4.75v8.59h4.23c.73,0,1.49-.06,2.26-.18.77-.12,1.46-.33,2.09-.65.62-.31,1.14-.77,1.54-1.36.4-.58.6-1.35.6-2.29Z"/>
      <path d="M26.46,79.33c-.5.75-1.1,1.46-1.81,2.13-.71.67-1.53,1.26-2.46,1.77-.94.5-1.96.91-3.09,1.21-1.13.29-2.36.44-3.7.44-2.23,0-4.29-.39-6.17-1.17-1.9-.78-3.52-1.85-4.88-3.23s-2.43-3.01-3.19-4.9-1.15-3.96-1.15-6.22.39-4.33,1.17-6.22,1.86-3.53,3.23-4.9c1.38-1.37,3.01-2.46,4.88-3.23,1.88-.77,3.92-1.17,6.11-1.17,1.09,0,2.15.11,3.19.34,1.05.22,2.02.54,2.94.95.92.41,1.75.9,2.51,1.48.75.57,1.38,1.22,1.87,1.94l-2.5,1.83c-.31-.47-.72-.94-1.23-1.41-.52-.48-1.12-.9-1.82-1.25-.69-.37-1.45-.66-2.28-.88-.82-.22-1.7-.33-2.65-.33-1.92,0-3.63.35-5.15,1.04-1.52.69-2.81,1.63-3.87,2.81-1.05,1.18-1.86,2.54-2.42,4.1s-.84,3.19-.84,4.91.29,3.36.86,4.9c.57,1.56,1.39,2.92,2.44,4.1,1.06,1.18,2.34,2.11,3.87,2.81,1.51.69,3.22,1.04,5.11,1.04,1.7,0,3.31-.35,4.84-1.05,1.53-.69,2.81-1.81,3.84-3.34l2.34,1.5Z"/>
      <path d="M50.38,74.36c0,1.47-.26,2.83-.77,4.09-.52,1.25-1.23,2.34-2.15,3.25-.92.92-2.02,1.64-3.3,2.15-1.28.52-2.68.77-4.21.77s-2.89-.26-4.17-.77c-1.28-.51-2.38-1.22-3.3-2.15-.92-.92-1.64-2-2.15-3.25-.52-1.26-.77-2.62-.77-4.09s.26-2.84.77-4.1c.51-1.25,1.23-2.34,2.15-3.25.92-.92,2.02-1.64,3.3-2.15,1.28-.51,2.67-.77,4.17-.77s2.93.26,4.21.77c1.28.52,2.38,1.23,3.3,2.15.92.91,1.63,2,2.15,3.25.52,1.26.77,2.62.77,4.1ZM47.37,74.36c0-1.09-.18-2.11-.52-3.07-.35-.96-.84-1.79-1.48-2.51-.65-.71-1.42-1.27-2.34-1.68-.92-.42-1.95-.62-3.09-.62s-2.17.2-3.07.62c-.9.41-1.67.98-2.32,1.68-.64.71-1.13,1.55-1.48,2.51-.35.96-.52,1.98-.52,3.07s.18,2.11.52,3.06c.35.96.84,1.79,1.48,2.51.65.71,1.41,1.27,2.32,1.67s1.93.6,3.07.6,2.17-.2,3.09-.6c.92-.4,1.69-.96,2.34-1.67.64-.71,1.13-1.54,1.48-2.51.35-.96.52-1.98.52-3.06Z"/>
      <path d="M59.39,84.12h-2.84v-31.55h2.84v31.55Z"/>
      <path d="M69.9,84.12h-2.84v-31.55h2.84v31.55Z"/>
      <path d="M95.28,73.78v.62c0,.22-.01.46-.04.71h-16.19c.03.97.22,1.89.58,2.75s.86,1.61,1.5,2.25,1.39,1.15,2.26,1.53c.86.37,1.79.56,2.8.56,1.47,0,2.74-.34,3.82-1.02,1.07-.69,1.89-1.47,2.45-2.36l2.13,1.67c-1.17,1.47-2.46,2.53-3.86,3.17-1.41.64-2.92.96-4.53.96-1.45,0-2.79-.26-4.03-.77-1.24-.51-2.3-1.22-3.19-2.15-.89-.92-1.6-2-2.11-3.25-.52-1.26-.77-2.62-.77-4.09s.25-2.84.75-4.1c.5-1.25,1.2-2.34,2.09-3.25.89-.92,1.93-1.64,3.13-2.15,1.2-.51,2.49-.77,3.88-.77,1.53,0,2.88.26,4.05.77,1.17.52,2.14,1.21,2.92,2.09.78.88,1.37,1.9,1.77,3.07.41,1.17.6,2.42.6,3.76ZM92.4,72.86c-.08-1.83-.67-3.36-1.77-4.57-1.1-1.22-2.66-1.81-4.69-1.81-.94,0-1.82.17-2.63.52-.81.35-1.51.83-2.13,1.43-.62.6-1.1,1.28-1.46,2.04-.37.77-.57,1.56-.63,2.4h13.31Z"/>
      <path d="M115.43,69.06c-.47-.75-1.16-1.37-2.07-1.85-.9-.48-1.88-.73-2.94-.73-1.14,0-2.17.2-3.08.6-.92.41-1.7.96-2.36,1.67-.65.71-1.15,1.55-1.5,2.51s-.52,2-.52,3.11.18,2.14.52,3.09c.35.94.84,1.77,1.48,2.48.65.71,1.42,1.27,2.34,1.67.92.4,1.95.6,3.09.6,1.25,0,2.31-.24,3.17-.71.86-.48,1.57-1.09,2.13-1.84l2.13,1.58c-.84,1.03-1.86,1.85-3.07,2.47-1.21.61-2.66.92-4.36.92-1.58,0-3.02-.26-4.3-.77-1.28-.51-2.37-1.22-3.27-2.15-.9-.92-1.61-2-2.11-3.25-.5-1.26-.75-2.62-.75-4.09s.25-2.84.75-4.1c.5-1.25,1.2-2.34,2.11-3.25.9-.92,2-1.64,3.27-2.15,1.28-.51,2.72-.77,4.3-.77,1.31,0,2.64.29,3.99.86,1.34.57,2.44,1.41,3.27,2.52l-2.21,1.58Z"/>
      <path d="M131.04,66.98h-5.51v11.38c0,.73.07,1.32.21,1.8.14.47.34.84.6,1.11.26.26.58.44.94.54.37.1.75.14,1.17.14s.8-.05,1.24-.17c.43-.11.84-.26,1.23-.46l.12,2.47c-.5.19-1.02.34-1.56.43s-1.13.15-1.77.15c-.53,0-1.09-.07-1.67-.22-.58-.14-1.13-.39-1.63-.79-.5-.39-.91-.92-1.23-1.59s-.48-1.54-.48-2.62v-12.19h-4.05v-2.38h4.05v-5.51h2.83v5.51h5.51v2.38Z"/>
      <path d="M158.21,71.49c0-1.68-.44-2.95-1.33-3.78s-2.19-1.24-3.89-1.24c-1.17,0-2.25.2-3.25.62-1,.41-1.85.97-2.55,1.67l-1.58-1.88c.81-.81,1.87-1.47,3.19-2,1.32-.53,2.82-.79,4.48-.79,1.06,0,2.05.14,2.97.43s1.73.73,2.42,1.32,1.24,1.32,1.63,2.21c.39.89.58,1.94.58,3.13v8.56c0,.75.03,1.52.08,2.34.05.8.14,1.48.25,2.04h-2.55c-.08-.47-.16-.98-.21-1.54-.05-.55-.08-1.09-.08-1.62h-.08c-.89,1.3-1.9,2.24-3.03,2.81s-2.48.86-4.07.86c-.75,0-1.52-.1-2.32-.31-.79-.21-1.51-.55-2.17-1.03-.66-.48-1.2-1.09-1.63-1.84-.43-.75-.65-1.68-.65-2.76,0-1.51.38-2.7,1.15-3.58.76-.88,1.79-1.54,3.06-1.97,1.28-.43,2.75-.71,4.41-.84,1.65-.13,3.37-.19,5.15-.19v-.62ZM157.38,74.36c-1.17,0-2.35.05-3.53.14-1.18.1-2.25.3-3.21.58-.96.3-1.75.72-2.36,1.28s-.92,1.29-.92,2.21c0,.69.13,1.28.39,1.75.26.47.62.86,1.07,1.14.45.3.94.5,1.48.62.54.13,1.09.19,1.65.19,1,0,1.89-.18,2.67-.52.78-.35,1.43-.83,1.96-1.43s.93-1.28,1.21-2.07c.28-.77.41-1.6.41-2.46v-1.46h-.83Z"/>
      <path d="M181.8,84.12h-3v-29.55h17.82v2.68h-14.82v10.22h13.77v2.67h-13.77v13.98Z"/>
      <path d="M205,84.12h-2.84v-31.55h2.84v31.55Z"/>
      <path d="M232,74.36c0,1.47-.26,2.83-.77,4.09-.52,1.25-1.23,2.34-2.15,3.25-.92.92-2.02,1.64-3.3,2.15-1.28.52-2.68.77-4.21.77s-2.89-.26-4.17-.77c-1.28-.51-2.38-1.22-3.3-2.15-.92-.92-1.64-2-2.15-3.25-.52-1.26-.77-2.62-.77-4.09s.26-2.84.77-4.1c.51-1.25,1.23-2.34,2.15-3.25.92-.92,2.02-1.64,3.3-2.15,1.28-.51,2.67-.77,4.17-.77s2.93.26,4.21.77c1.28.52,2.38,1.23,3.3,2.15.92.91,1.63,2,2.15,3.25.52,1.26.77,2.62.77,4.1ZM229,74.36c0-1.09-.18-2.11-.52-3.07-.35-.96-.84-1.79-1.48-2.51-.65-.71-1.42-1.27-2.34-1.68-.92-.42-1.95-.62-3.09-.62s-2.17.2-3.07.62c-.9.41-1.67.98-2.32,1.68-.64.71-1.13,1.55-1.48,2.51s-.52,1.98-.52,3.07.18,2.11.52,3.06c.35.96.84,1.79,1.48,2.51.65.71,1.41,1.27,2.32,1.67s1.93.6,3.07.6,2.17-.2,3.09-.6c.92-.4,1.69-.96,2.34-1.67.64-.71,1.13-1.54,1.48-2.51.35-.96.52-1.98.52-3.06Z"/>
      <path d="M238.47,64.59l4.72,15.86h.08l5.26-15.86h2.75l5.35,15.86h.08l4.67-15.86h3.01l-6.18,19.53h-3.08l-5.22-15.81h-.09l-5.13,15.81h-3.09l-6.17-19.53h3.04Z"/>
      <path d="M287,73.78v.62c0,.22-.01.46-.04.71h-16.19c.03.97.22,1.89.58,2.75s.86,1.61,1.5,2.25,1.39,1.15,2.26,1.53c.86.37,1.79.56,2.8.56,1.47,0,2.74-.34,3.82-1.02,1.07-.69,1.89-1.47,2.45-2.36l2.13,1.67c-1.17,1.47-2.46,2.53-3.86,3.17-1.41.64-2.92.96-4.53.96-1.45,0-2.79-.26-4.03-.77-1.24-.51-2.3-1.22-3.19-2.15-.89-.92-1.6-2-2.11-3.25-.52-1.26-.77-2.62-.77-4.09s.25-2.84.75-4.1c.5-1.25,1.2-2.34,2.09-3.25.89-.92,1.93-1.64,3.13-2.15,1.2-.51,2.49-.77,3.88-.77,1.53,0,2.88.26,4.05.77,1.17.52,2.14,1.21,2.92,2.09.78.88,1.37,1.9,1.77,3.07.41,1.17.6,2.42.6,3.76ZM284.12,72.86c-.08-1.83-.67-3.36-1.77-4.57-1.1-1.22-2.66-1.81-4.69-1.81-.94,0-1.82.17-2.63.52-.81.35-1.51.83-2.13,1.43-.62.6-1.1,1.28-1.46,2.04-.37.77-.57,1.56-.63,2.4h13.31Z"/>
      <path d="M293.06,66.85c-.03-.84-.07-1.58-.13-2.26h2.72c.05.53.1,1.11.12,1.75.03.65.04,1.17.04,1.58h.09c.55-1.14,1.39-2.07,2.5-2.77,1.11-.71,2.36-1.06,3.76-1.06.36,0,.69.01.98.04s.59.08.9.16l-.38,2.72c-.16-.05-.44-.12-.83-.17-.39-.06-.78-.09-1.18-.09-.75,0-1.47.14-2.17.42s-1.3.71-1.81,1.31c-.52.6-.94,1.36-1.26,2.29-.32.93-.48,2.05-.48,3.36v9.99h-2.84v-15.23c0-.53-.01-1.21-.04-2.04Z"/>
      <path d="M337.96,74.36c0,1.47-.26,2.83-.77,4.09-.52,1.25-1.23,2.34-2.15,3.25-.92.92-2.02,1.64-3.3,2.15-1.28.52-2.68.77-4.21.77s-2.89-.26-4.17-.77c-1.28-.51-2.38-1.22-3.3-2.15-.92-.92-1.64-2-2.15-3.25-.52-1.26-.77-2.62-.77-4.09s.26-2.84.77-4.1c.51-1.25,1.23-2.34,2.15-3.25.92-.92,2.02-1.64,3.3-2.15,1.28-.51,2.67-.77,4.17-.77s2.93.26,4.21.77c1.28.52,2.38,1.23,3.3,2.15.92.91,1.63,2,2.15,3.25.52,1.26.77,2.62.77,4.1ZM334.96,74.36c0-1.09-.18-2.11-.52-3.07-.35-.96-.84-1.79-1.48-2.51-.65-.71-1.42-1.27-2.34-1.68-.92-.42-1.95-.62-3.09-.62s-2.17.2-3.07.62c-.9.41-1.67.98-2.32,1.68-.64.71-1.13,1.55-1.48,2.51-.35.96-.52,1.98-.52,3.07s.18,2.11.52,3.06c.35.96.84,1.79,1.48,2.51.65.71,1.41,1.27,2.32,1.67.9.4,1.93.6,3.07.6s2.17-.2,3.09-.6c.92-.4,1.69-.96,2.34-1.67.64-.71,1.13-1.54,1.48-2.51.35-.96.52-1.98.52-3.06Z"/>
      <path d="M358.25,84.12c-.05-.53-.1-1.11-.13-1.75-.03-.64-.04-1.17-.04-1.58h-.08c-.56,1.14-1.46,2.07-2.71,2.78-1.26.71-2.57,1.06-3.97,1.06-2.48,0-4.33-.73-5.57-2.21-1.24-1.47-1.86-3.42-1.86-5.84v-11.98h2.84v10.81c0,1.03.08,1.96.25,2.8s.46,1.55.86,2.15.94,1.07,1.63,1.4c.68.34,1.54.5,2.56.5.75,0,1.49-.15,2.19-.46.71-.3,1.34-.77,1.9-1.4.55-.62,1-1.41,1.33-2.38.33-.96.5-2.09.5-3.4v-10.02h2.84v15.24c0,.53.01,1.21.04,2.04.03.84.07,1.59.12,2.26h-2.71Z"/>
      <path d="M377.11,66.98h-5.51v11.38c0,.73.07,1.32.21,1.8.14.47.34.84.6,1.11.26.26.58.44.94.54.37.1.75.14,1.17.14s.8-.05,1.24-.17c.43-.11.84-.26,1.23-.46l.12,2.47c-.5.19-1.02.34-1.56.43s-1.13.15-1.77.15c-.53,0-1.09-.07-1.67-.22-.58-.14-1.13-.39-1.63-.79-.5-.39-.91-.92-1.23-1.59s-.48-1.54-.48-2.62v-12.19h-4.05v-2.38h4.05v-5.51h2.83v5.51h5.51v2.38Z"/>
      <path d="M411.38,74.36c0,1.47-.26,2.83-.77,4.09-.52,1.25-1.23,2.34-2.15,3.25-.92.92-2.02,1.64-3.3,2.15-1.28.52-2.68.77-4.21.77s-2.89-.26-4.17-.77c-1.28-.51-2.38-1.22-3.3-2.15-.92-.92-1.64-2-2.15-3.25-.52-1.26-.77-2.62-.77-4.09s.26-2.84.77-4.1c.51-1.25,1.23-2.34,2.15-3.25.92-.92,2.02-1.64,3.3-2.15,1.28-.51,2.67-.77,4.17-.77s2.93.26,4.21.77c1.28.52,2.38,1.23,3.3,2.15.92.91,1.63,2,2.15,3.25.52,1.26.77,2.62.77,4.1ZM408.38,74.36c0-1.09-.18-2.11-.52-3.07-.35-.96-.84-1.79-1.48-2.51-.65-.71-1.42-1.27-2.34-1.68-.92-.42-1.95-.62-3.09-.62s-2.17.2-3.07.62c-.9.41-1.67.98-2.32,1.68-.64.71-1.13,1.55-1.48,2.51s-.52,1.98-.52,3.07.18,2.11.52,3.06c.35.96.84,1.79,1.48,2.51.65.71,1.41,1.27,2.32,1.67.9.4,1.93.6,3.07.6s2.17-.2,3.09-.6c.92-.4,1.69-.96,2.34-1.67.64-.71,1.13-1.54,1.48-2.51.35-.96.52-1.98.52-3.06Z"/>
      <path d="M425.73,66.98h-4.59v17.15h-2.84v-17.15h-4.09v-2.38h4.09v-5.35c0-2.22.54-3.97,1.62-5.26,1.09-1.28,2.76-1.92,5.01-1.92.36,0,.75.02,1.17.06.41.05.81.12,1.17.23l-.5,2.51c-.31-.08-.61-.16-.92-.21-.31-.06-.65-.09-1.05-.09-.75,0-1.37.13-1.85.38-.49.24-.86.6-1.13,1.06-.26.46-.45,1-.54,1.61s-.14,1.27-.14,1.96v5.01h4.59v2.38Z"/>
      <path d="M460.63,74.36c0,1.47-.26,2.83-.77,4.09-.52,1.25-1.23,2.34-2.15,3.25-.92.92-2.02,1.64-3.3,2.15-1.28.52-2.68.77-4.21.77s-2.89-.26-4.17-.77c-1.28-.51-2.38-1.22-3.3-2.15-.92-.92-1.64-2-2.15-3.25-.52-1.26-.77-2.62-.77-4.09s.26-2.84.77-4.1c.51-1.25,1.23-2.34,2.15-3.25.92-.92,2.02-1.64,3.3-2.15,1.28-.51,2.67-.77,4.17-.77s2.93.26,4.21.77c1.28.52,2.38,1.23,3.3,2.15.92.91,1.63,2,2.15,3.25.52,1.26.77,2.62.77,4.1ZM457.62,74.36c0-1.09-.18-2.11-.52-3.07-.35-.96-.84-1.79-1.48-2.51-.65-.71-1.42-1.27-2.34-1.68-.92-.42-1.95-.62-3.09-.62s-2.17.2-3.07.62c-.9.41-1.67.98-2.32,1.68-.64.71-1.13,1.55-1.48,2.51s-.52,1.98-.52,3.07.18,2.11.52,3.06c.35.96.84,1.79,1.48,2.51.65.71,1.41,1.27,2.32,1.67.9.4,1.93.6,3.07.6s2.17-.2,3.09-.6c.92-.4,1.69-.96,2.34-1.67.64-.71,1.13-1.54,1.48-2.51.35-.96.52-1.98.52-3.06Z"/>
      <path d="M466.68,66.85c-.03-.84-.07-1.58-.13-2.26h2.72c.05.53.1,1.11.12,1.75.03.65.04,1.17.04,1.58h.09c.55-1.14,1.39-2.07,2.5-2.77s2.36-1.06,3.76-1.06c.36,0,.69.01.98.04s.59.08.9.16l-.38,2.72c-.16-.05-.44-.12-.83-.17-.39-.06-.78-.09-1.18-.09-.75,0-1.47.14-2.17.42s-1.3.71-1.81,1.31c-.52.6-.94,1.36-1.26,2.29s-.48,2.05-.48,3.36v9.99h-2.84v-15.23c0-.53-.01-1.21-.04-2.04Z"/>
      <path d="M497.06,80.83c-.83,1.26-1.92,2.19-3.25,2.84-1.33.64-2.71.96-4.13.96-1.53,0-2.91-.26-4.15-.79-1.24-.53-2.3-1.26-3.17-2.17s-1.56-2-2.04-3.25c-.49-1.26-.73-2.6-.73-4.05s.24-2.8.73-4.05c.48-1.26,1.17-2.34,2.04-3.25.88-.92,1.93-1.64,3.17-2.17,1.24-.53,2.62-.79,4.15-.79,1.42,0,2.8.33,4.13.98,1.34.65,2.43,1.62,3.25,2.9h.09v-15.4h2.83v31.55h-2.83v-3.29h-.09ZM482.57,74.36c0,1.08.17,2.11.5,3.06.33.96.82,1.79,1.44,2.51s1.4,1.27,2.32,1.67,1.96.6,3.13.6c1.09,0,2.09-.2,3-.6s1.71-.96,2.38-1.65c.67-.69,1.2-1.52,1.57-2.49.37-.96.56-2,.56-3.1s-.19-2.15-.56-3.11-.9-1.79-1.57-2.51c-.67-.71-1.46-1.26-2.38-1.67-.92-.39-1.92-.6-3-.6-1.17,0-2.21.2-3.13.62-.92.41-1.69.98-2.32,1.68-.62.71-1.11,1.55-1.44,2.51s-.5,1.98-.5,3.07Z"/>
      <path d="M525.36,73.78v.62c0,.22-.01.46-.04.71h-16.19c.03.97.22,1.89.58,2.75s.86,1.61,1.5,2.25c.65.65,1.39,1.15,2.26,1.53s1.79.56,2.8.56c1.47,0,2.74-.34,3.82-1.02,1.07-.69,1.89-1.47,2.45-2.36l2.13,1.67c-1.17,1.47-2.46,2.53-3.86,3.17-1.41.64-2.92.96-4.53.96-1.45,0-2.79-.26-4.03-.77-1.24-.51-2.3-1.22-3.19-2.15-.89-.92-1.6-2-2.11-3.25-.52-1.26-.77-2.62-.77-4.09s.25-2.84.75-4.1c.5-1.25,1.2-2.34,2.09-3.25.89-.92,1.93-1.64,3.13-2.15,1.2-.51,2.49-.77,3.88-.77,1.53,0,2.88.26,4.05.77,1.17.52,2.14,1.21,2.92,2.09.78.88,1.37,1.9,1.77,3.07.41,1.17.6,2.42.6,3.76ZM522.48,72.86c-.08-1.83-.67-3.36-1.77-4.57-1.1-1.22-2.66-1.81-4.69-1.81-.94,0-1.82.17-2.63.52-.81.35-1.51.83-2.13,1.43-.62.6-1.1,1.28-1.46,2.04-.37.77-.57,1.56-.63,2.4h13.31Z"/>
      <path d="M531.41,66.85c-.03-.84-.07-1.58-.13-2.26h2.72c.05.53.1,1.11.12,1.75.03.65.04,1.17.04,1.58h.09c.55-1.14,1.39-2.07,2.5-2.77,1.11-.71,2.36-1.06,3.76-1.06.36,0,.69.01.98.04s.59.08.9.16l-.38,2.72c-.16-.05-.44-.12-.83-.17-.39-.06-.78-.09-1.18-.09-.75,0-1.47.14-2.17.42s-1.3.71-1.81,1.31c-.52.6-.94,1.36-1.26,2.29-.32.93-.48,2.05-.48,3.36v9.99h-2.84v-15.23c0-.53-.01-1.21-.04-2.04Z"/>
    </g>
  </g>
</svg>