<?xml version="1.0" encoding="UTF-8"?>
<svg id="Layer_2" data-name="Layer 2" xmlns="http://www.w3.org/2000/svg" xmlns:xlink="http://www.w3.org/1999/xlink" viewBox="0 0 231.49 231.49">
  <defs>
    <style>
      .cls-1, .cls-2 {
        fill: none;
      }

      .cls-2 {
        stroke: #d5b78f;
        stroke-miterlimit: 10;
        stroke-width: 6.61px;
      }

      .cls-3 {
        clip-path: url(#clippath-6);
      }

      .cls-4 {
        fill: #fff;
      }

      .cls-5 {
        fill: #5e7dbc;
      }

      .cls-6 {
        fill: #f7e9d5;
      }

      .cls-7 {
        fill: #081b1e;
      }

      .cls-8 {
        clip-path: url(#clippath);
      }
    </style>
    <clipPath id="clippath">
      <rect class="cls-1" x="3.5" y="3.5" width="224.49" height="224.49" rx="18.06" ry="18.06"/>
    </clipPath>
    <clipPath id="clippath-6">
      <rect class="cls-2" x="3.5" y="3.5" width="224.49" height="224.49" rx="18.06" ry="18.06"/>
    </clipPath>
  </defs>
  <g id="Layer_1-2" data-name="Layer 1">
    <g>
      <g class="cls-8">
        <rect class="cls-6" x="3.5" y="3.5" width="224.49" height="224.49"/>
      </g>
      <path class="cls-5" d="M120.08,147.33l9.08,27.95c2.55,7.85,1.55,17.33-2.49,23.54l-7.58,11.65c-1.87,2.88-4.92,2.88-6.79,0l-7.47-11.48c-4.04-6.21-5.04-15.71-2.48-23.56l9.15-28.11c1.77-5.44,6.83-5.44,8.59,0"/>
      <path class="cls-7" d="M115.69,213.78c-1.68,0-3.23-.95-4.35-2.68l-7.47-11.48c-4.23-6.5-5.28-16.36-2.61-24.54l9.15-28.11c.98-3,3.04-4.87,5.38-4.87h0c2.34,0,4.4,1.87,5.38,4.87l9.08,27.95c2.65,8.17,1.6,18.02-2.62,24.51l-7.58,11.65c-1.12,1.73-2.67,2.68-4.35,2.68h0ZM115.79,144.39c-1.32,0-2.55,1.26-3.21,3.29l-9.15,28.11c-2.46,7.56-1.52,16.64,2.35,22.59l7.47,11.48c1.38,2.12,3.5,2.12,4.88,0l7.58-11.65c3.87-5.94,4.82-15.01,2.36-22.57l-9.08-27.95c-.66-2.03-1.89-3.3-3.21-3.3h0Z"/>
      <path class="cls-5" d="M100.69,143.85l-9.09,27.95c-2.55,7.85-8.94,14.93-15.85,17.58l-12.98,4.97c-3.21,1.23-5.67-.56-5.5-3.99l.7-13.68c.38-7.4,5.15-15.67,11.84-20.52l23.93-17.36c4.63-3.36,8.72-.38,6.95,5.06"/>
      <path class="cls-7" d="M60.82,195.88c-1.02,0-1.95-.29-2.74-.86-1.36-.99-2.05-2.67-1.94-4.72l.7-13.68c.4-7.74,5.35-16.34,12.31-21.39l23.93-17.36c2.55-1.85,5.32-2.15,7.21-.77,1.9,1.38,2.47,4.1,1.49,7.1l-9.09,27.95c-2.66,8.17-9.3,15.52-16.53,18.29l-12.98,4.97c-.82.31-1.61.47-2.36.47ZM97.52,138.51c-.93,0-2.02.41-3.11,1.2l-23.93,17.36c-6.43,4.67-11,12.57-11.37,19.66l-.7,13.68c-.07,1.26.29,2.24,1.01,2.76.72.52,1.76.56,2.94.1l12.98-4.97c6.62-2.54,12.72-9.32,15.18-16.87l9.09-27.95c.66-2.03.41-3.78-.66-4.56-.39-.29-.88-.43-1.42-.43Z"/>
      <path class="cls-5" d="M87.05,129.63l-23.78,17.27c-6.68,4.85-16.01,6.83-23.15,4.91l-13.42-3.61c-3.32-.89-4.26-3.78-2.1-6.46l8.61-10.65c4.66-5.76,13.38-9.65,21.64-9.64l29.56.02c5.72,0,7.28,4.81,2.65,8.17"/>
      <path class="cls-7" d="M45.92,153.67c-2.12,0-4.19-.25-6.1-.77l-13.43-3.61c-1.99-.53-3.37-1.71-3.89-3.31-.52-1.6-.09-3.36,1.2-4.97l8.61-10.65c4.87-6.02,13.91-10.07,22.51-10.07h.02l29.56.02c3.16,0,5.57,1.39,6.29,3.61.72,2.23-.42,4.77-2.97,6.62l-23.78,17.27c-5.17,3.76-11.86,5.85-18.02,5.85ZM54.82,122.58c-7.95,0-16.28,3.7-20.74,9.22l-8.61,10.65c-.79.98-1.08,1.99-.81,2.83.27.84,1.1,1.48,2.32,1.81l13.43,3.61c6.85,1.84,15.76-.06,22.19-4.73l23.78-17.27c1.73-1.26,2.55-2.82,2.14-4.08-.41-1.26-1.99-2.04-4.12-2.04l-29.56-.02h-.01Z"/>
      <path class="cls-5" d="M84.37,110.11h-29.39c-8.26,0-16.96-3.89-21.61-9.65l-8.74-10.81c-2.17-2.67-1.22-5.57,2.1-6.46l13.23-3.56c7.16-1.92,16.49.06,23.17,4.92l23.91,17.39c4.63,3.37,3.06,8.17-2.66,8.17"/>
      <path class="cls-7" d="M84.37,111.25h-29.39c-8.59,0-17.63-4.05-22.5-10.07l-8.74-10.81c-1.3-1.6-1.73-3.37-1.21-4.97.52-1.6,1.9-2.78,3.9-3.31l13.23-3.56c7.48-2.01,17.18.04,24.14,5.1l23.91,17.39c2.55,1.86,3.69,4.39,2.96,6.62-.73,2.23-3.14,3.61-6.3,3.61ZM45.8,80.04c-1.94,0-3.81.23-5.55.7l-13.23,3.56c-1.22.33-2.05.97-2.32,1.82-.27.84.02,1.85.81,2.83l8.74,10.81c4.46,5.51,12.79,9.22,20.73,9.22h29.39c2.14,0,3.72-.77,4.13-2.03.41-1.26-.41-2.82-2.14-4.07l-23.91-17.39c-4.8-3.49-10.98-5.43-16.65-5.43Z"/>
      <path class="cls-5" d="M93.67,92.74l-23.77-17.28c-6.68-4.85-11.44-13.11-11.82-20.51l-.72-13.88c-.18-3.43,2.28-5.22,5.49-3.99l12.79,4.9c6.92,2.65,13.31,9.74,15.86,17.6l9.12,28.12c1.76,5.45-2.33,8.41-6.96,5.05"/>
      <path class="cls-7" d="M97.47,95.3c-1.42,0-2.98-.55-4.47-1.64l-23.77-17.28c-6.95-5.05-11.89-13.64-12.29-21.37l-.71-13.88c-.11-2.06.58-3.74,1.94-4.73,1.36-.99,3.17-1.13,5.1-.39l12.79,4.9c7.24,2.77,13.88,10.13,16.54,18.31l9.12,28.12c.97,3.01.4,5.73-1.5,7.1-.79.57-1.73.86-2.74.86ZM94.34,91.82c1.73,1.26,3.47,1.55,4.54.78,1.07-.78,1.32-2.52.67-4.56l-9.12-28.12c-2.45-7.56-8.55-14.35-15.18-16.89l-12.79-4.9c-1.18-.45-2.23-.42-2.94.1-.71.52-1.07,1.5-1.01,2.76l.71,13.88c.36,7.08,4.93,14.97,11.35,19.64l23.77,17.28Z"/>
      <path class="cls-5" d="M111.41,84.16l-9.08-27.95c-2.55-7.85-1.55-17.33,2.49-23.54l7.58-11.65c1.87-2.88,4.92-2.88,6.79,0l7.47,11.48c4.04,6.21,5.04,15.71,2.48,23.56l-9.15,28.11c-1.77,5.44-6.83,5.44-8.59,0"/>
      <path class="cls-7" d="M115.71,89.39h0c-2.34,0-4.4-1.87-5.38-4.87l-9.07-27.95c-2.65-8.17-1.6-18.02,2.62-24.51l7.58-11.65c1.12-1.73,2.67-2.68,4.35-2.68h0c1.68,0,3.23.95,4.35,2.68l7.47,11.48c4.23,6.5,5.28,16.36,2.61,24.53l-9.15,28.11c-.98,3-3.04,4.87-5.38,4.87ZM112.49,83.81c.66,2.03,1.89,3.3,3.21,3.3,1.4-.05,2.55-1.26,3.22-3.29l9.15-28.11c2.46-7.56,1.52-16.63-2.35-22.59l-7.47-11.48c-1.38-2.12-3.5-2.12-4.88,0l-7.58,11.65c-3.87,5.94-4.81,15.01-2.36,22.57l9.07,27.95Z"/>
      <path class="cls-5" d="M130.8,87.64l9.09-27.95c2.55-7.85,8.94-14.93,15.85-17.58l12.98-4.97c3.21-1.23,5.67.56,5.5,3.99l-.7,13.68c-.38,7.4-5.15,15.67-11.84,20.52l-23.93,17.36c-4.63,3.36-8.72.38-6.95-5.06"/>
      <path class="cls-7" d="M133.96,95.26c-1.02,0-1.96-.28-2.75-.86-1.89-1.38-2.46-4.1-1.49-7.1l9.09-27.95c2.66-8.17,9.3-15.52,16.53-18.29l12.98-4.97c1.93-.74,3.74-.6,5.1.39,1.36.99,2.05,2.67,1.94,4.72l-.7,13.68c-.4,7.74-5.35,16.34-12.31,21.39l-23.93,17.36c-1.49,1.08-3.05,1.63-4.46,1.63ZM170.67,37.9c-.47,0-.99.1-1.54.31l-12.98,4.97c-6.62,2.54-12.72,9.32-15.18,16.87l-9.09,27.95c-.66,2.03-.41,3.78.66,4.56,1.07.78,2.81.48,4.54-.77l23.93-17.36c6.43-4.67,11-12.57,11.37-19.66l.7-13.68c.07-1.26-.29-2.24-1.01-2.76-.38-.28-.86-.42-1.41-.42Z"/>
      <path class="cls-5" d="M144.44,101.86l23.78-17.27c6.68-4.85,16.01-6.83,23.15-4.91l13.42,3.61c3.32.89,4.26,3.78,2.1,6.46l-8.61,10.65c-4.66,5.76-13.38,9.65-21.64,9.64l-29.56-.02c-5.72,0-7.28-4.81-2.65-8.17"/>
      <path class="cls-7" d="M176.67,111.19h-.02l-29.56-.02c-3.16,0-5.57-1.39-6.29-3.61-.72-2.23.42-4.77,2.97-6.62l23.78-17.27c6.96-5.05,16.65-7.09,24.12-5.08l13.43,3.61c1.99.53,3.37,1.71,3.89,3.31.52,1.6.09,3.36-1.2,4.97l-8.61,10.65c-4.87,6.02-13.91,10.07-22.51,10.07ZM145.11,102.78h0c-1.73,1.26-2.55,2.82-2.14,4.07.41,1.26,1.99,2.04,4.12,2.04l29.56.02h.01c7.95,0,16.28-3.7,20.74-9.22l8.61-10.65c.79-.98,1.08-1.99.81-2.83-.27-.84-1.1-1.48-2.32-1.81l-13.43-3.61c-6.84-1.84-15.76.06-22.19,4.73l-23.78,17.27Z"/>
      <path class="cls-5" d="M147.13,121.38h29.39c8.26,0,16.96,3.89,21.61,9.65l8.74,10.81c2.17,2.67,1.22,5.57-2.1,6.46l-13.23,3.56c-7.16,1.92-16.49-.06-23.17-4.92l-23.91-17.39c-4.63-3.37-3.06-8.17,2.66-8.17"/>
      <path class="cls-7" d="M185.73,153.72c-6.17,0-12.86-2.1-18.03-5.86l-23.91-17.39c-2.55-1.86-3.69-4.4-2.96-6.62.72-2.23,3.14-3.61,6.29-3.61h29.39c8.59,0,17.64,4.06,22.5,10.07l8.74,10.81c1.3,1.6,1.73,3.37,1.21,4.97-.52,1.6-1.9,2.78-3.9,3.31l-13.23,3.55c-1.92.52-3.98.77-6.11.77ZM147.13,122.52c-2.14,0-3.72.78-4.13,2.04-.41,1.26.41,2.82,2.14,4.07l23.91,17.39c6.43,4.68,15.36,6.57,22.21,4.74l13.23-3.55c1.22-.33,2.05-.97,2.32-1.82.27-.84-.01-1.85-.81-2.83l-8.74-10.81c-4.46-5.51-12.79-9.22-20.73-9.22h-29.39Z"/>
      <path class="cls-5" d="M137.82,138.75l23.77,17.28c6.68,4.85,11.44,13.11,11.82,20.51l.72,13.88c.18,3.43-2.28,5.22-5.49,3.99l-12.79-4.9c-6.92-2.65-13.31-9.74-15.86-17.6l-9.12-28.12c-1.76-5.45,2.33-8.41,6.96-5.05"/>
      <path class="cls-7" d="M170.59,195.95c-.75,0-1.54-.15-2.36-.47l-12.79-4.9c-7.24-2.78-13.89-10.13-16.54-18.31l-9.12-28.12c-.97-3-.4-5.72,1.5-7.1,1.89-1.38,4.66-1.08,7.21.78l23.77,17.28c6.95,5.05,11.89,13.64,12.29,21.37l.72,13.88c.11,2.06-.58,3.73-1.94,4.72-.78.57-1.72.86-2.74.86ZM134.04,138.47c-.54,0-1.03.14-1.42.43-1.07.77-1.32,2.52-.67,4.55l9.12,28.12c2.45,7.56,8.55,14.35,15.18,16.89l12.79,4.9c1.18.45,2.22.41,2.94-.1.71-.52,1.07-1.5,1.01-2.76l-.72-13.89c-.36-7.08-4.93-14.97-11.35-19.64l-23.77-17.28c-1.09-.79-2.19-1.2-3.12-1.2Z"/>
      <g>
        <path class="cls-4" d="M115.75,160.42c-24.63,0-44.67-20.04-44.67-44.67s20.04-44.67,44.67-44.67,44.67,20.04,44.67,44.67-20.04,44.67-44.67,44.67Z"/>
        <path class="cls-7" d="M115.75,72.55c23.86,0,43.2,19.34,43.2,43.2s-19.34,43.2-43.2,43.2-43.2-19.34-43.2-43.2,19.34-43.2,43.2-43.2M115.75,69.6c-25.44,0-46.15,20.7-46.15,46.15s20.7,46.15,46.15,46.15,46.15-20.7,46.15-46.15-20.7-46.15-46.15-46.15h0Z"/>
      </g>
      <g>
        <path class="cls-4" d="M115.75,150.93c-19.4,0-35.18-15.78-35.18-35.18s15.78-35.18,35.18-35.18,35.18,15.78,35.18,35.18-15.78,35.18-35.18,35.18Z"/>
        <path class="cls-7" d="M115.75,82.04c18.62,0,33.71,15.09,33.71,33.71s-15.09,33.71-33.71,33.71-33.71-15.09-33.71-33.71,15.09-33.71,33.71-33.71M115.75,79.09c-20.21,0-36.65,16.44-36.65,36.65s16.44,36.65,36.65,36.65,36.65-16.44,36.65-36.65-16.44-36.65-36.65-36.65h0Z"/>
      </g>
      <path class="cls-7" d="M128.59,121.29v6.68h-5.01v9.38h-8.25v-9.38h-17.95l-.33-5.16,18.16-28.66h8.37v27.15h5.01ZM115.33,121.29v-16.05l-.8,1.42-9.38,14.63h10.18Z"/>
      <g>
        <g class="cls-3">
          <rect class="cls-2" x="3.5" y="3.5" width="224.49" height="224.49"/>
          <rect class="cls-2" x="3.5" y="3.5" width="224.49" height="224.49"/>
          <rect class="cls-2" x="3.5" y="3.5" width="224.49" height="224.49"/>
          <rect class="cls-2" x="3.5" y="3.5" width="224.49" height="224.49"/>
          <rect class="cls-2" x="3.5" y="3.5" width="224.49" height="224.49"/>
          <rect class="cls-2" x="3.5" y="3.5" width="224.49" height="224.49"/>
        </g>
        <rect class="cls-2" x="3.5" y="3.5" width="224.49" height="224.49" rx="18.06" ry="18.06"/>
      </g>
    </g>
  </g>
</svg>