<?xml version="1.0" encoding="UTF-8"?>
<svg id="Layer_2" data-name="Layer 2" xmlns="http://www.w3.org/2000/svg" xmlns:xlink="http://www.w3.org/1999/xlink" viewBox="0 0 231.49 231.49">
  <defs>
    <style>
      .cls-1, .cls-2 {
        fill: none;
      }

      .cls-3 {
        fill: #f7b52c;
      }

      .cls-2 {
        stroke: #d5b78f;
        stroke-miterlimit: 10;
        stroke-width: 7px;
      }

      .cls-4 {
        fill: #ed4324;
      }

      .cls-5 {
        fill: #f6e7d3;
      }

      .cls-6 {
        clip-path: url(#clippath-6);
      }

      .cls-7 {
        fill: #5e7dbc;
      }

      .cls-8 {
        fill: #f7e9d5;
      }

      .cls-9 {
        fill: #081b1e;
      }

      .cls-10 {
        clip-path: url(#clippath);
      }
    </style>
    <clipPath id="clippath">
      <rect class="cls-1" x="3.5" y="3.5" width="224.49" height="224.49" rx="18.06" ry="18.06"/>
    </clipPath>
    <clipPath id="clippath-6">
      <rect class="cls-2" x="3.5" y="3.5" width="224.49" height="224.49" rx="18.06" ry="18.06"/>
    </clipPath>
  </defs>
  <g id="Layer_1-2" data-name="Layer 1">
    <g>
      <g class="cls-10">
        <rect class="cls-8" x="3.5" y="3.5" width="224.49" height="224.49"/>
      </g>
      <g>
        <g class="cls-6">
          <rect class="cls-2" x="3.5" y="3.5" width="224.49" height="224.49"/>
          <rect class="cls-2" x="3.5" y="3.5" width="224.49" height="224.49"/>
          <rect class="cls-2" x="3.5" y="3.5" width="224.49" height="224.49"/>
          <rect class="cls-2" x="3.5" y="3.5" width="224.49" height="224.49"/>
          <rect class="cls-2" x="3.5" y="3.5" width="224.49" height="224.49"/>
          <rect class="cls-2" x="3.5" y="3.5" width="224.49" height="224.49"/>
        </g>
        <rect class="cls-2" x="3.5" y="3.5" width="224.49" height="224.49" rx="18.06" ry="18.06"/>
      </g>
      <polyline class="cls-3" points="127.42 49.67 164.01 49.67 173.62 88.4 160.21 88.4 154.47 62.69 130.81 62.69"/>
      <path class="cls-3" d="M116.61,43.4h-5.15c-1.94,0-3.64,1.3-4.14,3.18l-7.59,25.34h33.74l-7.59-25.34c-.5-1.87-2.2-3.18-4.14-3.18h-5.15v-11.16"/>
      <path class="cls-3" d="M116.61,71.93h-18.03c-4.54,0-8.22,3.68-8.22,8.21v17.58h52.49"/>
      <path class="cls-3" d="M142.85,97.71v-17.57c0-4.54-3.68-8.22-8.21-8.22h-18.03"/>
      <rect class="cls-9" x="94.26" y="53.06" width="10.15" height="2.78"/>
      <polygon class="cls-3" points="93.85 61.18 70.3 58.69 70.3 50.22 93.85 47.73 93.85 61.18"/>
      <polygon class="cls-9" points="175.4 89.79 159.1 89.79 153.36 64.08 130.8 64.08 130.8 61.3 155.58 61.3 161.32 87.01 171.85 87.01 162.92 51.06 127.42 51.06 127.42 48.28 165.1 48.28 175.4 89.79"/>
      <path class="cls-9" d="M135.35,73.31h-37.48l8.13-27.13c.65-2.44,2.9-4.17,5.47-4.17h3.76v-9.77h2.78v9.77h3.76c2.56,0,4.82,1.73,5.48,4.21l8.11,27.09ZM101.6,70.54h30.01l-7.05-23.56c-.35-1.3-1.5-2.19-2.81-2.19h-10.29c-1.31,0-2.46.88-2.79,2.15l-7.07,23.6Z"/>
      <path class="cls-9" d="M142.85,99.1h-53.88v-18.96c0-5.3,4.31-9.6,9.61-9.6h18.03v2.78h-18.03c-3.76,0-6.83,3.06-6.83,6.83v16.19h51.1v2.78Z"/>
      <path class="cls-9" d="M144.24,97.71h-2.78v-17.57c0-3.76-3.06-6.83-6.83-6.83h-18.03v-2.78h18.03c5.29,0,9.6,4.31,9.6,9.61v17.57Z"/>
      <path class="cls-9" d="M95.24,62.72l-26.33-2.78v-10.97l26.33-2.78v16.53ZM71.69,57.44l20.77,2.2v-10.36l-20.77,2.2v5.97Z"/>
      <rect class="cls-9" x="38.74" y="53.06" width="21.63" height="2.78"/>
      <rect class="cls-9" x="53.57" y="38.17" width="2.78" height="11.76" transform="translate(-7.11 77.33) rotate(-66.91)"/>
      <rect class="cls-9" x="49.09" y="63.47" width="11.76" height="2.78" transform="translate(-21.05 26.78) rotate(-23.11)"/>
      <path class="cls-8" d="M116.61,95.34h-14.67c-14.81,0-26.81,12-26.81,26.81v60.63c0,7.26,5.88,13.14,13.14,13.14h28.34"/>
      <path class="cls-8" d="M116.61,95.34h14.67c14.81,0,26.81,12,26.81,26.81v60.63c0,7.26-5.88,13.14-13.14,13.14h-28.34"/>
      <path class="cls-1" d="M131.28,96.67h-29.33c-13.36,0-24.32,10.34-25.37,23.43h80.08c-1.05-13.09-12.02-23.43-25.37-23.43Z"/>
      <path class="cls-9" d="M131.28,96.67c13.36,0,24.32,10.34,25.37,23.43h2.67c-1.06-14.56-13.21-26.09-28.04-26.09h-14.67v2.67h14.67Z"/>
      <path class="cls-9" d="M101.94,96.67h14.67v-2.67h-14.67c-14.83,0-26.98,11.53-28.04,26.09h2.67c1.05-13.09,12.02-23.43,25.37-23.43Z"/>
      <path class="cls-7" d="M156.75,182.78v-54.88l-11.8,3.2c-10.21,2.77-20.65,4.16-31.15,4.16-3.84,0-7.69-.18-11.53-.56l-25.8-2.5v50.57c0,6.51,5.3,11.81,11.81,11.81h56.67c6.51,0,11.81-5.3,11.81-11.81Z"/>
      <path class="cls-9" d="M156.75,122.14v2.99l.98-.27.7,2.57-1.68.46v54.88c0,6.51-5.3,11.81-11.81,11.81h-28.34v2.67h28.34c7.98,0,14.47-6.49,14.47-14.47v-60.63c0-.69-.05-1.37-.1-2.05h-2.67c.05.68.1,1.36.1,2.05Z"/>
      <path class="cls-9" d="M73.8,182.78c0,7.98,6.49,14.47,14.47,14.47h28.34v-2.67h-28.34c-6.51,0-11.81-5.3-11.81-11.81v-50.57l-1.46-.14.26-2.66,1.21.12v-7.38c0-.69.05-1.37.1-2.05h-2.67c-.05.68-.1,1.36-.1,2.05v60.63Z"/>
      <path class="cls-9" d="M113.8,135.26c10.51,0,20.94-1.39,31.15-4.16l11.8-3.2v-2.76l-12.49,3.39c-13.63,3.69-27.66,4.88-41.73,3.52l-26.06-2.52v2.68l25.8,2.5c3.85.37,7.7.56,11.53.56Z"/>
      <polygon class="cls-9" points="158.43 127.44 157.74 124.87 156.75 125.14 156.75 127.9 158.43 127.44"/>
      <polygon class="cls-9" points="75.26 129.41 75.01 132.07 76.47 132.21 76.47 129.53 75.26 129.41"/>
      <circle class="cls-5" cx="114.52" cy="170.47" r="2.45"/>
      <circle class="cls-5" cx="144.61" cy="143.73" r="4.17"/>
      <circle class="cls-5" cx="87.67" cy="142.33" r="2.09"/>
      <path class="cls-4" d="M118.04,166.59l-6.57-1.74c-3.3-.88-6.75-.73-9.97.44l-3.52,1.27,17.94,17.93,18.8-18.78-8.83,1.32c-2.63.4-5.27.25-7.84-.43Z"/>
      <path class="cls-9" d="M137.26,149.23c-4.89-4.89-12.85-4.89-17.75,0l-3.61,3.61-3.6-3.61c-4.89-4.89-12.85-4.88-17.73,0-2.37,2.37-3.68,5.52-3.68,8.86s1.31,6.49,3.68,8.87l21.34,21.33,21.35-21.33c.58-.58,1.09-1.2,1.54-1.87l-4.09.61-18.8,18.78-17.94-17.93-1.99.72-.91-2.53.89-.32c-1.51-1.78-2.37-3.98-2.37-6.33,0-2.63,1.02-5.1,2.89-6.96,1.92-1.92,4.44-2.88,6.96-2.88s5.04.96,6.96,2.88l5.51,5.51,5.51-5.51c3.84-3.84,10.1-3.84,13.95,0,1.86,1.85,2.89,4.32,2.89,6.96,0,1.62-.43,3.15-1.15,4.54l1.35-.2.39,2.63c1.37-2.04,2.1-4.44,2.1-6.96,0-3.36-1.31-6.51-3.68-8.86Z"/>
      <path class="cls-9" d="M137.09,162.63l-11.61,1.73c-2.27.34-4.54.21-6.75-.38l-6.57-1.74c-3.84-1.02-7.84-.84-11.58.51l-4.63,1.67c.18.21.32.44.52.63l1.5,1.5,3.52-1.27c3.22-1.16,6.67-1.31,9.97-.44l6.57,1.74c2.57.69,5.21.83,7.84.43l8.83-1.32.65-.65c.72-.72,1.27-1.55,1.73-2.42Z"/>
      <path class="cls-9" d="M138.84,165.09v-.03s-.03.03-.04.04h.04Z"/>
      <path class="cls-9" d="M137.09,162.63c-.46.88-1.01,1.71-1.73,2.42l-.65.65,4.09-.61s.02-.03.03-.04l-.39-2.63-1.35.2Z"/>
      <path class="cls-9" d="M95.95,164.43l-.89.32.91,2.53,1.99-.72-1.5-1.5c-.2-.2-.34-.42-.52-.63Z"/>
      <circle class="cls-5" cx="99.34" cy="187.05" r="2.45"/>
      <circle class="cls-5" cx="92.46" cy="183.05" r="2.09"/>
    </g>
  </g>
</svg>