<?xml version="1.0" encoding="UTF-8"?>
<svg id="Layer_2" data-name="Layer 2" xmlns="http://www.w3.org/2000/svg" xmlns:xlink="http://www.w3.org/1999/xlink" viewBox="0 0 154.69 154.69">
  <defs>
    <style>
      .cls-1 {
        fill: #ed4423;
      }

      .cls-2 {
        clip-path: url(#clippath-6);
      }

      .cls-3 {
        fill: #832619;
      }

      .cls-4 {
        clip-path: url(#clippath);
      }
    </style>
    <clipPath id="clippath">
      <rect class="cls-1" width="154.69" height="154.69" rx="12.44" ry="12.44"/>
    </clipPath>
    <clipPath id="clippath-6">
      <rect class="cls-1" width="154.69" height="154.69" rx="12.44" ry="12.44"/>
    </clipPath>
  </defs>
  <g id="Layer_1-2" data-name="Layer 1">
    <g>
      <g>
        <g>
          <rect class="cls-1" width="154.69" height="154.69" rx="12.44" ry="12.44"/>
          <g class="cls-4">
            <g>
              <rect class="cls-1" x="0" y="0" width="154.68" height="154.68"/>
              <rect class="cls-1" x="0" y="0" width="154.69" height="154.68"/>
              <rect class="cls-1" x="0" y="0" width="154.69" height="154.68"/>
              <rect class="cls-1" x="0" y="0" width="154.69" height="154.68"/>
              <rect class="cls-1" x="0" y="0" width="154.69" height="154.68"/>
              <rect class="cls-1" x="0" y="0" width="154.69" height="154.68"/>
            </g>
          </g>
        </g>
        <g>
          <rect class="cls-1" width="154.69" height="154.69" rx="12.44" ry="12.44"/>
          <g class="cls-2">
            <g>
              <rect class="cls-1" x="0" y="0" width="154.68" height="154.68"/>
              <rect class="cls-1" x="0" y="0" width="154.69" height="154.68"/>
              <rect class="cls-1" x="0" y="0" width="154.69" height="154.68"/>
              <rect class="cls-1" x="0" y="0" width="154.69" height="154.68"/>
              <rect class="cls-1" x="0" y="0" width="154.69" height="154.68"/>
              <rect class="cls-1" x="0" y="0" width="154.69" height="154.68"/>
            </g>
          </g>
        </g>
      </g>
      <g>
        <path class="cls-3" d="M67.91,36.6c0,9.2,3.6,17.55,9.43,23.77,5.83-6.23,9.43-14.57,9.43-23.77s-3.59-17.55-9.43-23.77c-5.83,6.23-9.43,14.57-9.43,23.77"/>
        <path class="cls-3" d="M99.49,41.87c-6.51,6.51-9.86,14.95-10.14,23.48,8.53-.28,16.97-3.64,23.48-10.14,6.51-6.51,9.86-14.95,10.14-23.48-8.52.28-16.97,3.64-23.48,10.14"/>
        <path class="cls-3" d="M118.09,67.92c-9.2,0-17.55,3.6-23.77,9.43,6.23,5.83,14.57,9.43,23.77,9.43s17.55-3.59,23.77-9.43c-6.23-5.83-14.57-9.43-23.77-9.43"/>
        <path class="cls-3" d="M112.82,99.49c-6.51-6.51-14.95-9.86-23.48-10.14.28,8.53,3.64,16.97,10.14,23.48,6.51,6.51,14.95,9.86,23.48,10.14-.28-8.52-3.64-16.97-10.14-23.48"/>
        <path class="cls-3" d="M86.77,118.09c0-9.2-3.6-17.55-9.43-23.77-5.83,6.23-9.43,14.57-9.43,23.77s3.59,17.55,9.43,23.77c5.83-6.23,9.43-14.57,9.43-23.77"/>
        <path class="cls-3" d="M55.2,112.82c6.51-6.51,9.86-14.95,10.14-23.48-8.53.28-16.97,3.64-23.48,10.14-6.51,6.51-9.86,14.95-10.14,23.48,8.52-.28,16.97-3.64,23.48-10.14"/>
        <path class="cls-3" d="M36.6,86.77c9.2,0,17.55-3.6,23.77-9.43-6.23-5.83-14.57-9.43-23.77-9.43s-17.55,3.59-23.77,9.43c6.23,5.83,14.57,9.43,23.77,9.43"/>
        <path class="cls-3" d="M41.87,55.2c6.51,6.51,14.95,9.86,23.48,10.14-.28-8.53-3.64-16.97-10.14-23.48-6.51-6.51-14.95-9.86-23.48-10.14.28,8.52,3.64,16.97,10.14,23.48"/>
        <path class="cls-3" d="M89.59,77.35c0,6.76-5.48,12.25-12.25,12.25s-12.25-5.48-12.25-12.25,5.48-12.25,12.25-12.25,12.25,5.48,12.25,12.25"/>
      </g>
    </g>
  </g>
</svg>