<?xml version="1.0" encoding="UTF-8"?>
<svg id="Layer_2" data-name="Layer 2" xmlns="http://www.w3.org/2000/svg" viewBox="0 0 692 42.22">
  <defs>
    <style>
      .cls-1 {
        fill: #ed4423;
      }
    </style>
  </defs>
  <g id="Layer_1-2" data-name="Layer 1">
    <g>
      <path class="cls-1" d="M23.78,32.71h-13.8l-1.97,8.7H0L9.69.81h14.38l9.69,40.6h-8l-1.97-8.7ZM11.6,25.4h10.5l-4.7-20.76h-1.04l-4.76,20.76Z"/>
      <path class="cls-1" d="M37.18.81h7.89l7.95,36.77h1.04L62,.81h7.89l-9.16,40.6h-14.38L37.18.81Z"/>
      <path class="cls-1" d="M75.23,16.59c0-5.26,1.32-9.34,3.97-12.24,2.65-2.9,6.31-4.35,10.99-4.35s8.34,1.45,10.99,4.35c2.65,2.9,3.97,6.98,3.97,12.24v9.05c0,5.41-1.33,9.53-3.97,12.35-2.65,2.82-6.31,4.23-10.99,4.23s-8.34-1.41-10.99-4.23c-2.65-2.82-3.97-6.94-3.97-12.35v-9.05ZM90.19,35.26c1.39,0,2.55-.22,3.48-.67.93-.44,1.68-1.07,2.26-1.88.58-.81.99-1.78,1.22-2.9s.35-2.36.35-3.71v-9.98c0-1.28-.14-2.47-.41-3.6-.27-1.12-.7-2.09-1.28-2.9-.58-.81-1.33-1.46-2.26-1.94-.93-.48-2.05-.73-3.36-.73s-2.44.24-3.36.73-1.68,1.13-2.26,1.94c-.58.81-1.01,1.78-1.28,2.9-.27,1.12-.41,2.32-.41,3.6v9.98c0,1.35.12,2.59.35,3.71.23,1.12.64,2.09,1.22,2.9.58.81,1.33,1.44,2.26,1.88.93.45,2.09.67,3.48.67Z"/>
      <path class="cls-1" d="M113.27.81h27.14v7.31h-9.74v25.98h9.74v7.31h-27.14v-7.31h9.74V8.12h-9.74V.81Z"/>
      <path class="cls-1" d="M148.42.81h14.73c5.03,0,8.76,1.17,11.19,3.51,2.44,2.34,3.65,5.96,3.65,10.88v11.83c0,4.91-1.22,8.54-3.65,10.88-2.44,2.34-6.17,3.51-11.19,3.51h-14.73v-7.37h3.83V8.12h-3.83V.81ZM163.15,34.1c2.67,0,4.53-.63,5.6-1.89,1.06-1.26,1.59-3.22,1.59-5.89v-11.14c0-2.32-.53-4.08-1.59-5.28-1.06-1.2-2.93-1.8-5.6-1.8h-3.25v25.98h3.25Z"/>
      <path class="cls-1" d="M220.46.81h7.89l7.95,36.77h1.04L245.28.81h7.89l-9.16,40.6h-14.38L220.46.81Z"/>
      <path class="cls-1" d="M259.9.81h27.14v7.31h-9.74v25.98h9.74v7.31h-27.14v-7.31h9.74V8.12h-9.74V.81Z"/>
      <path class="cls-1" d="M315.64,37.58h1.04V.81h7.66v40.6h-14.96l-4.76-36.77h-1.04v36.77h-7.66V.81h14.96l4.76,36.77Z"/>
      <path class="cls-1" d="M333.79.81h25.64v7.31h-17.98v9.28h17.28v7.31h-17.28v9.4h18.68v7.31h-26.33V.81Z"/>
      <path class="cls-1" d="M403.62.81h13.46l2.32,30.51v5.92h1.39v-5.92l2.32-30.51h13.46v40.6h-6.96V14.27l.7-9.28h-1.39l-3.02,36.42h-11.48l-3.13-36.42h-1.39l.7,9.28v27.14h-6.96V.81Z"/>
      <path class="cls-1" d="M441.79,16.59c0-5.26,1.32-9.34,3.97-12.24,2.65-2.9,6.31-4.35,10.99-4.35s8.34,1.45,10.99,4.35c2.65,2.9,3.97,6.98,3.97,12.24v9.05c0,5.41-1.33,9.53-3.97,12.35-2.65,2.82-6.31,4.23-10.99,4.23s-8.34-1.41-10.99-4.23c-2.65-2.82-3.97-6.94-3.97-12.35v-9.05ZM456.75,35.26c1.39,0,2.55-.22,3.48-.67.93-.44,1.68-1.07,2.26-1.88.58-.81.99-1.78,1.22-2.9s.35-2.36.35-3.71v-9.98c0-1.28-.14-2.47-.41-3.6-.27-1.12-.7-2.09-1.28-2.9-.58-.81-1.33-1.46-2.26-1.94-.93-.48-2.05-.73-3.36-.73s-2.44.24-3.36.73-1.68,1.13-2.26,1.94c-.58.81-1.01,1.78-1.28,2.9-.27,1.12-.41,2.32-.41,3.6v9.98c0,1.35.12,2.59.35,3.71.23,1.12.64,2.09,1.22,2.9.58.81,1.33,1.44,2.26,1.88.93.45,2.09.67,3.48.67Z"/>
      <path class="cls-1" d="M498.92,37.58h1.04V.81h7.66v40.6h-14.96l-4.76-36.77h-1.04v36.77h-7.66V.81h14.96l4.76,36.77Z"/>
      <path class="cls-1" d="M537.02,13.22c0-1.62-.63-3.03-1.88-4.23-1.26-1.2-3.03-1.8-5.31-1.8-1.93,0-3.46.4-4.58,1.19-1.12.79-1.68,1.87-1.68,3.22,0,.7.13,1.32.41,1.88.27.56.74,1.06,1.42,1.51.68.45,1.57.84,2.67,1.19,1.1.35,2.5.68,4.21.99,4.25.77,7.5,2.07,9.74,3.89,2.24,1.82,3.36,4.5,3.36,8.06v.7c0,1.89-.34,3.61-1.01,5.13-.68,1.53-1.65,2.83-2.93,3.92-1.28,1.08-2.82,1.91-4.64,2.49s-3.87.87-6.15.87c-2.67,0-5.02-.38-7.05-1.13-2.03-.75-3.72-1.8-5.08-3.13-1.35-1.33-2.38-2.9-3.07-4.7-.7-1.8-1.04-3.76-1.04-5.89v-1.74h7.66v1.39c0,2.44.71,4.38,2.12,5.83,1.41,1.45,3.6,2.17,6.58,2.17,2.32,0,4.04-.5,5.16-1.51,1.12-1,1.68-2.2,1.68-3.6,0-.66-.12-1.29-.35-1.88-.23-.6-.64-1.14-1.22-1.62-.58-.48-1.37-.92-2.38-1.3-1.01-.39-2.28-.71-3.83-.99-2.05-.35-3.92-.8-5.63-1.36-1.7-.56-3.18-1.3-4.44-2.23-1.26-.93-2.23-2.09-2.93-3.48-.7-1.39-1.04-3.09-1.04-5.1v-.35c0-1.66.34-3.2,1.01-4.61.68-1.41,1.62-2.64,2.84-3.68,1.22-1.04,2.69-1.86,4.41-2.44,1.72-.58,3.64-.87,5.77-.87,2.4,0,4.52.34,6.38,1.01,1.86.68,3.41,1.6,4.67,2.76,1.26,1.16,2.2,2.49,2.84,4,.64,1.51.96,3.09.96,4.76v2.09h-7.66v-1.39Z"/>
      <path class="cls-1" d="M552.1.81h29.23v7.31h-10.79v33.29h-7.66V8.12h-10.79V.81Z"/>
      <path class="cls-1" d="M590.38.81h25.64v7.31h-17.98v9.28h17.28v7.31h-17.28v9.4h18.68v7.31h-26.33V.81Z"/>
      <path class="cls-1" d="M653.78,41.41h-7.66v-12.18c0-.93-.24-1.68-.72-2.26-.48-.58-1.29-.87-2.41-.87h-8.82v15.31h-7.66V.81h15.54c2.09,0,3.92.29,5.51.87,1.58.58,2.91,1.38,3.97,2.41,1.06,1.03,1.88,2.21,2.44,3.57.56,1.35.84,2.8.84,4.35v1.39c0,1.66-.45,3.22-1.33,4.67-.89,1.45-2.26,2.56-4.12,3.33v1.04c1.35.16,2.43.68,3.22,1.57.79.89,1.19,2.01,1.19,3.36v14.04ZM634.17,18.79h7.31c1.86,0,3.27-.43,4.23-1.3s1.45-2.1,1.45-3.68v-.7c0-1.35-.48-2.52-1.45-3.51-.97-.99-2.38-1.48-4.23-1.48h-7.31v10.67Z"/>
      <path class="cls-1" d="M683.65,13.22c0-1.62-.63-3.03-1.88-4.23-1.26-1.2-3.03-1.8-5.31-1.8-1.93,0-3.46.4-4.58,1.19-1.12.79-1.68,1.87-1.68,3.22,0,.7.13,1.32.41,1.88.27.56.74,1.06,1.42,1.51.68.45,1.57.84,2.67,1.19,1.1.35,2.5.68,4.21.99,4.25.77,7.5,2.07,9.74,3.89,2.24,1.82,3.36,4.5,3.36,8.06v.7c0,1.89-.34,3.61-1.01,5.13-.68,1.53-1.65,2.83-2.93,3.92-1.28,1.08-2.82,1.91-4.64,2.49s-3.87.87-6.15.87c-2.67,0-5.02-.38-7.05-1.13-2.03-.75-3.72-1.8-5.08-3.13-1.35-1.33-2.38-2.9-3.07-4.7-.7-1.8-1.04-3.76-1.04-5.89v-1.74h7.66v1.39c0,2.44.71,4.38,2.12,5.83,1.41,1.45,3.6,2.17,6.58,2.17,2.32,0,4.04-.5,5.16-1.51,1.12-1,1.68-2.2,1.68-3.6,0-.66-.12-1.29-.35-1.88-.23-.6-.64-1.14-1.22-1.62-.58-.48-1.37-.92-2.38-1.3-1.01-.39-2.28-.71-3.83-.99-2.05-.35-3.92-.8-5.63-1.36-1.7-.56-3.18-1.3-4.44-2.23-1.26-.93-2.23-2.09-2.93-3.48-.7-1.39-1.04-3.09-1.04-5.1v-.35c0-1.66.34-3.2,1.01-4.61.68-1.41,1.62-2.64,2.84-3.68,1.22-1.04,2.69-1.86,4.41-2.44,1.72-.58,3.64-.87,5.77-.87,2.4,0,4.52.34,6.38,1.01,1.86.68,3.41,1.6,4.67,2.76,1.26,1.16,2.2,2.49,2.84,4,.64,1.51.96,3.09.96,4.76v2.09h-7.66v-1.39Z"/>
    </g>
  </g>
</svg>