<?xml version="1.0" encoding="UTF-8"?>
<svg id="Layer_2" xmlns="http://www.w3.org/2000/svg" xmlns:xlink="http://www.w3.org/1999/xlink" version="1.1" viewBox="0 0 696.6 875.8">
  <!-- Generator: Adobe Illustrator 30.1.0, SVG Export Plug-In . SVG Version: 2.1.1 Build 136)  -->
  <defs>
    <style>
      .st0, .st1, .st2, .st3 {
        fill: none;
      }

      .st1, .st2, .st3, .st4 {
        stroke-miterlimit: 10;
      }

      .st1, .st4 {
        stroke: #071b1e;
        stroke-width: 3px;
      }

      .st2 {
        stroke-width: 7px;
      }

      .st2, .st3 {
        stroke: #f7b52c;
      }

      .st3 {
        stroke-width: 4.4px;
      }

      .st5 {
        clip-path: url(#clippath-17);
      }

      .st6 {
        clip-path: url(#clippath-19);
      }

      .st7 {
        clip-path: url(#clippath-11);
      }

      .st8 {
        clip-path: url(#clippath-16);
      }

      .st9 {
        clip-path: url(#clippath-18);
      }

      .st10 {
        clip-path: url(#clippath-10);
      }

      .st11 {
        clip-path: url(#clippath-15);
      }

      .st12 {
        clip-path: url(#clippath-13);
      }

      .st13 {
        clip-path: url(#clippath-14);
      }

      .st14 {
        clip-path: url(#clippath-12);
      }

      .st15 {
        clip-path: url(#clippath-31);
      }

      .st16 {
        clip-path: url(#clippath-32);
      }

      .st17 {
        clip-path: url(#clippath-33);
      }

      .st18 {
        clip-path: url(#clippath-34);
      }

      .st19 {
        clip-path: url(#clippath-35);
      }

      .st20 {
        clip-path: url(#clippath-39);
      }

      .st21 {
        clip-path: url(#clippath-30);
      }

      .st22 {
        clip-path: url(#clippath-36);
      }

      .st23 {
        clip-path: url(#clippath-37);
      }

      .st24 {
        clip-path: url(#clippath-38);
      }

      .st25 {
        clip-path: url(#clippath-27);
      }

      .st26 {
        clip-path: url(#clippath-29);
      }

      .st27 {
        clip-path: url(#clippath-26);
      }

      .st28 {
        clip-path: url(#clippath-28);
      }

      .st29 {
        clip-path: url(#clippath-20);
      }

      .st30 {
        clip-path: url(#clippath-21);
      }

      .st31 {
        clip-path: url(#clippath-22);
      }

      .st32 {
        clip-path: url(#clippath-23);
      }

      .st33 {
        clip-path: url(#clippath-24);
      }

      .st34 {
        clip-path: url(#clippath-25);
      }

      .st35 {
        clip-path: url(#clippath-41);
      }

      .st36 {
        clip-path: url(#clippath-40);
      }

      .st37 {
        clip-path: url(#clippath-1);
      }

      .st38 {
        clip-path: url(#clippath-3);
      }

      .st39 {
        clip-path: url(#clippath-4);
      }

      .st40 {
        clip-path: url(#clippath-2);
      }

      .st41 {
        clip-path: url(#clippath-7);
      }

      .st42 {
        clip-path: url(#clippath-6);
      }

      .st43 {
        clip-path: url(#clippath-9);
      }

      .st44 {
        clip-path: url(#clippath-8);
      }

      .st45 {
        clip-path: url(#clippath-5);
      }

      .st46, .st4 {
        fill: #071b1e;
      }

      .st47 {
        fill: #6fb260;
      }

      .st48 {
        fill: #f6e8d4;
      }

      .st49 {
        clip-path: url(#clippath);
      }
    </style>
    <clipPath id="clippath">
      <rect class="st0" x="2.2" y="2.2" width="154.7" height="154.7" rx="12.4" ry="12.4"/>
    </clipPath>
    <clipPath id="clippath-1">
      <rect class="st0" x="2.2" y="2.2" width="154.7" height="154.7" rx="12.4" ry="12.4"/>
    </clipPath>
    <clipPath id="clippath-2">
      <rect class="st0" x="181.4" y="2.2" width="154.7" height="154.7" rx="12.4" ry="12.4"/>
    </clipPath>
    <clipPath id="clippath-3">
      <rect class="st0" x="181.4" y="2.2" width="154.7" height="154.7" rx="12.4" ry="12.4"/>
    </clipPath>
    <clipPath id="clippath-4">
      <rect class="st0" x="360.5" y="2.2" width="154.7" height="154.7" rx="12.4" ry="12.4"/>
    </clipPath>
    <clipPath id="clippath-5">
      <rect class="st0" x="360.5" y="2.2" width="154.7" height="154.7" rx="12.4" ry="12.4"/>
    </clipPath>
    <clipPath id="clippath-6">
      <rect class="st0" x="539.7" y="2.2" width="154.7" height="154.7" rx="12.4" ry="12.4"/>
    </clipPath>
    <clipPath id="clippath-7">
      <rect class="st0" x="539.7" y="2.2" width="154.7" height="154.7" rx="12.4" ry="12.4"/>
    </clipPath>
    <clipPath id="clippath-8">
      <rect class="st0" x="2.2" y="181.4" width="154.7" height="154.7" rx="12.4" ry="12.4"/>
    </clipPath>
    <clipPath id="clippath-9">
      <rect class="st0" x="2.2" y="181.4" width="154.7" height="154.7" rx="12.4" ry="12.4"/>
    </clipPath>
    <clipPath id="clippath-10">
      <rect class="st0" x="537" y="181.4" width="154.7" height="154.7" rx="12.4" ry="12.4"/>
    </clipPath>
    <clipPath id="clippath-11">
      <rect class="st0" x="537" y="181.4" width="154.7" height="154.7" rx="12.4" ry="12.4"/>
    </clipPath>
    <clipPath id="clippath-12">
      <rect class="st0" x="2.2" y="360.5" width="154.7" height="154.7" rx="12.4" ry="12.4"/>
    </clipPath>
    <clipPath id="clippath-13">
      <rect class="st0" x="2.2" y="360.5" width="154.7" height="154.7" rx="12.4" ry="12.4"/>
    </clipPath>
    <clipPath id="clippath-14">
      <rect class="st0" x="539.7" y="360.5" width="154.7" height="154.7" rx="12.4" ry="12.4"/>
    </clipPath>
    <clipPath id="clippath-15">
      <rect class="st0" x="539.7" y="360.5" width="154.7" height="154.7" rx="12.4" ry="12.4"/>
    </clipPath>
    <clipPath id="clippath-16">
      <rect class="st0" x="2.2" y="539.7" width="154.7" height="154.7" rx="12.4" ry="12.4"/>
    </clipPath>
    <clipPath id="clippath-17">
      <rect class="st0" x="2.2" y="539.7" width="154.7" height="154.7" rx="12.4" ry="12.4"/>
    </clipPath>
    <clipPath id="clippath-18">
      <rect class="st0" x="539.7" y="539.7" width="154.7" height="154.7" rx="12.4" ry="12.4"/>
    </clipPath>
    <clipPath id="clippath-19">
      <rect class="st0" x="539.7" y="539.7" width="154.7" height="154.7" rx="12.4" ry="12.4"/>
    </clipPath>
    <clipPath id="clippath-20">
      <rect class="st0" x="2.2" y="718.8" width="154.7" height="154.7" rx="12.4" ry="12.4"/>
    </clipPath>
    <clipPath id="clippath-21">
      <rect class="st0" x="2.2" y="718.8" width="154.7" height="154.7" rx="12.4" ry="12.4"/>
    </clipPath>
    <clipPath id="clippath-22">
      <rect class="st0" x="181.4" y="718.8" width="154.7" height="154.7" rx="12.4" ry="12.4"/>
    </clipPath>
    <clipPath id="clippath-23">
      <rect class="st0" x="181.4" y="718.8" width="154.7" height="154.7" rx="12.4" ry="12.4"/>
    </clipPath>
    <clipPath id="clippath-24">
      <rect class="st0" x="360.5" y="718.8" width="154.7" height="154.7" rx="12.4" ry="12.4"/>
    </clipPath>
    <clipPath id="clippath-25">
      <rect class="st0" x="360.5" y="718.8" width="154.7" height="154.7" rx="12.4" ry="12.4"/>
    </clipPath>
    <clipPath id="clippath-26">
      <rect class="st0" x="539.7" y="718.8" width="154.7" height="154.7" rx="12.4" ry="12.4"/>
    </clipPath>
    <clipPath id="clippath-27">
      <rect class="st0" x="539.7" y="718.8" width="154.7" height="154.7" rx="12.4" ry="12.4"/>
    </clipPath>
    <clipPath id="clippath-28">
      <rect class="st0" x="2.2" y="2.2" width="154.7" height="154.7" rx="12.4" ry="12.4"/>
    </clipPath>
    <clipPath id="clippath-29">
      <rect class="st0" x="181.4" y="2.2" width="154.7" height="154.7" rx="12.4" ry="12.4"/>
    </clipPath>
    <clipPath id="clippath-30">
      <rect class="st0" x="360.5" y="2.2" width="154.7" height="154.7" rx="12.4" ry="12.4"/>
    </clipPath>
    <clipPath id="clippath-31">
      <rect class="st0" x="539.7" y="2.2" width="154.7" height="154.7" rx="12.4" ry="12.4"/>
    </clipPath>
    <clipPath id="clippath-32">
      <rect class="st0" x="2.2" y="718.8" width="154.7" height="154.7" rx="12.4" ry="12.4"/>
    </clipPath>
    <clipPath id="clippath-33">
      <rect class="st0" x="181.4" y="718.8" width="154.7" height="154.7" rx="12.4" ry="12.4"/>
    </clipPath>
    <clipPath id="clippath-34">
      <rect class="st0" x="360.5" y="718.8" width="154.7" height="154.7" rx="12.4" ry="12.4"/>
    </clipPath>
    <clipPath id="clippath-35">
      <rect class="st0" x="539.7" y="718.8" width="154.7" height="154.7" rx="12.4" ry="12.4"/>
    </clipPath>
    <clipPath id="clippath-36">
      <rect class="st0" x="2.2" y="181.4" width="154.7" height="154.7" rx="12.4" ry="12.4"/>
    </clipPath>
    <clipPath id="clippath-37">
      <rect class="st0" x="2.2" y="360.5" width="154.7" height="154.7" rx="12.4" ry="12.4"/>
    </clipPath>
    <clipPath id="clippath-38">
      <rect class="st0" x="539.7" y="360.5" width="154.7" height="154.7" rx="12.4" ry="12.4"/>
    </clipPath>
    <clipPath id="clippath-39">
      <rect class="st0" x="2.2" y="539.7" width="154.7" height="154.7" rx="12.4" ry="12.4"/>
    </clipPath>
    <clipPath id="clippath-40">
      <rect class="st0" x="539.7" y="539.7" width="154.7" height="154.7" rx="12.4" ry="12.4"/>
    </clipPath>
    <clipPath id="clippath-41">
      <rect class="st0" x="537.7" y="181.4" width="154.7" height="154.7" rx="12.4" ry="12.4"/>
    </clipPath>
  </defs>
  <rect class="st46" x="2.2" y="2.2" width="154.7" height="154.7" rx="12.4" ry="12.4"/>
  <g class="st49">
    <rect class="st46" x="2.2" y="2.2" width="154.7" height="154.7"/>
    <rect class="st1" x="2.2" y="2.2" width="154.7" height="154.7"/>
    <rect class="st4" x="2.2" y="2.2" width="154.7" height="154.7"/>
    <rect class="st46" x="2.2" y="2.2" width="154.7" height="154.7"/>
    <rect class="st1" x="2.2" y="2.2" width="154.7" height="154.7"/>
    <rect class="st46" x="2.2" y="2.2" width="154.7" height="154.7"/>
    <rect class="st1" x="2.2" y="2.2" width="154.7" height="154.7"/>
    <rect class="st46" x="2.2" y="2.2" width="154.7" height="154.7"/>
    <rect class="st1" x="2.2" y="2.2" width="154.7" height="154.7"/>
    <rect class="st46" x="2.2" y="2.2" width="154.7" height="154.7"/>
    <rect class="st1" x="2.2" y="2.2" width="154.7" height="154.7"/>
  </g>
  <rect class="st1" x="2.2" y="2.2" width="154.7" height="154.7" rx="12.4" ry="12.4"/>
  <rect class="st46" x="2.2" y="2.2" width="154.7" height="154.7" rx="12.4" ry="12.4"/>
  <g class="st37">
    <rect class="st46" x="2.2" y="2.2" width="154.7" height="154.7"/>
    <rect class="st1" x="2.2" y="2.2" width="154.7" height="154.7"/>
    <rect class="st47" x="2.2" y="2.2" width="154.7" height="154.7"/>
    <rect class="st46" x="2.2" y="2.2" width="154.7" height="154.7"/>
    <rect class="st1" x="2.2" y="2.2" width="154.7" height="154.7"/>
    <rect class="st46" x="2.2" y="2.2" width="154.7" height="154.7"/>
    <rect class="st1" x="2.2" y="2.2" width="154.7" height="154.7"/>
    <rect class="st46" x="2.2" y="2.2" width="154.7" height="154.7"/>
    <rect class="st1" x="2.2" y="2.2" width="154.7" height="154.7"/>
    <rect class="st46" x="2.2" y="2.2" width="154.7" height="154.7"/>
    <rect class="st1" x="2.2" y="2.2" width="154.7" height="154.7"/>
  </g>
  <rect class="st1" x="2.2" y="2.2" width="154.7" height="154.7" rx="12.4" ry="12.4"/>
  <path class="st48" d="M70.1,38.8c0,9.2,3.6,17.5,9.4,23.8,5.8-6.2,9.4-14.6,9.4-23.8s-3.6-17.5-9.4-23.8c-5.8,6.2-9.4,14.6-9.4,23.8"/>
  <path class="st48" d="M101.7,44.1c-6.5,6.5-9.9,15-10.1,23.5,8.5-.3,17-3.6,23.5-10.1,6.5-6.5,9.9-15,10.1-23.5-8.5.3-17,3.6-23.5,10.1"/>
  <path class="st48" d="M120.3,70.1c-9.2,0-17.6,3.6-23.8,9.4,6.2,5.8,14.6,9.4,23.8,9.4s17.6-3.6,23.8-9.4c-6.2-5.8-14.6-9.4-23.8-9.4"/>
  <path class="st48" d="M115,101.7c-6.5-6.5-14.9-9.9-23.5-10.1.3,8.5,3.6,17,10.1,23.5,6.5,6.5,14.9,9.9,23.5,10.1-.3-8.5-3.6-17-10.1-23.5"/>
  <path class="st48" d="M89,120.3c0-9.2-3.6-17.6-9.4-23.8-5.8,6.2-9.4,14.6-9.4,23.8s3.6,17.6,9.4,23.8c5.8-6.2,9.4-14.6,9.4-23.8"/>
  <path class="st48" d="M57.4,115c6.5-6.5,9.9-14.9,10.1-23.5-8.5.3-17,3.6-23.5,10.1-6.5,6.5-9.9,14.9-10.1,23.5,8.5-.3,17-3.6,23.5-10.1"/>
  <path class="st48" d="M38.8,89c9.2,0,17.5-3.6,23.8-9.4-6.2-5.8-14.6-9.4-23.8-9.4s-17.5,3.6-23.8,9.4c6.2,5.8,14.6,9.4,23.8,9.4"/>
  <path class="st48" d="M44.1,57.4c6.5,6.5,15,9.9,23.5,10.1-.3-8.5-3.6-17-10.1-23.5-6.5-6.5-15-9.9-23.5-10.1.3,8.5,3.6,17,10.1,23.5"/>
  <path class="st48" d="M91.8,79.6c0,6.8-5.5,12.2-12.2,12.2s-12.2-5.5-12.2-12.2,5.5-12.2,12.2-12.2,12.2,5.5,12.2,12.2"/>
  <rect class="st46" x="181.4" y="2.2" width="154.7" height="154.7" rx="12.4" ry="12.4"/>
  <g class="st40">
    <rect class="st46" x="181.4" y="2.2" width="154.7" height="154.7"/>
    <rect class="st1" x="181.4" y="2.2" width="154.7" height="154.7"/>
    <rect class="st4" x="181.4" y="2.2" width="154.7" height="154.7"/>
    <rect class="st46" x="181.4" y="2.2" width="154.7" height="154.7"/>
    <rect class="st1" x="181.4" y="2.2" width="154.7" height="154.7"/>
    <rect class="st46" x="181.4" y="2.2" width="154.7" height="154.7"/>
    <rect class="st1" x="181.4" y="2.2" width="154.7" height="154.7"/>
    <rect class="st46" x="181.4" y="2.2" width="154.7" height="154.7"/>
    <rect class="st1" x="181.4" y="2.2" width="154.7" height="154.7"/>
    <rect class="st46" x="181.4" y="2.2" width="154.7" height="154.7"/>
    <rect class="st1" x="181.4" y="2.2" width="154.7" height="154.7"/>
  </g>
  <rect class="st1" x="181.4" y="2.2" width="154.7" height="154.7" rx="12.4" ry="12.4"/>
  <rect class="st46" x="181.4" y="2.2" width="154.7" height="154.7" rx="12.4" ry="12.4"/>
  <g class="st38">
    <rect class="st46" x="181.4" y="2.2" width="154.7" height="154.7"/>
    <rect class="st1" x="181.4" y="2.2" width="154.7" height="154.7"/>
    <rect class="st47" x="181.4" y="2.2" width="154.7" height="154.7"/>
    <rect class="st46" x="181.4" y="2.2" width="154.7" height="154.7"/>
    <rect class="st1" x="181.4" y="2.2" width="154.7" height="154.7"/>
    <rect class="st46" x="181.4" y="2.2" width="154.7" height="154.7"/>
    <rect class="st1" x="181.4" y="2.2" width="154.7" height="154.7"/>
    <rect class="st46" x="181.4" y="2.2" width="154.7" height="154.7"/>
    <rect class="st1" x="181.4" y="2.2" width="154.7" height="154.7"/>
    <rect class="st46" x="181.4" y="2.2" width="154.7" height="154.7"/>
    <rect class="st1" x="181.4" y="2.2" width="154.7" height="154.7"/>
  </g>
  <rect class="st1" x="181.4" y="2.2" width="154.7" height="154.7" rx="12.4" ry="12.4"/>
  <path class="st48" d="M249.3,38.8c0,9.2,3.6,17.5,9.4,23.8,5.8-6.2,9.4-14.6,9.4-23.8s-3.6-17.5-9.4-23.8c-5.8,6.2-9.4,14.6-9.4,23.8"/>
  <path class="st48" d="M280.9,44.1c-6.5,6.5-9.9,15-10.1,23.5,8.5-.3,17-3.6,23.5-10.1,6.5-6.5,9.9-15,10.1-23.5-8.5.3-17,3.6-23.5,10.1"/>
  <path class="st48" d="M299.5,70.1c-9.2,0-17.5,3.6-23.8,9.4,6.2,5.8,14.6,9.4,23.8,9.4s17.5-3.6,23.8-9.4c-6.2-5.8-14.6-9.4-23.8-9.4"/>
  <path class="st48" d="M294.2,101.7c-6.5-6.5-15-9.9-23.5-10.1.3,8.5,3.6,17,10.1,23.5,6.5,6.5,15,9.9,23.5,10.1-.3-8.5-3.6-17-10.1-23.5"/>
  <path class="st48" d="M268.1,120.3c0-9.2-3.6-17.6-9.4-23.8-5.8,6.2-9.4,14.6-9.4,23.8s3.6,17.6,9.4,23.8c5.8-6.2,9.4-14.6,9.4-23.8"/>
  <path class="st48" d="M236.6,115c6.5-6.5,9.9-14.9,10.1-23.5-8.5.3-17,3.6-23.5,10.1-6.5,6.5-9.9,14.9-10.1,23.5,8.5-.3,17-3.6,23.5-10.1"/>
  <path class="st48" d="M218,89c9.2,0,17.6-3.6,23.8-9.4-6.2-5.8-14.6-9.4-23.8-9.4s-17.6,3.6-23.8,9.4c6.2,5.8,14.6,9.4,23.8,9.4"/>
  <path class="st48" d="M223.2,57.4c6.5,6.5,14.9,9.9,23.5,10.1-.3-8.5-3.6-17-10.1-23.5-6.5-6.5-14.9-9.9-23.5-10.1.3,8.5,3.6,17,10.1,23.5"/>
  <path class="st48" d="M271,79.6c0,6.8-5.5,12.2-12.2,12.2s-12.2-5.5-12.2-12.2,5.5-12.2,12.2-12.2,12.2,5.5,12.2,12.2"/>
  <rect class="st46" x="360.5" y="2.2" width="154.7" height="154.7" rx="12.4" ry="12.4"/>
  <g class="st39">
    <rect class="st46" x="360.5" y="2.2" width="154.7" height="154.7"/>
    <rect class="st1" x="360.5" y="2.2" width="154.7" height="154.7"/>
    <rect class="st4" x="360.5" y="2.2" width="154.7" height="154.7"/>
    <rect class="st46" x="360.5" y="2.2" width="154.7" height="154.7"/>
    <rect class="st1" x="360.5" y="2.2" width="154.7" height="154.7"/>
    <rect class="st46" x="360.5" y="2.2" width="154.7" height="154.7"/>
    <rect class="st1" x="360.5" y="2.2" width="154.7" height="154.7"/>
    <rect class="st46" x="360.5" y="2.2" width="154.7" height="154.7"/>
    <rect class="st1" x="360.5" y="2.2" width="154.7" height="154.7"/>
    <rect class="st46" x="360.5" y="2.2" width="154.7" height="154.7"/>
    <rect class="st1" x="360.5" y="2.2" width="154.7" height="154.7"/>
  </g>
  <rect class="st1" x="360.5" y="2.2" width="154.7" height="154.7" rx="12.4" ry="12.4"/>
  <rect class="st46" x="360.5" y="2.2" width="154.7" height="154.7" rx="12.4" ry="12.4"/>
  <g class="st45">
    <rect class="st46" x="360.5" y="2.2" width="154.7" height="154.7"/>
    <rect class="st1" x="360.5" y="2.2" width="154.7" height="154.7"/>
    <rect class="st47" x="360.5" y="2.2" width="154.7" height="154.7"/>
    <rect class="st46" x="360.5" y="2.2" width="154.7" height="154.7"/>
    <rect class="st1" x="360.5" y="2.2" width="154.7" height="154.7"/>
    <rect class="st46" x="360.5" y="2.2" width="154.7" height="154.7"/>
    <rect class="st1" x="360.5" y="2.2" width="154.7" height="154.7"/>
    <rect class="st46" x="360.5" y="2.2" width="154.7" height="154.7"/>
    <rect class="st1" x="360.5" y="2.2" width="154.7" height="154.7"/>
    <rect class="st46" x="360.5" y="2.2" width="154.7" height="154.7"/>
    <rect class="st1" x="360.5" y="2.2" width="154.7" height="154.7"/>
  </g>
  <rect class="st1" x="360.5" y="2.2" width="154.7" height="154.7" rx="12.4" ry="12.4"/>
  <path class="st48" d="M428.4,38.8c0,9.2,3.6,17.5,9.4,23.8,5.8-6.2,9.4-14.6,9.4-23.8s-3.6-17.5-9.4-23.8c-5.8,6.2-9.4,14.6-9.4,23.8"/>
  <path class="st48" d="M460,44.1c-6.5,6.5-9.9,15-10.1,23.5,8.5-.3,17-3.6,23.5-10.1,6.5-6.5,9.9-15,10.1-23.5-8.5.3-17,3.6-23.5,10.1"/>
  <path class="st48" d="M478.6,70.1c-9.2,0-17.5,3.6-23.8,9.4,6.2,5.8,14.6,9.4,23.8,9.4s17.5-3.6,23.8-9.4c-6.2-5.8-14.6-9.4-23.8-9.4"/>
  <path class="st48" d="M473.4,101.7c-6.5-6.5-15-9.9-23.5-10.1.3,8.5,3.6,17,10.1,23.5,6.5,6.5,15,9.9,23.5,10.1-.3-8.5-3.6-17-10.1-23.5"/>
  <path class="st48" d="M447.3,120.3c0-9.2-3.6-17.6-9.4-23.8-5.8,6.2-9.4,14.6-9.4,23.8s3.6,17.6,9.4,23.8c5.8-6.2,9.4-14.6,9.4-23.8"/>
  <path class="st48" d="M415.7,115c6.5-6.5,9.9-14.9,10.1-23.5-8.5.3-17,3.6-23.5,10.1-6.5,6.5-9.9,14.9-10.1,23.5,8.5-.3,17-3.6,23.5-10.1"/>
  <path class="st48" d="M397.1,89c9.2,0,17.5-3.6,23.8-9.4-6.2-5.8-14.6-9.4-23.8-9.4s-17.5,3.6-23.8,9.4c6.2,5.8,14.6,9.4,23.8,9.4"/>
  <path class="st48" d="M402.4,57.4c6.5,6.5,15,9.9,23.5,10.1-.3-8.5-3.6-17-10.1-23.5-6.5-6.5-15-9.9-23.5-10.1.3,8.5,3.6,17,10.1,23.5"/>
  <path class="st48" d="M450.1,79.6c0,6.8-5.5,12.2-12.2,12.2s-12.2-5.5-12.2-12.2,5.5-12.2,12.2-12.2,12.2,5.5,12.2,12.2"/>
  <rect class="st46" x="539.7" y="2.2" width="154.7" height="154.7" rx="12.4" ry="12.4"/>
  <g class="st42">
    <rect class="st46" x="539.7" y="2.2" width="154.7" height="154.7"/>
    <rect class="st1" x="539.7" y="2.2" width="154.7" height="154.7"/>
    <rect class="st4" x="539.7" y="2.2" width="154.7" height="154.7"/>
    <rect class="st46" x="539.7" y="2.2" width="154.7" height="154.7"/>
    <rect class="st1" x="539.7" y="2.2" width="154.7" height="154.7"/>
    <rect class="st46" x="539.7" y="2.2" width="154.7" height="154.7"/>
    <rect class="st1" x="539.7" y="2.2" width="154.7" height="154.7"/>
    <rect class="st46" x="539.7" y="2.2" width="154.7" height="154.7"/>
    <rect class="st1" x="539.7" y="2.2" width="154.7" height="154.7"/>
    <rect class="st46" x="539.7" y="2.2" width="154.7" height="154.7"/>
    <rect class="st1" x="539.7" y="2.2" width="154.7" height="154.7"/>
  </g>
  <rect class="st1" x="539.7" y="2.2" width="154.7" height="154.7" rx="12.4" ry="12.4"/>
  <rect class="st46" x="539.7" y="2.2" width="154.7" height="154.7" rx="12.4" ry="12.4"/>
  <g class="st41">
    <rect class="st46" x="539.7" y="2.2" width="154.7" height="154.7"/>
    <rect class="st1" x="539.7" y="2.2" width="154.7" height="154.7"/>
    <rect class="st47" x="539.7" y="2.2" width="154.7" height="154.7"/>
    <rect class="st46" x="539.7" y="2.2" width="154.7" height="154.7"/>
    <rect class="st1" x="539.7" y="2.2" width="154.7" height="154.7"/>
    <rect class="st46" x="539.7" y="2.2" width="154.7" height="154.7"/>
    <rect class="st1" x="539.7" y="2.2" width="154.7" height="154.7"/>
    <rect class="st46" x="539.7" y="2.2" width="154.7" height="154.7"/>
    <rect class="st1" x="539.7" y="2.2" width="154.7" height="154.7"/>
    <rect class="st46" x="539.7" y="2.2" width="154.7" height="154.7"/>
    <rect class="st1" x="539.7" y="2.2" width="154.7" height="154.7"/>
  </g>
  <rect class="st1" x="539.7" y="2.2" width="154.7" height="154.7" rx="12.4" ry="12.4"/>
  <path class="st48" d="M607.6,38.8c0,9.2,3.6,17.5,9.4,23.8,5.8-6.2,9.4-14.6,9.4-23.8s-3.6-17.5-9.4-23.8c-5.8,6.2-9.4,14.6-9.4,23.8"/>
  <path class="st48" d="M639.2,44.1c-6.5,6.5-9.9,15-10.1,23.5,8.5-.3,17-3.6,23.5-10.1,6.5-6.5,9.9-15,10.1-23.5-8.5.3-17,3.6-23.5,10.1"/>
  <path class="st48" d="M657.8,70.1c-9.2,0-17.5,3.6-23.8,9.4,6.2,5.8,14.6,9.4,23.8,9.4s17.5-3.6,23.8-9.4c-6.2-5.8-14.6-9.4-23.8-9.4"/>
  <path class="st48" d="M652.5,101.7c-6.5-6.5-15-9.9-23.5-10.1.3,8.5,3.6,17,10.1,23.5,6.5,6.5,15,9.9,23.5,10.1-.3-8.5-3.6-17-10.1-23.5"/>
  <path class="st48" d="M626.5,120.3c0-9.2-3.6-17.6-9.4-23.8-5.8,6.2-9.4,14.6-9.4,23.8s3.6,17.6,9.4,23.8c5.8-6.2,9.4-14.6,9.4-23.8"/>
  <path class="st48" d="M594.9,115c6.5-6.5,9.9-14.9,10.1-23.5-8.5.3-17,3.6-23.5,10.1-6.5,6.5-9.9,14.9-10.1,23.5,8.5-.3,17-3.6,23.5-10.1"/>
  <path class="st48" d="M576.3,89c9.2,0,17.5-3.6,23.8-9.4-6.2-5.8-14.6-9.4-23.8-9.4s-17.5,3.6-23.8,9.4c6.2,5.8,14.6,9.4,23.8,9.4"/>
  <path class="st48" d="M581.6,57.4c6.5,6.5,15,9.9,23.5,10.1-.3-8.5-3.6-17-10.1-23.5-6.5-6.5-15-9.9-23.5-10.1.3,8.5,3.6,17,10.1,23.5"/>
  <path class="st48" d="M629.3,79.6c0,6.8-5.5,12.2-12.2,12.2s-12.2-5.5-12.2-12.2,5.5-12.2,12.2-12.2,12.2,5.5,12.2,12.2"/>
  <rect class="st46" x="2.2" y="181.4" width="154.7" height="154.7" rx="12.4" ry="12.4"/>
  <g class="st44">
    <rect class="st46" x="2.2" y="181.4" width="154.7" height="154.7"/>
    <rect class="st1" x="2.2" y="181.4" width="154.7" height="154.7"/>
    <rect class="st4" x="2.2" y="181.4" width="154.7" height="154.7"/>
    <rect class="st46" x="2.2" y="181.4" width="154.7" height="154.7"/>
    <rect class="st1" x="2.2" y="181.4" width="154.7" height="154.7"/>
    <rect class="st46" x="2.2" y="181.4" width="154.7" height="154.7"/>
    <rect class="st1" x="2.2" y="181.4" width="154.7" height="154.7"/>
    <rect class="st46" x="2.2" y="181.4" width="154.7" height="154.7"/>
    <rect class="st1" x="2.2" y="181.4" width="154.7" height="154.7"/>
    <rect class="st46" x="2.2" y="181.4" width="154.7" height="154.7"/>
    <rect class="st1" x="2.2" y="181.4" width="154.7" height="154.7"/>
  </g>
  <rect class="st1" x="2.2" y="181.4" width="154.7" height="154.7" rx="12.4" ry="12.4"/>
  <rect class="st46" x="2.2" y="181.4" width="154.7" height="154.7" rx="12.4" ry="12.4"/>
  <g class="st43">
    <rect class="st46" x="2.2" y="181.4" width="154.7" height="154.7"/>
    <rect class="st1" x="2.2" y="181.4" width="154.7" height="154.7"/>
    <rect class="st47" x="2.2" y="181.4" width="154.7" height="154.7"/>
    <rect class="st46" x="2.2" y="181.4" width="154.7" height="154.7"/>
    <rect class="st1" x="2.2" y="181.4" width="154.7" height="154.7"/>
    <rect class="st46" x="2.2" y="181.4" width="154.7" height="154.7"/>
    <rect class="st1" x="2.2" y="181.4" width="154.7" height="154.7"/>
    <rect class="st46" x="2.2" y="181.4" width="154.7" height="154.7"/>
    <rect class="st1" x="2.2" y="181.4" width="154.7" height="154.7"/>
    <rect class="st46" x="2.2" y="181.4" width="154.7" height="154.7"/>
    <rect class="st1" x="2.2" y="181.4" width="154.7" height="154.7"/>
  </g>
  <rect class="st1" x="2.2" y="181.4" width="154.7" height="154.7" rx="12.4" ry="12.4"/>
  <path class="st48" d="M70.1,218c0,9.2,3.6,17.6,9.4,23.8,5.8-6.2,9.4-14.6,9.4-23.8s-3.6-17.6-9.4-23.8c-5.8,6.2-9.4,14.6-9.4,23.8"/>
  <path class="st48" d="M101.7,223.2c-6.5,6.5-9.9,14.9-10.1,23.5,8.5-.3,17-3.6,23.5-10.1,6.5-6.5,9.9-14.9,10.1-23.5-8.5.3-17,3.6-23.5,10.1"/>
  <path class="st48" d="M120.3,249.3c-9.2,0-17.6,3.6-23.8,9.4,6.2,5.8,14.6,9.4,23.8,9.4s17.6-3.6,23.8-9.4c-6.2-5.8-14.6-9.4-23.8-9.4"/>
  <path class="st48" d="M115,280.9c-6.5-6.5-14.9-9.9-23.5-10.1.3,8.5,3.6,17,10.1,23.5,6.5,6.5,14.9,9.9,23.5,10.1-.3-8.5-3.6-17-10.1-23.5"/>
  <path class="st48" d="M89,299.5c0-9.2-3.6-17.5-9.4-23.8-5.8,6.2-9.4,14.6-9.4,23.8s3.6,17.5,9.4,23.8c5.8-6.2,9.4-14.6,9.4-23.8"/>
  <path class="st48" d="M57.4,294.2c6.5-6.5,9.9-15,10.1-23.5-8.5.3-17,3.6-23.5,10.1-6.5,6.5-9.9,15-10.1,23.5,8.5-.3,17-3.6,23.5-10.1"/>
  <path class="st48" d="M38.8,268.1c9.2,0,17.5-3.6,23.8-9.4-6.2-5.8-14.6-9.4-23.8-9.4s-17.5,3.6-23.8,9.4c6.2,5.8,14.6,9.4,23.8,9.4"/>
  <path class="st48" d="M44.1,236.6c6.5,6.5,15,9.9,23.5,10.1-.3-8.5-3.6-17-10.1-23.5-6.5-6.5-15-9.9-23.5-10.1.3,8.5,3.6,17,10.1,23.5"/>
  <path class="st48" d="M91.8,258.7c0,6.8-5.5,12.2-12.2,12.2s-12.2-5.5-12.2-12.2,5.5-12.2,12.2-12.2,12.2,5.5,12.2,12.2"/>
  <rect class="st46" x="537" y="181.4" width="154.7" height="154.7" rx="12.4" ry="12.4"/>
  <g class="st10">
    <rect class="st46" x="537" y="181.4" width="154.7" height="154.7"/>
    <rect class="st1" x="537" y="181.4" width="154.7" height="154.7"/>
    <rect class="st4" x="537" y="181.4" width="154.7" height="154.7"/>
    <rect class="st46" x="537" y="181.4" width="154.7" height="154.7"/>
    <rect class="st1" x="537" y="181.4" width="154.7" height="154.7"/>
    <rect class="st46" x="537" y="181.4" width="154.7" height="154.7"/>
    <rect class="st1" x="537" y="181.4" width="154.7" height="154.7"/>
    <rect class="st46" x="537" y="181.4" width="154.7" height="154.7"/>
    <rect class="st1" x="537" y="181.4" width="154.7" height="154.7"/>
    <rect class="st46" x="537" y="181.4" width="154.7" height="154.7"/>
    <rect class="st1" x="537" y="181.4" width="154.7" height="154.7"/>
  </g>
  <rect class="st1" x="537" y="181.4" width="154.7" height="154.7" rx="12.4" ry="12.4"/>
  <rect class="st46" x="537" y="181.4" width="154.7" height="154.7" rx="12.4" ry="12.4"/>
  <g class="st7">
    <rect class="st46" x="537" y="181.4" width="154.7" height="154.7"/>
    <rect class="st1" x="537" y="181.4" width="154.7" height="154.7"/>
    <rect class="st47" x="537" y="181.4" width="154.7" height="154.7"/>
    <rect class="st46" x="537" y="181.4" width="154.7" height="154.7"/>
    <rect class="st1" x="537" y="181.4" width="154.7" height="154.7"/>
    <rect class="st46" x="537" y="181.4" width="154.7" height="154.7"/>
    <rect class="st1" x="537" y="181.4" width="154.7" height="154.7"/>
    <rect class="st46" x="537" y="181.4" width="154.7" height="154.7"/>
    <rect class="st1" x="537" y="181.4" width="154.7" height="154.7"/>
    <rect class="st46" x="537" y="181.4" width="154.7" height="154.7"/>
    <rect class="st1" x="537" y="181.4" width="154.7" height="154.7"/>
  </g>
  <rect class="st1" x="537" y="181.4" width="154.7" height="154.7" rx="12.4" ry="12.4"/>
  <path class="st48" d="M605,218c0,9.2,3.6,17.6,9.4,23.8,5.8-6.2,9.4-14.6,9.4-23.8s-3.6-17.6-9.4-23.8c-5.8,6.2-9.4,14.6-9.4,23.8"/>
  <path class="st48" d="M636.5,223.2c-6.5,6.5-9.9,14.9-10.1,23.5,8.5-.3,17-3.6,23.5-10.1,6.5-6.5,9.9-14.9,10.1-23.5-8.5.3-17,3.6-23.5,10.1"/>
  <path class="st48" d="M655.1,249.3c-9.2,0-17.5,3.6-23.8,9.4,6.2,5.8,14.6,9.4,23.8,9.4s17.5-3.6,23.8-9.4c-6.2-5.8-14.6-9.4-23.8-9.4"/>
  <path class="st48" d="M649.9,280.9c-6.5-6.5-15-9.9-23.5-10.1.3,8.5,3.6,17,10.1,23.5,6.5,6.5,15,9.9,23.5,10.1-.3-8.5-3.6-17-10.1-23.5"/>
  <path class="st48" d="M623.8,299.5c0-9.2-3.6-17.5-9.4-23.8-5.8,6.2-9.4,14.6-9.4,23.8s3.6,17.5,9.4,23.8c5.8-6.2,9.4-14.6,9.4-23.8"/>
  <path class="st48" d="M592.2,294.2c6.5-6.5,9.9-15,10.1-23.5-8.5.3-17,3.6-23.5,10.1-6.5,6.5-9.9,15-10.1,23.5,8.5-.3,17-3.6,23.5-10.1"/>
  <path class="st48" d="M573.6,268.1c9.2,0,17.5-3.6,23.8-9.4-6.2-5.8-14.6-9.4-23.8-9.4s-17.5,3.6-23.8,9.4c6.2,5.8,14.6,9.4,23.8,9.4"/>
  <path class="st48" d="M578.9,236.6c6.5,6.5,15,9.9,23.5,10.1-.3-8.5-3.6-17-10.1-23.5-6.5-6.5-15-9.9-23.5-10.1.3,8.5,3.6,17,10.1,23.5"/>
  <path class="st48" d="M626.6,258.7c0,6.8-5.5,12.2-12.2,12.2s-12.2-5.5-12.2-12.2,5.5-12.2,12.2-12.2,12.2,5.5,12.2,12.2"/>
  <rect class="st46" x="2.2" y="360.5" width="154.7" height="154.7" rx="12.4" ry="12.4"/>
  <g class="st14">
    <rect class="st46" x="2.2" y="360.5" width="154.7" height="154.7"/>
    <rect class="st1" x="2.2" y="360.5" width="154.7" height="154.7"/>
    <rect class="st4" x="2.2" y="360.5" width="154.7" height="154.7"/>
    <rect class="st46" x="2.2" y="360.5" width="154.7" height="154.7"/>
    <rect class="st1" x="2.2" y="360.5" width="154.7" height="154.7"/>
    <rect class="st46" x="2.2" y="360.5" width="154.7" height="154.7"/>
    <rect class="st1" x="2.2" y="360.5" width="154.7" height="154.7"/>
    <rect class="st46" x="2.2" y="360.5" width="154.7" height="154.7"/>
    <rect class="st1" x="2.2" y="360.5" width="154.7" height="154.7"/>
    <rect class="st46" x="2.2" y="360.5" width="154.7" height="154.7"/>
    <rect class="st1" x="2.2" y="360.5" width="154.7" height="154.7"/>
  </g>
  <rect class="st1" x="2.2" y="360.5" width="154.7" height="154.7" rx="12.4" ry="12.4"/>
  <rect class="st46" x="2.2" y="360.5" width="154.7" height="154.7" rx="12.4" ry="12.4"/>
  <g class="st12">
    <rect class="st46" x="2.2" y="360.5" width="154.7" height="154.7"/>
    <rect class="st1" x="2.2" y="360.5" width="154.7" height="154.7"/>
    <rect class="st47" x="2.2" y="360.5" width="154.7" height="154.7"/>
    <rect class="st46" x="2.2" y="360.5" width="154.7" height="154.7"/>
    <rect class="st1" x="2.2" y="360.5" width="154.7" height="154.7"/>
    <rect class="st46" x="2.2" y="360.5" width="154.7" height="154.7"/>
    <rect class="st1" x="2.2" y="360.5" width="154.7" height="154.7"/>
    <rect class="st46" x="2.2" y="360.5" width="154.7" height="154.7"/>
    <rect class="st1" x="2.2" y="360.5" width="154.7" height="154.7"/>
    <rect class="st46" x="2.2" y="360.5" width="154.7" height="154.7"/>
    <rect class="st1" x="2.2" y="360.5" width="154.7" height="154.7"/>
  </g>
  <rect class="st1" x="2.2" y="360.5" width="154.7" height="154.7" rx="12.4" ry="12.4"/>
  <path class="st48" d="M70.1,397.1c0,9.2,3.6,17.5,9.4,23.8,5.8-6.2,9.4-14.6,9.4-23.8s-3.6-17.5-9.4-23.8c-5.8,6.2-9.4,14.6-9.4,23.8"/>
  <path class="st48" d="M101.7,402.4c-6.5,6.5-9.9,15-10.1,23.5,8.5-.3,17-3.6,23.5-10.1,6.5-6.5,9.9-15,10.1-23.5-8.5.3-17,3.6-23.5,10.1"/>
  <path class="st48" d="M120.3,428.5c-9.2,0-17.6,3.6-23.8,9.4,6.2,5.8,14.6,9.4,23.8,9.4s17.6-3.6,23.8-9.4c-6.2-5.8-14.6-9.4-23.8-9.4"/>
  <path class="st48" d="M115,460c-6.5-6.5-14.9-9.9-23.5-10.1.3,8.5,3.6,17,10.1,23.5,6.5,6.5,14.9,9.9,23.5,10.1-.3-8.5-3.6-17-10.1-23.5"/>
  <path class="st48" d="M89,478.6c0-9.2-3.6-17.5-9.4-23.8-5.8,6.2-9.4,14.6-9.4,23.8s3.6,17.5,9.4,23.8c5.8-6.2,9.4-14.6,9.4-23.8"/>
  <path class="st48" d="M57.4,473.4c6.5-6.5,9.9-15,10.1-23.5-8.5.3-17,3.6-23.5,10.1-6.5,6.5-9.9,15-10.1,23.5,8.5-.3,17-3.6,23.5-10.1"/>
  <path class="st48" d="M38.8,447.3c9.2,0,17.5-3.6,23.8-9.4-6.2-5.8-14.6-9.4-23.8-9.4s-17.5,3.6-23.8,9.4c6.2,5.8,14.6,9.4,23.8,9.4"/>
  <path class="st48" d="M44.1,415.7c6.5,6.5,15,9.9,23.5,10.1-.3-8.5-3.6-17-10.1-23.5-6.5-6.5-15-9.9-23.5-10.1.3,8.5,3.6,17,10.1,23.5"/>
  <path class="st48" d="M91.8,437.9c0,6.8-5.5,12.2-12.2,12.2s-12.2-5.5-12.2-12.2,5.5-12.2,12.2-12.2,12.2,5.5,12.2,12.2"/>
  <rect class="st46" x="539.7" y="360.5" width="154.7" height="154.7" rx="12.4" ry="12.4"/>
  <g class="st13">
    <rect class="st46" x="539.7" y="360.5" width="154.7" height="154.7"/>
    <rect class="st1" x="539.7" y="360.5" width="154.7" height="154.7"/>
    <rect class="st4" x="539.7" y="360.5" width="154.7" height="154.7"/>
    <rect class="st46" x="539.7" y="360.5" width="154.7" height="154.7"/>
    <rect class="st1" x="539.7" y="360.5" width="154.7" height="154.7"/>
    <rect class="st46" x="539.7" y="360.5" width="154.7" height="154.7"/>
    <rect class="st1" x="539.7" y="360.5" width="154.7" height="154.7"/>
    <rect class="st46" x="539.7" y="360.5" width="154.7" height="154.7"/>
    <rect class="st1" x="539.7" y="360.5" width="154.7" height="154.7"/>
    <rect class="st46" x="539.7" y="360.5" width="154.7" height="154.7"/>
    <rect class="st1" x="539.7" y="360.5" width="154.7" height="154.7"/>
  </g>
  <rect class="st1" x="539.7" y="360.5" width="154.7" height="154.7" rx="12.4" ry="12.4"/>
  <rect class="st46" x="539.7" y="360.5" width="154.7" height="154.7" rx="12.4" ry="12.4"/>
  <g class="st11">
    <rect class="st46" x="539.7" y="360.5" width="154.7" height="154.7"/>
    <rect class="st1" x="539.7" y="360.5" width="154.7" height="154.7"/>
    <rect class="st47" x="539.7" y="360.5" width="154.7" height="154.7"/>
    <rect class="st46" x="539.7" y="360.5" width="154.7" height="154.7"/>
    <rect class="st1" x="539.7" y="360.5" width="154.7" height="154.7"/>
    <rect class="st46" x="539.7" y="360.5" width="154.7" height="154.7"/>
    <rect class="st1" x="539.7" y="360.5" width="154.7" height="154.7"/>
    <rect class="st46" x="539.7" y="360.5" width="154.7" height="154.7"/>
    <rect class="st1" x="539.7" y="360.5" width="154.7" height="154.7"/>
    <rect class="st46" x="539.7" y="360.5" width="154.7" height="154.7"/>
    <rect class="st1" x="539.7" y="360.5" width="154.7" height="154.7"/>
  </g>
  <rect class="st1" x="539.7" y="360.5" width="154.7" height="154.7" rx="12.4" ry="12.4"/>
  <path class="st48" d="M607.6,397.1c0,9.2,3.6,17.5,9.4,23.8,5.8-6.2,9.4-14.6,9.4-23.8s-3.6-17.5-9.4-23.8c-5.8,6.2-9.4,14.6-9.4,23.8"/>
  <path class="st48" d="M639.2,402.4c-6.5,6.5-9.9,15-10.1,23.5,8.5-.3,17-3.6,23.5-10.1,6.5-6.5,9.9-15,10.1-23.5-8.5.3-17,3.6-23.5,10.1"/>
  <path class="st48" d="M657.8,428.5c-9.2,0-17.5,3.6-23.8,9.4,6.2,5.8,14.6,9.4,23.8,9.4s17.5-3.6,23.8-9.4c-6.2-5.8-14.6-9.4-23.8-9.4"/>
  <path class="st48" d="M652.5,460c-6.5-6.5-15-9.9-23.5-10.1.3,8.5,3.6,17,10.1,23.5,6.5,6.5,15,9.9,23.5,10.1-.3-8.5-3.6-17-10.1-23.5"/>
  <path class="st48" d="M626.5,478.6c0-9.2-3.6-17.5-9.4-23.8-5.8,6.2-9.4,14.6-9.4,23.8s3.6,17.5,9.4,23.8c5.8-6.2,9.4-14.6,9.4-23.8"/>
  <path class="st48" d="M594.9,473.4c6.5-6.5,9.9-15,10.1-23.5-8.5.3-17,3.6-23.5,10.1-6.5,6.5-9.9,15-10.1,23.5,8.5-.3,17-3.6,23.5-10.1"/>
  <path class="st48" d="M576.3,447.3c9.2,0,17.5-3.6,23.8-9.4-6.2-5.8-14.6-9.4-23.8-9.4s-17.5,3.6-23.8,9.4c6.2,5.8,14.6,9.4,23.8,9.4"/>
  <path class="st48" d="M581.6,415.7c6.5,6.5,15,9.9,23.5,10.1-.3-8.5-3.6-17-10.1-23.5-6.5-6.5-15-9.9-23.5-10.1.3,8.5,3.6,17,10.1,23.5"/>
  <path class="st48" d="M629.3,437.9c0,6.8-5.5,12.2-12.2,12.2s-12.2-5.5-12.2-12.2,5.5-12.2,12.2-12.2,12.2,5.5,12.2,12.2"/>
  <rect class="st46" x="2.2" y="539.7" width="154.7" height="154.7" rx="12.4" ry="12.4"/>
  <g class="st8">
    <rect class="st46" x="2.2" y="539.7" width="154.7" height="154.7"/>
    <rect class="st1" x="2.2" y="539.7" width="154.7" height="154.7"/>
    <rect class="st4" x="2.2" y="539.7" width="154.7" height="154.7"/>
    <rect class="st46" x="2.2" y="539.7" width="154.7" height="154.7"/>
    <rect class="st1" x="2.2" y="539.7" width="154.7" height="154.7"/>
    <rect class="st46" x="2.2" y="539.7" width="154.7" height="154.7"/>
    <rect class="st1" x="2.2" y="539.7" width="154.7" height="154.7"/>
    <rect class="st46" x="2.2" y="539.7" width="154.7" height="154.7"/>
    <rect class="st1" x="2.2" y="539.7" width="154.7" height="154.7"/>
    <rect class="st46" x="2.2" y="539.7" width="154.7" height="154.7"/>
    <rect class="st1" x="2.2" y="539.7" width="154.7" height="154.7"/>
  </g>
  <rect class="st1" x="2.2" y="539.7" width="154.7" height="154.7" rx="12.4" ry="12.4"/>
  <rect class="st46" x="2.2" y="539.7" width="154.7" height="154.7" rx="12.4" ry="12.4"/>
  <g class="st5">
    <rect class="st46" x="2.2" y="539.7" width="154.7" height="154.7"/>
    <rect class="st1" x="2.2" y="539.7" width="154.7" height="154.7"/>
    <rect class="st47" x="2.2" y="539.7" width="154.7" height="154.7"/>
    <rect class="st46" x="2.2" y="539.7" width="154.7" height="154.7"/>
    <rect class="st1" x="2.2" y="539.7" width="154.7" height="154.7"/>
    <rect class="st46" x="2.2" y="539.7" width="154.7" height="154.7"/>
    <rect class="st1" x="2.2" y="539.7" width="154.7" height="154.7"/>
    <rect class="st46" x="2.2" y="539.7" width="154.7" height="154.7"/>
    <rect class="st1" x="2.2" y="539.7" width="154.7" height="154.7"/>
    <rect class="st46" x="2.2" y="539.7" width="154.7" height="154.7"/>
    <rect class="st1" x="2.2" y="539.7" width="154.7" height="154.7"/>
  </g>
  <rect class="st1" x="2.2" y="539.7" width="154.7" height="154.7" rx="12.4" ry="12.4"/>
  <path class="st48" d="M70.1,576.3c0,9.2,3.6,17.5,9.4,23.8,5.8-6.2,9.4-14.6,9.4-23.8s-3.6-17.5-9.4-23.8c-5.8,6.2-9.4,14.6-9.4,23.8"/>
  <path class="st48" d="M101.7,581.6c-6.5,6.5-9.9,15-10.1,23.5,8.5-.3,17-3.6,23.5-10.1,6.5-6.5,9.9-15,10.1-23.5-8.5.3-17,3.6-23.5,10.1"/>
  <path class="st48" d="M120.3,607.6c-9.2,0-17.6,3.6-23.8,9.4,6.2,5.8,14.6,9.4,23.8,9.4s17.6-3.6,23.8-9.4c-6.2-5.8-14.6-9.4-23.8-9.4"/>
  <path class="st48" d="M115,639.2c-6.5-6.5-14.9-9.9-23.5-10.1.3,8.5,3.6,17,10.1,23.5,6.5,6.5,14.9,9.9,23.5,10.1-.3-8.5-3.6-17-10.1-23.5"/>
  <path class="st48" d="M89,657.8c0-9.2-3.6-17.5-9.4-23.8-5.8,6.2-9.4,14.6-9.4,23.8s3.6,17.5,9.4,23.8c5.8-6.2,9.4-14.6,9.4-23.8"/>
  <path class="st48" d="M57.4,652.5c6.5-6.5,9.9-15,10.1-23.5-8.5.3-17,3.6-23.5,10.1-6.5,6.5-9.9,15-10.1,23.5,8.5-.3,17-3.6,23.5-10.1"/>
  <path class="st48" d="M38.8,626.5c9.2,0,17.5-3.6,23.8-9.4-6.2-5.8-14.6-9.4-23.8-9.4s-17.5,3.6-23.8,9.4c6.2,5.8,14.6,9.4,23.8,9.4"/>
  <path class="st48" d="M44.1,594.9c6.5,6.5,15,9.9,23.5,10.1-.3-8.5-3.6-17-10.1-23.5-6.5-6.5-15-9.9-23.5-10.1.3,8.5,3.6,17,10.1,23.5"/>
  <path class="st48" d="M91.8,617c0,6.8-5.5,12.2-12.2,12.2s-12.2-5.5-12.2-12.2,5.5-12.2,12.2-12.2,12.2,5.5,12.2,12.2"/>
  <rect class="st46" x="539.7" y="539.7" width="154.7" height="154.7" rx="12.4" ry="12.4"/>
  <g class="st9">
    <rect class="st46" x="539.7" y="539.7" width="154.7" height="154.7"/>
    <rect class="st1" x="539.7" y="539.7" width="154.7" height="154.7"/>
    <rect class="st4" x="539.7" y="539.7" width="154.7" height="154.7"/>
    <rect class="st46" x="539.7" y="539.7" width="154.7" height="154.7"/>
    <rect class="st1" x="539.7" y="539.7" width="154.7" height="154.7"/>
    <rect class="st46" x="539.7" y="539.7" width="154.7" height="154.7"/>
    <rect class="st1" x="539.7" y="539.7" width="154.7" height="154.7"/>
    <rect class="st46" x="539.7" y="539.7" width="154.7" height="154.7"/>
    <rect class="st1" x="539.7" y="539.7" width="154.7" height="154.7"/>
    <rect class="st46" x="539.7" y="539.7" width="154.7" height="154.7"/>
    <rect class="st1" x="539.7" y="539.7" width="154.7" height="154.7"/>
  </g>
  <rect class="st1" x="539.7" y="539.7" width="154.7" height="154.7" rx="12.4" ry="12.4"/>
  <rect class="st46" x="539.7" y="539.7" width="154.7" height="154.7" rx="12.4" ry="12.4"/>
  <g class="st6">
    <rect class="st46" x="539.7" y="539.7" width="154.7" height="154.7"/>
    <rect class="st1" x="539.7" y="539.7" width="154.7" height="154.7"/>
    <rect class="st47" x="539.7" y="539.7" width="154.7" height="154.7"/>
    <rect class="st46" x="539.7" y="539.7" width="154.7" height="154.7"/>
    <rect class="st1" x="539.7" y="539.7" width="154.7" height="154.7"/>
    <rect class="st46" x="539.7" y="539.7" width="154.7" height="154.7"/>
    <rect class="st1" x="539.7" y="539.7" width="154.7" height="154.7"/>
    <rect class="st46" x="539.7" y="539.7" width="154.7" height="154.7"/>
    <rect class="st1" x="539.7" y="539.7" width="154.7" height="154.7"/>
    <rect class="st46" x="539.7" y="539.7" width="154.7" height="154.7"/>
    <rect class="st1" x="539.7" y="539.7" width="154.7" height="154.7"/>
  </g>
  <rect class="st1" x="539.7" y="539.7" width="154.7" height="154.7" rx="12.4" ry="12.4"/>
  <path class="st48" d="M607.6,576.3c0,9.2,3.6,17.5,9.4,23.8,5.8-6.2,9.4-14.6,9.4-23.8s-3.6-17.5-9.4-23.8c-5.8,6.2-9.4,14.6-9.4,23.8"/>
  <path class="st48" d="M639.2,581.6c-6.5,6.5-9.9,15-10.1,23.5,8.5-.3,17-3.6,23.5-10.1,6.5-6.5,9.9-15,10.1-23.5-8.5.3-17,3.6-23.5,10.1"/>
  <path class="st48" d="M657.8,607.6c-9.2,0-17.5,3.6-23.8,9.4,6.2,5.8,14.6,9.4,23.8,9.4s17.5-3.6,23.8-9.4c-6.2-5.8-14.6-9.4-23.8-9.4"/>
  <path class="st48" d="M652.5,639.2c-6.5-6.5-15-9.9-23.5-10.1.3,8.5,3.6,17,10.1,23.5,6.5,6.5,15,9.9,23.5,10.1-.3-8.5-3.6-17-10.1-23.5"/>
  <path class="st48" d="M626.5,657.8c0-9.2-3.6-17.5-9.4-23.8-5.8,6.2-9.4,14.6-9.4,23.8s3.6,17.5,9.4,23.8c5.8-6.2,9.4-14.6,9.4-23.8"/>
  <path class="st48" d="M594.9,652.5c6.5-6.5,9.9-15,10.1-23.5-8.5.3-17,3.6-23.5,10.1-6.5,6.5-9.9,15-10.1,23.5,8.5-.3,17-3.6,23.5-10.1"/>
  <path class="st48" d="M576.3,626.5c9.2,0,17.5-3.6,23.8-9.4-6.2-5.8-14.6-9.4-23.8-9.4s-17.5,3.6-23.8,9.4c6.2,5.8,14.6,9.4,23.8,9.4"/>
  <path class="st48" d="M581.6,594.9c6.5,6.5,15,9.9,23.5,10.1-.3-8.5-3.6-17-10.1-23.5-6.5-6.5-15-9.9-23.5-10.1.3,8.5,3.6,17,10.1,23.5"/>
  <path class="st48" d="M629.3,617c0,6.8-5.5,12.2-12.2,12.2s-12.2-5.5-12.2-12.2,5.5-12.2,12.2-12.2,12.2,5.5,12.2,12.2"/>
  <rect class="st46" x="2.2" y="718.8" width="154.7" height="154.7" rx="12.4" ry="12.4"/>
  <g class="st29">
    <rect class="st46" x="2.2" y="718.8" width="154.7" height="154.7"/>
    <rect class="st1" x="2.2" y="718.8" width="154.7" height="154.7"/>
    <rect class="st4" x="2.2" y="718.8" width="154.7" height="154.7"/>
    <rect class="st46" x="2.2" y="718.8" width="154.7" height="154.7"/>
    <rect class="st1" x="2.2" y="718.8" width="154.7" height="154.7"/>
    <rect class="st46" x="2.2" y="718.8" width="154.7" height="154.7"/>
    <rect class="st1" x="2.2" y="718.8" width="154.7" height="154.7"/>
    <rect class="st46" x="2.2" y="718.8" width="154.7" height="154.7"/>
    <rect class="st1" x="2.2" y="718.8" width="154.7" height="154.7"/>
    <rect class="st46" x="2.2" y="718.8" width="154.7" height="154.7"/>
    <rect class="st1" x="2.2" y="718.8" width="154.7" height="154.7"/>
  </g>
  <rect class="st1" x="2.2" y="718.8" width="154.7" height="154.7" rx="12.4" ry="12.4"/>
  <rect class="st46" x="2.2" y="718.8" width="154.7" height="154.7" rx="12.4" ry="12.4"/>
  <g class="st30">
    <rect class="st46" x="2.2" y="718.8" width="154.7" height="154.7"/>
    <rect class="st1" x="2.2" y="718.8" width="154.7" height="154.7"/>
    <rect class="st47" x="2.2" y="718.8" width="154.7" height="154.7"/>
    <rect class="st46" x="2.2" y="718.8" width="154.7" height="154.7"/>
    <rect class="st1" x="2.2" y="718.8" width="154.7" height="154.7"/>
    <rect class="st46" x="2.2" y="718.8" width="154.7" height="154.7"/>
    <rect class="st1" x="2.2" y="718.8" width="154.7" height="154.7"/>
    <rect class="st46" x="2.2" y="718.8" width="154.7" height="154.7"/>
    <rect class="st1" x="2.2" y="718.8" width="154.7" height="154.7"/>
    <rect class="st46" x="2.2" y="718.8" width="154.7" height="154.7"/>
    <rect class="st1" x="2.2" y="718.8" width="154.7" height="154.7"/>
  </g>
  <rect class="st1" x="2.2" y="718.8" width="154.7" height="154.7" rx="12.4" ry="12.4"/>
  <path class="st48" d="M70.1,755.5c0,9.2,3.6,17.5,9.4,23.8,5.8-6.2,9.4-14.6,9.4-23.8s-3.6-17.5-9.4-23.8c-5.8,6.2-9.4,14.6-9.4,23.8"/>
  <path class="st48" d="M101.7,760.7c-6.5,6.5-9.9,15-10.1,23.5,8.5-.3,17-3.6,23.5-10.1,6.5-6.5,9.9-15,10.1-23.5-8.5.3-17,3.6-23.5,10.1"/>
  <path class="st48" d="M120.3,786.8c-9.2,0-17.6,3.6-23.8,9.4,6.2,5.8,14.6,9.4,23.8,9.4s17.6-3.6,23.8-9.4c-6.2-5.8-14.6-9.4-23.8-9.4"/>
  <path class="st48" d="M115,818.3c-6.5-6.5-14.9-9.9-23.5-10.1.3,8.5,3.6,17,10.1,23.5,6.5,6.5,14.9,9.9,23.5,10.1-.3-8.5-3.6-17-10.1-23.5"/>
  <path class="st48" d="M89,836.9c0-9.2-3.6-17.5-9.4-23.8-5.8,6.2-9.4,14.6-9.4,23.8s3.6,17.5,9.4,23.8c5.8-6.2,9.4-14.6,9.4-23.8"/>
  <path class="st48" d="M57.4,831.7c6.5-6.5,9.9-15,10.1-23.5-8.5.3-17,3.6-23.5,10.1-6.5,6.5-9.9,15-10.1,23.5,8.5-.3,17-3.6,23.5-10.1"/>
  <path class="st48" d="M38.8,805.6c9.2,0,17.5-3.6,23.8-9.4-6.2-5.8-14.6-9.4-23.8-9.4s-17.5,3.6-23.8,9.4c6.2,5.8,14.6,9.4,23.8,9.4"/>
  <path class="st48" d="M44.1,774c6.5,6.5,15,9.9,23.5,10.1-.3-8.5-3.6-17-10.1-23.5-6.5-6.5-15-9.9-23.5-10.1.3,8.5,3.6,17,10.1,23.5"/>
  <path class="st48" d="M91.8,796.2c0,6.8-5.5,12.2-12.2,12.2s-12.2-5.5-12.2-12.2,5.5-12.2,12.2-12.2,12.2,5.5,12.2,12.2"/>
  <rect class="st46" x="181.4" y="718.8" width="154.7" height="154.7" rx="12.4" ry="12.4"/>
  <g class="st31">
    <rect class="st46" x="181.4" y="718.8" width="154.7" height="154.7"/>
    <rect class="st1" x="181.4" y="718.8" width="154.7" height="154.7"/>
    <rect class="st4" x="181.4" y="718.8" width="154.7" height="154.7"/>
    <rect class="st46" x="181.4" y="718.8" width="154.7" height="154.7"/>
    <rect class="st1" x="181.4" y="718.8" width="154.7" height="154.7"/>
    <rect class="st46" x="181.4" y="718.8" width="154.7" height="154.7"/>
    <rect class="st1" x="181.4" y="718.8" width="154.7" height="154.7"/>
    <rect class="st46" x="181.4" y="718.8" width="154.7" height="154.7"/>
    <rect class="st1" x="181.4" y="718.8" width="154.7" height="154.7"/>
    <rect class="st46" x="181.4" y="718.8" width="154.7" height="154.7"/>
    <rect class="st1" x="181.4" y="718.8" width="154.7" height="154.7"/>
  </g>
  <rect class="st1" x="181.4" y="718.8" width="154.7" height="154.7" rx="12.4" ry="12.4"/>
  <rect class="st46" x="181.4" y="718.8" width="154.7" height="154.7" rx="12.4" ry="12.4"/>
  <g class="st32">
    <rect class="st46" x="181.4" y="718.8" width="154.7" height="154.7"/>
    <rect class="st1" x="181.4" y="718.8" width="154.7" height="154.7"/>
    <rect class="st47" x="181.4" y="718.8" width="154.7" height="154.7"/>
    <rect class="st46" x="181.4" y="718.8" width="154.7" height="154.7"/>
    <rect class="st1" x="181.4" y="718.8" width="154.7" height="154.7"/>
    <rect class="st46" x="181.4" y="718.8" width="154.7" height="154.7"/>
    <rect class="st1" x="181.4" y="718.8" width="154.7" height="154.7"/>
    <rect class="st46" x="181.4" y="718.8" width="154.7" height="154.7"/>
    <rect class="st1" x="181.4" y="718.8" width="154.7" height="154.7"/>
    <rect class="st46" x="181.4" y="718.8" width="154.7" height="154.7"/>
    <rect class="st1" x="181.4" y="718.8" width="154.7" height="154.7"/>
  </g>
  <rect class="st1" x="181.4" y="718.8" width="154.7" height="154.7" rx="12.4" ry="12.4"/>
  <path class="st48" d="M249.3,755.5c0,9.2,3.6,17.5,9.4,23.8,5.8-6.2,9.4-14.6,9.4-23.8s-3.6-17.5-9.4-23.8c-5.8,6.2-9.4,14.6-9.4,23.8"/>
  <path class="st48" d="M280.9,760.7c-6.5,6.5-9.9,15-10.1,23.5,8.5-.3,17-3.6,23.5-10.1,6.5-6.5,9.9-15,10.1-23.5-8.5.3-17,3.6-23.5,10.1"/>
  <path class="st48" d="M299.5,786.8c-9.2,0-17.5,3.6-23.8,9.4,6.2,5.8,14.6,9.4,23.8,9.4s17.5-3.6,23.8-9.4c-6.2-5.8-14.6-9.4-23.8-9.4"/>
  <path class="st48" d="M294.2,818.3c-6.5-6.5-15-9.9-23.5-10.1.3,8.5,3.6,17,10.1,23.5,6.5,6.5,15,9.9,23.5,10.1-.3-8.5-3.6-17-10.1-23.5"/>
  <path class="st48" d="M268.1,836.9c0-9.2-3.6-17.5-9.4-23.8-5.8,6.2-9.4,14.6-9.4,23.8s3.6,17.5,9.4,23.8c5.8-6.2,9.4-14.6,9.4-23.8"/>
  <path class="st48" d="M236.6,831.7c6.5-6.5,9.9-15,10.1-23.5-8.5.3-17,3.6-23.5,10.1-6.5,6.5-9.9,15-10.1,23.5,8.5-.3,17-3.6,23.5-10.1"/>
  <path class="st48" d="M218,805.6c9.2,0,17.6-3.6,23.8-9.4-6.2-5.8-14.6-9.4-23.8-9.4s-17.6,3.6-23.8,9.4c6.2,5.8,14.6,9.4,23.8,9.4"/>
  <path class="st48" d="M223.2,774c6.5,6.5,14.9,9.9,23.5,10.1-.3-8.5-3.6-17-10.1-23.5-6.5-6.5-14.9-9.9-23.5-10.1.3,8.5,3.6,17,10.1,23.5"/>
  <path class="st48" d="M271,796.2c0,6.8-5.5,12.2-12.2,12.2s-12.2-5.5-12.2-12.2,5.5-12.2,12.2-12.2,12.2,5.5,12.2,12.2"/>
  <rect class="st46" x="360.5" y="718.8" width="154.7" height="154.7" rx="12.4" ry="12.4"/>
  <g class="st33">
    <rect class="st46" x="360.5" y="718.8" width="154.7" height="154.7"/>
    <rect class="st1" x="360.5" y="718.8" width="154.7" height="154.7"/>
    <rect class="st4" x="360.5" y="718.8" width="154.7" height="154.7"/>
    <rect class="st46" x="360.5" y="718.8" width="154.7" height="154.7"/>
    <rect class="st1" x="360.5" y="718.8" width="154.7" height="154.7"/>
    <rect class="st46" x="360.5" y="718.8" width="154.7" height="154.7"/>
    <rect class="st1" x="360.5" y="718.8" width="154.7" height="154.7"/>
    <rect class="st46" x="360.5" y="718.8" width="154.7" height="154.7"/>
    <rect class="st1" x="360.5" y="718.8" width="154.7" height="154.7"/>
    <rect class="st46" x="360.5" y="718.8" width="154.7" height="154.7"/>
    <rect class="st1" x="360.5" y="718.8" width="154.7" height="154.7"/>
  </g>
  <rect class="st1" x="360.5" y="718.8" width="154.7" height="154.7" rx="12.4" ry="12.4"/>
  <rect class="st46" x="360.5" y="718.8" width="154.7" height="154.7" rx="12.4" ry="12.4"/>
  <g class="st34">
    <rect class="st46" x="360.5" y="718.8" width="154.7" height="154.7"/>
    <rect class="st1" x="360.5" y="718.8" width="154.7" height="154.7"/>
    <rect class="st47" x="360.5" y="718.8" width="154.7" height="154.7"/>
    <rect class="st46" x="360.5" y="718.8" width="154.7" height="154.7"/>
    <rect class="st1" x="360.5" y="718.8" width="154.7" height="154.7"/>
    <rect class="st46" x="360.5" y="718.8" width="154.7" height="154.7"/>
    <rect class="st1" x="360.5" y="718.8" width="154.7" height="154.7"/>
    <rect class="st46" x="360.5" y="718.8" width="154.7" height="154.7"/>
    <rect class="st1" x="360.5" y="718.8" width="154.7" height="154.7"/>
    <rect class="st46" x="360.5" y="718.8" width="154.7" height="154.7"/>
    <rect class="st1" x="360.5" y="718.8" width="154.7" height="154.7"/>
  </g>
  <rect class="st1" x="360.5" y="718.8" width="154.7" height="154.7" rx="12.4" ry="12.4"/>
  <path class="st48" d="M428.4,755.5c0,9.2,3.6,17.5,9.4,23.8,5.8-6.2,9.4-14.6,9.4-23.8s-3.6-17.5-9.4-23.8c-5.8,6.2-9.4,14.6-9.4,23.8"/>
  <path class="st48" d="M460,760.7c-6.5,6.5-9.9,15-10.1,23.5,8.5-.3,17-3.6,23.5-10.1,6.5-6.5,9.9-15,10.1-23.5-8.5.3-17,3.6-23.5,10.1"/>
  <path class="st48" d="M478.6,786.8c-9.2,0-17.5,3.6-23.8,9.4,6.2,5.8,14.6,9.4,23.8,9.4s17.5-3.6,23.8-9.4c-6.2-5.8-14.6-9.4-23.8-9.4"/>
  <path class="st48" d="M473.4,818.3c-6.5-6.5-15-9.9-23.5-10.1.3,8.5,3.6,17,10.1,23.5,6.5,6.5,15,9.9,23.5,10.1-.3-8.5-3.6-17-10.1-23.5"/>
  <path class="st48" d="M447.3,836.9c0-9.2-3.6-17.5-9.4-23.8-5.8,6.2-9.4,14.6-9.4,23.8s3.6,17.5,9.4,23.8c5.8-6.2,9.4-14.6,9.4-23.8"/>
  <path class="st48" d="M415.7,831.7c6.5-6.5,9.9-15,10.1-23.5-8.5.3-17,3.6-23.5,10.1-6.5,6.5-9.9,15-10.1,23.5,8.5-.3,17-3.6,23.5-10.1"/>
  <path class="st48" d="M397.1,805.6c9.2,0,17.5-3.6,23.8-9.4-6.2-5.8-14.6-9.4-23.8-9.4s-17.5,3.6-23.8,9.4c6.2,5.8,14.6,9.4,23.8,9.4"/>
  <path class="st48" d="M402.4,774c6.5,6.5,15,9.9,23.5,10.1-.3-8.5-3.6-17-10.1-23.5-6.5-6.5-15-9.9-23.5-10.1.3,8.5,3.6,17,10.1,23.5"/>
  <path class="st48" d="M450.1,796.2c0,6.8-5.5,12.2-12.2,12.2s-12.2-5.5-12.2-12.2,5.5-12.2,12.2-12.2,12.2,5.5,12.2,12.2"/>
  <rect class="st46" x="539.7" y="718.8" width="154.7" height="154.7" rx="12.4" ry="12.4"/>
  <g class="st27">
    <rect class="st46" x="539.7" y="718.8" width="154.7" height="154.7"/>
    <rect class="st1" x="539.7" y="718.8" width="154.7" height="154.7"/>
    <rect class="st4" x="539.7" y="718.8" width="154.7" height="154.7"/>
    <rect class="st46" x="539.7" y="718.8" width="154.7" height="154.7"/>
    <rect class="st1" x="539.7" y="718.8" width="154.7" height="154.7"/>
    <rect class="st46" x="539.7" y="718.8" width="154.7" height="154.7"/>
    <rect class="st1" x="539.7" y="718.8" width="154.7" height="154.7"/>
    <rect class="st46" x="539.7" y="718.8" width="154.7" height="154.7"/>
    <rect class="st1" x="539.7" y="718.8" width="154.7" height="154.7"/>
    <rect class="st46" x="539.7" y="718.8" width="154.7" height="154.7"/>
    <rect class="st1" x="539.7" y="718.8" width="154.7" height="154.7"/>
  </g>
  <rect class="st1" x="539.7" y="718.8" width="154.7" height="154.7" rx="12.4" ry="12.4"/>
  <rect class="st46" x="539.7" y="718.8" width="154.7" height="154.7" rx="12.4" ry="12.4"/>
  <g class="st25">
    <rect class="st46" x="539.7" y="718.8" width="154.7" height="154.7"/>
    <rect class="st1" x="539.7" y="718.8" width="154.7" height="154.7"/>
    <rect class="st47" x="539.7" y="718.8" width="154.7" height="154.7"/>
    <rect class="st46" x="539.7" y="718.8" width="154.7" height="154.7"/>
    <rect class="st1" x="539.7" y="718.8" width="154.7" height="154.7"/>
    <rect class="st46" x="539.7" y="718.8" width="154.7" height="154.7"/>
    <rect class="st1" x="539.7" y="718.8" width="154.7" height="154.7"/>
    <rect class="st46" x="539.7" y="718.8" width="154.7" height="154.7"/>
    <rect class="st1" x="539.7" y="718.8" width="154.7" height="154.7"/>
    <rect class="st46" x="539.7" y="718.8" width="154.7" height="154.7"/>
    <rect class="st1" x="539.7" y="718.8" width="154.7" height="154.7"/>
  </g>
  <rect class="st1" x="539.7" y="718.8" width="154.7" height="154.7" rx="12.4" ry="12.4"/>
  <path class="st48" d="M607.6,755.5c0,9.2,3.6,17.5,9.4,23.8,5.8-6.2,9.4-14.6,9.4-23.8s-3.6-17.5-9.4-23.8c-5.8,6.2-9.4,14.6-9.4,23.8"/>
  <path class="st48" d="M639.2,760.7c-6.5,6.5-9.9,15-10.1,23.5,8.5-.3,17-3.6,23.5-10.1,6.5-6.5,9.9-15,10.1-23.5-8.5.3-17,3.6-23.5,10.1"/>
  <path class="st48" d="M657.8,786.8c-9.2,0-17.5,3.6-23.8,9.4,6.2,5.8,14.6,9.4,23.8,9.4s17.5-3.6,23.8-9.4c-6.2-5.8-14.6-9.4-23.8-9.4"/>
  <path class="st48" d="M652.5,818.3c-6.5-6.5-15-9.9-23.5-10.1.3,8.5,3.6,17,10.1,23.5,6.5,6.5,15,9.9,23.5,10.1-.3-8.5-3.6-17-10.1-23.5"/>
  <path class="st48" d="M626.5,836.9c0-9.2-3.6-17.5-9.4-23.8-5.8,6.2-9.4,14.6-9.4,23.8s3.6,17.5,9.4,23.8c5.8-6.2,9.4-14.6,9.4-23.8"/>
  <path class="st48" d="M594.9,831.7c6.5-6.5,9.9-15,10.1-23.5-8.5.3-17,3.6-23.5,10.1-6.5,6.5-9.9,15-10.1,23.5,8.5-.3,17-3.6,23.5-10.1"/>
  <path class="st48" d="M576.3,805.6c9.2,0,17.5-3.6,23.8-9.4-6.2-5.8-14.6-9.4-23.8-9.4s-17.5,3.6-23.8,9.4c6.2,5.8,14.6,9.4,23.8,9.4"/>
  <path class="st48" d="M581.6,774c6.5,6.5,15,9.9,23.5,10.1-.3-8.5-3.6-17-10.1-23.5-6.5-6.5-15-9.9-23.5-10.1.3,8.5,3.6,17,10.1,23.5"/>
  <path class="st48" d="M629.3,796.2c0,6.8-5.5,12.2-12.2,12.2s-12.2-5.5-12.2-12.2,5.5-12.2,12.2-12.2,12.2,5.5,12.2,12.2"/>
  <g class="st28">
    <rect class="st3" x="2.2" y="2.2" width="154.7" height="154.7"/>
    <rect class="st3" x="2.2" y="2.2" width="154.7" height="154.7"/>
    <rect class="st3" x="2.2" y="2.2" width="154.7" height="154.7"/>
    <rect class="st3" x="2.2" y="2.2" width="154.7" height="154.7"/>
    <rect class="st3" x="2.2" y="2.2" width="154.7" height="154.7"/>
    <rect class="st3" x="2.2" y="2.2" width="154.7" height="154.7"/>
  </g>
  <rect class="st2" x="2.2" y="2.2" width="154.7" height="154.7" rx="12.4" ry="12.4"/>
  <g class="st26">
    <rect class="st3" x="181.4" y="2.2" width="154.7" height="154.7"/>
    <rect class="st3" x="181.4" y="2.2" width="154.7" height="154.7"/>
    <rect class="st3" x="181.4" y="2.2" width="154.7" height="154.7"/>
    <rect class="st3" x="181.4" y="2.2" width="154.7" height="154.7"/>
    <rect class="st3" x="181.4" y="2.2" width="154.7" height="154.7"/>
    <rect class="st3" x="181.4" y="2.2" width="154.7" height="154.7"/>
  </g>
  <rect class="st2" x="181.4" y="2.2" width="154.7" height="154.7" rx="12.4" ry="12.4"/>
  <g class="st21">
    <rect class="st3" x="360.5" y="2.2" width="154.7" height="154.7"/>
    <rect class="st3" x="360.5" y="2.2" width="154.7" height="154.7"/>
    <rect class="st3" x="360.5" y="2.2" width="154.7" height="154.7"/>
    <rect class="st3" x="360.5" y="2.2" width="154.7" height="154.7"/>
    <rect class="st3" x="360.5" y="2.2" width="154.7" height="154.7"/>
    <rect class="st3" x="360.5" y="2.2" width="154.7" height="154.7"/>
  </g>
  <rect class="st2" x="360.5" y="2.2" width="154.7" height="154.7" rx="12.4" ry="12.4"/>
  <g class="st15">
    <rect class="st3" x="539.7" y="2.2" width="154.7" height="154.7"/>
    <rect class="st3" x="539.7" y="2.2" width="154.7" height="154.7"/>
    <rect class="st3" x="539.7" y="2.2" width="154.7" height="154.7"/>
    <rect class="st3" x="539.7" y="2.2" width="154.7" height="154.7"/>
    <rect class="st3" x="539.7" y="2.2" width="154.7" height="154.7"/>
    <rect class="st3" x="539.7" y="2.2" width="154.7" height="154.7"/>
  </g>
  <rect class="st2" x="539.7" y="2.2" width="154.7" height="154.7" rx="12.4" ry="12.4"/>
  <g class="st16">
    <rect class="st3" x="2.2" y="718.8" width="154.7" height="154.7"/>
    <rect class="st3" x="2.2" y="718.8" width="154.7" height="154.7"/>
    <rect class="st3" x="2.2" y="718.8" width="154.7" height="154.7"/>
    <rect class="st3" x="2.2" y="718.8" width="154.7" height="154.7"/>
    <rect class="st3" x="2.2" y="718.8" width="154.7" height="154.7"/>
    <rect class="st3" x="2.2" y="718.8" width="154.7" height="154.7"/>
  </g>
  <rect class="st2" x="2.2" y="718.8" width="154.7" height="154.7" rx="12.4" ry="12.4"/>
  <g class="st17">
    <rect class="st3" x="181.4" y="718.8" width="154.7" height="154.7"/>
    <rect class="st3" x="181.4" y="718.8" width="154.7" height="154.7"/>
    <rect class="st3" x="181.4" y="718.8" width="154.7" height="154.7"/>
    <rect class="st3" x="181.4" y="718.8" width="154.7" height="154.7"/>
    <rect class="st3" x="181.4" y="718.8" width="154.7" height="154.7"/>
    <rect class="st3" x="181.4" y="718.8" width="154.7" height="154.7"/>
  </g>
  <rect class="st2" x="181.4" y="718.8" width="154.7" height="154.7" rx="12.4" ry="12.4"/>
  <g class="st18">
    <rect class="st3" x="360.5" y="718.8" width="154.7" height="154.7"/>
    <rect class="st3" x="360.5" y="718.8" width="154.7" height="154.7"/>
    <rect class="st3" x="360.5" y="718.8" width="154.7" height="154.7"/>
    <rect class="st3" x="360.5" y="718.8" width="154.7" height="154.7"/>
    <rect class="st3" x="360.5" y="718.8" width="154.7" height="154.7"/>
    <rect class="st3" x="360.5" y="718.8" width="154.7" height="154.7"/>
  </g>
  <rect class="st2" x="360.5" y="718.8" width="154.7" height="154.7" rx="12.4" ry="12.4"/>
  <g class="st19">
    <rect class="st3" x="539.7" y="718.8" width="154.7" height="154.7"/>
    <rect class="st3" x="539.7" y="718.8" width="154.7" height="154.7"/>
    <rect class="st3" x="539.7" y="718.8" width="154.7" height="154.7"/>
    <rect class="st3" x="539.7" y="718.8" width="154.7" height="154.7"/>
    <rect class="st3" x="539.7" y="718.8" width="154.7" height="154.7"/>
    <rect class="st3" x="539.7" y="718.8" width="154.7" height="154.7"/>
  </g>
  <rect class="st2" x="539.7" y="718.8" width="154.7" height="154.7" rx="12.4" ry="12.4"/>
  <g class="st22">
    <rect class="st3" x="2.2" y="181.4" width="154.7" height="154.7"/>
    <rect class="st3" x="2.2" y="181.4" width="154.7" height="154.7"/>
    <rect class="st3" x="2.2" y="181.4" width="154.7" height="154.7"/>
    <rect class="st3" x="2.2" y="181.4" width="154.7" height="154.7"/>
    <rect class="st3" x="2.2" y="181.4" width="154.7" height="154.7"/>
    <rect class="st3" x="2.2" y="181.4" width="154.7" height="154.7"/>
  </g>
  <rect class="st2" x="2.2" y="181.4" width="154.7" height="154.7" rx="12.4" ry="12.4"/>
  <g class="st23">
    <rect class="st3" x="2.2" y="360.5" width="154.7" height="154.7"/>
    <rect class="st3" x="2.2" y="360.5" width="154.7" height="154.7"/>
    <rect class="st3" x="2.2" y="360.5" width="154.7" height="154.7"/>
    <rect class="st3" x="2.2" y="360.5" width="154.7" height="154.7"/>
    <rect class="st3" x="2.2" y="360.5" width="154.7" height="154.7"/>
    <rect class="st3" x="2.2" y="360.5" width="154.7" height="154.7"/>
  </g>
  <rect class="st2" x="2.2" y="360.5" width="154.7" height="154.7" rx="12.4" ry="12.4"/>
  <g class="st24">
    <rect class="st3" x="539.7" y="360.5" width="154.7" height="154.7"/>
    <rect class="st3" x="539.7" y="360.5" width="154.7" height="154.7"/>
    <rect class="st3" x="539.7" y="360.5" width="154.7" height="154.7"/>
    <rect class="st3" x="539.7" y="360.5" width="154.7" height="154.7"/>
    <rect class="st3" x="539.7" y="360.5" width="154.7" height="154.7"/>
    <rect class="st3" x="539.7" y="360.5" width="154.7" height="154.7"/>
  </g>
  <rect class="st2" x="539.7" y="360.5" width="154.7" height="154.7" rx="12.4" ry="12.4"/>
  <g class="st20">
    <rect class="st3" x="2.2" y="539.7" width="154.7" height="154.7"/>
    <rect class="st3" x="2.2" y="539.7" width="154.7" height="154.7"/>
    <rect class="st3" x="2.2" y="539.7" width="154.7" height="154.7"/>
    <rect class="st3" x="2.2" y="539.7" width="154.7" height="154.7"/>
    <rect class="st3" x="2.2" y="539.7" width="154.7" height="154.7"/>
    <rect class="st3" x="2.2" y="539.7" width="154.7" height="154.7"/>
  </g>
  <rect class="st2" x="2.2" y="539.7" width="154.7" height="154.7" rx="12.4" ry="12.4"/>
  <g class="st36">
    <rect class="st3" x="539.7" y="539.7" width="154.7" height="154.7"/>
    <rect class="st3" x="539.7" y="539.7" width="154.7" height="154.7"/>
    <rect class="st3" x="539.7" y="539.7" width="154.7" height="154.7"/>
    <rect class="st3" x="539.7" y="539.7" width="154.7" height="154.7"/>
    <rect class="st3" x="539.7" y="539.7" width="154.7" height="154.7"/>
    <rect class="st3" x="539.7" y="539.7" width="154.7" height="154.7"/>
  </g>
  <rect class="st2" x="539.7" y="539.7" width="154.7" height="154.7" rx="12.4" ry="12.4"/>
  <g class="st35">
    <rect class="st3" x="537.7" y="181.4" width="154.7" height="154.7"/>
    <rect class="st3" x="537.7" y="181.4" width="154.7" height="154.7"/>
    <rect class="st3" x="537.7" y="181.4" width="154.7" height="154.7"/>
    <rect class="st3" x="537.7" y="181.4" width="154.7" height="154.7"/>
    <rect class="st3" x="537.7" y="181.4" width="154.7" height="154.7"/>
    <rect class="st3" x="537.7" y="181.4" width="154.7" height="154.7"/>
  </g>
  <rect class="st2" x="537.7" y="181.4" width="154.7" height="154.7" rx="12.4" ry="12.4"/>
</svg>