<?xml version="1.0" encoding="UTF-8"?>
<svg id="Layer_2" data-name="Layer 2" xmlns="http://www.w3.org/2000/svg" viewBox="0 0 557.74 110.38">
  <defs>
    <style>
      .cls-1 {
        fill: #231f20;
      }

      .cls-2 {
        fill: #fff;
      }

      .cls-3 {
        fill: #f7e9d5;
      }
    </style>
  </defs>
  <g id="Layer_1-2" data-name="Layer 1">
    <rect class="cls-1" x="0" y="0" width="557.74" height="110.38" rx="16.92" ry="16.92"/>
    <g>
      <path class="cls-2" d="M68.26,39.21v4.65h-9.11v27.1h-5.34v-27.1h-9.16v-4.65h23.6Z"/>
      <path class="cls-2" d="M90.62,70.96l-6.12-12.88h-6.17v12.88h-5.34v-31.74h10.81c7.31,0,11.69,3.17,11.69,9.48,0,4.37-2.07,7.18-5.75,8.51l6.76,13.76h-5.89ZM83.44,53.47c4.51,0,6.72-1.2,6.72-4.78s-2.21-4.83-6.72-4.83h-5.11v9.61h5.11Z"/>
      <path class="cls-2" d="M104.28,39.21l6.35,12.7,6.39-12.7h6.17l-9.89,18.49v13.25h-5.34v-13.25l-9.89-18.49h6.21Z"/>
      <path class="cls-2" d="M161.04,39.21v4.65h-9.11v27.1h-5.34v-27.1h-9.16v-4.65h23.6Z"/>
      <path class="cls-2" d="M176.18,71.37c-7.08,0-11.87-4.28-11.87-14.26v-4.05c0-9.98,4.79-14.26,11.87-14.26s11.92,4.28,11.92,14.26v4.05c0,9.98-4.79,14.26-11.92,14.26ZM169.64,57.11c0,6.85,2.3,9.62,6.53,9.62s6.58-2.76,6.58-9.62v-4.05c0-6.85-2.35-9.61-6.58-9.61s-6.53,2.76-6.53,9.61v4.05Z"/>
      <path class="cls-2" d="M194.71,70.96v-31.74h10.72c7.13,0,11.92,3.82,11.92,13.99v3.77c0,10.17-4.78,13.99-11.92,13.99h-10.72ZM212.01,56.97v-3.77c0-6.53-2.02-9.34-6.58-9.34h-5.38v22.5h5.38c4.55,0,6.58-2.85,6.58-9.38Z"/>
      <path class="cls-2" d="M220.06,70.96l11.04-31.74h5.06l11.04,31.74h-5.66l-2.16-6.58h-11.46l-2.16,6.58h-5.71ZM229.4,59.78h8.47l-4.23-12.83-4.23,12.83Z"/>
      <path class="cls-2" d="M252.63,39.21l6.35,12.7,6.39-12.7h6.17l-9.89,18.49v13.25h-5.34v-13.25l-9.89-18.49h6.21Z"/>
      <path class="cls-2" d="M280.64,45.79l-5.2,4.42v-12.42h5.2v8Z"/>
      <path class="cls-2" d="M304.89,46.9c-1.56-2.16-3.27-3.45-6.86-3.45-3.27,0-5.2,1.47-5.2,4.14,0,3.04,2.39,4.23,6.81,5.2,6.39,1.38,9.71,3.77,9.71,9.48,0,4.74-3.17,9.11-10.81,9.11-5.43,0-9.25-1.66-11.87-5.2l4.19-2.9c1.89,2.25,3.77,3.45,7.41,3.45,4.37,0,5.75-1.93,5.75-4.23,0-2.53-1.43-4.09-6.95-5.29-6.12-1.29-9.57-4.23-9.57-9.62,0-4.78,3.13-8.79,10.58-8.79,5.06,0,8.6,1.7,10.86,5.2l-4.05,2.9Z"/>
      <path class="cls-2" d="M333.4,59.36v11.59h-5.34v-31.74h10.81c7.31,0,11.69,3.5,11.69,10.03s-4.32,10.12-11.69,10.12h-5.47ZM338.33,54.76c4.88,0,6.9-1.89,6.9-5.52s-2.02-5.38-6.9-5.38h-4.92v10.9h4.92Z"/>
      <path class="cls-2" d="M379.82,39.21v18.86c0,9.39-4.83,13.3-11.87,13.3s-11.87-3.91-11.87-13.25v-18.91h5.34v18.91c0,6.07,2.16,8.6,6.53,8.6s6.53-2.53,6.53-8.6v-18.91h5.34Z"/>
      <path class="cls-2" d="M406.45,39.21v3.54l-14.03,23.6h14.49v4.6h-21.3v-3.54l14.03-23.55h-14.03v-4.65h20.84Z"/>
      <path class="cls-2" d="M431.25,39.21v3.54l-14.03,23.6h14.49v4.6h-21.3v-3.54l14.03-23.55h-14.03v-4.65h20.84Z"/>
      <path class="cls-2" d="M442.65,66.36h14.12v4.6h-19.46v-31.74h5.34v27.14Z"/>
      <path class="cls-2" d="M480.83,39.21v4.65h-14.12v8.37h12.74v4.6h-12.74v9.52h14.12v4.6h-19.46v-31.74h19.46Z"/>
    </g>
    <path class="cls-3" d="M528.47,55.12c-.01-.5-.21-.98-.56-1.35l-12.2-12.71c-.51-.52-1.25-.74-1.96-.56-.71.18-1.26.71-1.47,1.41-.2.7-.02,1.45.48,1.98l10.85,11.29-10.85,11.29h0c-.5.53-.69,1.28-.48,1.98.2.7.76,1.24,1.47,1.41.71.18,1.45-.04,1.96-.56l12.2-12.71c.38-.4.58-.93.56-1.48h0Z"/>
  </g>
</svg>