<?xml version="1.0" encoding="UTF-8"?>
<svg id="Layer_2" data-name="Layer 2" xmlns="http://www.w3.org/2000/svg" viewBox="0 0 506.11 42.22">
  <g id="Layer_1-2" data-name="Layer 1">
    <g>
      <path d="M15.08,35.26c1.47,0,2.68-.22,3.62-.67.95-.44,1.68-1.04,2.2-1.8.52-.75.88-1.62,1.07-2.61.19-.99.29-2,.29-3.04v-1.04h7.66v1.04c0,4.83-1.27,8.55-3.8,11.17-2.53,2.61-6.22,3.91-11.05,3.91s-8.31-1.41-11.02-4.23c-2.71-2.82-4.06-6.94-4.06-12.35v-9.05c0-2.59.35-4.92,1.04-6.99.7-2.07,1.7-3.81,3.02-5.22,1.31-1.41,2.9-2.49,4.76-3.25,1.86-.75,3.94-1.13,6.26-1.13s4.52.35,6.38,1.04c1.86.7,3.41,1.7,4.67,3.02,1.26,1.31,2.2,2.9,2.84,4.76.64,1.86.96,3.94.96,6.26v1.04h-7.66v-1.04c0-.97-.12-1.93-.35-2.9-.23-.97-.62-1.84-1.16-2.61-.54-.77-1.28-1.4-2.2-1.88-.93-.48-2.09-.73-3.48-.73-1.28,0-2.38.24-3.31.73-.93.48-1.7,1.14-2.32,1.97-.62.83-1.07,1.8-1.36,2.9-.29,1.1-.43,2.25-.43,3.45v10.21c0,1.32.13,2.52.41,3.62.27,1.1.7,2.06,1.28,2.87.58.81,1.34,1.44,2.29,1.88.95.45,2.1.67,3.45.67Z"/>
      <path d="M36.66,16.59c0-5.26,1.32-9.34,3.97-12.24,2.65-2.9,6.31-4.35,10.99-4.35s8.34,1.45,10.99,4.35c2.65,2.9,3.97,6.98,3.97,12.24v9.05c0,5.41-1.33,9.53-3.97,12.35-2.65,2.82-6.31,4.23-10.99,4.23s-8.34-1.41-10.99-4.23c-2.65-2.82-3.97-6.94-3.97-12.35v-9.05ZM51.62,35.26c1.39,0,2.55-.22,3.48-.67.93-.44,1.68-1.07,2.26-1.88.58-.81.99-1.78,1.22-2.9s.35-2.36.35-3.71v-9.98c0-1.28-.14-2.47-.41-3.6-.27-1.12-.7-2.09-1.28-2.9-.58-.81-1.33-1.46-2.26-1.94-.93-.48-2.05-.73-3.36-.73s-2.44.24-3.36.73-1.68,1.13-2.26,1.94c-.58.81-1.01,1.78-1.28,2.9-.27,1.12-.41,2.32-.41,3.6v9.98c0,1.35.12,2.59.35,3.71.23,1.12.64,2.09,1.22,2.9.58.81,1.33,1.44,2.26,1.88.93.45,2.09.67,3.48.67Z"/>
      <path d="M75.28.81h7.66v33.29h18.44v7.31h-26.1V.81Z"/>
      <path d="M111.94.81h7.66v33.29h18.44v7.31h-26.1V.81Z"/>
      <path d="M148.6.81h25.64v7.31h-17.98v9.28h17.28v7.31h-17.28v9.4h18.68v7.31h-26.33V.81Z"/>
      <path d="M198.36,35.26c1.47,0,2.68-.22,3.62-.67.95-.44,1.68-1.04,2.2-1.8.52-.75.88-1.62,1.07-2.61.19-.99.29-2,.29-3.04v-1.04h7.66v1.04c0,4.83-1.27,8.55-3.8,11.17-2.53,2.61-6.22,3.91-11.05,3.91s-8.31-1.41-11.02-4.23c-2.71-2.82-4.06-6.94-4.06-12.35v-9.05c0-2.59.35-4.92,1.04-6.99.7-2.07,1.7-3.81,3.02-5.22,1.31-1.41,2.9-2.49,4.76-3.25,1.86-.75,3.94-1.13,6.26-1.13s4.52.35,6.38,1.04c1.86.7,3.41,1.7,4.67,3.02,1.26,1.31,2.2,2.9,2.84,4.76.64,1.86.96,3.94.96,6.26v1.04h-7.66v-1.04c0-.97-.12-1.93-.35-2.9-.23-.97-.62-1.84-1.16-2.61-.54-.77-1.28-1.4-2.2-1.88-.93-.48-2.09-.73-3.48-.73-1.28,0-2.38.24-3.31.73-.93.48-1.7,1.14-2.32,1.97-.62.83-1.07,1.8-1.36,2.9-.29,1.1-.43,2.25-.43,3.45v10.21c0,1.32.13,2.52.41,3.62.27,1.1.7,2.06,1.28,2.87.58.81,1.34,1.44,2.29,1.88.95.45,2.1.67,3.45.67Z"/>
      <path d="M220.28.81h29.23v7.31h-10.79v33.29h-7.66V8.12h-10.79V.81Z"/>
      <path d="M319.41,12.64v4.76h5.34v7.31h-5.34v16.7h-14.5c-1.93,0-3.65-.27-5.16-.81-1.51-.54-2.77-1.29-3.77-2.23-1.01-.95-1.77-2.07-2.29-3.36-.52-1.29-.78-2.7-.78-4.21v-.7c0-2.32.65-4.19,1.94-5.6,1.29-1.41,2.93-2.39,4.9-2.93v-1.04c-1.97-.54-3.61-1.51-4.9-2.9-1.3-1.39-1.94-3.25-1.94-5.57v-.7c0-1.51.26-2.91.78-4.21.52-1.29,1.29-2.41,2.29-3.33,1-.93,2.26-1.66,3.77-2.2,1.51-.54,3.23-.81,5.16-.81h6.32v6.96h-5.57c-1.62,0-2.94.38-3.94,1.13-1.01.75-1.51,1.92-1.51,3.51v.35c0,1.62.5,2.8,1.51,3.54,1,.74,2.32,1.1,3.94,1.1h6.44v-4.76h7.31ZM312.1,24.36h-6.44c-1.62,0-2.94.41-3.94,1.22-1.01.81-1.51,2.03-1.51,3.65v.35c0,1.62.5,2.84,1.51,3.65,1,.81,2.32,1.22,3.94,1.22h6.44v-10.09Z"/>
      <path d="M366.44,34.1h3.83V8.12h-3.83V.81h17.81c1.93,0,3.64.27,5.13.81,1.49.54,2.74,1.28,3.77,2.2,1.02.93,1.8,2.04,2.32,3.33.52,1.3.78,2.7.78,4.21v.7c0,2.32-.65,4.18-1.94,5.57-1.3,1.39-2.93,2.36-4.9,2.9v1.04c1.97.54,3.61,1.52,4.9,2.93,1.29,1.41,1.94,3.28,1.94,5.6v.7c0,1.51-.26,2.91-.78,4.21-.52,1.3-1.3,2.42-2.32,3.36-1.03.95-2.28,1.69-3.77,2.23-1.49.54-3.2.81-5.13.81h-17.81v-7.31ZM377.93,17.4h5.57c1.62,0,2.94-.34,3.94-1.02,1-.68,1.51-1.83,1.51-3.45v-.35c0-1.62-.5-2.77-1.51-3.45-1.01-.68-2.32-1.01-3.94-1.01h-5.57v9.28ZM377.93,34.1h5.57c1.62,0,2.94-.35,3.94-1.04,1-.7,1.51-1.86,1.51-3.48v-.35c0-1.62-.5-2.78-1.51-3.48-1.01-.7-2.32-1.04-3.94-1.04h-5.57v9.4Z"/>
      <path d="M403.22,16.59c0-5.26,1.32-9.34,3.97-12.24,2.65-2.9,6.31-4.35,10.99-4.35s8.34,1.45,10.99,4.35c2.65,2.9,3.97,6.98,3.97,12.24v9.05c0,5.41-1.33,9.53-3.97,12.35-2.65,2.82-6.31,4.23-10.99,4.23s-8.34-1.41-10.99-4.23c-2.65-2.82-3.97-6.94-3.97-12.35v-9.05ZM418.18,35.26c1.39,0,2.55-.22,3.48-.67.93-.44,1.68-1.07,2.26-1.88.58-.81.99-1.78,1.22-2.9s.35-2.36.35-3.71v-9.98c0-1.28-.14-2.47-.41-3.6-.27-1.12-.7-2.09-1.28-2.9-.58-.81-1.33-1.46-2.26-1.94-.93-.48-2.05-.73-3.36-.73s-2.44.24-3.36.73-1.68,1.13-2.26,1.94c-.58.81-1.01,1.78-1.28,2.9-.27,1.12-.41,2.32-.41,3.6v9.98c0,1.35.12,2.59.35,3.71.23,1.12.64,2.09,1.22,2.9.58.81,1.33,1.44,2.26,1.88.93.45,2.09.67,3.48.67Z"/>
      <path d="M441.84.81h7.66v33.29h18.44v7.31h-26.1V.81Z"/>
      <path d="M476.88.81h29.23v7.31h-10.79v33.29h-7.66V8.12h-10.79V.81Z"/>
    </g>
  </g>
</svg>