<?xml version="1.0" encoding="UTF-8"?>
<svg id="Layer_2" data-name="Layer 2" xmlns="http://www.w3.org/2000/svg" viewBox="0 0 432.16 42.22">
  <g id="Layer_1-2" data-name="Layer 1">
    <g>
      <path d="M0,.81h7.66v16.59h13.11V.81h7.66v40.6h-7.66v-16.7H7.66v16.7H0V.81Z"/>
      <path d="M37.87.81h25.64v7.31h-17.98v9.28h17.28v7.31h-17.28v9.4h18.68v7.31h-26.33V.81Z"/>
      <path d="M101.27,41.41h-7.66v-12.18c0-.93-.24-1.68-.72-2.26-.48-.58-1.29-.87-2.41-.87h-8.82v15.31h-7.66V.81h15.54c2.09,0,3.92.29,5.51.87,1.58.58,2.91,1.38,3.97,2.41,1.06,1.03,1.88,2.21,2.44,3.57.56,1.35.84,2.8.84,4.35v1.39c0,1.66-.45,3.22-1.33,4.67-.89,1.45-2.26,2.56-4.12,3.33v1.04c1.35.16,2.43.68,3.22,1.57.79.89,1.19,2.01,1.19,3.36v14.04ZM81.66,18.79h7.31c1.86,0,3.27-.43,4.23-1.3s1.45-2.1,1.45-3.68v-.7c0-1.35-.48-2.52-1.45-3.51-.97-.99-2.38-1.48-4.23-1.48h-7.31v10.67Z"/>
      <path d="M111.19.81h25.64v7.31h-17.98v9.28h17.28v7.31h-17.28v9.4h18.68v7.31h-26.33V.81Z"/>
      <path d="M182.87.81h29.23v7.31h-10.79v33.29h-7.66V8.12h-10.79V.81Z"/>
      <path d="M219.18,16.59c0-5.26,1.32-9.34,3.97-12.24,2.65-2.9,6.31-4.35,10.99-4.35s8.34,1.45,10.99,4.35c2.65,2.9,3.97,6.98,3.97,12.24v9.05c0,5.41-1.33,9.53-3.97,12.35-2.65,2.82-6.31,4.23-10.99,4.23s-8.34-1.41-10.99-4.23c-2.65-2.82-3.97-6.94-3.97-12.35v-9.05ZM234.15,35.26c1.39,0,2.55-.22,3.48-.67.93-.44,1.68-1.07,2.26-1.88.58-.81.99-1.78,1.22-2.9s.35-2.36.35-3.71v-9.98c0-1.28-.14-2.47-.41-3.6-.27-1.12-.7-2.09-1.28-2.9-.58-.81-1.33-1.46-2.26-1.94-.93-.48-2.05-.73-3.36-.73s-2.44.24-3.36.73-1.68,1.13-2.26,1.94c-.58.81-1.01,1.78-1.28,2.9-.27,1.12-.41,2.32-.41,3.6v9.98c0,1.35.12,2.59.35,3.71.23,1.12.64,2.09,1.22,2.9.58.81,1.33,1.44,2.26,1.88.93.45,2.09.67,3.48.67Z"/>
      <path d="M293.25.81h7.66v16.59h13.11V.81h7.66v40.6h-7.66v-16.7h-13.11v16.7h-7.66V.81Z"/>
      <path d="M331.12.81h25.64v7.31h-17.98v9.28h17.28v7.31h-17.28v9.4h18.68v7.31h-26.33V.81Z"/>
      <path d="M367.78.81h7.66v33.29h18.44v7.31h-26.1V.81Z"/>
      <path d="M411.51,26.1v15.31h-7.66V.81h15.89c2.09,0,3.9.34,5.45,1.01,1.55.68,2.83,1.57,3.86,2.67,1.02,1.1,1.8,2.36,2.32,3.77.52,1.41.78,2.85.78,4.32v1.39c0,1.51-.26,2.99-.78,4.44-.52,1.45-1.3,2.75-2.32,3.89-1.03,1.14-2.31,2.06-3.86,2.75-1.55.7-3.36,1.04-5.45,1.04h-8.24ZM411.51,18.79h7.48c1.7,0,3.04-.46,4.03-1.39.99-.93,1.48-2.13,1.48-3.6v-.7c0-1.47-.49-2.67-1.48-3.6-.99-.93-2.33-1.39-4.03-1.39h-7.48v10.67Z"/>
    </g>
  </g>
</svg>