<?xml version="1.0" encoding="UTF-8"?>
<svg id="Layer_2" data-name="Layer 2" xmlns="http://www.w3.org/2000/svg" viewBox="0 0 801.23 252.39">
  <g id="Layer_1-2" data-name="Layer 1">
    <g>
      <path d="M0,37.94L13.2,0h4.4l13.2,37.94h-5l-2.92-8.69H7.92l-2.91,8.69H0ZM9.4,24.97h11.99L15.4,7.15l-5.99,17.82Z"/>
      <path d="M50.87,10.45h4.4v2.69c1.21-1.87,3.3-3.13,6.82-3.13s6.49,1.48,8.03,4.34c1.87-2.91,4.89-4.34,8.25-4.34,5.88,0,9.46,3.63,9.46,10.78v17.16h-4.4v-17.1c0-5-2.47-6.76-5.72-6.76-3.52,0-6.16,2.8-6.16,6.71v17.16h-4.4v-17.1c0-5-2.47-6.76-5.72-6.76-3.57,0-6.16,2.91-6.16,6.71v17.16h-4.4V10.45Z"/>
      <path d="M103.56,38.22l-10.78-27.77h4.73l8.19,21.34,7.2-21.34h4.67l-9.68,28.38c-2.25,6.6-3.74,9.57-11.44,9.57v-4.29c3.63,0,5.33-.6,6.98-5.5l.11-.39Z"/>
      <path d="M138.27,16.88c-1.48-1.92-3.02-2.8-6.82-2.8-3.24,0-5.33,1.26-5.33,3.68,0,3.13,2.75,4.07,6.38,4.34,5.17.38,9.9,1.87,9.9,8.19,0,4.78-3.25,8.08-10.34,8.08-5.61,0-8.52-1.7-10.61-4.56l3.25-2.31c1.48,1.98,3.46,2.8,7.42,2.8,3.68,0,5.88-1.43,5.88-3.9,0-2.97-1.76-4.01-7.09-4.4-4.62-.33-9.18-2.2-9.18-8.19,0-4.56,3.3-7.81,9.84-7.81,4.45,0,7.86,1.16,10.01,4.56l-3.3,2.31Z"/>
      <path d="M147.12,10.45h3.52v-6.05h4.4v6.05h6.32v3.96h-6.32v13.97c0,3.79.44,5.39,4.12,5.39h2.2v4.18h-2.37c-6.49,0-8.36-2.75-8.36-8.47v-15.07h-3.52v-3.96Z"/>
      <path d="M168.51,0h4.95v4.95h-4.95V0ZM168.79,10.45h4.4v27.5h-4.4V10.45Z"/>
      <path d="M202.28,33.77c-1.71,3.19-5.06,4.62-9.51,4.62-7.53,0-11.88-4.84-11.88-12.43v-3.63c0-7.81,4.45-12.32,11.88-12.32,4.12,0,7.53,1.48,9.51,4.29l-3.46,2.42c-1.21-1.76-3.52-2.75-6.05-2.75-4.73,0-7.48,3.19-7.48,8.36v3.63c0,4.73,2.2,8.47,7.48,8.47,2.58,0,4.95-.88,6.1-3.08l3.41,2.42Z"/>
      <path d="M216.14,22.05h6.54v-3.19c0-3.9-1.81-4.78-6.1-4.78-3.3,0-5.06.27-6.6,2.8l-3.3-2.31c1.92-3.19,4.73-4.56,9.95-4.56,6.98,0,10.45,2.25,10.45,8.85v19.08h-4.4v-2.69c-1.54,2.53-3.41,3.13-6.98,3.13-6.38,0-9.84-3.13-9.84-8.47,0-5.94,4.23-7.86,10.28-7.86ZM222.69,25.79h-6.54c-4.34,0-5.88,1.48-5.88,4.23,0,3.08,2.2,4.29,5.44,4.29,4.07,0,6.98-.77,6.98-6.93v-1.59Z"/>
      <path d="M235.34,0h4.4v28.38c0,2.97.17,5.5,4.67,5.5v4.07c-6.93,0-9.07-2.75-9.07-8.47V0Z"/>
      <path d="M266.36,0h4.4v13.14c1.38-2.09,3.3-3.13,7.37-3.13,5.88,0,10.01,3.08,10.01,10.78v17.16h-4.4v-17.1c0-5.55-3.02-6.76-6.27-6.76-4.12,0-6.71,2.91-6.71,6.71v17.16h-4.4V0Z"/>
      <path d="M316.41,33.77c-1.92,3.35-4.84,4.62-9.62,4.62-7.37,0-11.77-4.78-11.77-12.43v-3.63c0-7.81,3.68-12.32,10.89-12.32s10.89,4.45,10.89,12.32v2.86h-17.38v.77c0,4.73,2.25,8.47,7.04,8.47,3.58,0,5.39-1.04,6.54-3.08l3.41,2.42ZM299.41,21.34h12.92c-.22-4.62-2.25-7.37-6.43-7.37s-6.21,2.8-6.49,7.37Z"/>
      <path d="M341.43,0h4.4v37.94h-4.4v-2.42c-1.48,1.92-3.85,2.86-7.48,2.86-7.48,0-11-5.28-11-12.43v-3.63c0-7.86,4.18-12.32,11-12.32,3.63,0,5.99,1.16,7.48,3.19V0ZM341.43,26.34v-4.01c0-5.17-2.53-8.36-7.04-8.36s-7.04,3.13-7.04,8.36v3.63c0,4.67,2.37,8.47,7.04,8.47s7.04-3.52,7.04-8.08Z"/>
      <path d="M371.19,10.45h4.4v26.95c0,7.64-4.4,11.33-11.77,11.33-4.79,0-7.7-1.26-9.62-4.62l3.41-2.42c1.16,2.04,2.97,3.08,6.54,3.08,4.79,0,7.04-2.64,7.04-7.37v-1.87c-1.48,1.92-3.85,2.86-7.48,2.86-7.48,0-11-5.28-11-12.43v-3.63c0-7.86,4.18-12.32,11-12.32,3.63,0,5.99,1.16,7.48,3.19v-2.75ZM371.19,25.96v-3.63c0-5.17-2.53-8.36-7.04-8.36s-7.04,3.13-7.04,8.36v3.63c0,4.67,2.37,8.47,7.04,8.47,5.06,0,7.04-3.74,7.04-8.47Z"/>
      <path d="M403.85,33.77c-1.92,3.35-4.84,4.62-9.62,4.62-7.37,0-11.77-4.78-11.77-12.43v-3.63c0-7.81,3.68-12.32,10.89-12.32s10.89,4.45,10.89,12.32v2.86h-17.38v.77c0,4.73,2.25,8.47,7.04,8.47,3.58,0,5.39-1.04,6.54-3.08l3.41,2.42ZM386.86,21.34h12.92c-.22-4.62-2.25-7.37-6.43-7.37s-6.21,2.8-6.49,7.37Z"/>
      <path d="M426.63,10.45h4.4v2.69c1.21-1.87,3.3-3.13,6.82-3.13s6.49,1.48,8.03,4.34c1.87-2.91,4.89-4.34,8.25-4.34,5.88,0,9.46,3.63,9.46,10.78v17.16h-4.4v-17.1c0-5-2.47-6.76-5.72-6.76-3.52,0-6.16,2.8-6.16,6.71v17.16h-4.4v-17.1c0-5-2.47-6.76-5.72-6.76-3.57,0-6.16,2.91-6.16,6.71v17.16h-4.4V10.45Z"/>
      <path d="M480.75,22.05h6.54v-3.19c0-3.9-1.81-4.78-6.1-4.78-3.3,0-5.06.27-6.6,2.8l-3.3-2.31c1.92-3.19,4.73-4.56,9.95-4.56,6.98,0,10.45,2.25,10.45,8.85v19.08h-4.4v-2.69c-1.54,2.53-3.41,3.13-6.98,3.13-6.38,0-9.84-3.13-9.84-8.47,0-5.94,4.24-7.86,10.28-7.86ZM487.29,25.79h-6.54c-4.34,0-5.88,1.48-5.88,4.23,0,3.08,2.2,4.29,5.44,4.29,4.07,0,6.98-.77,6.98-6.93v-1.59Z"/>
      <path d="M513.14,14.41h-14.52v-3.96h20.29v3.41l-14.41,20.13h14.41v3.96h-20.29v-3.41l14.52-20.13Z"/>
      <path d="M545.59,33.77c-1.92,3.35-4.84,4.62-9.62,4.62-7.37,0-11.77-4.78-11.77-12.43v-3.63c0-7.81,3.68-12.32,10.89-12.32s10.89,4.45,10.89,12.32v2.86h-17.38v.77c0,4.73,2.25,8.47,7.04,8.47,3.58,0,5.39-1.04,6.54-3.08l3.41,2.42ZM528.6,21.34h12.92c-.22-4.62-2.25-7.37-6.43-7.37s-6.21,2.8-6.49,7.37Z"/>
      <path d="M577.16,37.94h-3.85l-7.97-27.5h4.67l5.5,19.3,6.93-19.3h3.68l7.31,19.47,5.5-19.47h4.67l-7.97,27.5h-3.85l-7.31-20.57-7.31,20.57Z"/>
      <path d="M608.84,0h4.4v13.14c1.38-2.09,3.3-3.13,7.37-3.13,5.88,0,10.01,3.08,10.01,10.78v17.16h-4.4v-17.1c0-5.55-3.02-6.76-6.27-6.76-4.12,0-6.71,2.91-6.71,6.71v17.16h-4.4V0Z"/>
      <path d="M658.89,33.77c-1.92,3.35-4.84,4.62-9.62,4.62-7.37,0-11.77-4.78-11.77-12.43v-3.63c0-7.81,3.68-12.32,10.89-12.32s10.89,4.45,10.89,12.32v2.86h-17.38v.77c0,4.73,2.25,8.47,7.04,8.47,3.58,0,5.39-1.04,6.54-3.08l3.41,2.42ZM641.89,21.34h12.92c-.22-4.62-2.25-7.37-6.43-7.37s-6.21,2.8-6.49,7.37Z"/>
      <path d="M681.71,16.39c-1.16-1.59-2.58-2.31-4.62-2.31-3.35,0-5.88,2.53-5.88,6.65v17.21h-4.4V10.45h4.4v2.69c1.16-1.92,3.03-3.13,6.38-3.13,3.74,0,6.1,1.27,7.86,3.74l-3.74,2.64Z"/>
      <path d="M709.6,33.77c-1.92,3.35-4.84,4.62-9.62,4.62-7.37,0-11.77-4.78-11.77-12.43v-3.63c0-7.81,3.68-12.32,10.89-12.32s10.89,4.45,10.89,12.32v2.86h-17.38v.77c0,4.73,2.25,8.47,7.04,8.47,3.58,0,5.39-1.04,6.54-3.08l3.41,2.42ZM692.6,21.34h12.92c-.22-4.62-2.25-7.37-6.43-7.37s-6.21,2.8-6.49,7.37Z"/>
      <path d="M729.95,10.45h3.52v-6.05h4.4v6.05h6.32v3.96h-6.32v13.97c0,3.79.44,5.39,4.12,5.39h2.2v4.18h-2.37c-6.49,0-8.36-2.75-8.36-8.47v-15.07h-3.52v-3.96Z"/>
      <path d="M750.79,0h4.4v13.14c1.38-2.09,3.3-3.13,7.37-3.13,5.88,0,10.01,3.08,10.01,10.78v17.16h-4.4v-17.1c0-5.55-3.02-6.76-6.27-6.76-4.12,0-6.71,2.91-6.71,6.71v17.16h-4.4V0Z"/>
      <path d="M800.84,33.77c-1.92,3.35-4.84,4.62-9.62,4.62-7.37,0-11.77-4.78-11.77-12.43v-3.63c0-7.81,3.68-12.32,10.89-12.32s10.89,4.45,10.89,12.32v2.86h-17.38v.77c0,4.73,2.25,8.47,7.04,8.47,3.58,0,5.39-1.04,6.54-3.08l3.41,2.42ZM783.85,21.34h12.92c-.22-4.62-2.25-7.37-6.43-7.37s-6.21,2.8-6.49,7.37Z"/>
      <path d="M58.63,84.39c-1.16-1.59-2.58-2.31-4.62-2.31-3.35,0-5.88,2.53-5.88,6.65v17.21h-4.4v-27.5h4.4v2.69c1.16-1.92,3.03-3.13,6.38-3.13,3.74,0,6.1,1.27,7.86,3.74l-3.74,2.64Z"/>
      <path d="M74.85,90.05h6.54v-3.19c0-3.9-1.81-4.78-6.1-4.78-3.3,0-5.06.27-6.6,2.8l-3.3-2.31c1.92-3.19,4.73-4.56,9.95-4.56,6.98,0,10.45,2.25,10.45,8.85v19.08h-4.4v-2.69c-1.54,2.53-3.41,3.13-6.98,3.13-6.38,0-9.84-3.13-9.84-8.47,0-5.94,4.24-7.86,10.28-7.86ZM81.4,93.79h-6.54c-4.34,0-5.88,1.48-5.88,4.23,0,3.08,2.2,4.29,5.44,4.29,4.07,0,6.98-.77,6.98-6.93v-1.59Z"/>
      <path d="M108.95,84.39c-1.16-1.59-2.58-2.31-4.62-2.31-3.35,0-5.88,2.53-5.88,6.65v17.21h-4.4v-27.5h4.4v2.69c1.16-1.92,3.02-3.13,6.38-3.13,3.74,0,6.1,1.27,7.86,3.74l-3.74,2.64Z"/>
      <path d="M136.84,101.77c-1.92,3.35-4.84,4.62-9.62,4.62-7.37,0-11.77-4.78-11.77-12.43v-3.63c0-7.81,3.68-12.32,10.89-12.32s10.89,4.45,10.89,12.32v2.86h-17.38v.77c0,4.73,2.25,8.47,7.04,8.47,3.57,0,5.39-1.04,6.54-3.08l3.41,2.42ZM119.84,89.34h12.92c-.22-4.62-2.25-7.37-6.43-7.37s-6.21,2.8-6.49,7.37Z"/>
      <path d="M160.21,84.88c-1.48-1.92-3.02-2.8-6.82-2.8-3.24,0-5.33,1.26-5.33,3.68,0,3.13,2.75,4.07,6.38,4.34,5.17.38,9.9,1.87,9.9,8.19,0,4.78-3.25,8.08-10.34,8.08-5.61,0-8.52-1.7-10.61-4.56l3.24-2.31c1.48,1.98,3.46,2.8,7.42,2.8,3.68,0,5.88-1.43,5.88-3.9,0-2.97-1.76-4.01-7.09-4.4-4.62-.33-9.18-2.2-9.18-8.19,0-4.56,3.3-7.81,9.84-7.81,4.45,0,7.86,1.16,10.01,4.56l-3.3,2.31Z"/>
      <path d="M169.07,78.45h3.52v-6.05h4.4v6.05h6.32v3.96h-6.32v13.97c0,3.79.44,5.39,4.12,5.39h2.2v4.18h-2.36c-6.49,0-8.36-2.75-8.36-8.47v-15.07h-3.52v-3.96Z"/>
      <path d="M226.26,93.96c0,7.15-3.52,12.43-11.44,12.43-7.31,0-11.44-4.84-11.44-12.43v-3.63c0-7.81,4.24-12.32,11.44-12.32s11.44,4.45,11.44,12.32v3.63ZM221.87,93.96v-3.63c0-5.22-2.53-8.36-7.04-8.36s-7.04,3.19-7.04,8.36v3.63c0,4.73,1.98,8.47,7.04,8.47,4.67,0,7.04-3.79,7.04-8.47Z"/>
      <path d="M234.24,78.45v-1.98c0-5.72,1.87-8.47,8.36-8.47h1.26v4.18h-1.1c-3.68,0-4.12,1.59-4.12,5.39v.88h5.22v3.96h-5.22v23.54h-4.4v-23.54h-3.52v-3.96h3.52Z"/>
      <path d="M269.17,81.2c1.49-2.03,3.85-3.19,7.48-3.19,6.82,0,11,4.45,11,12.32v3.63c0,7.15-3.52,12.43-11,12.43-3.68,0-5.99-.94-7.48-2.86v2.42h-4.4v-37.94h4.4v13.2ZM283.24,93.96v-3.63c0-5.22-2.53-8.36-7.04-8.36s-7.04,3.02-7.04,7.97v4.01c0,4.73,1.98,8.47,7.04,8.47,4.67,0,7.04-3.79,7.04-8.47Z"/>
      <path d="M316.02,93.96c0,7.15-3.52,12.43-11.44,12.43-7.31,0-11.44-4.84-11.44-12.43v-3.63c0-7.81,4.23-12.32,11.44-12.32s11.44,4.45,11.44,12.32v3.63ZM311.62,93.96v-3.63c0-5.22-2.53-8.36-7.04-8.36s-7.04,3.19-7.04,8.36v3.63c0,4.73,1.98,8.47,7.04,8.47,4.67,0,7.04-3.79,7.04-8.47Z"/>
      <path d="M320.48,78.45h3.52v-6.05h4.4v6.05h6.32v3.96h-6.32v13.97c0,3.79.44,5.39,4.12,5.39h2.2v4.18h-2.37c-6.49,0-8.36-2.75-8.36-8.47v-15.07h-3.52v-3.96Z"/>
      <path d="M350.23,90.05h6.54v-3.19c0-3.9-1.81-4.78-6.1-4.78-3.3,0-5.06.27-6.6,2.8l-3.3-2.31c1.92-3.19,4.73-4.56,9.95-4.56,6.98,0,10.45,2.25,10.45,8.85v19.08h-4.4v-2.69c-1.54,2.53-3.41,3.13-6.98,3.13-6.38,0-9.84-3.13-9.84-8.47,0-5.94,4.24-7.86,10.28-7.86ZM356.78,93.79h-6.54c-4.34,0-5.88,1.48-5.88,4.23,0,3.08,2.2,4.29,5.44,4.29,4.07,0,6.98-.77,6.98-6.93v-1.59Z"/>
      <path d="M369.43,78.45h4.4v2.69c1.38-2.09,3.3-3.13,7.37-3.13,5.88,0,10.01,3.08,10.01,10.78v17.16h-4.4v-17.1c0-5.55-3.02-6.76-6.27-6.76-4.12,0-6.71,2.91-6.71,6.71v17.16h-4.4v-27.5Z"/>
      <path d="M400.01,68h4.95v4.95h-4.95v-4.95ZM400.28,78.45h4.4v27.5h-4.4v-27.5Z"/>
      <path d="M433.78,101.77c-1.71,3.19-5.06,4.62-9.51,4.62-7.53,0-11.88-4.84-11.88-12.43v-3.63c0-7.81,4.46-12.32,11.88-12.32,4.12,0,7.53,1.48,9.51,4.29l-3.46,2.42c-1.21-1.76-3.52-2.75-6.05-2.75-4.73,0-7.48,3.19-7.48,8.36v3.63c0,4.73,2.2,8.47,7.48,8.47,2.58,0,4.95-.88,6.1-3.08l3.41,2.42Z"/>
      <path d="M447.64,90.05h6.54v-3.19c0-3.9-1.81-4.78-6.1-4.78-3.3,0-5.06.27-6.6,2.8l-3.3-2.31c1.92-3.19,4.73-4.56,9.95-4.56,6.98,0,10.45,2.25,10.45,8.85v19.08h-4.4v-2.69c-1.54,2.53-3.41,3.13-6.98,3.13-6.38,0-9.84-3.13-9.84-8.47,0-5.94,4.23-7.86,10.28-7.86ZM454.18,93.79h-6.54c-4.34,0-5.88,1.48-5.88,4.23,0,3.08,2.2,4.29,5.44,4.29,4.07,0,6.98-.77,6.98-6.93v-1.59Z"/>
      <path d="M466.83,68h4.4v28.38c0,2.97.17,5.5,4.67,5.5v4.07c-6.93,0-9.07-2.75-9.07-8.47v-29.48Z"/>
      <path d="M498.46,84.88c-1.48-1.92-3.02-2.8-6.82-2.8-3.24,0-5.33,1.26-5.33,3.68,0,3.13,2.75,4.07,6.38,4.34,5.17.38,9.9,1.87,9.9,8.19,0,4.78-3.25,8.08-10.34,8.08-5.61,0-8.52-1.7-10.61-4.56l3.25-2.31c1.48,1.98,3.46,2.8,7.42,2.8,3.68,0,5.88-1.43,5.88-3.9,0-2.97-1.76-4.01-7.09-4.4-4.62-.33-9.18-2.2-9.18-8.19,0-4.56,3.3-7.81,9.84-7.81,4.45,0,7.86,1.16,10.01,4.56l-3.3,2.31Z"/>
      <path d="M533.49,90.05h6.54v-3.19c0-3.9-1.81-4.78-6.1-4.78-3.3,0-5.06.27-6.6,2.8l-3.3-2.31c1.92-3.19,4.73-4.56,9.95-4.56,6.98,0,10.45,2.25,10.45,8.85v19.08h-4.4v-2.69c-1.54,2.53-3.41,3.13-6.98,3.13-6.38,0-9.84-3.13-9.84-8.47,0-5.94,4.24-7.86,10.28-7.86ZM540.03,93.79h-6.54c-4.34,0-5.88,1.48-5.88,4.23,0,3.08,2.2,4.29,5.44,4.29,4.07,0,6.98-.77,6.98-6.93v-1.59Z"/>
      <path d="M561.48,105.94h-3.85l-7.97-27.5h4.67l5.5,19.3,6.93-19.3h3.68l7.31,19.47,5.5-19.47h4.67l-7.97,27.5h-3.85l-7.31-20.57-7.31,20.57Z"/>
      <path d="M602.07,90.05h6.54v-3.19c0-3.9-1.81-4.78-6.1-4.78-3.3,0-5.06.27-6.6,2.8l-3.3-2.31c1.92-3.19,4.73-4.56,9.95-4.56,6.98,0,10.45,2.25,10.45,8.85v19.08h-4.4v-2.69c-1.54,2.53-3.41,3.13-6.98,3.13-6.38,0-9.84-3.13-9.84-8.47,0-5.94,4.24-7.86,10.28-7.86ZM608.62,93.79h-6.54c-4.34,0-5.88,1.48-5.88,4.23,0,3.08,2.2,4.29,5.44,4.29,4.07,0,6.98-.77,6.98-6.93v-1.59Z"/>
      <path d="M621.82,68h4.95v4.95h-4.95v-4.95ZM622.09,78.45h4.4v27.5h-4.4v-27.5Z"/>
      <path d="M633.15,78.45h3.52v-6.05h4.4v6.05h6.32v3.96h-6.32v13.97c0,3.79.44,5.39,4.12,5.39h2.2v4.18h-2.37c-6.49,0-8.36-2.75-8.36-8.47v-15.07h-3.52v-3.96Z"/>
      <path d="M676.32,106.22l-10.78-27.77h4.73l8.19,21.34,7.2-21.34h4.67l-9.68,28.38c-2.25,6.6-3.74,9.57-11.44,9.57v-4.29c3.63,0,5.33-.6,6.98-5.5l.11-.39Z"/>
      <path d="M717.07,93.96c0,7.15-3.52,12.43-11.44,12.43-7.31,0-11.44-4.84-11.44-12.43v-3.63c0-7.81,4.23-12.32,11.44-12.32s11.44,4.45,11.44,12.32v3.63ZM712.67,93.96v-3.63c0-5.22-2.53-8.36-7.04-8.36s-7.04,3.19-7.04,8.36v3.63c0,4.73,1.98,8.47,7.04,8.47,4.67,0,7.04-3.79,7.04-8.47Z"/>
      <path d="M745.73,105.94h-4.4v-2.69c-1.38,2.09-3.3,3.13-7.37,3.13-5.88,0-10.01-3.08-10.01-10.78v-17.16h4.4v17.1c0,5.55,3.02,6.76,6.27,6.76,4.12,0,6.71-2.91,6.71-6.71v-17.16h4.4v27.5Z"/>
      <path d="M760.08,105.94h-6.38v-6.38h6.38v6.38Z"/>
      <path d="M39.65,152.17h16.28v-16.17h4.73v37.94h-4.73v-17.49h-16.28v17.49h-4.73v-37.94h4.73v16.17Z"/>
      <path d="M91.52,161.96c0,7.15-3.52,12.43-11.44,12.43-7.31,0-11.44-4.84-11.44-12.43v-3.63c0-7.81,4.23-12.32,11.44-12.32s11.44,4.45,11.44,12.32v3.63ZM87.12,161.96v-3.63c0-5.22-2.53-8.36-7.04-8.36s-7.04,3.19-7.04,8.36v3.63c0,4.73,1.98,8.47,7.04,8.47,4.67,0,7.04-3.79,7.04-8.47Z"/>
      <path d="M107.19,173.94h-3.85l-7.97-27.5h4.67l5.5,19.3,6.93-19.3h3.68l7.31,19.47,5.5-19.47h4.67l-7.97,27.5h-3.85l-7.31-20.57-7.31,20.57Z"/>
      <path d="M158.89,169.77c-1.92,3.35-4.84,4.62-9.62,4.62-7.37,0-11.77-4.78-11.77-12.43v-3.63c0-7.81,3.68-12.32,10.89-12.32s10.89,4.45,10.89,12.32v2.86h-17.38v.77c0,4.73,2.25,8.47,7.04,8.47,3.57,0,5.39-1.04,6.54-3.08l3.41,2.42ZM141.9,157.34h12.92c-.22-4.62-2.25-7.37-6.43-7.37s-6.21,2.8-6.49,7.37Z"/>
      <path d="M189.85,146.45l-11,27.5h-4.4l-11.22-27.5h4.95l8.36,21.89,8.36-21.89h4.95Z"/>
      <path d="M215.1,169.77c-1.92,3.35-4.84,4.62-9.62,4.62-7.37,0-11.77-4.78-11.77-12.43v-3.63c0-7.81,3.68-12.32,10.89-12.32s10.89,4.45,10.89,12.32v2.86h-17.38v.77c0,4.73,2.25,8.47,7.04,8.47,3.58,0,5.39-1.04,6.54-3.08l3.41,2.42ZM198.11,157.34h12.92c-.22-4.62-2.25-7.37-6.43-7.37s-6.21,2.8-6.49,7.37Z"/>
      <path d="M237.92,152.39c-1.16-1.59-2.58-2.31-4.62-2.31-3.35,0-5.88,2.53-5.88,6.65v17.21h-4.4v-27.5h4.4v2.69c1.16-1.92,3.03-3.13,6.38-3.13,3.74,0,6.1,1.27,7.86,3.74l-3.74,2.64Z"/>
      <path d="M248.6,177.19l-5.28,4.56v-14.19h5.28v9.62Z"/>
      <path d="M292.92,161.96c0,7.15-3.52,12.43-11.44,12.43-7.31,0-11.44-4.84-11.44-12.43v-3.63c0-7.81,4.23-12.32,11.44-12.32s11.44,4.45,11.44,12.32v3.63ZM288.52,161.96v-3.63c0-5.22-2.53-8.36-7.04-8.36s-7.04,3.19-7.04,8.36v3.63c0,4.73,1.98,8.47,7.04,8.47,4.67,0,7.04-3.79,7.04-8.47Z"/>
      <path d="M299.8,146.45h4.4v2.69c1.38-2.09,3.3-3.13,7.37-3.13,5.88,0,10.01,3.08,10.01,10.78v17.16h-4.4v-17.1c0-5.55-3.02-6.76-6.27-6.76-4.12,0-6.71,2.91-6.71,6.71v17.16h-4.4v-27.5Z"/>
      <path d="M349.85,169.77c-1.71,3.19-5.06,4.62-9.51,4.62-7.53,0-11.88-4.84-11.88-12.43v-3.63c0-7.81,4.45-12.32,11.88-12.32,4.12,0,7.53,1.48,9.51,4.29l-3.46,2.42c-1.21-1.76-3.52-2.75-6.05-2.75-4.73,0-7.48,3.19-7.48,8.36v3.63c0,4.73,2.2,8.47,7.48,8.47,2.58,0,4.95-.88,6.1-3.08l3.41,2.42Z"/>
      <path d="M375.37,169.77c-1.92,3.35-4.84,4.62-9.62,4.62-7.37,0-11.77-4.78-11.77-12.43v-3.63c0-7.81,3.68-12.32,10.89-12.32s10.89,4.45,10.89,12.32v2.86h-17.38v.77c0,4.73,2.25,8.47,7.04,8.47,3.58,0,5.39-1.04,6.54-3.08l3.41,2.42ZM358.37,157.34h12.92c-.22-4.62-2.25-7.37-6.43-7.37s-6.21,2.8-6.49,7.37Z"/>
      <path d="M405.62,174.22l-10.78-27.77h4.73l8.19,21.34,7.2-21.34h4.67l-9.68,28.38c-2.25,6.6-3.74,9.57-11.44,9.57v-4.29c3.63,0,5.33-.6,6.98-5.5l.11-.39Z"/>
      <path d="M446.37,161.96c0,7.15-3.52,12.43-11.44,12.43-7.31,0-11.44-4.84-11.44-12.43v-3.63c0-7.81,4.24-12.32,11.44-12.32s11.44,4.45,11.44,12.32v3.63ZM441.97,161.96v-3.63c0-5.22-2.53-8.36-7.04-8.36s-7.04,3.19-7.04,8.36v3.63c0,4.73,1.98,8.47,7.04,8.47,4.67,0,7.04-3.79,7.04-8.47Z"/>
      <path d="M475.02,173.94h-4.4v-2.69c-1.38,2.09-3.3,3.13-7.37,3.13-5.88,0-10.01-3.08-10.01-10.78v-17.16h4.4v17.1c0,5.55,3.02,6.76,6.27,6.76,4.12,0,6.71-2.91,6.71-6.71v-17.16h4.4v27.5Z"/>
      <path d="M518.14,169.77c-1.92,3.35-4.84,4.62-9.62,4.62-7.37,0-11.77-4.78-11.77-12.43v-3.63c0-7.81,3.68-12.32,10.89-12.32s10.89,4.45,10.89,12.32v2.86h-17.38v.77c0,4.73,2.25,8.47,7.04,8.47,3.58,0,5.39-1.04,6.54-3.08l3.41,2.42ZM501.15,157.34h12.92c-.22-4.62-2.25-7.37-6.43-7.37s-6.21,2.8-6.49,7.37Z"/>
      <path d="M526.07,146.45h4.4v2.69c1.38-2.09,3.3-3.13,7.37-3.13,5.88,0,10.01,3.08,10.01,10.78v17.16h-4.4v-17.1c0-5.55-3.02-6.76-6.27-6.76-4.12,0-6.71,2.91-6.71,6.71v17.16h-4.4v-27.5Z"/>
      <path d="M553.68,146.45h3.52v-6.05h4.4v6.05h6.32v3.96h-6.32v13.97c0,3.79.44,5.39,4.12,5.39h2.2v4.18h-2.37c-6.49,0-8.36-2.75-8.36-8.47v-15.07h-3.52v-3.96Z"/>
      <path d="M594.54,169.77c-1.92,3.35-4.84,4.62-9.62,4.62-7.37,0-11.77-4.78-11.77-12.43v-3.63c0-7.81,3.68-12.32,10.89-12.32s10.89,4.45,10.89,12.32v2.86h-17.38v.77c0,4.73,2.25,8.47,7.04,8.47,3.57,0,5.39-1.04,6.54-3.08l3.41,2.42ZM577.54,157.34h12.92c-.22-4.62-2.25-7.37-6.43-7.37s-6.21,2.8-6.49,7.37Z"/>
      <path d="M617.36,152.39c-1.16-1.59-2.58-2.31-4.62-2.31-3.35,0-5.88,2.53-5.88,6.65v17.21h-4.4v-27.5h4.4v2.69c1.16-1.92,3.03-3.13,6.38-3.13,3.74,0,6.1,1.27,7.86,3.74l-3.74,2.64Z"/>
      <path d="M628.03,177.19l-5.28,4.56v-14.19h5.28v9.62Z"/>
      <path d="M648.44,146.45h3.52v-6.05h4.4v6.05h6.32v3.96h-6.32v13.97c0,3.79.44,5.39,4.12,5.39h2.2v4.18h-2.36c-6.49,0-8.36-2.75-8.36-8.47v-15.07h-3.52v-3.96Z"/>
      <path d="M669.28,136h4.4v13.14c1.38-2.09,3.3-3.13,7.37-3.13,5.88,0,10.01,3.08,10.01,10.78v17.16h-4.4v-17.1c0-5.55-3.02-6.76-6.27-6.76-4.12,0-6.71,2.91-6.71,6.71v17.16h-4.4v-37.94Z"/>
      <path d="M719.33,169.77c-1.92,3.35-4.84,4.62-9.62,4.62-7.37,0-11.77-4.78-11.77-12.43v-3.63c0-7.81,3.68-12.32,10.89-12.32s10.89,4.45,10.89,12.32v2.86h-17.38v.77c0,4.73,2.25,8.47,7.04,8.47,3.57,0,5.39-1.04,6.54-3.08l3.41,2.42ZM702.34,157.34h12.92c-.22-4.62-2.25-7.37-6.43-7.37s-6.21,2.8-6.49,7.37Z"/>
      <path d="M742.16,152.39c-1.16-1.59-2.58-2.31-4.62-2.31-3.35,0-5.88,2.53-5.88,6.65v17.21h-4.4v-27.5h4.4v2.69c1.16-1.92,3.02-3.13,6.38-3.13,3.74,0,6.1,1.27,7.86,3.74l-3.74,2.64Z"/>
      <path d="M770.04,169.77c-1.92,3.35-4.84,4.62-9.62,4.62-7.37,0-11.77-4.78-11.77-12.43v-3.63c0-7.81,3.68-12.32,10.89-12.32s10.89,4.45,10.89,12.32v2.86h-17.38v.77c0,4.73,2.25,8.47,7.04,8.47,3.58,0,5.39-1.04,6.54-3.08l3.41,2.42ZM753.05,157.34h12.92c-.22-4.62-2.25-7.37-6.43-7.37s-6.21,2.8-6.49,7.37Z"/>
      <path d="M74.47,226.05h6.54v-3.19c0-3.9-1.81-4.78-6.1-4.78-3.3,0-5.06.27-6.6,2.8l-3.3-2.31c1.92-3.19,4.73-4.56,9.95-4.56,6.98,0,10.45,2.25,10.45,8.85v19.08h-4.4v-2.69c-1.54,2.53-3.41,3.13-6.98,3.13-6.38,0-9.84-3.13-9.84-8.47,0-5.94,4.24-7.86,10.28-7.86ZM81.01,229.79h-6.54c-4.34,0-5.88,1.48-5.88,4.23,0,3.08,2.2,4.29,5.44,4.29,4.07,0,6.98-.77,6.98-6.93v-1.59Z"/>
      <path d="M108.57,220.39c-1.16-1.59-2.58-2.31-4.62-2.31-3.35,0-5.88,2.53-5.88,6.65v17.21h-4.4v-27.5h4.4v2.69c1.16-1.92,3.03-3.13,6.38-3.13,3.74,0,6.1,1.27,7.86,3.74l-3.74,2.64Z"/>
      <path d="M136.45,237.77c-1.92,3.35-4.84,4.62-9.62,4.62-7.37,0-11.77-4.78-11.77-12.43v-3.63c0-7.81,3.68-12.32,10.89-12.32s10.89,4.45,10.89,12.32v2.86h-17.38v.77c0,4.73,2.25,8.47,7.04,8.47,3.57,0,5.39-1.04,6.54-3.08l3.41,2.42ZM119.46,225.34h12.92c-.22-4.62-2.25-7.37-6.43-7.37s-6.21,2.8-6.49,7.37Z"/>
      <path d="M180.73,229.96c0,7.15-3.52,12.43-11.44,12.43-7.31,0-11.44-4.84-11.44-12.43v-3.63c0-7.81,4.23-12.32,11.44-12.32s11.44,4.45,11.44,12.32v3.63ZM176.33,229.96v-3.63c0-5.22-2.53-8.36-7.04-8.36s-7.04,3.19-7.04,8.36v3.63c0,4.73,1.98,8.47,7.04,8.47,4.67,0,7.04-3.79,7.04-8.47Z"/>
      <path d="M187.6,214.45h4.4v2.69c1.38-2.09,3.3-3.13,7.37-3.13,5.88,0,10.01,3.08,10.01,10.78v17.16h-4.4v-17.1c0-5.55-3.02-6.76-6.27-6.76-4.12,0-6.71,2.91-6.71,6.71v17.16h-4.4v-27.5Z"/>
      <path d="M217.63,204h4.4v28.38c0,2.97.17,5.5,4.67,5.5v4.07c-6.93,0-9.07-2.75-9.07-8.47v-29.48Z"/>
      <path d="M241.28,242.22l-10.78-27.77h4.73l8.19,21.34,7.2-21.34h4.67l-9.68,28.38c-2.25,6.6-3.74,9.57-11.44,9.57v-4.29c3.63,0,5.33-.6,6.98-5.5l.11-.39Z"/>
      <path d="M290.83,220.88c-1.48-1.92-3.02-2.8-6.82-2.8-3.24,0-5.33,1.26-5.33,3.68,0,3.13,2.75,4.07,6.38,4.34,5.17.38,9.9,1.87,9.9,8.19,0,4.78-3.25,8.08-10.34,8.08-5.61,0-8.52-1.7-10.61-4.56l3.25-2.31c1.48,1.98,3.46,2.8,7.42,2.8,3.68,0,5.88-1.43,5.88-3.9,0-2.97-1.76-4.01-7.09-4.4-4.62-.33-9.18-2.2-9.18-8.19,0-4.56,3.3-7.81,9.84-7.81,4.45,0,7.86,1.16,10.01,4.56l-3.3,2.31Z"/>
      <path d="M323.61,229.96c0,7.15-3.52,12.43-11.44,12.43-7.31,0-11.44-4.84-11.44-12.43v-3.63c0-7.81,4.24-12.32,11.44-12.32s11.44,4.45,11.44,12.32v3.63ZM319.21,229.96v-3.63c0-5.22-2.53-8.36-7.04-8.36s-7.04,3.19-7.04,8.36v3.63c0,4.73,1.98,8.47,7.04,8.47,4.67,0,7.04-3.79,7.04-8.47Z"/>
      <path d="M345.34,214.45h4.4v2.69c1.21-1.87,3.3-3.13,6.82-3.13s6.49,1.48,8.03,4.34c1.87-2.91,4.89-4.34,8.25-4.34,5.88,0,9.46,3.63,9.46,10.78v17.16h-4.4v-17.1c0-5-2.47-6.76-5.72-6.76-3.52,0-6.16,2.8-6.16,6.71v17.16h-4.4v-17.1c0-5-2.47-6.76-5.72-6.76-3.57,0-6.16,2.91-6.16,6.71v17.16h-4.4v-27.5Z"/>
      <path d="M399.46,226.05h6.54v-3.19c0-3.9-1.81-4.78-6.1-4.78-3.3,0-5.06.27-6.6,2.8l-3.3-2.31c1.92-3.19,4.73-4.56,9.95-4.56,6.98,0,10.45,2.25,10.45,8.85v19.08h-4.4v-2.69c-1.54,2.53-3.41,3.13-6.98,3.13-6.38,0-9.84-3.13-9.84-8.47,0-5.94,4.23-7.86,10.28-7.86ZM406,229.79h-6.54c-4.34,0-5.88,1.48-5.88,4.23,0,3.08,2.2,4.29,5.44,4.29,4.07,0,6.98-.77,6.98-6.93v-1.59Z"/>
      <path d="M418.65,214.45h4.4v2.69c1.38-2.09,3.3-3.13,7.37-3.13,5.88,0,10.01,3.08,10.01,10.78v17.16h-4.4v-17.1c0-5.55-3.02-6.76-6.27-6.76-4.12,0-6.71,2.91-6.71,6.71v17.16h-4.4v-27.5Z"/>
      <path d="M456.16,242.22l-10.78-27.77h4.73l8.19,21.34,7.2-21.34h4.67l-9.68,28.38c-2.25,6.6-3.74,9.57-11.44,9.57v-4.29c3.63,0,5.33-.6,6.98-5.5l.11-.39Z"/>
      <path d="M499.06,241.94h-3.85l-7.97-27.5h4.67l5.5,19.3,6.93-19.3h3.68l7.31,19.47,5.5-19.47h4.67l-7.97,27.5h-3.85l-7.31-20.57-7.31,20.57Z"/>
      <path d="M539.65,226.05h6.54v-3.19c0-3.9-1.81-4.78-6.1-4.78-3.3,0-5.06.27-6.6,2.8l-3.3-2.31c1.92-3.19,4.73-4.56,9.95-4.56,6.98,0,10.45,2.25,10.45,8.85v19.08h-4.4v-2.69c-1.54,2.53-3.41,3.13-6.98,3.13-6.38,0-9.84-3.13-9.84-8.47,0-5.94,4.24-7.86,10.28-7.86ZM546.19,229.79h-6.54c-4.34,0-5.88,1.48-5.88,4.23,0,3.08,2.2,4.29,5.44,4.29,4.07,0,6.98-.77,6.98-6.93v-1.59Z"/>
      <path d="M566.33,242.22l-10.78-27.77h4.73l8.19,21.34,7.2-21.34h4.67l-9.68,28.38c-2.25,6.6-3.74,9.57-11.44,9.57v-4.29c3.63,0,5.33-.6,6.98-5.5l.11-.39Z"/>
      <path d="M601.03,220.88c-1.48-1.92-3.02-2.8-6.82-2.8-3.24,0-5.33,1.26-5.33,3.68,0,3.13,2.75,4.07,6.38,4.34,5.17.38,9.9,1.87,9.9,8.19,0,4.78-3.25,8.08-10.34,8.08-5.61,0-8.52-1.7-10.61-4.56l3.25-2.31c1.48,1.98,3.46,2.8,7.42,2.8,3.68,0,5.88-1.43,5.88-3.9,0-2.97-1.76-4.01-7.09-4.4-4.62-.33-9.18-2.2-9.18-8.19,0-4.56,3.3-7.81,9.84-7.81,4.45,0,7.86,1.16,10.01,4.56l-3.3,2.31Z"/>
      <path d="M648.66,229.96c0,7.15-3.52,12.43-11.44,12.43-7.31,0-11.44-4.84-11.44-12.43v-3.63c0-7.81,4.23-12.32,11.44-12.32s11.44,4.45,11.44,12.32v3.63ZM644.26,229.96v-3.63c0-5.22-2.53-8.36-7.04-8.36s-7.04,3.19-7.04,8.36v3.63c0,4.73,1.98,8.47,7.04,8.47,4.67,0,7.04-3.79,7.04-8.47Z"/>
      <path d="M677.31,241.94h-4.4v-2.69c-1.38,2.09-3.3,3.13-7.37,3.13-5.88,0-10.01-3.08-10.01-10.78v-17.16h4.4v17.1c0,5.55,3.03,6.76,6.27,6.76,4.12,0,6.71-2.91,6.71-6.71v-17.16h4.4v27.5Z"/>
      <path d="M683.14,214.45h3.52v-6.05h4.4v6.05h6.32v3.96h-6.32v13.97c0,3.79.44,5.39,4.12,5.39h2.2v4.18h-2.37c-6.49,0-8.36-2.75-8.36-8.47v-15.07h-3.52v-3.96Z"/>
      <path d="M710.09,241.94h-6.38v-6.38h6.38v6.38Z"/>
      <path d="M724.17,241.94h-6.38v-6.38h6.38v6.38Z"/>
      <path d="M738.25,241.94h-6.38v-6.38h6.38v6.38Z"/>
    </g>
  </g>
</svg>