<?xml version="1.0" encoding="UTF-8"?>
<svg id="Layer_2" data-name="Layer 2" xmlns="http://www.w3.org/2000/svg" viewBox="0 0 524.4 524.42">
  <defs>
    <style>
      .cls-1 {
        fill: #f7e9d5;
      }
    </style>
  </defs>
  <g id="Layer_1-2" data-name="Layer 1">
    <path id="p1" class="cls-1" d="M223.88,96.62c0,37.4,14.62,71.31,38.32,96.62,23.7-25.31,38.31-59.22,38.31-96.62S285.9,25.31,262.2,0c-23.7,25.31-38.32,59.22-38.32,96.62"/>
    <path id="p2" class="cls-1" d="M352.19,118.04c-26.44,26.44-40.09,60.77-41.23,95.41,34.66-1.14,68.97-14.78,95.41-41.23,26.44-26.44,40.09-60.75,41.23-95.41-34.64,1.14-68.97,14.78-95.41,41.23"/>
    <path id="p3" class="cls-1" d="M427.79,223.9c-37.4,0-71.31,14.62-96.62,38.32,25.31,23.7,59.22,38.31,96.62,38.31s71.31-14.61,96.62-38.31c-25.31-23.7-59.22-38.32-96.62-38.32"/>
    <path id="p4" class="cls-1" d="M406.38,352.21c-26.44-26.44-60.77-40.09-95.41-41.23,1.14,34.66,14.78,68.97,41.23,95.41,26.44,26.44,60.75,40.09,95.41,41.23-1.14-34.64-14.78-68.97-41.23-95.41"/>
    <path id="p5" class="cls-1" d="M300.52,427.81c0-37.4-14.62-71.31-38.32-96.62-23.7,25.31-38.31,59.22-38.31,96.62s14.61,71.31,38.31,96.62c23.7-25.31,38.32-59.22,38.32-96.62"/>
    <path id="p6" class="cls-1" d="M172.2,406.4c26.44-26.44,40.09-60.77,41.23-95.41-34.66,1.14-68.97,14.78-95.41,41.23-26.44,26.44-40.09,60.75-41.23,95.41,34.64-1.14,68.97-14.78,95.41-41.23"/>
    <path id="p7" class="cls-1" d="M96.62,300.53c37.4,0,71.31-14.62,96.62-38.32-25.31-23.7-59.22-38.31-96.62-38.31S25.31,238.51,0,262.21c25.31,23.7,59.22,38.32,96.62,38.32"/>
    <path id="p8" class="cls-1" d="M118.03,172.23c26.44,26.44,60.77,40.09,95.41,41.23-1.14-34.66-14.78-68.97-41.23-95.41-26.44-26.44-60.75-40.09-95.41-41.23,1.14,34.64,14.78,68.97,41.23,95.41"/>
  </g>
</svg>
