<?xml version="1.0" encoding="UTF-8"?>
<svg id="Layer_2" data-name="Layer 2" xmlns="http://www.w3.org/2000/svg" viewBox="0 0 906.73 143.28">
  <defs>
    <style>
      .cls-1 {
        fill: none;
        stroke: #081a1d;
        stroke-miterlimit: 10;
        stroke-width: 9px;
      }

      .cls-2 {
        opacity: .3;
      }

      .cls-3 {
        opacity: .15;
      }
    </style>
  </defs>
  <g id="Layer_1-2" data-name="Layer 1">
    <g class="cls-3">
      <line class="cls-1" y1="4.5" x2="906.73" y2="4.5"/>
    </g>
    <g class="cls-3">
      <path d="M221.83,100.63v8.45h-4.22v-22.4h8.77c1.15,0,2.15.19,3.01.56.85.37,1.56.86,2.13,1.47.56.61.99,1.3,1.28,2.08.29.78.43,1.57.43,2.38v.77c0,.83-.14,1.65-.43,2.45-.29.8-.71,1.52-1.28,2.14-.57.63-1.27,1.14-2.13,1.52-.85.38-1.86.58-3.01.58h-4.54ZM221.83,96.6h4.13c.94,0,1.68-.26,2.22-.77.54-.51.82-1.17.82-1.98v-.38c0-.81-.27-1.47-.82-1.98-.54-.51-1.29-.77-2.22-.77h-4.13v5.89Z"/>
      <path d="M252.9,109.08h-4.22v-6.72c0-.51-.13-.93-.4-1.25-.27-.32-.71-.48-1.33-.48h-4.86v8.45h-4.22v-22.4h8.58c1.15,0,2.17.16,3.04.48.87.32,1.6.76,2.19,1.33.59.57,1.03,1.22,1.34,1.97.31.75.46,1.55.46,2.4v.77c0,.92-.25,1.78-.74,2.58-.49.8-1.25,1.41-2.27,1.84v.58c.75.09,1.34.37,1.78.86.44.49.66,1.11.66,1.86v7.74ZM242.09,96.6h4.03c1.02,0,1.8-.24,2.34-.72.53-.48.8-1.16.8-2.03v-.38c0-.75-.27-1.39-.8-1.94-.53-.54-1.31-.82-2.34-.82h-4.03v5.89Z"/>
      <path d="M258.38,86.68h14.14v4.03h-9.92v5.12h9.54v4.03h-9.54v5.18h10.3v4.03h-14.53v-22.4Z"/>
      <path d="M276.74,86.68h4.35l4.38,20.29h.58l4.38-20.29h4.35l-5.06,22.4h-7.94l-5.06-22.4Z"/>
      <path d="M309.03,106.49c0,.43-.08.83-.24,1.2-.16.37-.38.69-.66.96-.28.27-.6.48-.98.64-.37.16-.76.24-1.17.24-.43,0-.82-.08-1.18-.24s-.68-.37-.96-.64c-.28-.27-.5-.59-.66-.96-.16-.37-.24-.77-.24-1.2s.08-.83.24-1.2c.16-.37.38-.69.66-.96.28-.27.6-.48.96-.64.36-.16.76-.24,1.18-.24.4,0,.79.08,1.17.24.37.16.7.37.98.64.28.27.5.59.66.96.16.37.24.77.24,1.2Z"/>
    </g>
    <g>
      <circle class="cls-3" cx="371.52" cy="95.57" r="47.71"/>
      <path class="cls-2" d="M352.36,95.71c.02,1.08.45,2.11,1.19,2.89l26.1,27.19c1.08,1.12,2.68,1.57,4.19,1.2,1.51-.37,2.71-1.53,3.14-3.02.43-1.49.04-3.11-1.04-4.23l-23.21-24.17,23.21-24.17h0c1.08-1.12,1.47-2.74,1.04-4.23-.43-1.49-1.63-2.64-3.14-3.02-1.51-.37-3.1.08-4.19,1.2l-26.1,27.19c-.81.85-1.24,1.99-1.19,3.16h0Z"/>
    </g>
    <g class="cls-3">
      <g>
        <path d="M609.83,105.01h.58v-20.29h4.22v22.4h-8.26l-2.62-20.29h-.58v20.29h-4.22v-22.4h8.26l2.62,20.29Z"/>
        <path d="M619.85,84.72h14.14v4.03h-9.92v5.12h9.54v4.03h-9.54v5.18h10.3v4.03h-14.53v-22.4Z"/>
        <path d="M643.08,84.72l3.78,9.15h.77l3.78-9.15h4.58l-4.61,10.88v.58l4.61,10.94h-4.58l-3.78-9.22h-.77l-3.78,9.22h-4.58l4.61-10.94v-.58l-4.61-10.88h4.58Z"/>
        <path d="M659.4,84.72h16.13v4.03h-5.95v18.37h-4.22v-18.37h-5.95v-4.03Z"/>
      </g>
    </g>
    <g>
      <circle class="cls-3" cx="535.21" cy="95.57" r="47.71"/>
      <path class="cls-2" d="M554.37,95.44c-.02-1.08-.45-2.11-1.19-2.89l-26.1-27.19c-1.08-1.12-2.68-1.57-4.19-1.2-1.51.37-2.71,1.53-3.14,3.02-.43,1.49-.04,3.11,1.04,4.23l23.21,24.17-23.21,24.17h0c-1.08,1.12-1.47,2.74-1.04,4.23.43,1.49,1.63,2.64,3.14,3.02,1.51.37,3.1-.08,4.19-1.2l26.1-27.19c.81-.85,1.24-1.99,1.19-3.16h0Z"/>
    </g>
    <circle cx="453.37" cy="93.69" r="12.06"/>
  </g>
</svg>