<?xml version="1.0" encoding="UTF-8"?>
<svg id="Layer_2" xmlns="http://www.w3.org/2000/svg" xmlns:xlink="http://www.w3.org/1999/xlink" version="1.1" viewBox="0 0 1079.4 496.5">
  <!-- Generator: Adobe Illustrator 30.1.0, SVG Export Plug-In . SVG Version: 2.1.1 Build 136)  -->
  <defs>
    <style>
      .st0, .st1, .st2 {
        fill: none;
      }

      .st1 {
        stroke: #081a1d;
        stroke-width: 19.5px;
      }

      .st1, .st2 {
        stroke-miterlimit: 10;
      }

      .st3 {
        fill: #6db260;
      }

      .st2 {
        stroke: #669191;
        stroke-width: 3px;
      }

      .st4 {
        fill: url(#linear-gradient);
      }

      .st5 {
        fill: #9d7c4f;
      }

      .st6 {
        fill: #1b4042;
      }

      .st7 {
        fill: #081a1d;
      }

      .st8 {
        clip-path: url(#clippath-1);
      }

      .st9 {
        clip-path: url(#clippath-2);
      }

      .st10 {
        clip-path: url(#clippath);
      }
    </style>
    <clipPath id="clippath">
      <path class="st0" d="M475.5,246.2h128.5c19.2,0,34.8,18.7,34.8,41.8v88.6c0,23.1-15.6,41.8-34.8,41.8h-128.5c-19.2,0-34.8-18.7-34.8-41.8v-88.6c0-23.1,15.6-41.8,34.8-41.8Z"/>
    </clipPath>
    <clipPath id="clippath-1">
      <path class="st0" d="M237.4,246.2h128.5c19.2,0,34.8,18.7,34.8,41.8v88.6c0,23.1-15.6,41.8-34.8,41.8h-128.5c-19.2,0-34.8-18.7-34.8-41.8v-88.6c0-23.1,15.6-41.8,34.8-41.8Z"/>
    </clipPath>
    <clipPath id="clippath-2">
      <path class="st0" d="M713.5,246.2h128.5c19.2,0,34.8,18.7,34.8,41.8v88.6c0,23.1-15.6,41.8-34.8,41.8h-128.5c-19.2,0-34.8-18.7-34.8-41.8v-88.6c0-23.1,15.6-41.8,34.8-41.8Z"/>
    </clipPath>
    <linearGradient id="linear-gradient" x1="670.8" y1="241.2" x2="885.5" y2="241.2" gradientTransform="translate(0 498) scale(1 -1)" gradientUnits="userSpaceOnUse">
      <stop offset="0" stop-color="#984498"/>
      <stop offset=".2" stop-color="#af4378"/>
      <stop offset=".2" stop-color="#c64359"/>
      <stop offset=".3" stop-color="#d74342"/>
      <stop offset=".3" stop-color="#e44331"/>
      <stop offset=".4" stop-color="#eb4327"/>
      <stop offset=".5" stop-color="#ee4324"/>
      <stop offset=".6" stop-color="#ee4624"/>
      <stop offset=".7" stop-color="#ef5024"/>
      <stop offset=".7" stop-color="#f06126"/>
      <stop offset=".8" stop-color="#f27827"/>
      <stop offset=".9" stop-color="#f59729"/>
      <stop offset=".9" stop-color="#f8b62c"/>
    </linearGradient>
  </defs>
  <rect class="st6" y="43.6" width="1079.4" height="453"/>
  <rect class="st0" x="32.9" y="82.7" width="1001.6" height="77.5"/>
  <line class="st1" x1="75.9" y1="76.3" x2="75.9" y2="465.3"/>
  <line class="st1" x1="76.2" y1="76.3" x2="76.2" y2="465.3"/>
  <line class="st1" x1="1004.1" y1="81.2" x2="1004.1" y2="463.2"/>
  <line class="st1" x1="1004.1" y1="81.2" x2="1004.1" y2="463.2"/>
  <path class="st1" d="M1000.6,457.9h-88.5v-41.8c0-24.9,20.2-45.2,45.2-45.2h43.3v87h0Z"/>
  <path class="st1" d="M81.3,460.9v-88.5h41.8c24.9,0,45.2,20.2,45.2,45.2v43.3h-87Z"/>
  <circle class="st5" cx="123.3" cy="418" r="13.3"/>
  <rect class="st1" x="35.5" y="81.6" width="1008.4" height="379.5" rx="21" ry="21"/>
  <g>
    <rect class="st7" x="440.7" y="246.2" width="198" height="172.2" rx="41.8" ry="41.8"/>
    <g class="st10">
      <rect class="st3" x="432.8" y="236" width="214.7" height="41.6"/>
    </g>
  </g>
  <g>
    <rect class="st7" x="202.6" y="246.2" width="198" height="172.2" rx="41.8" ry="41.8"/>
    <g class="st8">
      <rect class="st3" x="194.7" y="236" width="214.7" height="41.6"/>
    </g>
  </g>
  <g>
    <rect class="st7" x="678.8" y="246.2" width="198" height="172.2" rx="41.8" ry="41.8"/>
    <g class="st9">
      <rect class="st4" x="670.8" y="236" width="214.7" height="41.6"/>
    </g>
  </g>
  <line class="st1" x1="1050.6" y1="171.4" x2="35.3" y2="171.4"/>
  <line class="st1" x1="1050.6" y1="210.6" x2="35.3" y2="210.6"/>
  <circle class="st5" cx="958.1" cy="414.4" r="13.3"/>
  <rect class="st5" y="35.6" width="1079.4" height="4.1"/>
  <path class="st7" d="M361.8,0h348.3c16.6,0,30,13.4,30,30v48.2h-408.3V30c0-16.6,13.5-30,30-30Z"/>
  <path class="st5" d="M366.8,50.5h-4.6v-23.1h4.6v11.5l8.6-11.5h5.2l-7.3,9.8,7.3,13.4h-5.2l-5.1-9.3-3.5,4.7v4.6h0Z"/>
  <path class="st5" d="M401,41.3c0,1.3-.2,2.5-.7,3.6s-1.1,2.1-2,2.9-1.8,1.5-2.9,2-2.3.7-3.6.7-2.5-.2-3.6-.7c-1.1-.5-2.1-1.1-2.9-2s-1.5-1.8-2-2.9-.7-2.3-.7-3.6v-13.9h4.6v13.9c0,.6.1,1.2.4,1.8s.6,1,1,1.5.9.8,1.5,1,1.2.4,1.8.4,1.2-.1,1.8-.4c.6-.2,1.1-.6,1.5-1s.8-.9,1-1.5.4-1.2.4-1.8v-13.9h4.6v13.9h0Z"/>
  <path class="st5" d="M421.5,50.5h-17.9l9.9-18.5h-9.9v-4.6h17.9l-9.8,18.5h9.8v4.6Z"/>
  <path class="st5" d="M442.5,41.3c0,1.3-.2,2.5-.7,3.6s-1.1,2.1-2,2.9-1.8,1.5-2.9,2-2.3.7-3.6.7-2.5-.2-3.6-.7c-1.1-.5-2.1-1.1-2.9-2s-1.5-1.8-2-2.9-.7-2.3-.7-3.6v-13.9h4.6v13.9c0,.6.1,1.2.4,1.8s.6,1,1,1.5.9.8,1.5,1,1.2.4,1.8.4,1.2-.1,1.8-.4c.6-.2,1.1-.6,1.5-1s.8-.9,1-1.5.4-1.2.4-1.8v-13.9h4.6v13.9h0Z"/>
  <path class="st5" d="M451.1,30.1c0,.5,0,1-.1,1.5,0,.5-.2,1.1-.4,1.6s-.5,1-.8,1.5-.7.9-1.2,1.2l-1.7-1.2c.3-.3.5-.7.7-1s.3-.6.4-.9c-.3,0-.6-.2-.9-.3s-.5-.4-.7-.6-.4-.5-.5-.8c-.1-.3-.2-.6-.2-1s0-.7.2-1c.1-.3.3-.6.6-.9.2-.2.5-.5.9-.6s.7-.2,1.1-.2.8,0,1.1.2c.3.1.6.3.9.6.2.2.4.5.6.9.1.3.2.7.2,1h0Z"/>
  <path class="st5" d="M453.2,34.4c0-1,.2-1.8.5-2.7.4-.8.9-1.6,1.5-2.2s1.4-1.1,2.2-1.5,1.7-.5,2.7-.5h10.6v4.6h-10.6c-.3,0-.6,0-.9.2s-.5.3-.7.5-.4.5-.5.7-.2.6-.2.9,0,.6.2.9c.1.3.3.5.5.7.2.2.5.4.7.5.3.1.6.2.9.2h4.6c1,0,1.9.2,2.7.5.8.4,1.6.8,2.2,1.5s1.1,1.4,1.5,2.2c.4.8.5,1.7.5,2.7s-.2,1.8-.5,2.7c-.4.8-.9,1.6-1.5,2.2s-1.4,1.1-2.2,1.5c-.8.4-1.7.5-2.7.5h-10.3v-4.6h10.3c.3,0,.6,0,.9-.2s.5-.3.7-.5c.2-.2.4-.5.5-.7s.2-.6.2-.9,0-.6-.2-.9-.3-.5-.5-.7-.5-.4-.7-.5-.6-.2-.9-.2h-4.6c-1,0-1.9-.2-2.7-.5s-1.6-.9-2.2-1.5-1.1-1.4-1.5-2.2c-.4-.8-.5-1.7-.5-2.7Z"/>
  <path class="st5" d="M488.6,50.5h-4.6v-23.1h9.2c.9,0,1.7.1,2.5.3.8.2,1.5.5,2.2.9.7.4,1.3.9,1.9,1.5.6.6,1,1.2,1.5,1.9.4.7.7,1.4.9,2.2.2.8.3,1.6.3,2.5,0,1.3-.2,2.5-.7,3.6-.5,1.1-1.1,2.1-2,2.9s-1.8,1.5-2.9,2-2.3.7-3.6.7h-4.6v4.6h0ZM488.6,32v9.2h4.6c.6,0,1.2-.1,1.8-.4s1-.6,1.5-1c.4-.4.8-.9,1-1.5s.4-1.2.4-1.8-.1-1.2-.4-1.8c-.2-.6-.6-1.1-1-1.5-.4-.4-.9-.8-1.5-1s-1.2-.4-1.8-.4h-4.6Z"/>
  <path class="st5" d="M523.4,50.5h-4.6v-4.6h-9.2v4.6h-4.6v-13.9c0-1.3.2-2.5.7-3.6.5-1.1,1.1-2.1,2-2.9s1.8-1.5,2.9-2,2.3-.7,3.6-.7,2.5.2,3.6.7,2.1,1.1,2.9,2,1.5,1.8,2,2.9c.5,1.1.7,2.3.7,3.6v13.9h0ZM518.8,41.3v-4.6c0-.6-.1-1.2-.4-1.8-.2-.6-.6-1.1-1-1.5-.4-.4-.9-.8-1.5-1s-1.2-.4-1.8-.4-1.2.1-1.8.4c-.6.2-1.1.6-1.5,1-.4.4-.8.9-1,1.5s-.4,1.2-.4,1.8v4.6h9.3,0Z"/>
  <path class="st5" d="M536.4,50.5h-4.6v-18.5h-6.9v-4.6h18.5v4.6h-6.9v18.5Z"/>
  <path class="st5" d="M550.4,50.5h-4.6v-23.1h4.6v9.2h9.2v-9.2h4.6v23.1h-4.6v-9.2h-9.2v9.2Z"/>
  <path class="st5" d="M587.5,50.5h-4.6v-18.5h-6.9v-4.6h18.5v4.6h-6.9v18.5Z"/>
  <path class="st5" d="M618.8,39.1c0,1.1-.1,2.2-.4,3.2-.3,1-.7,2-1.2,2.8-.5.9-1.1,1.7-1.9,2.4s-1.5,1.4-2.4,1.9-1.8.9-2.8,1.2-2.1.4-3.2.4-2.2-.1-3.2-.4c-1-.3-2-.7-2.8-1.2-.9-.5-1.7-1.2-2.4-1.9s-1.4-1.5-1.9-2.4-.9-1.8-1.2-2.8c-.3-1-.4-2.1-.4-3.2s.1-2.2.4-3.2c.3-1,.7-2,1.2-2.8.5-.9,1.2-1.7,1.9-2.4s1.5-1.4,2.4-1.9,1.8-.9,2.8-1.2c1-.3,2.1-.4,3.2-.4s2.2.1,3.2.4c1,.3,2,.7,2.8,1.2.9.5,1.7,1.1,2.4,1.9s1.3,1.5,1.9,2.4.9,1.8,1.2,2.8c.3,1,.4,2.1.4,3.2ZM614.2,39.1c0-1-.2-2-.6-2.9s-.9-1.7-1.6-2.3c-.7-.7-1.4-1.2-2.3-1.6s-1.8-.6-2.9-.6-2,.2-2.9.6-1.7.9-2.3,1.6c-.7.7-1.2,1.4-1.6,2.3s-.6,1.8-.6,2.9.2,2,.6,2.8c.4.9.9,1.7,1.6,2.3s1.4,1.2,2.3,1.6c.9.4,1.8.6,2.9.6s2-.2,2.9-.6c.9-.4,1.7-.9,2.3-1.6.7-.7,1.2-1.4,1.6-2.3.4-.9.6-1.8.6-2.8Z"/>
  <path class="st5" d="M649.5,43.6c0,1-.2,1.8-.5,2.7s-.9,1.6-1.5,2.2-1.4,1.1-2.2,1.5-1.7.5-2.7.5h-11.5v-23.1h11.5c1,0,1.8.2,2.7.5s1.6.9,2.2,1.5,1.1,1.4,1.5,2.2c.4.8.5,1.7.5,2.7s0,.9-.2,1.3-.3.9-.5,1.3c-.2.4-.5.8-.8,1.1s-.6.6-1,.8c.4.2.7.5,1,.8.3.3.6.7.8,1.2.2.4.4.9.5,1.3.1.5.2.9.2,1.3h0ZM635.7,36.7h6.9c.3,0,.6,0,.9-.2s.5-.3.7-.5.4-.5.5-.7c.1-.3.2-.6.2-.9s0-.6-.2-.9-.3-.5-.5-.7c-.2-.2-.5-.4-.7-.5s-.6-.2-.9-.2h-6.9v4.6ZM635.7,45.9h6.9c.3,0,.6,0,.9-.2s.5-.3.7-.5c.2-.2.4-.5.5-.7s.2-.6.2-.9,0-.6-.2-.9-.3-.5-.5-.7c-.2-.2-.5-.4-.7-.5s-.6-.2-.9-.2h-6.9v4.6h0Z"/>
  <path class="st5" d="M668.8,50.5h-15.8v-23.1h15.8v4.6h-11.2v4.6h7.6v4.6h-7.6v4.6h11.2v4.6h0Z"/>
  <path class="st5" d="M690.3,50.5h-4.6v-4.6h-9.2v4.6h-4.6v-13.9c0-1.3.2-2.5.7-3.6.5-1.1,1.1-2.1,2-2.9.8-.8,1.8-1.5,2.9-2s2.3-.7,3.6-.7,2.5.2,3.6.7,2.1,1.1,2.9,2,1.5,1.8,2,2.9c.5,1.1.7,2.3.7,3.6v13.9h0ZM685.7,41.3v-4.6c0-.6-.1-1.2-.4-1.8-.2-.6-.6-1.1-1-1.5-.4-.4-.9-.8-1.5-1s-1.2-.4-1.8-.4-1.2.1-1.8.4c-.6.2-1.1.6-1.5,1-.4.4-.8.9-1,1.5s-.4,1.2-.4,1.8v4.6h9.2,0Z"/>
  <path class="st5" d="M703.3,50.5h-4.6v-18.5h-6.9v-4.6h18.5v4.6h-6.9v18.5Z"/>
  <circle class="st2" cx="183.3" cy="126" r="13.3"/>
  <circle class="st2" cx="133.1" cy="126" r="13.3"/>
  <circle class="st2" cx="233.3" cy="126" r="13.3"/>
  <circle class="st2" cx="848.1" cy="126" r="13.3"/>
  <circle class="st2" cx="898.1" cy="126" r="13.3"/>
  <circle class="st2" cx="947.8" cy="126" r="13.3"/>
</svg>