<?xml version="1.0" encoding="UTF-8"?>
<svg id="Layer_2" data-name="Layer 2" xmlns="http://www.w3.org/2000/svg" viewBox="0 0 598.75 33.65">
  <g id="Layer_1-2" data-name="Layer 1">
    <g>
      <path d="M4.93,4.93c-6.57,6.57-6.57,17.22,0,23.79s17.22,6.57,23.79,0,6.57-17.22,0-23.79S11.5-1.64,4.93,4.93ZM17.5,7.06c1.42,0,2.56,1.17,2.56,2.59s-1.17,2.59-2.56,2.59-2.59-1.17-2.59-2.63,1.17-2.56,2.59-2.56h0ZM21.16,24.42c-.07.21-.21.46-.36.6-.92.96-2.06,1.53-3.41,1.53-.64,0-1.24,0-1.88-.11-1.03-.14-2.34-1.42-2.17-2.77.14-.92.28-1.85.43-2.77.28-1.6.57-3.23.85-4.83,0-.11.04-.21.04-.32,0-.67-.21-.92-.89-.99-.28-.04-.57-.07-.85-.14-.32-.11-.5-.39-.46-.64.04-.28.21-.46.57-.53.18-.04.39-.04.6-.04h4.9c.6,0,.96.28.96.89,0,.5-.07.99-.18,1.49-.32,1.85-.67,3.66-.99,5.5-.11.6-.25,1.21-.32,1.81-.04.28,0,.6.07.89.11.39.39.6.78.57.32-.04.64-.14.96-.28.25-.11.46-.28.71-.36.43-.14.75.11.64.5h0Z"/>
      <g>
        <path d="M57.05,4.09h4.36v9.44h7.46V4.09h4.36v23.1h-4.36v-9.5h-7.46v9.5h-4.36V4.09Z"/>
        <path d="M76.82,13.07c0-2.99.75-5.31,2.26-6.96,1.51-1.65,3.59-2.47,6.25-2.47s4.75.82,6.25,2.47,2.26,3.97,2.26,6.96v5.15c0,3.08-.75,5.42-2.26,7.03-1.51,1.61-3.59,2.41-6.25,2.41s-4.75-.8-6.25-2.41c-1.51-1.61-2.26-3.95-2.26-7.03v-5.15ZM85.33,23.69c.79,0,1.45-.12,1.98-.38.53-.25.96-.61,1.29-1.07.33-.46.56-1.01.69-1.65.13-.64.2-1.34.2-2.11v-5.68c0-.73-.08-1.41-.23-2.05-.15-.64-.4-1.19-.73-1.65-.33-.46-.76-.83-1.29-1.11-.53-.27-1.17-.41-1.91-.41s-1.39.14-1.91.41c-.53.28-.96.64-1.29,1.11-.33.46-.57,1.01-.73,1.65-.15.64-.23,1.32-.23,2.05v5.68c0,.77.07,1.47.2,2.11s.36,1.19.69,1.65c.33.46.76.82,1.29,1.07.53.25,1.19.38,1.98.38Z"/>
        <path d="M98.14,4.09h4.36v18.94h10.49v4.16h-14.85V4.09Z"/>
        <path d="M117.14,4.09h8.38c2.86,0,4.98.67,6.37,2,1.39,1.33,2.08,3.39,2.08,6.19v6.73c0,2.79-.69,4.86-2.08,6.19-1.39,1.33-3.51,2-6.37,2h-8.38v-4.19h2.18v-14.75h-2.18v-4.16ZM125.53,23.03c1.52,0,2.58-.36,3.18-1.07.6-.71.91-1.83.91-3.35v-6.34c0-1.32-.3-2.32-.91-3-.61-.68-1.67-1.02-3.18-1.02h-1.85v14.78h1.85Z"/>
        <path d="M170.04,22.24h-7.85l-1.12,4.95h-4.55l5.51-23.1h8.18l5.51,23.1h-4.55l-1.12-4.95ZM163.11,18.08h5.97l-2.67-11.81h-.59l-2.71,11.81Z"/>
        <path d="M189.45,25.01h.59V4.09h4.36v23.1h-8.51l-2.71-20.92h-.59v20.92h-4.36V4.09h8.51l2.71,20.92Z"/>
        <path d="M204.33,19.07h-.99l-6.63-14.98h4.75l4.75,11.02h.59l4.75-11.02h4.75l-6.63,14.98h-.99v8.12h-4.36v-8.12Z"/>
        <path d="M238.59,4.09h16.63v4.16h-6.14v18.94h-4.36V8.25h-6.14v-4.16Z"/>
        <path d="M259.38,4.09h15.44v4.16h-5.54v14.78h5.54v4.16h-15.44v-4.16h5.54v-14.78h-5.54v-4.16Z"/>
        <path d="M279.9,4.09h4.36v18.94h10.49v4.16h-14.85V4.09Z"/>
        <path d="M300.1,4.09h14.59v4.16h-10.23v5.28h9.83v4.16h-9.83v5.35h10.63v4.16h-14.98V4.09Z"/>
        <path d="M340.69,4.09h14.78v4.16h-10.43v5.28h10.23v4.16h-10.23v9.5h-4.36V4.09Z"/>
        <path d="M359.57,13.07c0-2.99.75-5.31,2.26-6.96,1.51-1.65,3.59-2.47,6.25-2.47s4.75.82,6.25,2.47,2.26,3.97,2.26,6.96v5.15c0,3.08-.75,5.42-2.26,7.03-1.51,1.61-3.59,2.41-6.25,2.41s-4.75-.8-6.25-2.41c-1.51-1.61-2.26-3.95-2.26-7.03v-5.15ZM368.08,23.69c.79,0,1.45-.12,1.98-.38.53-.25.96-.61,1.29-1.07.33-.46.56-1.01.69-1.65.13-.64.2-1.34.2-2.11v-5.68c0-.73-.08-1.41-.23-2.05-.15-.64-.4-1.19-.73-1.65-.33-.46-.76-.83-1.29-1.11-.53-.27-1.17-.41-1.91-.41s-1.39.14-1.91.41c-.53.28-.96.64-1.29,1.11-.33.46-.57,1.01-.73,1.65-.15.64-.23,1.32-.23,2.05v5.68c0,.77.07,1.47.2,2.11s.36,1.19.69,1.65c.33.46.76.82,1.29,1.07.53.25,1.19.38,1.98.38Z"/>
        <path d="M396.1,27.19h-4.36v-6.93c0-.53-.14-.96-.41-1.29s-.73-.49-1.37-.49h-5.02v8.71h-4.36V4.09h8.84c1.19,0,2.23.17,3.13.49.9.33,1.66.79,2.26,1.37.6.58,1.07,1.26,1.39,2.03s.48,1.6.48,2.47v.79c0,.95-.25,1.83-.76,2.66-.51.82-1.29,1.46-2.34,1.9v.59c.77.09,1.38.38,1.83.89.45.51.68,1.14.68,1.91v7.99ZM384.94,14.32h4.16c1.06,0,1.86-.25,2.41-.74.55-.5.83-1.19.83-2.1v-.4c0-.77-.28-1.44-.83-2s-1.35-.84-2.41-.84h-4.16v6.07Z"/>
        <path d="M419.3,4.09h7.66l1.32,17.36v3.37h.79v-3.37l1.32-17.36h7.66v23.1h-3.96v-15.44l.4-5.28h-.79l-1.72,20.72h-6.53l-1.78-20.72h-.79l.4,5.28v15.44h-3.96V4.09Z"/>
        <path d="M440.35,13.07c0-2.99.75-5.31,2.26-6.96,1.51-1.65,3.59-2.47,6.25-2.47s4.75.82,6.25,2.47,2.26,3.97,2.26,6.96v5.15c0,3.08-.75,5.42-2.26,7.03-1.51,1.61-3.59,2.41-6.25,2.41s-4.75-.8-6.25-2.41c-1.51-1.61-2.26-3.95-2.26-7.03v-5.15ZM448.86,23.69c.79,0,1.45-.12,1.98-.38.53-.25.96-.61,1.29-1.07.33-.46.56-1.01.69-1.65.13-.64.2-1.34.2-2.11v-5.68c0-.73-.08-1.41-.23-2.05-.15-.64-.4-1.19-.73-1.65-.33-.46-.76-.83-1.29-1.11-.53-.27-1.17-.41-1.91-.41s-1.39.14-1.91.41c-.53.28-.96.64-1.29,1.11-.33.46-.57,1.01-.73,1.65-.15.64-.23,1.32-.23,2.05v5.68c0,.77.07,1.47.2,2.11s.36,1.19.69,1.65c.33.46.76.82,1.29,1.07.53.25,1.19.38,1.98.38Z"/>
        <path d="M476.88,27.19h-4.36v-6.93c0-.53-.14-.96-.41-1.29s-.73-.49-1.37-.49h-5.02v8.71h-4.36V4.09h8.84c1.19,0,2.23.17,3.13.49.9.33,1.66.79,2.26,1.37.6.58,1.07,1.26,1.39,2.03s.48,1.6.48,2.47v.79c0,.95-.25,1.83-.76,2.66-.51.82-1.29,1.46-2.34,1.9v.59c.77.09,1.38.38,1.83.89.45.51.68,1.14.68,1.91v7.99ZM465.73,14.32h4.16c1.06,0,1.86-.25,2.41-.74.55-.5.83-1.19.83-2.1v-.4c0-.77-.28-1.44-.83-2s-1.35-.84-2.41-.84h-4.16v6.07Z"/>
        <path d="M481.87,4.09h14.59v4.16h-10.23v5.28h9.83v4.16h-9.83v5.35h10.63v4.16h-14.98V4.09Z"/>
        <path d="M521.93,4.09h15.44v4.16h-5.54v14.78h5.54v4.16h-15.44v-4.16h5.54v-14.78h-5.54v-4.16Z"/>
        <path d="M552.98,25.01h.59V4.09h4.36v23.1h-8.51l-2.71-20.92h-.59v20.92h-4.36V4.09h8.51l2.71,20.92Z"/>
        <path d="M562.85,4.09h14.78v4.16h-10.43v5.28h10.23v4.16h-10.23v9.5h-4.36V4.09Z"/>
        <path d="M581.73,13.07c0-2.99.75-5.31,2.26-6.96,1.51-1.65,3.59-2.47,6.25-2.47s4.75.82,6.25,2.47,2.26,3.97,2.26,6.96v5.15c0,3.08-.75,5.42-2.26,7.03-1.51,1.61-3.59,2.41-6.25,2.41s-4.75-.8-6.25-2.41c-1.51-1.61-2.26-3.95-2.26-7.03v-5.15ZM590.24,23.69c.79,0,1.45-.12,1.98-.38.53-.25.96-.61,1.29-1.07.33-.46.56-1.01.69-1.65.13-.64.2-1.34.2-2.11v-5.68c0-.73-.08-1.41-.23-2.05-.15-.64-.4-1.19-.73-1.65-.33-.46-.76-.83-1.29-1.11-.53-.27-1.17-.41-1.91-.41s-1.39.14-1.91.41c-.53.28-.96.64-1.29,1.11-.33.46-.57,1.01-.73,1.65-.15.64-.23,1.32-.23,2.05v5.68c0,.77.07,1.47.2,2.11s.36,1.19.69,1.65c.33.46.76.82,1.29,1.07.53.25,1.19.38,1.98.38Z"/>
      </g>
    </g>
  </g>
</svg>