<?xml version="1.0" encoding="UTF-8"?>
<svg id="Layer_2" data-name="Layer 2" xmlns="http://www.w3.org/2000/svg" viewBox="0 0 111.59 118.09">
  <defs>
    <style>
      .cls-1 {
        fill: #9d7c4f;
      }

      .cls-2 {
        fill: #f7e9d5;
      }

      .cls-3 {
        fill: none;
        stroke: #f7e9d5;
        stroke-linecap: round;
        stroke-miterlimit: 10;
        stroke-width: 2.45px;
      }
    </style>
  </defs>
  <g id="Layer_1-2" data-name="Layer 1">
    <g>
      <path class="cls-1" d="M65.37,35.1h0c-.85-.34-1.72-.64-2.61-.89h0c.89.25,1.76.55,2.61.89Z"/>
      <path class="cls-1" d="M35.56,75.02c.21.27.43.54.66.8h0c-.23-.26-.44-.53-.66-.8Z"/>
      <path class="cls-1" d="M48.9,34.19h0c-1.39.39-2.74.88-4.03,1.49h0c1.29-.6,2.63-1.1,4.03-1.49Z"/>
      <path class="cls-1" d="M76.46,74.47c.58-.77,1.1-1.58,1.59-2.41h0c-.49.83-1.02,1.64-1.59,2.41Z"/>
      <path class="cls-1" d="M62.68,83.89h0c1.38-.38,2.71-.87,3.99-1.47h0c-1.28.6-2.61,1.09-3.99,1.47Z"/>
      <path class="cls-1" d="M76.46,74.47c-.49.66-1.02,1.3-1.58,1.91.55-.61,1.08-1.25,1.58-1.91Z"/>
      <path class="cls-1" d="M46.21,82.99h0c.85.34,1.72.64,2.61.88h0c-.89-.25-1.76-.55-2.61-.88Z"/>
      <path class="cls-1" d="M81.58,59.04c0,.9-.05,1.79-.14,2.67h0c.09-.88.14-1.77.14-2.67,0-.62-.03-1.22-.07-1.83h0c.04.6.07,1.21.07,1.83Z"/>
      <path class="cls-1" d="M50.18,84.21h0c1.81.4,3.68.62,5.61.62s3.75-.21,5.53-.6h0c-1.78.39-3.63.6-5.53.6s-3.8-.22-5.61-.62Z"/>
      <path class="cls-1" d="M49.56,85.87c-1.06,3.12-1.62,6.42-1.63,9.78-.01,7.54,2.74,14.75,7.77,20.4,5.05-5.63,7.82-12.84,7.84-20.38,0-3.37-.54-6.66-1.6-9.79-1.98.45-4.03.7-6.15.7s-4.23-.25-6.23-.72Z"/>
      <path class="cls-1" d="M48.82,83.87h0c.22.06.45.13.67.18h0c-.23-.06-.45-.12-.67-.18Z"/>
      <path class="cls-1" d="M64.23,95.68c-.01,8.29-3.27,15.8-8.53,21.4-5.24-5.62-8.47-13.14-8.46-21.43h0,0c0-3.48.59-6.82,1.64-9.94-.22-.06-.44-.13-.67-.19-1.09,3.23-1.66,6.65-1.67,10.13-.01,8.13,3.06,15.91,8.64,21.9l.5.54.5-.54c5.61-5.96,8.7-13.73,8.72-21.87,0-3.48-.56-6.9-1.64-10.13-.22.06-.44.13-.67.19,1.05,3.12,1.62,6.47,1.61,9.95Z"/>
      <path class="cls-1" d="M62.01,84.07h0c.23-.06.45-.12.67-.18h0c-.22.06-.45.12-.67.18Z"/>
      <path class="cls-1" d="M61.32,84.23h0c.23-.05.46-.1.69-.16h0c-.23.06-.46.11-.69.16Z"/>
      <path class="cls-1" d="M63.54,95.68c-.01,7.54-2.79,14.75-7.84,20.38-5.03-5.65-7.78-12.87-7.77-20.4h-.69c-.01,8.29,3.21,15.81,8.46,21.42,5.26-5.6,8.51-13.11,8.53-21.4,0-3.48-.57-6.82-1.61-9.95-.22.06-.45.1-.67.16,1.05,3.13,1.6,6.42,1.6,9.79Z"/>
      <path class="cls-1" d="M50.18,84.21c-.23-.05-.46-.1-.69-.16h0c.23.06.46.11.69.16h0Z"/>
      <path class="cls-1" d="M49.56,85.87c-.22-.05-.45-.1-.67-.16-1.06,3.12-1.64,6.46-1.64,9.94h.69c0-3.36.57-6.66,1.63-9.78Z"/>
      <path class="cls-1" d="M61.4,33.88h0c-1.81-.4-3.68-.62-5.61-.62s-3.75.21-5.53.6h0c1.78-.39,3.63-.6,5.53-.6s3.8.22,5.61.62Z"/>
      <path class="cls-1" d="M62.03,32.22c1.06-3.12,1.62-6.42,1.63-9.78h0c.01-7.54-2.74-14.75-7.77-20.4-5.05,5.63-7.82,12.84-7.84,20.38,0,3.36.54,6.66,1.6,9.79,1.98-.45,4.03-.7,6.15-.7s4.23.25,6.23.72Z"/>
      <path class="cls-1" d="M49.58,34.02h0c-.23.06-.45.12-.67.18h0c.22-.06.45-.12.67-.18Z"/>
      <path class="cls-1" d="M62.76,34.22h0c-.22-.06-.45-.13-.67-.18h0c.23.06.45.12.67.18Z"/>
      <path class="cls-1" d="M47.36,22.41c.01-8.29,3.27-15.8,8.53-21.4,5.24,5.62,8.47,13.14,8.46,21.43,0,3.48-.59,6.82-1.64,9.94.22.06.44.13.67.19,1.09-3.23,1.66-6.65,1.67-10.13.01-8.14-3.05-15.91-8.64-21.9l-.5-.54-.5.54c-5.61,5.96-8.7,13.73-8.72,21.87,0,3.48.56,6.9,1.64,10.13.22-.06.44-.13.67-.19-1.05-3.12-1.62-6.47-1.61-9.95Z"/>
      <path class="cls-1" d="M50.26,33.86h0c-.23.05-.46.1-.69.16h0c.23-.06.46-.11.69-.16Z"/>
      <path class="cls-1" d="M61.4,33.88c.23.05.46.1.69.16h0c-.23-.06-.46-.11-.69-.16h0Z"/>
      <path class="cls-1" d="M48.05,22.41c.01-7.54,2.79-14.74,7.84-20.38,5.03,5.65,7.78,12.87,7.77,20.4h0c0,3.37-.56,6.66-1.63,9.78.23.05.45.1.67.16,1.06-3.12,1.64-6.46,1.64-9.94.01-8.29-3.21-15.81-8.46-21.43-5.26,5.6-8.51,13.11-8.53,21.4,0,3.48.57,6.82,1.61,9.95.22-.06.45-.1.67-.16-1.05-3.12-1.6-6.42-1.6-9.79Z"/>
      <path class="cls-1" d="M67.54,36.09c.34.17.67.35,1,.54-.33-.19-.66-.37-1-.54Z"/>
      <path class="cls-1" d="M75.82,40.16c.28-.23.55-.46.84-.71,5.05-4.33,10.27-9.76,11.98-12.1,3.09-4.24,2.68-9.83-.91-12.45-1.22-.89-2.69-1.35-4.25-1.35-.64,0-1.29.08-1.95.23-2.31.55-4.42,1.99-5.93,4.06-1.71,2.35-5.28,8.98-7.86,15.11-.16.37-.3.72-.44,1.08,3.23,1.49,6.12,3.58,8.53,6.14Z"/>
      <path class="cls-1" d="M75.03,17.43c3.32-4.56,9.19-5.94,13.1-3.09,3.91,2.85,4.39,8.85,1.07,13.41-1.75,2.4-7.38,8.28-12.9,12.91.15.17.3.35.45.52.27-.23.53-.45.82-.69,5.12-4.4,10.44-9.93,12.19-12.34,3.54-4.86,2.99-11.31-1.22-14.38-2.06-1.5-4.66-1.98-7.33-1.35-2.63.62-5.02,2.25-6.73,4.59-1.76,2.41-5.4,9.16-8.02,15.38-.15.37-.3.72-.44,1.07.21.09.43.17.64.26,2.72-6.69,6.62-13.9,8.38-16.3Z"/>
      <path class="cls-1" d="M66.01,35.37h0c-.21-.09-.43-.18-.64-.26h0c.21.09.43.17.64.26Z"/>
      <path class="cls-1" d="M66.46,35.57c-.15-.07-.29-.14-.44-.2h0c.15.06.3.13.44.2Z"/>
      <path class="cls-1" d="M67.73,32.94c2.58-6.13,6.15-12.76,7.86-15.11,1.51-2.07,3.61-3.51,5.93-4.06.66-.16,1.32-.23,1.95-.23,1.56,0,3.03.46,4.25,1.35,3.6,2.62,4.01,8.21.91,12.45-1.71,2.35-6.93,7.77-11.98,12.1-.29.25-.56.48-.84.71.16.17.32.34.47.51,5.52-4.63,11.16-10.52,12.9-12.91,3.32-4.56,2.84-10.56-1.07-13.41-3.91-2.85-9.77-1.47-13.1,3.09-1.75,2.4-5.66,9.61-8.38,16.3.21.09.42.19.63.29.14-.35.29-.71.44-1.08Z"/>
      <path class="cls-1" d="M44.94,82.44h0c-2.38-1.11-4.57-2.56-6.49-4.31,1.92,1.75,4.11,3.2,6.49,4.31Z"/>
      <path class="cls-1" d="M35.76,77.92c-5.18,4.32-10.65,9.85-12.81,12.82-3.09,4.24-2.68,9.82.91,12.45,1.72,1.26,3.92,1.66,6.2,1.12,2.31-.55,4.42-1.99,5.93-4.06,1.71-2.35,5.28-8.97,7.86-15.11.16-.37.3-.72.44-1.08-3.23-1.49-6.13-3.59-8.54-6.15Z"/>
      <path class="cls-1" d="M45.57,82.72h0c.21.09.43.18.64.26h0c-.21-.09-.43-.17-.64-.26Z"/>
      <path class="cls-1" d="M36.55,100.66c-3.32,4.56-9.18,5.94-13.1,3.09-3.91-2.85-4.39-8.85-1.07-13.41,1.75-2.4,7.38-8.28,12.9-12.91-.15-.16-.29-.33-.43-.5-5.9,4.95-11.75,11.24-13.03,13-3.54,4.86-2.99,11.31,1.22,14.38,1.47,1.07,3.21,1.62,5.06,1.62.75,0,1.51-.09,2.28-.27,2.63-.62,5.02-2.25,6.73-4.59,1.76-2.41,5.4-9.17,8.02-15.38.15-.37.3-.72.44-1.07-.21-.09-.43-.17-.64-.26-2.72,6.69-6.62,13.9-8.38,16.31Z"/>
      <path class="cls-1" d="M36.22,75.82h0c.14.17.28.33.43.5h0c-.15-.16-.29-.33-.43-.5Z"/>
      <path class="cls-1" d="M36.65,76.32h0s.04.05.06.07c-.02-.02-.04-.05-.06-.07Z"/>
      <path class="cls-1" d="M43.86,85.15c-2.58,6.13-6.15,12.76-7.86,15.11-1.51,2.07-3.61,3.51-5.93,4.06-2.28.54-4.48.14-6.2-1.12-3.6-2.62-4.01-8.2-.91-12.45,2.16-2.97,7.63-8.5,12.81-12.82-.16-.17-.31-.33-.46-.5-5.52,4.63-11.16,10.52-12.9,12.91-3.32,4.56-2.84,10.56,1.07,13.41,3.91,2.85,9.77,1.47,13.1-3.09,1.75-2.41,5.66-9.61,8.38-16.31-.21-.09-.42-.19-.63-.29-.14.35-.29.71-.44,1.08Z"/>
      <path class="cls-1" d="M44.94,82.44h0c.21.1.42.19.63.28h0c-.21-.09-.42-.19-.63-.28Z"/>
      <path class="cls-1" d="M81.37,55.82h0c-.33-2.62-1.05-5.12-2.1-7.44,1.05,2.32,1.77,4.82,2.1,7.44Z"/>
      <path class="cls-1" d="M78.75,47.29c-.16-.32-.34-.64-.51-.95h0c.18.31.35.63.51.95Z"/>
      <path class="cls-1" d="M106.13,51.51c3.88-1.25,4.06-1.91,4.07-1.98.03-.3-1.42-1.16-2.11-1.57-1.8-1.06-4.04-2.39-4.72-4.51-.68-2.12.36-4.5,1.2-6.42.32-.74,1-2.28.79-2.51-.05-.05-.57-.47-4.46.78-6.15,1.99-14.76,6.11-21.19,10.1,1.78,3.11,2.97,6.6,3.42,10.31,7.54-.53,16.87-2.22,23-4.2Z"/>
      <path class="cls-1" d="M81.51,57.21h0c-.02-.23-.03-.47-.05-.7h0c.02.23.04.47.05.7Z"/>
      <path class="cls-1" d="M108.79,46.77c-1.6-.94-3.59-2.12-4.11-3.74-.52-1.62.4-3.74,1.15-5.44.76-1.73,1.36-3.1.55-3.99-.76-.84-2.42-.73-5.91.39-5.44,1.76-14.55,5.88-21.49,10.21.13.2.26.39.38.59,6.68-4.15,15.52-8.27,21.33-10.15,10.77-3.48,1.78,3.76,3.34,8.6,1.56,4.84,13.09,5.44,2.32,8.92-5.78,1.87-15.3,3.7-23.13,4.25.02.23.04.47.05.7,8.14-.56,17.88-2.54,23.29-4.29,3.49-1.13,4.89-2.01,5.02-3.14.13-1.19-1.15-1.95-2.78-2.91Z"/>
      <path class="cls-1" d="M78.23,46.34s-.02-.03-.03-.05c0,.02.02.03.03.05h0Z"/>
      <path class="cls-1" d="M81.37,55.82c.03.23.06.46.08.7h0c-.02-.23-.05-.46-.08-.7h0Z"/>
      <path class="cls-1" d="M100.9,35.31c3.89-1.25,4.41-.83,4.46-.78.2.23-.47,1.77-.79,2.51-.84,1.92-1.88,4.3-1.2,6.42.69,2.12,2.92,3.44,4.72,4.51.7.41,2.15,1.27,2.11,1.57,0,.07-.19.72-4.07,1.98-6.13,1.98-15.47,3.67-23,4.2.03.23.06.46.08.7,7.83-.55,17.35-2.38,23.13-4.25,10.77-3.48-.76-4.09-2.32-8.92-1.56-4.84,7.43-12.07-3.34-8.6-5.8,1.88-14.65,5.99-21.33,10.15.12.2.23.41.35.61,6.43-3.99,15.04-8.11,21.19-10.1Z"/>
      <path class="cls-1" d="M26.81,62.49c-7.2.64-15.79,2.29-21.36,4.09-3.88,1.25-4.06,1.91-4.07,1.98-.03.3,1.42,1.16,2.11,1.57,1.8,1.06,4.04,2.39,4.72,4.51.68,2.12-.36,4.5-1.19,6.42-.32.74-1,2.28-.79,2.51.05.05.58.47,4.46-.78,6.15-1.99,14.76-6.11,21.19-10.1-1.78-3.11-2.97-6.6-3.42-10.32-.53.04-1.07.08-1.64.13Z"/>
      <path class="cls-1" d="M10.9,83.44c-10.77,3.48-1.78-3.76-3.34-8.6-1.56-4.84-13.09-5.44-2.32-8.92,5.78-1.87,15.3-3.7,23.13-4.25-.02-.23-.04-.46-.05-.69-.53.04-1.07.08-1.63.13-7.3.65-16,2.32-21.66,4.15-3.49,1.13-4.89,2.01-5.02,3.14-.13,1.19,1.15,1.95,2.78,2.91,1.6.95,3.59,2.12,4.11,3.74.52,1.62-.4,3.74-1.15,5.44-.76,1.73-1.36,3.1-.55,3.99.33.37.84.55,1.59.55.97,0,2.35-.31,4.32-.95,5.44-1.76,14.55-5.88,21.5-10.21-.13-.2-.26-.39-.38-.59-6.68,4.15-15.52,8.27-21.33,10.15Z"/>
      <path class="cls-1" d="M10.69,82.78c-3.88,1.25-4.41.83-4.46.78-.21-.23.47-1.77.79-2.51.84-1.92,1.88-4.3,1.19-6.42-.69-2.12-2.92-3.44-4.72-4.51-.7-.41-2.15-1.27-2.11-1.57,0-.07.19-.72,4.07-1.98,5.57-1.8,14.16-3.44,21.36-4.09.57-.05,1.11-.09,1.64-.13-.03-.23-.06-.46-.08-.68-7.83.55-17.35,2.38-23.13,4.25-10.77,3.48.76,4.09,2.32,8.92,1.56,4.84-7.43,12.08,3.34,8.6,5.8-1.88,14.65-5.99,21.33-10.15-.12-.2-.23-.41-.35-.61-6.43,3.99-15.04,8.11-21.19,10.1Z"/>
      <path class="cls-1" d="M81.26,63.1h0c-.4,2.51-1.15,4.91-2.22,7.13,1.07-2.22,1.83-4.61,2.22-7.13Z"/>
      <path class="cls-1" d="M78.72,70.84h0c.11-.21.22-.41.32-.62-.1.21-.21.41-.32.62Z"/>
      <path class="cls-1" d="M86.71,76.67c3.73,2.72,8.9,3.83,12.88,2.77l7.81-2.09c.7-.19,1.17-.55,1.33-1.03.16-.48,0-1.06-.46-1.62l-5-6.21c-2.59-3.21-7.43-5.37-12.05-5.37h-8.19c-.46,3.12-1.46,6.08-2.89,8.78l6.56,4.78Z"/>
      <path class="cls-1" d="M91.23,62.42c4.81,0,9.88,2.27,12.58,5.63l5,6.21c1.25,1.56.71,3.24-1.23,3.76l-7.81,2.09c-4.16,1.11-9.59-.05-13.47-2.88l-6.49-4.73c-.11.2-.23.4-.35.6l6.43,4.68c3.02,2.2,6.92,3.42,10.52,3.42,1.23,0,2.43-.14,3.54-.44l7.81-2.09c1.17-.31,1.98-1,2.29-1.94.31-.94.06-1.97-.7-2.92l-5-6.21c-2.83-3.52-8.11-5.88-13.12-5.89h-8.03c-.02.22-.05.45-.08.68h8.1Z"/>
      <path class="cls-1" d="M81.35,62.41h0c.03-.23.06-.46.09-.69h0c-.02.23-.06.46-.09.69Z"/>
      <path class="cls-1" d="M78.05,72.07h0c.12-.2.23-.4.35-.6h0c-.11.2-.23.4-.35.6Z"/>
      <path class="cls-1" d="M78.72,70.84c-.11.21-.21.41-.32.62h0c.11-.2.22-.41.32-.62h0Z"/>
      <path class="cls-1" d="M91.23,63.11c4.62,0,9.46,2.16,12.05,5.37l5,6.21c.46.57.62,1.14.46,1.62-.16.48-.63.85-1.33,1.03l-7.81,2.09c-3.99,1.06-9.16-.05-12.88-2.77l-6.56-4.78c-.11.21-.22.41-.33.61l6.49,4.73c3.88,2.83,9.31,3.99,13.47,2.88l7.81-2.09c1.93-.52,2.48-2.2,1.23-3.76l-5-6.21c-2.71-3.36-7.78-5.63-12.58-5.63h-8.1c-.03.22-.05.45-.09.68h8.19Z"/>
      <path class="cls-1" d="M81.26,63.1h0c.04-.23.06-.46.09-.69h0c-.03.23-.06.46-.09.69Z"/>
      <path class="cls-1" d="M24.88,41.42c-2.78-2.03-6.38-3.16-9.68-3.16-1.12,0-2.2.13-3.2.4l-7.81,2.09c-.7.19-1.18.56-1.33,1.04-.16.48,0,1.05.46,1.62l5,6.21c2.59,3.21,7.43,5.37,12.05,5.38h8.19c.46-3.12,1.46-6.08,2.89-8.78l-6.56-4.78Z"/>
      <path class="cls-1" d="M20.36,55.67c-4.81,0-9.88-2.27-12.58-5.63l-5-6.21c-1.25-1.56-.71-3.24,1.23-3.76l7.81-2.09c4.16-1.11,9.59.05,13.47,2.88l6.48,4.72c.11-.2.23-.4.35-.6l-6.42-4.68c-4.05-2.95-9.7-4.15-14.05-2.98l-7.81,2.09c-1.17.31-1.98,1-2.29,1.94-.31.94-.06,1.97.7,2.91l5,6.21c2.83,3.52,8.11,5.89,13.12,5.89h8.02c.02-.22.05-.45.08-.68h-8.1Z"/>
      <path class="cls-1" d="M20.36,54.98c-4.62,0-9.46-2.17-12.05-5.38l-5-6.21c-.46-.56-.62-1.14-.46-1.62.16-.48.63-.85,1.33-1.04l7.81-2.09c1.01-.27,2.09-.4,3.2-.4,3.3,0,6.9,1.13,9.68,3.16l6.56,4.78c.11-.21.22-.41.33-.61l-6.48-4.72c-3.88-2.83-9.31-3.99-13.47-2.88l-7.81,2.09c-1.93.52-2.48,2.2-1.23,3.76l5,6.21c2.71,3.36,7.78,5.63,12.58,5.63h8.1c.03-.22.05-.45.09-.68h-8.19Z"/>
      <path class="cls-1" d="M41.19,27.59c-.22-3.17-.44-6.44-3.6-10.94-4.69-6.65-12.72-5.74-15.52-5.17-1.41,2.48-4.79,9.83.07,16.36,3.29,4.4,6.33,5.64,9.27,6.83,2.07.84,4.2,1.71,6.25,3.67,1.56-1.37,3.27-2.57,5.11-3.56-1.27-2.61-1.43-4.93-1.58-7.19Z"/>
      <path class="cls-1" d="M43.62,36.31c-1.72.92-3.31,2.03-4.77,3.3h0c1.46-1.27,3.05-2.38,4.77-3.3h0Z"/>
      <path class="cls-1" d="M44.88,35.68h0c-.21.1-.43.2-.64.31h0c.21-.11.42-.21.64-.31Z"/>
      <path class="cls-1" d="M21.58,28.25c-5.3-7.12-1.32-15.09.04-17.38h0c2.61-.58,11.42-1.87,16.53,5.39,5.57,7.94,2.32,12.24,5.23,18.21.21-.11.42-.21.63-.31-1.14-2.36-1.3-4.46-1.45-6.66-.22-3.2-.47-6.82-3.84-11.64-5.36-7.6-14.55-6.26-17.24-5.66l-.29.06-.15.26c-1.4,2.37-5.55,10.69,0,18.15,3.52,4.71,6.89,6.08,9.86,7.28,2,.81,3.91,1.59,5.76,3.33.17-.16.33-.32.5-.48-4.74-4.49-9.8-2.84-15.56-10.54Z"/>
      <path class="cls-1" d="M38.45,39.96c.13-.12.26-.23.4-.34h0c-.13.12-.27.23-.4.34Z"/>
      <path class="cls-1" d="M43.62,36.31c.2-.11.41-.21.62-.32h0c-.21.1-.41.21-.62.32h0Z"/>
      <path class="cls-1" d="M31.4,34.67c-2.94-1.19-5.98-2.43-9.27-6.83-4.86-6.53-1.48-13.88-.07-16.36,2.8-.57,10.84-1.48,15.52,5.17,3.16,4.5,3.38,7.77,3.6,10.94.15,2.26.32,4.58,1.58,7.19.2-.11.41-.21.61-.31-2.9-5.97.34-10.28-5.23-18.21-5.11-7.26-13.92-5.96-16.53-5.39h0c-1.36,2.3-5.34,10.26-.04,17.39,5.76,7.71,10.82,6.06,15.56,10.54.17-.16.34-.31.52-.46-2.06-1.96-4.18-2.83-6.25-3.67Z"/>
      <path class="cls-1" d="M67.93,81.8h0c.21-.11.41-.23.61-.34-.2.12-.41.23-.61.34Z"/>
      <path class="cls-1" d="M70.4,90.57c.22,3.16.44,6.44,3.6,10.94,4.69,6.65,12.73,5.73,15.52,5.17,1.41-2.48,4.79-9.83-.07-16.36-3.29-4.4-6.33-5.64-9.27-6.83-2.08-.84-4.22-1.72-6.29-3.7-1.56,1.36-3.27,2.55-5.1,3.54,1.29,2.63,1.46,4.97,1.61,7.25Z"/>
      <path class="cls-1" d="M72.7,78.5h0c-.48.42-.97.82-1.48,1.2.51-.38,1-.79,1.48-1.2Z"/>
      <path class="cls-1" d="M90,89.9c5.3,7.12,1.32,15.09-.04,17.38h0c-2.61.58-11.42,1.88-16.53-5.38-5.59-7.96-2.3-12.27-5.25-18.27-.21.11-.42.21-.63.31,1.16,2.38,1.32,4.5,1.48,6.71.22,3.2.47,6.82,3.85,11.64,3.55,5.04,8.79,6.15,12.7,6.15,1.99,0,3.63-.29,4.54-.49l.35-.15.1-.17c1.4-2.37,5.55-10.69,0-18.15-3.52-4.71-6.89-6.08-9.86-7.28-2.01-.82-3.93-1.6-5.79-3.36-.17.16-.33.32-.5.48,4.75,4.53,9.82,2.85,15.59,10.58Z"/>
      <path class="cls-1" d="M66.67,82.42h0c.21-.1.43-.2.64-.31h0c-.21.11-.42.21-.64.31Z"/>
      <path class="cls-1" d="M73.13,78.13c-.14.13-.29.25-.43.37h0c.14-.12.29-.25.43-.37Z"/>
      <path class="cls-1" d="M67.93,81.8c-.2.11-.41.21-.62.32h0c.21-.1.41-.21.62-.32h0Z"/>
      <path class="cls-1" d="M80.18,83.48c2.94,1.19,5.98,2.43,9.27,6.83,4.86,6.53,1.48,13.88.07,16.36-2.8.57-10.84,1.49-15.52-5.17-3.16-4.5-3.38-7.77-3.6-10.94-.16-2.28-.32-4.61-1.61-7.25-.2.11-.41.21-.61.31,2.95,6-.33,10.31,5.25,18.27,5.11,7.26,13.92,5.96,16.53,5.38h0c1.36-2.3,5.34-10.26.04-17.39-5.77-7.73-10.85-6.05-15.59-10.58-.17.16-.34.31-.52.46,2.07,1.99,4.21,2.86,6.29,3.7Z"/>
      <path class="cls-1" d="M39.67,71.08c.37.49.75.96,1.16,1.41h0c-.41-.45-.8-.92-1.16-1.41Z"/>
      <path class="cls-1" d="M77.59,57.25c.05.59.08,1.19.08,1.79,0,.9-.06,1.79-.17,2.67h3.94c.09-.87.14-1.77.14-2.67,0-.62-.03-1.22-.07-1.83-.84.04-1.67.06-2.46.06-.5,0-.99-.01-1.46-.03Z"/>
      <path class="cls-1" d="M64.09,38.8c.33-1.08.75-2.31,1.28-3.7-.85-.34-1.72-.64-2.61-.89-.49,1.23-1.07,2.43-1.71,3.59,1.04.26,2.06.59,3.04,1Z"/>
      <path class="cls-1" d="M74.31,47.42c.96-.75,2.04-1.51,3.19-2.27-.11-.17-.22-.35-.33-.52-.55-.81-1.15-1.59-1.78-2.33-1.16.93-2.2,1.71-3.13,2.36.75.86,1.44,1.78,2.05,2.76Z"/>
      <path class="cls-1" d="M33.99,60.83c-.05-.59-.08-1.18-.08-1.79,0-.9.06-1.79.17-2.66h-3.94c-.09.87-.14,1.76-.14,2.66,0,.62.03,1.23.07,1.84,1.43-.07,2.73-.08,3.91-.05Z"/>
      <path class="cls-1" d="M74.87,69.75c-.99,1.76-2.22,3.37-3.64,4.79.65.7,1.34,1.51,2.07,2.49.14.19.28.37.42.54.4-.38.79-.78,1.16-1.19.55-.61,1.08-1.25,1.58-1.91.58-.77,1.1-1.58,1.59-2.41l-3.18-2.32Z"/>
      <path class="cls-1" d="M69.99,73.3s.02-.02.03-.03c0,0-.02.02-.03.03h0Z"/>
      <path class="cls-1" d="M49.72,39.86c-.37.12-.73.24-1.08.38.36-.14.72-.26,1.08-.38Z"/>
      <path class="cls-1" d="M36.7,48.33c.98-1.75,2.2-3.35,3.6-4.76-.63-.69-1.3-1.5-2.02-2.45-.15-.2-.3-.39-.45-.58-.68.66-1.33,1.36-1.94,2.09-.87,1.06-1.66,2.19-2.36,3.38l3.17,2.31Z"/>
      <path class="cls-1" d="M70.02,73.27c1.35-1.35,2.5-2.88,3.42-4.56h0c-.92,1.68-2.08,3.22-3.42,4.56Z"/>
      <path class="cls-1" d="M47.5,79.29c-.33,1.08-.75,2.31-1.28,3.7.85.34,1.72.64,2.61.88.49-1.23,1.07-2.43,1.71-3.59-1.04-.26-2.06-.59-3.04-.99Z"/>
      <path class="cls-1" d="M72.25,47.47c.18.25.35.51.52.78-.17-.26-.34-.52-.52-.78Z"/>
      <path class="cls-1" d="M75.91,59.04c0,.9-.07,1.79-.18,2.67h0c.12-.87.18-1.76.18-2.67,0-.64-.03-1.27-.09-1.9h0c.06.63.09,1.26.09,1.9Z"/>
      <path class="cls-1" d="M64.6,79.07c-1.16.51-2.36.92-3.61,1.23.64,1.17,1.21,2.36,1.7,3.6,1.38-.38,2.71-.87,3.99-1.47-.09-.14-.16-.27-.26-.41-.76-1.08-1.34-2.06-1.82-2.95Z"/>
      <path class="cls-1" d="M39.36,73.46c-.77-.87-1.46-1.81-2.09-2.79-.96.75-2.04,1.51-3.19,2.27.46.72.95,1.41,1.48,2.07.21.27.43.54.66.8,1.07-.86,2.12-1.65,3.14-2.35Z"/>
      <path class="cls-1" d="M63.84,77.48h0c-1.21.53-2.47.94-3.79,1.22h0c1.31-.28,2.58-.7,3.79-1.22Z"/>
      <path class="cls-1" d="M51.47,78.69h0c-1.21-.26-2.38-.63-3.49-1.11h0c1.12.47,2.29.84,3.5,1.11Z"/>
      <path class="cls-1" d="M46.95,39.02c1.17-.51,2.38-.93,3.65-1.24-.64-1.16-1.21-2.36-1.69-3.59-1.39.39-2.74.88-4.03,1.49.1.15.18.3.29.46.74,1.05,1.31,2,1.78,2.88Z"/>
      <path class="cls-1" d="M55.79,79.16c-.97,0-1.92-.07-2.85-.2h0c.93.13,1.88.2,2.85.2s1.88-.07,2.79-.2h0c-.91.13-1.84.2-2.79.2Z"/>
      <path class="cls-1" d="M55.79,80.92c-1.31,0-2.59-.12-3.84-.34-.67,1.17-1.26,2.39-1.77,3.63,1.81.4,3.68.62,5.61.62s3.75-.21,5.53-.6c-.5-1.25-1.09-2.46-1.75-3.64-1.23.21-2.49.33-3.78.33Z"/>
      <path class="cls-1" d="M60.28,80.46c.65,1.16,1.23,2.37,1.73,3.61.23-.06.45-.12.67-.18-.49-1.23-1.06-2.43-1.7-3.6-.23.06-.46.11-.7.16Z"/>
      <path class="cls-1" d="M52.19,78.84h0c-.24-.04-.49-.09-.73-.14h0c.24.05.48.1.73.14Z"/>
      <path class="cls-1" d="M59.33,78.85c.24-.04.49-.09.73-.14h0c-.24.05-.48.1-.73.14h0Z"/>
      <path class="cls-1" d="M50.53,80.28c-.64,1.16-1.22,2.36-1.71,3.59.22.06.45.13.67.18.5-1.25,1.09-2.45,1.74-3.61-.24-.05-.47-.1-.7-.16Z"/>
      <path class="cls-1" d="M59.57,80.59c.67,1.18,1.25,2.39,1.75,3.64.23-.05.46-.1.69-.16-.5-1.25-1.08-2.45-1.73-3.61-.24.05-.48.09-.72.13Z"/>
      <path class="cls-1" d="M51.23,80.44c-.65,1.16-1.24,2.36-1.74,3.61.23.06.46.11.69.16.51-1.25,1.1-2.46,1.77-3.63-.24-.04-.48-.09-.72-.14Z"/>
      <path class="cls-1" d="M58.58,78.97h0c.25-.03.5-.08.75-.12h0c-.25.04-.5.08-.75.12Z"/>
      <path class="cls-1" d="M52.19,78.84h0c.25.05.5.09.75.12h0c-.25-.04-.5-.08-.75-.12Z"/>
      <path class="cls-1" d="M54.79,37.19c.33-.02.67-.02,1-.02,1.31,0,2.59.12,3.84.35.67-1.17,1.26-2.39,1.77-3.63-1.81-.4-3.68-.62-5.61-.62s-3.75.21-5.53.6c.5,1.25,1.09,2.46,1.75,3.64.91-.16,1.83-.26,2.77-.31Z"/>
      <path class="cls-1" d="M51.3,37.63c-.65-1.16-1.23-2.37-1.72-3.61-.23.06-.45.12-.67.18.49,1.23,1.06,2.42,1.69,3.59.23-.06.47-.11.7-.15Z"/>
      <path class="cls-1" d="M61.05,37.81c.64-1.16,1.22-2.36,1.71-3.59-.22-.06-.45-.13-.67-.18-.5,1.25-1.09,2.45-1.74,3.61.24.05.47.1.7.16Z"/>
      <path class="cls-1" d="M52.02,37.49c-.67-1.17-1.25-2.39-1.75-3.64-.23.05-.46.1-.69.16.5,1.25,1.08,2.45,1.72,3.61.24-.05.48-.09.72-.13Z"/>
      <path class="cls-1" d="M60.35,37.65c.65-1.16,1.24-2.36,1.74-3.61-.23-.06-.46-.11-.69-.16-.51,1.25-1.1,2.46-1.77,3.63.24.04.48.09.72.14Z"/>
      <path class="cls-1" d="M70.21,37.66c-.54-.37-1.1-.7-1.67-1.03-.33-.19-.66-.37-1-.54-.3-.15-.59-.3-.9-.44-.53,1.39-.95,2.63-1.28,3.72,2.21,1.08,4.22,2.53,5.94,4.26.94-.65,1.99-1.43,3.16-2.36-1.28-1.35-2.71-2.56-4.25-3.61Z"/>
      <path class="cls-1" d="M72.26,44.66c.93-.65,1.97-1.43,3.13-2.36-.15-.18-.3-.35-.45-.52-1.08.87-2.14,1.66-3.15,2.36.16.17.32.35.47.52Z"/>
      <path class="cls-1" d="M64.73,39.08c.35-1.18.79-2.43,1.28-3.72-.21-.09-.43-.18-.64-.26-.53,1.39-.95,2.62-1.28,3.7.22.09.43.18.64.28Z"/>
      <path class="cls-1" d="M70.67,45.5s.08.09.11.13c-.04-.04-.07-.09-.11-.13Z"/>
      <path class="cls-1" d="M71.31,43.63c.16.17.32.34.48.51,1.01-.7,2.07-1.5,3.15-2.36-.15-.17-.32-.34-.48-.5-1.17.93-2.22,1.72-3.16,2.36Z"/>
      <path class="cls-1" d="M65.37,39.38c.33-1.09.75-2.33,1.28-3.72-.06-.03-.13-.06-.19-.09-.15-.07-.29-.14-.44-.2-.49,1.29-.93,2.54-1.28,3.72.21.1.42.19.63.29Z"/>
      <path class="cls-1" d="M40.27,74.44c-1,.69-2.06,1.5-3.15,2.37.43.45.87.9,1.34,1.32,1.92,1.75,4.11,3.2,6.49,4.31.53-1.39.95-2.63,1.28-3.72-2.22-1.08-4.23-2.53-5.95-4.27Z"/>
      <path class="cls-1" d="M41.76,73.46h0c1.45,1.41,3.11,2.6,4.92,3.52h0c-1.82-.92-3.48-2.12-4.92-3.52Z"/>
      <path class="cls-1" d="M47.32,77.29c.21.1.43.2.65.29h0c-.22-.09-.43-.19-.65-.29h0Z"/>
      <path class="cls-1" d="M39.36,73.46c-1.02.7-2.08,1.5-3.14,2.35.14.17.28.33.43.5,1.08-.87,2.14-1.66,3.15-2.36-.15-.16-.3-.32-.44-.49Z"/>
      <path class="cls-1" d="M40.83,72.49h0c.15.16.3.32.45.48h0c-.15-.16-.3-.32-.45-.48Z"/>
      <path class="cls-1" d="M46.85,79.01c-.35,1.18-.79,2.43-1.28,3.72.21.09.43.18.64.26.53-1.39.95-2.62,1.28-3.7-.22-.09-.43-.18-.64-.28Z"/>
      <path class="cls-1" d="M46.69,76.98h0c.21.11.42.21.64.31h0c-.21-.1-.43-.2-.64-.31Z"/>
      <path class="cls-1" d="M39.8,73.95c-1.01.7-2.07,1.5-3.15,2.36.02.02.04.05.06.07.13.15.27.29.41.43,1.09-.87,2.15-1.67,3.15-2.37-.16-.16-.32-.33-.47-.49Z"/>
      <path class="cls-1" d="M41.28,72.98h0c.09.1.19.2.28.3-.1-.1-.19-.2-.28-.3Z"/>
      <path class="cls-1" d="M46.22,78.71c-.33,1.09-.75,2.33-1.28,3.72.21.1.42.19.63.28.49-1.29.92-2.54,1.28-3.72-.21-.1-.42-.19-.63-.29Z"/>
      <path class="cls-1" d="M41.56,73.27c.06.06.13.12.2.19h0c-.07-.06-.13-.12-.2-.19Z"/>
      <path class="cls-1" d="M75.65,55.77c-.31-1.92-.9-3.76-1.72-5.45.82,1.7,1.4,3.53,1.72,5.45h0Z"/>
      <path class="cls-1" d="M73.91,50.28c-.09-.19-.19-.37-.28-.55h0c.1.18.19.36.28.55Z"/>
      <path class="cls-1" d="M78.75,47.29c-.16-.32-.34-.64-.51-.95-1.18.77-2.27,1.53-3.22,2.26,1.21,2.22,2.05,4.67,2.42,7.27,1.2.03,2.53.01,3.93-.06-.33-2.62-1.05-5.12-2.1-7.44-.17-.37-.34-.73-.53-1.09Z"/>
      <path class="cls-1" d="M77.53,56.56c.03.23.05.46.07.7.47.02.96.03,1.46.03.79,0,1.61-.03,2.46-.06-.02-.23-.03-.47-.05-.7-1.39.06-2.71.08-3.93.04Z"/>
      <path class="cls-1" d="M77.88,45.74c-.12-.2-.25-.4-.38-.59-1.16.76-2.23,1.52-3.19,2.27.12.19.24.39.36.59.96-.74,2.04-1.51,3.21-2.27Z"/>
      <path class="cls-1" d="M75.82,57.14h0c-.02-.23-.05-.46-.08-.69h0c.03.23.06.46.08.69Z"/>
      <path class="cls-1" d="M73.3,49.13c-.06-.1-.12-.2-.17-.3.06.1.12.2.17.3h0Z"/>
      <path class="cls-1" d="M75.74,56.45h0c-.03-.23-.06-.45-.1-.68h0c.04.22.07.45.1.68Z"/>
      <path class="cls-1" d="M77.44,55.87c.03.23.06.45.09.68,1.21.04,2.53.02,3.93-.04-.02-.23-.05-.46-.08-.7-1.41.07-2.73.09-3.93.06Z"/>
      <path class="cls-1" d="M73.63,49.73h0c-.11-.2-.21-.4-.33-.6h0c.11.2.22.4.33.6Z"/>
      <path class="cls-1" d="M74.67,48.01c.12.2.23.39.34.59.95-.73,2.04-1.49,3.22-2.26,0-.02-.02-.03-.03-.05-.11-.19-.21-.37-.32-.56-1.17.77-2.25,1.53-3.21,2.27Z"/>
      <path class="cls-1" d="M34.15,62.22c-.45-.02-.91-.03-1.41-.03-.78,0-1.62.02-2.53.06.43,3.41,1.52,6.62,3.14,9.48,1.18-.77,2.27-1.53,3.22-2.26-1.21-2.22-2.04-4.67-2.42-7.26Z"/>
      <path class="cls-1" d="M33.7,72.35c.12.2.25.4.38.59,1.16-.76,2.23-1.52,3.19-2.27-.12-.19-.24-.39-.36-.59-.96.74-2.04,1.51-3.21,2.27Z"/>
      <path class="cls-1" d="M34.06,61.53c-.03-.23-.05-.47-.07-.7-1.18-.03-2.48-.02-3.91.05.02.23.03.46.05.69,1.39-.06,2.71-.08,3.93-.04Z"/>
      <path class="cls-1" d="M34.15,62.22c-.03-.23-.06-.46-.09-.69-1.21-.04-2.53-.02-3.93.04.02.23.05.46.08.69.91-.04,1.75-.06,2.53-.06.5,0,.96.01,1.41.03Z"/>
      <path class="cls-1" d="M36.57,69.49c-.95.73-2.04,1.49-3.22,2.26.12.2.23.41.35.61,1.17-.77,2.25-1.53,3.21-2.27-.12-.2-.23-.39-.34-.59Z"/>
      <path class="cls-1" d="M74.07,67.46h0c.64-1.38,1.12-2.84,1.44-4.37h0c-.31,1.53-.8,2.99-1.44,4.37Z"/>
      <path class="cls-1" d="M75.52,68.51l3.2,2.33c.11-.21.22-.41.32-.62,1.07-2.22,1.83-4.61,2.22-7.13h-3.97c-.36,1.9-.96,3.72-1.77,5.41Z"/>
      <path class="cls-1" d="M73.44,68.71h0c.11-.2.22-.41.32-.62h0c-.1.21-.21.42-.32.62Z"/>
      <path class="cls-1" d="M75.63,62.4h0c.04-.23.07-.46.1-.69h0c-.03.23-.06.46-.1.69Z"/>
      <path class="cls-1" d="M77.41,62.4h3.94c.03-.23.06-.45.09-.69h-3.94c-.03.23-.05.46-.09.69Z"/>
      <path class="cls-1" d="M74.87,69.75l3.18,2.32c.12-.2.23-.4.35-.6l-3.2-2.33c-.11.21-.22.41-.33.61Z"/>
      <path class="cls-1" d="M75.51,63.09h0c.05-.23.08-.46.12-.69h0c-.04.23-.08.46-.12.69Z"/>
      <path class="cls-1" d="M75.2,69.13l3.2,2.33c.11-.2.22-.41.32-.62l-3.2-2.33c-.1.21-.21.42-.32.62Z"/>
      <path class="cls-1" d="M77.29,63.09h3.97c.04-.22.06-.46.09-.69h-3.94c-.04.23-.08.46-.12.69Z"/>
      <path class="cls-1" d="M74.07,67.46c-.1.21-.2.42-.31.63h0c.11-.21.21-.42.31-.63h0Z"/>
      <path class="cls-1" d="M36.06,49.57l-3.19-2.33c-1.23,2.39-2.11,5-2.54,7.75h3.96c.35-1.9.96-3.72,1.77-5.42Z"/>
      <path class="cls-1" d="M34.17,55.69h-3.94c-.03.23-.06.45-.09.69h3.94c.03-.23.06-.46.09-.69Z"/>
      <path class="cls-1" d="M36.7,48.33l-3.17-2.31c-.12.2-.23.4-.35.6l3.18,2.32c.11-.21.22-.41.33-.61Z"/>
      <path class="cls-1" d="M34.29,55h-3.96c-.04.22-.06.46-.09.69h3.94c.04-.23.08-.46.12-.69Z"/>
      <path class="cls-1" d="M36.37,48.94l-3.18-2.32c-.11.2-.22.41-.32.62l3.19,2.33c.1-.21.2-.42.31-.63Z"/>
      <path class="cls-1" d="M44.04,36.93c-.15-.21-.28-.42-.41-.63-1.72.92-3.31,2.03-4.77,3.3.18.22.36.44.54.68.69.92,1.33,1.68,1.92,2.33,1.33-1.17,2.8-2.18,4.39-3.01-.43-.8-.97-1.69-1.66-2.68Z"/>
      <path class="cls-1" d="M42.62,43.83c.86-.74,1.78-1.41,2.75-2-.97.59-1.89,1.26-2.75,2Z"/>
      <path class="cls-1" d="M40.31,43.57c.16-.16.33-.33.5-.49-.61-.67-1.26-1.44-1.96-2.38-.17-.22-.34-.44-.51-.64-.17.16-.34.32-.5.48.15.18.3.38.45.58.71.95,1.39,1.76,2.02,2.45Z"/>
      <path class="cls-1" d="M46.32,39.31c.21-.1.42-.2.63-.29-.47-.87-1.04-1.82-1.78-2.88-.11-.16-.19-.31-.29-.46-.21.1-.43.2-.64.31.12.18.23.36.36.55.71,1.02,1.27,1.94,1.72,2.77Z"/>
      <path class="cls-1" d="M45.7,39.61c.2-.11.41-.2.62-.3-.45-.84-1-1.75-1.72-2.77-.13-.18-.25-.37-.36-.55-.21.1-.41.21-.62.32.13.21.27.41.41.63.69.99,1.23,1.88,1.66,2.68Z"/>
      <path class="cls-1" d="M40.8,43.09c.17-.16.34-.31.51-.47-.59-.65-1.23-1.4-1.92-2.33-.18-.24-.36-.46-.54-.68-.13.12-.27.23-.4.34-.04.04-.08.08-.12.11.17.2.34.42.51.64.7.94,1.35,1.71,1.96,2.38Z"/>
      <path class="cls-1" d="M65.1,76.88h0c1.4-.73,2.7-1.62,3.88-2.64,0,0,0,0,0,0-1.18,1.02-2.48,1.91-3.88,2.64Z"/>
      <path class="cls-1" d="M67.55,81.22c.13.19.26.38.38.57.21-.11.41-.23.61-.34.57-.32,1.13-.66,1.67-1.03.34-.23.68-.47,1.01-.72.51-.38,1-.79,1.48-1.2-.17-.21-.34-.42-.51-.64-.71-.95-1.37-1.73-1.98-2.39-1.33,1.17-2.79,2.17-4.37,2.99.44.82.99,1.73,1.7,2.76Z"/>
      <path class="cls-1" d="M69.5,73.77h0c.17-.16.34-.31.5-.47h0c-.16.16-.33.32-.5.47Z"/>
      <path class="cls-1" d="M64.48,77.2h0c-.21.1-.42.19-.63.29h0c.21-.09.43-.19.63-.29Z"/>
      <path class="cls-1" d="M65.23,78.78c-.21.1-.42.19-.63.29.47.89,1.06,1.87,1.82,2.95.1.14.17.27.26.41.21-.1.43-.2.64-.31-.11-.16-.21-.33-.33-.5-.73-1.05-1.3-1.98-1.75-2.84Z"/>
      <path class="cls-1" d="M71.23,74.54c-.16.16-.33.32-.5.47.63.68,1.29,1.47,2.02,2.43.16.21.32.41.48.6.17-.16.34-.32.5-.48-.14-.17-.28-.35-.42-.54-.74-.98-1.42-1.79-2.07-2.49Z"/>
      <path class="cls-1" d="M65.84,78.47c-.2.11-.41.21-.61.31.45.85,1.02,1.79,1.75,2.84.12.17.22.33.33.5.21-.1.41-.21.62-.32-.12-.19-.25-.38-.38-.57-.72-1.02-1.27-1.93-1.7-2.76Z"/>
      <path class="cls-1" d="M70.73,75.01c-.17.16-.34.31-.51.46.61.66,1.26,1.43,1.98,2.39.17.22.34.44.51.64.14-.12.29-.24.43-.37.03-.03.06-.06.09-.08-.16-.19-.32-.39-.48-.6-.72-.96-1.39-1.75-2.02-2.43Z"/>
      <path class="cls-1" d="M64.48,77.2h0c.21-.1.41-.21.62-.31h0c-.21.11-.41.21-.62.31Z"/>
      <path class="cls-1" d="M68.97,74.24s0,0,0,0c.18-.15.35-.31.52-.47h0c-.17.16-.35.31-.52.47Z"/>
      <path class="cls-1" d="M46.21,82.99c-.2.52-.41,1.06-.64,1.63.86.35,1.75.65,2.65.91.19-.56.39-1.11.6-1.65-.89-.25-1.76-.54-2.61-.88Z"/>
      <path class="cls-1" d="M62.68,83.89c.22.55.41,1.1.6,1.65,1.48-.42,2.9-.95,4.27-1.6-.24-.5-.53-1-.87-1.53-1.28.6-2.61,1.09-3.99,1.47Z"/>
      <path class="cls-1" d="M35.56,75.02c-.53-.66-1.02-1.36-1.48-2.07-.48.31-.97.63-1.47.94.68,1.06,1.44,2.08,2.26,3.04.45-.38.9-.75,1.35-1.11-.23-.26-.44-.53-.66-.8Z"/>
      <path class="cls-1" d="M77.18,44.63c.11.17.22.34.33.52.48-.31.97-.63,1.47-.94-.68-1.06-1.43-2.06-2.24-3.01-.47.39-.92.76-1.35,1.11.63.74,1.23,1.52,1.78,2.33Z"/>
      <path class="cls-1" d="M48.9,34.19c-.22-.55-.41-1.1-.6-1.65-1.49.42-2.92.96-4.29,1.61.24.5.53,1.01.87,1.53,1.29-.6,2.63-1.1,4.03-1.49Z"/>
      <path class="cls-1" d="M30.01,59.04c0-.9.05-1.79.14-2.67h-1.76c-.09.88-.13,1.77-.13,2.67,0,.65.03,1.3.08,1.94.6-.04,1.19-.08,1.75-.1-.04-.61-.07-1.22-.07-1.84Z"/>
      <path class="cls-1" d="M35.89,42.64c.61-.73,1.26-1.43,1.94-2.09-.39-.48-.79-.9-1.19-1.27-1.75,1.69-3.27,3.61-4.53,5.72l1.42,1.04c.7-1.19,1.48-2.32,2.36-3.38Z"/>
      <path class="cls-1" d="M76.46,74.47c-.49.66-1.02,1.3-1.58,1.91-.37.41-.76.8-1.16,1.19.39.48.79.9,1.19,1.28,1.76-1.7,3.3-3.63,4.56-5.75l-1.42-1.04c-.49.83-1.02,1.64-1.59,2.41Z"/>
      <path class="cls-1" d="M81.58,59.04c0,.9-.05,1.79-.14,2.67h1.76c.09-.88.13-1.77.13-2.67,0-.65-.03-1.29-.08-1.93-.59.04-1.18.07-1.75.1.04.6.07,1.21.07,1.83Z"/>
      <path class="cls-1" d="M65.37,35.1c.2-.52.41-1.06.64-1.63-.86-.35-1.75-.65-2.65-.91-.19.56-.39,1.11-.6,1.65.89.25,1.76.55,2.61.89Z"/>
      <path class="cls-1" d="M50.18,84.21c-.22.55-.43,1.1-.62,1.66,2,.47,4.09.72,6.23.72s4.17-.25,6.15-.7c-.19-.56-.4-1.11-.62-1.66-1.78.39-3.63.6-5.53.6s-3.8-.22-5.61-.62Z"/>
      <path class="cls-1" d="M62.01,84.07c.22.55.42,1.1.6,1.66.22-.06.44-.12.67-.19-.19-.56-.38-1.11-.6-1.65-.22.06-.45.12-.67.18Z"/>
      <path class="cls-1" d="M49.49,84.05c-.23-.06-.45-.12-.67-.18-.22.54-.42,1.1-.6,1.65.22.06.44.13.67.19.19-.56.39-1.11.61-1.66Z"/>
      <path class="cls-1" d="M61.94,85.89c.23-.05.45-.1.67-.16-.19-.56-.39-1.12-.6-1.66-.23.06-.46.11-.69.16.22.55.43,1.1.62,1.66Z"/>
      <path class="cls-1" d="M50.18,84.21c-.23-.05-.46-.1-.69-.16-.22.54-.42,1.1-.61,1.66.22.06.45.11.67.16.19-.56.4-1.11.62-1.66Z"/>
      <path class="cls-1" d="M61.4,33.88c.22-.55.43-1.1.62-1.66-2-.47-4.09-.72-6.23-.72s-4.17.25-6.15.7c.19.56.4,1.11.62,1.66,1.78-.39,3.63-.6,5.53-.6s3.8.22,5.61.62Z"/>
      <path class="cls-1" d="M62.09,34.03c.23.06.45.12.67.18.22-.54.42-1.1.6-1.65-.22-.06-.44-.13-.67-.19-.19.56-.39,1.11-.61,1.66Z"/>
      <path class="cls-1" d="M49.58,34.02c-.22-.55-.42-1.1-.6-1.66-.22.06-.44.12-.67.19.19.56.38,1.11.6,1.65.22-.06.45-.12.67-.18Z"/>
      <path class="cls-1" d="M61.4,33.88c.23.05.46.1.69.16.22-.54.42-1.1.61-1.66-.22-.06-.45-.11-.67-.16-.19.56-.4,1.11-.62,1.66Z"/>
      <path class="cls-1" d="M49.65,32.2c-.23.05-.45.1-.67.16.19.56.39,1.12.6,1.66.23-.06.46-.11.69-.16-.22-.55-.43-1.1-.62-1.66Z"/>
      <path class="cls-1" d="M68.54,36.63c.57.32,1.13.66,1.67,1.03,1.55,1.05,2.97,2.26,4.25,3.61.43-.35.89-.72,1.35-1.11-2.41-2.56-5.3-4.65-8.53-6.14-.23.56-.45,1.11-.64,1.63.3.14.6.29.9.44.34.17.67.35,1,.54Z"/>
      <path class="cls-1" d="M66.01,35.37c.21-.54.42-1.08.64-1.63-.21-.09-.43-.18-.64-.26-.23.57-.44,1.11-.64,1.63.21.09.43.17.64.26Z"/>
      <path class="cls-1" d="M74.94,41.77c.15.17.3.35.45.52.43-.35.88-.72,1.35-1.11-.15-.17-.3-.35-.45-.52-.45.38-.9.75-1.35,1.11Z"/>
      <path class="cls-1" d="M66.64,35.65c.2-.52.41-1.07.64-1.63-.21-.1-.42-.19-.63-.29-.22.55-.44,1.09-.64,1.63.15.06.3.13.44.2.06.03.13.06.19.09Z"/>
      <path class="cls-1" d="M74.47,41.27c.16.17.32.33.48.5.45-.36.9-.73,1.35-1.11-.15-.17-.31-.34-.47-.51-.47.39-.92.76-1.35,1.11Z"/>
      <path class="cls-1" d="M37.12,76.81c-.45.36-.9.73-1.36,1.11,2.41,2.56,5.31,4.66,8.54,6.15.23-.56.44-1.11.64-1.63-2.38-1.11-4.57-2.56-6.49-4.31-.46-.42-.91-.86-1.34-1.32Z"/>
      <path class="cls-1" d="M36.65,76.32c-.15-.16-.29-.33-.43-.5-.45.36-.9.73-1.35,1.11.14.17.28.33.43.5.45-.38.9-.75,1.35-1.11Z"/>
      <path class="cls-1" d="M45.57,82.72c-.21.54-.42,1.08-.64,1.63.21.09.43.18.64.26.23-.57.44-1.11.64-1.63-.21-.09-.43-.17-.64-.26Z"/>
      <path class="cls-1" d="M37.12,76.81c-.14-.14-.28-.28-.41-.43-.02-.02-.04-.05-.06-.07-.45.36-.9.73-1.35,1.11.15.17.31.33.46.5.46-.38.91-.75,1.36-1.11Z"/>
      <path class="cls-1" d="M44.3,84.07c.21.1.42.19.63.29.22-.55.44-1.09.64-1.63-.21-.09-.42-.19-.63-.28-.2.52-.41,1.07-.64,1.63Z"/>
      <path class="cls-1" d="M79.27,48.38c1.05,2.32,1.77,4.82,2.1,7.44.57-.03,1.16-.06,1.76-.1-.45-3.71-1.64-7.2-3.42-10.31-.51.31-1,.63-1.48.94.18.31.35.63.51.95.18.36.36.72.53,1.09Z"/>
      <path class="cls-1" d="M77.88,45.74c.48-.31.97-.63,1.47-.94-.12-.2-.25-.4-.38-.59-.5.31-.99.63-1.47.94.13.2.26.39.38.59Z"/>
      <path class="cls-1" d="M81.45,56.51c.02.23.04.47.05.7.58-.03,1.16-.06,1.75-.1-.02-.23-.03-.47-.05-.7-.6.04-1.18.07-1.75.1Z"/>
      <path class="cls-1" d="M78.2,46.29s.02.03.03.05c.48-.31.97-.63,1.48-.94-.12-.2-.23-.41-.35-.61-.51.31-1,.63-1.47.94.11.18.21.37.32.56Z"/>
      <path class="cls-1" d="M81.37,55.82c.03.23.06.46.08.7.57-.03,1.16-.06,1.75-.1-.02-.23-.05-.47-.08-.7-.6.04-1.18.08-1.76.1Z"/>
      <path class="cls-1" d="M28.45,62.36c.45,3.72,1.64,7.21,3.42,10.32.51-.31,1-.63,1.48-.94-1.63-2.87-2.72-6.07-3.14-9.48-.56.03-1.14.06-1.76.1Z"/>
      <path class="cls-1" d="M33.7,72.35c-.48.31-.97.63-1.47.94.12.2.25.4.38.59.5-.31.99-.63,1.47-.94-.13-.2-.26-.39-.38-.59Z"/>
      <path class="cls-1" d="M30.13,61.58c-.02-.23-.04-.46-.05-.69-.57.03-1.15.06-1.75.1.02.23.03.46.05.69.6-.04,1.18-.07,1.75-.1Z"/>
      <path class="cls-1" d="M30.21,62.26c-.03-.23-.06-.46-.08-.69-.57.03-1.16.06-1.75.1.02.23.05.46.08.68.61-.04,1.2-.07,1.76-.1Z"/>
      <path class="cls-1" d="M31.88,72.68c.12.2.23.41.35.61.51-.31,1-.63,1.47-.94-.12-.2-.23-.4-.35-.61-.48.31-.97.63-1.48.94Z"/>
      <path class="cls-1" d="M78.72,70.84l1.43,1.04c1.43-2.7,2.42-5.66,2.89-8.79h-1.78c-.4,2.51-1.15,4.91-2.22,7.13-.1.21-.21.41-.32.62Z"/>
      <path class="cls-1" d="M78.39,71.46c-.11.2-.23.4-.35.6l1.42,1.04c.12-.2.23-.4.35-.6l-1.42-1.04Z"/>
      <path class="cls-1" d="M81.35,62.41h1.77c.03-.23.06-.46.08-.69h-1.76c-.02.23-.06.46-.09.69Z"/>
      <path class="cls-1" d="M83.04,63.1c.03-.23.06-.46.09-.69h-1.77c-.03.23-.06.46-.09.69h1.78Z"/>
      <path class="cls-1" d="M78.72,70.84c-.11.21-.21.41-.32.62l1.42,1.04c.11-.2.23-.41.33-.61l-1.43-1.04Z"/>
      <path class="cls-1" d="M31.43,46.2c-1.43,2.7-2.42,5.66-2.89,8.79h1.78c.43-2.75,1.31-5.36,2.54-7.75l-1.43-1.04Z"/>
      <path class="cls-1" d="M30.23,55.68h-1.77c-.03.23-.06.46-.08.69h1.76c.02-.23.06-.46.09-.69Z"/>
      <path class="cls-1" d="M33.19,46.63c.11-.2.23-.4.35-.6l-1.42-1.04c-.12.2-.23.4-.35.6l1.42,1.04Z"/>
      <path class="cls-1" d="M28.55,54.99c-.03.23-.06.46-.09.69h1.77c.03-.23.06-.46.09-.69h-1.78Z"/>
      <path class="cls-1" d="M32.87,47.25c.11-.21.21-.41.32-.62l-1.42-1.04c-.11.2-.23.41-.33.61l1.43,1.04Z"/>
      <path class="cls-1" d="M42.77,34.78c-1.84.99-3.55,2.19-5.11,3.56.4.38.8.8,1.19,1.28,1.46-1.27,3.05-2.38,4.77-3.3-.33-.52-.61-1.03-.85-1.53Z"/>
      <path class="cls-1" d="M44.24,35.99c.21-.11.42-.21.64-.31-.34-.52-.63-1.03-.87-1.53-.21.1-.42.21-.63.31.24.5.52,1,.86,1.53Z"/>
      <path class="cls-1" d="M37.83,40.55c.17-.16.33-.32.5-.48-.4-.48-.79-.89-1.19-1.27-.17.16-.34.32-.5.48.4.38.8.8,1.19,1.27Z"/>
      <path class="cls-1" d="M43.62,36.31c.2-.11.41-.21.62-.32-.33-.52-.62-1.03-.86-1.53-.2.1-.41.21-.61.31.24.5.52,1.01.85,1.53Z"/>
      <path class="cls-1" d="M38.85,39.61c-.39-.47-.79-.89-1.19-1.28-.17.15-.35.3-.52.46.4.38.8.8,1.19,1.27.04-.04.08-.08.12-.11.13-.12.26-.23.4-.34Z"/>
      <path class="cls-1" d="M70.21,80.43c-.54.37-1.1.7-1.67,1.03-.2.12-.41.23-.61.34.33.52.62,1.03.86,1.52,1.84-.99,3.54-2.18,5.1-3.54-.4-.38-.8-.8-1.19-1.28-.48.42-.97.82-1.48,1.2-.33.25-.67.49-1.01.72Z"/>
      <path class="cls-1" d="M73.72,77.57c-.17.16-.33.32-.5.48.39.48.79.9,1.19,1.28.17-.16.34-.32.5-.48-.4-.38-.8-.8-1.19-1.28Z"/>
      <path class="cls-1" d="M67.31,82.11c-.21.11-.42.21-.64.31.34.52.63,1.03.87,1.53.21-.1.42-.21.63-.31-.24-.49-.53-1-.87-1.52Z"/>
      <path class="cls-1" d="M72.7,78.5c.39.47.79.9,1.19,1.28.17-.15.35-.3.52-.46-.4-.38-.8-.8-1.19-1.28-.03.03-.06.06-.09.08-.14.13-.29.25-.43.37Z"/>
      <path class="cls-1" d="M67.93,81.8c-.2.11-.41.21-.62.32.34.52.62,1.03.87,1.52.2-.1.41-.2.61-.31-.24-.5-.53-1-.86-1.52Z"/>
      <path class="cls-1" d="M35.89,42.64c-.87,1.06-1.66,2.19-2.36,3.38h0c.7-1.19,1.48-2.32,2.36-3.38Z"/>
      <path class="cls-1" d="M77.51,45.14c-.11-.17-.22-.35-.33-.52.11.17.22.34.33.52h0Z"/>
      <path class="cls-1" d="M34.08,72.95c.46.72.95,1.41,1.48,2.07-.53-.66-1.02-1.36-1.48-2.07,0,0,0,0,0,0Z"/>
      <path class="cls-1" d="M30.01,59.04c0-.9.05-1.79.14-2.67h0c-.09.88-.14,1.77-.14,2.67,0,.62.03,1.23.07,1.84h0c-.04-.61-.07-1.22-.07-1.84Z"/>
      <path class="cls-1" d="M67.54,36.09c-.3-.15-.59-.3-.9-.44h0c.3.14.6.29.9.44Z"/>
      <path class="cls-1" d="M68.54,36.63c.57.32,1.13.66,1.67,1.03-.54-.37-1.1-.7-1.67-1.03Z"/>
      <path class="cls-1" d="M66.64,35.65c-.06-.03-.13-.06-.19-.09.06.03.13.06.19.09h0Z"/>
      <path class="cls-1" d="M78.75,47.29c.18.36.36.72.53,1.09-.17-.37-.34-.73-.53-1.09Z"/>
      <path class="cls-1" d="M77.88,45.74h0c-.12-.2-.25-.4-.38-.59h0c.13.2.26.39.38.59Z"/>
      <path class="cls-1" d="M78.2,46.29c-.11-.19-.21-.37-.32-.56h0c.11.18.21.37.32.56Z"/>
      <path class="cls-1" d="M30.21,62.26c.43,3.41,1.52,6.62,3.14,9.48h0c-1.63-2.87-2.72-6.07-3.14-9.48h0Z"/>
      <path class="cls-1" d="M33.7,72.35h0c.12.2.25.4.38.59,0,0,0,0,0,0-.13-.2-.26-.39-.38-.59Z"/>
      <path class="cls-1" d="M30.08,60.88h0c.02.23.03.46.05.69h0c-.02-.23-.04-.46-.05-.69Z"/>
      <path class="cls-1" d="M33.35,71.75h0c.12.2.23.41.35.61h0c-.12-.2-.23-.4-.35-.61Z"/>
      <path class="cls-1" d="M30.21,62.26c-.03-.23-.06-.46-.08-.69h0c.02.23.05.46.08.69h0Z"/>
      <path class="cls-1" d="M32.87,47.25c-1.23,2.39-2.11,5-2.54,7.75h0c.43-2.75,1.31-5.36,2.54-7.75h0Z"/>
      <path class="cls-1" d="M30.23,55.68h0c-.03.23-.06.46-.09.69h0c.02-.23.06-.46.09-.69Z"/>
      <path class="cls-1" d="M33.54,46.02h0c-.12.2-.23.4-.35.6h0c.11-.2.23-.4.35-.6Z"/>
      <path class="cls-1" d="M30.32,54.99h0c-.04.23-.06.46-.09.69h0c.03-.23.06-.46.09-.69Z"/>
      <path class="cls-1" d="M32.87,47.25c.11-.21.21-.41.32-.62h0c-.11.2-.22.41-.32.62h0Z"/>
      <path class="cls-1" d="M68.54,81.45c.57-.32,1.13-.66,1.67-1.03-.54.37-1.1.7-1.67,1.03Z"/>
      <path class="cls-1" d="M72.07,67.71c-1.5-1.09-2.16-2.58-1.73-3.89.42-1.31,1.84-2.12,3.68-2.12h1.71c.12-.87.18-1.76.18-2.66,0-.64-.03-1.27-.09-1.9-3.35-.3-5.73-1.14-6.25-2.77-.52-1.61.88-3.66,3.38-5.84-.06-.1-.12-.19-.18-.28-.17-.26-.34-.52-.52-.78-.45-.64-.94-1.26-1.46-1.84-2.57,1.6-4.15,2.05-5.13,2.05-.82,0-1.24-.3-1.49-.48-.54-.39-1.88-1.38-.56-6.7-1.12-.47-2.29-.84-3.5-1.11-1.1,1.74-2.36,3.39-3.8,4.91l-.5.54-.5-.54c-1.43-1.53-2.69-3.18-3.78-4.92-.61.13-1.21.29-1.81.48-.37.12-.73.24-1.08.38-.31.12-.62.24-.92.38,1.23,2.93.91,4.66.43,5.58l6.83,9.75c.22-.06.44-.1.67-.11.05,0,.1,0,.15,0,1.77,0,3.21,1.44,3.21,3.21,0,.03,0,.05,0,.08l7.38,2.84c.55.21.82.82.61,1.37-.16.42-.56.68-.99.68-.13,0-.26-.02-.38-.07l-7.38-2.84c-.59.7-1.46,1.15-2.45,1.15-1.77,0-3.21-1.44-3.21-3.21,0-.72.24-1.37.64-1.91l-6.92-9.88s-.02,0-.03,0c-1.02,0-2.59-.47-4.72-2.43-.1.1-.2.19-.29.29-.65.68-1.25,1.4-1.8,2.16-.48.67-.92,1.37-1.32,2.1l1.37,1c1.5,1.09,2.16,2.58,1.73,3.89-.43,1.31-1.84,2.12-3.68,2.12h-1.71c-.12.87-.18,1.76-.18,2.66,0,.64.03,1.26.09,1.89,3.65.31,5.75,1.23,6.25,2.79.52,1.61-.88,3.66-3.38,5.84.32.52.67,1.04,1.03,1.53.37.49.75.96,1.16,1.41,2.84-1.75,5.25-2.57,6.58-1.6.54.4,1.88,1.38.56,6.7,1.12.47,2.29.84,3.49,1.11,1.1-1.74,2.36-3.39,3.8-4.91l.5-.54.5.54c1.43,1.53,2.69,3.18,3.78,4.92,1.31-.28,2.58-.7,3.79-1.22-1.49-3.6-.64-5.37-.06-6.06l.17-.15.35-.2c.79-.31,2.68-.52,5.69,2.22,0,0,.02-.02.03-.03,1.35-1.35,2.5-2.88,3.42-4.56l-1.37-1ZM62.58,48.71h0s.08.05.08.05c-.03-.02-.05-.03-.08-.05ZM62.74,48.46h0s.08.05.08.05c-.03-.02-.05-.03-.08-.05ZM63.53,49.4s-.08-.06-.12-.09l.12.09h0ZM63.72,49.17s-.08-.06-.12-.09l.12.09h0ZM43.96,63.53l-.03-.1s.02.06.03.1h0ZM44.23,63.42l-.03-.09s.02.06.03.09h0ZM67.36,63.42h0s.03-.08.04-.11l-.04.11ZM67.64,63.53h0s.03-.08.04-.12l-.04.12Z"/>
      <path class="cls-1" d="M44.23,63.42h0s-.02-.06-.03-.09l.03.09Z"/>
      <path class="cls-1" d="M67.36,63.42l.04-.11s-.03.07-.04.11h0Z"/>
      <path class="cls-1" d="M63.53,49.4h0s-.12-.09-.12-.09c.04.03.08.06.12.09Z"/>
      <path class="cls-1" d="M62.58,48.71s.05.03.08.05l-.08-.06h0Z"/>
      <path class="cls-1" d="M43.96,63.53h0s-.02-.06-.03-.1l.03.1Z"/>
      <path class="cls-1" d="M67.64,63.53l.04-.12s-.03.08-.04.11h0Z"/>
      <path class="cls-1" d="M63.72,49.17h0s-.12-.09-.12-.09c.04.03.08.06.12.09Z"/>
      <path class="cls-1" d="M62.74,48.46s.05.03.08.05l-.08-.06h0Z"/>
      <path class="cls-1" d="M52.94,78.96c.93.13,1.88.2,2.85.2s1.88-.07,2.79-.2c-.84-1.29-1.78-2.53-2.81-3.69-1.04,1.16-1.98,2.4-2.83,3.68Z"/>
      <path class="cls-1" d="M55.77,74.25c1.32,1.42,2.52,2.95,3.56,4.59.24-.04.49-.09.73-.14-1.09-1.74-2.35-3.39-3.78-4.92l-.5-.54-.5.54c-1.44,1.53-2.7,3.17-3.8,4.91.24.05.48.1.73.14,1.05-1.64,2.25-3.17,3.58-4.58Z"/>
      <path class="cls-1" d="M55.77,75.28c1.04,1.17,1.97,2.4,2.81,3.69.25-.03.5-.08.75-.12-1.05-1.64-2.24-3.18-3.56-4.59-1.33,1.41-2.53,2.95-3.58,4.58.25.05.5.09.75.12.84-1.29,1.78-2.52,2.83-3.68Z"/>
      <path class="cls-1" d="M58.65,39.13c-.93-.13-1.88-.2-2.85-.2-.31,0-.62,0-.92.02-.63.03-1.25.09-1.87.17.84,1.29,1.78,2.53,2.81,3.69,1.04-1.16,1.98-2.4,2.83-3.68Z"/>
      <path class="cls-1" d="M55.82,43.83c-1.32-1.42-2.52-2.95-3.56-4.6-.24.04-.49.09-.73.14,1.09,1.74,2.35,3.39,3.78,4.92l.5.54.5-.54c1.44-1.53,2.7-3.17,3.8-4.91-.24-.05-.48-.1-.72-.14-1.05,1.64-2.25,3.17-3.58,4.58Z"/>
      <path class="cls-1" d="M55.82,42.81c-1.04-1.17-1.97-2.4-2.81-3.69-.25.03-.5.08-.75.12,1.05,1.64,2.24,3.18,3.56,4.6,1.33-1.41,2.53-2.95,3.58-4.58-.25-.05-.5-.09-.75-.12-.84,1.29-1.78,2.52-2.83,3.68Z"/>
      <path class="cls-1" d="M64.99,46.08c.62.45,2.17.14,4.82-1.47-1.44-1.4-3.09-2.58-4.9-3.5-.71,2.98-.53,4.53.09,4.98Z"/>
      <path class="cls-1" d="M64.58,46.64c-1.07-.78-1.02-2.98-.31-5.85-.21-.1-.43-.2-.65-.29-1.33,5.32.01,6.3.56,6.7.25.18.66.48,1.49.48.99,0,2.56-.45,5.13-2.05,0,0,0,0,0,0-.04-.04-.07-.09-.11-.13-.12-.13-.24-.26-.37-.38-2.55,1.57-4.65,2.31-5.73,1.53Z"/>
      <path class="cls-1" d="M64.58,46.64c1.08.79,3.18.05,5.73-1.53-.16-.17-.33-.34-.5-.51-2.65,1.61-4.2,1.92-4.82,1.47-.61-.45-.79-2-.09-4.98-.21-.11-.42-.21-.64-.31-.7,2.87-.75,5.07.31,5.85Z"/>
      <path class="cls-1" d="M46.6,72.01c-.21-.15-.47-.22-.79-.22-.95,0-2.37.63-4.05,1.67,1.45,1.41,3.11,2.6,4.92,3.52.71-2.97.53-4.53-.09-4.98Z"/>
      <path class="cls-1" d="M47.01,71.45c1.07.78,1.02,2.98.31,5.85.21.1.43.2.65.29,1.33-5.32-.02-6.3-.56-6.7-1.33-.97-3.75-.15-6.58,1.6.15.16.3.32.45.48,2.55-1.57,4.65-2.31,5.73-1.53Z"/>
      <path class="cls-1" d="M45.81,71.79c.32,0,.58.07.79.22.61.45.79,2,.09,4.98.21.11.42.21.64.31.7-2.87.75-5.07-.31-5.85-1.08-.79-3.18-.05-5.73,1.53.09.1.19.2.28.3.06.06.13.12.2.19,1.68-1.04,3.1-1.67,4.05-1.67Z"/>
      <path class="cls-1" d="M70.88,53.95c.33,1.03,2.11,1.6,4.76,1.82-.31-1.92-.9-3.76-1.72-5.45,0-.01-.01-.03-.02-.04-.09-.19-.19-.37-.28-.55-1.98,1.71-3.07,3.2-2.74,4.22Z"/>
      <path class="cls-1" d="M69.57,54.38c.52,1.62,2.9,2.47,6.25,2.77-.02-.23-.05-.46-.08-.69-3.01-.27-5.09-.97-5.51-2.29-.42-1.31.83-3.08,3.07-5.03-.06-.1-.12-.2-.17-.3-.06-.1-.12-.2-.18-.3-2.5,2.19-3.9,4.23-3.38,5.84Z"/>
      <path class="cls-1" d="M70.88,53.95c-.33-1.02.76-2.51,2.74-4.22-.11-.2-.21-.4-.33-.6-2.25,1.96-3.5,3.73-3.07,5.03.43,1.32,2.51,2.02,5.51,2.29-.03-.23-.06-.45-.1-.68-2.65-.23-4.43-.8-4.76-1.82Z"/>
      <path class="cls-1" d="M40.7,64.14c-.26-.79-1.7-1.51-4.76-1.8.35,2.14,1.04,4.17,2.01,6.02,1.98-1.71,3.07-3.2,2.74-4.22Z"/>
      <path class="cls-1" d="M41.36,63.93c.42,1.31-.83,3.08-3.07,5.03.11.2.23.4.35.6,2.5-2.19,3.9-4.23,3.38-5.84-.5-1.55-2.6-2.48-6.25-2.79.02.24.05.47.08.71,3.01.27,5.09.97,5.52,2.29Z"/>
      <path class="cls-1" d="M41.36,63.93c-.43-1.32-2.51-2.02-5.52-2.29.03.23.06.47.1.7,3.06.29,4.5,1.01,4.76,1.8.33,1.02-.76,2.51-2.74,4.22.11.2.21.4.33.6,2.25-1.95,3.5-3.72,3.07-5.03Z"/>
      <path class="cls-1" d="M74.03,63.09h0c-1.23,0-2.13.45-2.37,1.16-.23.72.24,1.62,1.23,2.34h0l1.18.86c.64-1.38,1.12-2.84,1.44-4.37h-1.48Z"/>
      <path class="cls-1" d="M74.03,62.4h1.6c.04-.23.07-.46.1-.69h-1.7s0,0,0,0c-1.85,0-3.26.81-3.68,2.12-.43,1.31.24,2.8,1.73,3.89l1.37,1c.11-.2.22-.41.32-.62l-1.29-.94c-2.69-1.96-1.78-4.76,1.55-4.75Z"/>
      <path class="cls-1" d="M72.89,66.59c-1-.72-1.47-1.62-1.23-2.34.23-.72,1.14-1.16,2.37-1.16h1.49c.05-.23.08-.46.12-.69h-1.6c-3.33,0-4.24,2.79-1.55,4.75l1.29.94c.11-.21.21-.42.31-.63l-1.18-.86h0Z"/>
      <path class="cls-1" d="M37.56,55h0c1.23,0,2.14-.45,2.37-1.16.23-.72-.24-1.62-1.23-2.34h0l-1.19-.87c-.64,1.38-1.12,2.84-1.43,4.37h1.48Z"/>
      <path class="cls-1" d="M39.11,50.94c2.69,1.96,1.78,4.76-1.55,4.75h-1.6c-.04.23-.07.46-.1.69h1.7s0,0,0,0c1.85,0,3.26-.81,3.68-2.12.43-1.31-.24-2.8-1.73-3.89l-1.37-1c-.11.2-.22.41-.32.62l1.29.94Z"/>
      <path class="cls-1" d="M38.7,51.5c.99.72,1.47,1.62,1.23,2.34-.23.72-1.14,1.16-2.37,1.16h-1.48c-.05.23-.09.46-.12.69h1.6c3.33,0,4.24-2.79,1.55-4.75l-1.29-.94c-.11.21-.21.42-.31.63l1.19.87h0Z"/>
      <path class="cls-1" d="M46.14,45.86c.07-.11.16-.21.27-.29.17-.12.37-.16.56-.17.23-.62.41-1.92-.52-4.19-.37.19-.73.4-1.09.62-.97.59-1.89,1.26-2.75,2-.02.02-.04.03-.05.05,1.73,1.56,2.91,1.93,3.57,1.98Z"/>
      <path class="cls-1" d="M47.65,45.6c.09.07.18.14.24.23l.26.36c.48-.92.8-2.65-.43-5.58-.21.09-.42.19-.63.29,1,2.42.86,3.89.56,4.69Z"/>
      <path class="cls-1" d="M45.99,46.55c-.85-.08-2.15-.56-3.94-2.2-.17.16-.33.32-.49.48,2.13,1.95,3.7,2.43,4.72,2.43,0,0,.02,0,.03,0l-.15-.21c-.11-.15-.15-.32-.17-.5Z"/>
      <path class="cls-1" d="M46.14,45.86c-.66-.05-1.85-.42-3.57-1.98-.18.15-.35.31-.52.47,1.78,1.63,3.08,2.11,3.94,2.2-.02-.24.02-.48.16-.69Z"/>
      <path class="cls-1" d="M47.65,45.6c.3-.81.44-2.28-.56-4.69-.21.1-.42.2-.62.31.93,2.27.75,3.56.52,4.19.24,0,.47.05.67.2Z"/>
      <path class="cls-1" d="M64.86,72.34l-.07.04c-.23.35-.83,1.65.31,4.49,1.4-.73,2.7-1.62,3.88-2.64-2.46-2.21-3.81-1.99-4.12-1.89Z"/>
      <path class="cls-1" d="M64.31,71.87l.25-.15c.52-.2,2.14-.5,4.94,2.05.17-.16.34-.31.5-.47-3.01-2.74-4.89-2.53-5.69-2.22l-.35.2-.17.15c-.57.69-1.43,2.46.06,6.06.21-.09.43-.19.63-.29-1.39-3.39-.52-4.91-.17-5.33Z"/>
      <path class="cls-1" d="M64.56,71.72l-.25.15c-.35.42-1.22,1.94.17,5.33.21-.1.41-.21.62-.31-1.15-2.85-.55-4.15-.31-4.49l.07-.04c.31-.1,1.66-.31,4.12,1.89.18-.15.35-.31.52-.47-2.8-2.55-4.42-2.26-4.94-2.05Z"/>
      <path class="cls-1" d="M60.06,78.71c.33.52.63,1.05.93,1.59,1.25-.31,2.46-.72,3.61-1.23-.3-.56-.55-1.09-.76-1.58-1.21.53-2.47.94-3.79,1.22Z"/>
      <path class="cls-1" d="M48.64,40.24c.36-.14.72-.26,1.08-.38.59-.19,1.19-.35,1.81-.48-.33-.52-.64-1.06-.93-1.6-1.26.31-2.48.72-3.65,1.24.3.56.56,1.1.77,1.59.3-.13.61-.26.92-.38Z"/>
      <path class="cls-1" d="M39.67,71.08c-.37-.49-.71-1-1.03-1.53-.42.37-.88.74-1.36,1.12.62.99,1.32,1.92,2.09,2.79.5-.34.99-.67,1.47-.97-.41-.45-.8-.92-1.16-1.41Z"/>
      <path class="cls-1" d="M47.97,77.59c-.13.52-.29,1.09-.47,1.7.98.4,1.99.74,3.04.99.3-.54.6-1.07.93-1.59-1.21-.26-2.38-.63-3.5-1.11Z"/>
      <path class="cls-1" d="M72.25,47.47c.18.25.35.51.52.78.06.09.12.19.18.28.42-.37.88-.74,1.36-1.12-.61-.97-1.3-1.89-2.05-2.76-.52.36-1.01.69-1.47.97.52.58,1.01,1.2,1.46,1.84Z"/>
      <path class="cls-1" d="M35.67,59.04c0-.9.06-1.79.18-2.66h-1.77c-.11.87-.17,1.76-.17,2.66,0,.6.03,1.2.08,1.79.63.02,1.21.05,1.77.1-.06-.62-.09-1.25-.09-1.89Z"/>
      <path class="cls-1" d="M75.91,59.04c0,.9-.07,1.79-.18,2.67h1.77c.11-.87.17-1.76.17-2.67,0-.6-.03-1.2-.08-1.79-.62-.02-1.21-.06-1.77-.11.06.63.09,1.26.09,1.9Z"/>
      <path class="cls-1" d="M63.62,40.5c.13-.52.29-1.09.47-1.7-.98-.4-1.99-.74-3.04-1-.3.54-.6,1.07-.93,1.59,1.21.26,2.38.63,3.5,1.11Z"/>
      <path class="cls-1" d="M70.02,73.27s-.02.02-.03.03c.39.36.8.78,1.23,1.24,1.42-1.42,2.65-3.03,3.64-4.79l-1.42-1.04c-.92,1.68-2.08,3.22-3.42,4.56Z"/>
      <path class="cls-1" d="M39.46,47.29c.55-.76,1.15-1.49,1.8-2.16.1-.1.2-.2.29-.29-.4-.37-.82-.78-1.25-1.26-1.41,1.41-2.62,3.01-3.6,4.76l1.44,1.05c.4-.73.84-1.43,1.32-2.1Z"/>
      <path class="cls-1" d="M55.79,79.16c-.97,0-1.92-.07-2.85-.2-.35.53-.68,1.07-.99,1.62,1.25.22,2.53.34,3.84.34s2.55-.12,3.78-.33c-.31-.55-.64-1.09-.99-1.62-.91.13-1.84.2-2.79.2Z"/>
      <path class="cls-1" d="M59.33,78.85c.33.52.65,1.06.95,1.61.24-.05.47-.11.7-.16-.29-.54-.6-1.07-.93-1.59-.24.05-.48.1-.73.14Z"/>
      <path class="cls-1" d="M51.47,78.69c-.33.52-.64,1.05-.93,1.59.23.06.47.11.7.16.31-.54.62-1.08.96-1.61-.24-.04-.49-.09-.73-.14Z"/>
      <path class="cls-1" d="M52.19,78.84c-.34.52-.65,1.06-.96,1.61.24.05.48.09.72.14.31-.55.64-1.09.99-1.62-.25-.04-.5-.08-.75-.12Z"/>
      <path class="cls-1" d="M58.58,78.97c.35.53.68,1.07.99,1.62.24-.04.48-.08.72-.13-.3-.55-.62-1.08-.95-1.61-.25.04-.5.08-.75.12Z"/>
      <path class="cls-1" d="M54.87,38.94c.31-.01.61-.02.92-.02.97,0,1.92.07,2.85.21.35-.53.68-1.07.99-1.62-1.25-.22-2.53-.35-3.84-.35-.34,0-.67,0-1,.02-.94.04-1.87.15-2.77.31.31.55.64,1.09.99,1.62.61-.09,1.24-.15,1.87-.17Z"/>
      <path class="cls-1" d="M60.12,39.39c.33-.52.64-1.05.93-1.59-.23-.06-.46-.11-.7-.16-.31.54-.62,1.08-.96,1.6.24.04.49.09.72.14Z"/>
      <path class="cls-1" d="M52.25,39.24c-.34-.53-.65-1.06-.95-1.61-.24.05-.47.1-.7.15.3.54.6,1.07.93,1.6.24-.05.48-.1.73-.14Z"/>
      <path class="cls-1" d="M53,39.12c-.35-.53-.68-1.07-.99-1.62-.24.04-.48.09-.72.13.3.55.62,1.08.95,1.61.25-.04.5-.09.75-.12Z"/>
      <path class="cls-1" d="M59.4,39.25c.34-.52.65-1.06.96-1.6-.24-.05-.48-.09-.72-.14-.31.55-.64,1.09-.99,1.62.25.04.5.08.75.12Z"/>
      <path class="cls-1" d="M65.37,39.38c-.19.62-.34,1.2-.47,1.73,1.81.92,3.46,2.1,4.9,3.5.47-.28.97-.61,1.5-.98-1.72-1.73-3.73-3.18-5.94-4.26Z"/>
      <path class="cls-1" d="M64.26,40.79c.13-.55.29-1.12.47-1.71-.21-.1-.43-.19-.64-.28-.19.61-.34,1.18-.47,1.7.22.09.43.19.65.29Z"/>
      <path class="cls-1" d="M70.67,45.5s.08.09.11.13c0,0,0,0,0,0,.46-.29.95-.61,1.47-.97-.15-.18-.31-.35-.47-.52-.51.35-1,.68-1.48.98.12.13.25.25.37.38Z"/>
      <path class="cls-1" d="M64.9,41.1c.13-.53.28-1.1.47-1.73-.21-.1-.42-.2-.63-.29-.18.59-.34,1.16-.47,1.71.21.1.43.2.64.31Z"/>
      <path class="cls-1" d="M70.3,45.11c.48-.3.98-.62,1.48-.98-.16-.17-.32-.34-.48-.51-.54.37-1.04.69-1.5.98.17.17.34.33.5.51Z"/>
      <path class="cls-1" d="M41.76,73.46c-.48.3-.98.63-1.49.98,1.72,1.74,3.73,3.18,5.95,4.27.19-.62.34-1.2.47-1.73-1.82-.92-3.48-2.12-4.92-3.52Z"/>
      <path class="cls-1" d="M47.32,77.29c-.13.55-.29,1.12-.47,1.71.21.1.43.19.64.28.19-.61.34-1.18.47-1.7-.22-.09-.43-.19-.65-.29Z"/>
      <path class="cls-1" d="M41.28,72.98c-.15-.16-.3-.32-.45-.48-.48.3-.97.63-1.47.97.14.16.29.33.44.49.51-.35,1-.68,1.48-.98Z"/>
      <path class="cls-1" d="M46.69,76.98c-.13.53-.28,1.1-.47,1.73.21.1.42.2.63.29.18-.59.34-1.16.47-1.71-.21-.1-.43-.2-.64-.31Z"/>
      <path class="cls-1" d="M41.56,73.27c-.1-.1-.19-.2-.28-.3-.48.3-.98.62-1.48.98.16.17.31.33.47.49.52-.36,1.02-.69,1.49-.98-.07-.06-.13-.12-.2-.19Z"/>
      <path class="cls-1" d="M73.91,50.28s.01.03.02.04c.82,1.7,1.4,3.53,1.72,5.45.56.05,1.16.08,1.79.1-.38-2.6-1.21-5.05-2.42-7.27-.5.39-.96.76-1.39,1.13.1.18.19.36.28.55Z"/>
      <path class="cls-1" d="M73.13,48.83c.06.1.12.2.17.3.42-.37.88-.74,1.37-1.12-.12-.2-.24-.4-.36-.59-.48.37-.94.75-1.36,1.12.06.1.12.2.18.3Z"/>
      <path class="cls-1" d="M75.82,57.14c.56.05,1.16.09,1.77.11-.02-.23-.04-.46-.07-.7-.63-.02-1.22-.05-1.78-.1.03.23.06.46.08.69Z"/>
      <path class="cls-1" d="M73.63,49.73c.43-.37.88-.74,1.39-1.13-.11-.2-.23-.4-.34-.59-.49.38-.95.76-1.37,1.12.11.2.22.4.33.6Z"/>
      <path class="cls-1" d="M75.74,56.45c.56.05,1.16.08,1.78.1-.03-.23-.05-.46-.09-.68-.64-.02-1.23-.05-1.79-.1.04.22.07.45.1.68Z"/>
      <path class="cls-1" d="M35.94,62.34c-.55-.05-1.15-.09-1.8-.11.38,2.6,1.21,5.05,2.42,7.26.5-.39.96-.76,1.39-1.13-.97-1.86-1.66-3.88-2.01-6.02Z"/>
      <path class="cls-1" d="M38.29,68.96c-.42.37-.88.74-1.37,1.12.12.2.24.4.36.59.48-.37.94-.75,1.36-1.12-.12-.2-.24-.4-.35-.6Z"/>
      <path class="cls-1" d="M35.76,60.93c-.55-.05-1.14-.08-1.77-.1.02.24.04.47.07.7.62.02,1.22.05,1.78.1-.03-.23-.06-.47-.08-.71Z"/>
      <path class="cls-1" d="M35.84,61.64c-.56-.05-1.16-.08-1.78-.1.03.23.05.46.09.69.65.02,1.25.06,1.8.11-.04-.23-.07-.46-.1-.7Z"/>
      <path class="cls-1" d="M36.57,69.49c.11.2.23.4.34.59.49-.38.95-.76,1.37-1.12-.11-.2-.22-.4-.33-.6-.42.37-.88.74-1.39,1.13Z"/>
      <path class="cls-1" d="M74.07,67.46l1.45,1.05c.82-1.7,1.42-3.52,1.77-5.42h-1.78c-.31,1.52-.8,2.99-1.44,4.36Z"/>
      <path class="cls-1" d="M75.63,62.4h1.78c.04-.23.06-.46.09-.69h-1.77c-.03.23-.06.46-.1.69Z"/>
      <path class="cls-1" d="M73.76,68.09c-.1.21-.21.42-.32.62l1.42,1.04c.11-.2.22-.41.33-.61l-1.43-1.04Z"/>
      <path class="cls-1" d="M73.76,68.09l1.43,1.04c.11-.21.22-.41.32-.62l-1.45-1.05c-.1.21-.2.42-.31.63Z"/>
      <path class="cls-1" d="M75.51,63.09h1.78c.04-.23.09-.46.12-.69h-1.78c-.04.23-.08.46-.12.69Z"/>
      <path class="cls-1" d="M37.51,50.63l-1.45-1.06c-.81,1.7-1.41,3.52-1.77,5.43h1.79c.31-1.52.8-2.99,1.43-4.37Z"/>
      <path class="cls-1" d="M37.82,50c.11-.21.21-.41.33-.62l-1.44-1.05c-.11.2-.23.4-.33.61l1.45,1.06Z"/>
      <path class="cls-1" d="M35.96,55.69h-1.78c-.04.23-.06.46-.09.69h1.77c.03-.23.07-.46.1-.69Z"/>
      <path class="cls-1" d="M36.08,55h-1.79c-.04.23-.08.46-.12.69h1.78c.04-.23.08-.46.12-.69Z"/>
      <path class="cls-1" d="M37.82,50l-1.45-1.06c-.11.21-.21.42-.31.63l1.45,1.06c.1-.21.2-.42.31-.63Z"/>
      <path class="cls-1" d="M42.57,43.88s.04-.03.05-.05c.86-.74,1.78-1.41,2.75-2,.36-.22.72-.43,1.09-.62-.2-.49-.45-1.02-.76-1.6-1.59.82-3.06,1.84-4.39,3.01.45.49.86.91,1.26,1.26Z"/>
      <path class="cls-1" d="M41.56,44.83c.16-.16.33-.32.49-.48-.39-.36-.81-.79-1.25-1.26-.17.16-.33.32-.5.49.44.48.85.89,1.25,1.26Z"/>
      <path class="cls-1" d="M47.72,40.61c-.21-.49-.47-1.03-.77-1.59-.21.09-.42.19-.63.29.31.57.56,1.11.77,1.6.21-.1.42-.2.63-.29Z"/>
      <path class="cls-1" d="M42.05,44.35c.17-.16.34-.32.52-.47-.39-.35-.81-.77-1.26-1.26-.17.15-.34.31-.51.47.44.48.86.91,1.25,1.26Z"/>
      <path class="cls-1" d="M46.32,39.31c-.21.1-.42.2-.62.3.31.58.56,1.11.76,1.6.21-.11.41-.21.62-.31-.2-.49-.46-1.02-.77-1.6Z"/>
      <path class="cls-1" d="M68.97,74.24c-1.18,1.02-2.48,1.91-3.88,2.64.19.48.44,1.01.75,1.58,1.58-.82,3.05-1.83,4.37-2.99-.44-.48-.86-.89-1.24-1.24Z"/>
      <path class="cls-1" d="M69.99,73.3c-.16.16-.33.32-.5.47.39.35.8.77,1.23,1.24.17-.16.34-.31.5-.47-.43-.46-.84-.88-1.23-1.24Z"/>
      <path class="cls-1" d="M63.84,77.48c.2.49.46,1.02.76,1.58.21-.09.42-.19.63-.29-.3-.57-.55-1.1-.75-1.58-.21.1-.42.19-.63.29Z"/>
      <path class="cls-1" d="M69.5,73.77c-.17.16-.35.31-.52.47.39.35.8.76,1.24,1.24.17-.15.34-.31.51-.46-.43-.47-.85-.89-1.23-1.24Z"/>
      <path class="cls-1" d="M65.23,78.78c.21-.1.41-.21.61-.31-.31-.58-.55-1.1-.75-1.58-.21.11-.41.21-.62.32.2.49.45,1.02.75,1.58Z"/>
      <path class="cls-1" d="M49.72,39.86c.59-.19,1.19-.35,1.81-.48h0c-.61.13-1.21.29-1.81.48Z"/>
      <path class="cls-1" d="M35.67,59.04c0,.64.03,1.26.09,1.89h0c-.06-.62-.09-1.25-.09-1.89,0-.9.06-1.79.18-2.66h0c-.12.87-.18,1.76-.18,2.66Z"/>
      <path class="cls-1" d="M72.95,48.53c-.06-.1-.12-.19-.18-.28.06.09.12.19.18.28h0Z"/>
      <path class="cls-1" d="M41.56,44.83c-.1.1-.2.19-.29.29.1-.1.2-.2.29-.29h0Z"/>
      <path class="cls-1" d="M60.12,39.39h0c1.21.27,2.38.63,3.5,1.11h0c-1.12-.47-2.29-.84-3.5-1.11Z"/>
      <path class="cls-1" d="M38.64,69.56c.32.52.67,1.04,1.03,1.53-.37-.49-.71-1-1.03-1.53h0Z"/>
      <path class="cls-1" d="M72.25,47.47c-.45-.64-.94-1.26-1.46-1.84h0c.52.58,1.01,1.2,1.46,1.84Z"/>
      <path class="cls-1" d="M47.72,40.61c.3-.13.61-.26.92-.38-.31.12-.62.24-.92.38h0Z"/>
      <path class="cls-1" d="M39.46,47.29c-.48.67-.92,1.37-1.32,2.1h0c.4-.73.84-1.43,1.32-2.1Z"/>
      <path class="cls-1" d="M54.87,38.94c.31-.01.61-.02.92-.02.97,0,1.92.07,2.85.2h0c-.93-.13-1.88-.21-2.85-.21-.31,0-.62,0-.92.02-.63.03-1.25.09-1.87.17h0c.61-.09,1.24-.14,1.87-.17Z"/>
      <path class="cls-1" d="M52.25,39.24c-.24.04-.49.09-.73.14h0c.24-.05.48-.1.73-.14h0Z"/>
      <path class="cls-1" d="M59.4,39.25h0c.24.04.49.09.72.14h0c-.24-.05-.48-.1-.72-.14Z"/>
      <path class="cls-1" d="M53,39.12h0c-.25.03-.5.08-.75.12h0c.25-.04.5-.09.75-.12Z"/>
      <path class="cls-1" d="M59.4,39.25h0c-.25-.05-.5-.09-.75-.12h0c.25.04.5.08.75.12Z"/>
      <path class="cls-1" d="M69.8,44.61h0c-1.44-1.4-3.09-2.58-4.9-3.5h0c1.81.92,3.46,2.1,4.9,3.5Z"/>
      <path class="cls-1" d="M64.26,40.79c-.21-.1-.43-.2-.65-.29h0c.22.09.43.19.65.29h0Z"/>
      <path class="cls-1" d="M70.67,45.5c-.12-.13-.24-.26-.37-.38,0,0,0,0,0,0,.12.13.25.25.37.38Z"/>
      <polygon class="cls-1" points="70.79 45.63 70.78 45.63 70.79 45.63 70.79 45.63"/>
      <path class="cls-1" d="M70.3,45.11s0,0,0,0c-.16-.17-.33-.34-.5-.51h0c.17.17.34.33.5.51Z"/>
      <path class="cls-1" d="M64.26,40.79c.21.1.43.2.64.31h0c-.21-.11-.42-.21-.64-.31h0Z"/>
      <path class="cls-1" d="M73.91,50.28s.01.03.02.04c0-.01-.01-.03-.02-.04Z"/>
      <path class="cls-1" d="M73.13,48.83c-.06-.1-.12-.2-.18-.3h0c.06.1.12.2.18.3Z"/>
      <path class="cls-1" d="M35.94,62.34c.35,2.14,1.04,4.17,2.01,6.02h0c-.97-1.86-1.66-3.88-2.01-6.02h0Z"/>
      <path class="cls-1" d="M35.84,61.64h0c-.03-.23-.06-.47-.08-.71h0c.02.24.05.47.08.71Z"/>
      <path class="cls-1" d="M38.29,68.96h0c.11.2.23.4.35.6h0c-.12-.2-.24-.4-.35-.6Z"/>
      <path class="cls-1" d="M37.96,68.36h0c.11.2.21.4.33.6h0c-.11-.2-.22-.4-.33-.6Z"/>
      <path class="cls-1" d="M35.84,61.64h0c.03.23.06.47.1.7h0c-.04-.23-.07-.46-.1-.7Z"/>
      <path class="cls-1" d="M37.51,50.63h0c-.64,1.38-1.12,2.84-1.43,4.37h0c.31-1.53.8-2.99,1.43-4.37Z"/>
      <path class="cls-1" d="M35.96,55.69c-.04.23-.07.46-.1.69h0c.03-.23.07-.46.1-.69h0Z"/>
      <path class="cls-1" d="M38.14,49.38h0c-.11.2-.22.41-.33.62h0c.1-.21.21-.41.32-.62Z"/>
      <path class="cls-1" d="M37.51,50.63c.1-.21.2-.42.31-.63h0c-.1.21-.21.42-.31.63h0Z"/>
      <path class="cls-1" d="M36.08,55h0c-.05.23-.09.46-.12.69h0c.04-.23.08-.46.12-.69Z"/>
      <path class="cls-1" d="M46.46,41.21c-.37.19-.73.4-1.09.62.36-.22.72-.43,1.09-.62h0Z"/>
      <path class="cls-1" d="M42.62,43.83s-.04.03-.05.05h0s.04-.03.05-.05Z"/>
      <path class="cls-1" d="M42.05,44.35h0c-.17.16-.33.32-.49.48h0c.16-.16.33-.32.49-.48Z"/>
      <path class="cls-1" d="M47.09,40.9h0c.21-.1.42-.2.63-.29h0c-.21.09-.42.19-.63.29Z"/>
      <path class="cls-1" d="M47.09,40.9h0c-.21.1-.42.2-.62.31h0c.21-.11.41-.21.62-.31Z"/>
      <path class="cls-1" d="M42.57,43.88h0c-.18.15-.35.31-.52.47h0c.17-.16.34-.32.52-.47Z"/>
      <path class="cls-1" d="M55.79,60.8c-.97,0-1.76-.79-1.76-1.76,0-.21.04-.4.11-.59l-.92-1.32c-.4.53-.64,1.19-.64,1.91,0,1.77,1.44,3.21,3.21,3.21.99,0,1.86-.45,2.45-1.15l-1.5-.58c-.27.17-.6.28-.94.28Z"/>
      <path class="cls-1" d="M57.46,58.53l1.53.59s0-.05,0-.08c0-1.77-1.44-3.21-3.21-3.21-.05,0-.1,0-.15,0-.23.01-.45.05-.67.11l.95,1.36c.73.06,1.33.55,1.54,1.23Z"/>
      <path class="cls-1" d="M57.46,58.53c-.21-.68-.81-1.17-1.54-1.23l.61.87.93.36Z"/>
      <path class="cls-1" d="M55.79,60.8c.35,0,.67-.1.94-.28l-1.26-.49s-.02-.01-.03-.02c-.11-.05-.22-.11-.31-.2-.02-.02-.03-.03-.05-.05-.04-.04-.07-.07-.1-.12l-.84-1.2c-.07.19-.11.38-.11.59,0,.97.79,1.76,1.76,1.76Z"/>
      <path class="cls-1" d="M47.63,46.88l-.35.2c-.23.09-.56.17-.97.17l6.92,9.88c.43-.58,1.04-1.01,1.75-1.19l-6.83-9.75c-.11.22-.23.4-.35.53l-.17.15Z"/>
      <path class="cls-1" d="M46.73,45.81l.07-.04c.05-.08.12-.2.18-.37-.2,0-.39.05-.56.17-.11.08-.2.18-.27.29.29.02.49-.02.58-.05Z"/>
      <path class="cls-1" d="M47.65,45.6c-.12.34-.27.57-.38.69l-.25.15c-.19.07-.54.16-1.04.11.02.17.06.35.17.5l.15.21c.42,0,.74-.08.97-.17l.35-.2.17-.15c.11-.13.23-.31.35-.53l-.26-.36c-.07-.1-.15-.17-.24-.23Z"/>
      <path class="cls-1" d="M45.99,46.55c.5.05.85-.03,1.04-.11l.25-.15c.1-.12.25-.35.38-.69-.2-.15-.43-.21-.67-.2-.06.17-.13.29-.18.37l-.07.04c-.09.03-.29.07-.58.05-.13.2-.18.45-.16.69Z"/>
      <path class="cls-1" d="M53.22,57.14l.92,1.32c.24-.68.89-1.17,1.65-1.17.05,0,.09,0,.13.01l-.95-1.36c-.71.19-1.32.62-1.75,1.19Z"/>
      <path class="cls-1" d="M55.09,59.77c-.27-.29-.38-.71-.23-1.1.21-.55.82-.82,1.37-.61l.3.12-.61-.87s-.09-.01-.13-.01c-.76,0-1.4.49-1.65,1.17l.84,1.2s.07.08.1.12Z"/>
      <path class="cls-1" d="M55.44,60.01c-.12-.05-.22-.11-.31-.2.09.09.2.15.31.2Z"/>
      <path class="cls-1" d="M65.62,63.94c.13.05.25.07.38.07.43,0,.83-.26.99-.68.21-.55-.06-1.16-.61-1.37l-7.38-2.84c-.02.76-.3,1.44-.76,1.98l7.38,2.84Z"/>
      <path class="cls-1" d="M57.55,59.04c0,.62-.32,1.16-.81,1.48l1.5.58c.45-.54.74-1.22.76-1.98l-1.53-.59c.05.16.09.33.09.51Z"/>
      <path class="cls-1" d="M55.14,59.82s-.03-.03-.05-.05c.02.02.03.04.05.05Z"/>
      <path class="cls-1" d="M56.72,58.44c.34.48.22,1.14-.26,1.48-.18.13-.4.19-.61.19-.14,0-.28-.03-.41-.09.01,0,.02.01.03.02l1.26.49c.49-.31.81-.86.81-1.48,0-.18-.04-.35-.09-.51l-.93-.36.19.27Z"/>
      <path class="cls-1" d="M56.46,59.91c.48-.34.6-1,.26-1.48l-.19-.27-.3-.12c-.55-.21-1.16.06-1.37.61-.15.39-.05.82.23,1.1.02.02.03.04.05.05.09.08.19.15.31.2.13.05.27.09.41.09.21,0,.42-.06.61-.19Z"/>
      <g>
        <g>
          <path class="cls-1" d="M55.79,80.18c-11.65,0-21.14-9.48-21.14-21.14s8.86-20.6,20.17-21.11c.32-.01.64-.02.97-.02,11.65,0,21.14,9.48,21.14,21.14s-9.48,21.14-21.14,21.14Z"/>
          <path class="cls-2" d="M55.79,38.92c11.11,0,20.12,9.01,20.12,20.12s-9.01,20.12-20.12,20.12-20.12-9.01-20.12-20.12,8.51-19.62,19.2-20.1c.31-.01.61-.02.92-.02M55.79,36.89c-.34,0-.68,0-1.01.02-11.85.53-21.14,10.25-21.14,22.13s9.94,22.15,22.15,22.15,22.15-9.94,22.15-22.15-9.94-22.15-22.15-22.15h0Z"/>
        </g>
        <path class="cls-2" d="M59,59.04c0,1.77-1.44,3.21-3.21,3.21s-3.21-1.44-3.21-3.21,1.36-3.13,3.06-3.21c.05,0,.1,0,.15,0,1.77,0,3.21,1.44,3.21,3.21Z"/>
        <line class="cls-3" x1="55.85" y1="59.04" x2="47.03" y2="46.44"/>
        <line class="cls-3" x1="66" y1="62.95" x2="55.85" y2="59.04"/>
      </g>
    </g>
  </g>
</svg>