<?xml version="1.0" encoding="UTF-8"?>
<svg id="Layer_2" data-name="Layer 2" xmlns="http://www.w3.org/2000/svg" viewBox="0 0 96.31 116.28">
  <defs>
    <style>
      .cls-1 {
        fill: #9d7c4f;
      }
    </style>
  </defs>
  <g id="Layer_1-2" data-name="Layer 1">
    <g>
      <rect class="cls-1" x="63.89" y="25.58" height="22.5" transform="translate(-7.16 56.59) rotate(-45.5)"/>
      <polygon class="cls-1" points="86.38 38.6 93.8 38.6 87.51 13.26 63.38 13.26 65.54 20.48 82.34 20.48 86.38 38.6"/>
      <path class="cls-1" d="M65.45,26.99l-4.97-16.6c-.25-.92-1.06-1.54-1.98-1.54h-7.25c-.92,0-1.73.62-1.97,1.51l-4.98,16.63h21.15Z"/>
      <path class="cls-1" d="M42.17,28.94c-2.65,0-4.81,2.16-4.81,4.81v11.12c2.23-.87,4.65-1.36,7.18-1.36h20.67c2.36,0,4.61.43,6.71,1.19l-16.05-15.77h-13.7Z"/>
      <path class="cls-1" d="M72.39,44.88v-11.12c0-2.65-2.16-4.81-4.81-4.81h-11.71l16.05,15.77c.16.06.32.1.47.16Z"/>
      <polygon class="cls-1" points="39.82 14.67 39.82 16.63 45.36 16.63 45.94 14.67 39.82 14.67"/>
      <polygon class="cls-1" points="37.86 12 23.22 13.55 23.22 17.75 37.86 19.3 37.86 12"/>
      <polygon class="cls-1" points="88.28 12.28 95.05 39.57 85.6 39.57 81.55 21.46 65.84 21.46 66.13 22.43 80.77 22.43 84.81 40.55 96.31 40.55 89.04 11.3 62.8 11.3 63.09 12.28 88.28 12.28"/>
      <polygon class="cls-1" points="87.51 13.26 93.8 38.6 86.38 38.6 82.34 20.48 65.54 20.48 65.84 21.46 81.55 21.46 85.6 39.57 95.05 39.57 88.28 12.28 63.09 12.28 63.38 13.26 87.51 13.26"/>
      <polygon class="cls-1" points="65.11 22.43 66.47 26.99 67.49 26.99 66.13 22.43 65.11 22.43"/>
      <path class="cls-1" d="M48.33,10.1c.35-1.32,1.55-2.24,2.91-2.24h3.63V0v7.86h3.63c1.37,0,2.56.92,2.92,2.24l3.46,11.56v-.21l-2.13-8.19h-.25v-.98h0s0,0,0,0v-.98h.31l-.43-1.45c-.47-1.75-2.05-2.97-3.86-2.97h-2.65V0h-1.96v6.89h-2.65c-1.81,0-3.39,1.22-3.85,2.94l-1.45,4.85h.34v1.96h-.93l-3.1,10.35h1.02l5.05-16.88Z"/>
      <polygon class="cls-1" points="65.54 20.48 63.38 13.26 62.75 13.26 64.88 21.45 64.88 20.48 65.54 20.48"/>
      <polygon class="cls-1" points="62.49 12.28 62.49 12.28 62.49 12.28 62.49 12.28"/>
      <path class="cls-1" d="M64.88,21.67l-3.46-11.56c-.35-1.32-1.55-2.24-2.92-2.24h-7.25c-1.37,0-2.56.92-2.91,2.24l-5.05,16.88h1.02l4.98-16.63c.24-.89,1.05-1.51,1.97-1.51h7.25c.92,0,1.73.62,1.98,1.54l4.97,16.6h1.02l-1.36-4.55h-.23v-.77Z"/>
      <polygon class="cls-1" points="46.28 14.67 45.94 14.67 45.36 16.63 46.28 16.63 46.28 14.67"/>
      <polygon class="cls-1" points="64.88 21.46 64.88 21.45 64.88 21.67 65.11 22.43 66.13 22.43 65.84 21.46 64.88 21.46"/>
      <polygon class="cls-1" points="62.49 13.26 62.75 13.26 62.49 12.28 62.49 13.26"/>
      <polygon class="cls-1" points="62.49 12.28 63.09 12.28 62.8 11.3 62.49 11.3 62.49 12.28"/>
      <polygon class="cls-1" points="65.84 21.46 65.54 20.48 64.88 20.48 64.88 21.45 64.88 21.46 65.84 21.46"/>
      <polygon class="cls-1" points="63.09 12.28 62.49 12.28 62.49 12.28 62.75 13.26 63.38 13.26 63.09 12.28"/>
      <polygon class="cls-1" points="64.88 22.43 65.11 22.43 64.88 21.67 64.88 22.43"/>
      <path class="cls-1" d="M36.38,33.75c0-3.12,2.48-5.67,5.58-5.78l.3-.99h-.09c-3.73,0-6.77,3.04-6.77,6.77v12.01c.32-.17.65-.31.98-.46v-11.55Z"/>
      <path class="cls-1" d="M37.36,33.75c0-2.65,2.16-4.81,4.81-4.81h-.5l.29-.97c-3.1.11-5.58,2.65-5.58,5.78v11.55c.32-.15.65-.3.98-.43v-11.12Z"/>
      <path class="cls-1" d="M42.17,27.96h12.7s-11.89,0-11.89,0l.29-.98h-1.02l-.3.99c.07,0,.14-.01.21-.01Z"/>
      <polygon class="cls-1" points="44.3 26.99 43.28 26.99 42.98 27.96 54.87 27.96 54.87 26.99 44.3 26.99"/>
      <path class="cls-1" d="M41.96,27.98l-.29.97h13.2v-.98h-12.7c-.07,0-.14,0-.21.01Z"/>
      <path class="cls-1" d="M73.37,33.75v11.55c.33.15.66.29.98.46v-12.01c0-3.73-3.04-6.77-6.77-6.77h-.09l.3.99c3.1.11,5.58,2.65,5.58,5.78Z"/>
      <path class="cls-1" d="M67.58,28.94c2.65,0,4.81,2.16,4.81,4.81v11.12c.22.09.44.19.66.28h.32v-11.41c0-3.13-2.48-5.67-5.58-5.78l.29.97h-.5Z"/>
      <path class="cls-1" d="M66.76,27.96h-11.89s0,0,0,0l1,.98h0l-1-.98h12.71c.07,0,.14,0,.21.01l-.3-.99h-1.02l.29.98Z"/>
      <polygon class="cls-1" points="54.87 26.99 54.87 27.96 66.76 27.96 66.47 26.99 65.45 26.99 54.87 26.99"/>
      <polygon class="cls-1" points="55.87 28.94 54.87 27.96 54.87 27.96 54.87 28.94 55.87 28.94"/>
      <path class="cls-1" d="M68.08,28.94l-.29-.97c-.07,0-.14-.01-.21-.01h-12.71l1,.98h12.21Z"/>
      <path class="cls-1" d="M73.37,45.3v-.15h-.32c.11.05.21.1.32.15Z"/>
      <path class="cls-1" d="M39.13,14.67h.69v-4.85l-18.55,1.96v7.73l18.55,1.96v-4.85h-.69v-1.96ZM38.84,20.39l-16.6-1.75v-5.97l16.6-1.75v9.47Z"/>
      <rect class="cls-1" x="39.13" y="14.67" width=".69" height="1.96"/>
      <path class="cls-1" d="M22.24,18.63l16.6,1.75v-9.47l-16.6,1.75v5.97ZM23.22,13.55l14.64-1.55v7.3l-14.64-1.55v-4.2Z"/>
      <rect class="cls-1" y="14.67" width="15.24" height="1.96"/>
      <rect class="cls-1" x="10.45" y="4.18" width="1.96" height="8.28" transform="translate(-.7 15.57) rotate(-66.91)"/>
      <rect class="cls-1" x="7.29" y="22" width="8.29" height="1.96" transform="translate(-8.1 6.33) rotate(-23.1)"/>
      <path class="cls-1" d="M54.87,70.68v-8.77h-28.22c-.04.48-.07.96-.07,1.44v5.2l18.36,1.78c3.32.32,6.63.42,9.92.34Z"/>
      <path class="cls-1" d="M54.87,70.68c6.57-.16,13.09-1.09,19.48-2.82l8.8-2.39v-2.11c0-.49-.03-.97-.07-1.44h-28.22v8.77Z"/>
      <path class="cls-1" d="M54.87,47.12h-17.95c-5.68,2.68-9.74,8.24-10.27,14.79h28.22v-14.79Z"/>
      <path class="cls-1" d="M54.87,46.14h-15.43c-.87.26-1.71.6-2.52.98h17.95v-.98Z"/>
      <path class="cls-1" d="M54.87,45.4h-10.34c-1.77,0-3.48.26-5.09.74h15.43v-.74Z"/>
      <path class="cls-1" d="M54.87,61.91h28.22c-.53-6.55-4.59-12.11-10.27-14.79h-17.95v14.79Z"/>
      <path class="cls-1" d="M54.87,47.12h17.95c-.81-.38-1.65-.72-2.52-.98h-15.43v.98Z"/>
      <path class="cls-1" d="M54.87,45.4h0v.74h15.43c-1.62-.48-3.33-.74-5.09-.74h-10.34Z"/>
      <rect class="cls-1" x="72.15" y="44.62" height=".64" transform="translate(-10.48 64.87) rotate(-45.48)"/>
      <path class="cls-1" d="M73.37,46.14h0s0,0,0,0v.2c5.93,2.85,10.14,8.69,10.66,15.57h.94c-.51-7.02-4.69-13.04-10.62-16.15v.38h-.98Z"/>
      <path class="cls-1" d="M65.21,44.46c1.74,0,3.42.26,5.03.7h2.13l-.45-.45c-2.1-.76-4.35-1.19-6.71-1.19h-10.34v.94h10.34Z"/>
      <rect class="cls-1" x="73.37" y="46.14" width="0" height="0"/>
      <path class="cls-1" d="M72.39,45.16v-.28c-.15-.06-.31-.11-.47-.16l.45.45h.02Z"/>
      <rect class="cls-1" x="72.38" y="45.16" height=".02" transform="translate(-10.59 65.03) rotate(-45.42)"/>
      <path class="cls-1" d="M73.37,46.33v-.2h-.41c.14.06.27.13.41.2Z"/>
      <path class="cls-1" d="M70.24,45.16c.74.2,1.46.44,2.15.72v-.71l-.02-.02h-2.13Z"/>
      <polygon class="cls-1" points="72.96 46.14 72.96 46.14 73.37 46.14 73.37 46.14 72.96 46.14"/>
      <polygon class="cls-1" points="72.39 45.18 72.39 45.16 72.37 45.16 72.39 45.18"/>
      <path class="cls-1" d="M73.37,46.14h.98v-.38c-.32-.17-.65-.31-.98-.46v.83Z"/>
      <path class="cls-1" d="M73.05,45.16c-.22-.1-.44-.19-.66-.28v.28h.66Z"/>
      <rect class="cls-1" x="72.88" y="44.97" height="1.37" transform="translate(-10.77 65.64) rotate(-45.5)"/>
      <path class="cls-1" d="M72.39,45.88c.19.08.38.17.57.26h.41l-.98-.96v.71Z"/>
      <path class="cls-1" d="M72.39,45.16v.02l.98.96v-.83c-.11-.05-.21-.1-.32-.15h-.66Z"/>
      <path class="cls-1" d="M72.82,47.12c5.68,2.68,9.74,8.24,10.27,14.79h.94c-.52-6.89-4.73-12.73-10.66-15.57v.78h-.55Z"/>
      <path class="cls-1" d="M70.24,45.16c-1.6-.44-3.28-.7-5.03-.7h-10.34v.7h15.36Z"/>
      <path class="cls-1" d="M70.3,46.14c.87.26,1.71.6,2.52.98h.55v-.78c-.14-.06-.27-.13-.41-.2h-2.66Z"/>
      <path class="cls-1" d="M54.87,45.16v.24h10.34c1.77,0,3.48.26,5.09.74h2.66s0,0,0,0h-.57v-.26c-.7-.29-1.42-.52-2.15-.72h-15.36Z"/>
      <path class="cls-1" d="M72.96,46.14c-.19-.09-.38-.18-.57-.26v.26h.57Z"/>
      <path class="cls-1" d="M35.4,46.82v-1.06c-5.93,3.1-10.11,9.12-10.62,16.15h.94c.49-6.5,4.27-12.09,9.68-15.09Z"/>
      <path class="cls-1" d="M39.51,45.16c1.6-.44,3.28-.7,5.03-.7h10.34v-.94h-10.34c-2.53,0-4.95.49-7.18,1.36v.28h2.15Z"/>
      <path class="cls-1" d="M36.79,46.14h-.41v-.83c-.33.15-.66.29-.98.46v1.06c.45-.25.92-.47,1.39-.68Z"/>
      <path class="cls-1" d="M37.36,45.16v-.28c-.33.13-.65.28-.98.43v.83h.41c.88-.39,1.79-.72,2.73-.98h-2.15Z"/>
      <path class="cls-1" d="M36.93,47.12h-1.53v-.29c-5.42,3-9.19,8.58-9.68,15.09h.94c.53-6.55,4.59-12.11,10.27-14.79Z"/>
      <path class="cls-1" d="M44.54,44.46c-1.74,0-3.42.26-5.03.7h15.36v-.7h-10.34Z"/>
      <path class="cls-1" d="M36.93,47.12c.81-.38,1.65-.72,2.52-.98h-2.66c-.47.21-.94.44-1.39.68v.29h1.53Z"/>
      <path class="cls-1" d="M44.54,45.4h10.34v-.24h-15.36c-.94.26-1.85.58-2.73.98h2.66c1.62-.48,3.33-.74,5.09-.74Z"/>
      <path class="cls-1" d="M54.26,107.03l-14.32-14.31c-.11-.11-.21-.23-.3-.36l-.11-.14c-1.23-1.45-1.88-3.19-1.88-5.03,0-2.08.81-4.05,2.29-5.53,1.48-1.47,3.44-2.29,5.53-2.29s4.06.81,5.53,2.29l3.26,3.26.61-.61v-11.74c-.66.02-1.32.03-1.98.03-2.7,0-5.42-.13-8.13-.39l-18.18-1.76v35.63c0,4.59,3.73,8.32,8.32,8.32h19.97v-7.98l-.61.61ZM33.55,75.62c.81,0,1.47.66,1.47,1.47s-.66,1.47-1.47,1.47-1.47-.66-1.47-1.47.66-1.47,1.47-1.47ZM32.08,103.34c0-1.62,1.32-2.94,2.94-2.94s2.94,1.32,2.94,2.94-1.32,2.94-2.94,2.94-2.94-1.32-2.94-2.94ZM36.75,112.49c-.95,0-1.73-.77-1.73-1.73s.77-1.73,1.73-1.73,1.73.77,1.73,1.73-.77,1.73-1.73,1.73Z"/>
      <path class="cls-1" d="M54.87,72.57v11.74l2.64-2.64c3.05-3.05,8.02-3.05,11.07,0,1.48,1.47,2.29,3.43,2.29,5.53,0,1.24-.31,2.45-.91,3.61h0c-.41.78-.86,1.41-1.38,1.92l-13.72,13.7v7.98h19.97c4.59,0,8.32-3.73,8.32-8.32v-38.67l-8.31,2.25c-6.55,1.78-13.24,2.74-19.98,2.9ZM78.77,93.15c.81,0,1.47.66,1.47,1.47s-.66,1.47-1.47,1.47-1.47-.66-1.47-1.47.66-1.47,1.47-1.47Z"/>
      <path class="cls-1" d="M84.1,63.35v2.83l.25.91-.25.07v38.93c0,5.11-4.15,9.26-9.26,9.26h-19.97v.94h19.97c5.62,0,10.2-4.58,10.2-10.2v-42.73c0-.49-.04-.97-.07-1.44h-.94c.04.48.07.96.07,1.44Z"/>
      <path class="cls-1" d="M83.16,63.35v2.11l.69-.19.25.91v-2.83c0-.49-.04-.97-.07-1.44h-.94c.04.48.07.96.07,1.44Z"/>
      <path class="cls-1" d="M83.16,106.08c0,4.59-3.73,8.32-8.32,8.32h-19.97v.94h19.97c5.11,0,9.26-4.15,9.26-9.26v-38.93l-.94.25v38.67Z"/>
      <path class="cls-1" d="M54.87,115.34h-19.97c-5.11,0-9.26-4.15-9.26-9.26v-35.73h-.09s.09-.94.09-.94v-6.06c0-.49.04-.97.07-1.44h-.94c-.03.48-.07.96-.07,1.44v42.73c0,5.62,4.57,10.2,10.2,10.2h19.97v-.94h0Z"/>
      <path class="cls-1" d="M26.59,68.56v-5.2c0-.49.03-.97.07-1.44h-.94c-.04.48-.07.96-.07,1.44v6.06l.09-.94.85.08Z"/>
      <path class="cls-1" d="M34.91,114.4c-4.59,0-8.32-3.73-8.32-8.32v-35.63l-.94-.09v35.73c0,5.11,4.15,9.26,9.26,9.26h19.97v-.94h-19.97Z"/>
      <polygon class="cls-1" points="84.35 67.09 84.1 66.18 84.1 67.15 84.35 67.09"/>
      <polygon class="cls-1" points="83.16 65.46 83.16 67.41 84.1 67.15 84.1 66.18 83.86 65.27 83.16 65.46"/>
      <polygon class="cls-1" points="25.56 70.35 25.65 70.36 25.65 69.41 25.56 70.35"/>
      <polygon class="cls-1" points="26.59 68.56 25.74 68.47 25.65 69.41 25.65 70.36 26.59 70.45 26.59 68.56"/>
      <circle class="cls-1" cx="35.02" cy="103.34" r="2.94"/>
      <circle class="cls-1" cx="36.75" cy="110.76" r="1.73"/>
      <path class="cls-1" d="M78.77,96.09c.81,0,1.47-.66,1.47-1.47s-.66-1.47-1.47-1.47-1.47.66-1.47,1.47.66,1.47,1.47,1.47Z"/>
      <path class="cls-1" d="M33.55,78.56c.81,0,1.47-.66,1.47-1.47s-.66-1.47-1.47-1.47-1.47.66-1.47,1.47.66,1.47,1.47,1.47Z"/>
    </g>
  </g>
</svg>