<?xml version="1.0" encoding="UTF-8"?>
<svg id="Layer_2" data-name="Layer 2" xmlns="http://www.w3.org/2000/svg" viewBox="0 0 100.18 111.31">
  <defs>
    <style>
      .cls-1 {
        fill: #9d7c4f;
      }
    </style>
  </defs>
  <g id="Layer_1-2" data-name="Layer 1">
    <g>
      <path class="cls-1" d="M33.18,20.16c-.79.73-1.18,1.94-.95,2.94.14.6.56,1.4,1.77,1.77.99.3,2.13.06,2.96-.63,1.39-1.16,1.77-2.89,1.62-4.57-.42-.19-.84-.33-1.26-.43-1.56-.35-3.15,0-4.14.92Z"/>
      <path class="cls-1" d="M63.22,24.24c.83.69,1.97.93,2.96.63,1.21-.37,1.63-1.17,1.77-1.77.23-1.01-.16-2.22-.95-2.94-.99-.92-2.58-1.27-4.14-.92-.42.09-.84.24-1.26.43-.15,1.68.23,3.42,1.62,4.57Z"/>
      <path class="cls-1" d="M6.05,101.72c-.93,1.37-1.26,3.01-.93,4.63.33,1.61,1.28,3.01,2.67,3.93,2.87,1.89,6.77,1.13,8.68-1.69l23.35-34.45-10.34-6.97L6.05,101.72Z"/>
      <path class="cls-1" d="M97.49,14.09c.55-1.51.5-3.17-.18-4.6-.29-.6-.62-1.16-.97-1.7-.02.68-.16,1.37-.42,2.04.04.07.08.14.11.21.57,1.21.6,2.57.09,3.79-.52,1.24-1.52,2.2-2.77,2.64-1.22.43-2.35.56-3.44.49l-2.44,3.36c-.01.19-.02.37,0,.56.13,1.6,1.12,2.92,2.47,3.56,1.23-.86,2-2.31,1.87-3.91-.07-.83-.37-1.57-.83-2.2.91-.05,1.85-.21,2.84-.56.74-.26,1.4-.69,1.97-1.2.07.43.18.86.4,1.27.7,1.3,2.02,2.04,3.39,2.09.72-1.17.83-2.68.13-3.98-.49-.92-1.31-1.55-2.23-1.86Z"/>
      <path class="cls-1" d="M82.84,10.5c-.4-1.56-1.59-2.69-3.03-3.1-1.07,1.05-1.58,2.61-1.19,4.17.09.36.23.69.4,1.01-1.76-.73-3.57-1.36-5.41-1.86-.96-.26-1.97-.49-3-.58.24-1.19,0-2.46-.79-3.5-.98-1.27-2.53-1.84-4.01-1.65-.57,1.39-.42,3.02.56,4.3.35.45.77.81,1.23,1.08-1.71.47-3.31,1.5-4.59,2.93-.81-1.1-2.09-1.82-3.56-1.79-1.61.04-2.97.95-3.7,2.26.78,1.28,2.19,2.13,3.8,2.09.76-.02,1.45-.24,2.06-.6-.3.53-.58,1.08-.79,1.67-.21.57-.38,1.19-.49,1.82-.82.46-1.64,1.06-2.45,1.8-.24.22-.47.45-.71.68-.32.31-.64.62-.98.91-.3.25-.32.69-.07.98.25.29.69.32.98.07.35-.31.69-.64,1.03-.96.23-.22.45-.44.68-.65.45-.42.91-.79,1.36-1.1.02,1.67.55,3.32,1.87,4.57-.36.09-.71.23-1.03.44-1.1.72-1.65,1.94-1.59,3.16,1.09.55,2.43.53,3.53-.19.79-.52,1.29-1.31,1.49-2.16.71.13,1.44.11,2.13-.1,1.44-.44,2.41-1.43,2.72-2.79.34-1.49-.21-3.21-1.36-4.27-1.32-1.22-3.39-1.7-5.39-1.25-.22.05-.43.11-.65.18.06-.22.14-.44.21-.65,1.21-3.29,4.03-5.67,7-5.92,1.38-.11,2.8.2,4.12.56.29.08.58.18.87.26-.96-.01-1.93.28-2.71.95-1.15.99-1.61,2.48-1.35,3.87,1.34.46,2.88.24,4.03-.75,1.1-.94,1.55-2.33,1.37-3.67,2.02.67,3.99,1.47,5.88,2.42l.88-1.21c.65-.98.93-2.2.62-3.44ZM62.86,19.24c1.56-.35,3.15,0,4.14.92.79.73,1.18,1.94.95,2.94-.14.6-.56,1.4-1.77,1.77-.99.3-2.13.06-2.96-.63-1.39-1.16-1.77-2.89-1.62-4.57.42-.19.84-.33,1.26-.43Z"/>
      <path class="cls-1" d="M70.71,67.16l-10.34,6.97,23.35,34.45c1.91,2.82,5.81,3.58,8.68,1.69,1.39-.92,2.34-2.31,2.67-3.93.33-1.62,0-3.26-.93-4.63l-23.42-34.56Z"/>
      <path class="cls-1" d="M24.72,12.72c-.18,1.33.28,2.73,1.37,3.67,1.15.99,2.69,1.21,4.03.75.26-1.39-.2-2.88-1.35-3.87-.79-.67-1.75-.97-2.71-.95.29-.09.58-.18.87-.26,1.33-.36,2.74-.68,4.12-.56,2.98.25,5.79,2.63,7,5.92.08.21.15.43.21.65-.22-.07-.43-.13-.65-.18-2-.45-4.07.03-5.39,1.25-1.16,1.07-1.7,2.78-1.36,4.27.31,1.36,1.27,2.35,2.72,2.79.69.21,1.42.23,2.13.1.2.86.7,1.64,1.49,2.16,1.1.72,2.44.74,3.53.19.06-1.22-.49-2.44-1.59-3.16-.33-.21-.68-.35-1.03-.44,1.32-1.25,1.85-2.91,1.87-4.57.45.31.91.68,1.36,1.1.23.21.46.43.68.65.34.33.68.66,1.03.96.29.25.73.22.98-.07.25-.29.24-.72-.07-.98-.33-.29-.66-.6-.98-.91-.23-.23-.47-.46-.71-.67-.81-.74-1.62-1.34-2.45-1.8-.11-.64-.28-1.25-.49-1.82-.22-.59-.49-1.14-.79-1.67.61.36,1.3.58,2.06.6,1.61.04,3.02-.81,3.8-2.09-.72-1.31-2.09-2.23-3.7-2.26-1.47-.03-2.75.69-3.56,1.79-1.28-1.43-2.88-2.46-4.59-2.93.46-.27.88-.63,1.23-1.08.98-1.27,1.13-2.91.56-4.3-1.49-.19-3.03.37-4.01,1.65-.8,1.04-1.04,2.31-.79,3.5-1.04.09-2.05.32-3,.58-1.84.5-3.65,1.13-5.41,1.86.17-.31.31-.64.4-1.01.4-1.56-.11-3.12-1.19-4.17-1.44.41-2.64,1.54-3.03,3.1-.31,1.23-.04,2.45.62,3.44l.88,1.21c1.9-.95,3.87-1.75,5.88-2.42ZM38.58,19.67c.15,1.68-.23,3.42-1.62,4.57-.83.69-1.97.93-2.96.63-1.21-.37-1.63-1.17-1.77-1.77-.23-1.01.16-2.22.95-2.94.99-.92,2.58-1.27,4.14-.92.42.09.84.24,1.26.43Z"/>
      <path class="cls-1" d="M6.83,16.46c-1.24-.44-2.25-1.4-2.77-2.64-.51-1.21-.48-2.58.09-3.79.04-.07.08-.14.11-.21-.26-.67-.4-1.36-.42-2.04-.35.54-.68,1.1-.97,1.7-.68,1.43-.73,3.09-.18,4.6-.92.31-1.73.94-2.23,1.86-.7,1.3-.59,2.81.13,3.98,1.38-.05,2.69-.79,3.39-2.09.22-.41.33-.84.4-1.27.58.51,1.23.94,1.97,1.2,1,.35,1.94.51,2.84.56-.46.62-.76,1.37-.83,2.2-.13,1.6.64,3.06,1.87,3.91,1.35-.65,2.34-1.96,2.47-3.56.02-.19,0-.38,0-.56l-2.44-3.36c-1.09.07-2.22-.06-3.44-.49Z"/>
      <path class="cls-1" d="M82.64,15.8c-.43-.22-.85-.44-1.27-.65,0,0-.01,0-.02,0l-18.09,24.89h0s0,0,0,0l-.63.86c-.66.91-1.73,1.46-2.88,1.46-2.65,0-5.15.42-7.43,1.22h0c-.77.27-1.51.59-2.22.95,2.57,1.29,4.79,3.14,6.6,5.54l-1.64,1.06c1.04-.38,2.05-.59,2.93-.7h0s0,0,0,0c2.19-.26,3.97.04,4.48.14.02,0,.03,0,.05.01,1.54.36,3.13-.23,4.05-1.51l1.05-1.44h0s19.86-27.33,19.86-27.33c.05-.82.33-1.57.78-2.22-1.99-.43-3.82-1.36-5.61-2.29Z"/>
      <path class="cls-1" d="M83.28,14.57c2.19,1.14,4.3,2.23,6.64,2.38l3.53-4.85c2.72-3.74,2.17-8.93-1.09-12.09l-10.13,13.94s-.03.05-.05.07c.37.18.73.37,1.1.56Z"/>
      <path class="cls-1" d="M44.53,50.79l5.55,3.84c.23-.28.47-.53.72-.78l-.39.25c-1.69-2.06-3.91-2.9-5.88-3.31Z"/>
      <path class="cls-1" d="M83.28,14.57c-.37-.19-.73-.38-1.1-.56.02-.02.03-.05.05-.07l-.88,1.21s.01,0,.02,0c.42.21.85.43,1.27.65,1.79.93,3.62,1.86,5.61,2.29-.45.64-.73,1.4-.78,2.22l2.44-3.36c-2.34-.15-4.45-1.24-6.64-2.38Z"/>
      <path class="cls-1" d="M43.16,57.93c-2.73-1.84-6.44-1.12-8.28,1.61l-2.39,3.55,9.89,6.67,2.39-3.55c1.84-2.73,1.12-6.44-1.61-8.28Z"/>
      <path class="cls-1" d="M50.09,44.53c-.71-.36-1.45-.68-2.22-.95h0c-2.28-.81-4.78-1.22-7.43-1.22-1.15,0-2.22-.54-2.88-1.46l-.63-.86h0S18.84,15.14,18.84,15.14c0,0-.01,0-.02,0-.42.21-.85.43-1.27.65-1.79.93-3.62,1.85-5.61,2.29.45.65.73,1.4.78,2.22l19.86,27.33h0s1.05,1.44,1.05,1.44c.92,1.27,2.51,1.87,4.05,1.51.02,0,.03,0,.05-.01.51-.1,2.28-.4,4.48-.14,0,0,0,0,0,0h0c.69.09,1.49.19,2.33.36l-1.04-.72c1.81-2.4,4.02-4.25,6.6-5.54Z"/>
      <path class="cls-1" d="M18,14.01s-.03-.05-.05-.07L7.83,0c-3.26,3.16-3.81,8.35-1.09,12.09l3.53,4.85c2.34-.15,4.45-1.24,6.64-2.38.37-.19.73-.38,1.1-.56Z"/>
      <path class="cls-1" d="M50.81,53.85l4.24-2.72c-1.43.52-2.91,1.38-4.24,2.72Z"/>
      <path class="cls-1" d="M17.54,15.8c.42-.22.85-.44,1.27-.65,0,0,.01,0,.02,0l-.88-1.21s.03.05.05.07c-.37.18-.73.37-1.1.56-2.19,1.13-4.3,2.22-6.64,2.38l2.44,3.36c-.05-.82-.33-1.57-.78-2.22,1.99-.43,3.82-1.36,5.61-2.29Z"/>
      <path class="cls-1" d="M50.09,44.53c-2.57,1.29-4.79,3.14-6.6,5.54l1.04.72c1.97.41,4.19,1.25,5.88,3.31l.39-.25c1.33-1.35,2.81-2.2,4.24-2.72l1.64-1.06c-1.81-2.4-4.02-4.25-6.6-5.54Z"/>
      <path class="cls-1" d="M65.3,59.53c-1.84-2.73-5.55-3.45-8.28-1.61-2.73,1.84-3.45,5.55-1.61,8.28l2.39,3.55,9.89-6.67-2.39-3.55Z"/>
    </g>
  </g>
</svg>