<?xml version="1.0" encoding="UTF-8"?>
<svg id="Layer_2" data-name="Layer 2" xmlns="http://www.w3.org/2000/svg" viewBox="0 0 567.71 152.04">
  <defs>
    <style>
      .cls-1 {
        fill: #dfd2c0;
      }

      .cls-2 {
        fill: #f7e9d5;
      }

      .cls-3 {
        fill: none;
        stroke: #f7e9d5;
        stroke-linecap: round;
        stroke-miterlimit: 10;
        stroke-width: 2.45px;
      }
    </style>
  </defs>
  <g id="Layer_1-2" data-name="Layer 1">
    <g>
      <g>
        <path class="cls-1" d="M245.32,38.88c-.79.73-1.18,1.94-.95,2.94.14.6.56,1.4,1.77,1.77.99.3,2.13.06,2.96-.63,1.39-1.16,1.77-2.89,1.62-4.57-.42-.19-.84-.33-1.26-.43-1.56-.35-3.15,0-4.14.92Z"/>
        <path class="cls-1" d="M275.35,42.97c.83.69,1.97.93,2.96.63,1.21-.37,1.63-1.17,1.77-1.77.23-1.01-.16-2.22-.95-2.94-.99-.92-2.58-1.27-4.14-.92-.42.09-.84.24-1.26.43-.15,1.68.23,3.42,1.62,4.57Z"/>
        <path class="cls-1" d="M218.18,120.44c-.93,1.37-1.26,3.01-.93,4.63.33,1.61,1.28,3.01,2.67,3.93,2.87,1.89,6.77,1.13,8.68-1.69l23.35-34.45-10.34-6.97-23.42,34.56Z"/>
        <path class="cls-1" d="M309.62,32.81c.55-1.51.5-3.17-.18-4.6-.29-.6-.62-1.16-.97-1.7-.02.68-.16,1.37-.42,2.04.04.07.08.14.11.21.57,1.21.6,2.57.09,3.79-.52,1.24-1.52,2.2-2.77,2.64-1.22.43-2.35.56-3.44.49l-2.44,3.36c-.01.19-.02.37,0,.56.13,1.6,1.12,2.92,2.47,3.56,1.23-.86,2-2.31,1.87-3.91-.07-.83-.37-1.57-.83-2.2.91-.05,1.85-.21,2.84-.56.74-.26,1.4-.69,1.97-1.2.07.43.18.86.4,1.27.7,1.3,2.02,2.04,3.39,2.09.72-1.17.83-2.68.13-3.98-.49-.92-1.31-1.55-2.23-1.86Z"/>
        <path class="cls-1" d="M294.97,29.22c-.4-1.56-1.59-2.69-3.03-3.1-1.07,1.05-1.58,2.61-1.19,4.17.09.36.23.69.4,1.01-1.76-.73-3.57-1.36-5.41-1.86-.96-.26-1.97-.49-3-.58.24-1.19,0-2.46-.79-3.5-.98-1.27-2.53-1.84-4.01-1.65-.57,1.39-.42,3.02.56,4.3.35.45.77.81,1.23,1.08-1.71.47-3.31,1.5-4.59,2.93-.81-1.1-2.09-1.82-3.56-1.79-1.61.04-2.97.95-3.7,2.26.78,1.28,2.19,2.13,3.8,2.09.76-.02,1.45-.24,2.06-.6-.3.53-.58,1.08-.79,1.67-.21.57-.38,1.19-.49,1.82-.82.46-1.64,1.06-2.45,1.8-.24.22-.47.45-.71.68-.32.31-.64.62-.98.91-.3.25-.32.69-.07.98.25.29.69.32.98.07.35-.31.69-.64,1.03-.96.23-.22.45-.44.68-.65.45-.42.91-.79,1.36-1.1.02,1.67.55,3.32,1.87,4.57-.36.09-.71.23-1.03.44-1.1.72-1.65,1.94-1.59,3.16,1.09.55,2.43.53,3.53-.19.79-.52,1.29-1.31,1.49-2.16.71.13,1.44.11,2.13-.1,1.44-.44,2.41-1.43,2.72-2.79.34-1.49-.21-3.21-1.36-4.27-1.32-1.22-3.39-1.7-5.39-1.25-.22.05-.43.11-.65.18.06-.22.14-.44.21-.65,1.21-3.29,4.03-5.67,7-5.92,1.38-.11,2.8.2,4.12.56.29.08.58.18.87.26-.96-.01-1.93.28-2.71.95-1.15.99-1.61,2.48-1.35,3.87,1.34.46,2.88.24,4.03-.75,1.1-.94,1.55-2.33,1.37-3.67,2.02.67,3.99,1.47,5.88,2.42l.88-1.21c.65-.98.93-2.2.62-3.44ZM274.99,37.97c1.56-.35,3.15,0,4.14.92.79.73,1.18,1.94.95,2.94-.14.6-.56,1.4-1.77,1.77-.99.3-2.13.06-2.96-.63-1.39-1.16-1.77-2.89-1.62-4.57.42-.19.84-.33,1.26-.43Z"/>
        <path class="cls-1" d="M282.85,85.88l-10.34,6.97,23.35,34.45c1.91,2.82,5.81,3.58,8.68,1.69,1.39-.92,2.34-2.31,2.67-3.93.33-1.62,0-3.26-.93-4.63l-23.42-34.56Z"/>
        <path class="cls-1" d="M236.85,31.45c-.18,1.33.28,2.73,1.37,3.67,1.15.99,2.69,1.21,4.03.75.26-1.39-.2-2.88-1.35-3.87-.79-.67-1.75-.97-2.71-.95.29-.09.58-.18.87-.26,1.33-.36,2.74-.68,4.12-.56,2.98.25,5.79,2.63,7,5.92.08.21.15.43.21.65-.22-.07-.43-.13-.65-.18-2-.45-4.07.03-5.39,1.25-1.16,1.07-1.7,2.78-1.36,4.27.31,1.36,1.27,2.35,2.72,2.79.69.21,1.42.23,2.13.1.2.86.7,1.64,1.49,2.16,1.1.72,2.44.74,3.53.19.06-1.22-.49-2.44-1.59-3.16-.33-.21-.68-.35-1.03-.44,1.32-1.25,1.85-2.91,1.87-4.57.45.31.91.68,1.36,1.1.23.21.46.43.68.65.34.33.68.66,1.03.96.29.25.73.22.98-.07.25-.29.24-.72-.07-.98-.33-.29-.66-.6-.98-.91-.23-.23-.47-.46-.71-.67-.81-.74-1.62-1.34-2.45-1.8-.11-.64-.28-1.25-.49-1.82-.22-.59-.49-1.14-.79-1.67.61.36,1.3.58,2.06.6,1.61.04,3.02-.81,3.8-2.09-.72-1.31-2.09-2.23-3.7-2.26-1.47-.03-2.75.69-3.56,1.79-1.28-1.43-2.88-2.46-4.59-2.93.46-.27.88-.63,1.23-1.08.98-1.27,1.13-2.91.56-4.3-1.49-.19-3.03.37-4.01,1.65-.8,1.04-1.04,2.31-.79,3.5-1.04.09-2.05.32-3,.58-1.84.5-3.65,1.13-5.41,1.86.17-.31.31-.64.4-1.01.4-1.56-.11-3.12-1.19-4.17-1.44.41-2.64,1.54-3.03,3.1-.31,1.23-.04,2.45.62,3.44l.88,1.21c1.9-.95,3.87-1.75,5.88-2.42ZM250.72,38.39c.15,1.68-.23,3.42-1.62,4.57-.83.69-1.97.93-2.96.63-1.21-.37-1.63-1.17-1.77-1.77-.23-1.01.16-2.22.95-2.94.99-.92,2.58-1.27,4.14-.92.42.09.84.24,1.26.43Z"/>
        <path class="cls-1" d="M218.96,35.18c-1.24-.44-2.25-1.4-2.77-2.64-.51-1.21-.48-2.58.09-3.79.04-.07.08-.14.11-.21-.26-.67-.4-1.36-.42-2.04-.35.54-.68,1.1-.97,1.7-.68,1.43-.73,3.09-.18,4.6-.92.31-1.73.94-2.23,1.86-.7,1.3-.59,2.81.13,3.98,1.38-.05,2.69-.79,3.39-2.09.22-.41.33-.84.4-1.27.58.51,1.23.94,1.97,1.2,1,.35,1.94.51,2.84.56-.46.62-.76,1.37-.83,2.2-.13,1.6.64,3.06,1.87,3.91,1.35-.65,2.34-1.96,2.47-3.56.02-.19,0-.38,0-.56l-2.44-3.36c-1.09.07-2.22-.06-3.44-.49Z"/>
        <path class="cls-1" d="M294.77,34.52c-.43-.22-.85-.44-1.27-.65,0,0-.01,0-.02,0l-18.09,24.89h0s0,0,0,0l-.63.86c-.66.91-1.73,1.46-2.88,1.46-2.65,0-5.15.42-7.43,1.22h0c-.77.27-1.51.59-2.22.95,2.57,1.29,4.79,3.14,6.6,5.54l-1.64,1.06c1.04-.38,2.05-.59,2.93-.7h0s0,0,0,0c2.19-.26,3.97.04,4.48.14.02,0,.03,0,.05.01,1.54.36,3.13-.23,4.05-1.51l1.05-1.44h0s19.86-27.33,19.86-27.33c.05-.82.33-1.57.78-2.22-1.99-.43-3.82-1.36-5.61-2.29Z"/>
        <path class="cls-1" d="M295.41,33.29c2.19,1.14,4.3,2.23,6.64,2.38l3.53-4.85c2.72-3.74,2.17-8.93-1.09-12.09l-10.13,13.94s-.03.05-.05.07c.37.18.73.37,1.1.56Z"/>
        <path class="cls-1" d="M256.67,69.51l5.55,3.84c.23-.28.47-.53.72-.78l-.39.25c-1.69-2.06-3.91-2.9-5.88-3.31Z"/>
        <path class="cls-1" d="M295.41,33.29c-.37-.19-.73-.38-1.1-.56.02-.02.03-.05.05-.07l-.88,1.21s.01,0,.02,0c.42.21.85.43,1.27.65,1.79.93,3.62,1.86,5.61,2.29-.45.64-.73,1.4-.78,2.22l2.44-3.36c-2.34-.15-4.45-1.24-6.64-2.38Z"/>
        <path class="cls-1" d="M255.3,76.65c-2.73-1.84-6.44-1.12-8.28,1.61l-2.39,3.55,9.89,6.67,2.39-3.55c1.84-2.73,1.12-6.44-1.61-8.28Z"/>
        <path class="cls-1" d="M262.22,63.25c-.71-.36-1.45-.68-2.22-.95h0c-2.28-.81-4.78-1.22-7.43-1.22-1.15,0-2.22-.54-2.88-1.46l-.63-.86h0s-18.09-24.89-18.09-24.89c0,0-.01,0-.02,0-.42.21-.85.43-1.27.65-1.79.93-3.62,1.85-5.61,2.29.45.65.73,1.4.78,2.22l19.86,27.33h0s1.05,1.44,1.05,1.44c.92,1.27,2.51,1.87,4.05,1.51.02,0,.03,0,.05-.01.51-.1,2.28-.4,4.48-.14,0,0,0,0,0,0h0c.69.09,1.49.19,2.33.36l-1.04-.72c1.81-2.4,4.02-4.25,6.6-5.54Z"/>
        <path class="cls-1" d="M230.14,32.73s-.03-.05-.05-.07l-10.13-13.93c-3.26,3.16-3.81,8.35-1.09,12.09l3.53,4.85c2.34-.15,4.45-1.24,6.64-2.38.37-.19.73-.38,1.1-.56Z"/>
        <path class="cls-1" d="M262.94,72.57l4.24-2.72c-1.43.52-2.91,1.38-4.24,2.72Z"/>
        <path class="cls-1" d="M229.68,34.53c.42-.22.85-.44,1.27-.65,0,0,.01,0,.02,0l-.88-1.21s.03.05.05.07c-.37.18-.73.37-1.1.56-2.19,1.13-4.3,2.22-6.64,2.38l2.44,3.36c-.05-.82-.33-1.57-.78-2.22,1.99-.43,3.82-1.36,5.61-2.29Z"/>
        <path class="cls-1" d="M262.22,63.25c-2.57,1.29-4.79,3.14-6.6,5.54l1.04.72c1.97.41,4.19,1.25,5.88,3.31l.39-.25c1.33-1.35,2.81-2.2,4.24-2.72l1.64-1.06c-1.81-2.4-4.02-4.25-6.6-5.54Z"/>
        <path class="cls-1" d="M277.43,78.26c-1.84-2.73-5.55-3.45-8.28-1.61-2.73,1.84-3.45,5.55-1.61,8.28l2.39,3.55,9.89-6.67-2.39-3.55Z"/>
      </g>
      <path class="cls-1" d="M547.68,1.63c10.14,0,18.4,8.25,18.4,18.4v111.98c0,10.14-8.25,18.4-18.4,18.4H20.03c-10.14,0-18.4-8.25-18.4-18.4V20.03C1.63,9.89,9.89,1.63,20.03,1.63h527.65M547.68,0H20.03C8.97,0,0,8.97,0,20.03v111.98c0,11.06,8.97,20.03,20.03,20.03h527.65c11.06,0,20.03-8.97,20.03-20.03V20.03c0-11.06-8.97-20.03-20.03-20.03h0Z"/>
      <g>
        <path class="cls-1" d="M440.84,51.08h0c-.85-.34-1.72-.64-2.61-.89h0c.89.25,1.76.55,2.61.89Z"/>
        <path class="cls-1" d="M411.02,90.99c.21.27.43.54.66.8h0c-.23-.26-.44-.53-.66-.8Z"/>
        <path class="cls-1" d="M424.37,50.17h0c-1.39.39-2.74.88-4.03,1.49h0c1.29-.6,2.63-1.1,4.03-1.49Z"/>
        <path class="cls-1" d="M451.92,90.45c.58-.77,1.1-1.58,1.59-2.41h0c-.49.83-1.02,1.64-1.59,2.41Z"/>
        <path class="cls-1" d="M438.15,99.87h0c1.38-.38,2.71-.87,3.99-1.47h0c-1.28.6-2.61,1.09-3.99,1.47Z"/>
        <path class="cls-1" d="M451.92,90.45c-.49.66-1.02,1.3-1.58,1.91.55-.61,1.08-1.25,1.58-1.91Z"/>
        <path class="cls-1" d="M421.68,98.96h0c.85.34,1.72.64,2.61.88h0c-.89-.25-1.76-.55-2.61-.88Z"/>
        <path class="cls-1" d="M457.05,75.02c0,.9-.05,1.79-.14,2.67h0c.09-.88.14-1.77.14-2.67,0-.62-.03-1.22-.07-1.83h0c.04.6.07,1.21.07,1.83Z"/>
        <path class="cls-1" d="M425.65,100.19h0c1.81.4,3.68.62,5.61.62s3.75-.21,5.53-.6h0c-1.78.39-3.63.6-5.53.6s-3.8-.22-5.61-.62Z"/>
        <path class="cls-1" d="M425.02,101.84c-1.06,3.12-1.62,6.42-1.63,9.78-.01,7.54,2.74,14.75,7.77,20.4,5.05-5.63,7.82-12.84,7.84-20.38,0-3.37-.54-6.66-1.6-9.79-1.98.45-4.03.7-6.15.7s-4.23-.25-6.23-.72Z"/>
        <path class="cls-1" d="M424.29,99.85h0c.22.06.45.13.67.18h0c-.23-.06-.45-.12-.67-.18Z"/>
        <path class="cls-1" d="M439.69,111.65c-.01,8.29-3.27,15.8-8.53,21.4-5.24-5.62-8.47-13.14-8.46-21.43h0,0c0-3.48.59-6.82,1.64-9.94-.22-.06-.44-.13-.67-.19-1.09,3.23-1.66,6.65-1.67,10.13-.01,8.13,3.06,15.91,8.64,21.9l.5.54.5-.54c5.61-5.96,8.7-13.73,8.72-21.87,0-3.48-.56-6.9-1.64-10.13-.22.06-.44.13-.67.19,1.05,3.12,1.62,6.47,1.61,9.95Z"/>
        <path class="cls-1" d="M437.47,100.05h0c.23-.06.45-.12.67-.18h0c-.22.06-.45.12-.67.18Z"/>
        <path class="cls-1" d="M436.79,100.21h0c.23-.05.46-.1.69-.16h0c-.23.06-.46.11-.69.16Z"/>
        <path class="cls-1" d="M439,111.65c-.01,7.54-2.79,14.75-7.84,20.38-5.03-5.65-7.78-12.87-7.77-20.4h-.69c-.01,8.29,3.21,15.81,8.46,21.42,5.26-5.6,8.51-13.11,8.53-21.4,0-3.48-.57-6.82-1.61-9.95-.22.06-.45.1-.67.16,1.05,3.13,1.6,6.42,1.6,9.79Z"/>
        <path class="cls-1" d="M425.65,100.19c-.23-.05-.46-.1-.69-.16h0c.23.06.46.11.69.16h0Z"/>
        <path class="cls-1" d="M425.02,101.84c-.22-.05-.45-.1-.67-.16-1.06,3.12-1.64,6.46-1.64,9.94h.69c0-3.36.57-6.66,1.63-9.78Z"/>
        <path class="cls-1" d="M436.87,49.85h0c-1.81-.4-3.68-.62-5.61-.62s-3.75.21-5.53.6h0c1.78-.39,3.63-.6,5.53-.6s3.8.22,5.61.62Z"/>
        <path class="cls-1" d="M437.49,48.19c1.06-3.12,1.62-6.42,1.63-9.78h0c.01-7.54-2.74-14.75-7.77-20.4-5.05,5.63-7.82,12.84-7.84,20.38,0,3.36.54,6.66,1.6,9.79,1.98-.45,4.03-.7,6.15-.7s4.23.25,6.23.72Z"/>
        <path class="cls-1" d="M425.04,49.99h0c-.23.06-.45.12-.67.18h0c.22-.06.45-.12.67-.18Z"/>
        <path class="cls-1" d="M438.23,50.19h0c-.22-.06-.45-.13-.67-.18h0c.23.06.45.12.67.18Z"/>
        <path class="cls-1" d="M422.82,38.38c.01-8.29,3.27-15.8,8.53-21.4,5.24,5.62,8.47,13.14,8.46,21.43,0,3.48-.59,6.82-1.64,9.94.22.06.44.13.67.19,1.09-3.23,1.66-6.65,1.67-10.13.01-8.14-3.05-15.91-8.64-21.9l-.5-.54-.5.54c-5.61,5.96-8.7,13.73-8.72,21.87,0,3.48.56,6.9,1.64,10.13.22-.06.44-.13.67-.19-1.05-3.12-1.62-6.47-1.61-9.95Z"/>
        <path class="cls-1" d="M425.73,49.83h0c-.23.05-.46.1-.69.16h0c.23-.06.46-.11.69-.16Z"/>
        <path class="cls-1" d="M436.87,49.85c.23.05.46.1.69.16h0c-.23-.06-.46-.11-.69-.16h0Z"/>
        <path class="cls-1" d="M423.52,38.39c.01-7.54,2.79-14.74,7.84-20.38,5.03,5.65,7.78,12.87,7.77,20.4h0c0,3.37-.56,6.66-1.63,9.78.23.05.45.1.67.16,1.06-3.12,1.64-6.46,1.64-9.94.01-8.29-3.21-15.81-8.46-21.43-5.26,5.6-8.51,13.11-8.53,21.4,0,3.48.57,6.82,1.61,9.95.22-.06.45-.1.67-.16-1.05-3.12-1.6-6.42-1.6-9.79Z"/>
        <path class="cls-1" d="M443.01,52.07c.34.17.67.35,1,.54-.33-.19-.66-.37-1-.54Z"/>
        <path class="cls-1" d="M451.28,56.13c.28-.23.55-.46.84-.71,5.05-4.33,10.27-9.76,11.98-12.1,3.09-4.24,2.68-9.83-.91-12.45-1.22-.89-2.69-1.35-4.25-1.35-.64,0-1.29.08-1.95.23-2.31.55-4.42,1.99-5.93,4.06-1.71,2.35-5.28,8.98-7.86,15.11-.16.37-.3.72-.44,1.08,3.23,1.49,6.12,3.58,8.53,6.14Z"/>
        <path class="cls-1" d="M450.5,33.41c3.32-4.56,9.19-5.94,13.1-3.09,3.91,2.85,4.39,8.85,1.07,13.41-1.75,2.4-7.38,8.28-12.9,12.91.15.17.3.35.45.52.27-.23.53-.45.82-.69,5.12-4.4,10.44-9.93,12.19-12.34,3.54-4.86,2.99-11.31-1.22-14.38-2.06-1.5-4.66-1.98-7.33-1.35-2.63.62-5.02,2.25-6.73,4.59-1.76,2.41-5.4,9.16-8.02,15.38-.15.37-.3.72-.44,1.07.21.09.43.17.64.26,2.72-6.69,6.62-13.9,8.38-16.3Z"/>
        <path class="cls-1" d="M441.48,51.34h0c-.21-.09-.43-.18-.64-.26h0c.21.09.43.17.64.26Z"/>
        <path class="cls-1" d="M441.92,51.54c-.15-.07-.29-.14-.44-.2h0c.15.06.3.13.44.2Z"/>
        <path class="cls-1" d="M443.2,48.92c2.58-6.13,6.15-12.76,7.86-15.11,1.51-2.07,3.61-3.51,5.93-4.06.66-.16,1.32-.23,1.95-.23,1.56,0,3.03.46,4.25,1.35,3.6,2.62,4.01,8.21.91,12.45-1.71,2.35-6.93,7.77-11.98,12.1-.29.25-.56.48-.84.71.16.17.32.34.47.51,5.52-4.63,11.16-10.52,12.9-12.91,3.32-4.56,2.84-10.56-1.07-13.41-3.91-2.85-9.77-1.47-13.1,3.09-1.75,2.4-5.66,9.61-8.38,16.3.21.09.42.19.63.29.14-.35.29-.71.44-1.08Z"/>
        <path class="cls-1" d="M420.41,98.41h0c-2.38-1.11-4.57-2.56-6.49-4.31,1.92,1.75,4.11,3.2,6.49,4.31Z"/>
        <path class="cls-1" d="M411.23,93.9c-5.18,4.32-10.65,9.85-12.81,12.82-3.09,4.24-2.68,9.82.91,12.45,1.72,1.26,3.92,1.66,6.2,1.12,2.31-.55,4.42-1.99,5.93-4.06,1.71-2.35,5.28-8.97,7.86-15.11.16-.37.3-.72.44-1.08-3.23-1.49-6.13-3.59-8.54-6.15Z"/>
        <path class="cls-1" d="M421.04,98.7h0c.21.09.43.18.64.26h0c-.21-.09-.43-.17-.64-.26Z"/>
        <path class="cls-1" d="M412.02,116.63c-3.32,4.56-9.18,5.94-13.1,3.09-3.91-2.85-4.39-8.85-1.07-13.41,1.75-2.4,7.38-8.28,12.9-12.91-.15-.16-.29-.33-.43-.5-5.9,4.95-11.75,11.24-13.03,13-3.54,4.86-2.99,11.31,1.22,14.38,1.47,1.07,3.21,1.62,5.06,1.62.75,0,1.51-.09,2.28-.27,2.63-.62,5.02-2.25,6.73-4.59,1.76-2.41,5.4-9.17,8.02-15.38.15-.37.3-.72.44-1.07-.21-.09-.43-.17-.64-.26-2.72,6.69-6.62,13.9-8.38,16.31Z"/>
        <path class="cls-1" d="M411.68,91.79h0c.14.17.28.33.43.5h0c-.15-.16-.29-.33-.43-.5Z"/>
        <path class="cls-1" d="M412.11,92.29h0s.04.05.06.07c-.02-.02-.04-.05-.06-.07Z"/>
        <path class="cls-1" d="M419.32,101.12c-2.58,6.13-6.15,12.76-7.86,15.11-1.51,2.07-3.61,3.51-5.93,4.06-2.28.54-4.48.14-6.2-1.12-3.6-2.62-4.01-8.2-.91-12.45,2.16-2.97,7.63-8.5,12.81-12.82-.16-.17-.31-.33-.46-.5-5.52,4.63-11.16,10.52-12.9,12.91-3.32,4.56-2.84,10.56,1.07,13.41,3.91,2.85,9.77,1.47,13.1-3.09,1.75-2.41,5.66-9.61,8.38-16.31-.21-.09-.42-.19-.63-.29-.14.35-.29.71-.44,1.08Z"/>
        <path class="cls-1" d="M420.41,98.41h0c.21.1.42.19.63.28h0c-.21-.09-.42-.19-.63-.28Z"/>
        <path class="cls-1" d="M456.84,71.79h0c-.33-2.62-1.05-5.12-2.1-7.44,1.05,2.32,1.77,4.82,2.1,7.44Z"/>
        <path class="cls-1" d="M454.21,63.27c-.16-.32-.34-.64-.51-.95h0c.18.31.35.63.51.95Z"/>
        <path class="cls-1" d="M481.6,67.49c3.88-1.25,4.06-1.91,4.07-1.98.03-.3-1.42-1.16-2.11-1.57-1.8-1.06-4.04-2.39-4.72-4.51-.68-2.12.36-4.5,1.2-6.42.32-.74,1-2.28.79-2.51-.05-.05-.57-.47-4.46.78-6.15,1.99-14.76,6.11-21.19,10.1,1.78,3.11,2.97,6.6,3.42,10.31,7.54-.53,16.87-2.22,23-4.2Z"/>
        <path class="cls-1" d="M456.97,73.19h0c-.02-.23-.03-.47-.05-.7h0c.02.23.04.47.05.7Z"/>
        <path class="cls-1" d="M484.26,62.75c-1.6-.94-3.59-2.12-4.11-3.74-.52-1.62.4-3.74,1.15-5.44.76-1.73,1.36-3.1.55-3.99-.76-.84-2.42-.73-5.91.39-5.44,1.76-14.55,5.88-21.49,10.21.13.2.26.39.38.59,6.68-4.15,15.52-8.27,21.33-10.15,10.77-3.48,1.78,3.76,3.34,8.6,1.56,4.84,13.09,5.44,2.32,8.92-5.78,1.87-15.3,3.7-23.13,4.25.02.23.04.47.05.7,8.14-.56,17.88-2.54,23.29-4.29,3.49-1.13,4.89-2.01,5.02-3.14.13-1.19-1.15-1.95-2.78-2.91Z"/>
        <path class="cls-1" d="M453.7,62.32s-.02-.03-.03-.05c0,.02.02.03.03.05h0Z"/>
        <path class="cls-1" d="M456.84,71.79c.03.23.06.46.08.7h0c-.02-.23-.05-.46-.08-.7h0Z"/>
        <path class="cls-1" d="M476.36,51.28c3.89-1.25,4.41-.83,4.46-.78.2.23-.47,1.77-.79,2.51-.84,1.92-1.88,4.3-1.2,6.42.69,2.12,2.92,3.44,4.72,4.51.7.41,2.15,1.27,2.11,1.57,0,.07-.19.72-4.07,1.98-6.13,1.98-15.47,3.67-23,4.2.03.23.06.46.08.7,7.83-.55,17.35-2.38,23.13-4.25,10.77-3.48-.76-4.09-2.32-8.92-1.56-4.84,7.43-12.07-3.34-8.6-5.8,1.88-14.65,5.99-21.33,10.15.12.2.23.41.35.61,6.43-3.99,15.04-8.11,21.19-10.1Z"/>
        <path class="cls-1" d="M402.28,78.47c-7.2.64-15.79,2.29-21.36,4.09-3.88,1.25-4.06,1.91-4.07,1.98-.03.3,1.42,1.16,2.11,1.57,1.8,1.06,4.04,2.39,4.72,4.51.68,2.12-.36,4.5-1.19,6.42-.32.74-1,2.28-.79,2.51.05.05.58.47,4.46-.78,6.15-1.99,14.76-6.11,21.19-10.1-1.78-3.11-2.97-6.6-3.42-10.32-.53.04-1.07.08-1.64.13Z"/>
        <path class="cls-1" d="M386.37,99.42c-10.77,3.48-1.78-3.76-3.34-8.6-1.56-4.84-13.09-5.44-2.32-8.92,5.78-1.87,15.3-3.7,23.13-4.25-.02-.23-.04-.46-.05-.69-.53.04-1.07.08-1.63.13-7.3.65-16,2.32-21.66,4.15-3.49,1.13-4.89,2.01-5.02,3.14-.13,1.19,1.15,1.95,2.78,2.91,1.6.95,3.59,2.12,4.11,3.74.52,1.62-.4,3.74-1.15,5.44-.76,1.73-1.36,3.1-.55,3.99.33.37.84.55,1.59.55.97,0,2.35-.31,4.32-.95,5.44-1.76,14.55-5.88,21.5-10.21-.13-.2-.26-.39-.38-.59-6.68,4.15-15.52,8.27-21.33,10.15Z"/>
        <path class="cls-1" d="M386.15,98.76c-3.88,1.25-4.41.83-4.46.78-.21-.23.47-1.77.79-2.51.84-1.92,1.88-4.3,1.19-6.42-.69-2.12-2.92-3.44-4.72-4.51-.7-.41-2.15-1.27-2.11-1.57,0-.07.19-.72,4.07-1.98,5.57-1.8,14.16-3.44,21.36-4.09.57-.05,1.11-.09,1.64-.13-.03-.23-.06-.46-.08-.68-7.83.55-17.35,2.38-23.13,4.25-10.77,3.48.76,4.09,2.32,8.92,1.56,4.84-7.43,12.08,3.34,8.6,5.8-1.88,14.65-5.99,21.33-10.15-.12-.2-.23-.41-.35-.61-6.43,3.99-15.04,8.11-21.19,10.1Z"/>
        <path class="cls-1" d="M456.73,79.07h0c-.4,2.51-1.15,4.91-2.22,7.13,1.07-2.22,1.83-4.61,2.22-7.13Z"/>
        <path class="cls-1" d="M454.18,86.82h0c.11-.21.22-.41.32-.62-.1.21-.21.41-.32.62Z"/>
        <path class="cls-1" d="M462.17,92.64c3.73,2.72,8.9,3.83,12.88,2.77l7.81-2.09c.7-.19,1.17-.55,1.33-1.03.16-.48,0-1.06-.46-1.62l-5-6.21c-2.59-3.21-7.43-5.37-12.05-5.37h-8.19c-.46,3.12-1.46,6.08-2.89,8.78l6.56,4.78Z"/>
        <path class="cls-1" d="M466.69,78.39c4.81,0,9.88,2.27,12.58,5.63l5,6.21c1.25,1.56.71,3.24-1.23,3.76l-7.81,2.09c-4.16,1.11-9.59-.05-13.47-2.88l-6.49-4.73c-.11.2-.23.4-.35.6l6.43,4.68c3.02,2.2,6.92,3.42,10.52,3.42,1.23,0,2.43-.14,3.54-.44l7.81-2.09c1.17-.31,1.98-1,2.29-1.94.31-.94.06-1.97-.7-2.92l-5-6.21c-2.83-3.52-8.11-5.88-13.12-5.89h-8.03c-.02.22-.05.45-.08.68h8.1Z"/>
        <path class="cls-1" d="M456.82,78.38h0c.03-.23.06-.46.09-.69h0c-.02.23-.06.46-.09.69Z"/>
        <path class="cls-1" d="M453.51,88.04h0c.12-.2.23-.4.35-.6h0c-.11.2-.23.4-.35.6Z"/>
        <path class="cls-1" d="M454.18,86.82c-.11.21-.21.41-.32.62h0c.11-.2.22-.41.32-.62h0Z"/>
        <path class="cls-1" d="M466.69,79.08c4.62,0,9.46,2.16,12.05,5.37l5,6.21c.46.57.62,1.14.46,1.62-.16.48-.63.85-1.33,1.03l-7.81,2.09c-3.99,1.06-9.16-.05-12.88-2.77l-6.56-4.78c-.11.21-.22.41-.33.61l6.49,4.73c3.88,2.83,9.31,3.99,13.47,2.88l7.81-2.09c1.93-.52,2.48-2.2,1.23-3.76l-5-6.21c-2.71-3.36-7.78-5.63-12.58-5.63h-8.1c-.03.22-.05.45-.09.68h8.19Z"/>
        <path class="cls-1" d="M456.73,79.07h0c.04-.23.06-.46.09-.69h0c-.03.23-.06.46-.09.69Z"/>
        <path class="cls-1" d="M400.34,57.4c-2.78-2.03-6.38-3.16-9.68-3.16-1.12,0-2.2.13-3.2.4l-7.81,2.09c-.7.19-1.18.56-1.33,1.04-.16.48,0,1.05.46,1.62l5,6.21c2.59,3.21,7.43,5.37,12.05,5.38h8.19c.46-3.12,1.46-6.08,2.89-8.78l-6.56-4.78Z"/>
        <path class="cls-1" d="M395.82,71.65c-4.81,0-9.88-2.27-12.58-5.63l-5-6.21c-1.25-1.56-.71-3.24,1.23-3.76l7.81-2.09c4.16-1.11,9.59.05,13.47,2.88l6.48,4.72c.11-.2.23-.4.35-.6l-6.42-4.68c-4.05-2.95-9.7-4.15-14.05-2.98l-7.81,2.09c-1.17.31-1.98,1-2.29,1.94-.31.94-.06,1.97.7,2.91l5,6.21c2.83,3.52,8.11,5.89,13.12,5.89h8.02c.02-.22.05-.45.08-.68h-8.1Z"/>
        <path class="cls-1" d="M395.82,70.96c-4.62,0-9.46-2.17-12.05-5.38l-5-6.21c-.46-.56-.62-1.14-.46-1.62.16-.48.63-.85,1.33-1.04l7.81-2.09c1.01-.27,2.09-.4,3.2-.4,3.3,0,6.9,1.13,9.68,3.16l6.56,4.78c.11-.21.22-.41.33-.61l-6.48-4.72c-3.88-2.83-9.31-3.99-13.47-2.88l-7.81,2.09c-1.93.52-2.48,2.2-1.23,3.76l5,6.21c2.71,3.36,7.78,5.63,12.58,5.63h8.1c.03-.22.05-.45.09-.68h-8.19Z"/>
        <path class="cls-1" d="M416.65,43.56c-.22-3.17-.44-6.44-3.6-10.94-4.69-6.65-12.72-5.74-15.52-5.17-1.41,2.48-4.79,9.83.07,16.36,3.29,4.4,6.33,5.64,9.27,6.83,2.07.84,4.2,1.71,6.25,3.67,1.56-1.37,3.27-2.57,5.11-3.56-1.27-2.61-1.43-4.93-1.58-7.19Z"/>
        <path class="cls-1" d="M419.09,52.28c-1.72.92-3.31,2.03-4.77,3.3h0c1.46-1.27,3.05-2.38,4.77-3.3h0Z"/>
        <path class="cls-1" d="M420.34,51.66h0c-.21.1-.43.2-.64.31h0c.21-.11.42-.21.64-.31Z"/>
        <path class="cls-1" d="M397.05,44.23c-5.3-7.12-1.32-15.09.04-17.38h0c2.61-.58,11.42-1.87,16.53,5.39,5.57,7.94,2.32,12.24,5.23,18.21.21-.11.42-.21.63-.31-1.14-2.36-1.3-4.46-1.45-6.66-.22-3.2-.47-6.82-3.84-11.64-5.36-7.6-14.55-6.26-17.24-5.66l-.29.06-.15.26c-1.4,2.37-5.55,10.69,0,18.15,3.52,4.71,6.89,6.08,9.86,7.28,2,.81,3.91,1.59,5.76,3.33.17-.16.33-.32.5-.48-4.74-4.49-9.8-2.84-15.56-10.54Z"/>
        <path class="cls-1" d="M413.92,55.93c.13-.12.26-.23.4-.34h0c-.13.12-.27.23-.4.34Z"/>
        <path class="cls-1" d="M419.09,52.28c.2-.11.41-.21.62-.32h0c-.21.1-.41.21-.62.32h0Z"/>
        <path class="cls-1" d="M406.87,50.64c-2.94-1.19-5.98-2.43-9.27-6.83-4.86-6.53-1.48-13.88-.07-16.36,2.8-.57,10.84-1.48,15.52,5.17,3.16,4.5,3.38,7.77,3.6,10.94.15,2.26.32,4.58,1.58,7.19.2-.11.41-.21.61-.31-2.9-5.97.34-10.28-5.23-18.21-5.11-7.26-13.92-5.96-16.53-5.39h0c-1.36,2.3-5.34,10.26-.04,17.39,5.76,7.71,10.82,6.06,15.56,10.54.17-.16.34-.31.52-.46-2.06-1.96-4.18-2.83-6.25-3.67Z"/>
        <path class="cls-1" d="M443.39,97.77h0c.21-.11.41-.23.61-.34-.2.12-.41.23-.61.34Z"/>
        <path class="cls-1" d="M445.87,106.54c.22,3.16.44,6.44,3.6,10.94,4.69,6.65,12.73,5.73,15.52,5.17,1.41-2.48,4.79-9.83-.07-16.36-3.29-4.4-6.33-5.64-9.27-6.83-2.08-.84-4.22-1.72-6.29-3.7-1.56,1.36-3.27,2.55-5.1,3.54,1.29,2.63,1.46,4.97,1.61,7.25Z"/>
        <path class="cls-1" d="M448.17,94.48h0c-.48.42-.97.82-1.48,1.2.51-.38,1-.79,1.48-1.2Z"/>
        <path class="cls-1" d="M465.47,105.88c5.3,7.12,1.32,15.09-.04,17.38h0c-2.61.58-11.42,1.88-16.53-5.38-5.59-7.96-2.3-12.27-5.25-18.27-.21.11-.42.21-.63.31,1.16,2.38,1.32,4.5,1.48,6.71.22,3.2.47,6.82,3.85,11.64,3.55,5.04,8.79,6.15,12.7,6.15,1.99,0,3.63-.29,4.54-.49l.35-.15.1-.17c1.4-2.37,5.55-10.69,0-18.15-3.52-4.71-6.89-6.08-9.86-7.28-2.01-.82-3.93-1.6-5.79-3.36-.17.16-.33.32-.5.48,4.75,4.53,9.82,2.85,15.59,10.58Z"/>
        <path class="cls-1" d="M442.14,98.4h0c.21-.1.43-.2.64-.31h0c-.21.11-.42.21-.64.31Z"/>
        <path class="cls-1" d="M448.6,94.11c-.14.13-.29.25-.43.37h0c.14-.12.29-.25.43-.37Z"/>
        <path class="cls-1" d="M443.39,97.77c-.2.11-.41.21-.62.32h0c.21-.1.41-.21.62-.32h0Z"/>
        <path class="cls-1" d="M455.65,99.46c2.94,1.19,5.98,2.43,9.27,6.83,4.86,6.53,1.48,13.88.07,16.36-2.8.57-10.84,1.49-15.52-5.17-3.16-4.5-3.38-7.77-3.6-10.94-.16-2.28-.32-4.61-1.61-7.25-.2.11-.41.21-.61.31,2.95,6-.33,10.31,5.25,18.27,5.11,7.26,13.92,5.96,16.53,5.38h0c1.36-2.3,5.34-10.26.04-17.39-5.77-7.73-10.85-6.05-15.59-10.58-.17.16-.34.31-.52.46,2.07,1.99,4.21,2.86,6.29,3.7Z"/>
        <path class="cls-1" d="M415.13,87.06c.37.49.75.96,1.16,1.41h0c-.41-.45-.8-.92-1.16-1.41Z"/>
        <path class="cls-1" d="M453.06,73.23c.05.59.08,1.19.08,1.79,0,.9-.06,1.79-.17,2.67h3.94c.09-.87.14-1.77.14-2.67,0-.62-.03-1.22-.07-1.83-.84.04-1.67.06-2.46.06-.5,0-.99-.01-1.46-.03Z"/>
        <path class="cls-1" d="M439.56,54.78c.33-1.08.75-2.31,1.28-3.7-.85-.34-1.72-.64-2.61-.89-.49,1.23-1.07,2.43-1.71,3.59,1.04.26,2.06.59,3.04,1Z"/>
        <path class="cls-1" d="M449.78,63.39c.96-.75,2.04-1.51,3.19-2.27-.11-.17-.22-.35-.33-.52-.55-.81-1.15-1.59-1.78-2.33-1.16.93-2.2,1.71-3.13,2.36.75.86,1.44,1.78,2.05,2.76Z"/>
        <path class="cls-1" d="M409.46,76.81c-.05-.59-.08-1.18-.08-1.79,0-.9.06-1.79.17-2.66h-3.94c-.09.87-.14,1.76-.14,2.66,0,.62.03,1.23.07,1.84,1.43-.07,2.73-.08,3.91-.05Z"/>
        <path class="cls-1" d="M450.33,85.72c-.99,1.76-2.22,3.37-3.64,4.79.65.7,1.34,1.51,2.07,2.49.14.19.28.37.42.54.4-.38.79-.78,1.16-1.19.55-.61,1.08-1.25,1.58-1.91.58-.77,1.1-1.58,1.59-2.41l-3.18-2.32Z"/>
        <path class="cls-1" d="M445.46,89.27s.02-.02.03-.03c0,0-.02.02-.03.03h0Z"/>
        <path class="cls-1" d="M425.19,55.84c-.37.12-.73.24-1.08.38.36-.14.72-.26,1.08-.38Z"/>
        <path class="cls-1" d="M412.17,64.31c.98-1.75,2.2-3.35,3.6-4.76-.63-.69-1.3-1.5-2.02-2.45-.15-.2-.3-.39-.45-.58-.68.66-1.33,1.36-1.94,2.09-.87,1.06-1.66,2.19-2.36,3.38l3.17,2.31Z"/>
        <path class="cls-1" d="M445.49,89.25c1.35-1.35,2.5-2.88,3.42-4.56h0c-.92,1.68-2.08,3.22-3.42,4.56Z"/>
        <path class="cls-1" d="M422.96,95.26c-.33,1.08-.75,2.31-1.28,3.7.85.34,1.72.64,2.61.88.49-1.23,1.07-2.43,1.71-3.59-1.04-.26-2.06-.59-3.04-.99Z"/>
        <path class="cls-1" d="M447.71,63.45c.18.25.35.51.52.78-.17-.26-.34-.52-.52-.78Z"/>
        <path class="cls-1" d="M451.38,75.02c0,.9-.07,1.79-.18,2.67h0c.12-.87.18-1.76.18-2.67,0-.64-.03-1.27-.09-1.9h0c.06.63.09,1.26.09,1.9Z"/>
        <path class="cls-1" d="M440.06,95.04c-1.16.51-2.36.92-3.61,1.23.64,1.17,1.21,2.36,1.7,3.6,1.38-.38,2.71-.87,3.99-1.47-.09-.14-.16-.27-.26-.41-.76-1.08-1.34-2.06-1.82-2.95Z"/>
        <path class="cls-1" d="M414.82,89.44c-.77-.87-1.46-1.81-2.09-2.79-.96.75-2.04,1.51-3.19,2.27.46.72.95,1.41,1.48,2.07.21.27.43.54.66.8,1.07-.86,2.12-1.65,3.14-2.35Z"/>
        <path class="cls-1" d="M439.31,93.46h0c-1.21.53-2.47.94-3.79,1.22h0c1.31-.28,2.58-.7,3.79-1.22Z"/>
        <path class="cls-1" d="M426.93,94.67h0c-1.21-.26-2.38-.63-3.49-1.11h0c1.12.47,2.29.84,3.5,1.11Z"/>
        <path class="cls-1" d="M422.41,55c1.17-.51,2.38-.93,3.65-1.24-.64-1.16-1.21-2.36-1.69-3.59-1.39.39-2.74.88-4.03,1.49.1.15.18.3.29.46.74,1.05,1.31,2,1.78,2.88Z"/>
        <path class="cls-1" d="M431.26,95.14c-.97,0-1.92-.07-2.85-.2h0c.93.13,1.88.2,2.85.2s1.88-.07,2.79-.2h0c-.91.13-1.84.2-2.79.2Z"/>
        <path class="cls-1" d="M431.26,96.9c-1.31,0-2.59-.12-3.84-.34-.67,1.17-1.26,2.39-1.77,3.63,1.81.4,3.68.62,5.61.62s3.75-.21,5.53-.6c-.5-1.25-1.09-2.46-1.75-3.64-1.23.21-2.49.33-3.78.33Z"/>
        <path class="cls-1" d="M435.75,96.43c.65,1.16,1.23,2.37,1.73,3.61.23-.06.45-.12.67-.18-.49-1.23-1.06-2.43-1.7-3.6-.23.06-.46.11-.7.16Z"/>
        <path class="cls-1" d="M427.66,94.81h0c-.24-.04-.49-.09-.73-.14h0c.24.05.48.1.73.14Z"/>
        <path class="cls-1" d="M434.8,94.82c.24-.04.49-.09.73-.14h0c-.24.05-.48.1-.73.14h0Z"/>
        <path class="cls-1" d="M426,96.26c-.64,1.16-1.22,2.36-1.71,3.59.22.06.45.13.67.18.5-1.25,1.09-2.45,1.74-3.61-.24-.05-.47-.1-.7-.16Z"/>
        <path class="cls-1" d="M435.03,96.57c.67,1.18,1.25,2.39,1.75,3.64.23-.05.46-.1.69-.16-.5-1.25-1.08-2.45-1.73-3.61-.24.05-.48.09-.72.13Z"/>
        <path class="cls-1" d="M426.7,96.42c-.65,1.16-1.24,2.36-1.74,3.61.23.06.46.11.69.16.51-1.25,1.1-2.46,1.77-3.63-.24-.04-.48-.09-.72-.14Z"/>
        <path class="cls-1" d="M434.05,94.94h0c.25-.03.5-.08.75-.12h0c-.25.04-.5.08-.75.12Z"/>
        <path class="cls-1" d="M427.66,94.81h0c.25.05.5.09.75.12h0c-.25-.04-.5-.08-.75-.12Z"/>
        <path class="cls-1" d="M430.26,53.16c.33-.02.67-.02,1-.02,1.31,0,2.59.12,3.84.35.67-1.17,1.26-2.39,1.77-3.63-1.81-.4-3.68-.62-5.61-.62s-3.75.21-5.53.6c.5,1.25,1.09,2.46,1.75,3.64.91-.16,1.83-.26,2.77-.31Z"/>
        <path class="cls-1" d="M426.77,53.6c-.65-1.16-1.23-2.37-1.72-3.61-.23.06-.45.12-.67.18.49,1.23,1.06,2.42,1.69,3.59.23-.06.47-.11.7-.15Z"/>
        <path class="cls-1" d="M436.52,53.78c.64-1.16,1.22-2.36,1.71-3.59-.22-.06-.45-.13-.67-.18-.5,1.25-1.09,2.45-1.74,3.61.24.05.47.1.7.16Z"/>
        <path class="cls-1" d="M427.48,53.47c-.67-1.17-1.25-2.39-1.75-3.64-.23.05-.46.1-.69.16.5,1.25,1.08,2.45,1.72,3.61.24-.05.48-.09.72-.13Z"/>
        <path class="cls-1" d="M435.82,53.62c.65-1.16,1.24-2.36,1.74-3.61-.23-.06-.46-.11-.69-.16-.51,1.25-1.1,2.46-1.77,3.63.24.04.48.09.72.14Z"/>
        <path class="cls-1" d="M445.68,53.64c-.54-.37-1.1-.7-1.67-1.03-.33-.19-.66-.37-1-.54-.3-.15-.59-.3-.9-.44-.53,1.39-.95,2.63-1.28,3.72,2.21,1.08,4.22,2.53,5.94,4.26.94-.65,1.99-1.43,3.16-2.36-1.28-1.35-2.71-2.56-4.25-3.61Z"/>
        <path class="cls-1" d="M447.73,60.64c.93-.65,1.97-1.43,3.13-2.36-.15-.18-.3-.35-.45-.52-1.08.87-2.14,1.66-3.15,2.36.16.17.32.35.47.52Z"/>
        <path class="cls-1" d="M440.2,55.06c.35-1.18.79-2.43,1.28-3.72-.21-.09-.43-.18-.64-.26-.53,1.39-.95,2.62-1.28,3.7.22.09.43.18.64.28Z"/>
        <path class="cls-1" d="M446.14,61.47s.08.09.11.13c-.04-.04-.07-.09-.11-.13Z"/>
        <path class="cls-1" d="M446.77,59.61c.16.17.32.34.48.51,1.01-.7,2.07-1.5,3.15-2.36-.15-.17-.32-.34-.48-.5-1.17.93-2.22,1.72-3.16,2.36Z"/>
        <path class="cls-1" d="M440.83,55.35c.33-1.09.75-2.33,1.28-3.72-.06-.03-.13-.06-.19-.09-.15-.07-.29-.14-.44-.2-.49,1.29-.93,2.54-1.28,3.72.21.1.42.19.63.29Z"/>
        <path class="cls-1" d="M415.73,90.42c-1,.69-2.06,1.5-3.15,2.37.43.45.87.9,1.34,1.32,1.92,1.75,4.11,3.2,6.49,4.31.53-1.39.95-2.63,1.28-3.72-2.22-1.08-4.23-2.53-5.95-4.27Z"/>
        <path class="cls-1" d="M417.23,89.44h0c1.45,1.41,3.11,2.6,4.92,3.52h0c-1.82-.92-3.48-2.12-4.92-3.52Z"/>
        <path class="cls-1" d="M422.79,93.27c.21.1.43.2.65.29h0c-.22-.09-.43-.19-.65-.29h0Z"/>
        <path class="cls-1" d="M414.82,89.44c-1.02.7-2.08,1.5-3.14,2.35.14.17.28.33.43.5,1.08-.87,2.14-1.66,3.15-2.36-.15-.16-.3-.32-.44-.49Z"/>
        <path class="cls-1" d="M416.3,88.47h0c.15.16.3.32.45.48h0c-.15-.16-.3-.32-.45-.48Z"/>
        <path class="cls-1" d="M422.32,94.98c-.35,1.18-.79,2.43-1.28,3.72.21.09.43.18.64.26.53-1.39.95-2.62,1.28-3.7-.22-.09-.43-.18-.64-.28Z"/>
        <path class="cls-1" d="M422.15,92.96h0c.21.11.42.21.64.31h0c-.21-.1-.43-.2-.64-.31Z"/>
        <path class="cls-1" d="M415.26,89.93c-1.01.7-2.07,1.5-3.15,2.36.02.02.04.05.06.07.13.15.27.29.41.43,1.09-.87,2.15-1.67,3.15-2.37-.16-.16-.32-.33-.47-.49Z"/>
        <path class="cls-1" d="M416.75,88.95h0c.09.1.19.2.28.3-.1-.1-.19-.2-.28-.3Z"/>
        <path class="cls-1" d="M421.68,94.69c-.33,1.09-.75,2.33-1.28,3.72.21.1.42.19.63.28.49-1.29.92-2.54,1.28-3.72-.21-.1-.42-.19-.63-.29Z"/>
        <path class="cls-1" d="M417.03,89.25c.06.06.13.12.2.19h0c-.07-.06-.13-.12-.2-.19Z"/>
        <path class="cls-1" d="M451.11,71.75c-.31-1.92-.9-3.76-1.72-5.45.82,1.7,1.4,3.53,1.72,5.45h0Z"/>
        <path class="cls-1" d="M449.37,66.25c-.09-.19-.19-.37-.28-.55h0c.1.18.19.36.28.55Z"/>
        <path class="cls-1" d="M454.21,63.27c-.16-.32-.34-.64-.51-.95-1.18.77-2.27,1.53-3.22,2.26,1.21,2.22,2.05,4.67,2.42,7.27,1.2.03,2.53.01,3.93-.06-.33-2.62-1.05-5.12-2.1-7.44-.17-.37-.34-.73-.53-1.09Z"/>
        <path class="cls-1" d="M452.99,72.53c.03.23.05.46.07.7.47.02.96.03,1.46.03.79,0,1.61-.03,2.46-.06-.02-.23-.03-.47-.05-.7-1.39.06-2.71.08-3.93.04Z"/>
        <path class="cls-1" d="M453.35,61.71c-.12-.2-.25-.4-.38-.59-1.16.76-2.23,1.52-3.19,2.27.12.19.24.39.36.59.96-.74,2.04-1.51,3.21-2.27Z"/>
        <path class="cls-1" d="M451.29,73.12h0c-.02-.23-.05-.46-.08-.69h0c.03.23.06.46.08.69Z"/>
        <path class="cls-1" d="M448.77,65.11c-.06-.1-.12-.2-.17-.3.06.1.12.2.17.3h0Z"/>
        <path class="cls-1" d="M451.21,72.43h0c-.03-.23-.06-.45-.1-.68h0c.04.22.07.45.1.68Z"/>
        <path class="cls-1" d="M452.9,71.85c.03.23.06.45.09.68,1.21.04,2.53.02,3.93-.04-.02-.23-.05-.46-.08-.7-1.41.07-2.73.09-3.93.06Z"/>
        <path class="cls-1" d="M449.09,65.71h0c-.11-.2-.21-.4-.33-.6h0c.11.2.22.4.33.6Z"/>
        <path class="cls-1" d="M450.14,63.98c.12.2.23.39.34.59.95-.73,2.04-1.49,3.22-2.26,0-.02-.02-.03-.03-.05-.11-.19-.21-.37-.32-.56-1.17.77-2.25,1.53-3.21,2.27Z"/>
        <path class="cls-1" d="M409.61,78.2c-.45-.02-.91-.03-1.41-.03-.78,0-1.62.02-2.53.06.43,3.41,1.52,6.62,3.14,9.48,1.18-.77,2.27-1.53,3.22-2.26-1.21-2.22-2.04-4.67-2.42-7.26Z"/>
        <path class="cls-1" d="M409.17,88.33c.12.2.25.4.38.59,1.16-.76,2.23-1.52,3.19-2.27-.12-.19-.24-.39-.36-.59-.96.74-2.04,1.51-3.21,2.27Z"/>
        <path class="cls-1" d="M409.52,77.51c-.03-.23-.05-.47-.07-.7-1.18-.03-2.48-.02-3.91.05.02.23.03.46.05.69,1.39-.06,2.71-.08,3.93-.04Z"/>
        <path class="cls-1" d="M409.61,78.2c-.03-.23-.06-.46-.09-.69-1.21-.04-2.53-.02-3.93.04.02.23.05.46.08.69.91-.04,1.75-.06,2.53-.06.5,0,.96.01,1.41.03Z"/>
        <path class="cls-1" d="M412.04,85.46c-.95.73-2.04,1.49-3.22,2.26.12.2.23.41.35.61,1.17-.77,2.25-1.53,3.21-2.27-.12-.2-.23-.39-.34-.59Z"/>
        <path class="cls-1" d="M449.54,83.43h0c.64-1.38,1.12-2.84,1.44-4.37h0c-.31,1.53-.8,2.99-1.44,4.37Z"/>
        <path class="cls-1" d="M450.98,84.49l3.2,2.33c.11-.21.22-.41.32-.62,1.07-2.22,1.83-4.61,2.22-7.13h-3.97c-.36,1.9-.96,3.72-1.77,5.41Z"/>
        <path class="cls-1" d="M448.91,84.68h0c.11-.2.22-.41.32-.62h0c-.1.21-.21.42-.32.62Z"/>
        <path class="cls-1" d="M451.09,78.38h0c.04-.23.07-.46.1-.69h0c-.03.23-.06.46-.1.69Z"/>
        <path class="cls-1" d="M452.88,78.38h3.94c.03-.23.06-.45.09-.69h-3.94c-.03.23-.05.46-.09.69Z"/>
        <path class="cls-1" d="M450.33,85.72l3.18,2.32c.12-.2.23-.4.35-.6l-3.2-2.33c-.11.21-.22.41-.33.61Z"/>
        <path class="cls-1" d="M450.97,79.07h0c.05-.23.08-.46.12-.69h0c-.04.23-.08.46-.12.69Z"/>
        <path class="cls-1" d="M450.66,85.11l3.2,2.33c.11-.2.22-.41.32-.62l-3.2-2.33c-.1.21-.21.42-.32.62Z"/>
        <path class="cls-1" d="M452.76,79.07h3.97c.04-.22.06-.46.09-.69h-3.94c-.04.23-.08.46-.12.69Z"/>
        <path class="cls-1" d="M449.54,83.43c-.1.21-.2.42-.31.63h0c.11-.21.21-.42.31-.63h0Z"/>
        <path class="cls-1" d="M411.52,65.55l-3.19-2.33c-1.23,2.39-2.11,5-2.54,7.75h3.96c.35-1.9.96-3.72,1.77-5.42Z"/>
        <path class="cls-1" d="M409.64,71.66h-3.94c-.03.23-.06.45-.09.69h3.94c.03-.23.06-.46.09-.69Z"/>
        <path class="cls-1" d="M412.17,64.31l-3.17-2.31c-.12.2-.23.4-.35.6l3.18,2.32c.11-.21.22-.41.33-.61Z"/>
        <path class="cls-1" d="M409.75,70.97h-3.96c-.04.22-.06.46-.09.69h3.94c.04-.23.08-.46.12-.69Z"/>
        <path class="cls-1" d="M411.83,64.92l-3.18-2.32c-.11.2-.22.41-.32.62l3.19,2.33c.1-.21.2-.42.31-.63Z"/>
        <path class="cls-1" d="M419.5,52.91c-.15-.21-.28-.42-.41-.63-1.72.92-3.31,2.03-4.77,3.3.18.22.36.44.54.68.69.92,1.33,1.68,1.92,2.33,1.33-1.17,2.8-2.18,4.39-3.01-.43-.8-.97-1.69-1.66-2.68Z"/>
        <path class="cls-1" d="M418.09,59.8c.86-.74,1.78-1.41,2.75-2-.97.59-1.89,1.26-2.75,2Z"/>
        <path class="cls-1" d="M415.77,59.55c.16-.16.33-.33.5-.49-.61-.67-1.26-1.44-1.96-2.38-.17-.22-.34-.44-.51-.64-.17.16-.34.32-.5.48.15.18.3.38.45.58.71.95,1.39,1.76,2.02,2.45Z"/>
        <path class="cls-1" d="M421.78,55.28c.21-.1.42-.2.63-.29-.47-.87-1.04-1.82-1.78-2.88-.11-.16-.19-.31-.29-.46-.21.1-.43.2-.64.31.12.18.23.36.36.55.71,1.02,1.27,1.94,1.72,2.77Z"/>
        <path class="cls-1" d="M421.16,55.59c.2-.11.41-.2.62-.3-.45-.84-1-1.75-1.72-2.77-.13-.18-.25-.37-.36-.55-.21.1-.41.21-.62.32.13.21.27.41.41.63.69.99,1.23,1.88,1.66,2.68Z"/>
        <path class="cls-1" d="M416.27,59.06c.17-.16.34-.31.51-.47-.59-.65-1.23-1.4-1.92-2.33-.18-.24-.36-.46-.54-.68-.13.12-.27.23-.4.34-.04.04-.08.08-.12.11.17.2.34.42.51.64.7.94,1.35,1.71,1.96,2.38Z"/>
        <path class="cls-1" d="M440.56,92.86h0c1.4-.73,2.7-1.62,3.88-2.64,0,0,0,0,0,0-1.18,1.02-2.48,1.91-3.88,2.64Z"/>
        <path class="cls-1" d="M443.01,97.2c.13.19.26.38.38.57.21-.11.41-.23.61-.34.57-.32,1.13-.66,1.67-1.03.34-.23.68-.47,1.01-.72.51-.38,1-.79,1.48-1.2-.17-.21-.34-.42-.51-.64-.71-.95-1.37-1.73-1.98-2.39-1.33,1.17-2.79,2.17-4.37,2.99.44.82.99,1.73,1.7,2.76Z"/>
        <path class="cls-1" d="M444.96,89.75h0c.17-.16.34-.31.5-.47h0c-.16.16-.33.32-.5.47Z"/>
        <path class="cls-1" d="M439.94,93.17h0c-.21.1-.42.19-.63.29h0c.21-.09.43-.19.63-.29Z"/>
        <path class="cls-1" d="M440.7,94.76c-.21.1-.42.19-.63.29.47.89,1.06,1.87,1.82,2.95.1.14.17.27.26.41.21-.1.43-.2.64-.31-.11-.16-.21-.33-.33-.5-.73-1.05-1.3-1.98-1.75-2.84Z"/>
        <path class="cls-1" d="M446.69,90.51c-.16.16-.33.32-.5.47.63.68,1.29,1.47,2.02,2.43.16.21.32.41.48.6.17-.16.34-.32.5-.48-.14-.17-.28-.35-.42-.54-.74-.98-1.42-1.79-2.07-2.49Z"/>
        <path class="cls-1" d="M441.31,94.44c-.2.11-.41.21-.61.31.45.85,1.02,1.79,1.75,2.84.12.17.22.33.33.5.21-.1.41-.21.62-.32-.12-.19-.25-.38-.38-.57-.72-1.02-1.27-1.93-1.7-2.76Z"/>
        <path class="cls-1" d="M446.19,90.99c-.17.16-.34.31-.51.46.61.66,1.26,1.43,1.98,2.39.17.22.34.44.51.64.14-.12.29-.24.43-.37.03-.03.06-.06.09-.08-.16-.19-.32-.39-.48-.6-.72-.96-1.39-1.75-2.02-2.43Z"/>
        <path class="cls-1" d="M439.94,93.17h0c.21-.1.41-.21.62-.31h0c-.21.11-.41.21-.62.31Z"/>
        <path class="cls-1" d="M444.44,90.21s0,0,0,0c.18-.15.35-.31.52-.47h0c-.17.16-.35.31-.52.47Z"/>
        <path class="cls-1" d="M421.68,98.96c-.2.52-.41,1.06-.64,1.63.86.35,1.75.65,2.65.91.19-.56.39-1.11.6-1.65-.89-.25-1.76-.54-2.61-.88Z"/>
        <path class="cls-1" d="M438.15,99.87c.22.55.41,1.1.6,1.65,1.48-.42,2.9-.95,4.27-1.6-.24-.5-.53-1-.87-1.53-1.28.6-2.61,1.09-3.99,1.47Z"/>
        <path class="cls-1" d="M411.02,90.99c-.53-.66-1.02-1.36-1.48-2.07-.48.31-.97.63-1.47.94.68,1.06,1.44,2.08,2.26,3.04.45-.38.9-.75,1.35-1.11-.23-.26-.44-.53-.66-.8Z"/>
        <path class="cls-1" d="M452.64,60.6c.11.17.22.34.33.52.48-.31.97-.63,1.47-.94-.68-1.06-1.43-2.06-2.24-3.01-.47.39-.92.76-1.35,1.11.63.74,1.23,1.52,1.78,2.33Z"/>
        <path class="cls-1" d="M424.37,50.17c-.22-.55-.41-1.1-.6-1.65-1.49.42-2.92.96-4.29,1.61.24.5.53,1.01.87,1.53,1.29-.6,2.63-1.1,4.03-1.49Z"/>
        <path class="cls-1" d="M405.47,75.02c0-.9.05-1.79.14-2.67h-1.76c-.09.88-.13,1.77-.13,2.67,0,.65.03,1.3.08,1.94.6-.04,1.19-.08,1.75-.1-.04-.61-.07-1.22-.07-1.84Z"/>
        <path class="cls-1" d="M411.36,58.62c.61-.73,1.26-1.43,1.94-2.09-.39-.48-.79-.9-1.19-1.27-1.75,1.69-3.27,3.61-4.53,5.72l1.42,1.04c.7-1.19,1.48-2.32,2.36-3.38Z"/>
        <path class="cls-1" d="M451.92,90.45c-.49.66-1.02,1.3-1.58,1.91-.37.41-.76.8-1.16,1.19.39.48.79.9,1.19,1.28,1.76-1.7,3.3-3.63,4.56-5.75l-1.42-1.04c-.49.83-1.02,1.64-1.59,2.41Z"/>
        <path class="cls-1" d="M457.05,75.02c0,.9-.05,1.79-.14,2.67h1.76c.09-.88.13-1.77.13-2.67,0-.65-.03-1.29-.08-1.93-.59.04-1.18.07-1.75.1.04.6.07,1.21.07,1.83Z"/>
        <path class="cls-1" d="M440.84,51.08c.2-.52.41-1.06.64-1.63-.86-.35-1.75-.65-2.65-.91-.19.56-.39,1.11-.6,1.65.89.25,1.76.55,2.61.89Z"/>
        <path class="cls-1" d="M425.65,100.19c-.22.55-.43,1.1-.62,1.66,2,.47,4.09.72,6.23.72s4.17-.25,6.15-.7c-.19-.56-.4-1.11-.62-1.66-1.78.39-3.63.6-5.53.6s-3.8-.22-5.61-.62Z"/>
        <path class="cls-1" d="M437.47,100.05c.22.55.42,1.1.6,1.66.22-.06.44-.12.67-.19-.19-.56-.38-1.11-.6-1.65-.22.06-.45.12-.67.18Z"/>
        <path class="cls-1" d="M424.96,100.03c-.23-.06-.45-.12-.67-.18-.22.54-.42,1.1-.6,1.65.22.06.44.13.67.19.19-.56.39-1.11.61-1.66Z"/>
        <path class="cls-1" d="M437.4,101.86c.23-.05.45-.1.67-.16-.19-.56-.39-1.12-.6-1.66-.23.06-.46.11-.69.16.22.55.43,1.1.62,1.66Z"/>
        <path class="cls-1" d="M425.65,100.19c-.23-.05-.46-.1-.69-.16-.22.54-.42,1.1-.61,1.66.22.06.45.11.67.16.19-.56.4-1.11.62-1.66Z"/>
        <path class="cls-1" d="M436.87,49.85c.22-.55.43-1.1.62-1.66-2-.47-4.09-.72-6.23-.72s-4.17.25-6.15.7c.19.56.4,1.11.62,1.66,1.78-.39,3.63-.6,5.53-.6s3.8.22,5.61.62Z"/>
        <path class="cls-1" d="M437.56,50.01c.23.06.45.12.67.18.22-.54.42-1.1.6-1.65-.22-.06-.44-.13-.67-.19-.19.56-.39,1.11-.61,1.66Z"/>
        <path class="cls-1" d="M425.04,49.99c-.22-.55-.42-1.1-.6-1.66-.22.06-.44.12-.67.19.19.56.38,1.11.6,1.65.22-.06.45-.12.67-.18Z"/>
        <path class="cls-1" d="M436.87,49.85c.23.05.46.1.69.16.22-.54.42-1.1.61-1.66-.22-.06-.45-.11-.67-.16-.19.56-.4,1.11-.62,1.66Z"/>
        <path class="cls-1" d="M425.11,48.17c-.23.05-.45.1-.67.16.19.56.39,1.12.6,1.66.23-.06.46-.11.69-.16-.22-.55-.43-1.1-.62-1.66Z"/>
        <path class="cls-1" d="M444.01,52.61c.57.32,1.13.66,1.67,1.03,1.55,1.05,2.97,2.26,4.25,3.61.43-.35.89-.72,1.35-1.11-2.41-2.56-5.3-4.65-8.53-6.14-.23.56-.45,1.11-.64,1.63.3.14.6.29.9.44.34.17.67.35,1,.54Z"/>
        <path class="cls-1" d="M441.48,51.34c.21-.54.42-1.08.64-1.63-.21-.09-.43-.18-.64-.26-.23.57-.44,1.11-.64,1.63.21.09.43.17.64.26Z"/>
        <path class="cls-1" d="M450.41,57.75c.15.17.3.35.45.52.43-.35.88-.72,1.35-1.11-.15-.17-.3-.35-.45-.52-.45.38-.9.75-1.35,1.11Z"/>
        <path class="cls-1" d="M442.11,51.63c.2-.52.41-1.07.64-1.63-.21-.1-.42-.19-.63-.29-.22.55-.44,1.09-.64,1.63.15.06.3.13.44.2.06.03.13.06.19.09Z"/>
        <path class="cls-1" d="M449.93,57.24c.16.17.32.33.48.5.45-.36.9-.73,1.35-1.11-.15-.17-.31-.34-.47-.51-.47.39-.92.76-1.35,1.11Z"/>
        <path class="cls-1" d="M412.58,92.79c-.45.36-.9.73-1.36,1.11,2.41,2.56,5.31,4.66,8.54,6.15.23-.56.44-1.11.64-1.63-2.38-1.11-4.57-2.56-6.49-4.31-.46-.42-.91-.86-1.34-1.32Z"/>
        <path class="cls-1" d="M412.11,92.29c-.15-.16-.29-.33-.43-.5-.45.36-.9.73-1.35,1.11.14.17.28.33.43.5.45-.38.9-.75,1.35-1.11Z"/>
        <path class="cls-1" d="M421.04,98.7c-.21.54-.42,1.08-.64,1.63.21.09.43.18.64.26.23-.57.44-1.11.64-1.63-.21-.09-.43-.17-.64-.26Z"/>
        <path class="cls-1" d="M412.58,92.79c-.14-.14-.28-.28-.41-.43-.02-.02-.04-.05-.06-.07-.45.36-.9.73-1.35,1.11.15.17.31.33.46.5.46-.38.91-.75,1.36-1.11Z"/>
        <path class="cls-1" d="M419.77,100.04c.21.1.42.19.63.29.22-.55.44-1.09.64-1.63-.21-.09-.42-.19-.63-.28-.2.52-.41,1.07-.64,1.63Z"/>
        <path class="cls-1" d="M454.74,64.36c1.05,2.32,1.77,4.82,2.1,7.44.57-.03,1.16-.06,1.76-.1-.45-3.71-1.64-7.2-3.42-10.31-.51.31-1,.63-1.48.94.18.31.35.63.51.95.18.36.36.72.53,1.09Z"/>
        <path class="cls-1" d="M453.35,61.71c.48-.31.97-.63,1.47-.94-.12-.2-.25-.4-.38-.59-.5.31-.99.63-1.47.94.13.2.26.39.38.59Z"/>
        <path class="cls-1" d="M456.92,72.49c.02.23.04.47.05.7.58-.03,1.16-.06,1.75-.1-.02-.23-.03-.47-.05-.7-.6.04-1.18.07-1.75.1Z"/>
        <path class="cls-1" d="M453.67,62.27s.02.03.03.05c.48-.31.97-.63,1.48-.94-.12-.2-.23-.41-.35-.61-.51.31-1,.63-1.47.94.11.18.21.37.32.56Z"/>
        <path class="cls-1" d="M456.84,71.79c.03.23.06.46.08.7.57-.03,1.16-.06,1.75-.1-.02-.23-.05-.47-.08-.7-.6.04-1.18.08-1.76.1Z"/>
        <path class="cls-1" d="M403.92,78.34c.45,3.72,1.64,7.21,3.42,10.32.51-.31,1-.63,1.48-.94-1.63-2.87-2.72-6.07-3.14-9.48-.56.03-1.14.06-1.76.1Z"/>
        <path class="cls-1" d="M409.17,88.33c-.48.31-.97.63-1.47.94.12.2.25.4.38.59.5-.31.99-.63,1.47-.94-.13-.2-.26-.39-.38-.59Z"/>
        <path class="cls-1" d="M405.6,77.55c-.02-.23-.04-.46-.05-.69-.57.03-1.15.06-1.75.1.02.23.03.46.05.69.6-.04,1.18-.07,1.75-.1Z"/>
        <path class="cls-1" d="M405.68,78.24c-.03-.23-.06-.46-.08-.69-.57.03-1.16.06-1.75.1.02.23.05.46.08.68.61-.04,1.2-.07,1.76-.1Z"/>
        <path class="cls-1" d="M407.34,88.66c.12.2.23.41.35.61.51-.31,1-.63,1.47-.94-.12-.2-.23-.4-.35-.61-.48.31-.97.63-1.48.94Z"/>
        <path class="cls-1" d="M454.18,86.82l1.43,1.04c1.43-2.7,2.42-5.66,2.89-8.79h-1.78c-.4,2.51-1.15,4.91-2.22,7.13-.1.21-.21.41-.32.62Z"/>
        <path class="cls-1" d="M453.86,87.44c-.11.2-.23.4-.35.6l1.42,1.04c.12-.2.23-.4.35-.6l-1.42-1.04Z"/>
        <path class="cls-1" d="M456.82,78.38h1.77c.03-.23.06-.46.08-.69h-1.76c-.02.23-.06.46-.09.69Z"/>
        <path class="cls-1" d="M458.5,79.07c.03-.23.06-.46.09-.69h-1.77c-.03.23-.06.46-.09.69h1.78Z"/>
        <path class="cls-1" d="M454.18,86.82c-.11.21-.21.41-.32.62l1.42,1.04c.11-.2.23-.41.33-.61l-1.43-1.04Z"/>
        <path class="cls-1" d="M406.9,62.18c-1.43,2.7-2.42,5.66-2.89,8.79h1.78c.43-2.75,1.31-5.36,2.54-7.75l-1.43-1.04Z"/>
        <path class="cls-1" d="M405.7,71.66h-1.77c-.03.23-.06.46-.08.69h1.76c.02-.23.06-.46.09-.69Z"/>
        <path class="cls-1" d="M408.66,62.6c.11-.2.23-.4.35-.6l-1.42-1.04c-.12.2-.23.4-.35.6l1.42,1.04Z"/>
        <path class="cls-1" d="M404.01,70.97c-.03.23-.06.46-.09.69h1.77c.03-.23.06-.46.09-.69h-1.78Z"/>
        <path class="cls-1" d="M408.33,63.22c.11-.21.21-.41.32-.62l-1.42-1.04c-.11.2-.23.41-.33.61l1.43,1.04Z"/>
        <path class="cls-1" d="M418.24,50.75c-1.84.99-3.55,2.19-5.11,3.56.4.38.8.8,1.19,1.28,1.46-1.27,3.05-2.38,4.77-3.3-.33-.52-.61-1.03-.85-1.53Z"/>
        <path class="cls-1" d="M419.71,51.97c.21-.11.42-.21.64-.31-.34-.52-.63-1.03-.87-1.53-.21.1-.42.21-.63.31.24.5.52,1,.86,1.53Z"/>
        <path class="cls-1" d="M413.3,56.52c.17-.16.33-.32.5-.48-.4-.48-.79-.89-1.19-1.27-.17.16-.34.32-.5.48.4.38.8.8,1.19,1.27Z"/>
        <path class="cls-1" d="M419.09,52.28c.2-.11.41-.21.62-.32-.33-.52-.62-1.03-.86-1.53-.2.1-.41.21-.61.31.24.5.52,1.01.85,1.53Z"/>
        <path class="cls-1" d="M414.32,55.59c-.39-.47-.79-.89-1.19-1.28-.17.15-.35.3-.52.46.4.38.8.8,1.19,1.27.04-.04.08-.08.12-.11.13-.12.26-.23.4-.34Z"/>
        <path class="cls-1" d="M445.68,96.4c-.54.37-1.1.7-1.67,1.03-.2.12-.41.23-.61.34.33.52.62,1.03.86,1.52,1.84-.99,3.54-2.18,5.1-3.54-.4-.38-.8-.8-1.19-1.28-.48.42-.97.82-1.48,1.2-.33.25-.67.49-1.01.72Z"/>
        <path class="cls-1" d="M449.19,93.54c-.17.16-.33.32-.5.48.39.48.79.9,1.19,1.28.17-.16.34-.32.5-.48-.4-.38-.8-.8-1.19-1.28Z"/>
        <path class="cls-1" d="M442.78,98.09c-.21.11-.42.21-.64.31.34.52.63,1.03.87,1.53.21-.1.42-.21.63-.31-.24-.49-.53-1-.87-1.52Z"/>
        <path class="cls-1" d="M448.17,94.48c.39.47.79.9,1.19,1.28.17-.15.35-.3.52-.46-.4-.38-.8-.8-1.19-1.28-.03.03-.06.06-.09.08-.14.13-.29.25-.43.37Z"/>
        <path class="cls-1" d="M443.39,97.77c-.2.11-.41.21-.62.32.34.52.62,1.03.87,1.52.2-.1.41-.2.61-.31-.24-.5-.53-1-.86-1.52Z"/>
        <path class="cls-1" d="M411.36,58.62c-.87,1.06-1.66,2.19-2.36,3.38h0c.7-1.19,1.48-2.32,2.36-3.38Z"/>
        <path class="cls-1" d="M452.97,61.12c-.11-.17-.22-.35-.33-.52.11.17.22.34.33.52h0Z"/>
        <path class="cls-1" d="M409.54,88.92c.46.72.95,1.41,1.48,2.07-.53-.66-1.02-1.36-1.48-2.07,0,0,0,0,0,0Z"/>
        <path class="cls-1" d="M405.47,75.02c0-.9.05-1.79.14-2.67h0c-.09.88-.14,1.77-.14,2.67,0,.62.03,1.23.07,1.84h0c-.04-.61-.07-1.22-.07-1.84Z"/>
        <path class="cls-1" d="M443.01,52.07c-.3-.15-.59-.3-.9-.44h0c.3.14.6.29.9.44Z"/>
        <path class="cls-1" d="M444.01,52.61c.57.32,1.13.66,1.67,1.03-.54-.37-1.1-.7-1.67-1.03Z"/>
        <path class="cls-1" d="M442.11,51.63c-.06-.03-.13-.06-.19-.09.06.03.13.06.19.09h0Z"/>
        <path class="cls-1" d="M454.21,63.27c.18.36.36.72.53,1.09-.17-.37-.34-.73-.53-1.09Z"/>
        <path class="cls-1" d="M453.35,61.71h0c-.12-.2-.25-.4-.38-.59h0c.13.2.26.39.38.59Z"/>
        <path class="cls-1" d="M453.67,62.27c-.11-.19-.21-.37-.32-.56h0c.11.18.21.37.32.56Z"/>
        <path class="cls-1" d="M405.68,78.24c.43,3.41,1.52,6.62,3.14,9.48h0c-1.63-2.87-2.72-6.07-3.14-9.48h0Z"/>
        <path class="cls-1" d="M409.17,88.33h0c.12.2.25.4.38.59,0,0,0,0,0,0-.13-.2-.26-.39-.38-.59Z"/>
        <path class="cls-1" d="M405.54,76.86h0c.02.23.03.46.05.69h0c-.02-.23-.04-.46-.05-.69Z"/>
        <path class="cls-1" d="M408.82,87.72h0c.12.2.23.41.35.61h0c-.12-.2-.23-.4-.35-.61Z"/>
        <path class="cls-1" d="M405.68,78.24c-.03-.23-.06-.46-.08-.69h0c.02.23.05.46.08.69h0Z"/>
        <path class="cls-1" d="M408.33,63.22c-1.23,2.39-2.11,5-2.54,7.75h0c.43-2.75,1.31-5.36,2.54-7.75h0Z"/>
        <path class="cls-1" d="M405.7,71.66h0c-.03.23-.06.46-.09.69h0c.02-.23.06-.46.09-.69Z"/>
        <path class="cls-1" d="M409,62h0c-.12.2-.23.4-.35.6h0c.11-.2.23-.4.35-.6Z"/>
        <path class="cls-1" d="M405.79,70.97h0c-.04.23-.06.46-.09.69h0c.03-.23.06-.46.09-.69Z"/>
        <path class="cls-1" d="M408.33,63.22c.11-.21.21-.41.32-.62h0c-.11.2-.22.41-.32.62h0Z"/>
        <path class="cls-1" d="M444.01,97.43c.57-.32,1.13-.66,1.67-1.03-.54.37-1.1.7-1.67,1.03Z"/>
        <path class="cls-1" d="M447.54,83.69c-1.5-1.09-2.16-2.58-1.73-3.89.42-1.31,1.84-2.12,3.68-2.12h1.71c.12-.87.18-1.76.18-2.66,0-.64-.03-1.27-.09-1.9-3.35-.3-5.73-1.14-6.25-2.77-.52-1.61.88-3.66,3.38-5.84-.06-.1-.12-.19-.18-.28-.17-.26-.34-.52-.52-.78-.45-.64-.94-1.26-1.46-1.84-2.57,1.6-4.15,2.05-5.13,2.05-.82,0-1.24-.3-1.49-.48-.54-.39-1.88-1.38-.56-6.7-1.12-.47-2.29-.84-3.5-1.11-1.1,1.74-2.36,3.39-3.8,4.91l-.5.54-.5-.54c-1.43-1.53-2.69-3.18-3.78-4.92-.61.13-1.21.29-1.81.48-.37.12-.73.24-1.08.38-.31.12-.62.24-.92.38,1.23,2.93.91,4.66.43,5.58l6.83,9.75c.22-.06.44-.1.67-.11.05,0,.1,0,.15,0,1.77,0,3.21,1.44,3.21,3.21,0,.03,0,.05,0,.08l7.38,2.84c.55.21.82.82.61,1.37-.16.42-.56.68-.99.68-.13,0-.26-.02-.38-.07l-7.38-2.84c-.59.7-1.46,1.15-2.45,1.15-1.77,0-3.21-1.44-3.21-3.21,0-.72.24-1.37.64-1.91l-6.92-9.88s-.02,0-.03,0c-1.02,0-2.59-.47-4.72-2.43-.1.1-.2.19-.29.29-.65.68-1.25,1.4-1.8,2.16-.48.67-.92,1.37-1.32,2.1l1.37,1c1.5,1.09,2.16,2.58,1.73,3.89-.43,1.31-1.84,2.12-3.68,2.12h-1.71c-.12.87-.18,1.76-.18,2.66,0,.64.03,1.26.09,1.89,3.65.31,5.75,1.23,6.25,2.79.52,1.61-.88,3.66-3.38,5.84.32.52.67,1.04,1.03,1.53.37.49.75.96,1.16,1.41,2.84-1.75,5.25-2.57,6.58-1.6.54.4,1.88,1.38.56,6.7,1.12.47,2.29.84,3.49,1.11,1.1-1.74,2.36-3.39,3.8-4.91l.5-.54.5.54c1.43,1.53,2.69,3.18,3.78,4.92,1.31-.28,2.58-.7,3.79-1.22-1.49-3.6-.64-5.37-.06-6.06l.17-.15.35-.2c.79-.31,2.68-.52,5.69,2.22,0,0,.02-.02.03-.03,1.35-1.35,2.5-2.88,3.42-4.56l-1.37-1ZM438.04,64.68h0s.08.05.08.05c-.03-.02-.05-.03-.08-.05ZM438.21,64.43h0s.08.05.08.05c-.03-.02-.05-.03-.08-.05ZM439,65.38s-.08-.06-.12-.09l.12.09h0ZM439.19,65.15s-.08-.06-.12-.09l.12.09h0ZM419.42,79.5l-.03-.1s.02.06.03.1h0ZM419.7,79.4l-.03-.09s.02.06.03.09h0ZM442.83,79.4h0s.03-.08.04-.11l-.04.11ZM443.11,79.5h0s.03-.08.04-.12l-.04.12Z"/>
        <path class="cls-1" d="M419.7,79.4h0s-.02-.06-.03-.09l.03.09Z"/>
        <path class="cls-1" d="M442.83,79.4l.04-.11s-.03.07-.04.11h0Z"/>
        <path class="cls-1" d="M439,65.38h0s-.12-.09-.12-.09c.04.03.08.06.12.09Z"/>
        <path class="cls-1" d="M438.04,64.68s.05.03.08.05l-.08-.06h0Z"/>
        <path class="cls-1" d="M419.42,79.5h0s-.02-.06-.03-.1l.03.1Z"/>
        <path class="cls-1" d="M443.11,79.5l.04-.12s-.03.08-.04.11h0Z"/>
        <path class="cls-1" d="M439.19,65.15h0s-.12-.09-.12-.09c.04.03.08.06.12.09Z"/>
        <path class="cls-1" d="M438.21,64.43s.05.03.08.05l-.08-.06h0Z"/>
        <path class="cls-1" d="M428.41,94.94c.93.13,1.88.2,2.85.2s1.88-.07,2.79-.2c-.84-1.29-1.78-2.53-2.81-3.69-1.04,1.16-1.98,2.4-2.83,3.68Z"/>
        <path class="cls-1" d="M431.23,90.23c1.32,1.42,2.52,2.95,3.56,4.59.24-.04.49-.09.73-.14-1.09-1.74-2.35-3.39-3.78-4.92l-.5-.54-.5.54c-1.44,1.53-2.7,3.17-3.8,4.91.24.05.48.1.73.14,1.05-1.64,2.25-3.17,3.58-4.58Z"/>
        <path class="cls-1" d="M431.23,91.25c1.04,1.17,1.97,2.4,2.81,3.69.25-.03.5-.08.75-.12-1.05-1.64-2.24-3.18-3.56-4.59-1.33,1.41-2.53,2.95-3.58,4.58.25.05.5.09.75.12.84-1.29,1.78-2.52,2.83-3.68Z"/>
        <path class="cls-1" d="M434.11,55.1c-.93-.13-1.88-.2-2.85-.2-.31,0-.62,0-.92.02-.63.03-1.25.09-1.87.17.84,1.29,1.78,2.53,2.81,3.69,1.04-1.16,1.98-2.4,2.83-3.68Z"/>
        <path class="cls-1" d="M431.28,59.81c-1.32-1.42-2.52-2.95-3.56-4.6-.24.04-.49.09-.73.14,1.09,1.74,2.35,3.39,3.78,4.92l.5.54.5-.54c1.44-1.53,2.7-3.17,3.8-4.91-.24-.05-.48-.1-.72-.14-1.05,1.64-2.25,3.17-3.58,4.58Z"/>
        <path class="cls-1" d="M431.28,58.79c-1.04-1.17-1.97-2.4-2.81-3.69-.25.03-.5.08-.75.12,1.05,1.64,2.24,3.18,3.56,4.6,1.33-1.41,2.53-2.95,3.58-4.58-.25-.05-.5-.09-.75-.12-.84,1.29-1.78,2.52-2.83,3.68Z"/>
        <path class="cls-1" d="M440.45,62.06c.62.45,2.17.14,4.82-1.47-1.44-1.4-3.09-2.58-4.9-3.5-.71,2.98-.53,4.53.09,4.98Z"/>
        <path class="cls-1" d="M440.04,62.62c-1.07-.78-1.02-2.98-.31-5.85-.21-.1-.43-.2-.65-.29-1.33,5.32.01,6.3.56,6.7.25.18.66.48,1.49.48.99,0,2.56-.45,5.13-2.05,0,0,0,0,0,0-.04-.04-.07-.09-.11-.13-.12-.13-.24-.26-.37-.38-2.55,1.57-4.65,2.31-5.73,1.53Z"/>
        <path class="cls-1" d="M440.04,62.62c1.08.79,3.18.05,5.73-1.53-.16-.17-.33-.34-.5-.51-2.65,1.61-4.2,1.92-4.82,1.47-.61-.45-.79-2-.09-4.98-.21-.11-.42-.21-.64-.31-.7,2.87-.75,5.07.31,5.85Z"/>
        <path class="cls-1" d="M422.07,87.98c-.21-.15-.47-.22-.79-.22-.95,0-2.37.63-4.05,1.67,1.45,1.41,3.11,2.6,4.92,3.52.71-2.97.53-4.53-.09-4.98Z"/>
        <path class="cls-1" d="M422.47,87.42c1.07.78,1.02,2.98.31,5.85.21.1.43.2.65.29,1.33-5.32-.02-6.3-.56-6.7-1.33-.97-3.75-.15-6.58,1.6.15.16.3.32.45.48,2.55-1.57,4.65-2.31,5.73-1.53Z"/>
        <path class="cls-1" d="M421.28,87.76c.32,0,.58.07.79.22.61.45.79,2,.09,4.98.21.11.42.21.64.31.7-2.87.75-5.07-.31-5.85-1.08-.79-3.18-.05-5.73,1.53.09.1.19.2.28.3.06.06.13.12.2.19,1.68-1.04,3.1-1.67,4.05-1.67Z"/>
        <path class="cls-1" d="M446.35,69.93c.33,1.03,2.11,1.6,4.76,1.82-.31-1.92-.9-3.76-1.72-5.45,0-.01-.01-.03-.02-.04-.09-.19-.19-.37-.28-.55-1.98,1.71-3.07,3.2-2.74,4.22Z"/>
        <path class="cls-1" d="M445.04,70.35c.52,1.62,2.9,2.47,6.25,2.77-.02-.23-.05-.46-.08-.69-3.01-.27-5.09-.97-5.51-2.29-.42-1.31.83-3.08,3.07-5.03-.06-.1-.12-.2-.17-.3-.06-.1-.12-.2-.18-.3-2.5,2.19-3.9,4.23-3.38,5.84Z"/>
        <path class="cls-1" d="M446.35,69.93c-.33-1.02.76-2.51,2.74-4.22-.11-.2-.21-.4-.33-.6-2.25,1.96-3.5,3.73-3.07,5.03.43,1.32,2.51,2.02,5.51,2.29-.03-.23-.06-.45-.1-.68-2.65-.23-4.43-.8-4.76-1.82Z"/>
        <path class="cls-1" d="M416.17,80.11c-.26-.79-1.7-1.51-4.76-1.8.35,2.14,1.04,4.17,2.01,6.02,1.98-1.71,3.07-3.2,2.74-4.22Z"/>
        <path class="cls-1" d="M416.82,79.9c.42,1.31-.83,3.08-3.07,5.03.11.2.23.4.35.6,2.5-2.19,3.9-4.23,3.38-5.84-.5-1.55-2.6-2.48-6.25-2.79.02.24.05.47.08.71,3.01.27,5.09.97,5.52,2.29Z"/>
        <path class="cls-1" d="M416.82,79.9c-.43-1.32-2.51-2.02-5.52-2.29.03.23.06.47.1.7,3.06.29,4.5,1.01,4.76,1.8.33,1.02-.76,2.51-2.74,4.22.11.2.21.4.33.6,2.25-1.95,3.5-3.72,3.07-5.03Z"/>
        <path class="cls-1" d="M449.49,79.06h0c-1.23,0-2.13.45-2.37,1.16-.23.72.24,1.62,1.23,2.34h0l1.18.86c.64-1.38,1.12-2.84,1.44-4.37h-1.48Z"/>
        <path class="cls-1" d="M449.49,78.37h1.6c.04-.23.07-.46.1-.69h-1.7s0,0,0,0c-1.85,0-3.26.81-3.68,2.12-.43,1.31.24,2.8,1.73,3.89l1.37,1c.11-.2.22-.41.32-.62l-1.29-.94c-2.69-1.96-1.78-4.76,1.55-4.75Z"/>
        <path class="cls-1" d="M448.35,82.57c-1-.72-1.47-1.62-1.23-2.34.23-.72,1.14-1.16,2.37-1.16h1.49c.05-.23.08-.46.12-.69h-1.6c-3.33,0-4.24,2.79-1.55,4.75l1.29.94c.11-.21.21-.42.31-.63l-1.18-.86h0Z"/>
        <path class="cls-1" d="M413.02,70.98h0c1.23,0,2.14-.45,2.37-1.16.23-.72-.24-1.62-1.23-2.34h0l-1.19-.87c-.64,1.38-1.12,2.84-1.43,4.37h1.48Z"/>
        <path class="cls-1" d="M414.57,66.91c2.69,1.96,1.78,4.76-1.55,4.75h-1.6c-.04.23-.07.46-.1.69h1.7s0,0,0,0c1.85,0,3.26-.81,3.68-2.12.43-1.31-.24-2.8-1.73-3.89l-1.37-1c-.11.2-.22.41-.32.62l1.29.94Z"/>
        <path class="cls-1" d="M414.17,67.47c.99.72,1.47,1.62,1.23,2.34-.23.72-1.14,1.16-2.37,1.16h-1.48c-.05.23-.09.46-.12.69h1.6c3.33,0,4.24-2.79,1.55-4.75l-1.29-.94c-.11.21-.21.42-.31.63l1.19.87h0Z"/>
        <path class="cls-1" d="M421.61,61.83c.07-.11.16-.21.27-.29.17-.12.37-.16.56-.17.23-.62.41-1.92-.52-4.19-.37.19-.73.4-1.09.62-.97.59-1.89,1.26-2.75,2-.02.02-.04.03-.05.05,1.73,1.56,2.91,1.93,3.57,1.98Z"/>
        <path class="cls-1" d="M423.12,61.57c.09.07.18.14.24.23l.26.36c.48-.92.8-2.65-.43-5.58-.21.09-.42.19-.63.29,1,2.42.86,3.89.56,4.69Z"/>
        <path class="cls-1" d="M421.45,62.52c-.85-.08-2.15-.56-3.94-2.2-.17.16-.33.32-.49.48,2.13,1.95,3.7,2.43,4.72,2.43,0,0,.02,0,.03,0l-.15-.21c-.11-.15-.15-.32-.17-.5Z"/>
        <path class="cls-1" d="M421.61,61.83c-.66-.05-1.85-.42-3.57-1.98-.18.15-.35.31-.52.47,1.78,1.63,3.08,2.11,3.94,2.2-.02-.24.02-.48.16-.69Z"/>
        <path class="cls-1" d="M423.12,61.57c.3-.81.44-2.28-.56-4.69-.21.1-.42.2-.62.31.93,2.27.75,3.56.52,4.19.24,0,.47.05.67.2Z"/>
        <path class="cls-1" d="M440.32,88.32l-.07.04c-.23.35-.83,1.65.31,4.49,1.4-.73,2.7-1.62,3.88-2.64-2.46-2.21-3.81-1.99-4.12-1.89Z"/>
        <path class="cls-1" d="M439.78,87.84l.25-.15c.52-.2,2.14-.5,4.94,2.05.17-.16.34-.31.5-.47-3.01-2.74-4.89-2.53-5.69-2.22l-.35.2-.17.15c-.57.69-1.43,2.46.06,6.06.21-.09.43-.19.63-.29-1.39-3.39-.52-4.91-.17-5.33Z"/>
        <path class="cls-1" d="M440.02,87.69l-.25.15c-.35.42-1.22,1.94.17,5.33.21-.1.41-.21.62-.31-1.15-2.85-.55-4.15-.31-4.49l.07-.04c.31-.1,1.66-.31,4.12,1.89.18-.15.35-.31.52-.47-2.8-2.55-4.42-2.26-4.94-2.05Z"/>
        <path class="cls-1" d="M435.52,94.68c.33.52.63,1.05.93,1.59,1.25-.31,2.46-.72,3.61-1.23-.3-.56-.55-1.09-.76-1.58-1.21.53-2.47.94-3.79,1.22Z"/>
        <path class="cls-1" d="M424.11,56.21c.36-.14.72-.26,1.08-.38.59-.19,1.19-.35,1.81-.48-.33-.52-.64-1.06-.93-1.6-1.26.31-2.48.72-3.65,1.24.3.56.56,1.1.77,1.59.3-.13.61-.26.92-.38Z"/>
        <path class="cls-1" d="M415.13,87.06c-.37-.49-.71-1-1.03-1.53-.42.37-.88.74-1.36,1.12.62.99,1.32,1.92,2.09,2.79.5-.34.99-.67,1.47-.97-.41-.45-.8-.92-1.16-1.41Z"/>
        <path class="cls-1" d="M423.44,93.56c-.13.52-.29,1.09-.47,1.7.98.4,1.99.74,3.04.99.3-.54.6-1.07.93-1.59-1.21-.26-2.38-.63-3.5-1.11Z"/>
        <path class="cls-1" d="M447.71,63.45c.18.25.35.51.52.78.06.09.12.19.18.28.42-.37.88-.74,1.36-1.12-.61-.97-1.3-1.89-2.05-2.76-.52.36-1.01.69-1.47.97.52.58,1.01,1.2,1.46,1.84Z"/>
        <path class="cls-1" d="M411.14,75.02c0-.9.06-1.79.18-2.66h-1.77c-.11.87-.17,1.76-.17,2.66,0,.6.03,1.2.08,1.79.63.02,1.21.05,1.77.1-.06-.62-.09-1.25-.09-1.89Z"/>
        <path class="cls-1" d="M451.38,75.02c0,.9-.07,1.79-.18,2.67h1.77c.11-.87.17-1.76.17-2.67,0-.6-.03-1.2-.08-1.79-.62-.02-1.21-.06-1.77-.11.06.63.09,1.26.09,1.9Z"/>
        <path class="cls-1" d="M439.08,56.48c.13-.52.29-1.09.47-1.7-.98-.4-1.99-.74-3.04-1-.3.54-.6,1.07-.93,1.59,1.21.26,2.38.63,3.5,1.11Z"/>
        <path class="cls-1" d="M445.49,89.25s-.02.02-.03.03c.39.36.8.78,1.23,1.24,1.42-1.42,2.65-3.03,3.64-4.79l-1.42-1.04c-.92,1.68-2.08,3.22-3.42,4.56Z"/>
        <path class="cls-1" d="M414.93,63.26c.55-.76,1.15-1.49,1.8-2.16.1-.1.2-.2.29-.29-.4-.37-.82-.78-1.25-1.26-1.41,1.41-2.62,3.01-3.6,4.76l1.44,1.05c.4-.73.84-1.43,1.32-2.1Z"/>
        <path class="cls-1" d="M431.26,95.14c-.97,0-1.92-.07-2.85-.2-.35.53-.68,1.07-.99,1.62,1.25.22,2.53.34,3.84.34s2.55-.12,3.78-.33c-.31-.55-.64-1.09-.99-1.62-.91.13-1.84.2-2.79.2Z"/>
        <path class="cls-1" d="M434.8,94.82c.33.52.65,1.06.95,1.61.24-.05.47-.11.7-.16-.29-.54-.6-1.07-.93-1.59-.24.05-.48.1-.73.14Z"/>
        <path class="cls-1" d="M426.93,94.67c-.33.52-.64,1.05-.93,1.59.23.06.47.11.7.16.31-.54.62-1.08.96-1.61-.24-.04-.49-.09-.73-.14Z"/>
        <path class="cls-1" d="M427.66,94.81c-.34.52-.65,1.06-.96,1.61.24.05.48.09.72.14.31-.55.64-1.09.99-1.62-.25-.04-.5-.08-.75-.12Z"/>
        <path class="cls-1" d="M434.05,94.94c.35.53.68,1.07.99,1.62.24-.04.48-.08.72-.13-.3-.55-.62-1.08-.95-1.61-.25.04-.5.08-.75.12Z"/>
        <path class="cls-1" d="M430.34,54.92c.31-.01.61-.02.92-.02.97,0,1.92.07,2.85.21.35-.53.68-1.07.99-1.62-1.25-.22-2.53-.35-3.84-.35-.34,0-.67,0-1,.02-.94.04-1.87.15-2.77.31.31.55.64,1.09.99,1.62.61-.09,1.24-.15,1.87-.17Z"/>
        <path class="cls-1" d="M435.59,55.37c.33-.52.64-1.05.93-1.59-.23-.06-.46-.11-.7-.16-.31.54-.62,1.08-.96,1.6.24.04.49.09.72.14Z"/>
        <path class="cls-1" d="M427.72,55.21c-.34-.53-.65-1.06-.95-1.61-.24.05-.47.1-.7.15.3.54.6,1.07.93,1.6.24-.05.48-.1.73-.14Z"/>
        <path class="cls-1" d="M428.47,55.09c-.35-.53-.68-1.07-.99-1.62-.24.04-.48.09-.72.13.3.55.62,1.08.95,1.61.25-.04.5-.09.75-.12Z"/>
        <path class="cls-1" d="M434.86,55.23c.34-.52.65-1.06.96-1.6-.24-.05-.48-.09-.72-.14-.31.55-.64,1.09-.99,1.62.25.04.5.08.75.12Z"/>
        <path class="cls-1" d="M440.83,55.35c-.19.62-.34,1.2-.47,1.73,1.81.92,3.46,2.1,4.9,3.5.47-.28.97-.61,1.5-.98-1.72-1.73-3.73-3.18-5.94-4.26Z"/>
        <path class="cls-1" d="M439.73,56.77c.13-.55.29-1.12.47-1.71-.21-.1-.43-.19-.64-.28-.19.61-.34,1.18-.47,1.7.22.09.43.19.65.29Z"/>
        <path class="cls-1" d="M446.14,61.47s.08.09.11.13c0,0,0,0,0,0,.46-.29.95-.61,1.47-.97-.15-.18-.31-.35-.47-.52-.51.35-1,.68-1.48.98.12.13.25.25.37.38Z"/>
        <path class="cls-1" d="M440.37,57.08c.13-.53.28-1.1.47-1.73-.21-.1-.42-.2-.63-.29-.18.59-.34,1.16-.47,1.71.21.1.43.2.64.31Z"/>
        <path class="cls-1" d="M445.77,61.09c.48-.3.98-.62,1.48-.98-.16-.17-.32-.34-.48-.51-.54.37-1.04.69-1.5.98.17.17.34.33.5.51Z"/>
        <path class="cls-1" d="M417.23,89.44c-.48.3-.98.63-1.49.98,1.72,1.74,3.73,3.18,5.95,4.27.19-.62.34-1.2.47-1.73-1.82-.92-3.48-2.12-4.92-3.52Z"/>
        <path class="cls-1" d="M422.79,93.27c-.13.55-.29,1.12-.47,1.71.21.1.43.19.64.28.19-.61.34-1.18.47-1.7-.22-.09-.43-.19-.65-.29Z"/>
        <path class="cls-1" d="M416.75,88.95c-.15-.16-.3-.32-.45-.48-.48.3-.97.63-1.47.97.14.16.29.33.44.49.51-.35,1-.68,1.48-.98Z"/>
        <path class="cls-1" d="M422.15,92.96c-.13.53-.28,1.1-.47,1.73.21.1.42.2.63.29.18-.59.34-1.16.47-1.71-.21-.1-.43-.2-.64-.31Z"/>
        <path class="cls-1" d="M417.03,89.25c-.1-.1-.19-.2-.28-.3-.48.3-.98.62-1.48.98.16.17.31.33.47.49.52-.36,1.02-.69,1.49-.98-.07-.06-.13-.12-.2-.19Z"/>
        <path class="cls-1" d="M449.37,66.25s.01.03.02.04c.82,1.7,1.4,3.53,1.72,5.45.56.05,1.16.08,1.79.1-.38-2.6-1.21-5.05-2.42-7.27-.5.39-.96.76-1.39,1.13.1.18.19.36.28.55Z"/>
        <path class="cls-1" d="M448.59,64.81c.06.1.12.2.17.3.42-.37.88-.74,1.37-1.12-.12-.2-.24-.4-.36-.59-.48.37-.94.75-1.36,1.12.06.1.12.2.18.3Z"/>
        <path class="cls-1" d="M451.29,73.12c.56.05,1.16.09,1.77.11-.02-.23-.04-.46-.07-.7-.63-.02-1.22-.05-1.78-.1.03.23.06.46.08.69Z"/>
        <path class="cls-1" d="M449.09,65.71c.43-.37.88-.74,1.39-1.13-.11-.2-.23-.4-.34-.59-.49.38-.95.76-1.37,1.12.11.2.22.4.33.6Z"/>
        <path class="cls-1" d="M451.21,72.43c.56.05,1.16.08,1.78.1-.03-.23-.05-.46-.09-.68-.64-.02-1.23-.05-1.79-.1.04.22.07.45.1.68Z"/>
        <path class="cls-1" d="M411.41,78.31c-.55-.05-1.15-.09-1.8-.11.38,2.6,1.21,5.05,2.42,7.26.5-.39.96-.76,1.39-1.13-.97-1.86-1.66-3.88-2.01-6.02Z"/>
        <path class="cls-1" d="M413.75,84.93c-.42.37-.88.74-1.37,1.12.12.2.24.4.36.59.48-.37.94-.75,1.36-1.12-.12-.2-.24-.4-.35-.6Z"/>
        <path class="cls-1" d="M411.23,76.9c-.55-.05-1.14-.08-1.77-.1.02.24.04.47.07.7.62.02,1.22.05,1.78.1-.03-.23-.06-.47-.08-.71Z"/>
        <path class="cls-1" d="M411.31,77.61c-.56-.05-1.16-.08-1.78-.1.03.23.05.46.09.69.65.02,1.25.06,1.8.11-.04-.23-.07-.46-.1-.7Z"/>
        <path class="cls-1" d="M412.04,85.46c.11.2.23.4.34.59.49-.38.95-.76,1.37-1.12-.11-.2-.22-.4-.33-.6-.42.37-.88.74-1.39,1.13Z"/>
        <path class="cls-1" d="M449.54,83.43l1.45,1.05c.82-1.7,1.42-3.52,1.77-5.42h-1.78c-.31,1.52-.8,2.99-1.44,4.36Z"/>
        <path class="cls-1" d="M451.09,78.38h1.78c.04-.23.06-.46.09-.69h-1.77c-.03.23-.06.46-.1.69Z"/>
        <path class="cls-1" d="M449.23,84.06c-.1.21-.21.42-.32.62l1.42,1.04c.11-.2.22-.41.33-.61l-1.43-1.04Z"/>
        <path class="cls-1" d="M449.23,84.06l1.43,1.04c.11-.21.22-.41.32-.62l-1.45-1.05c-.1.21-.2.42-.31.63Z"/>
        <path class="cls-1" d="M450.97,79.07h1.78c.04-.23.09-.46.12-.69h-1.78c-.04.23-.08.46-.12.69Z"/>
        <path class="cls-1" d="M412.98,66.61l-1.45-1.06c-.81,1.7-1.41,3.52-1.77,5.43h1.79c.31-1.52.8-2.99,1.43-4.37Z"/>
        <path class="cls-1" d="M413.28,65.98c.11-.21.21-.41.33-.62l-1.44-1.05c-.11.2-.23.4-.33.61l1.45,1.06Z"/>
        <path class="cls-1" d="M411.42,71.67h-1.78c-.04.23-.06.46-.09.69h1.77c.03-.23.07-.46.1-.69Z"/>
        <path class="cls-1" d="M411.55,70.98h-1.79c-.04.23-.08.46-.12.69h1.78c.04-.23.08-.46.12-.69Z"/>
        <path class="cls-1" d="M413.28,65.98l-1.45-1.06c-.11.21-.21.42-.31.63l1.45,1.06c.1-.21.2-.42.31-.63Z"/>
        <path class="cls-1" d="M418.04,59.85s.04-.03.05-.05c.86-.74,1.78-1.41,2.75-2,.36-.22.72-.43,1.09-.62-.2-.49-.45-1.02-.76-1.6-1.59.82-3.06,1.84-4.39,3.01.45.49.86.91,1.26,1.26Z"/>
        <path class="cls-1" d="M417.02,60.81c.16-.16.33-.32.49-.48-.39-.36-.81-.79-1.25-1.26-.17.16-.33.32-.5.49.44.48.85.89,1.25,1.26Z"/>
        <path class="cls-1" d="M423.18,56.59c-.21-.49-.47-1.03-.77-1.59-.21.09-.42.19-.63.29.31.57.56,1.11.77,1.6.21-.1.42-.2.63-.29Z"/>
        <path class="cls-1" d="M417.52,60.33c.17-.16.34-.32.52-.47-.39-.35-.81-.77-1.26-1.26-.17.15-.34.31-.51.47.44.48.86.91,1.25,1.26Z"/>
        <path class="cls-1" d="M421.78,55.28c-.21.1-.42.2-.62.3.31.58.56,1.11.76,1.6.21-.11.41-.21.62-.31-.2-.49-.46-1.02-.77-1.6Z"/>
        <path class="cls-1" d="M444.44,90.21c-1.18,1.02-2.48,1.91-3.88,2.64.19.48.44,1.01.75,1.58,1.58-.82,3.05-1.83,4.37-2.99-.44-.48-.86-.89-1.24-1.24Z"/>
        <path class="cls-1" d="M445.46,89.27c-.16.16-.33.32-.5.47.39.35.8.77,1.23,1.24.17-.16.34-.31.5-.47-.43-.46-.84-.88-1.23-1.24Z"/>
        <path class="cls-1" d="M439.31,93.46c.2.49.46,1.02.76,1.58.21-.09.42-.19.63-.29-.3-.57-.55-1.1-.75-1.58-.21.1-.42.19-.63.29Z"/>
        <path class="cls-1" d="M444.96,89.75c-.17.16-.35.31-.52.47.39.35.8.76,1.24,1.24.17-.15.34-.31.51-.46-.43-.47-.85-.89-1.23-1.24Z"/>
        <path class="cls-1" d="M440.7,94.76c.21-.1.41-.21.61-.31-.31-.58-.55-1.1-.75-1.58-.21.11-.41.21-.62.32.2.49.45,1.02.75,1.58Z"/>
        <path class="cls-1" d="M425.19,55.84c.59-.19,1.19-.35,1.81-.48h0c-.61.13-1.21.29-1.81.48Z"/>
        <path class="cls-1" d="M411.14,75.02c0,.64.03,1.26.09,1.89h0c-.06-.62-.09-1.25-.09-1.89,0-.9.06-1.79.18-2.66h0c-.12.87-.18,1.76-.18,2.66Z"/>
        <path class="cls-1" d="M448.42,64.51c-.06-.1-.12-.19-.18-.28.06.09.12.19.18.28h0Z"/>
        <path class="cls-1" d="M417.02,60.81c-.1.1-.2.19-.29.29.1-.1.2-.2.29-.29h0Z"/>
        <path class="cls-1" d="M435.59,55.37h0c1.21.27,2.38.63,3.5,1.11h0c-1.12-.47-2.29-.84-3.5-1.11Z"/>
        <path class="cls-1" d="M414.1,85.53c.32.52.67,1.04,1.03,1.53-.37-.49-.71-1-1.03-1.53h0Z"/>
        <path class="cls-1" d="M447.71,63.45c-.45-.64-.94-1.26-1.46-1.84h0c.52.58,1.01,1.2,1.46,1.84Z"/>
        <path class="cls-1" d="M423.18,56.59c.3-.13.61-.26.92-.38-.31.12-.62.24-.92.38h0Z"/>
        <path class="cls-1" d="M414.93,63.26c-.48.67-.92,1.37-1.32,2.1h0c.4-.73.84-1.43,1.32-2.1Z"/>
        <path class="cls-1" d="M430.34,54.92c.31-.01.61-.02.92-.02.97,0,1.92.07,2.85.2h0c-.93-.13-1.88-.21-2.85-.21-.31,0-.62,0-.92.02-.63.03-1.25.09-1.87.17h0c.61-.09,1.24-.14,1.87-.17Z"/>
        <path class="cls-1" d="M427.72,55.21c-.24.04-.49.09-.73.14h0c.24-.05.48-.1.73-.14h0Z"/>
        <path class="cls-1" d="M434.86,55.23h0c.24.04.49.09.72.14h0c-.24-.05-.48-.1-.72-.14Z"/>
        <path class="cls-1" d="M428.47,55.09h0c-.25.03-.5.08-.75.12h0c.25-.04.5-.09.75-.12Z"/>
        <path class="cls-1" d="M434.86,55.23h0c-.25-.05-.5-.09-.75-.12h0c.25.04.5.08.75.12Z"/>
        <path class="cls-1" d="M445.27,60.58h0c-1.44-1.4-3.09-2.58-4.9-3.5h0c1.81.92,3.46,2.1,4.9,3.5Z"/>
        <path class="cls-1" d="M439.73,56.77c-.21-.1-.43-.2-.65-.29h0c.22.09.43.19.65.29h0Z"/>
        <path class="cls-1" d="M446.14,61.47c-.12-.13-.24-.26-.37-.38,0,0,0,0,0,0,.12.13.25.25.37.38Z"/>
        <polygon class="cls-1" points="446.25 61.61 446.25 61.6 446.25 61.61 446.25 61.61"/>
        <path class="cls-1" d="M445.77,61.09s0,0,0,0c-.16-.17-.33-.34-.5-.51h0c.17.17.34.33.5.51Z"/>
        <path class="cls-1" d="M439.73,56.77c.21.1.43.2.64.31h0c-.21-.11-.42-.21-.64-.31h0Z"/>
        <path class="cls-1" d="M449.37,66.25s.01.03.02.04c0-.01-.01-.03-.02-.04Z"/>
        <path class="cls-1" d="M448.59,64.81c-.06-.1-.12-.2-.18-.3h0c.06.1.12.2.18.3Z"/>
        <path class="cls-1" d="M411.41,78.31c.35,2.14,1.04,4.17,2.01,6.02h0c-.97-1.86-1.66-3.88-2.01-6.02h0Z"/>
        <path class="cls-1" d="M411.31,77.61h0c-.03-.23-.06-.47-.08-.71h0c.02.24.05.47.08.71Z"/>
        <path class="cls-1" d="M413.75,84.93h0c.11.2.23.4.35.6h0c-.12-.2-.24-.4-.35-.6Z"/>
        <path class="cls-1" d="M413.42,84.33h0c.11.2.21.4.33.6h0c-.11-.2-.22-.4-.33-.6Z"/>
        <path class="cls-1" d="M411.31,77.61h0c.03.23.06.47.1.7h0c-.04-.23-.07-.46-.1-.7Z"/>
        <path class="cls-1" d="M412.98,66.61h0c-.64,1.38-1.12,2.84-1.43,4.37h0c.31-1.53.8-2.99,1.43-4.37Z"/>
        <path class="cls-1" d="M411.42,71.67c-.04.23-.07.46-.1.69h0c.03-.23.07-.46.1-.69h0Z"/>
        <path class="cls-1" d="M413.61,65.36h0c-.11.2-.22.41-.33.62h0c.1-.21.21-.41.32-.62Z"/>
        <path class="cls-1" d="M412.98,66.61c.1-.21.2-.42.31-.63h0c-.1.21-.21.42-.31.63h0Z"/>
        <path class="cls-1" d="M411.55,70.98h0c-.05.23-.09.46-.12.69h0c.04-.23.08-.46.12-.69Z"/>
        <path class="cls-1" d="M421.93,57.19c-.37.19-.73.4-1.09.62.36-.22.72-.43,1.09-.62h0Z"/>
        <path class="cls-1" d="M418.09,59.8s-.04.03-.05.05h0s.04-.03.05-.05Z"/>
        <path class="cls-1" d="M417.52,60.33h0c-.17.16-.33.32-.49.48h0c.16-.16.33-.32.49-.48Z"/>
        <path class="cls-1" d="M422.55,56.88h0c.21-.1.42-.2.63-.29h0c-.21.09-.42.19-.63.29Z"/>
        <path class="cls-1" d="M422.55,56.88h0c-.21.1-.42.2-.62.31h0c.21-.11.41-.21.62-.31Z"/>
        <path class="cls-1" d="M418.04,59.85h0c-.18.15-.35.31-.52.47h0c.17-.16.34-.32.52-.47Z"/>
        <path class="cls-1" d="M431.26,76.77c-.97,0-1.76-.79-1.76-1.76,0-.21.04-.4.11-.59l-.92-1.32c-.4.53-.64,1.19-.64,1.91,0,1.77,1.44,3.21,3.21,3.21.99,0,1.86-.45,2.45-1.15l-1.5-.58c-.27.17-.6.28-.94.28Z"/>
        <path class="cls-1" d="M432.93,74.5l1.53.59s0-.05,0-.08c0-1.77-1.44-3.21-3.21-3.21-.05,0-.1,0-.15,0-.23.01-.45.05-.67.11l.95,1.36c.73.06,1.33.55,1.54,1.23Z"/>
        <path class="cls-1" d="M432.93,74.5c-.21-.68-.81-1.17-1.54-1.23l.61.87.93.36Z"/>
        <path class="cls-1" d="M431.26,76.77c.35,0,.67-.1.94-.28l-1.26-.49s-.02-.01-.03-.02c-.11-.05-.22-.11-.31-.2-.02-.02-.03-.03-.05-.05-.04-.04-.07-.07-.1-.12l-.84-1.2c-.07.19-.11.38-.11.59,0,.97.79,1.76,1.76,1.76Z"/>
        <path class="cls-1" d="M423.1,62.86l-.35.2c-.23.09-.56.17-.97.17l6.92,9.88c.43-.58,1.04-1.01,1.75-1.19l-6.83-9.75c-.11.22-.23.4-.35.53l-.17.15Z"/>
        <path class="cls-1" d="M422.19,61.79l.07-.04c.05-.08.12-.2.18-.37-.2,0-.39.05-.56.17-.11.08-.2.18-.27.29.29.02.49-.02.58-.05Z"/>
        <path class="cls-1" d="M423.12,61.57c-.12.34-.27.57-.38.69l-.25.15c-.19.07-.54.16-1.04.11.02.17.06.35.17.5l.15.21c.42,0,.74-.08.97-.17l.35-.2.17-.15c.11-.13.23-.31.35-.53l-.26-.36c-.07-.1-.15-.17-.24-.23Z"/>
        <path class="cls-1" d="M421.45,62.52c.5.05.85-.03,1.04-.11l.25-.15c.1-.12.25-.35.38-.69-.2-.15-.43-.21-.67-.2-.06.17-.13.29-.18.37l-.07.04c-.09.03-.29.07-.58.05-.13.2-.18.45-.16.69Z"/>
        <path class="cls-1" d="M428.69,73.11l.92,1.32c.24-.68.89-1.17,1.65-1.17.05,0,.09,0,.13.01l-.95-1.36c-.71.19-1.32.62-1.75,1.19Z"/>
        <path class="cls-1" d="M430.55,75.74c-.27-.29-.38-.71-.23-1.1.21-.55.82-.82,1.37-.61l.3.12-.61-.87s-.09-.01-.13-.01c-.76,0-1.4.49-1.65,1.17l.84,1.2s.07.08.1.12Z"/>
        <path class="cls-1" d="M430.91,75.99c-.12-.05-.22-.11-.31-.2.09.09.2.15.31.2Z"/>
        <path class="cls-1" d="M441.08,79.92c.13.05.25.07.38.07.43,0,.83-.26.99-.68.21-.55-.06-1.16-.61-1.37l-7.38-2.84c-.02.76-.3,1.44-.76,1.98l7.38,2.84Z"/>
        <path class="cls-1" d="M433.01,75.02c0,.62-.32,1.16-.81,1.48l1.5.58c.45-.54.74-1.22.76-1.98l-1.53-.59c.05.16.09.33.09.51Z"/>
        <path class="cls-1" d="M430.6,75.79s-.03-.03-.05-.05c.02.02.03.04.05.05Z"/>
        <path class="cls-1" d="M432.19,74.41c.34.48.22,1.14-.26,1.48-.18.13-.4.19-.61.19-.14,0-.28-.03-.41-.09.01,0,.02.01.03.02l1.26.49c.49-.31.81-.86.81-1.48,0-.18-.04-.35-.09-.51l-.93-.36.19.27Z"/>
        <path class="cls-1" d="M431.92,75.89c.48-.34.6-1,.26-1.48l-.19-.27-.3-.12c-.55-.21-1.16.06-1.37.61-.15.39-.05.82.23,1.1.02.02.03.04.05.05.09.08.19.15.31.2.13.05.27.09.41.09.21,0,.42-.06.61-.19Z"/>
        <g>
          <g>
            <path class="cls-1" d="M431.26,96.16c-11.65,0-21.14-9.48-21.14-21.14s8.86-20.6,20.17-21.11c.32-.01.64-.02.97-.02,11.65,0,21.14,9.48,21.14,21.14s-9.48,21.14-21.14,21.14Z"/>
            <path class="cls-2" d="M431.26,54.9c11.11,0,20.12,9.01,20.12,20.12s-9.01,20.12-20.12,20.12-20.12-9.01-20.12-20.12,8.51-19.62,19.2-20.1c.31-.01.61-.02.92-.02M431.26,52.87c-.34,0-.68,0-1.01.02-11.85.53-21.14,10.25-21.14,22.13s9.94,22.15,22.15,22.15,22.15-9.94,22.15-22.15-9.94-22.15-22.15-22.15h0Z"/>
          </g>
          <path class="cls-2" d="M434.47,75.02c0,1.77-1.44,3.21-3.21,3.21s-3.21-1.44-3.21-3.21,1.36-3.13,3.06-3.21c.05,0,.1,0,.15,0,1.77,0,3.21,1.44,3.21,3.21Z"/>
          <line class="cls-3" x1="431.32" y1="75.02" x2="422.49" y2="62.41"/>
          <line class="cls-3" x1="441.46" y1="78.93" x2="431.32" y2="75.02"/>
        </g>
      </g>
      <g>
        <rect class="cls-1" x="119.75" y="42.46" height="22.5" transform="translate(-2.49 101.48) rotate(-45.5)"/>
        <polygon class="cls-1" points="142.24 55.47 149.66 55.47 143.37 30.14 119.24 30.14 121.4 37.35 138.2 37.35 142.24 55.47"/>
        <path class="cls-1" d="M121.31,43.86l-4.97-16.6c-.25-.92-1.06-1.54-1.98-1.54h-7.25c-.92,0-1.73.62-1.97,1.51l-4.98,16.63h21.15Z"/>
        <path class="cls-1" d="M98.03,45.82c-2.65,0-4.81,2.16-4.81,4.81v11.12c2.23-.87,4.65-1.36,7.18-1.36h20.67c2.36,0,4.61.43,6.71,1.19l-16.05-15.77h-13.7Z"/>
        <path class="cls-1" d="M128.25,61.76v-11.12c0-2.65-2.16-4.81-4.81-4.81h-11.71l16.05,15.77c.16.06.32.1.47.16Z"/>
        <polygon class="cls-1" points="95.67 31.55 95.67 33.51 101.22 33.51 101.8 31.55 95.67 31.55"/>
        <polygon class="cls-1" points="93.72 28.88 79.08 30.43 79.08 34.63 93.72 36.18 93.72 28.88"/>
        <polygon class="cls-1" points="144.14 29.16 150.91 56.45 141.46 56.45 137.41 38.33 121.7 38.33 121.99 39.31 136.63 39.31 140.67 57.43 152.17 57.43 144.9 28.18 118.66 28.18 118.95 29.16 144.14 29.16"/>
        <polygon class="cls-1" points="143.37 30.14 149.66 55.47 142.24 55.47 138.2 37.35 121.4 37.35 121.7 38.33 137.41 38.33 141.46 56.45 150.91 56.45 144.14 29.16 118.95 29.16 119.24 30.14 143.37 30.14"/>
        <polygon class="cls-1" points="120.97 39.31 122.33 43.86 123.35 43.86 121.99 39.31 120.97 39.31"/>
        <path class="cls-1" d="M104.19,26.98c.35-1.32,1.55-2.24,2.91-2.24h3.63v-7.86,7.86h3.63c1.37,0,2.56.92,2.92,2.24l3.46,11.56v-.21l-2.13-8.19h-.25v-.98h0s0,0,0,0v-.98h.31l-.43-1.45c-.47-1.75-2.05-2.97-3.86-2.97h-2.65v-6.89h-1.96v6.89h-2.65c-1.81,0-3.39,1.22-3.85,2.94l-1.45,4.85h.34v1.96h-.93l-3.1,10.35h1.02l5.05-16.88Z"/>
        <polygon class="cls-1" points="121.4 37.35 119.24 30.14 118.6 30.14 120.74 38.33 120.74 37.35 121.4 37.35"/>
        <polygon class="cls-1" points="118.35 29.16 118.35 29.16 118.35 29.16 118.35 29.16"/>
        <path class="cls-1" d="M120.74,38.54l-3.46-11.56c-.35-1.32-1.55-2.24-2.92-2.24h-7.25c-1.37,0-2.56.92-2.91,2.24l-5.05,16.88h1.02l4.98-16.63c.24-.89,1.05-1.51,1.97-1.51h7.25c.92,0,1.73.62,1.98,1.54l4.97,16.6h1.02l-1.36-4.55h-.23v-.77Z"/>
        <polygon class="cls-1" points="102.14 31.55 101.8 31.55 101.22 33.51 102.14 33.51 102.14 31.55"/>
        <polygon class="cls-1" points="120.74 38.33 120.74 38.33 120.74 38.54 120.97 39.31 121.99 39.31 121.7 38.33 120.74 38.33"/>
        <polygon class="cls-1" points="118.35 30.14 118.6 30.14 118.35 29.16 118.35 30.14"/>
        <polygon class="cls-1" points="118.35 29.16 118.95 29.16 118.66 28.18 118.35 28.18 118.35 29.16"/>
        <polygon class="cls-1" points="121.7 38.33 121.4 37.35 120.74 37.35 120.74 38.33 120.74 38.33 121.7 38.33"/>
        <polygon class="cls-1" points="118.95 29.16 118.35 29.16 118.35 29.16 118.6 30.14 119.24 30.14 118.95 29.16"/>
        <polygon class="cls-1" points="120.74 39.31 120.97 39.31 120.74 38.54 120.74 39.31"/>
        <path class="cls-1" d="M92.24,50.63c0-3.12,2.48-5.67,5.58-5.78l.3-.99h-.09c-3.73,0-6.77,3.04-6.77,6.77v12.01c.32-.17.65-.31.98-.46v-11.55Z"/>
        <path class="cls-1" d="M93.22,50.63c0-2.65,2.16-4.81,4.81-4.81h-.5l.29-.97c-3.1.11-5.58,2.65-5.58,5.78v11.55c.32-.15.65-.3.98-.43v-11.12Z"/>
        <path class="cls-1" d="M98.03,44.84h12.7s-11.89,0-11.89,0l.29-.98h-1.02l-.3.99c.07,0,.14-.01.21-.01Z"/>
        <polygon class="cls-1" points="100.16 43.86 99.14 43.86 98.84 44.84 110.73 44.84 110.73 43.86 100.16 43.86"/>
        <path class="cls-1" d="M97.82,44.85l-.29.97h13.2v-.98h-12.7c-.07,0-.14,0-.21.01Z"/>
        <path class="cls-1" d="M129.23,50.63v11.55c.33.15.66.29.98.46v-12.01c0-3.73-3.04-6.77-6.77-6.77h-.09l.3.99c3.1.11,5.58,2.65,5.58,5.78Z"/>
        <path class="cls-1" d="M123.44,45.82c2.65,0,4.81,2.16,4.81,4.81v11.12c.22.09.44.19.66.28h.32v-11.41c0-3.13-2.48-5.67-5.58-5.78l.29.97h-.5Z"/>
        <path class="cls-1" d="M122.62,44.84h-11.89s0,0,0,0l1,.98h0l-1-.98h12.71c.07,0,.14,0,.21.01l-.3-.99h-1.02l.29.98Z"/>
        <polygon class="cls-1" points="110.73 43.86 110.73 44.84 122.62 44.84 122.33 43.86 121.31 43.86 110.73 43.86"/>
        <polygon class="cls-1" points="111.73 45.82 110.73 44.84 110.73 44.84 110.73 45.82 111.73 45.82"/>
        <path class="cls-1" d="M123.94,45.82l-.29-.97c-.07,0-.14-.01-.21-.01h-12.71l1,.98h12.21Z"/>
        <path class="cls-1" d="M129.23,62.18v-.15h-.32c.11.05.21.1.32.15Z"/>
        <path class="cls-1" d="M94.99,31.55h.69v-4.85l-18.55,1.96v7.73l18.55,1.96v-4.85h-.69v-1.96ZM94.69,37.27l-16.6-1.75v-5.97l16.6-1.75v9.47Z"/>
        <rect class="cls-1" x="94.99" y="31.55" width=".69" height="1.96"/>
        <path class="cls-1" d="M78.1,35.51l16.6,1.75v-9.47l-16.6,1.75v5.97ZM79.08,30.43l14.64-1.55v7.3l-14.64-1.55v-4.2Z"/>
        <rect class="cls-1" x="55.86" y="31.55" width="15.24" height="1.96"/>
        <rect class="cls-1" x="66.31" y="21.06" width="1.96" height="8.28" transform="translate(17.72 77.22) rotate(-66.91)"/>
        <rect class="cls-1" x="63.15" y="38.88" width="8.29" height="1.96" transform="translate(-10.24 29.6) rotate(-23.1)"/>
        <path class="cls-1" d="M110.73,87.55v-8.77h-28.22c-.04.48-.07.96-.07,1.44v5.2l18.36,1.78c3.32.32,6.63.42,9.92.34Z"/>
        <path class="cls-1" d="M110.73,87.55c6.57-.16,13.09-1.09,19.48-2.82l8.8-2.39v-2.11c0-.49-.03-.97-.07-1.44h-28.22v8.77Z"/>
        <path class="cls-1" d="M110.73,64h-17.95c-5.68,2.68-9.74,8.24-10.27,14.79h28.22v-14.79Z"/>
        <path class="cls-1" d="M110.73,63.02h-15.43c-.87.26-1.71.6-2.52.98h17.95v-.98Z"/>
        <path class="cls-1" d="M110.73,62.28h-10.34c-1.77,0-3.48.26-5.09.74h15.43v-.74Z"/>
        <path class="cls-1" d="M110.73,78.79h28.22c-.53-6.55-4.59-12.11-10.27-14.79h-17.95v14.79Z"/>
        <path class="cls-1" d="M110.73,64h17.95c-.81-.38-1.65-.72-2.52-.98h-15.43v.98Z"/>
        <path class="cls-1" d="M110.73,62.28h0v.74h15.43c-1.62-.48-3.33-.74-5.09-.74h-10.34Z"/>
        <rect class="cls-1" x="128" y="61.5" height=".64" transform="translate(-5.82 109.73) rotate(-45.48)"/>
        <path class="cls-1" d="M129.23,63.02h0s0,0,0,0v.2c5.93,2.85,10.14,8.69,10.66,15.57h.94c-.51-7.02-4.69-13.04-10.62-16.15v.38h-.98Z"/>
        <path class="cls-1" d="M121.07,61.34c1.74,0,3.42.26,5.03.7h2.13l-.45-.45c-2.1-.76-4.35-1.19-6.71-1.19h-10.34v.94h10.34Z"/>
        <rect class="cls-1" x="129.23" y="63.02" width="0" height="0"/>
        <path class="cls-1" d="M128.25,62.04v-.28c-.15-.06-.31-.11-.47-.16l.45.45h.02Z"/>
        <rect class="cls-1" x="128.24" y="62.03" height=".02" transform="translate(-5.96 109.85) rotate(-45.42)"/>
        <path class="cls-1" d="M129.23,63.21v-.2h-.41c.14.06.27.13.41.2Z"/>
        <path class="cls-1" d="M126.1,62.04c.74.2,1.46.44,2.15.72v-.71l-.02-.02h-2.13Z"/>
        <polygon class="cls-1" points="128.82 63.02 128.82 63.02 129.23 63.02 129.23 63.02 128.82 63.02"/>
        <polygon class="cls-1" points="128.25 62.05 128.25 62.04 128.23 62.04 128.25 62.05"/>
        <path class="cls-1" d="M129.23,63.02h.98v-.38c-.32-.17-.65-.31-.98-.46v.83Z"/>
        <path class="cls-1" d="M128.91,62.04c-.22-.1-.44-.19-.66-.28v.28h.66Z"/>
        <rect class="cls-1" x="128.74" y="61.85" height="1.37" transform="translate(-6.1 110.53) rotate(-45.5)"/>
        <path class="cls-1" d="M128.25,62.76c.19.08.38.17.57.26h.41l-.98-.96v.71Z"/>
        <path class="cls-1" d="M128.25,62.04v.02l.98.96v-.83c-.11-.05-.21-.1-.32-.15h-.66Z"/>
        <path class="cls-1" d="M128.68,64c5.68,2.68,9.74,8.24,10.27,14.79h.94c-.52-6.89-4.73-12.73-10.66-15.57v.78h-.55Z"/>
        <path class="cls-1" d="M126.1,62.04c-1.6-.44-3.28-.7-5.03-.7h-10.34v.7h15.36Z"/>
        <path class="cls-1" d="M126.16,63.02c.87.26,1.71.6,2.52.98h.55v-.78c-.14-.06-.27-.13-.41-.2h-2.66Z"/>
        <path class="cls-1" d="M110.73,62.04v.24h10.34c1.77,0,3.48.26,5.09.74h2.66s0,0,0,0h-.57v-.26c-.7-.29-1.42-.52-2.15-.72h-15.36Z"/>
        <path class="cls-1" d="M128.82,63.02c-.19-.09-.38-.18-.57-.26v.26h.57Z"/>
        <path class="cls-1" d="M91.26,63.7v-1.06c-5.93,3.1-10.11,9.12-10.62,16.15h.94c.49-6.5,4.27-12.09,9.68-15.09Z"/>
        <path class="cls-1" d="M95.37,62.04c1.6-.44,3.28-.7,5.03-.7h10.34v-.94h-10.34c-2.53,0-4.95.49-7.18,1.36v.28h2.15Z"/>
        <path class="cls-1" d="M92.64,63.02h-.41v-.83c-.33.15-.66.29-.98.46v1.06c.45-.25.92-.47,1.39-.68Z"/>
        <path class="cls-1" d="M93.22,62.04v-.28c-.33.13-.65.28-.98.43v.83h.41c.88-.39,1.79-.72,2.73-.98h-2.15Z"/>
        <path class="cls-1" d="M92.79,64h-1.53v-.29c-5.42,3-9.19,8.58-9.68,15.09h.94c.53-6.55,4.59-12.11,10.27-14.79Z"/>
        <path class="cls-1" d="M100.4,61.34c-1.74,0-3.42.26-5.03.7h15.36v-.7h-10.34Z"/>
        <path class="cls-1" d="M92.79,64c.81-.38,1.65-.72,2.52-.98h-2.66c-.47.21-.94.44-1.39.68v.29h1.53Z"/>
        <path class="cls-1" d="M100.4,62.28h10.34v-.24h-15.36c-.94.26-1.85.58-2.73.98h2.66c1.62-.48,3.33-.74,5.09-.74Z"/>
        <path class="cls-1" d="M110.12,123.91l-14.32-14.31c-.11-.11-.21-.23-.3-.36l-.11-.14c-1.23-1.45-1.88-3.19-1.88-5.03,0-2.08.81-4.05,2.29-5.53,1.48-1.47,3.44-2.29,5.53-2.29s4.06.81,5.53,2.29l3.26,3.26.61-.61v-11.74c-.66.02-1.32.03-1.98.03-2.7,0-5.42-.13-8.13-.39l-18.18-1.76v35.63c0,4.59,3.73,8.32,8.32,8.32h19.97v-7.98l-.61.61ZM89.41,92.5c.81,0,1.47.66,1.47,1.47s-.66,1.47-1.47,1.47-1.47-.66-1.47-1.47.66-1.47,1.47-1.47ZM87.94,120.21c0-1.62,1.32-2.94,2.94-2.94s2.94,1.32,2.94,2.94-1.32,2.94-2.94,2.94-2.94-1.32-2.94-2.94ZM92.61,129.37c-.95,0-1.73-.77-1.73-1.73s.77-1.73,1.73-1.73,1.73.77,1.73,1.73-.77,1.73-1.73,1.73Z"/>
        <path class="cls-1" d="M110.73,89.44v11.74l2.64-2.64c3.05-3.05,8.02-3.05,11.07,0,1.48,1.47,2.29,3.43,2.29,5.53,0,1.24-.31,2.45-.91,3.61h0c-.41.78-.86,1.41-1.38,1.92l-13.72,13.7v7.98h19.97c4.59,0,8.32-3.73,8.32-8.32v-38.67l-8.31,2.25c-6.55,1.78-13.24,2.74-19.98,2.9ZM134.63,110.03c.81,0,1.47.66,1.47,1.47s-.66,1.47-1.47,1.47-1.47-.66-1.47-1.47.66-1.47,1.47-1.47Z"/>
        <path class="cls-1" d="M139.96,80.23v2.83l.25.91-.25.07v38.93c0,5.11-4.15,9.26-9.26,9.26h-19.97v.94h19.97c5.62,0,10.2-4.58,10.2-10.2v-42.73c0-.49-.04-.97-.07-1.44h-.94c.04.48.07.96.07,1.44Z"/>
        <path class="cls-1" d="M139.02,80.23v2.11l.69-.19.25.91v-2.83c0-.49-.04-.97-.07-1.44h-.94c.04.48.07.96.07,1.44Z"/>
        <path class="cls-1" d="M139.02,122.96c0,4.59-3.73,8.32-8.32,8.32h-19.97v.94h19.97c5.11,0,9.26-4.15,9.26-9.26v-38.93l-.94.25v38.67Z"/>
        <path class="cls-1" d="M110.73,132.22h-19.97c-5.11,0-9.26-4.15-9.26-9.26v-35.73h-.09s.09-.94.09-.94v-6.06c0-.49.04-.97.07-1.44h-.94c-.03.48-.07.96-.07,1.44v42.73c0,5.62,4.57,10.2,10.2,10.2h19.97v-.94h0Z"/>
        <path class="cls-1" d="M82.44,85.44v-5.2c0-.49.03-.97.07-1.44h-.94c-.04.48-.07.96-.07,1.44v6.06l.09-.94.85.08Z"/>
        <path class="cls-1" d="M90.76,131.28c-4.59,0-8.32-3.73-8.32-8.32v-35.63l-.94-.09v35.73c0,5.11,4.15,9.26,9.26,9.26h19.97v-.94h-19.97Z"/>
        <polygon class="cls-1" points="140.21 83.97 139.96 83.06 139.96 84.03 140.21 83.97"/>
        <polygon class="cls-1" points="139.02 82.34 139.02 84.29 139.96 84.03 139.96 83.06 139.72 82.15 139.02 82.34"/>
        <polygon class="cls-1" points="81.42 87.22 81.51 87.23 81.51 86.29 81.42 87.22"/>
        <polygon class="cls-1" points="82.44 85.44 81.6 85.35 81.51 86.29 81.51 87.23 82.44 87.32 82.44 85.44"/>
        <circle class="cls-1" cx="90.88" cy="120.21" r="2.94"/>
        <circle class="cls-1" cx="92.61" cy="127.64" r="1.73"/>
        <path class="cls-1" d="M134.63,112.97c.81,0,1.47-.66,1.47-1.47s-.66-1.47-1.47-1.47-1.47.66-1.47,1.47.66,1.47,1.47,1.47Z"/>
        <path class="cls-1" d="M89.41,95.44c.81,0,1.47-.66,1.47-1.47s-.66-1.47-1.47-1.47-1.47.66-1.47,1.47.66,1.47,1.47,1.47Z"/>
      </g>
    </g>
  </g>
</svg>