<?xml version="1.0" encoding="UTF-8"?>
<svg id="Layer_2" data-name="Layer 2" xmlns="http://www.w3.org/2000/svg" viewBox="0 0 321.2 148.2">
  <defs>
    <style>
      .cls-1 {
        fill: #9d8d7a;
      }

      .cls-2 {
        fill: #dfd2c0;
      }

      .cls-3 {
        fill: #706354;
      }
    </style>
  </defs>
  <g id="Layer_1-2" data-name="Layer 1">
    <g>
      <g>
        <path class="cls-2" d="M14.88.82h291.45c7.76,0,14.06,6.3,14.06,14.06v118.45c0,7.76-6.3,14.06-14.06,14.06H14.88c-7.76,0-14.06-6.3-14.06-14.06V14.88C.82,7.12,7.12.82,14.88.82Z"/>
        <path class="cls-1" d="M306.32,1.63c7.3,0,13.24,5.94,13.24,13.24v118.45c0,7.3-5.94,13.24-13.24,13.24H14.88c-7.3,0-13.24-5.94-13.24-13.24V14.88C1.63,7.57,7.57,1.63,14.88,1.63h291.44M306.32,0H14.88C6.66,0,0,6.66,0,14.88v118.45c0,8.22,6.66,14.88,14.88,14.88h291.44c8.22,0,14.88-6.66,14.88-14.88V14.88c0-8.22-6.66-14.88-14.88-14.88h0Z"/>
      </g>
      <g>
        <path class="cls-3" d="M94.59,95.27l-9.06-17.29h-9.12v17.29h-7.9v-42.62h16c10.83,0,17.29,4.26,17.29,12.72,0,5.87-3.06,9.64-8.51,11.43l10.01,18.47h-8.71ZM83.97,71.8c6.67,0,9.94-1.61,9.94-6.42s-3.27-6.49-9.94-6.49h-7.56v12.91h7.56Z"/>
        <path class="cls-3" d="M140.27,52.65v6.24h-20.9v11.24h18.86v6.18h-18.86v12.79h20.9v6.18h-28.8v-42.62h28.8Z"/>
        <path class="cls-3" d="M173.57,62.97c-2.32-2.9-4.83-4.63-10.14-4.63-4.83,0-7.69,1.98-7.69,5.56,0,4.08,3.54,5.68,10.08,6.98,9.46,1.85,14.37,5.07,14.37,12.72,0,6.36-4.7,12.23-16,12.23-8.03,0-13.68-2.22-17.57-6.98l6.2-3.89c2.79,3.03,5.58,4.63,10.96,4.63,6.47,0,8.51-2.59,8.51-5.68,0-3.4-2.11-5.5-10.28-7.1-9.05-1.73-14.16-5.68-14.16-12.91,0-6.42,4.63-11.8,15.66-11.8,7.49,0,12.73,2.29,16.07,6.98l-5.99,3.89Z"/>
        <path class="cls-3" d="M218.3,52.65v6.24h-20.9v11.24h18.86v6.18h-18.86v12.79h20.9v6.18h-28.8v-42.62h28.8Z"/>
        <path class="cls-3" d="M257.38,52.65v6.24h-13.48v36.38h-7.9v-36.38h-13.55v-6.24h34.93Z"/>
      </g>
    </g>
  </g>
</svg>