<?xml version="1.0" encoding="UTF-8"?>
<svg id="Layer_2" data-name="Layer 2" xmlns="http://www.w3.org/2000/svg" viewBox="0 0 516.28 202.08">
  <defs>
    <style>
      .cls-1 {
        fill: none;
        stroke: #081a1d;
        stroke-miterlimit: 10;
        stroke-width: 21.96px;
      }

      .cls-2 {
        fill: #231f20;
      }

      .cls-3 {
        fill: #9d7c4f;
      }

      .cls-4 {
        fill: #fff;
      }
    </style>
  </defs>
  <g id="Layer_1-2" data-name="Layer 1">
    <g>
      <rect class="cls-1" x="10.98" y="10.98" width="494.32" height="180.12" rx="90.06" ry="90.06"/>
      <g>
        <rect class="cls-2" x="28.98" y="28.98" width="458.32" height="144.12" rx="72.06" ry="72.06"/>
        <g>
          <path class="cls-3" d="M176.06,80.82v2.71c0,1.01-.84,1.83-1.87,1.83h-30.04c-.38,0-.7.31-.7.68v10.92c0,.38.31.68.7.68h21.57c1.03,0,1.87.82,1.87,1.84v2.71c0,1.01-.84,1.83-1.87,1.83h-21.57c-.38,0-.7.31-.7.68v8.99c0,.38.31.68.7.68h30.04c1.03,0,1.87.82,1.87,1.83v2.71c0,1.01-.84,1.83-1.87,1.83h-35.33c-1.04.01-1.88-.81-1.88-1.82v-32.91c0-.38-.31-.68-.7-.68h-.52c-.69,0-1.32-.37-1.65-.96l-1.5-2.7c-.32-.57-.31-1.25.03-1.81.34-.56.94-.9,1.61-.9h39.92c1.03,0,1.87.83,1.87,1.84Z"/>
          <path class="cls-3" d="M230.24,80.78v38.2c0,.99-.83,1.8-1.84,1.8h-4.63v-.86c0-3.84-1.36-7.55-3.83-10.44-3.38-3.96-7.98-7.04-13.67-9.16-5.54-2.06-10.25-4.85-13.98-8.29-.28-.26-.6-.15-.69-.11-.1.04-.41.21-.41.61v26.45c0,.99-.83,1.8-1.84,1.8h-2.79c-1.01,0-1.84-.81-1.84-1.8v-32.98c0-.36-.3-.65-.66-.65h-.6c-.67,0-1.29-.36-1.61-.94l-1.54-2.77c-.31-.56-.3-1.23.03-1.78.33-.55.93-.88,1.58-.88h7.84c.66,0,1.26.35,1.57.92,1.28,2.4,6.29,10.53,17.21,14.59,5.59,2.08,10.34,5,14.12,8.68.28.27.6.17.7.13.2-.08.42-.29.42-.61v-21.91c0-.99.82-1.8,1.84-1.8h2.79c1.01,0,1.84.81,1.84,1.8Z"/>
          <path class="cls-3" d="M277.59,79.84c.32.53.33,1.18.03,1.72l-1.6,2.85c-.31.56-.91.9-1.56.9h-13.84c-.33,0-.6.26-.6.59v33.13c0,.96-.8,1.74-1.78,1.74h-2.91c-.98,0-1.78-.78-1.78-1.74v-33.13c0-.33-.27-.59-.6-.59h-13.84c-.65,0-1.24-.35-1.56-.9l-1.6-2.85c-.31-.54-.29-1.19.03-1.72.32-.53.9-.85,1.53-.85h38.55c.64,0,1.21.32,1.53.85Z"/>
          <path class="cls-3" d="M324.24,80.82v2.71c0,1.01-.84,1.83-1.87,1.83h-30.04c-.38,0-.7.31-.7.68v10.92c0,.38.31.68.7.68h21.57c1.03,0,1.87.82,1.87,1.84v2.71c0,1.01-.84,1.83-1.87,1.83h-21.57c-.38,0-.7.31-.7.68v8.99c0,.38.31.68.7.68h30.04c1.03,0,1.87.82,1.87,1.83v2.71c0,1.01-.84,1.83-1.87,1.83h-35.33c-1.04.01-1.88-.81-1.88-1.82v-32.91c0-.38-.31-.68-.7-.68h-.52c-.69,0-1.32-.37-1.65-.96l-1.5-2.7c-.32-.57-.31-1.25.03-1.81.34-.56.94-.9,1.61-.9h39.92c1.03,0,1.87.83,1.87,1.84Z"/>
          <path class="cls-3" d="M399.89,128.63l-.03,2.77c-.01.94-.78,1.69-1.74,1.7h-.11s-.98-.02-.98-.02c-15.63-.38-19.73-2.75-32.69-18.43-2.25-2.73-5.35-5.4-9.75-8.41-3.11-2.13-8.58-2.97-10.79-3.23-.82-.1-1.44-.78-1.44-1.58v-2.98c0-.97.8-1.75,1.79-1.75h21.28c3.45,0,6.26-2.57,6.26-5.73s-2.81-5.73-6.26-5.73h-25.39c-.34,0-.62.27-.62.6v33.19c0,.97-.8,1.75-1.79,1.75h-2.88c-.99,0-1.79-.79-1.79-1.75v-33.06c0-.33-.28-.6-.62-.6h-.68c-.66,0-1.26-.35-1.57-.91l-1.59-2.86c-.31-.55-.29-1.2.03-1.74.33-.54.9-.86,1.54-.86h35.36c6.96.01,12.63,5.38,12.63,11.97s-5.66,11.96-12.63,11.96h-2.79c-.4,0-.54.3-.57.39-.03.1-.12.43.21.68,2.71,2.11,5.07,4.38,7.02,6.74,12.36,14.95,14.84,15.86,28.64,16.13l.33.02c.93.07,1.65.83,1.63,1.74Z"/>
        </g>
        <g>
          <path class="cls-4" d="M86.25,107.57c6.38,0,12.16-2.49,16.47-6.53-4.32-4.04-10.1-6.53-16.47-6.53s-12.16,2.49-16.47,6.53c4.32,4.04,10.1,6.53,16.47,6.53"/>
          <path class="cls-4" d="M430.02,94.51c-6.38,0-12.16,2.49-16.47,6.53,4.32,4.04,10.1,6.53,16.47,6.53s12.16-2.49,16.47-6.53c-4.32-4.04-10.1-6.53-16.47-6.53"/>
        </g>
      </g>
    </g>
  </g>
</svg>