<?xml version="1.0" encoding="UTF-8"?>
<svg id="Layer_2" data-name="Layer 2" xmlns="http://www.w3.org/2000/svg" xmlns:xlink="http://www.w3.org/1999/xlink" viewBox="0 0 873.41 2036.96">
  <defs>
    <style>
      .cls-1, .cls-2, .cls-3 {
        fill: none;
      }

      .cls-4 {
        fill: #f7b52c;
      }

      .cls-2, .cls-3 {
        stroke: #081a1d;
        stroke-miterlimit: 10;
        stroke-width: 19.53px;
      }

      .cls-5 {
        fill: #6db260;
      }

      .cls-6 {
        fill: #9d7c4f;
      }

      .cls-7 {
        fill: #081a1d;
      }

      .cls-8 {
        fill: #091a1d;
      }

      .cls-9 {
        fill: #5e7dbc;
      }

      .cls-10 {
        fill: #f7e9d5;
      }

      .cls-3 {
        stroke-linecap: round;
      }

      .cls-11 {
        fill: #974498;
      }

      .cls-12 {
        clip-path: url(#clippath);
      }

      .cls-13 {
        fill: #ed4523;
      }
    </style>
    <clipPath id="clippath">
      <rect class="cls-1" x="13.39" y="10.29" width="849.76" height="663.66" rx="28.4" ry="28.4"/>
    </clipPath>
  </defs>
  <g id="Layer_1-2" data-name="Layer 1">
    <path class="cls-5" d="M56,7.07h764.54c23.52,0,42.61,19.09,42.61,42.61v591.29c0,18.2-14.78,32.97-32.97,32.97H39.81c-14.58,0-26.42-11.84-26.42-26.42V49.69C13.39,26.17,32.48,7.07,56,7.07Z"/>
    <g class="cls-12">
      <g>
        <path class="cls-8" d="M343.06,13.54c5.14,0,9.07-3.93,9.07-9.07v-39.3h87.67c5.14,0,9.07-3.93,9.07-9.07v-48.37c0-5.14-3.93-9.07-9.06-9.07h-145.11c-5.14,0-9.07,3.93-9.07,9.07v39.3h-30.23v-39.3c0-5.14-3.94-9.07-9.07-9.07h-96.74c-5.14,0-9.07,3.93-9.07,9.07V-4.6h-30.23v-87.67c0-5.14-3.93-9.07-9.07-9.07h-48.37c-5.14,0-9.07,3.93-9.07,9.07v39.3H13.55v-48.37H-4.59v57.44c0,5.14,3.93,9.07,9.07,9.07h48.37c5.14,0,9.07-3.93,9.07-9.07v-39.3h30.23V4.47c0,5.14,3.93,9.07,9.07,9.07h48.37c5.14,0,9.07-3.93,9.07-9.07v-87.67h78.61v30.23h-39.3c-5.14,0-9.07,3.93-9.07,9.07V4.46c0,5.14,3.93,9.07,9.07,9.07h39.3v193.48h18.14V4.47c0-5.14-3.93-9.07-9.07-9.07h-39.3v-30.23h87.67c5.14,0,9.07-3.93,9.07-9.07v-39.3h126.97v30.23h-87.67c-5.14,0-9.07,3.93-9.07,9.07V-4.6h-39.3c-5.14,0-9.07,3.93-9.07,9.07v193.48c0,5.14,3.93,9.07,9.07,9.07h87.67v30.23h-175.33V101.21s0-57.44,0-57.44h-18.14v48.37h-30.23v-39.3c0-5.14-3.93-9.07-9.07-9.07H13.55V13.54h48.37V-4.6H4.48C-.66-4.6-4.59-.66-4.59,4.47v87.67h-39.3c-5.14,0-9.07,3.93-9.07,9.07v48.37c0,5.14,3.93,9.07,9.07,9.07H-4.59v30.23h-126.96v-30.22h39.3c5.14,0,9.07-3.93,9.07-9.07v-57.44h-18.14v48.37h-30.23v-39.3c0-5.14-3.93-9.07-9.07-9.07h-39.3V4.48c0-5.14-3.93-9.07-9.07-9.07h-154.18V13.55h145.11v78.6h-30.23v-39.3c0-5.14-3.93-9.07-9.07-9.07h-136.04V-34.82h223.7V52.85c0,5.14,3.93,9.07,9.07,9.07H-43.89c5.14,0,9.07-3.93,9.07-9.07V-125.51h-18.14v24.18h-377.88c-5.14,0-9.07,3.93-9.07,9.07v39.3h-30.23v-48.37h-18.14V4.48c0,5.14,3.93,9.07,9.07,9.07h39.3v30.23h-39.3c-5.14,0-9.07,3.93-9.07,9.07v250.92h18.14v-48.37h30.23v78.6h-39.3c-5.14,0-9.07,3.93-9.07,9.07v48.37c0,5.14,3.93,9.07,9.07,9.07h87.67v87.67c0,5.14,3.93,9.07,9.07,9.07h39.3v39.3c0,5.14,3.93,9.07,9.07,9.07h39.3v78.6h-87.66c-5.14,0-9.07,3.94-9.07,9.08v136.04h-78.6v-30.23h39.3c5.14,0,9.07-3.93,9.07-9.07v-48.37c0-5.14-3.93-9.07-9.07-9.07h-39.3v-30.24h39.3c5.14,0,9.07-3.93,9.07-9.07v-48.37c0-5.14-3.93-9.07-9.07-9.07h-39.3v-126.97h30.23v87.67c0,5.14,3.93,9.07,9.07,9.07h39.3v39.3c0,5.14,3.93,9.07,9.07,9.07h57.44v-18.14h-48.36s0-39.3,0-39.3c0-5.14-3.93-9.07-9.07-9.07h-39.3v-87.67c0-5.14-3.93-9.07-9.07-9.07h-48.37c-5.14,0-9.07,3.93-9.07,9.06v145.11c0,5.14,3.93,9.07,9.07,9.07h39.3v30.23h-39.3c-5.14,0-9.07,3.94-9.07,9.07v48.37c0,5.14,3.93,9.07,9.07,9.07h39.3v30.23h-39.3c-5.14,0-9.07,3.93-9.07,9.07v48.37c0,5.14,3.93,9.07,9.07,9.07h87.67v30.23h-96.74v18.15h105.81c5.14,0,9.07-3.93,9.07-9.07v-39.3h30.23v39.3c0,5.14,3.93,9.07,9.07,9.07H-92.26c5.14,0,9.07-3.93,9.07-9.07v-39.3H43.77v30.23H-52.97v18.14H52.84c5.14,0,9.07-3.93,9.07-9.07v-48.37c0-5.14-3.93-9.07-9.07-9.07H-92.27c-5.14,0-9.07,3.93-9.07,9.07v39.3h-175.32v-30.23h136.04c5.14,0,9.07-3.93,9.07-9.07v-39.3H-43.88c5.14,0,9.07-3.93,9.07-9.07v-87.67h223.7v39.3c0,5.14,3.93,9.07,9.07,9.07h48.37c5.14,0,9.07-3.93,9.07-9.07v-96.74c0-5.14-3.93-9.07-9.07-9.07H110.28v-39.3c0-5.14-3.93-9.07-9.07-9.07h-39.3v-39.3c0-5.14-3.93-9.07-9.07-9.07H4.48c-5.14,0-9.07,3.93-9.07,9.07v39.3h-30.23v-78.6H4.48c5.14,0,9.07-3.93,9.07-9.07v-33.25H-4.59v24.18h-39.3c-5.14,0-9.07,3.93-9.07,9.07v96.74c0,5.14,3.93,9.07,9.07,9.07H4.48c5.14,0,9.07-3.93,9.07-9.07v-39.3h30.23v39.3c0,5.14,3.93,9.07,9.07,9.07h39.3v39.3c0,5.14,3.93,9.07,9.07,9.07h136.04v78.6h-30.23v-39.3c0-5.14-3.93-9.07-9.07-9.07H-43.89c-5.14,0-9.07,3.93-9.07,9.07v87.67h-126.96v-39.3c0-5.14-3.93-9.07-9.07-9.07h-145.1c-5.14,0-9.07,3.93-9.07,9.06v48.37c0,5.14,3.93,9.07,9.07,9.07h105.81v-18.14h-96.74s0-30.23,0-30.23h126.96v39.3c0,5.14,3.93,9.07,9.07,9.07h39.3v30.23h-136.03c-5.14,0-9.07,3.93-9.07,9.07v39.3h-30.23v-39.3c0-5.14-3.93-9.07-9.07-9.07h-39.3v-126.96h87.67c5.14,0,9.07-3.93,9.07-9.07v-96.74c0-5.14-3.93-9.07-9.07-9.07h-39.3v-30.23h39.3c5.14,0,9.07-3.93,9.07-9.07v-39.3h30.23v184.41c0,5.14,3.93,9.07,9.07,9.07h87.67v39.3c0,5.14,3.93,9.07,9.07,9.07h48.37c5.14,0,9.07-3.93,9.07-9.07v-87.67H61.92v-18.14H-83.19v-39.3c0-5.14-3.93-9.07-9.07-9.07h-39.3v-87.67c0-5.14-3.93-9.07-9.07-9.07h-48.37c-5.14,0-9.07,3.93-9.07,9.07v145.11c0,5.14,3.93,9.07,9.07,9.07h57.44v-18.14h-48.37v-126.96h30.23v87.67c0,5.14,3.93,9.07,9.07,9.07h39.3v126.96h-30.23v-39.3c0-5.14-3.93-9.07-9.07-9.07h-87.66v-241.84h-18.14v48.37h-39.3c-5.14,0-9.07,3.93-9.07,9.06v39.3h-78.6v-87.67c0-5.14-3.93-9.07-9.07-9.07h-87.67v-30.23h39.3c5.14,0,9.07-3.93,9.07-9.07V110.3h78.6v30.23h-48.37v18.14h57.44c5.14,0,9.07-3.93,9.07-9.07v-39.3h30.23v78.6h-87.67c-5.14,0-9.07,3.93-9.07,9.07v48.37c0,5.14,3.93,9.07,9.07,9.07h57.44v-18.14h-48.37s0-30.22,0-30.22h87.67c5.14,0,9.07-3.93,9.07-9.07v-96.74c0-5.14-3.93-9.07-9.07-9.07h-145.11c-5.14,0-9.07,3.93-9.07,9.07v136.04h-30.23V61.94h39.3c5.14,0,9.07-3.93,9.07-9.07V4.5c0-5.14-3.93-9.07-9.07-9.07h-39.3v-30.23h39.3c5.14,0,9.07-3.93,9.07-9.07v-39.3H-52.95V-4.57h-30.23v-48.37h-18.14V4.5c0,5.14,3.93,9.07,9.07,9.07h39.3v30.23h-78.6V-43.87c0-5.14-3.93-9.07-9.06-9.07h-241.85c-5.14,0-9.07,3.93-9.07,9.06V52.87c0,5.14,3.93,9.07,9.07,9.07h136.04v39.3c0,5.14,3.93,9.07,9.07,9.07h87.67v126.96h-30.23v-39.3c0-5.14-3.93-9.07-9.07-9.07h-39.3s0-30.22,0-30.22h48.37v-18.14h-57.44c-5.14,0-9.07,3.93-9.07,9.07v48.37c0,5.14,3.93,9.07,9.07,9.07h39.3v39.3c0,5.14,3.93,9.07,9.07,9.07h48.37c5.14,0,9.07-3.93,9.07-9.07v-39.3H-52.95v30.23h-39.3c-5.14,0-9.07,3.93-9.07,9.07v39.3h-39.3c-5.14,0-9.07,3.93-9.07,9.07v87.67h-30.23v-87.67c0-5.14-3.93-9.07-9.07-9.07h-48.37c-5.14,0-9.07,3.94-9.07,9.07v39.3h-126.96v-30.23h87.67c5.14,0,9.07-3.93,9.07-9.07v-39.3h48.37v-18.14h-57.44c-5.14,0-9.07,3.93-9.07,9.07v39.3h-87.67c-5.14,0-9.07,3.93-9.07,9.07v48.37c0,5.14,3.93,9.07,9.07,9.07h87.67v30.23h-39.3c-5.14,0-9.07,3.94-9.07,9.07v57.44h18.14v-48.37h39.3c5.14,0,9.07-3.93,9.07-9.07v-39.3h39.3c5.14,0,9.07-3.93,9.07-9.07v-39.3h30.23v87.67c0,5.14,3.93,9.07,9.07,9.07h48.37c5.14,0,9.07-3.93,9.07-9.07v-39.3h30.23v145.11h18.14v-154.18c0-5.14-3.93-9.07-9.07-9.07h-39.3v-30.23h39.3c5.14,0,9.07-3.93,9.07-9.07v-39.3h30.23v48.37h18.14v-96.74H4.5c5.14,0,9.07-3.93,9.07-9.07v-48.38c0-5.14-3.92-9.07-9.06-9.07h-39.3v-30.23s39.3,0,39.3,0c5.14,0,9.07-3.93,9.07-9.07v-39.3h126.97v78.6H61.94v-30.23h48.37v-18.14h-57.44c-5.14,0-9.07,3.93-9.07,9.07v48.37c0,5.14,3.93,9.07,9.07,9.07h96.74c5.14,0,9.07-3.93,9.07-9.07v-39.3h30.23v136.04c0,5.14,3.93,9.07,9.07,9.07h39.3v30.23H101.23c-5.14,0-9.07,3.93-9.07,9.07v39.3h-30.23v-126.96h30.23v39.3c0,5.14,3.93,9.07,9.07,9.07h48.37c5.14,0,9.07-3.93,9.07-9.07v-57.44h-18.14v48.37h-30.23v-39.3c0-5.14-3.93-9.07-9.07-9.07h-48.37c-5.14,0-9.07,3.93-9.07,9.07v87.67H13.57v-48.37H-4.57v57.44c0,5.14,3.93,9.07,9.07,9.07h39.3v39.3c0,5.14,3.93,9.07,9.07,9.07h39.3v78.6h-30.23v-48.37h-18.14v57.44c0,5.14,3.93,9.07,9.07,9.07h39.3v39.3c0,5.14,3.93,9.07,9.07,9.07h39.3v39.3c0,5.14,3.93,9.07,9.07,9.07h184.41v39.3c0,5.14,3.93,9.07,9.07,9.07h39.3v30.23h-39.3c-5.14,0-9.07,3.93-9.07,9.07v48.37c0,5.14,3.93,9.07,9.07,9.07h39.3v30.23h-39.3c-5.14,0-9.07,3.93-9.07,9.07v39.3h-126.96v-30.23h87.67c5.14,0,9.07-3.93,9.07-9.07v-154.18h-18.14v145.11h-87.67c-5.14,0-9.07,3.93-9.07,9.07v87.66h-78.6v-30.23h39.3c5.14,0,9.07-3.93,9.07-9.07v-96.74c0-5.14-3.93-9.07-9.07-9.07h-48.37c-5.14,0-9.07,3.93-9.07,9.07v39.3h-30.23v-39.3c0-5.14-3.93-9.07-9.07-9.07H4.51c-5.14,0-9.07,3.93-9.07,9.07v57.44H13.58v-48.37h30.23v39.3c0,5.14,3.93,9.07,9.07,9.07h48.37c5.14,0,9.07-3.93,9.07-9.07v-39.3h30.23v78.6h-39.3c-5.14,0-9.07,3.93-9.07,9.07v48.37c0,5.14,3.93,9.07,9.07,9.07h96.74c5.14,0,9.07-3.93,9.07-9.07v-39.3h30.23v39.3c0,5.14,3.93,9.07,9.07,9.07h193.48c5.14,0,9.07-3.93,9.07-9.07v-48.37c0-5.14-3.93-9.07-9.07-9.07h-57.44v18.14h48.37v30.23h-175.34v-30.23h87.67c5.14,0,9.07-3.93,9.07-9.07v-39.3h96.74v-18.14h-48.37v-30.23h39.3c5.14,0,9.07-3.93,9.07-9.07v-202.55h-18.14v48.37h-30.23v-39.3c0-5.14-3.93-9.07-9.07-9.07h-39.3v-48.37h-18.14v48.37h-145.11v18.14h193.48v39.3c0,5.14,3.93,9.07,9.07,9.07h39.3v126.96h-78.6v-30.23h39.3c5.14,0,9.07-3.93,9.07-9.07v-48.37c0-5.14-3.93-9.07-9.07-9.07h-39.3v-39.3c0-5.14-3.93-9.07-9.07-9.07h-184.41v-39.3c0-5.14-3.93-9.07-9.07-9.07h-39.3v-126.96h126.96v30.23h-87.67c-5.14,0-9.07,3.93-9.07,9.07v57.44h18.14v-48.37h30.23v39.3c0,5.14,3.93,9.07,9.07,9.07h96.74c5.14,0,9.07-3.93,9.07-9.07v-39.3h78.6v39.3c0,5.14,3.93,9.07,9.07,9.07h48.37c5.14,0,9.07-3.93,9.07-9.07v-202.55h-18.14v48.37h-136.04c-5.14,0-9.07,3.93-9.07,9.07v48.37c0,5.14,3.93,9.07,9.07,9.07h105.81v-18.14h-96.74v-30.23h126.96v126.96h-30.23v-39.3c0-5.14-3.93-9.07-9.07-9.07h-96.74c-5.14,0-9.07,3.93-9.07,9.07v39.3h-78.6v-30.23h39.3c5.14,0,9.07-3.93,9.07-9.07v-48.37c0-5.14-3.93-9.07-9.07-9.07H110.28v-30.23h136.04c5.14,0,9.07-3.93,9.07-9.07v-39.3h136.04c5.14,0,9.07-3.93,9.07-9.07v-39.3h39.3c5.14,0,9.07-3.93,9.07-9.07l.02-136.03V4.51c0-5.14-3.93-9.07-9.07-9.07h-57.44V13.58h48.37v30.23h-87.67c-5.14,0-9.07,3.93-9.07,9.07v96.74c0,5.14,3.93,9.07,9.07,9.07h48.37c5.14,0,9.07-3.93,9.07-9.07v-57.44s-18.14,0-18.14,0v48.37h-30.23V61.95s78.6,0,78.6,0v126.96h-126.96V13.58l39.28-.04Z"/>
        <path class="cls-8" d="M1299.75,12.12c5.09,0,8.97-3.89,8.97-8.97v-38.9h86.77c5.09,0,8.97-3.89,8.97-8.97v-47.88c0-5.09-3.89-8.97-8.97-8.97h-143.62c-5.09,0-8.97,3.89-8.97,8.97v38.9h-29.92v-38.9c0-5.09-3.9-8.97-8.98-8.97h-95.75c-5.09,0-8.97,3.89-8.97,8.97V-5.84h-29.92v-86.77c0-5.09-3.89-8.97-8.98-8.97h-47.87c-5.09,0-8.97,3.89-8.97,8.97v38.9h-29.92v-47.87h-17.96v56.85c0,5.09,3.89,8.97,8.97,8.97h47.87c5.09,0,8.97-3.89,8.97-8.97v-38.9h29.92V3.14c0,5.09,3.89,8.97,8.97,8.97h47.87c5.09,0,8.97-3.89,8.97-8.97v-86.77h77.8v29.92h-38.9c-5.09,0-8.97,3.89-8.97,8.97V3.14c0,5.09,3.89,8.97,8.97,8.97h38.9v191.5h17.95V3.14c0-5.09-3.89-8.97-8.98-8.97h-38.9v-29.92h86.77c5.09,0,8.97-3.89,8.97-8.97v-38.9h125.67v29.92h-86.77c-5.09,0-8.97,3.89-8.97,8.97V-5.84h-38.9c-5.09,0-8.97,3.89-8.97,8.97v191.5c0,5.09,3.89,8.97,8.97,8.97h86.77v29.92h-173.54V98.89s0-56.85,0-56.85h-17.95v47.87h-29.92v-38.9c0-5.09-3.89-8.97-8.97-8.97h-134.65V12.12h47.87V-5.83h-56.85c-5.09,0-8.97,3.89-8.97,8.97v86.77h-38.9c-5.09,0-8.97,3.89-8.97,8.97v47.87c0,5.09,3.89,8.97,8.97,8.97h38.9v29.92h-125.67v-29.91h38.9c5.09,0,8.97-3.89,8.97-8.97v-56.85h-17.95v47.87h-29.92v-38.9c0-5.09-3.89-8.97-8.97-8.97h-38.9V3.15c0-5.09-3.89-8.97-8.98-8.97h-152.6V12.13h143.62v77.8h-29.92v-38.9c0-5.09-3.89-8.97-8.97-8.97h-134.65V-35.75h221.42V51.02c0,5.09,3.89,8.97,8.97,8.97h95.75c5.09,0,8.97-3.89,8.97-8.97V-125.51h-17.95v23.94h-374.02c-5.09,0-8.97,3.89-8.97,8.97v38.9h-29.92v-47.87h-17.95V3.15c0,5.09,3.89,8.97,8.97,8.97h38.9v29.92h-38.9c-5.09,0-8.97,3.89-8.97,8.98v248.35h17.95v-47.87h29.92v77.8h-38.9c-5.09,0-8.97,3.89-8.97,8.97v47.87c0,5.09,3.89,8.97,8.97,8.97h86.77v86.77c0,5.09,3.89,8.97,8.97,8.97h38.9v38.9c0,5.09,3.89,8.97,8.97,8.97h38.9v77.8h-86.77c-5.09,0-8.97,3.9-8.97,8.98v134.65h-77.8v-29.92h38.9c5.09,0,8.97-3.89,8.97-8.97v-47.87c0-5.09-3.89-8.97-8.97-8.97h-38.9v-29.93h38.9c5.09,0,8.97-3.89,8.97-8.97v-47.87c0-5.09-3.89-8.97-8.97-8.97h-38.9v-125.67h29.92v86.77c0,5.09,3.89,8.97,8.97,8.97h38.9v38.9c0,5.09,3.89,8.97,8.97,8.97h56.85v-17.95h-47.87s0-38.89,0-38.89c0-5.09-3.89-8.97-8.97-8.97h-38.9v-86.77c0-5.09-3.89-8.97-8.97-8.97h-47.88c-5.09,0-8.97,3.89-8.97,8.97v143.62c0,5.09,3.89,8.97,8.97,8.97h38.9v29.92h-38.9c-5.09,0-8.97,3.9-8.97,8.98v47.87c0,5.09,3.89,8.97,8.97,8.97h38.9v29.92h-38.9c-5.09,0-8.97,3.89-8.97,8.98v47.87c0,5.09,3.89,8.97,8.97,8.97h86.77v29.92h-95.75v17.96h104.73c5.09,0,8.97-3.89,8.97-8.97v-38.9h29.92v38.9c0,5.09,3.89,8.97,8.97,8.97h239.37c5.09,0,8.97-3.89,8.97-8.97v-38.9h125.67v29.92h-95.75v17.95h104.73c5.09,0,8.97-3.89,8.97-8.97v-47.87c0-5.09-3.89-8.97-8.97-8.97h-143.62c-5.09,0-8.97,3.89-8.97,8.97v38.9h-173.53v-29.92h134.65c5.09,0,8.97-3.89,8.97-8.97v-38.9h86.77c5.09,0,8.97-3.89,8.97-8.97v-86.77h221.42v38.9c0,5.09,3.89,8.97,8.97,8.97h47.87c5.09,0,8.97-3.89,8.97-8.97v-95.75c0-5.09-3.89-8.97-8.97-8.97h-134.65v-38.9c0-5.09-3.89-8.97-8.97-8.97h-38.9v-38.9c0-5.09-3.89-8.97-8.97-8.97h-47.87c-5.09,0-8.97,3.89-8.97,8.97v38.9h-29.92v-77.8h38.9c5.09,0,8.97-3.89,8.97-8.97v-32.91h-17.95v23.94h-38.9c-5.09,0-8.97,3.89-8.97,8.97v95.75c0,5.09,3.89,8.97,8.97,8.97h47.87c5.09,0,8.97-3.89,8.97-8.97v-38.9h29.92v38.9c0,5.09,3.89,8.97,8.97,8.97h38.9v38.9c0,5.09,3.89,8.97,8.97,8.97h134.65v77.8h-29.92v-38.9c0-5.09-3.89-8.97-8.97-8.97h-239.37c-5.09,0-8.97,3.89-8.97,8.97v86.77h-125.67v-38.9c0-5.09-3.89-8.97-8.97-8.97h-143.62c-5.09,0-8.97,3.89-8.97,8.97v47.87c0,5.09,3.89,8.97,8.97,8.97h104.73v-17.95h-95.75s0-29.92,0-29.92h125.67v38.9c0,5.09,3.89,8.97,8.97,8.97h38.9v29.92h-134.64c-5.09,0-8.97,3.89-8.97,8.98v38.9h-29.92v-38.9c0-5.09-3.89-8.97-8.97-8.97h-38.9v-125.67h86.77c5.09,0,8.97-3.89,8.97-8.97v-95.75c0-5.09-3.89-8.97-8.97-8.97h-38.9v-29.92h38.9c5.09,0,8.97-3.89,8.97-8.97v-38.9h29.92v182.52c0,5.09,3.89,8.97,8.97,8.97h86.77v38.9c0,5.09,3.89,8.97,8.97,8.97h47.87c5.09,0,8.97-3.89,8.97-8.97v-86.77h143.62v-17.95h-143.62v-38.9c0-5.09-3.89-8.97-8.97-8.97h-38.9v-86.77c0-5.09-3.89-8.97-8.97-8.97h-47.87c-5.09,0-8.97,3.89-8.97,8.97v143.62c0,5.09,3.89,8.97,8.97,8.97h56.85v-17.95h-47.87v-125.67h29.92v86.77c0,5.09,3.89,8.97,8.97,8.97h38.9v125.67h-29.92v-38.9c0-5.09-3.89-8.97-8.97-8.97h-86.77v-239.37h-17.95v47.87h-38.9c-5.09,0-8.97,3.89-8.97,8.97v38.9h-77.8v-86.77c0-5.09-3.89-8.97-8.97-8.97h-86.77v-29.92h38.9c5.09,0,8.97-3.89,8.97-8.97V107.89h77.8v29.92h-47.87v17.96h56.85c5.09,0,8.97-3.89,8.97-8.97v-38.9h29.92v77.8h-86.77c-5.09,0-8.97,3.89-8.97,8.97v47.87c0,5.09,3.89,8.97,8.97,8.97h56.85v-17.95h-47.87s0-29.91,0-29.91h86.77c5.09,0,8.97-3.89,8.97-8.97v-95.75c0-5.09-3.89-8.97-8.97-8.97h-143.62c-5.09,0-8.97,3.89-8.97,8.97v134.65h-29.92V60.02h38.9c5.09,0,8.97-3.89,8.97-8.97V3.17c0-5.09-3.89-8.97-8.97-8.97h-38.9v-29.92h38.9c5.09,0,8.97-3.89,8.97-8.97v-38.9h365.04V-5.8h-29.92v-47.88h-17.95V3.17c0,5.09,3.89,8.97,8.97,8.97h38.9v29.92h-77.8V-44.7c0-5.09-3.89-8.97-8.97-8.97h-239.37c-5.09,0-8.97,3.89-8.97,8.97V51.04c0,5.09,3.89,8.97,8.97,8.97h134.65v38.9c0,5.09,3.89,8.97,8.97,8.97h86.77v125.67h-29.92v-38.9c0-5.09-3.89-8.97-8.97-8.97h-38.9s0-29.91,0-29.91h47.87v-17.95h-56.85c-5.09,0-8.97,3.89-8.97,8.97v47.87c0,5.09,3.89,8.97,8.97,8.97h38.9v38.9c0,5.09,3.89,8.97,8.97,8.97h47.87c5.09,0,8.97-3.89,8.97-8.97v-38.9h77.8v29.92h-38.9c-5.09,0-8.97,3.89-8.97,8.97v38.9h-38.9c-5.09,0-8.97,3.89-8.97,8.97v86.77h-29.92v-86.77c0-5.09-3.89-8.97-8.97-8.97h-47.88c-5.09,0-8.97,3.9-8.97,8.98v38.9h-125.67v-29.92h86.77c5.09,0,8.97-3.89,8.97-8.97v-38.9h47.87v-17.95h-56.85c-5.09,0-8.97,3.89-8.97,8.97v38.9h-86.77c-5.09,0-8.97,3.89-8.97,8.97v47.87c0,5.09,3.89,8.97,8.97,8.97h86.77v29.92h-38.9c-5.09,0-8.97,3.9-8.97,8.98v56.85h17.95v-47.87h38.9c5.09,0,8.97-3.89,8.97-8.97v-38.9h38.9c5.09,0,8.97-3.89,8.97-8.97v-38.9h29.92v86.77c0,5.09,3.89,8.97,8.97,8.97h47.87c5.09,0,8.97-3.89,8.97-8.97v-38.9h29.92v143.62h17.95v-152.6c0-5.09-3.89-8.97-8.97-8.97h-38.9v-29.92h38.9c5.09,0,8.97-3.89,8.97-8.97v-38.9h29.92v47.87h17.95v-95.75h38.9c5.09,0,8.97-3.89,8.97-8.97v-47.88c0-5.09-3.88-8.97-8.97-8.97h-38.9v-29.92s38.89,0,38.89,0c5.09,0,8.97-3.89,8.97-8.97v-38.9h125.67v77.79h-77.8v-29.92h47.87v-17.95h-56.85c-5.09,0-8.97,3.89-8.97,8.97v47.87c0,5.09,3.89,8.97,8.97,8.97h95.75c5.09,0,8.97-3.89,8.97-8.97v-38.9h29.92v134.65c0,5.09,3.89,8.97,8.97,8.97h38.9v29.92h-134.65c-5.09,0-8.97,3.89-8.97,8.97v38.9h-29.92v-125.67h29.92v38.9c0,5.09,3.89,8.97,8.97,8.97h47.87c5.09,0,8.97-3.89,8.97-8.97v-56.85h-17.95v47.87h-29.92v-38.9c0-5.09-3.89-8.97-8.97-8.97h-47.87c-5.09,0-8.97,3.89-8.97,8.97v86.77h-29.92v-47.87h-17.95v56.85c0,5.09,3.89,8.97,8.97,8.97h38.9v38.9c0,5.09,3.89,8.97,8.97,8.97h38.9v77.8h-29.92v-47.87h-17.95v56.85c0,5.09,3.89,8.97,8.97,8.97h38.9v38.9c0,5.09,3.89,8.97,8.97,8.97h38.9v38.9c0,5.09,3.89,8.97,8.97,8.97h182.52v38.9c0,5.09,3.89,8.97,8.97,8.97h38.9v29.92h-38.9c-5.09,0-8.97,3.89-8.97,8.97v47.87c0,5.09,3.89,8.97,8.97,8.97h38.9v29.92h-38.9c-5.09,0-8.97,3.89-8.97,8.97v38.9h-125.67v-29.92h86.77c5.09,0,8.97-3.89,8.97-8.97v-152.6h-17.95v143.62h-86.77c-5.09,0-8.97,3.89-8.97,8.97v86.77h-77.8v-29.92h38.9c5.09,0,8.97-3.89,8.97-8.97v-95.75c0-5.09-3.89-8.97-8.97-8.97h-47.87c-5.09,0-8.97,3.89-8.97,8.97v38.9h-29.92v-38.9c0-5.09-3.89-8.97-8.97-8.97h-47.87c-5.09,0-8.97,3.89-8.97,8.97v56.85h17.95v-47.87h29.92v38.9c0,5.09,3.89,8.97,8.97,8.97h47.87c5.09,0,8.97-3.89,8.97-8.97v-38.9h29.92v77.8h-38.9c-5.09,0-8.97,3.89-8.97,8.97v47.87c0,5.09,3.89,8.97,8.97,8.97h95.75c5.09,0,8.97-3.89,8.97-8.97v-38.9h29.92v38.9c0,5.09,3.89,8.97,8.97,8.97h191.5c5.09,0,8.97-3.89,8.97-8.97v-47.87c0-5.09-3.89-8.97-8.97-8.97h-56.85v17.95h47.87v29.92h-173.55v-29.92h86.77c5.09,0,8.97-3.89,8.97-8.97v-38.9h95.75v-17.95h-47.87v-29.92h38.9c5.09,0,8.97-3.89,8.97-8.97v-200.48h-17.95v47.87h-29.92v-38.9c0-5.09-3.89-8.97-8.97-8.97h-38.9v-47.87h-17.95v47.87h-143.62v17.95h191.5v38.9c0,5.09,3.89,8.97,8.97,8.97h38.9v125.67h-77.79v-29.92h38.9c5.09,0,8.97-3.89,8.97-8.97v-47.87c0-5.09-3.89-8.97-8.97-8.97h-38.9v-38.9c0-5.09-3.89-8.97-8.97-8.97h-182.52v-38.9c0-5.09-3.89-8.97-8.97-8.97h-38.9v-125.67h125.67v29.92h-86.77c-5.09,0-8.97,3.89-8.97,8.97v56.85h17.95v-47.87h29.92v38.9c0,5.09,3.89,8.97,8.97,8.97h95.75c5.09,0,8.97-3.89,8.97-8.97v-38.9h77.8v38.9c0,5.09,3.89,8.97,8.97,8.97h47.87c5.09,0,8.97-3.89,8.97-8.97v-200.48h-17.95v47.87h-134.65c-5.09,0-8.97,3.89-8.97,8.97v47.87c0,5.09,3.89,8.97,8.97,8.97h104.73v-17.95h-95.75v-29.92h125.67v125.67h-29.92v-38.9c0-5.09-3.89-8.97-8.97-8.97h-95.75c-5.09,0-8.97,3.89-8.97,8.97v38.9h-77.8v-29.92h38.9c5.09,0,8.97-3.89,8.97-8.97v-47.87c0-5.09-3.89-8.97-8.97-8.97h-134.65v-29.92h134.65c5.09,0,8.97-3.89,8.97-8.97v-38.9h134.65c5.09,0,8.97-3.89,8.97-8.97v-38.9h38.9c5.09,0,8.97-3.89,8.97-8.97l.02-134.64V3.18c0-5.09-3.89-8.97-8.97-8.97h-56.85V12.16h47.87v29.92h-86.77c-5.09,0-8.97,3.89-8.97,8.97v95.75c0,5.09,3.89,8.97,8.97,8.97h47.87c5.09,0,8.97-3.89,8.97-8.97v-56.85s-17.95,0-17.95,0v47.87h-29.92V60.03s77.79,0,77.79,0v125.67h-125.67V12.15l38.88-.04Z"/>
      </g>
    </g>
    <line class="cls-2" x1="0" y1="667.25" x2="873.41" y2="667.25"/>
    <path class="cls-7" d="M822.96,19.53c17.05,0,30.91,13.87,30.91,30.91v1936.06c0,17.05-13.87,30.91-30.91,30.91H50.45c-17.05,0-30.91-13.87-30.91-30.91V50.45c0-17.05,13.87-30.91,30.91-30.91h772.51M822.96,0H50.45C22.59,0,0,22.59,0,50.45v1936.06c0,27.86,22.59,50.45,50.45,50.45h772.51c27.86,0,50.45-22.59,50.45-50.45V50.45c0-27.86-22.59-50.45-50.45-50.45h0Z"/>
    <g>
      <circle class="cls-7" cx="78.86" cy="123.35" r="50.46"/>
      <g>
        <path class="cls-13" d="M73.25,99.09c0,5.48,2.14,10.45,5.61,14.15,3.47-3.71,5.61-8.67,5.61-14.15s-2.14-10.45-5.61-14.15c-3.47,3.71-5.61,8.67-5.61,14.15"/>
        <path class="cls-13" d="M92.04,102.23c-3.87,3.87-5.87,8.9-6.04,13.98,5.08-.17,10.1-2.17,13.98-6.04,3.87-3.87,5.87-8.9,6.04-13.98-5.07.17-10.1,2.17-13.98,6.04"/>
        <path class="cls-13" d="M103.12,117.74c-5.48,0-10.45,2.14-14.15,5.61,3.71,3.47,8.67,5.61,14.15,5.61s10.45-2.14,14.15-5.61c-3.71-3.47-8.67-5.61-14.15-5.61"/>
        <path class="cls-13" d="M99.98,136.54c-3.87-3.87-8.9-5.87-13.98-6.04.17,5.08,2.17,10.1,6.04,13.98,3.87,3.87,8.9,5.87,13.98,6.04-.17-5.07-2.17-10.1-6.04-13.98"/>
        <path class="cls-13" d="M84.48,147.61c0-5.48-2.14-10.45-5.61-14.15-3.47,3.71-5.61,8.67-5.61,14.15s2.14,10.45,5.61,14.15c3.47-3.71,5.61-8.67,5.61-14.15"/>
        <path class="cls-13" d="M65.68,144.47c3.87-3.87,5.87-8.9,6.04-13.98-5.08.17-10.1,2.17-13.98,6.04-3.87,3.87-5.87,8.9-6.04,13.98,5.07-.17,10.1-2.17,13.98-6.04"/>
        <path class="cls-13" d="M54.61,128.97c5.48,0,10.45-2.14,14.15-5.61-3.71-3.47-8.67-5.61-14.15-5.61s-10.45,2.14-14.15,5.61c3.71,3.47,8.67,5.61,14.15,5.61"/>
        <path class="cls-13" d="M57.74,110.17c3.87,3.87,8.9,5.87,13.98,6.04-.17-5.08-2.17-10.1-6.04-13.98-3.87-3.87-8.9-5.87-13.98-6.04.17,5.07,2.17,10.1,6.04,13.98"/>
        <path class="cls-13" d="M86.15,123.35c0,4.03-3.26,7.29-7.29,7.29s-7.29-3.26-7.29-7.29,3.26-7.29,7.29-7.29,7.29,3.26,7.29,7.29"/>
      </g>
    </g>
    <g>
      <circle class="cls-7" cx="651.62" cy="502.75" r="50.46"/>
      <g>
        <path class="cls-9" d="M646,478.49c0,5.48,2.14,10.45,5.61,14.15,3.47-3.71,5.61-8.67,5.61-14.15s-2.14-10.45-5.61-14.15c-3.47,3.71-5.61,8.67-5.61,14.15"/>
        <path class="cls-9" d="M664.8,481.63c-3.87,3.87-5.87,8.9-6.04,13.98,5.08-.17,10.1-2.17,13.98-6.04,3.87-3.87,5.87-8.9,6.04-13.98-5.07.17-10.1,2.17-13.98,6.04"/>
        <path class="cls-9" d="M675.87,497.14c-5.48,0-10.45,2.14-14.15,5.61,3.71,3.47,8.67,5.61,14.15,5.61s10.45-2.14,14.15-5.61c-3.71-3.47-8.67-5.61-14.15-5.61"/>
        <path class="cls-9" d="M672.74,515.93c-3.87-3.87-8.9-5.87-13.98-6.04.17,5.08,2.17,10.1,6.04,13.98,3.87,3.87,8.9,5.87,13.98,6.04-.17-5.07-2.17-10.1-6.04-13.98"/>
        <path class="cls-9" d="M657.23,527.01c0-5.48-2.14-10.45-5.61-14.15-3.47,3.71-5.61,8.67-5.61,14.15s2.14,10.45,5.61,14.15c3.47-3.71,5.61-8.67,5.61-14.15"/>
        <path class="cls-9" d="M638.43,523.87c3.87-3.87,5.87-8.9,6.04-13.98-5.08.17-10.1,2.17-13.98,6.04-3.87,3.87-5.87,8.9-6.04,13.98,5.07-.17,10.1-2.17,13.98-6.04"/>
        <path class="cls-9" d="M627.36,508.36c5.48,0,10.45-2.14,14.15-5.61-3.71-3.47-8.67-5.61-14.15-5.61s-10.45,2.14-14.15,5.61c3.71,3.47,8.67,5.61,14.15,5.61"/>
        <path class="cls-9" d="M630.5,489.57c3.87,3.87,8.9,5.87,13.98,6.04-.17-5.08-2.17-10.1-6.04-13.98-3.87-3.87-8.9-5.87-13.98-6.04.17,5.07,2.17,10.1,6.04,13.98"/>
        <path class="cls-9" d="M658.91,502.75c0,4.03-3.26,7.29-7.29,7.29s-7.29-3.26-7.29-7.29,3.26-7.29,7.29-7.29,7.29,3.26,7.29,7.29"/>
      </g>
    </g>
    <g>
      <circle class="cls-7" cx="174.12" cy="413.3" r="50.46"/>
      <g>
        <path class="cls-10" d="M168.51,389.04c0,5.48,2.14,10.45,5.61,14.15,3.47-3.71,5.61-8.67,5.61-14.15s-2.14-10.45-5.61-14.15c-3.47,3.71-5.61,8.67-5.61,14.15"/>
        <path class="cls-10" d="M187.3,392.18c-3.87,3.87-5.87,8.9-6.04,13.98,5.08-.17,10.1-2.17,13.98-6.04,3.87-3.87,5.87-8.9,6.04-13.98-5.07.17-10.1,2.17-13.98,6.04"/>
        <path class="cls-10" d="M198.38,407.68c-5.48,0-10.45,2.14-14.15,5.61,3.71,3.47,8.67,5.61,14.15,5.61s10.45-2.14,14.15-5.61c-3.71-3.47-8.67-5.61-14.15-5.61"/>
        <path class="cls-10" d="M195.24,426.48c-3.87-3.87-8.9-5.87-13.98-6.04.17,5.08,2.17,10.1,6.04,13.98,3.87,3.87,8.9,5.87,13.98,6.04-.17-5.07-2.17-10.1-6.04-13.98"/>
        <path class="cls-10" d="M179.73,437.55c0-5.48-2.14-10.45-5.61-14.15-3.47,3.71-5.61,8.67-5.61,14.15s2.14,10.45,5.61,14.15c3.47-3.71,5.61-8.67,5.61-14.15"/>
        <path class="cls-10" d="M160.94,434.42c3.87-3.87,5.87-8.9,6.04-13.98-5.08.17-10.1,2.17-13.98,6.04-3.87,3.87-5.87,8.9-6.04,13.98,5.07-.17,10.1-2.17,13.98-6.04"/>
        <path class="cls-10" d="M149.87,418.91c5.48,0,10.45-2.14,14.15-5.61-3.71-3.47-8.67-5.61-14.15-5.61s-10.45,2.14-14.15,5.61c3.71,3.47,8.67,5.61,14.15,5.61"/>
        <path class="cls-10" d="M153,400.12c3.87,3.87,8.9,5.87,13.98,6.04-.17-5.08-2.17-10.1-6.04-13.98-3.87-3.87-8.9-5.87-13.98-6.04.17,5.07,2.17,10.1,6.04,13.98"/>
        <path class="cls-10" d="M181.41,413.3c0,4.03-3.26,7.29-7.29,7.29s-7.29-3.26-7.29-7.29,3.26-7.29,7.29-7.29,7.29,3.26,7.29,7.29"/>
      </g>
    </g>
    <g>
      <circle class="cls-7" cx="513.18" cy="265.3" r="50.46"/>
      <g>
        <path class="cls-4" d="M507.56,241.05c0,5.48,2.14,10.45,5.61,14.15,3.47-3.71,5.61-8.67,5.61-14.15s-2.14-10.45-5.61-14.15c-3.47,3.71-5.61,8.67-5.61,14.15"/>
        <path class="cls-4" d="M526.36,244.18c-3.87,3.87-5.87,8.9-6.04,13.98,5.08-.17,10.1-2.17,13.98-6.04,3.87-3.87,5.87-8.9,6.04-13.98-5.07.17-10.1,2.17-13.98,6.04"/>
        <path class="cls-4" d="M537.43,259.69c-5.48,0-10.45,2.14-14.15,5.61,3.71,3.47,8.67,5.61,14.15,5.61s10.45-2.14,14.15-5.61c-3.71-3.47-8.67-5.61-14.15-5.61"/>
        <path class="cls-4" d="M534.3,278.49c-3.87-3.87-8.9-5.87-13.98-6.04.17,5.08,2.17,10.1,6.04,13.98,3.87,3.87,8.9,5.87,13.98,6.04-.17-5.07-2.17-10.1-6.04-13.98"/>
        <path class="cls-4" d="M518.79,289.56c0-5.48-2.14-10.45-5.61-14.15-3.47,3.71-5.61,8.67-5.61,14.15s2.14,10.45,5.61,14.15c3.47-3.71,5.61-8.67,5.61-14.15"/>
        <path class="cls-4" d="M499.99,286.42c3.87-3.87,5.87-8.9,6.04-13.98-5.08.17-10.1,2.17-13.98,6.04-3.87,3.87-5.87,8.9-6.04,13.98,5.07-.17,10.1-2.17,13.98-6.04"/>
        <path class="cls-4" d="M488.92,270.92c5.48,0,10.45-2.14,14.15-5.61-3.71-3.47-8.67-5.61-14.15-5.61s-10.45,2.14-14.15,5.61c3.71,3.47,8.67,5.61,14.15,5.61"/>
        <path class="cls-4" d="M492.06,252.12c3.87,3.87,8.9,5.87,13.98,6.04-.17-5.08-2.17-10.1-6.04-13.98-3.87-3.87-8.9-5.87-13.98-6.04.17,5.07,2.17,10.1,6.04,13.98"/>
        <path class="cls-4" d="M520.47,265.3c0,4.03-3.26,7.29-7.29,7.29s-7.29-3.26-7.29-7.29,3.26-7.29,7.29-7.29,7.29,3.26,7.29,7.29"/>
      </g>
    </g>
    <g>
      <circle class="cls-7" cx="749.37" cy="171.31" r="50.46"/>
      <g>
        <path class="cls-11" d="M743.76,147.05c0,5.48,2.14,10.45,5.61,14.15,3.47-3.71,5.61-8.67,5.61-14.15s-2.14-10.45-5.61-14.15c-3.47,3.71-5.61,8.67-5.61,14.15"/>
        <path class="cls-11" d="M762.55,150.19c-3.87,3.87-5.87,8.9-6.04,13.98,5.08-.17,10.1-2.17,13.98-6.04,3.87-3.87,5.87-8.9,6.04-13.98-5.07.17-10.1,2.17-13.98,6.04"/>
        <path class="cls-11" d="M773.63,165.7c-5.48,0-10.45,2.14-14.15,5.61,3.71,3.47,8.67,5.61,14.15,5.61s10.45-2.14,14.15-5.61c-3.71-3.47-8.67-5.61-14.15-5.61"/>
        <path class="cls-11" d="M770.49,184.49c-3.87-3.87-8.9-5.87-13.98-6.04.17,5.08,2.17,10.1,6.04,13.98,3.87,3.87,8.9,5.87,13.98,6.04-.17-5.07-2.17-10.1-6.04-13.98"/>
        <path class="cls-11" d="M754.98,195.57c0-5.48-2.14-10.45-5.61-14.15-3.47,3.71-5.61,8.67-5.61,14.15s2.14,10.45,5.61,14.15c3.47-3.71,5.61-8.67,5.61-14.15"/>
        <path class="cls-11" d="M736.19,192.43c3.87-3.87,5.87-8.9,6.04-13.98-5.08.17-10.1,2.17-13.98,6.04-3.87,3.87-5.87,8.9-6.04,13.98,5.07-.17,10.1-2.17,13.98-6.04"/>
        <path class="cls-11" d="M725.12,176.92c5.48,0,10.45-2.14,14.15-5.61-3.71-3.47-8.67-5.61-14.15-5.61s-10.45,2.14-14.15,5.61c3.71,3.47,8.67,5.61,14.15,5.61"/>
        <path class="cls-11" d="M728.25,158.13c3.87,3.87,8.9,5.87,13.98,6.04-.17-5.08-2.17-10.1-6.04-13.98-3.87-3.87-8.9-5.87-13.98-6.04.17,5.07,2.17,10.1,6.04,13.98"/>
        <path class="cls-11" d="M756.66,171.31c0,4.03-3.26,7.29-7.29,7.29s-7.29-3.26-7.29-7.29,3.26-7.29,7.29-7.29,7.29,3.26,7.29,7.29"/>
      </g>
    </g>
    <g>
      <g>
        <path class="cls-7" d="M200.68,866.59h-21.77v-108.78h21.77v54.39l40.51-54.39h24.73l-34.36,45.89,34.36,62.88h-24.73l-23.89-44-16.61,22.23v21.77Z"/>
        <path class="cls-7" d="M361.8,823.13c0,6.02-1.14,11.67-3.41,16.95-2.28,5.29-5.39,9.89-9.33,13.81-3.94,3.92-8.56,7.02-13.84,9.29-5.29,2.28-10.94,3.41-16.95,3.41s-11.67-1.14-16.95-3.41c-5.29-2.28-9.89-5.37-13.81-9.29-3.92-3.92-7.02-8.52-9.29-13.81-2.28-5.28-3.41-10.93-3.41-16.95v-65.31h21.69v65.31c0,2.99.57,5.79,1.71,8.42,1.14,2.63,2.69,4.93,4.67,6.9,1.97,1.97,4.29,3.53,6.94,4.67,2.65,1.14,5.47,1.71,8.46,1.71s5.8-.57,8.46-1.71c2.65-1.14,4.97-2.69,6.94-4.67s3.53-4.27,4.67-6.9c1.14-2.63,1.71-5.43,1.71-8.42v-65.31h21.77v65.31Z"/>
        <path class="cls-7" d="M458.36,866.59h-84.2l46.42-87.01h-46.42v-21.77h84.2l-46.27,87.01h46.27v21.77Z"/>
        <path class="cls-7" d="M556.9,823.13c0,6.02-1.14,11.67-3.41,16.95-2.28,5.29-5.39,9.89-9.33,13.81-3.94,3.92-8.56,7.02-13.84,9.29-5.29,2.28-10.94,3.41-16.95,3.41s-11.67-1.14-16.95-3.41c-5.29-2.28-9.89-5.37-13.81-9.29-3.92-3.92-7.02-8.52-9.29-13.81-2.28-5.28-3.41-10.93-3.41-16.95v-65.31h21.69v65.31c0,2.99.57,5.79,1.71,8.42,1.14,2.63,2.69,4.93,4.67,6.9,1.97,1.97,4.29,3.53,6.94,4.67,2.65,1.14,5.47,1.71,8.46,1.71s5.8-.57,8.46-1.71c2.65-1.14,4.97-2.69,6.94-4.67,1.97-1.97,3.53-4.27,4.67-6.9,1.14-2.63,1.71-5.43,1.71-8.42v-65.31h21.77v65.31Z"/>
        <path class="cls-7" d="M597.41,770.56c0,2.23-.22,4.62-.64,7.17-.43,2.56-1.11,5.08-2.05,7.59-.94,2.5-2.16,4.89-3.68,7.17-1.52,2.28-3.34,4.2-5.46,5.77l-8.19-5.77c1.37-1.62,2.4-3.16,3.11-4.63.71-1.46,1.26-2.93,1.67-4.4-1.52-.25-2.93-.76-4.25-1.52-1.32-.76-2.44-1.71-3.38-2.84-.94-1.14-1.68-2.44-2.24-3.91-.56-1.46-.83-3.01-.83-4.63,0-1.72.34-3.36,1.02-4.93.68-1.56,1.62-2.94,2.81-4.13,1.19-1.19,2.55-2.12,4.1-2.81,1.54-.68,3.2-1.02,4.97-1.02s3.53.34,5.12,1.02c1.59.68,2.97,1.62,4.13,2.81,1.16,1.19,2.09,2.57,2.77,4.13.68,1.57,1.02,3.21,1.02,4.93Z"/>
        <path class="cls-7" d="M607.5,790.43c0-4.5.86-8.72,2.58-12.67,1.72-3.94,4.06-7.4,7.02-10.35,2.96-2.96,6.41-5.3,10.35-7.02,3.94-1.72,8.16-2.58,12.67-2.58h49.91v21.77h-49.91c-1.52,0-2.93.28-4.25.83-1.32.56-2.47,1.33-3.45,2.31-.99.99-1.76,2.14-2.31,3.45-.56,1.32-.83,2.73-.83,4.25s.27,2.95.83,4.29c.55,1.34,1.33,2.5,2.31,3.49.99.99,2.13,1.76,3.45,2.31,1.31.56,2.73.83,4.25.83h21.77c4.5,0,8.73.85,12.71,2.54,3.97,1.7,7.43,4.02,10.39,6.98,2.96,2.96,5.28,6.42,6.98,10.39,1.69,3.97,2.54,8.21,2.54,12.71s-.85,8.72-2.54,12.67c-1.7,3.94-4.02,7.4-6.98,10.35-2.96,2.96-6.42,5.3-10.39,7.02-3.97,1.72-8.21,2.58-12.71,2.58h-48.32v-21.77h48.32c1.52,0,2.93-.27,4.25-.83,1.31-.55,2.47-1.33,3.45-2.31.99-.99,1.75-2.13,2.31-3.45.55-1.31.83-2.73.83-4.25s-.28-2.93-.83-4.25c-.56-1.31-1.33-2.47-2.31-3.45-.99-.99-2.14-1.75-3.45-2.31-1.32-.55-2.73-.83-4.25-.83h-21.77c-4.5,0-8.72-.86-12.67-2.58-3.94-1.72-7.4-4.06-10.35-7.02-2.96-2.96-5.3-6.42-7.02-10.39-1.72-3.97-2.58-8.2-2.58-12.71Z"/>
        <g>
          <path class="cls-7" d="M345.64,1026.16h-21.69v-77.68c0-1.52-.29-2.93-.87-4.25-.58-1.31-1.37-2.47-2.35-3.45-.99-.99-2.14-1.75-3.45-2.31-1.32-.55-2.73-.83-4.25-.83s-2.93.28-4.25.83c-1.32.56-2.47,1.33-3.45,2.31-.99.99-1.76,2.14-2.31,3.45-.56,1.32-.83,2.73-.83,4.25v77.68h-21.77v-77.68c0-1.52-.28-2.93-.83-4.25-.56-1.31-1.33-2.47-2.31-3.45s-2.14-1.75-3.45-2.31c-1.32-.55-2.73-.83-4.25-.83s-2.93.28-4.25.83c-1.32.56-2.47,1.33-3.45,2.31s-1.76,2.14-2.31,3.45c-.56,1.32-.83,2.73-.83,4.25v77.68h-21.77v-77.68c0-4.5.84-8.73,2.54-12.71,1.69-3.97,4.02-7.43,6.98-10.39s6.42-5.28,10.39-6.98c3.97-1.69,8.2-2.54,12.71-2.54,4.04,0,7.94.72,11.68,2.16,3.74,1.44,7.1,3.53,10.09,6.26,2.98-2.73,6.33-4.82,10.05-6.26,3.72-1.44,7.6-2.16,11.64-2.16,4.5,0,8.73.85,12.71,2.54,3.97,1.7,7.43,4.02,10.39,6.98,2.96,2.96,5.28,6.42,6.98,10.39,1.69,3.97,2.54,8.21,2.54,12.71v77.68Z"/>
          <path class="cls-7" d="M450.85,1026.16h-21.77v-21.77h-43.54v21.77h-21.69v-65.24c0-6.02,1.14-11.67,3.41-16.95,2.28-5.28,5.37-9.9,9.29-13.84,3.92-3.94,8.52-7.05,13.81-9.33,5.28-2.28,10.93-3.41,16.95-3.41s11.67,1.14,16.95,3.41c5.28,2.28,9.9,5.39,13.84,9.33,3.94,3.94,7.05,8.56,9.33,13.84,2.28,5.29,3.41,10.94,3.41,16.95v65.24ZM429.08,982.69v-21.77c0-2.98-.57-5.8-1.71-8.46-1.14-2.65-2.69-4.97-4.67-6.94-1.97-1.97-4.29-3.53-6.94-4.67-2.65-1.14-5.48-1.71-8.46-1.71s-5.8.57-8.46,1.71c-2.65,1.14-4.97,2.69-6.94,4.67-1.97,1.97-3.53,4.29-4.67,6.94-1.14,2.65-1.71,5.48-1.71,8.46v21.77h43.54Z"/>
          <path class="cls-7" d="M546.66,1026.16h-84.2l46.42-87.01h-46.42v-21.77h84.2l-46.27,87.01h46.27v21.77Z"/>
          <path class="cls-7" d="M634.73,1026.16h-74.57v-108.78h74.57v21.77h-52.8v21.77h35.73v21.77h-35.73v21.69h52.8v21.77Z"/>
        </g>
      </g>
      <g>
        <line class="cls-3" x1="76.07" y1="733.19" x2="76.07" y2="1061.77"/>
        <line class="cls-3" x1="795.51" y1="733.19" x2="795.51" y2="1061.77"/>
      </g>
    </g>
    <g>
      <line class="cls-2" x1="111.68" y1="1205.83" x2="111.68" y2="1539.81"/>
      <line class="cls-2" x1="761.73" y1="1205.83" x2="761.73" y2="1539.81"/>
    </g>
    <line class="cls-2" x1="0" y1="1546.24" x2="873.41" y2="1546.24"/>
    <line class="cls-2" x1="0" y1="1205.83" x2="873.41" y2="1205.83"/>
    <line class="cls-2" x1="40.45" y1="1211.74" x2="40.45" y2="1540.32"/>
    <line class="cls-2" x1="76.07" y1="1211.74" x2="76.07" y2="1540.32"/>
    <line class="cls-2" x1="795.51" y1="1211.74" x2="795.51" y2="1540.32"/>
    <line class="cls-2" x1="831.12" y1="1211.74" x2="831.12" y2="1540.32"/>
    <line class="cls-2" x1="14.71" y1="1545.89" x2="864.47" y2="1545.89"/>
    <line class="cls-2" x1="14.71" y1="1649.59" x2="864.47" y2="1649.59"/>
    <rect class="cls-6" x="123.56" y="1099.29" width="626.3" height="68.25" rx="34.13" ry="34.13"/>
    <g>
      <path class="cls-10" d="M156.71,1122.1h14.34v4.03h-10.11v5.12h9.92v4.03h-9.92v9.22h-4.22v-22.4Z"/>
      <path class="cls-10" d="M176.42,1122.1h14.98v4.03h-5.38v14.34h5.38v4.03h-14.98v-4.03h5.38v-14.34h-5.38v-4.03Z"/>
      <path class="cls-10" d="M207.17,1142.39h.58v-20.29h4.22v22.4h-8.26l-2.62-20.29h-.58v20.29h-4.22v-22.4h8.26l2.62,20.29Z"/>
      <path class="cls-10" d="M216.03,1122.1h8.13c2.77,0,4.83.65,6.18,1.94,1.34,1.29,2.02,3.29,2.02,6v6.53c0,2.71-.67,4.71-2.02,6-1.34,1.29-3.4,1.94-6.18,1.94h-8.13v-4.06h2.11v-14.3h-2.11v-4.03ZM224.16,1140.47c1.47,0,2.5-.35,3.09-1.04.59-.69.88-1.78.88-3.25v-6.14c0-1.28-.29-2.25-.88-2.91-.59-.66-1.62-.99-3.09-.99h-1.79v14.34h1.79Z"/>
      <path class="cls-10" d="M268.61,1139.7h-7.62l-1.09,4.8h-4.42l5.34-22.4h7.94l5.34,22.4h-4.42l-1.09-4.8ZM261.89,1135.67h5.79l-2.59-11.46h-.58l-2.62,11.46Z"/>
      <path class="cls-10" d="M277.86,1122.1h4.22v18.37h10.18v4.03h-14.4v-22.4Z"/>
      <path class="cls-10" d="M298.08,1122.1h4.22v18.37h10.18v4.03h-14.4v-22.4Z"/>
      <path class="cls-10" d="M338.02,1134.51v-12.42h14.98v4.03h-10.75v6.08h.58c.3-.83.86-1.55,1.68-2.16.82-.61,1.92-.91,3.31-.91,1.04,0,1.98.18,2.82.54.83.36,1.54.86,2.11,1.5.58.64,1.02,1.41,1.33,2.3.31.9.46,1.88.46,2.94v.19c0,1.13-.19,2.2-.56,3.2-.37,1-.92,1.88-1.63,2.64-.71.76-1.59,1.36-2.64,1.81-1.05.45-2.25.67-3.62.67s-2.57-.19-3.62-.56c-1.04-.37-1.92-.9-2.64-1.57s-1.26-1.47-1.63-2.4c-.37-.93-.56-1.94-.56-3.02v-.77h4.22v.38c0,1.13.35,2.06,1.04,2.8.69.74,1.71,1.1,3.06,1.1s2.41-.36,3.18-1.09c.78-.73,1.17-1.73,1.17-3.01s-.29-2.13-.86-2.74-1.33-.91-2.27-.91c-.62,0-1.12.13-1.5.4s-.63.58-.74.94h-6.91Z"/>
      <path class="cls-10" d="M379.17,1122.1h14.34v4.03h-10.11v5.12h9.92v4.03h-9.92v9.22h-4.22v-22.4Z"/>
      <path class="cls-10" d="M399.2,1122.1h4.22v18.37h10.18v4.03h-14.4v-22.4Z"/>
      <path class="cls-10" d="M418.34,1130.8c0-2.9.73-5.15,2.19-6.75,1.46-1.6,3.48-2.4,6.06-2.4s4.6.8,6.06,2.4c1.46,1.6,2.19,3.85,2.19,6.75v4.99c0,2.99-.73,5.26-2.19,6.82-1.46,1.56-3.48,2.34-6.06,2.34s-4.6-.78-6.06-2.34c-1.46-1.56-2.19-3.83-2.19-6.82v-4.99ZM426.59,1141.11c.77,0,1.41-.12,1.92-.37s.93-.59,1.25-1.04.54-.98.67-1.6c.13-.62.19-1.3.19-2.05v-5.5c0-.7-.08-1.37-.22-1.98-.15-.62-.38-1.15-.7-1.6-.32-.45-.74-.8-1.25-1.07-.51-.27-1.13-.4-1.86-.4s-1.34.13-1.86.4c-.51.27-.93.62-1.25,1.07-.32.45-.56.98-.7,1.6-.15.62-.22,1.28-.22,1.98v5.5c0,.75.06,1.43.19,2.05.13.62.35,1.15.67,1.6s.74.79,1.25,1.04,1.15.37,1.92.37Z"/>
      <path class="cls-10" d="M455.59,1144.5h-7.36l-1.02-17.02v-3.07h-.77v3.07l-1.02,17.02h-7.36l-.77-22.4h3.84l.51,17.02v2.88h.77v-2.88l1.02-17.02h6.78l1.02,17.02v2.88h.77v-2.88l.51-17.02h3.84l-.77,22.4Z"/>
      <path class="cls-10" d="M459.87,1122.1h14.14v4.03h-9.92v5.12h9.54v4.03h-9.54v5.18h10.3v4.03h-14.53v-22.4Z"/>
      <path class="cls-10" d="M494.85,1144.5h-4.22v-6.72c0-.51-.13-.93-.4-1.25-.27-.32-.71-.48-1.33-.48h-4.86v8.45h-4.22v-22.4h8.58c1.15,0,2.17.16,3.04.48.87.32,1.6.76,2.19,1.33s1.04,1.22,1.34,1.97c.31.75.46,1.55.46,2.4v.77c0,.92-.25,1.78-.74,2.58-.49.8-1.25,1.41-2.27,1.84v.58c.75.08,1.34.37,1.78.86.44.49.66,1.11.66,1.86v7.74ZM484.03,1132.02h4.03c1.02,0,1.8-.24,2.34-.72.53-.48.8-1.16.8-2.03v-.38c0-.75-.27-1.39-.8-1.94s-1.31-.82-2.34-.82h-4.03v5.89Z"/>
      <path class="cls-10" d="M511.33,1128.95c0-.9-.35-1.67-1.04-2.34s-1.67-.99-2.93-.99c-1.07,0-1.91.22-2.53.66s-.93,1.03-.93,1.78c0,.38.07.73.22,1.04.15.31.41.59.78.83.37.25.86.46,1.47.66.61.19,1.38.37,2.32.54,2.35.43,4.14,1.14,5.38,2.14,1.24,1,1.86,2.49,1.86,4.45v.38c0,1.05-.19,1.99-.56,2.83-.37.84-.91,1.56-1.62,2.16-.7.6-1.56,1.06-2.56,1.38-1,.32-2.13.48-3.39.48-1.47,0-2.77-.21-3.89-.62s-2.05-.99-2.8-1.73c-.75-.74-1.31-1.6-1.7-2.59-.38-.99-.58-2.07-.58-3.25v-.96h4.22v.77c0,1.34.39,2.42,1.17,3.22.78.8,1.99,1.2,3.63,1.2,1.28,0,2.23-.28,2.85-.83.62-.55.93-1.22.93-1.98,0-.36-.06-.71-.19-1.04-.13-.33-.35-.63-.67-.9-.32-.27-.76-.51-1.31-.72-.56-.21-1.26-.39-2.11-.54-1.13-.19-2.17-.44-3.1-.75-.94-.31-1.75-.72-2.45-1.23-.69-.51-1.23-1.15-1.62-1.92-.38-.77-.58-1.71-.58-2.82v-.19c0-.92.19-1.76.56-2.54.37-.78.9-1.46,1.57-2.03.67-.58,1.48-1.02,2.43-1.34.95-.32,2.01-.48,3.18-.48,1.32,0,2.5.19,3.52.56,1.02.37,1.88.88,2.58,1.52.69.64,1.22,1.38,1.57,2.21.35.83.53,1.71.53,2.62v1.15h-4.22v-.77Z"/>
      <path class="cls-10" d="M539.87,1122.1h16.13v4.03h-5.95v18.37h-4.22v-18.37h-5.95v-4.03Z"/>
      <path class="cls-10" d="M559.91,1130.8c0-2.9.73-5.15,2.19-6.75,1.46-1.6,3.48-2.4,6.06-2.4s4.6.8,6.06,2.4c1.46,1.6,2.19,3.85,2.19,6.75v4.99c0,2.99-.73,5.26-2.19,6.82-1.46,1.56-3.48,2.34-6.06,2.34s-4.6-.78-6.06-2.34c-1.46-1.56-2.19-3.83-2.19-6.82v-4.99ZM568.16,1141.11c.77,0,1.41-.12,1.92-.37s.93-.59,1.25-1.04.54-.98.67-1.6c.13-.62.19-1.3.19-2.05v-5.5c0-.7-.08-1.37-.22-1.98-.15-.62-.38-1.15-.7-1.6-.32-.45-.74-.8-1.25-1.07-.51-.27-1.13-.4-1.86-.4s-1.34.13-1.86.4c-.51.27-.93.62-1.25,1.07-.32.45-.56.98-.7,1.6-.15.62-.22,1.28-.22,1.98v5.5c0,.75.06,1.43.19,2.05.13.62.35,1.15.67,1.6s.74.79,1.25,1.04,1.15.37,1.92.37Z"/>
      <path class="cls-10" d="M601.44,1122.1h14.14v4.03h-9.92v5.12h9.54v4.03h-9.54v5.18h10.3v4.03h-14.53v-22.4Z"/>
      <path class="cls-10" d="M632.67,1128.95c0-.9-.35-1.67-1.04-2.34s-1.67-.99-2.93-.99c-1.07,0-1.91.22-2.53.66s-.93,1.03-.93,1.78c0,.38.07.73.22,1.04.15.31.41.59.78.83.37.25.86.46,1.47.66.61.19,1.38.37,2.32.54,2.35.43,4.14,1.14,5.38,2.14,1.24,1,1.86,2.49,1.86,4.45v.38c0,1.05-.19,1.99-.56,2.83-.37.84-.91,1.56-1.62,2.16-.7.6-1.56,1.06-2.56,1.38-1,.32-2.13.48-3.39.48-1.47,0-2.77-.21-3.89-.62s-2.05-.99-2.8-1.73c-.75-.74-1.31-1.6-1.7-2.59-.38-.99-.58-2.07-.58-3.25v-.96h4.22v.77c0,1.34.39,2.42,1.17,3.22.78.8,1.99,1.2,3.63,1.2,1.28,0,2.23-.28,2.85-.83.62-.55.93-1.22.93-1.98,0-.36-.06-.71-.19-1.04-.13-.33-.35-.63-.67-.9-.32-.27-.76-.51-1.31-.72-.56-.21-1.26-.39-2.11-.54-1.13-.19-2.17-.44-3.1-.75-.94-.31-1.75-.72-2.45-1.23-.69-.51-1.23-1.15-1.62-1.92-.38-.77-.58-1.71-.58-2.82v-.19c0-.92.19-1.76.56-2.54.37-.78.9-1.46,1.57-2.03.67-.58,1.48-1.02,2.43-1.34.95-.32,2.01-.48,3.18-.48,1.32,0,2.5.19,3.52.56,1.02.37,1.88.88,2.58,1.52.69.64,1.22,1.38,1.57,2.21.35.83.53,1.71.53,2.62v1.15h-4.22v-.77Z"/>
      <path class="cls-10" d="M649.12,1141.11c.81,0,1.48-.12,2-.37.52-.25.93-.58,1.22-.99s.48-.9.59-1.44c.11-.54.16-1.1.16-1.68v-.58h4.22v.58c0,2.67-.7,4.72-2.1,6.16-1.4,1.44-3.43,2.16-6.1,2.16s-4.59-.78-6.08-2.34c-1.49-1.56-2.24-3.83-2.24-6.82v-4.99c0-1.43.19-2.71.58-3.86.38-1.14.94-2.1,1.66-2.88.72-.78,1.6-1.38,2.62-1.79,1.02-.42,2.18-.62,3.46-.62s2.5.19,3.52.58c1.02.38,1.88.94,2.58,1.66.69.73,1.22,1.6,1.57,2.62.35,1.02.53,2.18.53,3.46v.58h-4.22v-.58c0-.53-.06-1.07-.19-1.6s-.34-1.01-.64-1.44c-.3-.43-.7-.77-1.22-1.04-.51-.27-1.15-.4-1.92-.4-.7,0-1.31.13-1.82.4-.51.27-.94.63-1.28,1.09-.34.46-.59.99-.75,1.6s-.24,1.24-.24,1.9v5.63c0,.73.08,1.39.22,2,.15.61.38,1.14.7,1.58.32.45.74.79,1.26,1.04.52.25,1.16.37,1.9.37Z"/>
      <path class="cls-10" d="M673.09,1139.7h-7.62l-1.09,4.8h-4.42l5.34-22.4h7.94l5.34,22.4h-4.42l-1.09-4.8ZM666.37,1135.67h5.79l-2.59-11.46h-.58l-2.62,11.46Z"/>
      <path class="cls-10" d="M686.24,1136.05v8.45h-4.22v-22.4h8.77c1.15,0,2.15.19,3.01.56.85.37,1.56.86,2.13,1.47.57.61.99,1.3,1.28,2.08.29.78.43,1.57.43,2.38v.77c0,.83-.14,1.65-.43,2.45-.29.8-.71,1.52-1.28,2.14-.57.63-1.28,1.14-2.13,1.52-.85.38-1.86.58-3.01.58h-4.54ZM686.24,1132.02h4.13c.94,0,1.68-.26,2.22-.77s.82-1.17.82-1.98v-.38c0-.81-.27-1.47-.82-1.98-.54-.51-1.29-.77-2.22-.77h-4.13v5.89Z"/>
      <path class="cls-10" d="M702.56,1122.1h14.14v4.03h-9.92v5.12h9.54v4.03h-9.54v5.18h10.3v4.03h-14.53v-22.4Z"/>
    </g>
    <line class="cls-2" x1="14.71" y1="1873.41" x2="864.47" y2="1873.41"/>
    <g>
      <circle class="cls-7" cx="436.71" cy="1597.74" r="80.31"/>
      <g>
        <path class="cls-10" d="M427.77,1559.14c0,8.72,3.41,16.62,8.93,22.52,5.53-5.9,8.93-13.8,8.93-22.52s-3.41-16.62-8.93-22.52c-5.53,5.9-8.93,13.8-8.93,22.52"/>
        <path class="cls-10" d="M457.68,1564.13c-6.16,6.16-9.35,14.17-9.61,22.24,8.08-.27,16.08-3.45,22.24-9.61,6.16-6.16,9.35-14.16,9.61-22.24-8.08.27-16.08,3.45-22.24,9.61"/>
        <path class="cls-10" d="M475.31,1588.81c-8.72,0-16.62,3.41-22.52,8.93,5.9,5.53,13.8,8.93,22.52,8.93s16.62-3.41,22.52-8.93c-5.9-5.53-13.8-8.93-22.52-8.93"/>
        <path class="cls-10" d="M470.32,1618.72c-6.16-6.16-14.17-9.35-22.24-9.61.27,8.08,3.45,16.08,9.61,22.24,6.16,6.16,14.16,9.35,22.24,9.61-.27-8.08-3.45-16.08-9.61-22.24"/>
        <path class="cls-10" d="M445.64,1636.35c0-8.72-3.41-16.62-8.93-22.52-5.53,5.9-8.93,13.8-8.93,22.52s3.41,16.62,8.93,22.52c5.53-5.9,8.93-13.8,8.93-22.52"/>
        <path class="cls-10" d="M415.72,1631.35c6.16-6.16,9.35-14.17,9.61-22.24-8.08.27-16.08,3.45-22.24,9.61-6.16,6.16-9.35,14.16-9.61,22.24,8.08-.27,16.08-3.45,22.24-9.61"/>
        <path class="cls-10" d="M398.1,1606.68c8.72,0,16.62-3.41,22.52-8.93-5.9-5.53-13.8-8.93-22.52-8.93s-16.62,3.41-22.52,8.93c5.9,5.53,13.8,8.93,22.52,8.93"/>
        <path class="cls-10" d="M403.1,1576.76c6.16,6.16,14.17,9.35,22.24,9.61-.27-8.08-3.45-16.08-9.61-22.24-6.16-6.16-14.16-9.35-22.24-9.61.27,8.08,3.45,16.08,9.61,22.24"/>
        <path class="cls-10" d="M448.31,1597.74c0,6.41-5.2,11.6-11.6,11.6s-11.6-5.2-11.6-11.6,5.2-11.6,11.6-11.6,11.6,5.2,11.6,11.6"/>
      </g>
    </g>
    <path class="cls-2" d="M681.39,1206.69h80.34v37.95c0,22.64-18.38,41.02-41.02,41.02h-39.32v-78.97h0Z" transform="translate(1967.73 524.61) rotate(90)"/>
    <circle class="cls-9" cx="723.15" cy="1245.49" r="12.06"/>
    <path class="cls-2" d="M681.39,1467.09h80.34v37.95c0,22.64-18.38,41.02-41.02,41.02h-39.32v-78.97h0Z" transform="translate(1443.12 3013.16) rotate(180)"/>
    <circle class="cls-9" cx="723.15" cy="1506.58" r="12.06"/>
    <path class="cls-2" d="M112.37,1465.86h80.34v37.95c0,22.64-18.38,41.02-41.02,41.02h-39.32v-78.97h0Z" transform="translate(-1352.81 1657.88) rotate(-90)"/>
    <circle class="cls-9" cx="151.17" cy="1506.58" r="12.06"/>
    <path class="cls-2" d="M111.68,1206h80.34v37.95c0,22.64-18.38,41.02-41.02,41.02h-39.32v-78.97h0Z"/>
    <circle class="cls-9" cx="151.17" cy="1243.55" r="12.06"/>
  </g>
</svg>