<?xml version="1.0" encoding="UTF-8"?>
<svg id="Layer_2" data-name="Layer 2" xmlns="http://www.w3.org/2000/svg" viewBox="0 0 557.74 110.38">
  <defs>
    <style>
      .cls-1 {
        fill: #9d8d7a;
      }

      .cls-2 {
        fill: #dfd2c0;
      }

      .cls-3 {
        fill: #706354;
      }
    </style>
  </defs>
  <g id="Layer_1-2" data-name="Layer 1">
    <g>
      <rect class="cls-2" x=".82" y=".82" width="556.1" height="108.74" rx="16.1" ry="16.1"/>
      <path class="cls-1" d="M540.82,1.63c8.43,0,15.28,6.86,15.28,15.28v76.54c0,8.43-6.86,15.28-15.28,15.28H16.92c-8.43,0-15.28-6.86-15.28-15.28V16.92C1.63,8.49,8.49,1.63,16.92,1.63h523.9M540.82,0H16.92C7.57,0,0,7.57,0,16.92v76.54c0,9.34,7.57,16.92,16.92,16.92h523.9c9.34,0,16.92-7.57,16.92-16.92V16.92c0-9.34-7.57-16.92-16.92-16.92h0Z"/>
    </g>
    <g>
      <path class="cls-3" d="M70.47,66.36h14.12v4.6h-19.46v-31.74h5.34v27.14Z"/>
      <path class="cls-3" d="M108.65,39.21v4.65h-14.12v8.37h12.74v4.6h-12.74v9.52h14.12v4.6h-19.46v-31.74h19.46Z"/>
      <path class="cls-3" d="M111.22,70.96l11.04-31.74h5.06l11.04,31.74h-5.66l-2.16-6.58h-11.46l-2.16,6.58h-5.71ZM120.56,59.78h8.47l-4.23-12.83-4.23,12.83Z"/>
      <path class="cls-3" d="M160.54,70.96l-6.12-12.88h-6.17v12.88h-5.34v-31.74h10.81c7.31,0,11.69,3.17,11.69,9.48,0,4.37-2.07,7.18-5.75,8.51l6.76,13.76h-5.89ZM153.36,53.47c4.51,0,6.72-1.2,6.72-4.78s-2.21-4.83-6.72-4.83h-5.11v9.61h5.11Z"/>
      <path class="cls-3" d="M194.76,39.21v31.74h-4.74l-12.93-21.58v21.58h-5.15v-31.74h4.6l13.07,21.85v-21.85h5.15Z"/>
      <path class="cls-3" d="M220.43,52.23h12.15v-13.02h5.34v31.74h-5.34v-14.12h-12.15v14.12h-5.34v-31.74h5.34v13.02Z"/>
      <path class="cls-3" d="M256.4,71.37c-7.08,0-11.87-4.28-11.87-14.26v-4.05c0-9.98,4.79-14.26,11.87-14.26s11.92,4.28,11.92,14.26v4.05c0,9.98-4.79,14.26-11.92,14.26ZM249.87,57.11c0,6.85,2.3,9.62,6.53,9.62s6.58-2.76,6.58-9.62v-4.05c0-6.85-2.35-9.61-6.58-9.61s-6.53,2.76-6.53,9.61v4.05Z"/>
      <path class="cls-3" d="M284.46,70.96h-5.15l-7.5-31.74h5.7l4.88,22.68,6.49-22.68h4.92l6.62,22.82,4.88-22.82h5.71l-7.5,31.74h-5.2l-6.95-23.09-6.9,23.09Z"/>
      <path class="cls-3" d="M348.63,39.21v4.65h-9.11v27.1h-5.34v-27.1h-9.16v-4.65h23.6Z"/>
      <path class="cls-3" d="M363.76,71.37c-7.08,0-11.87-4.28-11.87-14.26v-4.05c0-9.98,4.79-14.26,11.87-14.26s11.92,4.28,11.92,14.26v4.05c0,9.98-4.79,14.26-11.92,14.26ZM357.23,57.11c0,6.85,2.3,9.62,6.53,9.62s6.58-2.76,6.58-9.62v-4.05c0-6.85-2.35-9.61-6.58-9.61s-6.53,2.76-6.53,9.61v4.05Z"/>
      <path class="cls-3" d="M400.05,59.36v11.59h-5.34v-31.74h10.81c7.31,0,11.69,3.5,11.69,10.03s-4.32,10.12-11.69,10.12h-5.47ZM404.98,54.76c4.88,0,6.9-1.89,6.9-5.52s-2.02-5.38-6.9-5.38h-4.92v10.9h4.92Z"/>
      <path class="cls-3" d="M428.07,66.36h14.12v4.6h-19.46v-31.74h5.34v27.14Z"/>
      <path class="cls-3" d="M444.03,70.96l11.04-31.74h5.06l11.04,31.74h-5.66l-2.16-6.58h-11.46l-2.16,6.58h-5.71ZM453.37,59.78h8.47l-4.23-12.83-4.23,12.83Z"/>
      <path class="cls-3" d="M476.6,39.21l6.35,12.7,6.39-12.7h6.17l-9.89,18.49v13.25h-5.34v-13.25l-9.89-18.49h6.21Z"/>
    </g>
  </g>
</svg>