<?xml version="1.0" encoding="UTF-8"?>
<svg id="Layer_2" data-name="Layer 2" xmlns="http://www.w3.org/2000/svg" viewBox="0 0 180.67 88.84">
  <defs>
    <style>
      .cls-1 {
        fill: #231f20;
      }
    </style>
  </defs>
  <g id="Layer_1-2" data-name="Layer 1">
    <g>
      <g>
        <g>
          <path class="cls-1" d="M133.56,88.6h-.77c-1.83,0-3.23-.59-4.43-1.84-1.63-1.73-1.63-3.83-1.63-6.5s0-4.78,1.63-6.5c1.19-1.26,2.6-1.84,4.43-1.84h.77c1.83,0,3.23.59,4.43,1.84,1.63,1.73,1.63,3.83,1.63,6.5s0,4.78-1.63,6.5c-1.19,1.26-2.6,1.84-4.43,1.84ZM132.8,75.36c-1,0-1.45.27-1.92.77-.66.7-.69,1.83-.69,4.13s.03,3.43.69,4.13c.47.5.92.77,1.92.77h.77c1,0,1.45-.27,1.92-.77.66-.7.69-1.83.69-4.13s-.03-3.43-.69-4.13c-.47-.5-.92-.77-1.92-.77h-.77Z"/>
          <path class="cls-1" d="M104.01,88.6h-.77c-1.83,0-3.23-.59-4.43-1.84-1.63-1.73-1.63-3.83-1.63-6.5s0-4.78,1.63-6.5c1.19-1.26,2.6-1.84,4.43-1.84h.77c1.83,0,3.23.59,4.43,1.84.69.73,1.12,1.55,1.37,2.6l.02.09c.05.2-.08.4-.27.46l-2.59.72c-.22.06-.43-.07-.48-.29l-.02-.1c-.1-.49-.27-.83-.53-1.11-.47-.5-.92-.77-1.92-.77h-.77c-1,0-1.45.27-1.92.77-.66.7-.69,1.83-.69,4.13s.03,3.43.69,4.13c.47.5.92.77,1.92.77h.77c1,0,1.45-.27,1.92-.77.26-.28.43-.62.53-1.11l.02-.1c.05-.22.26-.35.48-.29l2.59.72c.19.05.32.26.27.46l-.02.09c-.24,1.05-.68,1.87-1.37,2.6-1.19,1.26-2.6,1.84-4.43,1.84Z"/>
          <path class="cls-1" d="M119.77,88.42h-2.75c-.21,0-.38-.17-.38-.38v-12.43c0-.21-.17-.38-.38-.38h-3.46c-.16,0-.33-.13-.37-.28l-.63-2.36c-.07-.27.1-.48.37-.48h12.51c.27,0,.44.22.37.48l-.63,2.36c-.04.16-.21.28-.37.28h-3.51c-.21,0-.38.17-.38.38v12.43c0,.21-.17.38-.38.38Z"/>
          <path class="cls-1" d="M69.37,88.42h-2.73c-.21,0-.38-.17-.38-.38v-15.56c0-.21.17-.38.38-.38h9.94c.27,0,.44.22.37.48l-.63,2.36c-.04.16-.21.28-.37.28h-5.81c-.21,0-.38.17-.38.38v2.74c0,.21.17.38.38.38h4.69c.27,0,.44.22.37.48l-.63,2.36c-.04.16-.21.28-.37.28h-4.06c-.21,0-.38.17-.38.38v5.8c0,.21-.17.38-.38.38Z"/>
          <path class="cls-1" d="M166.39,88.42h-2.88c-.21,0-.38-.17-.38-.38v-4.46s-.01-.11-.03-.16l-4.78-10.79c-.13-.3.03-.54.35-.54h3c.14,0,.3.11.35.23l2.58,6.07c.19.46.51.46.71,0l2.58-6.07c.05-.13.21-.23.35-.23h3c.32,0,.48.24.35.54l-4.78,10.79s-.03.11-.03.16v4.46c0,.21-.17.38-.38.38Z"/>
          <path class="cls-1" d="M92.66,88.42h-2.59c-.16,0-.33-.13-.37-.29l-.84-3.32h-5.34l-.84,3.32c-.04.16-.21.29-.37.29h-2.78c-.27,0-.44-.22-.37-.48l3.22-12.07c.07-.24-.12-.48-.37-.48h-.41c-.25,0-.44-.24-.37-.48l.67-2.52c.04-.17.2-.28.37-.28h6.42c.18,0,.33.12.37.29l3.96,15.56c.07.26-.1.48-.37.48ZM85.04,81.48h2.3c.27,0,.44-.21.37-.48l-1.29-5.26c-.03-.11-.12-.18-.23-.18h0c-.11,0-.2.07-.23.18l-1.29,5.26c-.06.26.1.48.37.48Z"/>
          <path class="cls-1" d="M156.14,88.42h-2.98c-.15,0-.31-.11-.36-.25l-2.21-5.91c-.05-.14-.21-.25-.36-.25h-1.75c-.21,0-.38.17-.38.38v5.64c0,.21-.17.38-.38.38h-2.73c-.21,0-.38-.17-.38-.38v-12.43c0-.21-.17-.38-.38-.38h-.36c-.16,0-.33-.13-.37-.28l-.63-2.36c-.07-.27.1-.48.37-.48h7.3c1.16,0,1.97.13,2.71.43,1.63.62,2.65,2.32,2.65,4.43,0,1.83-.63,3.14-1.97,4.09-.14.1-.19.3-.13.46l2.7,6.39c.12.29-.04.53-.35.53ZM148.29,78.35c0,.21.17.38.38.38h1.72c1.27,0,1.86-.57,1.86-1.8,0-1.37-.88-1.56-1.84-1.56h-1.74c-.21,0-.38.17-.38.38v2.6Z"/>
        </g>
        <path class="cls-1" d="M171.1,65.93l-6.53-.07-1.86-15.24h-3.69l-1.01,8.32h-17.37v4.28l-10.52-2.81v2.69l-10.08-2.69v2.35h-10.08v2.97h-43.71s.82-2.24,5.38-2.24h36.08v-2.97h10.08v-3.03l10.08,2.69v-2.69l10.52,2.81v-3.61h17.63l1.01-8.32h7.67l1.86,15.24,4.55-.06v2.37Z"/>
        <g>
          <path class="cls-1" d="M30.71,26.22c6.86.86,10.24-2.53,10.24-7.15,0-13.14-28.99-13.56-28.99,7.39,0,13.93,17.29,27.45,17.29,41.24,0,17.03-18.79,15.29-18.79,8.45,0-4.53,7.47-5.75,10.77-1.25,3.48-3.2,1.62-10.55-7.87-10.55-7.61,0-13.35,5.23-13.35,11.69,0,7.89,7.72,12.8,17.91,12.8,11.18,0,22.44-6.85,22.44-22.86,0-18.48-18.18-31.3-18.18-43.02,0-9.14,14.9-6.43,8.54,3.26Z"/>
          <path class="cls-1" d="M176.67,29.67s-.06,5.2-4.43,5.2c-5.79,0-6.57-10.55-.93-16.23-1.1-3.15-3.68-5.98-3.68-5.98-8.11,2.79-13.26.65-14.65-1.91-2.25.25-4.56,1.09-5.86,2.06,3.73,18.6,1.05,26.35-2.29,26.35-6.18,0-3.25-18.48-1.55-23.38-2.72-.55-6.38-1.03-7.66,2-7.78-3.9-18.55,3.97-18.55,17.2,0,2.87.55,5.52,1.63,7.71-.69.93-1.6,1.51-2.8,1.51-8.62,0-2.03-31.5-2.03-39.24,0-3.65-1.77-5.28-8.69-3.69.67,8.81-2.21,21.42-2.21,35.6,0,3.04.28,5.95,1.12,8.34-.67.81-1.54,1.31-2.65,1.31-8.62,0-2.03-31.5-2.03-39.24,0-3.65-1.77-5.28-8.69-3.69.64,8.42-1.96,20.31-2.19,33.73-3,13.62-20.21,17.68-20.21,4.26,0-.54.02-1.05.05-1.54,10.65,3.93,16.54-1.96,16.54-7.63,0-10.09-15.06-10.96-21.69-.32-3.06-1.21-6.5-2.06-10-2.52.21-2.65.36-5.31.36-7.86,0-4.25-2.99-4.84-8.07-3.44.1,3.67-.04,7.32-.27,10.88-2.11.06-4.15.26-6.05.6-6.62,1.18-6.96,3.66-4.87,8.56,2.87-1.06,6.49-1.72,10.34-1.93-.46,5.18-.93,10.05-.93,14.35,0,7.07,3.81,10.24,9.33,10.24s8.88-3.62,10.35-7.36c2.64,2.88,6.52,3.99,10.24,3.99,6.69,0,13.19-4.41,15.53-11.56,1.06,4.38,3.58,7.49,8.98,7.49,2.99,0,5.95-1.58,7.97-4.8,1.46,1.55,3.55,2.48,6.5,2.48,3.17,0,6.3-1.77,8.31-5.4,1.81,1.74,4.25,2.78,7.32,2.78s6.95-1.77,8.72-5.27c1.62,1.6,3.91,2.6,7.09,2.6,7.47,0,11.81-5.04,11.81-15.69,0-3.33-.22-6.82-.62-10.01,2.39.81,5.13,1.02,7.68.25,0,0-2.61,3.43-2.61,9.37,0,7.87,4.9,11.66,10.88,11.66,9.56,0,11.25-10.91,5.48-11.82ZM76.72,33c0,1.9-2.01,3.66-6.95,1.65,2.41-4.52,6.95-4.15,6.95-1.65ZM55.55,54.07c-4.54,0-3.91-7.92-2.99-17.49,2.85.29,5.64.82,8.19,1.61-.4,1.74-.62,3.65-.62,5.74s.3,3.96.83,5.53c-1.21,2.88-3.37,4.62-5.42,4.62ZM125.04,33.66c0-10.26,7.31-12.85,9.18-10.26-.66,3.59-1.18,8.37-.53,12.61-.99,6.33-8.65,6.11-8.65-2.35Z"/>
        </g>
        <g>
          <path class="cls-1" d="M58.42,77.9c0-.26-.17-.48-.43-.52l-5.26-1.04-1.09-5.22c-.04-.26-.26-.43-.52-.43h0c-.26,0-.48.17-.52.43l-1.09,5.22-5.17,1.13c-.26.04-.43.26-.43.52s.17.48.43.52l5.22,1.09,1.09,5.17c.04.26.26.43.52.43h0c.26,0,.48-.17.52-.43l1.09-5.22,5.17-1.09c.3-.09.48-.3.48-.57Z"/>
          <path class="cls-1" d="M60.52,71.59c0-.11-.07-.2-.18-.22l-2.19-.43-.45-2.17c-.02-.11-.11-.18-.22-.18h0c-.11,0-.2.07-.22.18l-.45,2.17-2.16.47c-.11.02-.18.11-.18.22s.07.2.18.22l2.17.45.45,2.16c.02.11.11.18.22.18h0c.11,0,.2-.07.22-.18l.45-2.17,2.16-.45c.13-.04.2-.13.2-.24Z"/>
        </g>
      </g>
      <path class="cls-1" d="M175.54,0c2.83,0,5.14,2.31,5.14,5.14s-2.31,5.13-5.14,5.13-5.12-2.31-5.12-5.13,2.31-5.14,5.12-5.14ZM175.54,8.94c2.11,0,3.8-1.71,3.8-3.8s-1.69-3.8-3.8-3.8-3.8,1.71-3.8,3.8,1.71,3.8,3.8,3.8ZM173.47,7.66V2.47h2.17c1.43,0,1.99.84,1.99,1.61s-.4,1.27-1.03,1.53l1.29,2.05h-1.37l-1.11-1.85h-.74v1.85h-1.19ZM175.4,4.8c.7,0,1-.18,1-.7,0-.42-.32-.62-.9-.62h-.84v1.31h.74Z"/>
    </g>
  </g>
</svg>