<?xml version="1.0" encoding="UTF-8"?>
<svg id="Layer_2" data-name="Layer 2" xmlns="http://www.w3.org/2000/svg" viewBox="0 0 133.2 133.2">
  <defs>
    <style>
      .cls-1 {
        fill: #f8ead6;
      }

      .cls-2 {
        fill-rule: evenodd;
      }

      .cls-3 {
        fill: #984499;
      }

      .cls-4 {
        fill: #081b1e;
      }
    </style>
  </defs>
  <g id="Art">
    <g>
      <rect class="cls-1" width="133.2" height="133.2"/>
      <g>
        <path class="cls-2" d="M67.29,60.09l1.68,3.56,3.91.49c.64.08.89.87.43,1.31l-2.87,2.7.74,3.87c.12.64-.55,1.12-1.11.81l-3.45-1.9-3.45,1.9c-.56.31-1.23-.17-1.11-.81l.74-3.87-2.87-2.7c-.47-.44-.22-1.23.43-1.31l3.91-.49,1.67-3.56c.27-.58,1.1-.58,1.38,0h0Z"/>
        <path class="cls-4" d="M66.6,54.96h0c1.22,0,2.43.19,3.6.57,2.96.96,5.36,3.02,6.77,5.79s1.66,5.92.7,8.88c-1.56,4.81-6.01,8.05-11.07,8.05-1.22,0-2.43-.19-3.6-.57-2.96-.96-5.36-3.02-6.77-5.79-1.41-2.77-1.66-5.92-.7-8.88,1.56-4.81,6.01-8.05,11.07-8.05M66.6,53.59c-5.48,0-10.58,3.49-12.36,8.99-2.22,6.83,1.52,14.16,8.35,16.38,1.34.43,2.69.64,4.02.64,5.48,0,10.58-3.49,12.36-8.99,2.22-6.83-1.52-14.16-8.35-16.38-1.34-.43-2.69-.64-4.02-.64h0Z"/>
        <g>
          <g>
            <path class="cls-3" d="M55.97,53.8c-.68.27-3.31.7-8.07-5.65-5.15-6.84-10.65-3.76-17.01-12.28-5.22-7.02-1.3-14.87.04-17.13h0c2.57-.57,11.25-1.85,16.29,5.31,6.1,8.69,1.46,12.96,6.35,19.99,4.54,6.5,3.1,9.04,2.63,9.61l-.24.15Z"/>
            <path class="cls-4" d="M55.23,54.6c-1.47,0-4.08-.99-7.87-6.04-2.32-3.08-4.74-4.06-7.3-5.1-2.93-1.19-6.25-2.53-9.71-7.18-5.47-7.35-1.38-15.55,0-17.88l.15-.25.29-.06c2.65-.59,11.71-1.92,16.99,5.58,3.33,4.74,3.57,8.32,3.79,11.47.19,2.76.36,5.36,2.57,8.52,4.64,6.64,3.36,9.51,2.6,10.43l-.17.15-.35.2c-.23.09-.56.17-.98.17ZM31.38,19.35c-1.39,2.45-4.72,9.68.07,16.12,3.24,4.34,6.23,5.55,9.13,6.73,2.62,1.06,5.33,2.16,7.87,5.54,4.46,5.94,6.81,5.57,7.23,5.44l.07-.04c.32-.49,1.38-2.83-2.72-8.71-2.42-3.47-2.62-6.39-2.81-9.21-.21-3.12-.43-6.34-3.54-10.78-4.62-6.55-12.54-5.65-15.29-5.09Z"/>
          </g>
          <g>
            <path class="cls-3" d="M65.63,50.15c-.71-.18-3.09-1.38-3.22-9.3-.16-8.56-6.42-9.29-6.58-19.92-.11-8.75,7.66-12.8,10.08-13.85h0c2.41,1.05,10.19,5.1,10.08,13.85-.16,10.62-6.42,11.36-6.58,19.92-.13,7.93-2.79,9.14-3.5,9.33l-.28-.02Z"/>
            <path class="cls-4" d="M65.97,50.86l-.51-.05c-1.08-.28-3.6-1.8-3.73-9.95-.07-3.85-1.45-6.07-2.92-8.41-1.67-2.68-3.57-5.71-3.66-11.51-.12-9.17,8-13.4,10.49-14.49l.27-.12.27.12c2.49,1.08,10.61,5.32,10.49,14.48-.09,5.8-1.98,8.83-3.66,11.51-1.46,2.34-2.85,4.56-2.92,8.41-.14,8.1-2.85,9.67-4.02,9.97l-.11.03ZM65.75,49.48h.08c.55-.2,2.78-1.47,2.9-8.64.08-4.23,1.63-6.71,3.12-9.11,1.66-2.65,3.37-5.39,3.45-10.81.1-8.02-6.84-11.93-9.4-13.1-2.56,1.16-9.5,5.08-9.4,13.1.08,5.41,1.79,8.15,3.45,10.81,1.5,2.4,3.05,4.88,3.13,9.11.12,7.43,2.25,8.5,2.67,8.64Z"/>
          </g>
          <g>
            <path class="cls-3" d="M75.65,52.67c-.46-.57-1.68-2.94,2.9-9.41,4.94-7,.32-11.29,6.47-19.95,5.08-7.12,13.75-5.79,16.32-5.21h0c1.33,2.27,5.2,10.14-.06,17.13-6.41,8.47-11.89,5.36-17.08,12.17-4.8,6.31-7.66,5.72-8.34,5.45l-.21-.19Z"/>
            <path class="cls-4" d="M76.78,53.7c-.5,0-.89-.1-1.16-.21l-.19-.12-.3-.27c-.7-.86-1.83-3.58,2.87-10.23,2.22-3.15,2.41-5.75,2.62-8.51.23-3.15.5-6.72,3.85-11.44,5.32-7.46,14.37-6.08,17.02-5.48l.29.07.15.25c1.37,2.35,5.41,10.56-.1,17.89-3.49,4.62-6.82,5.95-9.75,7.12-2.57,1.02-4.99,1.99-7.33,5.06-3.71,4.89-6.4,5.88-7.97,5.88ZM76.21,52.26c.57.16,3.11.45,7.45-5.26,2.57-3.37,5.28-4.45,7.91-5.5,2.9-1.16,5.91-2.36,9.17-6.67,4.82-6.4,1.54-13.67.16-16.12-2.75-.57-10.67-1.52-15.32,5.01-3.14,4.41-3.38,7.64-3.61,10.75-.21,2.82-.42,5.73-2.86,9.19-4.29,6.07-3.21,8.19-2.96,8.55l.06.05Z"/>
          </g>
          <g>
            <path class="cls-3" d="M82.1,60.64c-.04-.73.36-3.36,7.87-5.91,8.1-2.77,6.88-8.96,16.95-12.36,8.29-2.79,14.53,3.38,16.27,5.35h0c-.26,2.62-1.74,11.27-10.1,13.84-10.16,3.1-12.78-2.64-20.97-.16-7.59,2.3-9.56.14-9.95-.48l-.06-.28Z"/>
            <path class="cls-4" d="M107.26,63.19c-2.37,0-4.27-.48-6.04-.93-2.68-.68-5.21-1.32-8.9-.2-7.75,2.35-10.08.24-10.72-.77l-.09-.21-.08-.39c-.06-1.11.62-3.98,8.33-6.6,3.65-1.25,5.33-3.24,7.11-5.35,2.04-2.41,4.35-5.15,9.84-7,8.69-2.92,15.21,3.51,17,5.55l.2.22-.03.29c-.27,2.7-1.82,11.73-10.58,14.42-2.34.71-4.31.97-6.03.97ZM96.21,60.09c1.98,0,3.68.43,5.34.85,3.03.77,6.17,1.56,11.34-.02,7.66-2.36,9.26-10.16,9.59-12.96-1.89-2.08-7.74-7.49-15.35-4.94-5.13,1.73-7.21,4.2-9.23,6.59-1.82,2.16-3.71,4.39-7.71,5.76-7.03,2.39-7.41,4.75-7.41,5.18l.02.08c.36.46,2.26,2.19,9.12.11,1.6-.48,3-.66,4.29-.66Z"/>
          </g>
          <g>
            <path class="cls-3" d="M82.63,71.23c.39-.62,2.26-2.51,9.84-.19,8.19,2.5,10.82-3.23,20.97-.1,8.36,2.6,9.81,11.25,10.06,13.87h0c-1.74,1.97-8,8.12-16.29,5.31-10.05-3.43-8.82-9.61-16.91-12.41-7.5-2.58-7.83-5.48-7.79-6.21l.11-.26Z"/>
            <path class="cls-4" d="M111.5,91.52c-1.42,0-2.92-.23-4.5-.76-5.49-1.87-7.79-4.61-9.82-7.03-1.78-2.12-3.45-4.12-7.1-5.37-7.66-2.63-8.32-5.7-8.24-6.9l.05-.22.16-.37c.6-.94,2.83-2.86,10.62-.48,3.69,1.13,6.22.49,8.9-.18,3.06-.76,6.54-1.63,12.08.08,8.75,2.72,10.28,11.75,10.53,14.45v.12s-.06.27-.06.27l-.11.13c-1.47,1.67-6.12,6.26-12.52,6.26ZM83.2,71.64c.02.58.54,3.1,7.33,5.43,4,1.38,5.88,3.62,7.7,5.79,2.01,2.39,4.09,4.87,9.21,6.62,7.59,2.58,13.46-2.82,15.36-4.89-.32-2.79-1.89-10.61-9.55-12.99-5.17-1.6-8.31-.81-11.34-.06-2.74.68-5.58,1.39-9.63.16-7.1-2.18-8.78-.49-9.04-.13l-.03.08Z"/>
          </g>
          <g>
            <g>
              <path class="cls-3" d="M77.24,79.4c.68-.27,3.31-.7,8.07,5.65,5.15,6.84,10.65,3.76,17.01,12.28,5.22,7.02,1.3,14.87-.04,17.13h0c-2.57.57-11.25,1.85-16.29-5.31-6.1-8.69-1.46-12.96-6.35-19.99-4.54-6.5-3.1-9.04-2.63-9.61l.24-.15Z"/>
              <path class="cls-4" d="M97.94,115.6c-3.86,0-9.02-1.09-12.52-6.06-3.33-4.74-3.57-8.32-3.79-11.47-.19-2.76-.36-5.36-2.57-8.52-4.64-6.64-3.36-9.51-2.6-10.43l.17-.15.35-.2c1.03-.4,3.97-.65,8.86,5.87,2.32,3.08,4.73,4.06,7.3,5.1,2.93,1.19,6.24,2.53,9.71,7.18,5.47,7.35,1.38,15.55,0,17.88l-.15.25-.29.06c-.89.2-2.52.48-4.47.48ZM77.46,80.06c-.32.49-1.38,2.83,2.72,8.71,2.42,3.47,2.62,6.39,2.81,9.21.21,3.12.43,6.34,3.54,10.78,4.62,6.55,12.54,5.65,15.29,5.1,1.39-2.45,4.72-9.69-.07-16.12-3.24-4.34-6.23-5.55-9.13-6.73-2.62-1.06-5.33-2.16-7.87-5.54-4.46-5.94-6.81-5.57-7.23-5.44l-.07.04Z"/>
            </g>
            <g>
              <path class="cls-3" d="M67.58,83.05c.71.18,3.09,1.38,3.22,9.3.16,8.56,6.42,9.29,6.58,19.92.11,8.75-7.66,12.8-10.08,13.85h0c-2.41-1.05-10.19-5.1-10.08-13.85.16-10.62,6.42-11.36,6.58-19.92.13-7.93,2.79-9.14,3.5-9.33l.28.02Z"/>
              <path class="cls-4" d="M67.3,126.86l-.27-.12c-2.49-1.08-10.61-5.32-10.49-14.49.09-5.79,1.98-8.83,3.66-11.51,1.46-2.34,2.85-4.56,2.92-8.41.14-8.1,2.85-9.67,4.02-9.97l.11-.03.51.05c1.08.28,3.6,1.8,3.73,9.95.07,3.85,1.45,6.07,2.92,8.41,1.67,2.68,3.57,5.71,3.66,11.51.12,9.16-8,13.4-10.49,14.49l-.27.12ZM67.37,83.71c-.55.2-2.78,1.48-2.9,8.65-.08,4.23-1.63,6.71-3.12,9.11-1.66,2.65-3.37,5.39-3.45,10.81-.1,8.02,6.84,11.93,9.4,13.1,2.56-1.17,9.51-5.08,9.4-13.1-.08-5.41-1.79-8.16-3.45-10.81-1.5-2.4-3.05-4.88-3.13-9.11-.12-7.44-2.25-8.5-2.67-8.64h-.08Z"/>
            </g>
            <g>
              <path class="cls-3" d="M57.55,80.53c.46.57,1.68,2.94-2.9,9.41-4.94,7-.32,11.29-6.47,19.95-5.08,7.12-13.75,5.79-16.32,5.21h0c-1.33-2.27-5.2-10.14.06-17.13,6.41-8.47,11.89-5.36,17.08-12.17,4.8-6.31,7.66-5.72,8.34-5.45l.21.19Z"/>
              <path class="cls-4" d="M36.3,116.27c-2.01,0-3.68-.3-4.59-.51l-.29-.07-.15-.26c-1.37-2.34-5.41-10.56.1-17.88,3.5-4.62,6.82-5.95,9.75-7.12,2.57-1.02,4.99-1.99,7.33-5.06,4.9-6.46,8.02-6.12,9.14-5.67l.19.12.3.27c.7.86,1.83,3.58-2.87,10.23-2.22,3.15-2.41,5.75-2.62,8.51-.23,3.15-.5,6.72-3.85,11.44-3.49,4.9-8.59,5.98-12.43,5.98ZM32.3,114.5c2.76.58,10.67,1.53,15.32-5,3.14-4.41,3.38-7.64,3.61-10.75.21-2.82.42-5.73,2.86-9.19,4.29-6.06,3.21-8.19,2.96-8.55l-.06-.05c-.56-.17-3.11-.46-7.45,5.26-2.56,3.37-5.28,4.45-7.9,5.5-2.9,1.16-5.91,2.36-9.17,6.68-4.82,6.4-1.54,13.66-.16,16.12Z"/>
            </g>
            <g>
              <path class="cls-3" d="M51.1,72.55c.04.73-.36,3.36-7.87,5.91-8.1,2.77-6.88,8.96-16.95,12.36-8.29,2.79-14.53-3.38-16.27-5.35h0c.26-2.62,1.74-11.27,10.1-13.84,10.16-3.1,12.78,2.64,20.97.16,7.59-2.3,9.56-.14,9.95.48l.06.28Z"/>
              <path class="cls-4" d="M22.04,92.22c-6.42,0-11.07-4.63-12.54-6.3l-.2-.22.03-.29c.27-2.7,1.81-11.73,10.58-14.42,5.54-1.7,9.01-.82,12.08-.04,2.68.68,5.21,1.32,8.9.2,7.76-2.35,10.08-.24,10.72.77l.09.21.08.39c.06,1.11-.62,3.98-8.33,6.6-3.65,1.25-5.33,3.24-7.11,5.35-2.04,2.41-4.35,5.15-9.84,7-1.56.52-3.06.75-4.46.75ZM10.72,85.24c1.89,2.08,7.74,7.49,15.35,4.94,5.13-1.73,7.21-4.2,9.23-6.59,1.82-2.16,3.71-4.39,7.71-5.76,7.03-2.39,7.41-4.75,7.41-5.18l-.02-.08c-.36-.46-2.25-2.2-9.12-.11-4.05,1.22-6.89.51-9.63-.19-3.03-.77-6.17-1.56-11.34.02-7.66,2.36-9.26,10.16-9.59,12.96Z"/>
            </g>
            <g>
              <path class="cls-3" d="M50.58,61.96c-.39.62-2.26,2.51-9.84.19-8.19-2.5-10.82,3.23-20.97.1-8.36-2.6-9.81-11.25-10.06-13.87h0c1.74-1.97,8-8.12,16.29-5.31,10.05,3.43,8.82,9.61,16.91,12.41,7.5,2.58,7.83,5.48,7.79,6.21l-.11.26Z"/>
              <path class="cls-4" d="M46.89,63.95c-1.54,0-3.6-.31-6.35-1.15-3.69-1.12-6.22-.49-8.9.18-3.06.76-6.54,1.63-12.08-.08-8.75-2.72-10.28-11.75-10.54-14.45l-.03-.29.2-.22c1.8-2.04,8.34-8.45,17.02-5.5,5.49,1.87,7.79,4.61,9.82,7.03,1.78,2.12,3.45,4.12,7.1,5.37,7.66,2.63,8.32,5.7,8.24,6.9l-.05.22-.16.36c-.39.61-1.45,1.62-4.26,1.62ZM36.6,60.83c1.3,0,2.72.18,4.33.68,7.1,2.18,8.78.49,9.04.13l.03-.08c-.03-.59-.55-3.1-7.33-5.43-4-1.38-5.88-3.62-7.7-5.79-2.01-2.4-4.09-4.87-9.21-6.62-7.59-2.58-13.46,2.82-15.36,4.89.32,2.8,1.89,10.61,9.55,12.99,5.17,1.6,8.31.82,11.34.06,1.65-.41,3.34-.83,5.3-.83Z"/>
            </g>
          </g>
        </g>
      </g>
    </g>
  </g>
</svg>