<?xml version="1.0" encoding="UTF-8"?>
<svg id="Layer_2" data-name="Layer 2" xmlns="http://www.w3.org/2000/svg" viewBox="0 0 133.2 133.2">
  <defs>
    <style>
      .cls-1 {
        fill: #5e7dbd;
      }

      .cls-2 {
        fill: #f8ead6;
      }

      .cls-3 {
        fill: #e6a631;
      }

      .cls-4 {
        fill: #081b1e;
      }

      .cls-5 {
        fill: #984398;
      }
    </style>
  </defs>
  <g id="Art">
    <g>
      <rect class="cls-2" width="133.2" height="133.2"/>
      <g>
        <path class="cls-5" d="M80.02,66.6c0,7.41-6.01,13.42-13.42,13.42s-13.42-6.01-13.42-13.42,6.01-13.42,13.42-13.42,13.42,6.01,13.42,13.42"/>
        <path class="cls-1" d="M69.27,86.06l5.59,17.23c1.57,4.84.95,10.68-1.53,14.51l-4.67,7.18c-1.15,1.78-3.03,1.78-4.19,0l-4.6-7.08c-2.49-3.83-3.11-9.68-1.53-14.52l5.64-17.32c1.09-3.35,4.21-3.35,5.3,0"/>
        <path class="cls-4" d="M66.57,127.01c-1.04,0-1.99-.59-2.68-1.65l-4.6-7.08c-2.6-4-3.25-10.08-1.61-15.12l5.64-17.32c.6-1.85,1.87-3,3.32-3h0c1.44,0,2.71,1.15,3.31,3l5.59,17.23c1.64,5.04.99,11.11-1.62,15.11l-4.67,7.18c-.69,1.06-1.64,1.65-2.68,1.65h0ZM66.63,84.25c-.81,0-1.57.78-1.98,2.03l-5.64,17.32c-1.52,4.66-.93,10.25,1.45,13.92l4.6,7.08c.85,1.31,2.16,1.31,3.01,0l4.67-7.18c2.38-3.66,2.97-9.25,1.46-13.91l-5.59-17.23c-.41-1.25-1.17-2.03-1.98-2.03h0Z"/>
        <path class="cls-1" d="M57.32,83.92l-5.6,17.22c-1.57,4.84-5.51,9.2-9.77,10.83l-8,3.06c-1.98.76-3.5-.34-3.39-2.46l.43-8.43c.24-4.56,3.18-9.66,7.3-12.65l14.74-10.7c2.85-2.07,5.37-.24,4.28,3.12"/>
        <path class="cls-4" d="M32.75,115.98c-.63,0-1.2-.18-1.69-.53-.84-.61-1.26-1.64-1.2-2.91l.43-8.43c.25-4.77,3.29-10.07,7.59-13.18l14.75-10.7c1.57-1.14,3.28-1.33,4.44-.48,1.17.85,1.52,2.53.92,4.38l-5.6,17.22c-1.64,5.04-5.73,9.56-10.19,11.27l-8,3.06c-.5.19-.99.29-1.45.29ZM55.37,80.63c-.57,0-1.25.25-1.92.74l-14.75,10.7c-3.96,2.88-6.78,7.75-7.01,12.12l-.43,8.43c-.04.78.18,1.38.62,1.7.44.32,1.09.34,1.81.06l8-3.06c4.08-1.56,7.84-5.74,9.35-10.39l5.6-17.22c.41-1.25.25-2.33-.41-2.81-.24-.18-.54-.26-.88-.26Z"/>
        <path class="cls-1" d="M48.92,75.16l-14.66,10.64c-4.12,2.99-9.86,4.21-14.27,3.02l-8.27-2.22c-2.05-.55-2.63-2.33-1.29-3.98l5.31-6.56c2.87-3.55,8.24-5.95,13.34-5.94h18.22c3.53.01,4.49,2.98,1.63,5.05"/>
        <path class="cls-4" d="M23.57,89.97c-1.31,0-2.58-.15-3.76-.47l-8.27-2.22c-1.23-.33-2.08-1.05-2.4-2.04-.32-.98-.06-2.07.74-3.06l5.31-6.56c3-3.71,8.57-6.2,13.87-6.2h18.23c1.95.01,3.43.87,3.88,2.24.45,1.37-.26,2.94-1.83,4.08l-14.66,10.64c-3.19,2.32-7.31,3.6-11.1,3.6ZM29.06,70.81c-4.9,0-10.03,2.28-12.78,5.68l-5.31,6.56c-.49.61-.67,1.23-.5,1.74.17.52.68.91,1.43,1.12l8.27,2.22c4.22,1.13,9.71-.04,13.67-2.91l14.66-10.64c1.07-.78,1.57-1.74,1.32-2.51-.25-.77-1.22-1.26-2.54-1.26h-18.22s0-.01,0-.01Z"/>
        <path class="cls-1" d="M47.26,63.13h-18.11c-5.09,0-10.45-2.4-13.32-5.95l-5.39-6.66c-1.33-1.65-.75-3.43,1.29-3.98l8.15-2.19c4.41-1.19,10.16.04,14.28,3.03l14.73,10.72c2.85,2.08,1.89,5.04-1.64,5.04"/>
        <path class="cls-4" d="M47.26,63.83h-18.11c-5.29,0-10.87-2.5-13.87-6.21l-5.38-6.66c-.8-.99-1.06-2.07-.74-3.06.32-.99,1.17-1.71,2.4-2.04l8.15-2.19c4.61-1.24,10.59.02,14.88,3.14l14.73,10.72c1.57,1.14,2.27,2.71,1.83,4.08-.45,1.37-1.93,2.23-3.88,2.23ZM23.5,44.59c-1.19,0-2.35.14-3.42.43l-8.15,2.19c-.75.2-1.26.6-1.43,1.12-.17.52,0,1.14.5,1.74l5.38,6.66c2.75,3.4,7.88,5.68,12.77,5.68h18.11c1.32,0,2.29-.48,2.54-1.25.25-.77-.25-1.74-1.32-2.51l-14.73-10.72c-2.96-2.15-6.77-3.35-10.26-3.35Z"/>
        <path class="cls-1" d="M53,52.42l-14.65-10.65c-4.12-2.99-7.05-8.08-7.28-12.64l-.44-8.56c-.11-2.12,1.41-3.22,3.39-2.46l7.88,3.02c4.27,1.63,8.2,6,9.77,10.85l5.62,17.33c1.09,3.36-1.43,5.18-4.29,3.11"/>
        <path class="cls-4" d="M55.34,54c-.87,0-1.84-.34-2.76-1.01l-14.65-10.65c-4.28-3.11-7.33-8.41-7.57-13.17l-.44-8.56c-.07-1.27.36-2.3,1.2-2.91.84-.61,1.95-.7,3.14-.24l7.88,3.02c4.46,1.71,8.56,6.24,10.19,11.29l5.62,17.33c.6,1.85.25,3.53-.92,4.38-.49.35-1.07.53-1.69.53ZM53.41,51.86c1.06.78,2.14.96,2.8.48.66-.48.82-1.55.41-2.81l-5.62-17.33c-1.51-4.66-5.27-8.84-9.36-10.41l-7.88-3.02c-.73-.28-1.37-.26-1.81.06-.44.32-.66.92-.62,1.7l.44,8.56c.22,4.36,3.04,9.23,7,12.11l14.65,10.65Z"/>
        <path class="cls-1" d="M63.93,47.13l-5.59-17.23c-1.57-4.84-.95-10.68,1.53-14.51l4.67-7.18c1.15-1.78,3.03-1.78,4.19,0l4.6,7.08c2.49,3.83,3.11,9.68,1.53,14.52l-5.64,17.32c-1.09,3.35-4.21,3.35-5.3,0"/>
        <path class="cls-4" d="M66.58,50.35h0c-1.44,0-2.71-1.15-3.31-3l-5.59-17.23c-1.64-5.04-.99-11.11,1.61-15.11l4.67-7.18c.69-1.07,1.64-1.65,2.68-1.65h0c1.04,0,1.99.59,2.68,1.65l4.6,7.08c2.6,4,3.25,10.08,1.61,15.12l-5.64,17.32c-.6,1.85-1.87,3-3.32,3ZM64.6,46.92c.41,1.25,1.17,2.03,1.98,2.03.86-.03,1.57-.78,1.98-2.03l5.64-17.32c1.52-4.66.93-10.25-1.45-13.92l-4.6-7.08c-.85-1.31-2.16-1.31-3.01,0l-4.67,7.18c-2.38,3.66-2.97,9.25-1.46,13.91l5.59,17.23Z"/>
        <path class="cls-1" d="M75.88,49.28l5.6-17.22c1.57-4.84,5.51-9.2,9.77-10.83l8-3.06c1.98-.76,3.5.34,3.39,2.46l-.43,8.43c-.24,4.56-3.18,9.66-7.3,12.65l-14.74,10.7c-2.85,2.07-5.37.24-4.28-3.12"/>
        <path class="cls-4" d="M77.82,53.97c-.63,0-1.21-.17-1.7-.53-1.17-.85-1.52-2.53-.92-4.38l5.6-17.22c1.64-5.03,5.73-9.56,10.19-11.27l8-3.06c1.19-.46,2.3-.37,3.14.24.84.61,1.26,1.64,1.2,2.91l-.43,8.43c-.25,4.77-3.3,10.07-7.59,13.18l-14.74,10.7c-.92.67-1.88,1-2.75,1ZM100.45,18.62c-.29,0-.61.06-.95.19l-8,3.06c-4.08,1.56-7.84,5.74-9.35,10.39l-5.6,17.22c-.41,1.25-.25,2.33.41,2.81.66.48,1.73.3,2.79-.48l14.74-10.7c3.97-2.88,6.78-7.75,7.01-12.12l.43-8.43c.04-.78-.18-1.38-.62-1.7-.24-.17-.53-.26-.87-.26Z"/>
        <path class="cls-1" d="M84.29,58.04l14.66-10.64c4.12-2.99,9.86-4.21,14.27-3.02l8.27,2.22c2.05.55,2.63,2.33,1.29,3.98l-5.31,6.56c-2.87,3.55-8.24,5.95-13.34,5.94h-18.22c-3.53-.01-4.49-2.98-1.63-5.05"/>
        <path class="cls-4" d="M104.15,63.79h-18.23c-1.95-.01-3.43-.87-3.88-2.24-.45-1.37.26-2.94,1.83-4.08l14.66-10.64c4.29-3.11,10.26-4.37,14.86-3.13l8.27,2.23c1.23.33,2.08,1.05,2.4,2.04.32.99.06,2.07-.74,3.06l-5.31,6.56c-3,3.71-8.57,6.2-13.87,6.2ZM84.7,58.61h0c-1.07.77-1.57,1.74-1.32,2.51.25.77,1.22,1.26,2.54,1.26h18.22s0,.01,0,.01c4.9,0,10.03-2.28,12.78-5.68l5.31-6.56c.49-.61.67-1.23.5-1.74-.17-.52-.68-.91-1.43-1.12l-8.27-2.23c-4.22-1.13-9.71.04-13.67,2.91l-14.66,10.64Z"/>
        <path class="cls-1" d="M85.94,70.07h18.11c5.09,0,10.45,2.4,13.32,5.95l5.39,6.66c1.33,1.65.75,3.43-1.29,3.98l-8.15,2.19c-4.41,1.19-10.16-.04-14.28-3.03l-14.73-10.72c-2.85-2.08-1.89-5.04,1.64-5.04"/>
        <path class="cls-4" d="M109.73,90c-3.8,0-7.92-1.29-11.11-3.61l-14.73-10.72c-1.57-1.15-2.27-2.71-1.83-4.08.45-1.37,1.93-2.23,3.88-2.23h18.11c5.3,0,10.87,2.5,13.87,6.21l5.39,6.66c.8.99,1.06,2.08.74,3.06-.32.99-1.17,1.71-2.4,2.04l-8.15,2.19c-1.18.32-2.45.47-3.76.47ZM85.94,70.77c-1.32,0-2.29.48-2.54,1.26-.25.77.25,1.74,1.32,2.51l14.73,10.72c3.96,2.88,9.46,4.05,13.69,2.92l8.15-2.19c.75-.2,1.26-.6,1.43-1.12.17-.52,0-1.14-.5-1.74l-5.39-6.66c-2.75-3.4-7.88-5.68-12.77-5.68h-18.11Z"/>
        <path class="cls-1" d="M80.21,80.78l14.65,10.65c4.12,2.99,7.05,8.08,7.28,12.64l.44,8.56c.11,2.12-1.41,3.22-3.39,2.46l-7.88-3.02c-4.27-1.63-8.2-6-9.77-10.85l-5.62-17.33c-1.09-3.36,1.43-5.18,4.29-3.11"/>
        <path class="cls-4" d="M100.4,116.02c-.46,0-.95-.09-1.45-.29l-7.88-3.02c-4.46-1.71-8.56-6.25-10.19-11.29l-5.62-17.33c-.6-1.85-.25-3.53.92-4.38,1.17-.85,2.87-.66,4.45.48l14.65,10.65c4.28,3.11,7.33,8.41,7.57,13.17l.44,8.56c.07,1.27-.36,2.3-1.2,2.91-.48.35-1.06.53-1.69.53ZM77.87,80.6c-.33,0-.63.09-.88.26-.66.48-.82,1.55-.41,2.81l5.62,17.33c1.51,4.66,5.27,8.84,9.36,10.41l7.88,3.02c.73.28,1.37.26,1.81-.06.44-.32.66-.92.62-1.7l-.44-8.56c-.22-4.36-3.04-9.23-7-12.11l-14.65-10.65c-.67-.49-1.35-.74-1.92-.74Z"/>
        <path class="cls-5" d="M55.28,70.95c.15.39.32.78.51,1.15,1.47,2.89,3.98,5.03,7.06,6.03,1.01.33,2.06.52,3.11.57v-11.23l-10.68,3.47Z"/>
        <path class="cls-5" d="M74.24,57.18l-6.6,9.08,10.67,3.47c1.26-4.72-.45-9.6-4.07-12.55Z"/>
        <path class="cls-5" d="M67.25,78.71c4.79-.25,8.96-3.28,10.68-7.76l-10.68-3.47v11.23Z"/>
        <path class="cls-5" d="M73.2,56.43c-.87-.56-1.82-1.04-2.85-1.37-1.22-.4-2.48-.6-3.75-.6-2.41,0-4.68.71-6.6,1.96l6.61,9.09,6.6-9.08Z"/>
        <path class="cls-2" d="M58.96,57.17c-1.78,1.44-3.15,3.38-3.9,5.68-.74,2.26-.79,4.64-.18,6.88l10.68-3.47-6.6-9.09Z"/>
        <path class="cls-3" d="M54.06,71.35h0s-.02-.07-.03-.1l.03.1Z"/>
        <path class="cls-3" d="M65.97,66.81l-.4-.55-10.68,3.47c.11.41.24.82.4,1.22l10.68-3.47v-.67Z"/>
        <path class="cls-3" d="M66.21,66.05l.4-.55-6.61-9.09c-.36.23-.7.48-1.04.75l6.6,9.09.64-.21Z"/>
        <path class="cls-3" d="M59.24,55.37l-1.04.75v.02c.35-.27.7-.52,1.05-.75l-.02-.02Z"/>
        <polygon class="cls-3" points="66.61 66.6 66.09 66.22 66.21 66.05 65.57 66.26 65.97 66.81 65.97 66.6 66.61 66.6"/>
        <path class="cls-3" d="M79.15,71.35l.04-.12s-.03.08-.04.12h0Z"/>
        <path class="cls-3" d="M67.25,66.81v.67l10.68,3.47c.08-.2.16-.4.22-.6.07-.21.11-.41.17-.62l-10.67-3.47-.4.55Z"/>
        <path class="cls-3" d="M66.61,67.27l-.64.21v11.23c.21.01.43.03.64.03s.43-.01.64-.03v-11.23l-.64-.21Z"/>
        <polygon class="cls-3" points="66.61 66.6 66.09 66.98 65.97 66.81 65.97 67.48 66.61 67.27 66.41 67.21 66.61 66.6"/>
        <polygon class="cls-3" points="66.61 66.6 65.97 66.6 65.97 66.81 66.09 66.98 66.61 66.6"/>
        <polygon class="cls-3" points="66.61 66.6 66.81 67.21 66.61 67.27 67.25 67.48 67.25 66.81 67.13 66.98 66.61 66.6"/>
        <polygon class="cls-3" points="66.61 66.6 66.41 67.21 66.61 67.27 66.81 67.21 66.61 66.6"/>
        <path class="cls-3" d="M75,56.14l-.13-.09s.09.07.13.1h0Z"/>
        <path class="cls-3" d="M73.96,55.38h0s.06.04.09.06l-.08-.06Z"/>
        <path class="cls-3" d="M67,66.05l.64.21,6.6-9.08c-.33-.27-.68-.52-1.04-.75l-6.6,9.08.4.55Z"/>
        <polygon class="cls-3" points="66.61 66.6 66.81 65.99 67 66.05 66.61 65.51 66.21 66.05 66.41 65.99 66.61 66.6"/>
        <polygon class="cls-3" points="66.61 66.6 66.41 65.99 66.21 66.05 66.09 66.22 66.61 66.6"/>
        <polygon class="cls-3" points="67.13 66.22 66.61 66.6 67.25 66.6 67.25 66.81 67.65 66.26 67 66.05 67.13 66.22"/>
        <polygon class="cls-3" points="66.61 66.6 67.13 66.22 67 66.05 66.81 65.99 66.61 66.6"/>
        <polygon class="cls-3" points="66.61 66.6 67.13 66.98 67.25 66.81 67.25 66.6 66.61 66.6"/>
        <path class="cls-3" d="M74.05,55.44l.82.6c-.27-.21-.54-.41-.82-.6Z"/>
        <path class="cls-3" d="M79.37,70.75c.04-.14.07-.27.11-.41l-.29.89c.06-.16.12-.32.18-.48Z"/>
        <path class="cls-3" d="M66.61,54.46c1.27,0,2.53.2,3.75.6,1.03.34,1.98.81,2.85,1.37l.76-1.04c-.98-.64-2.04-1.17-3.21-1.55-1.38-.45-2.77-.66-4.15-.66-2.64,0-5.19.79-7.35,2.21l.75,1.03c1.92-1.25,4.19-1.96,6.6-1.96Z"/>
        <path class="cls-3" d="M54.89,69.73c-.61-2.25-.56-4.62.18-6.88.74-2.29,2.12-4.24,3.9-5.68l-.75-1.03c-1.97,1.58-3.53,3.73-4.37,6.31-.97,2.99-.83,6.06.18,8.79l-.36-1.12,1.22-.4Z"/>
        <path class="cls-3" d="M62.86,78.14c-3.08-1-5.59-3.14-7.06-6.03-.19-.38-.36-.76-.51-1.15l-1.22.4c1.39,3.67,4.37,6.7,8.4,8.01,1.16.38,2.34.58,3.5.64v-1.28c-1.05-.06-2.09-.24-3.11-.57Z"/>
        <path class="cls-3" d="M67.25,78.71v1.28c5.21-.25,9.97-3.54,11.9-8.65l-1.22-.4c-1.72,4.48-5.89,7.51-10.68,7.76Z"/>
        <path class="cls-3" d="M78.32,69.73l1.22.4c1.44-5.27-.48-10.72-4.54-13.98l-.76,1.04c3.62,2.94,5.34,7.83,4.07,12.55Z"/>
        <path class="cls-3" d="M54.89,69.73l-1.22.4.36,1.12s.02.07.03.1l1.22-.4c-.16-.4-.28-.81-.4-1.22Z"/>
        <path class="cls-3" d="M60,56.42l-.75-1.03c-.36.23-.7.48-1.04.75l.75,1.03c.33-.27.68-.52,1.04-.75Z"/>
        <path class="cls-3" d="M78.32,69.73c-.06.21-.1.41-.17.62-.07.21-.15.4-.22.6l1.22.4s.03-.08.04-.12l.29-.89c.02-.07.04-.14.06-.21l-1.22-.4Z"/>
        <path class="cls-3" d="M74.24,57.18l.76-1.04s-.08-.07-.13-.1l-.82-.6s-.06-.04-.09-.05l-.76,1.04c.36.23.71.48,1.04.75Z"/>
        <rect class="cls-4" x="53.53" y="67.97" width="13.4" height="1.4" transform="translate(-18.25 21.94) rotate(-17.97)"/>
        <rect class="cls-4" x="61.96" y="54.46" width="1.4" height="13.42" transform="translate(-23.99 48.51) rotate(-36)"/>
        <rect class="cls-4" x="72.27" y="61.97" width="1.4" height="13.4" transform="translate(-14.89 116.85) rotate(-72)"/>
        <rect class="cls-4" x="65.9" y="66.6" width="1.4" height="13.42"/>
        <rect class="cls-4" x="63.84" y="60.48" width="13.4" height="1.4" transform="translate(-20.43 82.26) rotate(-53.98)"/>
        <path class="cls-4" d="M66.6,54.58h0c1.26,0,2.51.2,3.71.59,3.05.99,5.53,3.11,6.99,5.97s1.71,6.11.72,9.17c-1.61,4.97-6.2,8.3-11.42,8.3-1.26,0-2.51-.2-3.72-.59-6.3-2.05-9.76-8.84-7.71-15.14,1.61-4.97,6.2-8.3,11.42-8.3M66.6,53.18c-5.66,0-10.92,3.61-12.76,9.28-2.29,7.05,1.57,14.62,8.62,16.91,1.38.45,2.77.66,4.15.66,5.66,0,10.92-3.61,12.76-9.28,2.29-7.05-1.57-14.62-8.62-16.91-1.38-.45-2.77-.66-4.15-.66h0Z"/>
      </g>
    </g>
  </g>
</svg>