<?xml version="1.0" encoding="UTF-8"?>
<svg id="Layer_2" data-name="Layer 2" xmlns="http://www.w3.org/2000/svg" viewBox="0 0 133.2 133.2">
  <defs>
    <style>
      .cls-1 {
        fill: #f8ead6;
      }

      .cls-2 {
        fill: #e6a631;
      }

      .cls-3 {
        fill: #081b1e;
      }

      .cls-4 {
        fill: #ee4423;
      }
    </style>
  </defs>
  <g id="Art">
    <rect class="cls-1" width="133.2" height="133.2"/>
    <path class="cls-4" d="M57.89,29.01c0,8.51,3.33,16.22,8.72,21.98,5.39-5.75,8.72-13.47,8.72-21.98s-3.33-16.22-8.72-21.98c-5.39,5.75-8.72,13.47-8.72,21.98"/>
    <path class="cls-3" d="M66.61,51.98l-.5-.53c-5.74-6.13-8.9-14.1-8.9-22.44s3.16-16.32,8.9-22.44l.5-.53.5.53c5.74,6.13,8.9,14.1,8.9,22.44s-3.16,16.32-8.9,22.44l-.5.53ZM66.61,8.04c-5.19,5.8-8.04,13.22-8.04,20.97s2.85,15.17,8.04,20.97c5.19-5.8,8.04-13.21,8.04-20.97s-2.85-15.17-8.04-20.97Z"/>
    <path class="cls-4" d="M81.65,31.06c-5,6.88-6.85,15.08-5.87,22.9,7.74-1.49,14.97-5.77,19.97-12.66,5-6.88,6.85-15.08,5.87-22.9-7.75,1.49-14.97,5.77-19.97,12.66"/>
    <path class="cls-3" d="M75.2,54.77l-.09-.72c-1.04-8.33,1.08-16.64,5.99-23.39h0c4.91-6.75,12.15-11.34,20.39-12.92l.71-.14.09.72c1.04,8.33-1.09,16.64-5.99,23.39-4.9,6.75-12.15,11.34-20.39,12.93l-.71.14ZM82.2,31.46c-4.56,6.27-6.61,13.95-5.82,21.69,7.61-1.64,14.27-5.97,18.83-12.24,4.56-6.27,6.61-13.95,5.83-21.69-7.6,1.64-14.27,5.97-18.83,12.24h0Z"/>
    <path class="cls-4" d="M99.66,46.69c-8.09,2.63-14.4,8.18-18.21,15.08,7.14,3.35,15.5,4.13,23.6,1.5,8.09-2.63,14.4-8.18,18.21-15.08-7.14-3.35-15.5-4.13-23.6-1.5"/>
    <path class="cls-3" d="M95.15,65.53c-4.78,0-9.55-1.05-13.98-3.13l-.66-.31.35-.64c4.05-7.35,10.65-12.82,18.59-15.4h0c7.94-2.58,16.49-2.04,24.1,1.53l.66.31-.35.64c-4.05,7.35-10.66,12.82-18.59,15.4-3.3,1.07-6.71,1.6-10.11,1.6ZM82.41,61.46c7.11,3.14,15.05,3.56,22.43,1.16,7.38-2.4,13.55-7.4,17.46-14.12-7.12-3.14-15.06-3.56-22.43-1.16-7.38,2.4-13.55,7.4-17.46,14.12Z"/>
    <path class="cls-4" d="M105.05,69.92c-8.09-2.63-16.46-1.85-23.6,1.5,3.81,6.91,10.12,12.45,18.21,15.08,8.09,2.63,16.46,1.85,23.6-1.5-3.81-6.91-10.12-12.45-18.21-15.08"/>
    <path class="cls-3" d="M109.56,88.76c-3.4,0-6.81-.53-10.11-1.6-7.94-2.58-14.54-8.05-18.59-15.4l-.35-.64.66-.31c7.6-3.57,16.16-4.11,24.09-1.53h0c7.94,2.58,14.54,8.05,18.59,15.4l.35.64-.66.31c-4.44,2.08-9.21,3.14-13.99,3.14ZM82.41,71.73c3.91,6.73,10.09,11.73,17.46,14.12,7.38,2.4,15.31,1.98,22.43-1.16-3.91-6.73-10.09-11.73-17.46-14.12h0c-7.38-2.4-15.31-1.98-22.43,1.16Z"/>
    <path class="cls-4" d="M95.75,91.89c-5-6.88-12.23-11.17-19.97-12.66-.98,7.82.86,16.02,5.87,22.9,5,6.88,12.23,11.17,19.97,12.66.98-7.83-.86-16.02-5.87-22.9"/>
    <path class="cls-3" d="M102.2,115.6l-.71-.14c-8.24-1.58-15.49-6.17-20.39-12.92-4.91-6.75-7.03-15.06-5.99-23.39l.09-.72.71.14c8.24,1.58,15.49,6.17,20.39,12.93h0c4.9,6.75,7.03,15.05,5.99,23.39l-.09.72ZM76.37,80.04c-.79,7.74,1.27,15.41,5.82,21.69,4.56,6.27,11.22,10.6,18.83,12.24.79-7.74-1.27-15.42-5.82-21.69h0c-4.56-6.28-11.22-10.6-18.83-12.24Z"/>
    <path class="cls-4" d="M75.32,104.19c0-8.51-3.33-16.22-8.72-21.98-5.39,5.75-8.72,13.47-8.72,21.98s3.33,16.22,8.72,21.98c5.39-5.75,8.72-13.47,8.72-21.98"/>
    <path class="cls-3" d="M66.61,127.16l-.5-.53c-5.74-6.13-8.9-14.1-8.9-22.44s3.16-16.32,8.9-22.44l.5-.53.5.53c5.74,6.13,8.9,14.1,8.9,22.44s-3.16,16.32-8.9,22.44l-.5.53ZM66.61,83.22c-5.19,5.8-8.04,13.21-8.04,20.97s2.85,15.17,8.04,20.97c5.19-5.8,8.04-13.22,8.04-20.97s-2.85-15.17-8.04-20.97Z"/>
    <path class="cls-4" d="M51.56,102.13c5-6.88,6.85-15.08,5.87-22.9-7.74,1.49-14.97,5.77-19.97,12.66-5,6.88-6.85,15.08-5.87,22.9,7.75-1.49,14.97-5.77,19.97-12.66"/>
    <path class="cls-3" d="M31.01,115.6l-.09-.72c-1.04-8.33,1.09-16.64,5.99-23.39,4.9-6.75,12.15-11.34,20.39-12.92l.71-.14.09.72c1.04,8.33-1.08,16.64-5.99,23.39h0c-4.91,6.75-12.15,11.34-20.39,12.92l-.71.14ZM56.84,80.04c-7.61,1.64-14.27,5.97-18.83,12.24-4.56,6.27-6.61,13.95-5.83,21.69,7.6-1.64,14.27-5.97,18.83-12.24h0c4.56-6.28,6.61-13.95,5.82-21.69Z"/>
    <path class="cls-4" d="M33.55,86.51c8.09-2.63,14.4-8.18,18.21-15.08-7.14-3.35-15.5-4.13-23.6-1.5-8.09,2.63-14.4,8.18-18.21,15.08,7.14,3.35,15.5,4.13,23.6,1.5"/>
    <path class="cls-3" d="M23.65,88.76c-4.78,0-9.55-1.05-13.99-3.13l-.66-.31.35-.64c4.05-7.35,10.66-12.82,18.6-15.4,7.94-2.58,16.49-2.04,24.09,1.53l.66.31-.35.64c-4.05,7.35-10.65,12.82-18.59,15.4h0c-3.3,1.07-6.71,1.6-10.11,1.6ZM10.91,84.7c7.12,3.14,15.05,3.56,22.43,1.16,7.38-2.4,13.55-7.4,17.46-14.13-7.12-3.14-15.05-3.56-22.43-1.16-7.38,2.4-13.55,7.4-17.46,14.12Z"/>
    <path class="cls-4" d="M28.16,63.27c8.09,2.63,16.46,1.85,23.6-1.5-3.81-6.91-10.12-12.45-18.21-15.08-8.09-2.63-16.46-1.85-23.6,1.5,3.81,6.91,10.12,12.45,18.21,15.08"/>
    <path class="cls-3" d="M38.06,65.53c-3.4,0-6.81-.53-10.11-1.61h0c-7.94-2.58-14.54-8.05-18.6-15.4l-.35-.64.66-.31c7.6-3.57,16.16-4.11,24.1-1.53,7.94,2.58,14.54,8.05,18.59,15.4l.35.64-.66.31c-4.44,2.08-9.21,3.14-13.98,3.14ZM10.91,48.5c3.91,6.73,10.09,11.73,17.46,14.12h0c7.38,2.4,15.31,1.98,22.43-1.16-3.91-6.73-10.08-11.73-17.46-14.12-7.38-2.4-15.31-1.98-22.43,1.16Z"/>
    <path class="cls-4" d="M37.46,41.31c5,6.88,12.23,11.17,19.97,12.66.98-7.82-.86-16.02-5.87-22.9-5-6.88-12.23-11.17-19.97-12.66-.98,7.83.86,16.02,5.87,22.9"/>
    <path class="cls-3" d="M58.01,54.77l-.71-.14c-8.24-1.58-15.49-6.17-20.39-12.92-4.9-6.75-7.03-15.06-5.99-23.39l.09-.72.71.14c8.24,1.58,15.49,6.17,20.39,12.92,4.91,6.75,7.03,15.06,5.99,23.39l-.09.72ZM32.18,19.22c-.79,7.74,1.27,15.42,5.82,21.69h0c4.56,6.28,11.22,10.6,18.83,12.24.79-7.74-1.27-15.41-5.82-21.69-4.56-6.27-11.22-10.6-18.83-12.24Z"/>
    <path class="cls-1" d="M55.63,70.82c.15.38.31.75.5,1.12,1.43,2.8,3.86,4.88,6.84,5.85.98.32,1.99.5,3.01.55v-10.88l-10.35,3.36Z"/>
    <path class="cls-1" d="M74.01,57.47l-6.39,8.8,10.34,3.36c1.22-4.57-.44-9.31-3.95-12.16Z"/>
    <path class="cls-1" d="M67.23,78.34c4.64-.24,8.68-3.18,10.35-7.52l-10.35-3.36v10.88Z"/>
    <path class="cls-1" d="M59.2,57.46c-1.72,1.4-3.06,3.28-3.78,5.5-.71,2.19-.76,4.5-.17,6.67l10.35-3.36-6.4-8.81Z"/>
    <path class="cls-2" d="M54.45,71.2h0s-.02-.07-.03-.1l.03.1Z"/>
    <path class="cls-2" d="M59.47,55.71l-1.01.73v.02c.34-.26.67-.5,1.02-.73v-.02Z"/>
    <polygon class="cls-2" points="66.61 66.6 66.11 66.23 66.23 66.07 65.61 66.27 65.99 66.8 65.99 66.6 66.61 66.6"/>
    <path class="cls-2" d="M78.77,71.2l.04-.12s-.03.08-.04.12h0Z"/>
    <polygon class="cls-2" points="66.61 66.6 66.11 66.96 65.99 66.8 65.99 67.45 66.61 67.25 66.42 67.19 66.61 66.6"/>
    <polygon class="cls-2" points="66.61 66.6 65.99 66.6 65.99 66.8 66.11 66.96 66.61 66.6"/>
    <polygon class="cls-2" points="66.61 66.6 66.8 67.19 66.61 67.25 67.23 67.45 67.23 66.8 67.11 66.96 66.61 66.6"/>
    <polygon class="cls-2" points="66.61 66.6 66.42 67.19 66.61 67.25 66.8 67.19 66.61 66.6"/>
    <path class="cls-2" d="M74.75,56.46l-.13-.09s.08.06.12.1h0Z"/>
    <path class="cls-2" d="M73.74,55.73h0s.06.04.08.06l-.08-.06Z"/>
    <polygon class="cls-2" points="66.61 66.6 66.8 66.01 67 66.07 66.61 65.54 66.23 66.07 66.42 66.01 66.61 66.6"/>
    <polygon class="cls-2" points="66.61 66.6 66.42 66.01 66.23 66.07 66.11 66.23 66.61 66.6"/>
    <polygon class="cls-2" points="67.11 66.23 66.61 66.6 67.23 66.6 67.23 66.8 67.62 66.27 67 66.07 67.11 66.23"/>
    <polygon class="cls-2" points="66.61 66.6 67.11 66.23 67 66.07 66.8 66.01 66.61 66.6"/>
    <polygon class="cls-2" points="66.61 66.6 67.11 66.96 67.23 66.8 67.23 66.6 66.61 66.6"/>
    <path class="cls-2" d="M73.82,55.79l.8.58c-.26-.2-.52-.4-.8-.58Z"/>
    <path class="cls-2" d="M78.98,70.62c.04-.13.07-.26.11-.39l-.28.86c.06-.16.12-.31.17-.47Z"/>
    <path class="cls-2" d="M66.61,54.83c1.23,0,2.45.19,3.64.58,1,.32,1.92.78,2.76,1.33l.73-1.01c-.95-.62-1.98-1.14-3.11-1.5-1.34-.43-2.69-.64-4.02-.64-2.56,0-5.03.77-7.12,2.14l.73,1c1.86-1.21,4.06-1.9,6.4-1.9Z"/>
    <path class="cls-2" d="M55.25,69.64c-.59-2.18-.54-4.48.17-6.67.72-2.22,2.06-4.11,3.78-5.5l-.73-1c-1.91,1.53-3.42,3.61-4.23,6.12-.94,2.89-.8,5.87.18,8.52l-.35-1.08,1.18-.38Z"/>
    <path class="cls-2" d="M62.98,77.78c-2.99-.97-5.42-3.05-6.84-5.85-.19-.37-.35-.74-.5-1.12l-1.18.38c1.35,3.56,4.24,6.5,8.14,7.76,1.13.37,2.27.56,3.4.62v-1.24c-1.02-.05-2.03-.24-3.01-.55Z"/>
    <path class="cls-2" d="M67.23,78.34v1.24c5.04-.24,9.66-3.43,11.53-8.38l-1.18-.38c-1.67,4.34-5.71,7.28-10.35,7.52Z"/>
    <path class="cls-2" d="M77.96,69.63l1.18.38c1.4-5.11-.46-10.39-4.4-13.55l-.73,1.01c3.51,2.85,5.17,7.59,3.95,12.16Z"/>
    <path class="cls-2" d="M55.25,69.64l-1.18.38.35,1.08s.02.07.03.1l1.18-.38c-.15-.39-.28-.78-.38-1.18Z"/>
    <path class="cls-2" d="M60.21,56.73l-.73-1c-.35.23-.68.47-1.01.73l.73,1c.32-.26.66-.51,1.01-.73Z"/>
    <path class="cls-2" d="M77.96,69.63c-.05.2-.1.4-.16.6-.06.2-.14.39-.22.58l1.18.38s.03-.08.04-.12l.28-.86c.02-.07.04-.14.06-.21l-1.18-.38Z"/>
    <path class="cls-2" d="M74.01,57.47l.73-1.01s-.08-.06-.12-.1l-.8-.58s-.06-.03-.08-.05l-.73,1.01c.35.23.69.47,1.01.73Z"/>
    <path class="cls-3" d="M66.6,54.95h0c1.22,0,2.43.19,3.6.57,2.96.96,5.36,3.02,6.78,5.79,1.41,2.77,1.66,5.93.7,8.88-1.56,4.81-6.01,8.05-11.07,8.05-1.22,0-2.43-.19-3.6-.57-2.96-.96-5.36-3.02-6.78-5.79-1.41-2.77-1.66-5.93-.7-8.88,1.56-4.81,6.01-8.05,11.07-8.05M66.6,53.59c-5.48,0-10.58,3.49-12.37,8.99-2.22,6.83,1.52,14.17,8.35,16.39,1.34.43,2.69.64,4.02.64,5.48,0,10.58-3.49,12.37-8.99,2.22-6.83-1.52-14.17-8.35-16.39-1.34-.43-2.69-.64-4.02-.64h0Z"/>
    <path class="cls-2" d="M54.45,71.2h0s-.02-.07-.03-.1l.03.1Z"/>
    <path class="cls-2" d="M59.46,55.71l-1.01.73v.02c.34-.26.67-.5,1.02-.73v-.02Z"/>
    <path class="cls-2" d="M78.76,71.2l.04-.12s-.03.08-.04.12h0Z"/>
    <path class="cls-2" d="M74.74,56.46l-.13-.09s.08.06.12.1h0Z"/>
    <path class="cls-2" d="M73.73,55.73h0s.06.04.08.06l-.08-.06Z"/>
    <path class="cls-2" d="M73.81,55.79l.8.58c-.26-.2-.52-.4-.8-.58Z"/>
    <path class="cls-2" d="M78.97,70.62c.04-.13.07-.26.11-.39l-.28.86c.06-.16.12-.31.17-.47Z"/>
  </g>
  <g id="_of_Tiles" data-name="# of Tiles">
    <path class="cls-3" d="M65.84,73.33v-10.28l-3.39,1.21v-2.23l5.83-2.11h.14v13.4h-2.59Z"/>
  </g>
</svg>