<?xml version="1.0" encoding="UTF-8"?>
<svg id="Layer_2" data-name="Layer 2" xmlns="http://www.w3.org/2000/svg" viewBox="0 0 133.2 133.2">
  <defs>
    <style>
      .cls-1 {
        fill: #f8ead6;
      }

      .cls-2 {
        fill: #6db360;
      }

      .cls-3 {
        fill: #081b1e;
      }

      .cls-4 {
        fill: #f9b72e;
      }
    </style>
  </defs>
  <g id="Art">
    <g>
      <rect class="cls-1" width="133.2" height="133.2"/>
      <g>
        <path class="cls-3" d="M93.6,58.89v-.45c0-2.8-2.27-5.07-5.07-5.07h-4.85l3.47-4.81c1.56-2.16,2.69-4.28,3.45-6.48.93-2.68,1.4-5.48,1.4-8.33,0-13.98-11.37-25.35-25.47-25.35s-25.35,11.37-25.35,25.35c0,2.85.47,5.65,1.4,8.33.76,2.2,1.89,4.32,3.46,6.48l3.47,4.81h-4.86c-2.8,0-5.07,2.27-5.07,5.07v.45c0,1.49.66,2.81,1.68,3.74-1.02.93-1.68,2.25-1.68,3.74v.45c0,1.49.66,2.81,1.68,3.74-1.02.93-1.68,2.25-1.68,3.74v.45c0,2.79,2.27,5.07,5.07,5.07h4.85l-3.47,4.8c-1.56,2.16-2.69,4.28-3.45,6.48-.93,2.68-1.4,5.48-1.4,8.33,0,13.98,11.37,25.35,25.35,25.35h.12c13.98,0,25.35-11.37,25.35-25.35,0-2.85-.47-5.65-1.4-8.33-.76-2.2-1.89-4.32-3.45-6.48l-3.47-4.8h4.85c2.79,0,5.07-2.27,5.07-5.07v-.45c0-1.49-.66-2.81-1.68-3.74,1.02-.93,1.68-2.25,1.68-3.74v-.45c0-1.49-.66-2.81-1.68-3.74,1.02-.93,1.68-2.25,1.68-3.74M66.67,113.53s-.04.01-.06.01-.04-.01-.06-.01c-7.78,0-14.1-6.32-14.1-14.09,0-1.59.27-3.15.79-4.63.4-1.16,1.04-2.34,1.95-3.58l3.62-5.01c1.67,1.29,3.52,2.16,5.48,2.56l-4.28,5.93c-.57.79-.95,1.46-1.15,2.06-.3.86-.45,1.76-.45,2.68,0,4.5,3.66,8.15,8.09,8.15.02.01.1,0,.15,0h.03c4.5,0,8.15-3.66,8.15-8.15,0-.92-.15-1.82-.45-2.68-.21-.6-.59-1.28-1.15-2.06l-4.29-5.93c1.96-.4,3.82-1.27,5.48-2.56l3.62,5.02c.9,1.25,1.54,2.42,1.95,3.59.51,1.46.77,3.01.77,4.63,0,7.77-6.32,14.09-14.09,14.09M71.06,96.25c.54.74.73,1.18.8,1.38.2.57.3,1.18.3,1.81,0,3.03-2.47,5.5-5.62,5.5s-5.5-2.47-5.5-5.5c0-.62.1-1.23.3-1.81h0c.07-.2.26-.63.8-1.38l4.46-6.17,4.46,6.18ZM66.61,86.37c-4.54,0-8.55-3.32-10.99-8.38,0,0,0,0,0-.01-1.55-3.22-2.47-7.14-2.47-11.38s.92-8.15,2.47-11.37c0,0,0-.02.01-.03,2.44-5.06,6.45-8.38,10.99-8.38,7.42,0,13.46,8.87,13.46,19.77s-6.04,19.77-13.46,19.77M66.55,19.66s.04-.01.06-.01c.02,0,.04.01.06.01,7.77,0,14.09,6.33,14.09,14.1,0,1.6-.26,3.16-.77,4.63-.4,1.16-1.06,2.37-1.95,3.59l-3.62,5.01c-1.67-1.29-3.52-2.17-5.48-2.56l4.28-5.93c.57-.79.95-1.46,1.15-2.06.3-.86.45-1.76.45-2.68,0-4.5-3.66-8.15-8.09-8.15h0s-.15,0-.18,0c-4.5,0-8.15,3.66-8.15,8.15,0,.92.15,1.82.45,2.68.21.6.59,1.27,1.15,2.06l4.28,5.93c-1.96.4-3.81,1.27-5.48,2.56l-3.62-5.01c-.89-1.22-1.54-2.43-1.95-3.59-.52-1.49-.79-3.05-.79-4.63,0-7.78,6.33-14.1,14.1-14.1M62.15,36.94c-.51-.71-.72-1.14-.8-1.37-.2-.58-.3-1.18-.3-1.81,0-3.03,2.47-5.5,5.62-5.5s5.5,2.47,5.5,5.5c0,.62-.1,1.23-.3,1.81h0c-.08.24-.29.67-.8,1.37l-4.46,6.17-4.46-6.17ZM48.21,47.01c-1.41-1.95-2.42-3.84-3.1-5.8-.83-2.39-1.26-4.9-1.26-7.45,0-12.51,10.18-22.7,22.64-22.7.03,0,.15,0,.18,0,12.52,0,22.7,10.18,22.7,22.7,0,2.55-.42,5.06-1.26,7.46-.68,1.95-1.69,3.85-3.1,5.8l-4.59,6.36h-.82c-.91-1.73-1.99-3.26-3.21-4.56l3.81-5.27c1.04-1.43,1.81-2.87,2.3-4.27.61-1.75.92-3.6.92-5.51,0-9.24-7.51-16.76-16.74-16.76-.02,0-.04.01-.06.01s-.04-.01-.06-.01c-9.24,0-16.76,7.52-16.76,16.76,0,1.88.31,3.73.94,5.51.49,1.4,1.26,2.84,2.3,4.26l3.81,5.27c-1.22,1.3-2.3,2.84-3.21,4.57h-.82l-4.59-6.36ZM42.25,58.89v-.45c0-1.33,1.08-2.41,2.41-2.41h7.73c-.64,1.65-1.11,3.42-1.44,5.28h-6.29c-1.33,0-2.41-1.08-2.41-2.41M42.25,66.83v-.45c0-1.33,1.08-2.41,2.41-2.41h5.94c-.07.87-.12,1.74-.12,2.64s.05,1.77.12,2.64h-5.94c-1.33,0-2.41-1.08-2.41-2.41M42.25,74.76v-.45c0-1.33,1.08-2.41,2.41-2.41h6.29c.32,1.86.8,3.63,1.44,5.28h-7.73c-1.33,0-2.41-1.08-2.41-2.41M85,86.19c1.41,1.95,2.42,3.84,3.1,5.79.83,2.4,1.25,4.9,1.25,7.46,0,12.52-10.18,22.7-22.67,22.7-.03,0-.11,0-.14,0-12.51,0-22.7-10.18-22.7-22.7,0-2.55.42-5.06,1.26-7.46.68-1.95,1.69-3.84,3.1-5.79l4.59-6.36h.82c.91,1.73,1.99,3.26,3.21,4.57l-3.81,5.27c-1.06,1.46-1.82,2.86-2.3,4.26-.62,1.76-.94,3.62-.94,5.51,0,9.23,7.52,16.74,16.76,16.74.02,0,.04-.01.06-.01.02,0,.04.01.06.01,9.23,0,16.74-7.51,16.74-16.74,0-1.92-.31-3.77-.92-5.5-.49-1.41-1.24-2.81-2.3-4.27l-3.81-5.28c1.22-1.3,2.3-2.84,3.21-4.56h.82l4.59,6.36ZM90.95,74.31v.45c0,1.33-1.08,2.41-2.41,2.41h-7.72c.64-1.65,1.11-3.42,1.44-5.28h6.28c1.33,0,2.41,1.08,2.41,2.41M90.95,66.37v.45c0,1.33-1.08,2.41-2.41,2.41h-5.93c.07-.87.12-1.75.12-2.64s-.05-1.77-.12-2.64h5.93c1.33,0,2.41,1.08,2.41,2.41M82.25,61.31c-.33-1.86-.8-3.63-1.44-5.28h7.72c1.33,0,2.41,1.08,2.41,2.41v.45c0,1.33-1.08,2.41-2.41,2.41h-6.28Z"/>
        <path class="cls-4" d="M66.61,46.83c-4.53,0-8.55,3.32-10.99,8.38,0,0,0,.02-.01.03-1.55,3.22-2.47,7.13-2.47,11.37s.92,8.16,2.47,11.38c0,0,0,0,0,.01,2.44,5.06,6.45,8.38,10.99,8.38,7.42,0,13.46-8.87,13.46-19.77s-6.04-19.77-13.46-19.77"/>
        <path class="cls-2" d="M78.04,41.98c.89-1.22,1.54-2.43,1.95-3.59.51-1.47.77-3.03.77-4.63,0-7.78-6.32-14.1-14.09-14.1-.02,0-.04-.01-.06-.01-.02,0-.04.01-.06.01-7.78,0-14.1,6.33-14.1,14.1,0,1.58.27,3.14.79,4.63.4,1.16,1.06,2.36,1.95,3.59l3.62,5.02c1.67-1.29,3.52-2.17,5.48-2.56l-4.29-5.93c-.57-.79-.95-1.46-1.15-2.06-.3-.85-.45-1.76-.45-2.68,0-4.5,3.66-8.16,8.15-8.16.03,0,.15,0,.18,0h0c4.44,0,8.09,3.66,8.09,8.15,0,.92-.15,1.82-.45,2.68-.21.59-.58,1.27-1.15,2.06l-4.28,5.93c1.96.4,3.82,1.27,5.48,2.56l3.62-5.02Z"/>
        <path class="cls-2" d="M44.67,61.31h6.29c.33-1.86.8-3.63,1.44-5.28h-7.73c-1.33,0-2.41,1.08-2.41,2.41v.45c0,1.33,1.08,2.41,2.41,2.41"/>
        <path class="cls-2" d="M53.62,53.37c.91-1.73,1.99-3.26,3.21-4.57l-3.81-5.27c-1.04-1.43-1.81-2.86-2.3-4.27-.62-1.78-.94-3.63-.94-5.51,0-9.24,7.52-16.76,16.76-16.76.02,0,.04.01.06.01.02,0,.04-.01.06-.01,9.23,0,16.74,7.52,16.74,16.76,0,1.9-.31,3.75-.92,5.51-.49,1.4-1.26,2.84-2.3,4.27l-3.81,5.27c1.22,1.3,2.3,2.84,3.21,4.56h.82l4.59-6.36c1.41-1.95,2.42-3.84,3.1-5.79.83-2.4,1.26-4.91,1.26-7.46,0-12.52-10.18-22.7-22.7-22.7-.03,0-.15,0-.18,0-12.45,0-22.64,10.18-22.64,22.7,0,2.55.42,5.06,1.26,7.45.68,1.95,1.69,3.85,3.1,5.79l4.59,6.36h.82Z"/>
        <path class="cls-2" d="M44.67,69.24h5.94c-.07-.87-.12-1.75-.12-2.64s.05-1.77.12-2.64h-5.94c-1.33,0-2.41,1.08-2.41,2.41v.45c0,1.33,1.08,2.41,2.41,2.41"/>
        <path class="cls-2" d="M55.18,91.22c-.91,1.25-1.54,2.42-1.95,3.58-.52,1.49-.79,3.04-.79,4.63,0,7.77,6.33,14.09,14.1,14.09.02,0,.04.01.06.01.02,0,.04-.01.06-.01,7.77,0,14.09-6.32,14.09-14.09,0-1.61-.26-3.17-.77-4.63-.4-1.17-1.04-2.34-1.95-3.59l-3.62-5.02c-1.67,1.29-3.52,2.17-5.48,2.56l4.28,5.93c.57.78.95,1.46,1.15,2.06.3.85.45,1.76.45,2.68,0,4.5-3.66,8.15-8.15,8.15h-.03s-.13.01-.15,0c-4.44,0-8.09-3.66-8.09-8.15,0-.92.15-1.82.45-2.68.21-.6.58-1.27,1.15-2.06l4.28-5.93c-1.96-.4-3.81-1.27-5.48-2.56l-3.62,5.01Z"/>
        <path class="cls-2" d="M88.53,56.03h-7.72c.64,1.65,1.11,3.42,1.44,5.28h6.28c1.33,0,2.41-1.08,2.41-2.41v-.45c0-1.33-1.08-2.41-2.41-2.41"/>
        <path class="cls-2" d="M50.96,71.89h-6.29c-1.33,0-2.41,1.08-2.41,2.41v.45c0,1.33,1.08,2.41,2.41,2.41h7.73c-.64-1.65-1.11-3.42-1.44-5.28"/>
        <path class="cls-2" d="M88.53,63.96h-5.93c.07.87.12,1.74.12,2.64s-.05,1.77-.12,2.64h5.93c1.33,0,2.41-1.08,2.41-2.41v-.45c0-1.33-1.08-2.41-2.41-2.41"/>
        <path class="cls-2" d="M88.53,71.89h-6.28c-.33,1.86-.8,3.63-1.44,5.28h7.72c1.33,0,2.41-1.08,2.41-2.41v-.45c0-1.33-1.08-2.41-2.41-2.41"/>
        <path class="cls-2" d="M79.59,79.83c-.91,1.73-1.99,3.26-3.21,4.56l3.81,5.28c1.06,1.46,1.81,2.86,2.3,4.27.61,1.73.92,3.59.92,5.5,0,9.23-7.51,16.74-16.74,16.74-.02,0-.04-.01-.06-.01-.02,0-.04.01-.06.01-9.24,0-16.76-7.51-16.76-16.74,0-1.89.32-3.75.94-5.51.49-1.41,1.24-2.8,2.3-4.26l3.81-5.27c-1.22-1.3-2.3-2.84-3.21-4.57h-.82l-4.59,6.36c-1.41,1.95-2.42,3.84-3.1,5.79-.83,2.4-1.26,4.91-1.26,7.46,0,12.52,10.18,22.7,22.7,22.7.03,0,.12,0,.14,0,12.49,0,22.67-10.18,22.67-22.7,0-2.55-.42-5.06-1.26-7.46-.68-1.95-1.69-3.85-3.1-5.79l-4.59-6.36h-.82Z"/>
        <path class="cls-3" d="M74.59,65.72l-3.27,4.74c-.14.2,0,.48.25.48h.39c.2,0,.32.23.21.39l-1.59,2.34c-.16.23,0,.54.29.54h.47c.24,0,.37.28.22.47-.55.67-1.76,1.85-3.58,2.28v-13.11c2.24-.61,3.9-2.65,3.9-5.09,0-2.92-2.36-5.28-5.28-5.28s-5.28,2.36-5.28,5.28c0,2.44,1.65,4.48,3.9,5.09v13.11c-1.82-.43-3.02-1.62-3.58-2.28-.16-.19-.03-.47.22-.47h.47c.28,0,.45-.31.29-.54l-1.59-2.34c-.11-.17,0-.39.21-.39h.39c.25,0,.39-.28.25-.48l-3.27-4.74c-.24-.35-.79-.18-.79.25v4.96c0,4.85,3.93,8.78,8.78,8.78s8.78-3.93,8.78-8.78v-4.96c0-.43-.55-.6-.79-.25M64.26,58.78c0-1.3,1.05-2.35,2.35-2.35s2.35,1.05,2.35,2.35-1.05,2.35-2.35,2.35-2.35-1.05-2.35-2.35"/>
      </g>
    </g>
  </g>
</svg>