<?xml version="1.0" encoding="UTF-8"?>
<svg id="Layer_2" data-name="Layer 2" xmlns="http://www.w3.org/2000/svg" viewBox="0 0 133.26 133.25">
  <defs>
    <style>
      .cls-1 {
        fill: #897967;
      }

      .cls-2, .cls-3 {
        fill: #f8ead6;
      }

      .cls-4, .cls-5 {
        fill: #6db360;
      }

      .cls-6 {
        fill: #e6a631;
      }

      .cls-3, .cls-7, .cls-5 {
        stroke: #897967;
        stroke-miterlimit: 10;
      }

      .cls-7 {
        fill: none;
      }
    </style>
  </defs>
  <g id="_of_Tiles" data-name="# of Tiles">
    <rect class="cls-4" x=".06" y=".05" width="133.2" height="133.2"/>
    <rect class="cls-7" x="46.36" y="46.35" width="40.54" height="40.54" rx="2.73" ry="2.73"/>
    <g>
      <rect class="cls-3" x="12.36" y="12.35" width="108.55" height="108.55" rx="42.44" ry="42.44"/>
      <rect class="cls-3" x="20.77" y="20.76" width="91.73" height="91.73" rx="4.27" ry="4.27" transform="translate(66.63 -27.6) rotate(45)"/>
      <rect class="cls-3" x="20.77" y="20.76" width="91.73" height="91.73" rx="9.8" ry="9.8"/>
      <rect class="cls-7" x="32.95" y="32.95" width="67.36" height="67.36" rx="5.71" ry="5.71"/>
      <rect class="cls-7" x="37.35" y="37.35" width="58.56" height="58.56" rx="3.27" ry="3.27"/>
      <g>
        <g>
          <g>
            <g>
              <path class="cls-1" d="M64.75,58.5c0,1.84.72,3.51,1.89,4.75,1.17-1.24,1.89-2.91,1.89-4.75s-.72-3.51-1.89-4.75c-1.17,1.24-1.89,2.91-1.89,4.75"/>
              <path class="cls-2" d="M66.63,63.46l-.11-.11c-1.24-1.32-1.93-3.05-1.93-4.85s.68-3.53,1.93-4.85l.11-.11.11.11c1.24,1.32,1.93,3.05,1.93,4.85s-.68,3.53-1.93,4.85l-.11.11ZM66.63,53.96c-1.12,1.25-1.74,2.86-1.74,4.54s.62,3.28,1.74,4.54c1.12-1.25,1.74-2.86,1.74-4.54s-.62-3.28-1.74-4.54Z"/>
            </g>
            <g>
              <path class="cls-1" d="M69.88,58.94c-1.08,1.49-1.48,3.26-1.27,4.95,1.67-.32,3.24-1.25,4.32-2.74,1.08-1.49,1.48-3.26,1.27-4.95-1.68.32-3.24,1.25-4.32,2.74"/>
              <path class="cls-2" d="M68.49,64.07l-.02-.16c-.23-1.8.23-3.6,1.3-5.06h0c1.06-1.46,2.63-2.45,4.41-2.8l.15-.03.02.16c.23,1.8-.23,3.6-1.3,5.06-1.06,1.46-2.63,2.45-4.41,2.8l-.15.03ZM70,59.03c-.99,1.36-1.43,3.02-1.26,4.69,1.64-.36,3.09-1.29,4.07-2.65.99-1.36,1.43-3.02,1.26-4.69-1.64.35-3.09,1.29-4.07,2.65h0Z"/>
            </g>
            <g>
              <path class="cls-1" d="M73.78,62.32c-1.75.57-3.11,1.77-3.94,3.26,1.54.72,3.35.89,5.1.32s3.11-1.77,3.94-3.26c-1.54-.72-3.35-.89-5.1-.32"/>
              <path class="cls-2" d="M72.8,66.39c-1.03,0-2.06-.23-3.02-.68l-.14-.07.08-.14c.88-1.59,2.3-2.77,4.02-3.33h0c1.72-.56,3.57-.44,5.21.33l.14.07-.08.14c-.88,1.59-2.3,2.77-4.02,3.33-.71.23-1.45.35-2.19.35ZM70.05,65.51c1.54.68,3.25.77,4.85.25,1.6-.52,2.93-1.6,3.78-3.05-1.54-.68-3.26-.77-4.85-.25-1.6.52-2.93,1.6-3.78,3.05Z"/>
            </g>
            <g>
              <path class="cls-1" d="M74.94,67.34c-1.75-.57-3.56-.4-5.1.32.82,1.49,2.19,2.69,3.94,3.26,1.75.57,3.56.4,5.1-.32-.82-1.49-2.19-2.69-3.94-3.26"/>
              <path class="cls-2" d="M75.92,71.42c-.74,0-1.47-.12-2.19-.35-1.72-.56-3.14-1.74-4.02-3.33l-.08-.14.14-.07c1.64-.77,3.49-.89,5.21-.33h0c1.72.56,3.14,1.74,4.02,3.33l.08.14-.14.07c-.96.45-1.99.68-3.03.68ZM70.05,67.74c.85,1.45,2.18,2.54,3.78,3.05,1.6.52,3.31.43,4.85-.25-.85-1.45-2.18-2.54-3.78-3.05h0c-1.6-.52-3.31-.43-4.85.25Z"/>
            </g>
            <g>
              <path class="cls-1" d="M72.93,72.09c-1.08-1.49-2.64-2.42-4.32-2.74-.21,1.69.19,3.46,1.27,4.95,1.08,1.49,2.64,2.42,4.32,2.74.21-1.69-.19-3.46-1.27-4.95"/>
              <path class="cls-2" d="M74.33,77.22l-.15-.03c-1.78-.34-3.35-1.33-4.41-2.8-1.06-1.46-1.52-3.26-1.3-5.06l.02-.16.15.03c1.78.34,3.35,1.33,4.41,2.8h0c1.06,1.46,1.52,3.26,1.3,5.06l-.02.16ZM68.74,69.53c-.17,1.67.27,3.33,1.26,4.69.99,1.36,2.43,2.29,4.07,2.65.17-1.67-.27-3.33-1.26-4.69h0c-.99-1.36-2.43-2.29-4.07-2.65Z"/>
            </g>
            <g>
              <path class="cls-1" d="M68.52,74.75c0-1.84-.72-3.51-1.89-4.75-1.17,1.24-1.89,2.91-1.89,4.75s.72,3.51,1.89,4.75c1.17-1.24,1.89-2.91,1.89-4.75"/>
              <path class="cls-2" d="M66.63,79.72l-.11-.11c-1.24-1.32-1.93-3.05-1.93-4.85s.68-3.53,1.93-4.85l.11-.11.11.11c1.24,1.33,1.93,3.05,1.93,4.85s-.68,3.53-1.93,4.85l-.11.11ZM66.63,70.22c-1.12,1.25-1.74,2.86-1.74,4.54s.62,3.28,1.74,4.54c1.12-1.25,1.74-2.86,1.74-4.54s-.62-3.28-1.74-4.54Z"/>
            </g>
            <g>
              <path class="cls-1" d="M63.38,74.31c1.08-1.49,1.48-3.26,1.27-4.95-1.67.32-3.24,1.25-4.32,2.74-1.08,1.49-1.48,3.26-1.27,4.95,1.68-.32,3.24-1.25,4.32-2.74"/>
              <path class="cls-2" d="M58.93,77.22l-.02-.16c-.23-1.8.23-3.6,1.3-5.06,1.06-1.46,2.63-2.45,4.41-2.8l.15-.03.02.16c.23,1.8-.23,3.6-1.3,5.06h0c-1.06,1.46-2.63,2.45-4.41,2.8l-.15.03ZM64.52,69.53c-1.64.36-3.09,1.29-4.07,2.65-.99,1.36-1.43,3.02-1.26,4.69,1.64-.35,3.09-1.29,4.07-2.65h0c.99-1.36,1.43-3.02,1.26-4.69Z"/>
            </g>
            <g>
              <path class="cls-1" d="M59.48,70.93c1.75-.57,3.11-1.77,3.94-3.26-1.54-.72-3.35-.89-5.1-.32s-3.11,1.77-3.94,3.26c1.54.72,3.35.89,5.1.32"/>
              <path class="cls-2" d="M57.34,71.42c-1.03,0-2.06-.23-3.03-.68l-.14-.07.08-.14c.88-1.59,2.3-2.77,4.02-3.33,1.72-.56,3.57-.44,5.21.33l.14.07-.08.14c-.88,1.59-2.3,2.77-4.02,3.33h0c-.71.23-1.45.35-2.19.35ZM54.58,70.54c1.54.68,3.26.77,4.85.25,1.6-.52,2.93-1.6,3.78-3.05-1.54-.68-3.25-.77-4.85-.25-1.6.52-2.93,1.6-3.78,3.05Z"/>
            </g>
            <g>
              <path class="cls-1" d="M58.32,65.91c1.75.57,3.56.4,5.1-.32-.82-1.49-2.19-2.69-3.94-3.26-1.75-.57-3.56-.4-5.1.32.82,1.49,2.19,2.69,3.94,3.26"/>
              <path class="cls-2" d="M60.46,66.39c-.74,0-1.47-.12-2.19-.35h0c-1.72-.56-3.14-1.74-4.02-3.33l-.08-.14.14-.07c1.64-.77,3.49-.89,5.21-.33,1.72.56,3.14,1.74,4.02,3.33l.08.14-.14.07c-.96.45-1.99.68-3.02.68ZM54.58,62.71c.85,1.45,2.18,2.54,3.78,3.05h0c1.6.52,3.31.43,4.85-.25-.85-1.45-2.18-2.54-3.78-3.05-1.6-.52-3.31-.43-4.85.25Z"/>
            </g>
            <g>
              <path class="cls-1" d="M60.33,61.16c1.08,1.49,2.64,2.42,4.32,2.74.21-1.69-.19-3.46-1.27-4.95-1.08-1.49-2.64-2.42-4.32-2.74-.21,1.69.19,3.46,1.27,4.95"/>
              <path class="cls-2" d="M64.77,64.07l-.15-.03c-1.78-.34-3.35-1.33-4.41-2.8-1.06-1.46-1.52-3.26-1.3-5.06l.02-.16.15.03c1.78.34,3.35,1.33,4.41,2.8,1.06,1.46,1.52,3.26,1.3,5.06l-.02.16ZM59.19,56.38c-.17,1.67.27,3.33,1.26,4.69h0c.99,1.36,2.43,2.29,4.07,2.65.17-1.67-.27-3.33-1.26-4.69-.99-1.36-2.43-2.29-4.07-2.65Z"/>
            </g>
          </g>
          <path class="cls-6" d="M64,67.62h0s0-.01,0-.02v.02Z"/>
        </g>
        <path class="cls-2" d="M66.63,64.11h0c.26,0,.53.04.78.12.64.21,1.16.65,1.47,1.25.31.6.36,1.28.15,1.92-.34,1.04-1.3,1.74-2.39,1.74-.26,0-.53-.04-.78-.12-.64-.21-1.16-.65-1.47-1.25-.31-.6-.36-1.28-.15-1.92.34-1.04,1.3-1.74,2.39-1.74M66.63,63.81c-1.19,0-2.29.76-2.67,1.94-.48,1.48.33,3.06,1.81,3.54.29.09.58.14.87.14,1.19,0,2.29-.76,2.67-1.94.48-1.48-.33-3.06-1.81-3.54-.29-.09-.58-.14-.87-.14h0Z"/>
        <circle class="cls-1" cx="66.63" cy="66.63" r="2.81"/>
      </g>
      <circle class="cls-7" cx="66.63" cy="66.63" r="19.85"/>
      <g>
        <line class="cls-7" x1="66.63" y1="37.35" x2="66.63" y2="46.77"/>
        <line class="cls-7" x1="66.63" y1="86.48" x2="66.63" y2="95.9"/>
      </g>
      <g>
        <line class="cls-7" x1="95.91" y1="66.63" x2="86.48" y2="66.63"/>
        <line class="cls-7" x1="46.78" y1="66.63" x2="37.35" y2="66.63"/>
      </g>
      <g>
        <g>
          <line class="cls-7" x1="66.63" y1="3.88" x2="66.63" y2="20.76"/>
          <line class="cls-7" x1="66.63" y1="112.46" x2="66.63" y2="129.34"/>
        </g>
        <line class="cls-7" x1="66.63" y1="3.88" x2="66.63" y2="20.76"/>
      </g>
      <g>
        <g>
          <line class="cls-7" x1="129.36" y1="66.61" x2="112.47" y2="66.61"/>
          <line class="cls-7" x1="20.78" y1="66.61" x2="3.9" y2="66.61"/>
        </g>
        <line class="cls-7" x1="129.36" y1="66.61" x2="112.47" y2="66.61"/>
      </g>
      <g>
        <circle class="cls-5" cx="66.63" cy="13.2" r="3.57"/>
        <circle class="cls-5" cx="66.63" cy="120.05" r="3.57"/>
      </g>
      <g>
        <circle class="cls-5" cx="120.05" cy="66.63" r="3.57"/>
        <circle class="cls-5" cx="13.21" cy="66.63" r="3.57"/>
      </g>
    </g>
  </g>
</svg>