<?xml version="1.0" encoding="UTF-8"?>
<svg id="Layer_2" data-name="Layer 2" xmlns="http://www.w3.org/2000/svg" xmlns:xlink="http://www.w3.org/1999/xlink" viewBox="0 0 133.2 133.2">
  <defs>
    <style>
      .cls-1 {
        fill: none;
      }

      .cls-2 {
        fill: #5e7dbd;
      }

      .cls-3 {
        fill: #f8ead6;
      }

      .cls-4 {
        fill: #415e8c;
      }

      .cls-5 {
        fill: #081b1e;
      }

      .cls-6 {
        clip-path: url(#clippath);
      }
    </style>
    <clipPath id="clippath">
      <path class="cls-1" d="M28.99,77.72h3.8c5,0,9,4.41,8.34,9.54-.56,4.24-4.37,7.31-8.65,7.31h-3.27c-4.43,0-8.13,3.43-8.26,7.64-.08,2.38.9,4.62,2.73,6.21,1.48,1.3,3.46,1.91,5.43,1.91h34.66c4.34,0,7.88-3.54,7.88-7.91v-.23c0-4.19-3.4-7.6-7.6-7.6h-5.7c-3.61,0-6.7-2.69-7.03-6.15-.17-1.92.46-3.83,1.75-5.25s3.13-2.23,5.05-2.23h26.38c.72,0,1.43-.28,1.92-.81,2.03-2.2,4.58-3.5,7.31-3.51,2.79,0,5.32,1.18,7.32,3.3.56.59,1.37.87,2.18.78h.02c.87-.1,1.96-.24,2.62-.45,6.48-2,11.08-8.31,10.38-15.58-.73-7.68-7.51-13.36-15.22-13.36h-2.44c-5.62,0-10.32-4.39-10.49-9.8-.08-2.96,1.09-5.75,3.29-7.77,1.94-1.77,4.55-2.64,7.18-2.64h8.74c2.55,0,4.57-2.33,4.03-4.98-.39-1.92-2.18-3.25-4.14-3.25H31.2c-4.64,0-8.34,4.07-7.73,8.82.51,3.93,4.04,6.76,7.99,6.76h4.95c3.75,0,6.96,2.81,7.31,6.41.19,1.99-.47,3.98-1.81,5.46-1.34,1.47-3.25,2.32-5.25,2.32h-7.66c-6.65,0-12.04,5.4-12.04,12.04v1c0,6.65,5.4,12.04,12.04,12.04Z"/>
    </clipPath>
  </defs>
  <g id="Art">
    <g>
      <rect class="cls-3" width="133.2" height="133.2"/>
      <g>
        <path class="cls-5" d="M105.12,83.06c8.18-1.76,14.23-9.3,13.64-18.12-.6-8.83-8.6-16.14-17.81-16.14h.05s-2.42,0-2.42,0c-4.27,0-7.83-3.3-7.95-7.35-.06-2.29.87-4.46,2.62-5.98,1.44-1.26,3.33-1.83,5.25-1.83h8.51c3.47,0,6.57-2.53,6.91-5.99.38-3.96-2.73-7.31-6.61-7.31H31.54c-5.49,0-10.3,4.12-10.66,9.61-.41,6,4.37,11.03,10.3,11.03h5.23c2.47,0,4.57,1.81,4.79,4.11.14,1.5-.42,2.91-1.57,3.91-.86.75-2,1.1-3.14,1.1h-7.5c-8.05,0-14.58,6.52-14.58,14.58v1c0,8.05,6.52,14.58,14.58,14.58h3.54c3.08,0,5.82,2.24,6.12,5.29.34,3.51-2.42,6.47-5.86,6.47h-3.56c-5.78,0-10.61,4.52-10.79,10.08-.09,3.05,1.11,5.91,3.38,8.01,1.99,1.83,4.68,2.73,7.38,2.73h34.6c5.74,0,10.41-4.68,10.41-10.45v-.23c0-5.6-4.53-10.13-10.13-10.13h-5.7c-2.32,0-4.31-1.7-4.51-3.87-.14-1.41.39-2.73,1.47-3.69.81-.71,1.87-1.04,2.95-1.04h23.61c.73,0,1.15.85.69,1.43l-5.12,6.57c-.43.54-.49,1.3-.19,1.94.28.57.84.93,1.46.93l7.84-.04c.65,0,1.17.56,1.1,1.2l-1.42,15.16c-.12,1.19.82,2.22,2.01,2.22h11.03c1.19,0,2.13-1.02,2.01-2.22l-1.42-15.16c-.06-.65.45-1.2,1.1-1.2l7.83.04c.65.06,1.18-.36,1.47-.93.32-.63.24-1.39-.19-1.94l-1.8-2.31c-.19.2-.42.37-.71.45-.85.23-1.71-.26-1.94-1.11-.2-.71.14-1.42.76-1.76l-1.77-2.27c-.39-.51-.12-1.26.49-1.39Z"/>
        <path class="cls-2" d="M116.26,64.68c-.73-7.68-7.51-13.36-15.22-13.36h-2.44c-5.62,0-10.32-4.39-10.49-9.8-.08-2.96,1.09-5.75,3.3-7.77,1.94-1.77,4.55-2.64,7.18-2.64h8.74c2.55,0,4.57-2.33,4.03-4.98-.39-1.92-2.18-3.25-4.14-3.25H31.2c-4.64,0-8.34,4.06-7.73,8.82.51,3.93,4.04,6.76,7.99,6.76h4.95c3.75,0,6.96,2.81,7.31,6.41.19,1.99-.47,3.98-1.81,5.46-1.34,1.47-3.25,2.32-5.25,2.32h-7.66c-6.65,0-12.04,5.4-12.04,12.04v1c0,6.65,5.4,12.04,12.04,12.04h3.8c5,0,9,4.41,8.34,9.54-.56,4.24-4.37,7.31-8.65,7.31h-3.27c-4.43,0-8.13,3.43-8.26,7.64-.08,2.38.9,4.62,2.72,6.21,1.48,1.3,3.46,1.91,5.43,1.91h34.66c4.34,0,7.88-3.54,7.88-7.91v-.23c0-4.19-3.4-7.6-7.6-7.6h-5.7c-3.61,0-6.7-2.69-7.03-6.15-.17-1.92.46-3.83,1.75-5.25,1.29-1.42,3.13-2.23,5.05-2.23h26.38c.72,0,1.43-.28,1.92-.81,2.03-2.2,4.58-3.5,7.31-3.51,2.79,0,5.32,1.18,7.32,3.3.56.59,1.37.87,2.18.78h.02c.87-.1,1.96-.24,2.62-.45,6.48-2,11.08-8.31,10.38-15.58ZM34.96,61.73c0,.41-.33.73-.73.73h-6.5c-.41,0-.73-.41-.73-.73v-1.06c0-.41.33-.73.73-.73h6.5c.41,0,.73.41.73.73v1.06ZM42.86,103.83c0,.41-.33.73-.73.73h-11.25c-.41,0-.73-.41-.73-.73v-1.06c0-.41.33-.73.73-.73h11.25c.41,0,.73.41.73.73v1.06ZM50.2,29.49c0,.41-.33.73-.73.73h-17.5c-.41,0-.73-.41-.73-.73v-1.06c0-.41.33-.73.73-.73h17.5c.41,0,.73.41.73.73v1.06ZM57.51,99.07c.41,0,.73.41.73.73v1.06c0,.41-.33.73-.73.73h-6.5c-.41,0-.73-.41-.73-.73v-1.06c0-.41.33-.73.73-.73h6.5ZM75.44,29.49c0,.41-.33.73-.73.73h-7.37c-.41,0-.73-.41-.73-.73v-1.06c0-.41.33-.73.73-.73h7.37c.41,0,.73.41.73.73v1.06ZM97.29,62.46c-.41,0-.73-.41-.73-.73v-1.06c0-.41.33-.73.73-.73h8.71c.41,0,.73.41.73.73v1.06c0,.41-.33.73-.73.73h-8.71Z"/>
        <g>
          <path class="cls-2" d="M50.2,29.49v-1.06c0-.33-.33-.73-.73-.73h-17.5c-.41,0-.73.33-.73.73v1.06c0,.33.33.73.73.73h17.5c.41,0,.73-.33.73-.73Z"/>
          <path class="cls-2" d="M51.01,101.61h6.5c.41,0,.73-.33.73-.73v-1.06c0-.33-.33-.73-.73-.73h-6.5c-.41,0-.73.33-.73.73v1.06c0,.33.33.73.73.73Z"/>
          <path class="cls-2" d="M97.29,62.46h8.71c.41,0,.73-.33.73-.73v-1.06c0-.33-.33-.73-.73-.73h-8.71c-.41,0-.73.33-.73.73v1.06c0,.33.33.73.73.73Z"/>
          <path class="cls-2" d="M30.14,102.76v1.06c0,.33.33.73.73.73h11.25c.41,0,.73-.33.73-.73v-1.06c0-.33-.33-.73-.73-.73h-11.25c-.41,0-.73.33-.73.73Z"/>
          <path class="cls-2" d="M27.73,62.46h6.5c.41,0,.73-.33.73-.73v-1.06c0-.33-.33-.73-.73-.73h-6.5c-.41,0-.73.33-.73.73v1.06c0,.33.33.73.73.73Z"/>
          <path class="cls-2" d="M67.34,30.23h7.37c.41,0,.73-.33.73-.73v-1.06c0-.33-.33-.73-.73-.73h-7.37c-.41,0-.73.33-.73.73v1.06c0,.33.33.73.73.73Z"/>
        </g>
        <g class="cls-6">
          <path class="cls-4" d="M-4.98,66.6c0,39.49,32.13,71.62,71.62,71.62s71.62-32.13,71.62-71.62c0-8.19-1.45-16.02-3.98-23.35-.03-.14-.04-.29-.06-.43,0,0-.07.01-.09.02C124.29,15.01,97.79-5.02,66.64-5.02,27.15-5.02-4.98,27.1-4.98,66.6M66.64,3.36c27.59,0,51.05,17.79,59.66,42.48,4.22,29.33-13.28,55.93-41.46,64.84-2.89.77-5.87,1.33-8.97,1.56-6.65.48-13.19-.4-19.5-2.66-9.42-3.37-17.26-8.93-23.11-17.08-7.27-10.11-9.92-21.38-7.69-33.64,1.85-10.22,6.74-18.83,14.77-25.5,9.27-7.7,19.92-10.7,31.85-8.65,8.93,1.54,16.49,5.7,22.41,12.6,6.78,7.92,9.68,17.08,8.13,27.45-1.41,9.4-5.98,17-13.78,22.46-6.11,4.27-12.97,5.99-20.38,5.01-5.81-.77-10.98-3.12-15.35-7.04-4.98-4.46-7.89-10.05-8.48-16.72-.45-5.16.7-10.04,3.53-14.4,4.76-7.34,11.41-11.1,20.29-9.89,5.57.76,9.96,3.63,12.84,8.54,3.36,5.71,2.36,12.71-2.4,17.27-3.57,3.42-8.88,3.67-12.66.59-2.15-1.75-2.7-4.67-1.24-6.68.33-.45.67-.86,1.38-.7,2.83.62,5.28-.87,5.98-3.59.67-2.61-.8-5.2-3.52-5.95-4.12-1.15-7.71-.05-10.63,2.98-5.72,5.95-5.15,15.07.87,20.8,5.02,4.76,11.08,6.24,17.8,4.59,10.99-2.71,17.93-14.43,15.97-25.97-1.09-6.43-4.25-11.71-9.37-15.73-7.27-5.72-15.49-7.54-24.51-5.53-6.4,1.43-11.75,4.71-15.99,9.69-7.19,8.45-9.75,18.2-7.56,29.06,1.68,8.34,6.01,15.18,12.72,20.38,10.19,7.88,21.61,10.34,34.11,7.11,9.02-2.33,16.29-7.4,21.83-14.86,7.8-10.49,10.52-22.25,7.99-35.05-2.05-10.39-7.36-19.01-15.59-25.69-11.85-9.62-25.41-13.11-40.38-10.33-11.53,2.15-21.08,8.01-28.61,17-8.37,10-12.51,21.6-12.69,35.52.11,1.36.22,3.6.47,5.83.64,5.76,2.31,11.25,4.83,16.45,5.4,11.15,13.68,19.55,24.58,25.36,11.97,6.37,24.68,8.4,38.01,6.07,1.55-.27,3.07-.61,4.56-1.01l.04.15c.68-.23,1.3-.51,1.96-.76.77-.23,1.55-.44,2.3-.71l-.1-.15c6.47-2.65,12.22-6,17.73-10.11,5.56-3.99,10.23-8.86,14.04-14.28-10.32,20.91-31.82,35.38-56.68,35.38-34.87,0-63.23-28.37-63.23-63.23S31.77,3.36,66.64,3.36"/>
        </g>
        <path class="cls-3" d="M97.24,63.96c-.85.23-1.34,1.09-1.11,1.94.23.85,1.09,1.34,1.94,1.11.85-.23,1.34-1.09,1.11-1.94-.23-.85-1.09-1.34-1.94-1.11Z"/>
        <path class="cls-3" d="M48.56,101.12c.69-.19,1.11-.9.93-1.61-.19-.69-.9-1.11-1.61-.93-.69.19-1.11.9-.93,1.61.19.69.9,1.11,1.61.93Z"/>
        <path class="cls-3" d="M52.84,104.35c1.09-.29,1.74-1.41,1.44-2.49-.29-1.09-1.41-1.74-2.49-1.44-1.09.29-1.74,1.41-1.44,2.49.29,1.09,1.41,1.74,2.49,1.44Z"/>
        <path class="cls-3" d="M83.86,88.13c-.85.23-1.34,1.09-1.11,1.94.23.85,1.09,1.34,1.94,1.11.85-.23,1.34-1.09,1.11-1.94-.23-.85-1.09-1.34-1.94-1.11Z"/>
        <path class="cls-1" d="M74.71,27.69h-7.37c-.41,0-.73.33-.73.73v1.06c0,.33.33.73.73.73h7.37c.41,0,.73-.33.73-.73v-1.06c0-.33-.33-.73-.73-.73Z"/>
        <path class="cls-1" d="M50.28,99.81v1.06c0,.33.33.73.73.73h6.5c.41,0,.73-.33.73-.73v-1.06c0-.33-.33-.73-.73-.73h-6.5c-.41,0-.73.33-.73.73Z"/>
        <path class="cls-1" d="M49.47,27.69h-17.5c-.41,0-.73.33-.73.73v1.06c0,.33.33.73.73.73h17.5c.41,0,.73-.33.73-.73v-1.06c0-.33-.33-.73-.73-.73Z"/>
        <path class="cls-1" d="M34.23,59.93h-6.5c-.41,0-.73.33-.73.73v1.06c0,.33.33.73.73.73h6.5c.41,0,.73-.33.73-.73v-1.06c0-.33-.33-.73-.73-.73Z"/>
        <path class="cls-1" d="M42.12,102.03h-11.25c-.41,0-.73.33-.73.73v1.06c0,.33.33.73.73.73h11.25c.41,0,.73-.33.73-.73v-1.06c0-.33-.33-.73-.73-.73Z"/>
        <path class="cls-5" d="M105.61,88.49c.23.85,1.09,1.34,1.94,1.11.29-.08.52-.25.71-.45l-1.89-2.43c-.62.35-.96,1.05-.76,1.76Z"/>
        <path class="cls-1" d="M116.26,64.68c-.73-7.68-7.51-13.36-15.22-13.36h-2.44c-5.62,0-10.32-4.39-10.49-9.8-.08-2.96,1.09-5.75,3.3-7.77,1.94-1.77,4.55-2.64,7.18-2.64h8.74c2.55,0,4.57-2.33,4.03-4.98-.39-1.92-2.18-3.25-4.14-3.25H31.2c-4.64,0-8.34,4.06-7.73,8.82.51,3.93,4.04,6.76,7.99,6.76h4.95c3.75,0,6.96,2.81,7.31,6.41.19,1.99-.47,3.98-1.81,5.46-1.34,1.47-3.25,2.32-5.25,2.32h-7.66c-6.65,0-12.04,5.4-12.04,12.04v1c0,6.65,5.4,12.04,12.04,12.04h3.8c5,0,9,4.41,8.34,9.54-.56,4.24-4.37,7.31-8.65,7.31h-3.27c-4.43,0-8.13,3.43-8.26,7.64-.08,2.38.9,4.62,2.72,6.21,1.48,1.3,3.46,1.91,5.43,1.91h34.66c4.34,0,7.88-3.54,7.88-7.91v-.23c0-4.19-3.4-7.6-7.6-7.6h-5.7c-3.61,0-6.7-2.69-7.03-6.15-.17-1.92.46-3.83,1.75-5.25,1.29-1.42,3.13-2.23,5.05-2.23h26.38c.72,0,1.43-.28,1.92-.81,2.03-2.2,4.58-3.5,7.31-3.51.46,0,.92.05,1.36.11.17-.46.53-.85,1.05-.99.85-.23,1.71.26,1.94,1.11.08.28.05.55-.02.81,1.09.55,2.09,1.3,2.99,2.25.56.59,1.37.87,2.18.78h.02c.87-.1,1.96-.24,2.62-.45,6.48-2,11.08-8.31,10.38-15.58Z"/>
        <path class="cls-3" d="M95.03,77.68c.23.85,1.09,1.34,1.94,1.11.57-.15.95-.6,1.09-1.12-.93-.47-1.93-.79-2.96-.94-.11.3-.16.62-.07.95Z"/>
        <path class="cls-3" d="M90.09,81.13c-1.4.37-2.21,1.79-1.83,3.19.37,1.4,1.79,2.21,3.19,1.83,1.4-.37,2.21-1.79,1.83-3.19-.37-1.4-1.79-2.21-3.19-1.83Z"/>
        <path class="cls-3" d="M101.5,87.1c-.7.19-1.11.9-.92,1.59.19.7.9,1.11,1.59.92.7-.19,1.11-.9.92-1.59-.19-.7-.9-1.11-1.59-.92Z"/>
        <path class="cls-3" d="M52.84,33.74c1.09-.29,1.74-1.41,1.44-2.49-.29-1.09-1.41-1.74-2.49-1.44-1.09.29-1.74,1.41-1.44,2.49.29,1.09,1.41,1.74,2.49,1.44Z"/>
        <path class="cls-3" d="M57.49,30.65c.55-.14.87-.66.72-1.17-.14-.51-.7-.81-1.25-.67-.55.14-.87.66-.72,1.17.14.51.7.81,1.25.67Z"/>
        <path class="cls-3" d="M30.4,60.91c.55-.14.87-.7.72-1.25-.14-.55-.7-.87-1.25-.72-.55.14-.87.7-.72,1.25.14.55.7.87,1.25.72Z"/>
        <path class="cls-3" d="M97.86,60.98c-.43.11-.67.55-.56.97.11.43.55.67.97.56.43-.11.67-.55.56-.97-.11-.43-.55-.67-.97-.56Z"/>
        <path class="cls-3" d="M105.82,28.19c.55-.14.87-.7.72-1.25-.14-.55-.7-.87-1.25-.72-.55.14-.87.7-.72,1.25.14.55.7.87,1.25.72Z"/>
        <path class="cls-3" d="M94.64,89.98c-.7.19-1.11.9-.92,1.59.19.7.9,1.11,1.59.92.7-.19,1.11-.9.92-1.59-.19-.7-.9-1.11-1.59-.92Z"/>
      </g>
    </g>
  </g>
</svg>