<?xml version="1.0" encoding="UTF-8"?>
<svg id="Layer_2" data-name="Layer 2" xmlns="http://www.w3.org/2000/svg" xmlns:xlink="http://www.w3.org/1999/xlink" viewBox="0 0 126 126">
  <defs>
    <style>
      .cls-1, .cls-2, .cls-3, .cls-4 {
        fill: none;
      }

      .cls-2 {
        stroke-linejoin: round;
      }

      .cls-2, .cls-3 {
        stroke-linecap: round;
      }

      .cls-2, .cls-3, .cls-5, .cls-6, .cls-7, .cls-8, .cls-4 {
        stroke: #081b1e;
      }

      .cls-9 {
        clip-path: url(#clippath);
      }

      .cls-10 {
        fill: #081b1e;
      }

      .cls-11 {
        fill: #071b1e;
      }

      .cls-12, .cls-13 {
        fill: #6db460;
      }

      .cls-3, .cls-5, .cls-6, .cls-7, .cls-8, .cls-4 {
        stroke-miterlimit: 10;
      }

      .cls-5 {
        fill: #949;
      }

      .cls-6 {
        fill: #ed6a5d;
      }

      .cls-7 {
        fill: #eac85d;
      }

      .cls-8 {
        fill: #5e7dbe;
      }

      .cls-13 {
        fill-rule: evenodd;
      }
    </style>
    <clipPath id="clippath">
      <path class="cls-1" d="m115.05,126H10.95c-6.05,0-10.95-4.9-10.95-10.95V10.95C0,4.9,4.9,0,10.95,0h104.1c6.05,0,10.95,4.9,10.95,10.95v104.1c0,6.05-4.9,10.95-10.95,10.95"/>
    </clipPath>
  </defs>
  <g id="Layer_1-2" data-name="Layer 1">
    <g>
      <rect class="cls-11" x="0" width="126" height="126"/>
      <path class="cls-12" d="m110.43,13.45c1.17,0,2.12.95,2.12,2.12v94.86c0,1.17-.95,2.12-2.12,2.12H15.57c-1.17,0-2.12-.95-2.12-2.12V15.57c0-1.17.95-2.12,2.12-2.12h94.86m0-3H15.57c-2.83,0-5.12,2.29-5.12,5.12v94.86c0,2.83,2.29,5.12,5.12,5.12h94.86c2.83,0,5.12-2.29,5.12-5.12V15.57c0-2.83-2.29-5.12-5.12-5.12h0Z"/>
      <g class="cls-9">
        <polygon class="cls-12" points="51.52 115.55 101.25 115.55 100.47 114.55 51.52 114.55 51.52 115.55"/>
        <g>
          <g>
            <path class="cls-12" d="m21.91,95.93l-29.79-.36v-3.92h29.79l28.37.13c-2.17-2.48-3.58-5.48-4.09-8.76-1.83-11.35,7.1-22.85,7.48-23.34.43-.52,1.05-.82,1.71-.82h.12c.74.07,1.37.48,1.72,1.11.04.07,4.42,7.74,6.55,11.4,7.18,14.43-5.82,23.75-6.38,24.14-.35.27-.81.42-1.27.42H21.91Z"/>
            <path class="cls-10" d="m55.39,59.36s.06,0,.09,0c.55.05,1.04.37,1.31.85,0,0,4.39,7.71,6.56,11.41,6.89,13.84-5.25,22.79-6.23,23.48-.28.21-.63.33-.98.33-.01,0-.02,0-.03,0H21.91s-29.29-.36-29.29-.36v-2.92h29.29s29.53.13,29.53.13c-2.54-2.53-4.2-5.8-4.75-9.35-1.8-11.21,7.02-22.49,7.38-22.95.32-.4.81-.63,1.32-.63m0-1c-.81,0-1.58.36-2.09.99-.98,1.25-9.42,12.38-7.59,23.75.47,3.01,1.67,5.8,3.52,8.18l-26.31-.12h0s-1,0-1,0H-8.38v4.91h.99s29.29.37,29.29.37h34.2s0,0,0,0c.6,0,1.16-.19,1.61-.53.54-.38,13.88-9.95,6.53-24.72v-.03s-.03-.03-.03-.03c-2.14-3.66-6.51-11.33-6.55-11.4-.43-.76-1.21-1.27-2.09-1.35-.08,0-.13,0-.18,0h0Z"/>
          </g>
          <line class="cls-3" x1="53.9" y1="59.36" x2="56.73" y2="80.69"/>
          <polygon class="cls-4" points="53.79 69.18 54.56 69.02 54.56 69.35 53.79 69.18"/>
          <polygon class="cls-4" points="53.54 65.96 54.31 65.79 54.31 66.13 53.54 65.96"/>
          <circle class="cls-7" cx="65.21" cy="83.56" r="2.67"/>
          <path class="cls-13" d="m34.39,88.73c-2.15.14-4.44,1.66-5.15,3.76.42.56.72,1.22.82,1.89.5-.41,1.04-.72,1.65-.94.27-1.43.88-2.46,2.68-4.71h0Z"/>
        </g>
        <g>
          <g>
            <path class="cls-12" d="m77.88,154.3v-30.29h.03l-.03-27.06-.46-15.82c-.07-2.37.52-4.72,1.69-6.78,1.17-2.06,2.89-3.76,4.96-4.92,3-1.73,6.42-2.64,9.88-2.64h.33c3.58.06,7.09,1.09,10.13,2.98l13.44,8.36c.64.38,1.04,1.08,1.04,1.83s-.4,1.46-1.05,1.84c-2.14,1.23-13.21,7.3-23.78,7.3h0c-4.92,0-9.02-1.33-12.21-3.94l.33,11.74v27.95c0,.1-.01.19-.03.28v29.17h-4.28Z"/>
            <path class="cls-10" d="m93.96,67.28c.11,0,.21,0,.32,0,3.49.06,6.91,1.06,9.87,2.91l13.44,8.36c.5.3.8.83.8,1.41s-.31,1.11-.8,1.41c-.76.44-12.46,7.23-23.52,7.23-4.65,0-9.18-1.2-12.74-4.58l.36,12.89v27.94c0,.09-.02.17-.03.26v28.69h-3.28v-29.29h.03l-.03-27.56-.46-15.84c-.07-2.28.5-4.54,1.62-6.52,1.13-1.98,2.78-3.62,4.77-4.73,2.93-1.69,6.26-2.58,9.65-2.58m0-1h0c-3.56,0-7.06.94-10.14,2.71-2.14,1.19-3.92,2.96-5.14,5.1-1.22,2.14-1.82,4.58-1.75,7.04l.46,15.84.03,26.57-.03.97v30.29h5.28v-29.61c.02-.13.03-.24.03-.34v-27.94l-.3-10.71c3.15,2.26,7.06,3.4,11.68,3.4,10.7,0,21.87-6.13,24-7.36.83-.49,1.32-1.36,1.32-2.29s-.5-1.8-1.29-2.27l-13.43-8.35c-3.12-1.94-6.71-3-10.39-3.06-.11,0-.22,0-.34,0h0Z"/>
          </g>
          <line class="cls-3" x1="118.4" y1="79.96" x2="97.07" y2="77.13"/>
          <polygon class="cls-4" points="108.57 80.07 108.74 79.3 108.41 79.3 108.57 80.07"/>
          <polygon class="cls-4" points="111.8 80.32 111.96 79.56 111.63 79.56 111.8 80.32"/>
          <circle class="cls-6" cx="94.2" cy="68.65" r="2.67"/>
          <path class="cls-13" d="m76.79,99.45c.45-.66.94-1.27,1.55-1.84.48-.45,1-.88,1.59-1.33l-1.02-3.55c-2.09.82-3.46,4.38-2.12,6.72h0Z"/>
        </g>
        <g>
          <g>
            <path class="cls-12" d="m35.36,66.17c-1,0-2.01-.23-2.91-.68l-2.78-1.38c-2.17.91-4.47,1.37-6.83,1.37-1.73,0-3.45-.25-5.11-.76-2.15-.84-4.03-2.07-5.63-3.68-1.6-1.6-2.83-3.49-3.64-5.61-1.04-2.66-3.48-11.75-3.48-12.28v-.52c.01-.44.16-.87.43-1.23.44-.51,1.05-.79,1.69-.79.19,0,17.15.4,23.38,9.2,2.16,3.17,2.82,7.06,1.86,10.75l2.09,1.03c.32.16.67.24,1.02.24.44,0,.87-.12,1.24-.36.69-.43,1.09-1.18,1.08-1.99v-28.97l.04-.15V-.3s4.14-2.2,4.14-2.2v62.04c.01,2.3-1.14,4.4-3.09,5.63-1.05.66-2.26,1.01-3.5,1.01Z"/>
            <path class="cls-10" d="m41.45-1.67v61.2c.01,2.11-1.07,4.08-2.86,5.2-.99.62-2.11.93-3.24.93-.92,0-1.84-.21-2.69-.62l-2.98-1.48c-2.17.95-4.5,1.42-6.84,1.42-1.67,0-3.34-.24-4.96-.73-2.03-.79-3.88-2-5.42-3.55-1.54-1.55-2.74-3.4-3.53-5.43-1.08-2.75-3.44-11.71-3.44-12.1h.07c-.14-.49-.05-1.03.26-1.44.32-.38.8-.59,1.29-.59,0,0,.01,0,.02,0,.75,0,16.99.56,22.95,8.98,2.14,3.14,2.75,7.08,1.67,10.72l2.46,1.21c.39.19.82.29,1.25.29.52,0,1.04-.15,1.5-.43.83-.52,1.33-1.44,1.32-2.41v-28.89s.02-.09.03-.14V0l3.15-1.67m1-1.66l-1.47.78-3.15,1.67-.53.28v30.95c-.01.07-.03.15-.03.25v28.9c0,.64-.32,1.23-.85,1.57-.29.18-.63.28-.97.28-.28,0-.56-.06-.8-.19l-1.73-.85c.86-3.71.14-7.58-2.02-10.75-6.39-9.02-23.61-9.42-23.78-9.42h0c-.81,0-1.55.34-2.07.94l-.02.03-.02.03c-.23.3-.38.65-.46,1.01h-.06s0,1.03,0,1.03c0,.76,2.57,10.07,3.51,12.47.84,2.17,2.1,4.12,3.75,5.77,1.65,1.66,3.59,2.93,5.77,3.78h.04s.04.03.04.03c1.71.52,3.47.78,5.25.78,2.35,0,4.64-.45,6.81-1.32l2.57,1.27c.97.48,2.05.73,3.13.73,1.34,0,2.64-.37,3.77-1.08,2.1-1.31,3.34-3.58,3.33-6.05v-18.7s0-42.49,0-42.49v-1.66h0Z"/>
          </g>
          <line class="cls-2" x1="5.7" y1="41.55" x2="23.78" y2="53.21"/>
          <polygon class="cls-4" points="13.42 45.38 12.94 46 13.25 46.14 13.42 45.38"/>
          <circle class="cls-8" cx="21.87" cy="63.49" r="2.67"/>
          <path class="cls-13" d="m37.92,23.64c-2.59.49-4.59,1.76-5.77,3.16,3.86-.28,6.41-.29,8.45.02.26-.22.55-.42.86-.62-1.17-.71-2.15-1.6-2.95-2.65-.23.01-.4.05-.58.08h0Z"/>
          <path class="cls-13" d="m44.73,48.34c-2.33-.16-4.56,1.18-5.84,3.08.07.3.13.59.13.85h2.39c.85-1.48,2.03-2.82,3.31-3.93h0Z"/>
        </g>
        <g>
          <g>
            <path class="cls-12" d="m67.23,56.2c-2.29,0-4.38-1.16-5.59-3.09-1.22-1.95-1.35-4.35-.33-6.41l1.37-2.78c-1.58-3.78-1.8-8.01-.62-11.93.84-2.15,2.07-4.03,3.68-5.63,1.61-1.6,3.49-2.83,5.61-3.64,2.66-1.04,11.75-3.48,12.28-3.48h.52,0c.44.01.87.16,1.23.43.52.45.8,1.07.79,1.72,0,.16-.4,17.12-9.2,23.36-2.2,1.5-4.76,2.29-7.41,2.29-1.13,0-2.25-.14-3.33-.43l-1.03,2.09c-.35.72-.31,1.58.12,2.26.43.68,1.16,1.08,1.96,1.08h28.99l.15.04h30.34s0,4.14,0,4.14h-59.51Z"/>
            <path class="cls-10" d="m83.63,19.73v.07c.15-.04.3-.07.46-.07.35,0,.7.11.98.33.38.33.6.81.59,1.31,0,.75-.56,16.99-8.98,22.95-2.12,1.45-4.61,2.19-7.12,2.19-1.21,0-2.42-.17-3.6-.52l-1.21,2.46c-.43.88-.38,1.92.14,2.75.52.82,1.42,1.32,2.39,1.32,0,0,.02,0,.03,0h28.89s.09.02.14.03h29.92v3.15h-58.98s-.02,0-.03,0c-2.1,0-4.05-1.08-5.17-2.86-1.12-1.79-1.24-4.03-.31-5.93l1.48-2.98c-1.62-3.73-1.87-7.91-.69-11.8.79-2.03,2-3.88,3.55-5.42,1.55-1.54,3.4-2.74,5.43-3.53,2.75-1.08,11.71-3.44,12.1-3.44m1.03-1h-1.03c-.76,0-10.07,2.57-12.47,3.51-2.17.84-4.12,2.1-5.77,3.75-1.66,1.65-2.93,3.59-3.78,5.77v.04s-.03.04-.03.04c-1.2,3.96-1,8.23.55,12.06l-1.27,2.57c-1.09,2.23-.96,4.8.36,6.9,1.31,2.08,3.55,3.33,6.02,3.33h18.74s40.27,0,40.27,0h1v-5.15h-30.8c-.07-.01-.15-.03-.25-.03h-28.9s0,0,0,0c-.66,0-1.23-.32-1.57-.85-.33-.53-.37-1.21-.09-1.77l.85-1.73c1,.23,2.03.35,3.06.35,2.75,0,5.41-.82,7.69-2.37,9.02-6.39,9.42-23.61,9.42-23.78,0-.79-.33-1.55-.94-2.07l-.03-.02-.03-.02c-.3-.23-.65-.38-1.01-.47v-.06h0Z"/>
          </g>
          <line class="cls-2" x1="85.25" y1="19.94" x2="73.59" y2="38.03"/>
          <polygon class="cls-4" points="81.42 27.67 80.8 27.19 80.65 27.5 81.42 27.67"/>
          <circle class="cls-5" cx="63.31" cy="36.12" r="2.67"/>
          <path class="cls-13" d="m103.16,52.17c-.49-2.59-1.76-4.59-3.16-5.77.28,3.86.29,6.41-.02,8.45.22.26.42.55.62.86.71-1.17,1.6-2.15,2.65-2.95-.01-.23-.05-.4-.08-.58h0Z"/>
          <path class="cls-13" d="m78.46,58.98c.16-2.33-1.18-4.56-3.08-5.84-.3.07-.59.13-.85.13v2.39c1.48.85,2.82,2.03,3.93,3.31h0Z"/>
        </g>
      </g>
      <path class="cls-13" d="m43.06,108.44c-1.4,1.74-1.83,4.56-.72,6.57.72.08.81-.96,1.39-.56.03-.67.8-.04,1.06-.67-.91-1.2-1.27-2.4-1.73-5.34h0Z"/>
      <path class="cls-13" d="m93.14,109.07c-2.19-.23-5.22,1.37-6.99,4.04.12.84,1.06.26.82,1.19.7-.45.7.24,1.42.06.99-1.86,1.84-2.63,4.76-5.29h0Z"/>
      <path class="cls-13" d="m57.32,16.11c2.48-.01,5.21-1.61,6.17-3.97-.44-.68-1.39-.03-1.46-.81-.6.44-.6-.66-1.32-.44-.4,1.62-1.17,2.77-3.39,5.22h0Z"/>
      <path class="cls-13" d="m118.44,87.31c-.47.33-.96.61-1.52.84-.44.18-.9.33-1.41.48l-.23,2.65c1.61-.01,3.45-2.05,3.15-3.97h0Z"/>
      <g>
        <circle class="cls-12" cx="16.95" cy="16.95" r="10.46"/>
        <g>
          <g>
            <path class="cls-11" d="m16.13,22.26c.23-.09.48-.14.73-.15.54-.02,1.07-.02,1.61,0,2.11.05,3.53-.99,4.32-2.86.32-.77.49-1.54.51-2.29-.02-.76-.19-1.52-.51-2.29-.78-1.87-2.21-2.92-4.32-2.86-.54.01-1.07.02-1.61,0-.24-.01-.5-.06-.73-.15-1.19-.47-2.49-.03-2.99,1.09-.17.37-.2.8-.31,1.27-.45,0-.93,0-1.41,0-.5,0-.81.31-.81.8,0,.72,0,1.43,0,2.15,0,.72,0,1.43,0,2.15,0,.49.31.8.81.8.48,0,.97,0,1.41,0,.11.46.14.89.31,1.27.51,1.12,1.8,1.57,2.99,1.09h0Zm-1.38-.47c-.12-.03-.23-.07-.34-.12-.08-.04-.15-.08-.22-.13s-.14-.11-.2-.17c-.06-.06-.12-.13-.17-.21-.05-.08-.1-.16-.14-.24-.01-.03-.02-.05-.03-.08-.02-.06-.04-.13-.06-.2-.02-.08-.04-.16-.05-.24-.02-.11-.04-.22-.06-.32-.02-.11-.04-.21-.07-.32-.04-.16-.07-.31-.11-.47h-.48c-.12,0-.23,0-.35,0-.12,0-.23,0-.35,0h-.36c-.12,0-.24,0-.36,0,0,0-.01,0-.02,0,0,0-.01,0-.02,0-.01,0-.03,0-.04,0,0,0,0,0-.01,0s0,0-.01,0c0,0-.01,0-.02,0,0,0-.02,0-.03-.01,0,0,0,0-.01,0s0,0,0-.01c0,0,0-.01-.01-.02,0-.01,0-.03-.01-.04,0-.02,0-.05,0-.07,0-.33,0-.65,0-.98h.77c.17,0,.3-.14.3-.3s-.14-.3-.3-.3h-.77v-1.13h.77c.17,0,.3-.14.3-.3s-.14-.3-.3-.3h-.77c0-.33,0-.65,0-.98,0-.02,0-.05,0-.07,0-.02,0-.03.01-.04,0,0,0-.02.01-.02,0,0,0,0,0-.01,0,0,0,0,.01,0,0,0,.02,0,.03-.01,0,0,.01,0,.02,0,0,0,0,0,.01,0s0,0,.01,0c.01,0,.03,0,.04,0,0,0,.01,0,.02,0s.01,0,.02,0c.12,0,.24,0,.36,0h.36c.12,0,.23,0,.35,0s.23,0,.35,0h.48c.04-.16.07-.31.11-.47.02-.11.05-.21.07-.32.02-.11.04-.22.06-.32.02-.08.03-.16.05-.24.02-.07.04-.13.06-.2.01-.03.02-.06.03-.08.04-.08.08-.17.14-.24.05-.07.11-.14.17-.21.06-.06.13-.12.2-.17s.15-.1.22-.13c.11-.05.22-.09.34-.12.18-.04.37-.06.56-.04.1,0,.2.02.29.05.1.02.2.06.3.09.11.04.23.08.35.11.06.01.12.03.18.04.06.01.12.02.18.03.06,0,.12.01.17.02.01,0,.03,0,.04,0,.04,0,.08,0,.12,0,.1,0,.21,0,.31,0,.41,0,.82,0,1.23,0,.21,0,.42,0,.63.02.19.02.38.05.57.1.17.04.35.1.51.17.16.07.31.14.46.24.15.09.28.19.41.3.13.11.26.24.37.37.12.14.23.29.33.44.11.17.2.34.29.51.05.09.09.19.13.29.02.05.04.1.06.16.02.05.04.11.06.16.08.21.14.42.2.63.05.2.09.41.12.62.02.18.04.36.04.54,0,.18-.02.36-.04.54-.03.21-.07.42-.12.62-.05.21-.12.43-.2.63-.02.05-.04.11-.06.16s-.04.11-.06.16c-.04.1-.08.19-.13.29-.09.18-.18.35-.29.51-.1.15-.21.3-.33.44-.12.13-.24.26-.37.37-.13.11-.27.21-.41.3-.15.09-.3.17-.46.24-.17.07-.34.12-.51.17-.19.05-.38.08-.57.1-.21.02-.42.03-.63.02-.41-.01-.82-.02-1.23,0-.1,0-.21,0-.31,0-.04,0-.08,0-.12,0-.01,0-.03,0-.04,0-.06,0-.12,0-.17.02-.06,0-.12.02-.18.03-.06.01-.12.02-.18.04-.12.03-.23.07-.35.11-.1.04-.19.07-.3.09-.1.02-.2.04-.29.05-.19.01-.38,0-.56-.04h0Z"/>
            <path class="cls-11" d="m17.63,15.16c.24-.76-.17-1.57-.93-1.82s-1.57.17-1.82.93c-.24.76.17,1.57.93,1.82.76.24,1.57-.17,1.82-.93Z"/>
            <path class="cls-11" d="m16.37,20.62c-.8.07-1.49-.52-1.56-1.32-.07-.8.52-1.49,1.32-1.56.8-.07,1.49.53,1.56,1.32.07.8-.52,1.49-1.32,1.56"/>
            <path class="cls-11" d="m14.55,17.61c.21-.11.42-.21.62-.33.14-.08.29-.17.42-.27.06-.04.06-.09,0-.13-.14-.1-.28-.19-.42-.27-.2-.12-.41-.21-.62-.33-.16-.09-.32-.18-.49-.21-.09-.02-.19-.01-.29,0-.14.02-.22.08-.29.2-.24.42-.24.93,0,1.35.07.12.15.18.29.2.1.02.2.02.29,0,.17-.03.33-.13.49-.22h0Z"/>
          </g>
          <circle class="cls-4" cx="16.95" cy="16.95" r="9.16"/>
        </g>
      </g>
      <g>
        <circle class="cls-12" cx="109.05" cy="16.95" r="10.46"/>
        <g>
          <g>
            <path class="cls-11" d="m103.74,16.13c.09.23.14.48.15.73.02.54.02,1.07,0,1.61-.05,2.11.99,3.53,2.86,4.32.77.32,1.54.49,2.29.51.76-.02,1.52-.19,2.29-.51,1.87-.78,2.92-2.21,2.86-4.32-.01-.54-.02-1.07,0-1.61.01-.24.06-.5.15-.73.47-1.19.03-2.49-1.09-2.99-.37-.17-.8-.2-1.27-.31,0-.45,0-.93,0-1.41,0-.5-.31-.81-.8-.81-.72,0-1.43,0-2.15,0-.72,0-1.43,0-2.15,0-.49,0-.8.31-.8.81,0,.48,0,.97,0,1.41-.46.11-.89.14-1.27.31-1.12.51-1.57,1.8-1.09,2.99h0Zm.47-1.38c.03-.12.07-.23.12-.34.04-.08.08-.15.13-.22s.11-.14.17-.2c.06-.06.13-.12.21-.17.08-.05.16-.1.24-.14.03-.01.05-.02.08-.03.06-.02.13-.04.2-.06.08-.02.16-.04.24-.05.11-.02.22-.04.32-.06.11-.02.21-.04.32-.07.16-.04.31-.07.47-.11v-.48c0-.12,0-.23,0-.35,0-.12,0-.23,0-.35v-.36c0-.12,0-.24,0-.36,0,0,0-.01,0-.02,0,0,0-.01,0-.02,0-.01,0-.03,0-.04,0,0,0,0,0-.01s0,0,0-.01c0,0,0-.01,0-.02,0,0,0-.02.01-.03,0,0,0,0,0-.01s0,0,.01,0c0,0,.01,0,.02-.01.01,0,.03,0,.04-.01.02,0,.05,0,.07,0,.33,0,.65,0,.98,0v.77c0,.17.14.3.3.3s.3-.14.3-.3v-.77h1.13v.77c0,.17.14.3.3.3s.3-.14.3-.3v-.77c.33,0,.65,0,.98,0,.02,0,.05,0,.07,0,.02,0,.03,0,.04.01,0,0,.02,0,.02.01,0,0,0,0,.01,0,0,0,0,0,0,.01,0,0,0,.02.01.03,0,0,0,.01,0,.02,0,0,0,0,0,.01s0,0,0,.01c0,.01,0,.03,0,.04,0,0,0,.01,0,.02s0,.01,0,.02c0,.12,0,.24,0,.36v.36c0,.12,0,.23,0,.35s0,.23,0,.35v.48c.16.04.31.07.47.11.11.02.21.05.32.07.11.02.22.04.32.06.08.02.16.03.24.05.07.02.13.04.2.06.03.01.06.02.08.03.08.04.17.08.24.14.07.05.14.11.21.17.06.06.12.13.17.2s.1.15.13.22c.05.11.09.22.12.34.04.18.06.37.04.56,0,.1-.02.2-.05.29-.02.1-.06.2-.09.3-.04.11-.08.23-.11.35-.01.06-.03.12-.04.18-.01.06-.02.12-.03.18,0,.06-.01.12-.02.17,0,.01,0,.03,0,.04,0,.04,0,.08,0,.12,0,.1,0,.21,0,.31,0,.41,0,.82,0,1.23,0,.21,0,.42-.02.63-.02.19-.05.38-.1.57-.04.17-.1.35-.17.51-.07.16-.14.31-.24.46-.09.15-.19.28-.3.41-.11.13-.24.26-.37.37-.14.12-.29.23-.44.33-.17.11-.34.2-.51.29-.09.05-.19.09-.29.13-.05.02-.1.04-.16.06-.05.02-.11.04-.16.06-.21.08-.42.14-.63.2-.2.05-.41.09-.62.12-.18.02-.36.04-.54.04-.18,0-.36-.02-.54-.04-.21-.03-.42-.07-.62-.12-.21-.05-.43-.12-.63-.2-.05-.02-.11-.04-.16-.06s-.11-.04-.16-.06c-.1-.04-.19-.08-.29-.13-.18-.09-.35-.18-.51-.29-.15-.1-.3-.21-.44-.33-.13-.12-.26-.24-.37-.37-.11-.13-.21-.27-.3-.41-.09-.15-.17-.3-.24-.46-.07-.17-.12-.34-.17-.51-.05-.19-.08-.38-.1-.57-.02-.21-.03-.42-.02-.63.01-.41.02-.82,0-1.23,0-.1,0-.21,0-.31,0-.04,0-.08,0-.12,0-.01,0-.03,0-.04,0-.06,0-.12-.02-.17,0-.06-.02-.12-.03-.18-.01-.06-.02-.12-.04-.18-.03-.12-.07-.23-.11-.35-.04-.1-.07-.19-.09-.3-.02-.1-.04-.2-.05-.29-.01-.19,0-.38.04-.56h0Z"/>
            <path class="cls-11" d="m110.84,17.63c.76.24,1.57-.17,1.82-.93s-.17-1.57-.93-1.82c-.76-.24-1.57.17-1.82.93-.24.76.17,1.57.93,1.82Z"/>
            <path class="cls-11" d="m105.38,16.37c-.07-.8.52-1.49,1.32-1.56.8-.07,1.49.52,1.56,1.32.07.8-.53,1.49-1.32,1.56-.8.07-1.49-.52-1.56-1.32"/>
            <path class="cls-11" d="m108.39,14.55c.11.21.21.42.33.62.08.14.17.29.27.42.04.06.09.06.13,0,.1-.14.19-.28.27-.42.12-.2.21-.41.33-.62.09-.16.18-.32.21-.49.02-.09.01-.19,0-.29-.02-.14-.08-.22-.2-.29-.42-.24-.93-.24-1.35,0-.12.07-.18.15-.2.29-.02.1-.02.2,0,.29.03.17.13.33.22.49h0Z"/>
          </g>
          <circle class="cls-4" cx="109.05" cy="16.95" r="9.16"/>
        </g>
      </g>
      <g>
        <circle class="cls-12" cx="109.05" cy="109.05" r="10.46"/>
        <g>
          <g>
            <path class="cls-11" d="m109.87,103.74c-.23.09-.48.14-.73.15-.54.02-1.07.02-1.61,0-2.11-.05-3.53.99-4.32,2.86-.32.77-.49,1.54-.51,2.29.02.76.19,1.52.51,2.29.78,1.87,2.21,2.92,4.32,2.86.54-.01,1.07-.02,1.61,0,.24.01.5.06.73.15,1.19.47,2.49.03,2.99-1.09.17-.37.2-.8.31-1.27.45,0,.93,0,1.41,0,.5,0,.81-.31.81-.8,0-.72,0-1.43,0-2.15,0-.72,0-1.43,0-2.15,0-.49-.31-.8-.81-.8-.48,0-.97,0-1.41,0-.11-.46-.14-.89-.31-1.27-.51-1.12-1.8-1.57-2.99-1.09h0Zm1.38.47c.12.03.23.07.34.12.08.04.15.08.22.13s.14.11.2.17c.06.06.12.13.17.21.05.08.1.16.14.24.01.03.02.05.03.08.02.06.04.13.06.2.02.08.04.16.05.24.02.11.04.22.06.32.02.11.04.21.07.32.04.16.07.31.11.47h.48c.12,0,.23,0,.35,0,.12,0,.23,0,.35,0h.36c.12,0,.24,0,.36,0,0,0,.01,0,.02,0,0,0,.01,0,.02,0,.01,0,.03,0,.04,0,0,0,0,0,.01,0s0,0,.01,0c0,0,.01,0,.02,0,0,0,.02,0,.03.01,0,0,0,0,.01,0s0,0,0,.01c0,0,0,.01.01.02,0,.01,0,.03.01.04,0,.02,0,.05,0,.07,0,.33,0,.65,0,.98h-.77c-.17,0-.3.14-.3.3s.14.3.3.3h.77v1.13h-.77c-.17,0-.3.14-.3.3s.14.3.3.3h.77c0,.33,0,.65,0,.98,0,.02,0,.05,0,.07,0,.02,0,.03-.01.04,0,0,0,.02-.01.02,0,0,0,0,0,.01,0,0,0,0-.01,0,0,0-.02,0-.03.01,0,0-.01,0-.02,0,0,0,0,0-.01,0s0,0-.01,0c-.01,0-.03,0-.04,0,0,0-.01,0-.02,0s-.01,0-.02,0c-.12,0-.24,0-.36,0h-.36c-.12,0-.23,0-.35,0s-.23,0-.35,0h-.48c-.04.16-.07.31-.11.47-.02.11-.05.21-.07.32-.02.11-.04.22-.06.32-.02.08-.03.16-.05.24-.02.07-.04.13-.06.2-.01.03-.02.06-.03.08-.04.08-.08.17-.14.24-.05.07-.11.14-.17.21-.06.06-.13.12-.2.17s-.15.1-.22.13c-.11.05-.22.09-.34.12-.18.04-.37.06-.56.04-.1,0-.2-.02-.29-.05-.1-.02-.2-.06-.3-.09-.11-.04-.23-.08-.35-.11-.06-.01-.12-.03-.18-.04-.06-.01-.12-.02-.18-.03-.06,0-.12-.01-.17-.02-.01,0-.03,0-.04,0-.04,0-.08,0-.12,0-.1,0-.21,0-.31,0-.41,0-.82,0-1.23,0-.21,0-.42,0-.63-.02-.19-.02-.38-.05-.57-.1-.17-.04-.35-.1-.51-.17-.16-.07-.31-.14-.46-.24-.15-.09-.28-.19-.41-.3-.13-.11-.26-.24-.37-.37-.12-.14-.23-.29-.33-.44-.11-.17-.2-.34-.29-.51-.05-.09-.09-.19-.13-.29-.02-.05-.04-.1-.06-.16-.02-.05-.04-.11-.06-.16-.08-.21-.14-.42-.2-.63-.05-.2-.09-.41-.12-.62-.02-.18-.04-.36-.04-.54,0-.18.02-.36.04-.54.03-.21.07-.42.12-.62.05-.21.12-.43.2-.63.02-.05.04-.11.06-.16s.04-.11.06-.16c.04-.1.08-.19.13-.29.09-.18.18-.35.29-.51.1-.15.21-.3.33-.44.12-.13.24-.26.37-.37.13-.11.27-.21.41-.3.15-.09.3-.17.46-.24.17-.07.34-.12.51-.17.19-.05.38-.08.57-.1.21-.02.42-.03.63-.02.41.01.82.02,1.23,0,.1,0,.21,0,.31,0,.04,0,.08,0,.12,0,.01,0,.03,0,.04,0,.06,0,.12,0,.17-.02.06,0,.12-.02.18-.03.06-.01.12-.02.18-.04.12-.03.23-.07.35-.11.1-.04.19-.07.3-.09.1-.02.2-.04.29-.05.19-.01.38,0,.56.04h0Z"/>
            <path class="cls-11" d="m108.37,110.84c-.24.76.17,1.57.93,1.82s1.57-.17,1.82-.93c.24-.76-.17-1.57-.93-1.82-.76-.24-1.57.17-1.82.93Z"/>
            <path class="cls-11" d="m109.63,105.38c.8-.07,1.49.52,1.56,1.32.07.8-.52,1.49-1.32,1.56-.8.07-1.49-.53-1.56-1.32-.07-.8.52-1.49,1.32-1.56"/>
            <path class="cls-11" d="m111.45,108.39c-.21.11-.42.21-.62.33-.14.08-.29.17-.42.27-.06.04-.06.09,0,.13.14.1.28.19.42.27.2.12.41.21.62.33.16.09.32.18.49.21.09.02.19.01.29,0,.14-.02.22-.08.29-.2.24-.42.24-.93,0-1.35-.07-.12-.15-.18-.29-.2-.1-.02-.2-.02-.29,0-.17.03-.33.13-.49.22h0Z"/>
          </g>
          <circle class="cls-4" cx="109.05" cy="109.05" r="9.16"/>
        </g>
      </g>
      <g>
        <circle class="cls-12" cx="16.95" cy="109.05" r="10.46"/>
        <g>
          <g>
            <path class="cls-11" d="m22.26,109.87c-.09-.23-.14-.48-.15-.73-.02-.54-.02-1.07,0-1.61.05-2.11-.99-3.53-2.86-4.32-.77-.32-1.54-.49-2.29-.51-.76.02-1.52.19-2.29.51-1.87.78-2.92,2.21-2.86,4.32.01.54.02,1.07,0,1.61-.01.24-.06.5-.15.73-.47,1.19-.03,2.49,1.09,2.99.37.17.8.2,1.27.31,0,.45,0,.93,0,1.41,0,.5.31.81.8.81.72,0,1.43,0,2.15,0,.72,0,1.43,0,2.15,0,.49,0,.8-.31.8-.81,0-.48,0-.97,0-1.41.46-.11.89-.14,1.27-.31,1.12-.51,1.57-1.8,1.09-2.99h0Zm-.47,1.38c-.03.12-.07.23-.12.34-.04.08-.08.15-.13.22s-.11.14-.17.2c-.06.06-.13.12-.21.17-.08.05-.16.1-.24.14-.03.01-.05.02-.08.03-.06.02-.13.04-.2.06-.08.02-.16.04-.24.05-.11.02-.22.04-.32.06-.11.02-.21.04-.32.07-.16.04-.31.07-.47.11v.48c0,.12,0,.23,0,.35,0,.12,0,.23,0,.35v.36c0,.12,0,.24,0,.36,0,0,0,.01,0,.02,0,0,0,.01,0,.02,0,.01,0,.03,0,.04,0,0,0,0,0,.01s0,0,0,.01c0,0,0,.01,0,.02,0,0,0,.02-.01.03,0,0,0,0,0,.01s0,0-.01,0c0,0-.01,0-.02.01-.01,0-.03,0-.04.01-.02,0-.05,0-.07,0-.33,0-.65,0-.98,0v-.77c0-.17-.14-.3-.3-.3s-.3.14-.3.3v.77h-1.13v-.77c0-.17-.14-.3-.3-.3s-.3.14-.3.3v.77c-.33,0-.65,0-.98,0-.02,0-.05,0-.07,0-.02,0-.03,0-.04-.01,0,0-.02,0-.02-.01,0,0,0,0-.01,0,0,0,0,0,0-.01,0,0,0-.02-.01-.03,0,0,0-.01,0-.02,0,0,0,0,0-.01s0,0,0-.01c0-.01,0-.03,0-.04,0,0,0-.01,0-.02s0-.01,0-.02c0-.12,0-.24,0-.36v-.36c0-.12,0-.23,0-.35s0-.23,0-.35v-.48c-.16-.04-.31-.07-.47-.11-.11-.02-.21-.05-.32-.07-.11-.02-.22-.04-.32-.06-.08-.02-.16-.03-.24-.05-.07-.02-.13-.04-.2-.06-.03-.01-.06-.02-.08-.03-.08-.04-.17-.08-.24-.14-.07-.05-.14-.11-.21-.17-.06-.06-.12-.13-.17-.2s-.1-.15-.13-.22c-.05-.11-.09-.22-.12-.34-.04-.18-.06-.37-.04-.56,0-.1.02-.2.05-.29.02-.1.06-.2.09-.3.04-.11.08-.23.11-.35.01-.06.03-.12.04-.18.01-.06.02-.12.03-.18,0-.06.01-.12.02-.17,0-.01,0-.03,0-.04,0-.04,0-.08,0-.12,0-.1,0-.21,0-.31,0-.41,0-.82,0-1.23,0-.21,0-.42.02-.63.02-.19.05-.38.1-.57.04-.17.1-.35.17-.51.07-.16.14-.31.24-.46.09-.15.19-.28.3-.41.11-.13.24-.26.37-.37.14-.12.29-.23.44-.33.17-.11.34-.2.51-.29.09-.05.19-.09.29-.13.05-.02.1-.04.16-.06.05-.02.11-.04.16-.06.21-.08.42-.14.63-.2.2-.05.41-.09.62-.12.18-.02.36-.04.54-.04.18,0,.36.02.54.04.21.03.42.07.62.12.21.05.43.12.63.2.05.02.11.04.16.06s.11.04.16.06c.1.04.19.08.29.13.18.09.35.18.51.29.15.1.3.21.44.33.13.12.26.24.37.37.11.13.21.27.3.41.09.15.17.3.24.46.07.17.12.34.17.51.05.19.08.38.1.57.02.21.03.42.02.63-.01.41-.02.82,0,1.23,0,.1,0,.21,0,.31,0,.04,0,.08,0,.12,0,.01,0,.03,0,.04,0,.06,0,.12.02.17,0,.06.02.12.03.18.01.06.02.12.04.18.03.12.07.23.11.35.04.1.07.19.09.3.02.1.04.2.05.29.01.19,0,.38-.04.56h0Z"/>
            <path class="cls-11" d="m15.16,108.37c-.76-.24-1.57.17-1.82.93s.17,1.57.93,1.82c.76.24,1.57-.17,1.82-.93.24-.76-.17-1.57-.93-1.82Z"/>
            <path class="cls-11" d="m20.62,109.63c.07.8-.52,1.49-1.32,1.56-.8.07-1.49-.52-1.56-1.32-.07-.8.53-1.49,1.32-1.56.8-.07,1.49.52,1.56,1.32"/>
            <path class="cls-11" d="m17.61,111.45c-.11-.21-.21-.42-.33-.62-.08-.14-.17-.29-.27-.42-.04-.06-.09-.06-.13,0-.1.14-.19.28-.27.42-.12.2-.21.41-.33.62-.09.16-.18.32-.21.49-.02.09-.01.19,0,.29.02.14.08.22.2.29.42.24.93.24,1.35,0,.12-.07.18-.15.2-.29.02-.1.02-.2,0-.29-.03-.17-.13-.33-.22-.49h0Z"/>
          </g>
          <circle class="cls-4" cx="16.95" cy="109.05" r="9.16"/>
        </g>
      </g>
    </g>
  </g>
</svg>