<?xml version="1.0" encoding="UTF-8"?>
<svg id="Layer_2" data-name="Layer 2" xmlns="http://www.w3.org/2000/svg" xmlns:xlink="http://www.w3.org/1999/xlink" viewBox="0 0 228.92 228.92">
  <defs>
    <style>
      .cls-1, .cls-2, .cls-3, .cls-4 {
        fill: none;
      }

      .cls-2 {
        stroke: #ee4423;
      }

      .cls-2, .cls-3, .cls-4, .cls-5, .cls-6 {
        stroke-miterlimit: 10;
      }

      .cls-3, .cls-6 {
        stroke: #071b1e;
        stroke-width: 4.42px;
      }

      .cls-7 {
        fill: #984498;
      }

      .cls-4, .cls-5 {
        stroke: #1b4042;
        stroke-width: 2px;
      }

      .cls-8 {
        fill: #ec6a5d;
      }

      .cls-9 {
        fill: #6db360;
      }

      .cls-10 {
        clip-path: url(#clippath-12);
      }

      .cls-11 {
        clip-path: url(#clippath-6);
      }

      .cls-12 {
        fill: #eac75d;
      }

      .cls-13, .cls-5, .cls-6 {
        fill: #071b1e;
      }

      .cls-14 {
        fill: #081b1e;
      }

      .cls-15 {
        clip-path: url(#clippath);
      }
    </style>
    <clipPath id="clippath">
      <rect class="cls-6" x="2.21" y="2.21" width="224.49" height="224.49" rx="18.06" ry="18.06"/>
    </clipPath>
    <clipPath id="clippath-6">
      <rect class="cls-6" x="2.21" y="2.21" width="224.49" height="224.49" rx="18.06" ry="18.06"/>
    </clipPath>
    <clipPath id="clippath-12">
      <rect class="cls-5" x="16.58" y="16.58" width="195.75" height="195.75" rx="11.01" ry="11.01"/>
    </clipPath>
  </defs>
  <g id="Layer_1-2" data-name="Layer 1">
    <g>
      <g>
        <g>
          <rect class="cls-13" x="2.21" y="2.21" width="224.49" height="224.49" rx="18.06" ry="18.06"/>
          <g class="cls-15">
            <g>
              <g>
                <rect class="cls-13" x="2.21" y="2.21" width="224.49" height="224.49"/>
                <rect class="cls-3" x="2.21" y="2.21" width="224.49" height="224.49"/>
              </g>
              <rect class="cls-6" x="2.21" y="2.21" width="224.49" height="224.49"/>
              <g>
                <rect class="cls-13" x="2.21" y="2.21" width="224.49" height="224.49"/>
                <rect class="cls-3" x="2.21" y="2.21" width="224.49" height="224.49"/>
              </g>
              <g>
                <rect class="cls-13" x="2.21" y="2.21" width="224.49" height="224.49"/>
                <rect class="cls-3" x="2.21" y="2.21" width="224.49" height="224.49"/>
              </g>
              <g>
                <rect class="cls-13" x="2.21" y="2.21" width="224.49" height="224.49"/>
                <rect class="cls-3" x="2.21" y="2.21" width="224.49" height="224.49"/>
              </g>
              <g>
                <rect class="cls-13" x="2.21" y="2.21" width="224.49" height="224.49"/>
                <rect class="cls-3" x="2.21" y="2.21" width="224.49" height="224.49"/>
              </g>
            </g>
          </g>
          <rect class="cls-3" x="2.21" y="2.21" width="224.49" height="224.49" rx="18.06" ry="18.06"/>
        </g>
        <g>
          <rect class="cls-13" x="2.21" y="2.21" width="224.49" height="224.49" rx="18.06" ry="18.06"/>
          <g class="cls-11">
            <g>
              <g>
                <rect class="cls-13" x="2.21" y="2.21" width="224.49" height="224.49"/>
                <rect class="cls-3" x="2.21" y="2.21" width="224.49" height="224.49"/>
              </g>
              <rect class="cls-6" x="2.21" y="2.21" width="224.49" height="224.49"/>
              <g>
                <rect class="cls-13" x="2.21" y="2.21" width="224.49" height="224.49"/>
                <rect class="cls-3" x="2.21" y="2.21" width="224.49" height="224.49"/>
              </g>
              <g>
                <rect class="cls-13" x="2.21" y="2.21" width="224.49" height="224.49"/>
                <rect class="cls-3" x="2.21" y="2.21" width="224.49" height="224.49"/>
              </g>
              <g>
                <rect class="cls-13" x="2.21" y="2.21" width="224.49" height="224.49"/>
                <rect class="cls-3" x="2.21" y="2.21" width="224.49" height="224.49"/>
              </g>
              <g>
                <rect class="cls-13" x="2.21" y="2.21" width="224.49" height="224.49"/>
                <rect class="cls-3" x="2.21" y="2.21" width="224.49" height="224.49"/>
              </g>
            </g>
          </g>
          <rect class="cls-3" x="2.21" y="2.21" width="224.49" height="224.49" rx="18.06" ry="18.06"/>
        </g>
      </g>
      <path class="cls-14" d="M80.22,64.32c.35.16.69.33,1.02.5.67.34,1.33.7,1.98,1.06,4.82,2.73,8.72,6,11.6,8.84.38.38.75.75,1.1,1.11,1.04,1.08,1.91,2.07,2.61,2.91,1.05,1.26,1.71,2.17,1.96,2.52.14.18.26.38.36.58.03.07.06.14.09.2.06.14.13.28.17.42.03.09.04.17.06.26.03.13.07.26.09.4.01.1.02.19.02.29,0,.12.03.23.03.35,0,.03,0,.06,0,.08v86.68h0l-.5,40.81h2.64l.5-40.78v-86.71s0,0,0,0c0-1.54-.48-2.99-1.36-4.16-.56-.8-8.99-12.56-23.31-18.62-.03.91-.22,1.79-.53,2.6.49.22.98.43,1.46.66Z"/>
      <g>
        <g>
          <rect class="cls-13" x="16.58" y="16.58" width="195.75" height="195.75" rx="11.01" ry="11.01"/>
          <g class="cls-10">
            <g>
              <rect class="cls-13" x="16.58" y="16.58" width="195.75" height="195.75"/>
              <rect class="cls-2" x="16.58" y="16.58" width="195.75" height="195.75"/>
              <rect class="cls-13" x="16.58" y="16.58" width="195.75" height="195.75"/>
              <rect class="cls-13" x="16.58" y="16.58" width="195.75" height="195.75"/>
              <rect class="cls-13" x="16.58" y="16.58" width="195.75" height="195.75"/>
              <rect class="cls-13" x="16.58" y="16.58" width="195.75" height="195.75"/>
            </g>
          </g>
          <rect class="cls-4" x="16.58" y="16.58" width="195.75" height="195.75" rx="11.01" ry="11.01"/>
        </g>
        <line class="cls-5" x1="208.71" y1="20.34" x2="19.2" y2="209.85"/>
        <line class="cls-5" x1="208.71" y1="209.85" x2="19.2" y2="20.34"/>
      </g>
      <g>
        <path class="cls-1" d="M194.96,96.71c.08-.21.15-.43.2-.65-.05.22-.11.44-.2.65h0Z"/>
        <path class="cls-1" d="M135.67,77.3s0,0,0,0c0,0,0,0,0,0,3.61,5.1,8.78,9.02,14.53,12.01-5.75-3-10.92-6.91-14.53-12.01Z"/>
        <path class="cls-1" d="M123.14,47.7c.86.06,1.72.29,2.52.68l5.96,2.94-5.96-2.94c-.8-.39-1.66-.62-2.52-.68Z"/>
        <path class="cls-1" d="M117.45,50.11c.07-.09.14-.18.22-.26-.08.08-.14.18-.22.26Z"/>
        <path class="cls-1" d="M118.47,40.32c-1.19.37-2.34.9-3.43,1.58-.27.17-.53.35-.79.53.26-.18.52-.36.79-.53,1.08-.68,2.24-1.21,3.43-1.58Z"/>
        <path class="cls-1" d="M140.5,166.67c-.26-.03-.51-.05-.77-.08.26.03.51.05.77.08Z"/>
        <path class="cls-1" d="M105.59,140.68c-.16.84-.3,1.69-.39,2.55.09-.85.23-1.7.39-2.55h0Z"/>
        <path class="cls-1" d="M108.13,53.97c0,.15-.01.3-.01.46,0,.03,0,.06,0,.08h0c0-.18,0-.36.01-.54Z"/>
        <path class="cls-1" d="M148.61,41.55c-.48.05-.96.11-1.45.18.48-.07.96-.13,1.45-.18h0Z"/>
        <path class="cls-1" d="M165.23,43.07c2.46.96,4.81,2.18,7.01,3.62-2.2-1.44-4.55-2.66-7.01-3.62-.79-.24-1.58-.44-2.37-.63h0c.79.19,1.58.39,2.37.63Z"/>
        <path class="cls-1" d="M160.17,165.82s-.08.01-.11.02c.04,0,.08-.01.11-.02Z"/>
        <path class="cls-1" d="M130.27,114.6c.09-.03.18-.07.28-.1-.09.03-.18.06-.28.1Z"/>
        <path class="cls-1" d="M133.35,113.66c.11-.03.22-.06.33-.09-.11.03-.22.06-.33.09Z"/>
        <path class="cls-1" d="M124.35,117.07s.07-.04.11-.05c-.04.02-.07.04-.11.05Z"/>
        <path class="cls-1" d="M127.63,163.75c-.22-.08-.45-.17-.67-.25.22.09.45.17.67.25Z"/>
        <path class="cls-1" d="M123.18,161.79c-.13-.07-.26-.14-.39-.21.13.07.26.15.39.21Z"/>
        <path class="cls-1" d="M138.34,166.42c-.22-.03-.44-.06-.67-.09.22.03.44.06.67.09Z"/>
        <path class="cls-1" d="M135.77,166.01s-.09-.02-.14-.02c.05,0,.09.02.14.02Z"/>
        <path class="cls-1" d="M125.51,162.89c-.15-.07-.31-.13-.46-.2.15.07.3.13.46.2Z"/>
        <path class="cls-1" d="M127.26,115.74c.07-.03.13-.06.2-.09-.07.03-.13.06-.2.09Z"/>
        <path class="cls-1" d="M155.17,166.5c-.16.02-.33.04-.49.05.16-.02.33-.04.49-.05Z"/>
        <path class="cls-1" d="M157.79,166.18c-.22.03-.44.06-.67.09.22-.03.44-.06.67-.09Z"/>
        <path class="cls-1" d="M131.61,165.06c-.24-.07-.47-.14-.71-.21.24.07.47.14.71.21Z"/>
        <path class="cls-1" d="M152.3,166.76c-.19.01-.38.02-.57.04.19-.01.38-.02.57-.04Z"/>
        <path class="cls-1" d="M149.83,166.91c-.22,0-.43.02-.65.03.22,0,.43-.02.65-.03Z"/>
        <path class="cls-1" d="M146.75,166.98s.03,0,.05,0c-.13,0-.26,0-.39,0,.11,0,.23,0,.34,0Z"/>
        <path class="cls-1" d="M142.62,166.85c-.26-.02-.52-.04-.79-.06.26.02.52.04.79.06Z"/>
        <path class="cls-1" d="M144.71,166.94c-.24,0-.48-.02-.72-.03.24.01.48.02.72.03Z"/>
        <path class="cls-1" d="M209.03,146.75c.14-.24.24-.5.33-.77h0c-.09.27-.19.52-.33.77Z"/>
        <path class="cls-1" d="M129.63,164.46c-.24-.08-.49-.16-.73-.24.24.08.48.16.73.24Z"/>
        <path class="cls-1" d="M105.02,147.62c-.04-1.47.02-2.94.17-4.4-.16,1.45-.22,2.92-.17,4.4l.56,19.45h0s-.56-19.45-.56-19.45Z"/>
        <path class="cls-1" d="M209.34,143.26c-.08-.24-.18-.48-.31-.7.13.22.23.46.31.7h0Z"/>
        <path class="cls-1" d="M136.5,112.91c.13-.03.25-.05.38-.08-.13.02-.25.05-.38.08Z"/>
        <path class="cls-1" d="M111.51,44.99c.11-.13.22-.26.34-.38-.11.13-.23.25-.34.38Z"/>
        <path class="cls-1" d="M112.79,43.63c.14-.13.28-.25.42-.37-.14.12-.29.24-.42.37Z"/>
        <path class="cls-1" d="M112.13,44.29c.12-.13.25-.25.37-.37-.13.12-.25.25-.37.37Z"/>
        <path class="cls-1" d="M110.42,46.49c.08-.13.18-.26.27-.39-.09.13-.18.26-.27.39Z"/>
        <path class="cls-1" d="M195.25,94.15s0-.08-.02-.15c.01.07.02.12.02.15h0Z"/>
        <path class="cls-1" d="M194.71,91.66c.11.47.21.88.29,1.23-.08-.35-.18-.76-.29-1.23Z"/>
        <path class="cls-1" d="M195,92.89c.12.52.2.9.23,1.11-.03-.21-.11-.59-.23-1.11Z"/>
        <path class="cls-1" d="M113.5,43.01c.17-.14.34-.27.52-.4-.17.13-.35.26-.52.4Z"/>
        <path class="cls-1" d="M109.95,47.29c.08-.14.16-.27.24-.4-.08.13-.16.27-.24.4Z"/>
        <path class="cls-1" d="M184.35,59.49c.66,1.14,1.26,2.31,1.8,3.52-.54-1.2-1.14-2.38-1.8-3.52Z"/>
        <path class="cls-1" d="M110.94,45.72c.1-.13.2-.26.3-.39-.1.13-.21.26-.3.39Z"/>
        <path class="cls-1" d="M133.61,165.56c-.19-.04-.39-.1-.58-.14.19.05.39.1.58.14Z"/>
        <path class="cls-1" d="M108.23,52.57c.02-.16.05-.33.08-.49-.03.16-.06.32-.08.49Z"/>
        <path class="cls-1" d="M108.14,53.51c.01-.17.03-.33.05-.5-.02.17-.03.33-.05.5Z"/>
        <path class="cls-1" d="M119.57,159.68c-.22-.15-.44-.29-.66-.45.22.15.44.3.66.45Z"/>
        <path class="cls-1" d="M109.16,48.96c.06-.15.13-.3.19-.44-.06.15-.13.29-.19.44Z"/>
        <path class="cls-1" d="M108.37,51.64c.03-.16.07-.32.11-.48-.04.16-.08.32-.11.48Z"/>
        <path class="cls-1" d="M109.53,48.11c.07-.14.14-.28.21-.42-.07.14-.15.28-.21.42Z"/>
        <path class="cls-1" d="M115.87,53.68c-.02.13-.02.27-.03.4,0-.14,0-.27.03-.4Z"/>
        <path class="cls-1" d="M108.58,50.73c.04-.16.09-.31.13-.46-.05.15-.09.31-.13.46Z"/>
        <path class="cls-1" d="M108.84,49.84c.05-.15.11-.3.16-.46-.06.15-.11.3-.16.46Z"/>
        <path class="cls-1" d="M131,53.88c.04-.2.08-.4.12-.6-.04.2-.08.4-.12.6Z"/>
        <path class="cls-1" d="M118.3,49.25c-.08.06-.14.13-.21.2.07-.06.14-.14.21-.2Z"/>
        <path class="cls-1" d="M130.64,55.94c.03-.21.06-.42.1-.63-.03.21-.07.42-.1.63Z"/>
        <path class="cls-1" d="M130.43,57.93c0-.13.03-.26.04-.39-.01.13-.03.26-.04.39Z"/>
        <path class="cls-1" d="M116.03,52.82c-.03.13-.05.26-.07.38.02-.13.04-.26.07-.38Z"/>
        <path class="cls-1" d="M116.29,52.01c-.05.12-.08.24-.12.36.04-.12.07-.24.12-.36Z"/>
        <path class="cls-1" d="M130.36,60.04c0,.12.01.23.01.35,0-.16,0-.32,0-.48,0,.04,0,.09,0,.13Z"/>
        <path class="cls-1" d="M116.66,51.23c-.06.11-.1.22-.16.33.05-.11.1-.22.16-.33Z"/>
        <path class="cls-1" d="M117.12,50.5c-.07.1-.13.2-.19.3.06-.1.12-.21.19-.3Z"/>
        <path class="cls-1" d="M130.71,64.66c-.02-.12-.03-.24-.05-.36.02.12.03.24.05.36Z"/>
        <path class="cls-1" d="M133.54,73.63c-.09-.17-.18-.35-.26-.52.08.18.17.35.26.52Z"/>
        <path class="cls-1" d="M134.57,75.53c-.1-.18-.2-.35-.3-.53.1.18.2.36.3.53Z"/>
        <path class="cls-1" d="M193.03,98.7c-.3.13-.61.22-.94.28.32-.06.64-.15.94-.28Z"/>
        <path class="cls-1" d="M195.25,95.25s0-.09,0-.13c0,.27,0,.54-.05.81.04-.22.06-.45.06-.68Z"/>
        <path class="cls-1" d="M131.21,67.18c-.04-.17-.09-.35-.13-.52.04.18.08.35.13.52Z"/>
        <path class="cls-1" d="M130.47,62.61c-.02-.21-.03-.41-.04-.62.01.21.03.41.04.62Z"/>
        <path class="cls-1" d="M195.09,94.14c.08.27.12.54.14.82-.02-.27-.06-.55-.14-.82Z"/>
        <path class="cls-1" d="M121.36,160.79c-.21-.12-.42-.25-.62-.38.21.13.41.25.62.38Z"/>
        <path class="cls-1" d="M131.79,69.28c-.06-.2-.12-.39-.18-.59.06.2.12.4.18.59Z"/>
        <path class="cls-1" d="M132.47,71.22c-.03-.07-.05-.15-.08-.22.03.07.05.15.08.22Z"/>
        <path class="cls-1" d="M170.85,163.49c-.21.06-.43.11-.64.17.21-.06.43-.11.64-.17Z"/>
        <path class="cls-1" d="M201.31,151.64c-.1.05-.2.1-.31.16.1-.05.21-.1.31-.16Z"/>
        <path class="cls-1" d="M178.13,161.32c-.15.05-.31.1-.46.15.15-.05.31-.1.46-.15Z"/>
        <path class="cls-1" d="M200.03,152.28c-.12.06-.23.12-.35.18.12-.06.24-.12.35-.18Z"/>
        <path class="cls-1" d="M204.64,149.89s-.05.03-.07.04c.02-.01.05-.03.07-.04Z"/>
        <path class="cls-1" d="M203.75,150.37c-.09.05-.18.09-.27.14.09-.05.18-.1.27-.14Z"/>
        <path class="cls-1" d="M202.62,150.96c-.07.03-.13.07-.19.1.07-.03.13-.07.19-.1Z"/>
        <path class="cls-1" d="M195.16,154.6c-.09.04-.18.08-.27.13.09-.04.18-.08.27-.13Z"/>
        <path class="cls-1" d="M187.4,157.94c-.19.07-.37.15-.56.22.19-.07.38-.15.56-.22Z"/>
        <path class="cls-1" d="M189.27,157.18c-.11.05-.23.09-.34.14.11-.05.23-.09.34-.14Z"/>
        <path class="cls-1" d="M175.94,162.02c-.21.07-.42.13-.64.2.21-.07.43-.13.64-.2Z"/>
        <path class="cls-1" d="M191.52,156.23c-.16.07-.31.14-.47.2.16-.07.32-.14.47-.2Z"/>
        <path class="cls-1" d="M180.74,160.44c-.18.06-.35.12-.53.19.18-.06.35-.12.53-.19Z"/>
        <path class="cls-1" d="M173.21,162.84s-.09.03-.13.04c.04-.01.09-.03.13-.04Z"/>
        <path class="cls-1" d="M185.16,158.82c-.09.04-.18.07-.28.11.09-.04.18-.07.28-.11Z"/>
        <path class="cls-1" d="M182.92,159.66c-.19.07-.38.14-.57.21.19-.07.38-.14.57-.21Z"/>
        <path class="cls-1" d="M198.34,153.11c-.07.03-.14.07-.21.1.07-.03.14-.07.21-.1Z"/>
        <path class="cls-1" d="M196.9,153.8c-.15.07-.29.14-.44.21.15-.07.29-.14.44-.21Z"/>
        <path class="cls-1" d="M168.39,164.12c-.18.04-.35.09-.53.13.18-.04.35-.09.53-.13Z"/>
        <path class="cls-1" d="M193.29,155.45c-.15.07-.31.14-.46.2.15-.07.31-.14.46-.2Z"/>
        <path class="cls-1" d="M206.27,149s-.08.05-.12.07c.04-.02.08-.05.12-.07Z"/>
        <path class="cls-1" d="M206.88,148.65s-.06.04-.1.05c.04-.02.06-.04.1-.05Z"/>
        <path class="cls-1" d="M165.58,164.78c-.18.04-.35.07-.53.11.18-.04.35-.07.53-.11Z"/>
        <path class="cls-1" d="M207.28,148.42s-.05.03-.07.04c.03-.02.05-.03.07-.04Z"/>
        <path class="cls-1" d="M163.18,165.27c-.22.04-.44.09-.66.13.22-.04.44-.08.66-.13Z"/>
        <path class="cls-1" d="M205.62,149.36c-.06.03-.12.07-.19.1.07-.04.12-.07.19-.1Z"/>
        <path class="cls-9" d="M115.82,119.14V54.58h0s0-.04,0-.07c0-.15.02-.29.03-.44,0-.14,0-.27.03-.4.02-.16.06-.31.09-.47.02-.13.04-.26.07-.38.04-.16.1-.31.15-.46.04-.12.07-.24.12-.36.06-.15.14-.3.21-.45.05-.11.1-.22.16-.33.08-.15.18-.28.27-.42.06-.1.12-.21.19-.3.1-.14.22-.27.33-.4.07-.09.14-.18.22-.26.13-.14.28-.27.42-.4.07-.06.14-.14.21-.2.22-.19.46-.36.71-.51.5-.32,1.04-.56,1.59-.73.28-.09.56-.16.84-.21.56-.1,1.14-.13,1.71-.09.86.06,1.72.29,2.52.68l5.96,2.94c-.19.65-.36,1.3-.5,1.96-.04.2-.08.4-.12.6-.1.47-.18.95-.26,1.42-.03.21-.07.42-.1.63-.07.53-.13,1.07-.17,1.6-.01.13-.03.26-.04.39-.05.66-.07,1.32-.07,1.98,0,.16,0,.32,0,.48,0,.53.03,1.07.06,1.6.01.21.03.41.04.62.05.56.11,1.13.19,1.68.02.12.03.24.05.36.1.67.23,1.34.38,2,.04.18.08.35.13.52.12.5.25,1.01.4,1.5.06.2.12.4.18.59.18.58.38,1.15.6,1.72.03.07.05.15.08.22.25.64.52,1.26.82,1.88.08.18.17.35.26.52.23.46.47.92.72,1.38.1.18.2.36.3.53.35.6.71,1.18,1.1,1.76,0,0,0,0,0,0,3.61,5.1,8.78,9.02,14.53,12.01,1.44.75,2.91,1.44,4.4,2.08,2.99,1.28,6.06,2.35,9.1,3.24,2.28.67,4.53,1.24,6.71,1.72,2.91.64,5.69,1.14,8.22,1.52,6.96,1.04,12.01,1.2,12.64,1.2.27,0,.55-.03.81-.08.32-.06.64-.15.94-.28.07-.03.13-.08.19-.11l-15.47-9.97-4.24,5.51,1.64-7.18-24.9-16.05c-.37-.24-.58-.65-.58-1.06,0-.23.07-.47.2-.68.38-.59,1.16-.76,1.75-.38l43.35,27.94c.08-.21.15-.43.2-.65,0-.04.02-.08.03-.13.05-.27.06-.54.05-.81,0-.05,0-.11-.01-.16-.02-.27-.06-.55-.14-.82h.16s0-.08-.02-.14c-.03-.21-.11-.59-.23-1.11-.08-.35-.18-.76-.29-1.23-.23-.93-.52-2.09-.86-3.39-.17-.65-.35-1.34-.54-2.06s-.39-1.46-.6-2.23c-.31-1.15-.64-2.34-.97-3.55-.67-2.42-1.38-4.9-2.07-7.2-.34-1.15-.68-2.26-1.01-3.3-.22-.69-.43-1.35-.63-1.97-.41-1.23-.78-2.3-1.11-3.14-.24-.62-.49-1.23-.76-1.83-.54-1.2-1.14-2.38-1.8-3.52-1.65-2.85-3.66-5.48-5.99-7.82-.47-.47-.94-.92-1.43-1.37-.98-.88-2-1.72-3.06-2.49-.53-.39-1.07-.76-1.62-1.12-2.2-1.44-4.55-2.66-7.01-3.62-.79-.24-1.58-.44-2.37-.63.65,1.9.54,3.96-.32,5.79-.88,1.87-2.44,3.28-4.38,3.98-1.94.7-4.04.6-5.91-.28-1.87-.88-3.28-2.43-3.98-4.37-.31-.86-.46-1.74-.46-2.62,0-1.12.25-2.24.74-3.29.01-.03.03-.06.05-.09-.48.05-.96.11-1.45.18-1.2.18-2.39.41-3.58.69s-2.36.62-3.52,1c-1.16.39-2.31.83-3.44,1.32l-7.23-3.57c-2.58-1.27-5.43-1.74-8.2-1.42-.92.11-1.84.3-2.73.58-1.19.37-2.34.9-3.43,1.58-.27.17-.53.35-.79.53-.08.06-.15.12-.23.18-.17.13-.35.26-.52.4-.1.08-.19.17-.28.25-.14.12-.29.24-.42.37-.1.09-.19.19-.29.29-.13.12-.25.25-.37.37-.1.1-.19.21-.28.32-.11.13-.23.25-.34.38-.09.11-.18.23-.27.34-.1.13-.21.26-.3.39-.09.12-.17.25-.26.38-.09.13-.18.26-.27.39-.08.13-.16.26-.23.39-.08.13-.16.27-.24.4-.07.13-.14.27-.21.4-.07.14-.15.28-.21.42-.06.13-.12.27-.18.41-.06.15-.13.29-.19.44-.05.14-.1.28-.15.42-.06.15-.11.3-.16.46-.05.14-.08.29-.13.43-.05.15-.09.31-.13.46-.04.14-.07.29-.1.44-.04.16-.08.32-.11.48-.03.15-.05.29-.07.44-.03.16-.06.32-.08.49-.02.15-.03.3-.04.45-.02.17-.03.33-.05.5,0,.15-.01.3-.01.45,0,.18-.02.36-.01.54h0v17.72s.06-.09.08-.14h5.8c0,.63.16,1.35.32,2.07-1.57,2.33-3.72,4.31-6.2,5.65v20.02h0v27.61c2.1-3.18,4.71-5.97,7.7-8.29Z"/>
        <polygon class="cls-9" points="113.83 155.16 113.84 155.16 113.83 155.16 113.83 155.16"/>
        <path class="cls-9" d="M115.46,156.62c.09.08.19.16.28.23h0c-.09-.08-.19-.16-.28-.23Z"/>
        <rect class="cls-14" x="105.75" y="167.06" width="0" height="11.47" transform="translate(-4.96 3.14) rotate(-1.66)"/>
        <path class="cls-14" d="M115.74,156.85c.09.07.18.14.26.21-.09-.07-.18-.14-.26-.21h0Z"/>
        <path class="cls-14" d="M117.79,158.45c-.21-.16-.43-.31-.64-.48.21.16.43.32.64.48Z"/>
        <path class="cls-14" d="M108.11,127.44v-27.61h0v-20.02c-.81.44-1.66.8-2.53,1.09v18.93s0,32.14,0,32.14c.4-.85.82-1.7,1.29-2.52.39-.69.8-1.36,1.24-2.01Z"/>
        <path class="cls-14" d="M105.96,138.91c-.15.58-.26,1.17-.38,1.76h0c.11-.59.23-1.18.38-1.76Z"/>
        <path class="cls-14" d="M117.46,188.44v22.88h.81v-49.27c-.53-.35-1.06-.7-1.58-1.07l.77,27.46Z"/>
        <path class="cls-14" d="M162.82,42.32s.02.08.04.12c.79.19,1.59.39,2.37.63,2.46.96,4.81,2.18,7.01,3.62.55.36,1.09.73,1.62,1.12,1.06.78,2.08,1.61,3.06,2.49.49.44.97.9,1.43,1.37,2.33,2.34,4.35,4.97,5.99,7.82.66,1.14,1.26,2.31,1.8,3.52.27.6.52,1.21.76,1.83.33.83.7,1.9,1.11,3.14.2.62.42,1.27.63,1.97.33,1.04.66,2.14,1.01,3.3.69,2.3,1.4,4.78,2.07,7.2.34,1.21.66,2.4.97,3.55.21.77.41,1.51.6,2.23s.37,1.41.54,2.06c.34,1.3.63,2.46.86,3.39.11.47.21.88.29,1.23.12.52.2.9.23,1.11.01.07.02.12.02.15h0s-.16,0-.16,0c.08.27.12.54.14.82,0,.05,0,.11.01.16,0,.04,0,.09,0,.13,0,.23-.02.45-.06.68,0,.04-.02.08-.03.13-.05.22-.11.44-.2.65l.46.3c.59.38.75,1.16.38,1.74-.38.59-1.16.76-1.75.38l-.83-.54c-.07.03-.13.08-.19.11-.3.13-.61.22-.94.28-.27.05-.54.08-.81.08-.63,0-5.69-.16-12.64-1.2-2.53-.38-5.31-.87-8.22-1.52-2.18-.48-4.44-1.05-6.71-1.72-3.03-.89-6.11-1.96-9.1-3.24-1.49-.64-2.97-1.33-4.4-2.08-5.75-3-10.92-6.91-14.53-12.01,0,0,0,0,0,0-.39-.57-.75-1.16-1.1-1.76-.1-.18-.2-.35-.3-.53-.25-.45-.49-.91-.72-1.38-.09-.17-.18-.35-.26-.52-.29-.62-.57-1.25-.82-1.88-.03-.07-.05-.15-.08-.22-.22-.57-.42-1.14-.6-1.72-.06-.2-.12-.39-.18-.59-.15-.5-.28-1-.4-1.5-.04-.17-.09-.35-.13-.52-.15-.66-.27-1.33-.38-2-.02-.12-.03-.24-.05-.36-.08-.56-.14-1.12-.19-1.68-.02-.21-.03-.41-.04-.62-.03-.53-.05-1.07-.06-1.6,0-.12-.01-.23-.01-.35,0-.04,0-.09,0-.13,0-.66.03-1.32.07-1.98,0-.13.03-.26.04-.39.04-.54.1-1.07.17-1.6.03-.21.06-.42.1-.63.07-.48.16-.95.26-1.42.04-.2.08-.4.12-.6.15-.66.31-1.31.5-1.96l-5.96-2.94c-.8-.39-1.66-.62-2.52-.68-.57-.04-1.14-.01-1.71.09-.28.05-.56.12-.84.21-.55.17-1.09.42-1.59.73-.25.16-.49.33-.71.51-.08.06-.14.13-.21.2-.14.13-.29.26-.42.4-.08.08-.14.18-.22.26-.11.13-.23.26-.33.4-.07.1-.13.2-.19.3-.09.14-.19.28-.27.42-.06.11-.1.22-.16.33-.07.15-.15.29-.21.45-.05.12-.08.24-.12.36-.05.15-.11.3-.15.46-.03.13-.05.26-.07.38-.03.16-.07.31-.09.47-.02.13-.02.27-.03.4-.01.17-.03.33-.03.5v64.56c.82-.63,1.65-1.23,2.52-1.79v-62.77s0,0,0,0c0-1.56.75-2.92,2.01-3.71,1.26-.79,2.86-.87,4.2-.22l4.11,2.03c-.55,2.41-.83,4.88-.83,7.36,0,6.69,1.99,13.15,5.76,18.68,15.5,21.89,57.28,22.87,57.69,22.87,1.94.02,3.8-.82,5.09-2.3l.06-.07.05-.07c.54-.72.92-1.54,1.13-2.41h.17s0-2.59,0-2.59c0-1.86-6.24-24.43-8.52-30.24-2.04-5.28-5.11-10-9.12-14.02-4.01-4.02-8.72-7.11-14-9.17l-.09-.04-.1-.03c-1.63-.49-3.28-.88-4.95-1.18.8.8,1.42,1.76,1.81,2.85Z"/>
        <path class="cls-14" d="M108.11,54.51s0-.06,0-.08c0-.15,0-.3.01-.46,0-.15,0-.3.01-.45.01-.17.03-.33.05-.5.01-.15.02-.3.04-.45.02-.16.05-.33.08-.49.02-.15.04-.29.07-.44.03-.16.07-.32.11-.48.03-.15.06-.29.1-.44.04-.16.09-.31.13-.46.04-.14.08-.29.13-.43.05-.15.11-.3.16-.46.05-.14.1-.28.15-.42.06-.15.13-.3.19-.44.06-.14.11-.27.18-.41.07-.14.14-.28.21-.42.07-.13.13-.27.21-.4.08-.14.16-.27.24-.4.08-.13.15-.26.23-.39.08-.13.18-.26.27-.39.09-.13.17-.25.26-.38.1-.13.2-.26.3-.39.09-.11.17-.23.27-.34.11-.13.22-.26.34-.38.09-.1.18-.21.28-.32.12-.13.25-.25.37-.37.1-.1.19-.19.29-.29.14-.13.28-.25.42-.37.1-.08.19-.17.28-.25.17-.14.34-.27.52-.4.08-.06.15-.12.23-.18.26-.18.52-.36.79-.53,1.08-.68,2.24-1.21,3.43-1.58.89-.28,1.81-.47,2.73-.58,2.77-.32,5.62.15,8.2,1.42l7.23,3.57c1.13-.49,2.28-.93,3.44-1.32,1.16-.39,2.33-.72,3.52-1,1.18-.28,2.38-.51,3.58-.69.48-.07.96-.13,1.45-.18.53-1.1,1.3-2.01,2.2-2.71-4.81.26-9.57,1.3-14.09,3.12l-6.2-3.06c-5.42-2.66-11.71-2.34-16.82.87-5.08,3.18-8.11,8.66-8.11,14.66v21.52c.93-1.19,1.78-2.43,2.53-3.71v-17.72Z"/>
        <rect class="cls-14" x="106.22" y="190.12" height="21.21" transform="translate(-.24 .13) rotate(-.07)"/>
        <path class="cls-14" d="M188.65,69.93c.33,1.04.66,2.14,1.01,3.3-.34-1.15-.68-2.26-1.01-3.3Z"/>
        <path class="cls-14" d="M108.13,53.97c0-.15,0-.3.01-.45,0,.15-.01.3-.01.45Z"/>
        <path class="cls-14" d="M117.45,50.11c-.11.13-.23.26-.33.4.1-.14.22-.27.33-.4Z"/>
        <path class="cls-14" d="M189.66,73.23c.69,2.3,1.4,4.78,2.07,7.2-.67-2.42-1.38-4.9-2.07-7.2Z"/>
        <path class="cls-14" d="M108.18,53.02c.01-.15.02-.3.04-.45-.02.15-.03.3-.04.45Z"/>
        <path class="cls-14" d="M130.74,55.3c.07-.48.16-.95.26-1.42-.1.47-.18.95-.26,1.42Z"/>
        <path class="cls-14" d="M131.12,53.28c.15-.66.31-1.31.5-1.96-.19.65-.36,1.3-.5,1.96Z"/>
        <path class="cls-14" d="M119.01,48.73c-.25.16-.49.33-.71.51.22-.19.46-.36.71-.51Z"/>
        <path class="cls-14" d="M116.93,50.81c-.09.14-.19.28-.27.42.08-.15.18-.28.27-.42Z"/>
        <path class="cls-14" d="M120.6,48c-.55.17-1.09.42-1.59.73.5-.32,1.04-.56,1.59-.73Z"/>
        <path class="cls-14" d="M111.85,44.61c.09-.1.18-.21.28-.32-.1.1-.19.21-.28.32Z"/>
        <path class="cls-14" d="M115.96,53.21c-.03.16-.07.31-.09.47.02-.16.06-.31.09-.47Z"/>
        <path class="cls-14" d="M114.01,42.62c.08-.06.15-.12.23-.18-.08.06-.15.12-.23.18Z"/>
        <path class="cls-14" d="M112.5,43.92c.1-.1.19-.19.29-.29-.1.09-.19.19-.29.29Z"/>
        <path class="cls-14" d="M113.21,43.26c.1-.08.19-.17.28-.25-.1.08-.19.17-.28.25Z"/>
        <path class="cls-14" d="M188.02,67.97c.2.62.42,1.27.63,1.97-.22-.69-.43-1.35-.63-1.97Z"/>
        <path class="cls-14" d="M111.25,45.33c.09-.11.17-.23.27-.34-.09.11-.18.23-.27.34Z"/>
        <path class="cls-14" d="M116.5,51.56c-.07.15-.15.29-.21.45.06-.15.14-.3.21-.45Z"/>
        <path class="cls-14" d="M140.06,43.42c1.16-.39,2.33-.72,3.52-1-1.18.28-2.36.62-3.52,1Z"/>
        <path class="cls-14" d="M116.18,52.36c-.05.15-.11.3-.15.46.04-.16.1-.31.15-.46Z"/>
        <path class="cls-14" d="M173.86,47.81c1.06.78,2.08,1.61,3.06,2.49-.98-.88-2-1.72-3.06-2.49Z"/>
        <path class="cls-14" d="M133.28,73.1c-.29-.62-.57-1.25-.82-1.88.25.64.52,1.26.82,1.88Z"/>
        <path class="cls-14" d="M170.42,96.35c-2.18-.48-4.44-1.05-6.71-1.72,2.28.67,4.53,1.24,6.71,1.72Z"/>
        <path class="cls-14" d="M109.35,48.52c.06-.14.11-.27.18-.41-.06.13-.12.27-.18.41Z"/>
        <path class="cls-14" d="M163.71,94.63c-3.03-.89-6.11-1.96-9.1-3.24,2.99,1.28,6.06,2.35,9.1,3.24Z"/>
        <path class="cls-14" d="M135.67,77.29c-.39-.57-.75-1.16-1.1-1.76.35.6.71,1.18,1.1,1.76Z"/>
        <path class="cls-14" d="M109.01,49.38c.05-.14.1-.28.15-.42-.05.14-.1.28-.15.42Z"/>
        <path class="cls-14" d="M154.61,91.4c-1.49-.64-2.97-1.33-4.4-2.08,1.44.75,2.91,1.44,4.4,2.08Z"/>
        <path class="cls-14" d="M178.64,97.87c-2.53-.38-5.31-.87-8.22-1.52,2.91.64,5.69,1.14,8.22,1.52Z"/>
        <path class="cls-14" d="M195.19,95.93s-.02.08-.03.13c0-.04.02-.08.03-.13Z"/>
        <path class="cls-14" d="M110.19,46.88c.08-.13.15-.26.23-.39-.08.13-.16.26-.23.39Z"/>
        <path class="cls-14" d="M193.3,86.21c.19.72.37,1.41.54,2.06-.17-.65-.35-1.34-.54-2.06Z"/>
        <path class="cls-14" d="M109.74,47.69c.07-.13.13-.27.21-.4-.07.13-.14.27-.21.4Z"/>
        <path class="cls-14" d="M195.23,94.96c0,.05,0,.11.01.16,0-.05,0-.11-.01-.16Z"/>
        <path class="cls-14" d="M191.73,80.43c.34,1.21.66,2.4.97,3.55-.31-1.15-.64-2.34-.97-3.55Z"/>
        <path class="cls-14" d="M130.66,64.3c-.08-.56-.14-1.12-.19-1.68.05.56.11,1.12.19,1.68Z"/>
        <path class="cls-14" d="M131.09,66.66c-.15-.66-.27-1.33-.38-2,.1.67.23,1.34.38,2Z"/>
        <path class="cls-14" d="M130.43,62c-.03-.53-.05-1.07-.06-1.6,0,.53.03,1.07.06,1.6Z"/>
        <path class="cls-14" d="M130.47,57.54c.04-.54.1-1.07.17-1.6-.07.53-.13,1.07-.17,1.6Z"/>
        <path class="cls-14" d="M131.61,68.69c-.15-.5-.28-1-.4-1.5.12.5.25,1.01.4,1.5Z"/>
        <path class="cls-14" d="M130.36,59.91c0-.66.03-1.32.07-1.98-.05.66-.07,1.32-.07,1.98Z"/>
        <path class="cls-14" d="M108.48,51.17c.03-.15.06-.29.1-.44-.04.14-.07.29-.1.44Z"/>
        <path class="cls-14" d="M110.69,46.1c.09-.12.17-.25.26-.38-.09.12-.17.25-.26.38Z"/>
        <path class="cls-14" d="M108.71,50.27c.04-.14.08-.29.13-.43-.05.14-.08.29-.13.43Z"/>
        <path class="cls-14" d="M134.27,75c-.25-.45-.49-.91-.72-1.38.23.46.47.92.72,1.38Z"/>
        <path class="cls-14" d="M132.39,71c-.22-.57-.42-1.14-.6-1.72.18.58.38,1.15.6,1.72Z"/>
        <path class="cls-14" d="M108.3,52.09c.02-.15.04-.29.07-.44-.03.15-.05.29-.07.44Z"/>
        <polygon class="cls-14" points="195.25 94.15 195.25 94.15 195.09 94.14 195.25 94.15"/>
        <path class="cls-14" d="M129.4,41.16l7.23,3.57c1.13-.49,2.28-.93,3.44-1.32-1.16.39-2.31.83-3.44,1.32l-7.23-3.57c-2.58-1.27-5.43-1.73-8.2-1.42,2.77-.32,5.62.15,8.2,1.42Z"/>
        <path class="cls-14" d="M178.64,97.87c6.96,1.04,12.01,1.2,12.64,1.2.27,0,.55-.03.81-.08-.27.05-.54.08-.81.08-.63,0-5.69-.16-12.64-1.2Z"/>
        <path class="cls-14" d="M115.82,54.58h0c0-.17.02-.34.03-.5,0,.15-.03.29-.03.44,0,.02,0,.04,0,.07Z"/>
        <path class="cls-14" d="M121.44,47.79c.56-.1,1.14-.13,1.71-.09-.57-.04-1.14-.01-1.71.09Z"/>
        <path class="cls-14" d="M117.67,49.84c.13-.14.28-.27.42-.4-.14.13-.29.26-.42.4Z"/>
        <path class="cls-14" d="M194.87,96.92c-.12.25-.25.49-.41.71.17-.22.3-.46.41-.71Z"/>
        <path class="cls-14" d="M194.96,96.72s0,0,0-.01h0s0,0,0,.01Z"/>
        <path class="cls-14" d="M194.87,96.92c.03-.07.06-.13.09-.2,0,0,0-.01,0-.01l-43.35-27.94c-.59-.38-1.37-.21-1.75.38-.14.21-.2.45-.2.68,0,.41.2.82.58,1.06l24.9,16.05.41-1.81,3.58,1.69-1.39,1.8,15.47,9.97c.46-.24.89-.55,1.24-.95.17-.22.3-.46.41-.71Z"/>
        <path class="cls-14" d="M194.87,96.92c-.12.25-.25.49-.41.71-.35.4-.77.71-1.24.95l.83.54c.59.38,1.37.21,1.75-.38.37-.58.21-1.37-.38-1.74l-.46-.3s0,0,0,.01c-.03.07-.05.13-.09.2Z"/>
        <path class="cls-14" d="M194.96,96.72c-.03.07-.05.14-.09.2.03-.07.06-.13.09-.2Z"/>
        <polygon class="cls-14" points="173.5 94.12 177.75 88.62 175.15 86.94 173.5 94.12"/>
        <polygon class="cls-14" points="175.56 85.13 175.15 86.94 177.75 88.62 179.14 86.81 175.56 85.13"/>
        <path class="cls-7" d="M159.68,41.8s0,0,0,0c-2.6-.41-5.23-.57-7.84-.48h0c2.62-.09,5.24.07,7.84.48Z"/>
        <path class="cls-7" d="M151.83,41.32c-.39.4-.74.86-.99,1.39-.59,1.26-.66,2.67-.19,3.98.47,1.31,1.42,2.35,2.68,2.95,1.26.59,2.67.66,3.98.19,1.31-.47,2.35-1.42,2.95-2.68.33-.71.5-1.46.5-2.21,0-.59-.1-1.19-.31-1.76-.18-.5-.45-.95-.77-1.37-2.6-.41-5.23-.57-7.84-.48Z"/>
        <path class="cls-7" d="M159.68,41.8c-.5-.66-1.14-1.21-1.91-1.58-2.06-.97-4.43-.45-5.93,1.1,2.62-.09,5.24.07,7.84.48Z"/>
        <path class="cls-14" d="M150.13,41.41h0c-.51.04-1.02.08-1.53.14h0c.51-.06,1.02-.1,1.53-.14Z"/>
        <path class="cls-14" d="M153.59,38.78c1.48-.47,3.14-.42,4.66.29.92.11,1.84.24,2.75.41-.62-.62-1.35-1.14-2.17-1.53-2.72-1.28-5.81-.83-8.03.9.93-.05,1.85-.07,2.78-.06Z"/>
        <path class="cls-14" d="M162.86,42.44h0c-.5-.12-1-.23-1.5-.33h0c.5.1,1,.21,1.5.33Z"/>
        <path class="cls-14" d="M161.4,47.69c-1.52,3.23-5.37,4.61-8.6,3.09s-4.61-5.37-3.09-8.6c.13-.27.27-.52.43-.76-.51.04-1.02.08-1.53.14-.01.03-.03.06-.05.09-.49,1.05-.74,2.16-.74,3.29,0,.88.15,1.76.46,2.62.7,1.94,2.11,3.49,3.98,4.37,1.87.88,3.96.98,5.91.28,1.94-.7,3.5-2.11,4.38-3.98.86-1.83.97-3.88.32-5.79-.5-.12-1-.23-1.5-.33.82,1.7.9,3.74.04,5.58Z"/>
        <path class="cls-14" d="M158.31,39.08c1.39.65,2.43,1.74,3.05,3.02.5.1,1,.21,1.5.33-.01-.04-.02-.08-.04-.12-.39-1.09-1.02-2.05-1.81-2.85-.91-.16-1.83-.3-2.75-.41.02,0,.03.01.05.02Z"/>
        <path class="cls-14" d="M148.61,41.55c.51-.06,1.02-.1,1.53-.14.83-1.29,2.07-2.19,3.46-2.63-.93,0-1.86.01-2.78.06-.91.7-1.67,1.61-2.2,2.71Z"/>
        <path class="cls-14" d="M151.83,41.32c-.33.01-.66.02-.99.04.33-.02.66-.03.99-.04h0Z"/>
        <path class="cls-14" d="M150.63,41.37c-.17.01-.33.03-.5.04h0c.17-.01.33-.03.5-.04Z"/>
        <path class="cls-14" d="M153.59,38.78c1.56.01,3.11.11,4.66.29-1.52-.7-3.18-.76-4.66-.29Z"/>
        <path class="cls-14" d="M159.68,41.8c.56.09,1.12.19,1.68.3h0c-.56-.11-1.12-.21-1.68-.3,0,0,0,0,0,0Z"/>
        <path class="cls-14" d="M152.79,50.78c3.23,1.52,7.08.14,8.6-3.09.87-1.84.79-3.88-.04-5.58-.56-.11-1.12-.21-1.68-.3.31.42.59.87.77,1.37.21.57.31,1.17.31,1.76,0,.76-.17,1.51-.5,2.21-.59,1.26-1.64,2.21-2.95,2.68-1.31.47-2.72.4-3.98-.19-1.26-.59-2.21-1.64-2.68-2.95-.47-1.31-.4-2.72.19-3.98.25-.53.6-.99.99-1.39-.33.01-.66.02-.99.04-.07,0-.14,0-.21.01-.17.01-.33.03-.5.04-.16.24-.31.49-.43.76-1.52,3.23-.14,7.08,3.09,8.6Z"/>
        <path class="cls-14" d="M150.85,41.36c.33-.02.66-.03.99-.04,1.51-1.55,3.87-2.07,5.93-1.1.77.36,1.41.91,1.91,1.58.56.09,1.12.19,1.68.3-.62-1.28-1.67-2.37-3.05-3.02-.02,0-.03-.01-.05-.02-1.55-.18-3.11-.27-4.66-.29-1.39.44-2.63,1.35-3.46,2.63.17-.01.33-.03.5-.04.07,0,.14-.01.21-.01Z"/>
        <path class="cls-14" d="M150.63,41.37c.07,0,.14-.01.21-.01-.07,0-.14,0-.21.01Z"/>
        <path class="cls-9" d="M100.17,81.62h0c1.86.13,3.68-.14,5.41-.72v-4.96c-1.62,2.07-3.47,3.99-5.41,5.68Z"/>
        <path class="cls-9" d="M114.31,74.16c-.16-.72-.32-1.43-.32-2.07h-5.8s-.06.09-.08.14v7.58c2.48-1.34,4.63-3.32,6.2-5.65Z"/>
        <path class="cls-9" d="M108.11,72.23c-.75,1.28-1.6,2.52-2.53,3.71v4.96c.87-.29,1.72-.66,2.53-1.09v-7.58Z"/>
        <path class="cls-9" d="M147.07,123.68c-4.54,0-8.24-3.69-8.24-8.24,0-1.07.21-2.09.58-3.03-.85.12-1.69.25-2.53.42-.13.02-.25.05-.38.08-.95.19-1.88.41-2.82.66-.11.03-.22.06-.33.09-.94.26-1.88.54-2.81.85-.09.03-.18.06-.28.1-.94.32-1.88.67-2.8,1.05-.07.03-.13.06-.2.09-.95.39-1.88.82-2.81,1.27-.04.02-.07.04-.11.05-.95.47-1.89.97-2.81,1.5-1.11.62-2.17,1.31-3.2,2.05v3.98c0,.24-.04.44-.07.6v9.1c3.44.02,7.47-.15,12.38-.51-2.61,3.1-6.89,5.92-12.38,7.29v17.7c.21.15.42.3.64.45.22.15.44.3.66.45.39.25.78.5,1.17.73.21.13.41.25.62.38.47.27.95.53,1.43.79.13.07.26.15.39.21.62.32,1.24.62,1.87.9.15.07.3.13.46.2.48.21.96.42,1.45.61.22.09.45.17.67.25.42.16.85.31,1.28.46.24.08.48.16.73.24.42.14.85.27,1.28.39.24.07.47.14.71.21.47.13.94.25,1.42.36.19.05.39.1.58.14.67.15,1.34.3,2.02.43.05,0,.09.02.14.02.63.12,1.26.22,1.9.32.22.03.44.06.67.09.47.06.93.12,1.4.18.26.03.51.05.77.08.44.04.88.08,1.33.12.26.02.52.04.79.06.46.03.91.05,1.37.07.24.01.48.02.72.03.56.02,1.13.03,1.69.03.13,0,.26,0,.39,0,.79,0,1.59-.02,2.39-.04.22,0,.43-.02.65-.03.63-.03,1.27-.06,1.9-.1.19-.01.38-.02.57-.04.79-.06,1.58-.13,2.37-.21.16-.02.33-.04.49-.05.65-.07,1.3-.15,1.95-.23.22-.03.44-.06.67-.09.76-.1,1.51-.22,2.27-.34.04,0,.08-.01.11-.02.79-.13,1.58-.27,2.36-.42.22-.04.44-.08.66-.13.62-.12,1.25-.25,1.87-.38.18-.04.35-.07.53-.11.77-.17,1.53-.34,2.29-.53.18-.04.35-.09.53-.13.61-.15,1.22-.3,1.82-.46.21-.06.43-.11.64-.17.75-.2,1.49-.4,2.23-.61.04-.01.09-.03.13-.04.7-.2,1.4-.41,2.09-.62.21-.07.43-.13.64-.2.58-.18,1.16-.36,1.74-.55.15-.05.31-.1.46-.15.7-.23,1.4-.47,2.08-.7.18-.06.35-.12.53-.19.54-.19,1.07-.38,1.6-.57.19-.07.38-.14.57-.21.66-.24,1.32-.49,1.96-.73.09-.04.18-.07.28-.11.57-.22,1.13-.44,1.68-.66.19-.07.38-.15.56-.22.52-.21,1.03-.42,1.54-.62.11-.05.23-.09.34-.14.6-.25,1.19-.5,1.77-.75.16-.07.32-.14.47-.2.45-.19.89-.38,1.32-.57.15-.07.31-.14.46-.2.54-.24,1.08-.48,1.6-.72.09-.04.18-.08.27-.13.44-.2.87-.4,1.29-.6.15-.07.29-.14.44-.21.42-.2.83-.39,1.23-.59.07-.03.14-.07.21-.1.46-.22.9-.44,1.33-.65.12-.06.24-.12.35-.18.33-.17.66-.33.97-.49.1-.05.21-.1.31-.16.39-.2.76-.39,1.12-.57.07-.03.13-.07.19-.1.3-.15.58-.3.86-.45.09-.05.18-.1.27-.14.29-.15.57-.3.82-.44.02-.01.05-.03.07-.04.28-.15.54-.29.79-.43.06-.04.13-.07.19-.1.19-.1.37-.2.53-.3.04-.02.08-.05.12-.07.19-.11.36-.2.52-.29.03-.02.06-.04.1-.05.12-.07.24-.13.33-.19.02-.01.05-.03.07-.04.09-.05.17-.1.22-.13.64-.38,1.16-.92,1.52-1.55.14-.24.24-.5.33-.77l-15.1-2.01-1.74,7.87-1.83-8.34-4.66-.62-1.82,8.3-1.94-8.8-27.95-3.71c-.74-.1-1.26-.78-1.16-1.51.1-.74.82-1.25,1.51-1.16l54.67,7.26c-.08-.24-.18-.48-.31-.7-.36-.63-.88-1.17-1.52-1.55l-34.73-21.6c-2.4-1.49-4.9-2.77-7.49-3.82-1.04-.42-2.09-.81-3.15-1.16-2.4-.79-4.85-1.4-7.34-1.82.32.88.51,1.83.51,2.83,0,4.54-3.7,8.24-8.24,8.24Z"/>
        <path class="cls-9" d="M105.59,167.07v-26.39c-.16.84-.3,1.69-.39,2.55-.16,1.45-.22,2.92-.17,4.4l.56,19.45Z"/>
        <path class="cls-9" d="M108.11,135.24v44.25l2.1,7.3c-.74.56-1.44,1.12-2.1,1.67v22.87h6.65v-22.88l-.93-33.29h0s0,0,0,0c.53.51,1.08.99,1.63,1.46.09.08.19.15.28.23v-15.25c-.16.02-.31.04-.48.05-1.95-2.52-4.32-4.7-7.15-6.41Z"/>
        <path class="cls-9" d="M110.18,133.75c1.68.26,3.51.42,5.56.5v-9.35c.01-.11.07-.22.07-.33v-1.92c-2.62,2.33-4.86,5.07-6.6,8.14-.4.7-.76,1.41-1.1,2.13v2.33c.73-.48,1.45-.96,2.07-1.49Z"/>
        <path class="cls-9" d="M108.11,188.46c-.66.55-1.29,1.1-1.9,1.66l.03,21.21h1.88v-22.87Z"/>
        <path class="cls-9" d="M118.27,141.08c-.53.13-1.05.27-1.6.37h0c-.29.06-.59.11-.92.15v15.25c.09.07.17.14.26.21.38.31.76.62,1.15.92.21.16.43.32.64.48.16.11.32.22.47.34v-17.7Z"/>
        <path class="cls-9" d="M115.74,124.9v9.35c.81.03,1.65.05,2.52.06v-9.1c.04-.16.07-.37.07-.6v-3.98c-.16.12-.33.22-.49.34-.7.53-1.38,1.1-2.03,1.68v1.92c0,.12-.06.22-.07.33Z"/>
        <path class="cls-9" d="M105.59,167.07l.33,11.47c.53-.37,1.08-.7,1.65-.92l.54,1.88v-44.25h0s0,0,0,0v-2.33c-.91,1.93-1.64,3.94-2.15,6-.15.58-.26,1.17-.38,1.76v26.39Z"/>
        <path class="cls-9" d="M130.65,133.8c-4.91.35-8.94.53-12.38.51v6.78c5.49-1.37,9.76-4.19,12.38-7.29Z"/>
        <path class="cls-9" d="M110.18,133.75c-.62.53-1.34,1.01-2.07,1.49h0c2.83,1.71,5.2,3.89,7.15,6.41.18,0,.33-.03.48-.05v-7.35c-2.05-.08-3.88-.25-5.56-.5Z"/>
        <path class="cls-9" d="M115.74,141.6c.33-.04.63-.09.92-.15h0c.55-.1,1.08-.24,1.6-.37v-6.78c-.88,0-1.72-.02-2.52-.06v7.35Z"/>
        <polygon class="cls-9" points="108.11 135.24 108.11 135.24 108.11 135.24 108.11 135.24"/>
        <path class="cls-14" d="M208.88,138.7l-34.68-21.57c-6.5-4.04-13.78-6.59-21.33-7.52.84.84,1.5,1.87,1.92,3,2.49.42,4.95,1.03,7.34,1.82,1.06.35,2.11.74,3.15,1.16,2.59,1.06,5.1,2.33,7.49,3.82l34.73,21.6c.64.38,1.16.92,1.52,1.55.13.22.23.46.31.7l.42.06c.74.1,1.26.78,1.16,1.51-.09.68-.67,1.17-1.33,1.17-.06,0-.12,0-.18-.01h-.05c-.09.26-.19.52-.33.76-.36.63-.88,1.17-1.52,1.55-.05.03-.13.08-.22.13-.02.01-.04.02-.07.04-.09.05-.2.12-.33.19-.03.02-.06.03-.1.05-.15.09-.32.18-.52.29-.04.02-.08.05-.12.07-.16.09-.34.19-.53.3-.06.03-.12.07-.19.1-.25.13-.5.28-.79.43-.02.01-.05.03-.07.04-.26.14-.54.29-.82.44-.09.05-.18.09-.27.14-.27.14-.56.29-.86.45-.07.03-.13.07-.19.1-.36.18-.73.38-1.12.57-.1.05-.2.1-.31.16-.31.16-.64.32-.97.49-.12.06-.23.12-.35.18-.43.21-.87.43-1.33.65-.07.03-.14.07-.21.1-.4.19-.81.39-1.23.59-.15.07-.29.14-.44.21-.42.2-.85.4-1.29.6-.09.04-.18.08-.27.13-.52.24-1.05.48-1.6.72-.15.07-.31.13-.46.2-.43.19-.87.38-1.32.57-.16.07-.31.14-.47.2-.58.25-1.17.5-1.77.75-.11.05-.23.09-.34.14-.51.21-1.02.42-1.54.62-.19.07-.37.15-.56.22-.55.22-1.11.44-1.68.66-.09.04-.18.07-.28.11-.65.25-1.3.49-1.96.73-.19.07-.38.14-.57.21-.53.19-1.06.38-1.6.57-.18.06-.35.12-.53.19-.69.24-1.38.47-2.08.7-.15.05-.31.1-.46.15-.57.19-1.15.37-1.74.55-.21.07-.42.13-.64.2-.69.21-1.39.42-2.09.62-.04.01-.09.03-.13.04-.74.21-1.48.42-2.23.61-.21.06-.43.11-.64.17-.6.16-1.21.31-1.82.46-.18.04-.35.09-.53.13-.76.18-1.52.36-2.29.53-.18.04-.35.07-.53.11-.62.13-1.24.26-1.87.38-.22.04-.44.09-.66.13-.78.15-1.57.29-2.36.42-.04,0-.08.01-.11.02-.75.12-1.51.23-2.27.34-.22.03-.44.06-.67.09-.65.09-1.3.16-1.95.23-.16.02-.33.04-.49.05-.79.08-1.58.15-2.37.21-.19.01-.38.02-.57.04-.63.04-1.27.08-1.9.1-.22,0-.43.02-.65.03-.8.03-1.59.04-2.39.04-.02,0-.03,0-.05,0-.11,0-.23,0-.34,0-.57,0-1.13-.01-1.69-.03-.24,0-.48-.02-.72-.03-.46-.02-.92-.04-1.37-.07-.26-.02-.52-.04-.79-.06-.44-.03-.89-.07-1.33-.12-.26-.03-.51-.05-.77-.08-.47-.05-.93-.11-1.4-.18-.22-.03-.44-.06-.67-.09-.64-.09-1.27-.2-1.9-.32-.05,0-.09-.02-.14-.02-.68-.13-1.35-.27-2.02-.43-.19-.04-.39-.1-.58-.14-.47-.12-.95-.24-1.42-.36-.24-.07-.47-.14-.71-.21-.43-.13-.85-.26-1.28-.39-.24-.08-.49-.16-.73-.24-.43-.15-.85-.3-1.28-.46-.22-.08-.45-.17-.67-.25-.49-.19-.97-.4-1.45-.61-.15-.07-.31-.13-.46-.2-.63-.28-1.25-.59-1.87-.9-.13-.07-.26-.14-.39-.21-.48-.25-.96-.51-1.43-.79-.21-.12-.42-.25-.62-.38-.39-.24-.78-.48-1.17-.73-.22-.15-.44-.29-.66-.45-.21-.14-.43-.28-.64-.43v3.25c7.83,5.06,17.37,7.61,28.48,7.61,27.66,0,56.54-15.84,62.05-19.01,2.17-1.29,3.47-3.57,3.47-6s-1.3-4.72-3.39-5.96Z"/>
        <path class="cls-14" d="M121.54,118.57c.92-.53,1.86-1.03,2.81-1.5.04-.02.07-.04.11-.05.92-.45,1.86-.87,2.81-1.27.07-.03.13-.06.2-.09.92-.38,1.86-.73,2.8-1.05.09-.03.18-.07.28-.1.93-.31,1.87-.59,2.81-.85.11-.03.22-.06.33-.09.93-.25,1.87-.46,2.82-.66.13-.03.25-.05.38-.08.84-.16,1.69-.31,2.54-.43.45-1.13,1.14-2.13,2.01-2.95-7.46.72-14.71,3.03-21.23,6.78-.63.35-1.25.73-1.85,1.12v3.27c1.02-.74,2.09-1.44,3.2-2.05Z"/>
        <path class="cls-14" d="M105.59,190.74c-.75.75-1.43,1.52-2.06,2.32l.02,18.27h2.04v-20.59Z"/>
        <path class="cls-14" d="M105.59,178.77v-11.7l-.56-19.45c-.04-1.47.02-2.94.17-4.4.09-.86.23-1.7.39-2.55v-8.7c-2.28,4.91-3.41,10.28-3.26,15.72l.97,33.54c.67-.96,1.43-1.81,2.28-2.47Z"/>
        <path class="cls-14" d="M115.82,122.64v-3.5c-2.99,2.32-5.6,5.11-7.7,8.29v5.48c.34-.72.71-1.44,1.1-2.13,1.75-3.07,3.99-5.81,6.6-8.14Z"/>
        <path class="cls-14" d="M113.84,155.16s0,0,0,0l.93,33.29v22.88h.98v-54.47c-.09-.08-.19-.16-.28-.23-.55-.47-1.09-.95-1.63-1.46Z"/>
        <path class="cls-14" d="M105.59,167.07v11.7c.11-.08.22-.16.33-.23l-.33-11.47Z"/>
        <path class="cls-14" d="M115.82,122.64c.66-.58,1.33-1.15,2.03-1.68.16-.12.33-.23.49-.34v-3.27c-.87.56-1.71,1.16-2.52,1.79v3.5Z"/>
        <path class="cls-14" d="M106.21,190.12s-.07.06-.11.1c-.18.17-.34.35-.52.52v20.59h.65l-.03-21.21Z"/>
        <path class="cls-14" d="M117.79,158.45c-.21-.16-.43-.31-.64-.48-.39-.3-.77-.6-1.15-.92-.09-.07-.18-.14-.26-.21v54.47h1.71v-22.88l-.77-27.46c.52.37,1.05.72,1.58,1.07v-3.25c-.16-.11-.32-.24-.47-.35Z"/>
        <path class="cls-14" d="M105.96,138.91c.51-2.06,1.24-4.07,2.15-6v-5.48c-.43.66-.85,1.33-1.24,2.01-.47.82-.89,1.67-1.29,2.52v8.7c.11-.59.23-1.18.38-1.76Z"/>
        <path class="cls-14" d="M141.83,166.79c-.44-.03-.89-.07-1.33-.12.44.04.88.08,1.33.12Z"/>
        <path class="cls-14" d="M162.52,165.4c-.78.15-1.57.29-2.36.42.79-.13,1.58-.27,2.36-.42Z"/>
        <path class="cls-14" d="M170.21,163.66c-.6.16-1.21.31-1.82.46.61-.15,1.22-.3,1.82-.46Z"/>
        <path class="cls-14" d="M143.99,166.92c-.46-.02-.92-.04-1.37-.07.46.03.91.05,1.37.07Z"/>
        <path class="cls-14" d="M146.41,166.97c-.57,0-1.13-.01-1.69-.03.56.02,1.13.03,1.69.03Z"/>
        <path class="cls-14" d="M202.43,151.06c-.36.18-.73.38-1.12.57.39-.2.76-.39,1.12-.57Z"/>
        <path class="cls-14" d="M149.18,166.93c-.8.03-1.59.04-2.39.04.79,0,1.59-.02,2.39-.04Z"/>
        <path class="cls-14" d="M167.87,164.25c-.76.18-1.52.36-2.29.53.77-.17,1.53-.34,2.29-.53Z"/>
        <path class="cls-14" d="M133.03,165.42c-.47-.12-.95-.24-1.42-.36.47.13.94.25,1.42.36Z"/>
        <path class="cls-14" d="M206.15,149.06c-.16.09-.34.19-.53.3.19-.11.37-.2.53-.3Z"/>
        <path class="cls-14" d="M207.21,148.46c-.09.05-.21.12-.33.19.13-.07.24-.13.33-.19Z"/>
        <path class="cls-14" d="M130.91,164.85c-.43-.13-.85-.26-1.28-.39.42.14.85.27,1.28.39Z"/>
        <path class="cls-14" d="M180.21,160.62c-.69.24-1.38.47-2.08.7.7-.23,1.4-.47,2.08-.7Z"/>
        <path class="cls-14" d="M177.67,161.47c-.57.19-1.15.37-1.74.55.58-.18,1.16-.36,1.74-.55Z"/>
        <path class="cls-14" d="M203.48,150.51c-.27.14-.56.29-.86.45.3-.15.58-.3.86-.45Z"/>
        <path class="cls-14" d="M206.79,148.71c-.15.09-.32.18-.52.29.19-.11.36-.2.52-.29Z"/>
        <path class="cls-14" d="M118.27,158.8c.21.15.42.29.64.43-.21-.15-.42-.3-.64-.45v.02Z"/>
        <path class="cls-14" d="M204.57,149.93c-.26.14-.54.29-.82.44.29-.15.57-.3.82-.44Z"/>
        <path class="cls-14" d="M205.43,149.46c-.24.13-.5.28-.79.43.28-.15.54-.29.79-.43Z"/>
        <path class="cls-14" d="M151.73,166.8c-.63.04-1.27.08-1.9.1.63-.03,1.27-.06,1.9-.1Z"/>
        <path class="cls-14" d="M137.67,166.33c-.64-.09-1.27-.2-1.9-.32.63.12,1.26.22,1.9.32Z"/>
        <path class="cls-14" d="M207.51,148.29c-.05.03-.13.08-.22.13.09-.05.17-.1.22-.13Z"/>
        <path class="cls-14" d="M162.14,114.43c1.06.35,2.11.74,3.15,1.16-1.04-.42-2.09-.81-3.15-1.16Z"/>
        <path class="cls-14" d="M207.51,141.01l-34.73-21.6c-2.4-1.49-4.9-2.77-7.49-3.82,2.59,1.06,5.1,2.33,7.49,3.82l34.73,21.6Z"/>
        <path class="cls-14" d="M191.04,156.43c-.58.25-1.17.5-1.77.75.6-.25,1.19-.5,1.77-.75Z"/>
        <path class="cls-14" d="M157.12,166.26c-.65.09-1.3.16-1.95.23.65-.07,1.3-.15,1.95-.23Z"/>
        <path class="cls-14" d="M192.83,155.65c-.43.19-.87.38-1.32.57.45-.19.89-.38,1.32-.57Z"/>
        <path class="cls-14" d="M124.46,117.01c.92-.45,1.86-.87,2.81-1.27-.95.39-1.88.82-2.81,1.27Z"/>
        <path class="cls-14" d="M188.94,157.32c-.51.21-1.02.42-1.54.62.52-.21,1.03-.42,1.54-.62Z"/>
        <path class="cls-14" d="M122.79,161.58c-.48-.25-.96-.51-1.43-.79.47.27.95.53,1.43.79Z"/>
        <path class="cls-14" d="M154.68,166.55c-.79.08-1.58.15-2.37.21.79-.06,1.58-.13,2.37-.21Z"/>
        <path class="cls-14" d="M175.3,162.22c-.69.21-1.39.42-2.09.62.7-.2,1.4-.41,2.09-.62Z"/>
        <path class="cls-14" d="M201,151.79c-.31.16-.64.32-.97.49.33-.17.66-.33.97-.49Z"/>
        <path class="cls-14" d="M160.05,165.84c-.75.12-1.51.23-2.27.34.76-.1,1.51-.22,2.27-.34Z"/>
        <path class="cls-14" d="M165.05,164.89c-.62.13-1.24.26-1.87.38.62-.12,1.25-.25,1.87-.38Z"/>
        <path class="cls-14" d="M127.46,115.66c.92-.38,1.86-.73,2.8-1.05-.94.32-1.88.67-2.8,1.05Z"/>
        <path class="cls-14" d="M120.74,160.41c-.39-.24-.78-.48-1.17-.73.39.25.78.49,1.17.73Z"/>
        <path class="cls-14" d="M130.54,114.51c.93-.31,1.87-.59,2.81-.85-.94.26-1.88.54-2.81.85Z"/>
        <path class="cls-14" d="M184.88,158.93c-.65.25-1.3.49-1.96.73.66-.24,1.32-.49,1.96-.73Z"/>
        <path class="cls-14" d="M133.68,113.57c.93-.25,1.87-.46,2.82-.66-.95.19-1.88.41-2.82.66Z"/>
        <path class="cls-14" d="M186.84,158.16c-.55.22-1.11.44-1.68.66.57-.22,1.13-.44,1.68-.66Z"/>
        <path class="cls-14" d="M198.13,153.21c-.4.19-.81.39-1.23.59.42-.2.83-.39,1.23-.59Z"/>
        <path class="cls-14" d="M121.54,118.57c.92-.53,1.86-1.03,2.81-1.5-.95.47-1.89.97-2.81,1.5-1.11.62-2.17,1.31-3.2,2.05h0c1.02-.74,2.09-1.44,3.2-2.05Z"/>
        <path class="cls-14" d="M196.46,154c-.42.2-.85.4-1.29.6.44-.2.87-.4,1.29-.6Z"/>
        <path class="cls-14" d="M139.74,166.6c-.47-.05-.93-.11-1.4-.18.47.06.93.12,1.4.18Z"/>
        <path class="cls-14" d="M173.08,162.88c-.74.21-1.48.42-2.23.61.75-.2,1.49-.4,2.23-.61Z"/>
        <path class="cls-14" d="M125.05,162.69c-.63-.28-1.25-.59-1.87-.9.62.32,1.24.62,1.87.9Z"/>
        <path class="cls-14" d="M135.63,165.99c-.68-.13-1.35-.27-2.02-.43.67.15,1.34.3,2.02.43Z"/>
        <path class="cls-14" d="M199.68,152.46c-.43.21-.87.43-1.33.65.46-.22.9-.44,1.33-.65Z"/>
        <path class="cls-14" d="M182.35,159.87c-.53.19-1.06.38-1.6.57.54-.19,1.07-.38,1.6-.57Z"/>
        <path class="cls-14" d="M139.41,112.41c-.85.12-1.7.26-2.54.43.84-.16,1.69-.3,2.53-.42,0,0,0,0,0,0Z"/>
        <path class="cls-14" d="M194.89,154.73c-.52.24-1.05.48-1.6.72.54-.24,1.08-.48,1.6-.72Z"/>
        <path class="cls-14" d="M126.95,163.5c-.49-.19-.97-.4-1.45-.61.48.21.96.42,1.45.61Z"/>
        <path class="cls-14" d="M128.9,164.22c-.43-.15-.85-.3-1.28-.46.42.16.85.31,1.28.46Z"/>
        <polygon class="cls-14" points="114.76 188.44 114.76 211.33 114.76 211.33 114.76 188.44 113.83 155.16 113.83 155.16 114.76 188.44"/>
        <path class="cls-14" d="M115.46,156.62c-.55-.47-1.09-.95-1.63-1.46.53.51,1.08.99,1.63,1.46Z"/>
        <path class="cls-14" d="M117.15,157.98c-.39-.3-.77-.6-1.15-.92.38.31.76.62,1.15.92Z"/>
        <path class="cls-14" d="M117.79,158.45c.16.12.31.24.47.35v-.02c-.16-.11-.32-.22-.47-.34Z"/>
        <path class="cls-14" d="M118.34,120.62c-.16.12-.33.22-.49.34.16-.12.33-.23.49-.34h0Z"/>
        <path class="cls-14" d="M209.58,144.65c0,.46-.08.91-.22,1.33h0c.14-.42.22-.87.22-1.33,0-.48-.09-.95-.24-1.39h0c.15.44.24.91.24,1.39Z"/>
        <path class="cls-14" d="M209.34,143.26l-54.67-7.26c-.69-.09-1.41.42-1.51,1.16-.1.74.42,1.41,1.16,1.51l27.95,3.71-.18-.8h4.22l-.28,1.29,4.66.62-.27-1.25h4.22l-.38,1.73,15.1,2.01c.14-.42.22-.87.22-1.33s-.09-.95-.24-1.39Z"/>
        <path class="cls-14" d="M209.36,145.98h.05c.06.01.12.02.18.02.66,0,1.24-.49,1.33-1.17.1-.74-.42-1.41-1.16-1.51l-.42-.06c.15.44.24.91.24,1.39s-.08.91-.22,1.33Z"/>
        <polygon class="cls-14" points="184.21 151.19 186.03 142.89 182.27 142.39 184.21 151.19"/>
        <polygon class="cls-14" points="182.09 141.59 182.27 142.39 186.03 142.89 186.31 141.59 182.09 141.59"/>
        <polygon class="cls-14" points="192.52 151.85 194.25 143.98 190.69 143.5 192.52 151.85"/>
        <polygon class="cls-14" points="190.42 142.25 190.69 143.5 194.25 143.98 194.63 142.25 190.42 142.25"/>
        <path class="cls-8" d="M143.38,112c-.14,0-.28.02-.43.03.14-.01.28-.02.43-.03Z"/>
        <path class="cls-8" d="M146.23,111.91c.35,0,.7,0,1.05,0-.27,0-.55,0-.82,0-.07,0-.15,0-.22,0Z"/>
        <path class="cls-8" d="M151.53,112.17h0c-.85-.09-1.71-.16-2.57-.2.86.04,1.71.12,2.57.2Z"/>
        <path class="cls-8" d="M147.07,120.98c3.06,0,5.55-2.49,5.55-5.54,0-1.22-.4-2.35-1.08-3.27-.85-.09-1.71-.16-2.57-.2-.56-.03-1.13-.05-1.69-.06-.35,0-.7,0-1.05,0-.95,0-1.9.03-2.85.09-.14,0-.28.02-.43.03-.09,0-.18.02-.27.03-.72.94-1.16,2.11-1.16,3.38,0,3.06,2.49,5.54,5.54,5.54Z"/>
        <path class="cls-8" d="M143.38,112c.95-.06,1.9-.09,2.85-.09.07,0,.15,0,.22,0,.27,0,.55,0,.82,0,.56,0,1.13.03,1.69.06.86.04,1.71.12,2.57.2-1.01-1.38-2.63-2.27-4.47-2.27s-3.36.85-4.38,2.16c.09,0,.18-.01.26-.02.14-.01.28-.02.43-.03Z"/>
        <path class="cls-8" d="M142.69,112.05s0,0,0,0c.09,0,.18-.02.27-.03-.09,0-.18.01-.26.02Z"/>
        <path class="cls-8" d="M146.23,111.91c-.95,0-1.9.03-2.85.09.95-.06,1.9-.09,2.85-.09Z"/>
        <path class="cls-14" d="M147.07,108.55c1.17,0,2.27.29,3.24.81.86.06,1.72.14,2.57.25-1.49-1.49-3.55-2.41-5.81-2.41s-4.17.86-5.64,2.25c.86-.08,1.72-.14,2.58-.18.92-.46,1.96-.73,3.06-.73Z"/>
        <path class="cls-14" d="M139.71,112.37c.14-.02.27-.04.41-.06-.14.02-.27.04-.41.06Z"/>
        <path class="cls-14" d="M153.99,112.47c-.25-.04-.51-.07-.76-.1h0c.25.03.51.06.76.1Z"/>
        <path class="cls-14" d="M153.23,112.37c.46.93.73,1.96.73,3.07,0,3.81-3.09,6.89-6.89,6.89s-6.89-3.09-6.89-6.89c0-1.16.29-2.25.8-3.21-.29.03-.57.05-.86.08-.14.02-.27.04-.41.06-.1.01-.2.03-.29.05-.37.94-.58,1.96-.58,3.03,0,4.54,3.69,8.24,8.24,8.24s8.24-3.69,8.24-8.24c0-1-.19-1.95-.51-2.83-.27-.05-.53-.1-.8-.14-.25-.04-.51-.07-.76-.1Z"/>
        <path class="cls-14" d="M139.41,112.41c.1-.01.19-.03.29-.04.14-.02.27-.04.41-.06.29-.04.58-.07.87-.1.67-1.27,1.73-2.29,3.02-2.93-.86.04-1.72.1-2.58.18-.87.82-1.56,1.82-2.01,2.95Z"/>
        <path class="cls-14" d="M153.23,112.37c.25.03.51.06.76.1.27.04.53.09.8.14-.42-1.14-1.07-2.16-1.92-3-.85-.11-1.71-.19-2.57-.25,1.26.67,2.29,1.73,2.93,3.01Z"/>
        <path class="cls-14" d="M139.71,112.37c-.1.01-.19.03-.29.04,0,0,0,0,0,0,.1-.01.2-.03.29-.05Z"/>
        <path class="cls-14" d="M140.98,112.21c-.29.03-.58.07-.87.1.28-.04.57-.05.86-.08,0,0,0-.01,0-.02Z"/>
        <path class="cls-14" d="M147.32,109.22c1,.02,1.99.07,2.98.14-.97-.52-2.07-.81-3.24-.81-1.1,0-2.14.27-3.06.73.82-.04,1.63-.06,2.45-.06.29,0,.58,0,.87,0Z"/>
        <path class="cls-14" d="M151.53,112.17c.57.06,1.13.13,1.7.2h0c-.56-.08-1.13-.15-1.7-.2h0Z"/>
        <path class="cls-14" d="M152.61,115.44c0,3.06-2.49,5.54-5.55,5.54s-5.54-2.49-5.54-5.54c0-1.27.44-2.45,1.16-3.38-.57.04-1.14.11-1.71.17-.51.96-.8,2.05-.8,3.21,0,3.81,3.09,6.89,6.89,6.89s6.89-3.09,6.89-6.89c0-1.1-.27-2.14-.73-3.07-.56-.08-1.13-.15-1.7-.2.68.92,1.08,2.05,1.08,3.27Z"/>
        <path class="cls-14" d="M147.07,109.89c1.83,0,3.46.9,4.47,2.27.57.06,1.13.13,1.7.2-.64-1.28-1.66-2.34-2.93-3.01-.99-.07-1.99-.12-2.98-.14-.29,0-.58,0-.87,0-.82,0-1.64.03-2.45.06-1.29.64-2.35,1.67-3.02,2.93.57-.06,1.14-.12,1.71-.16,1.02-1.31,2.6-2.16,4.38-2.16Z"/>
        <path class="cls-14" d="M142.68,112.06s0,0,0,0c-.57.04-1.14.1-1.71.16,0,0,0,.01,0,.02.57-.06,1.14-.13,1.71-.17Z"/>
        <path class="cls-9" d="M103.3,181.24c-2.63,3.81-3.62,9.53-1.21,13.74h0c.45-.66.93-1.3,1.43-1.92v-4.46s-.22-7.36-.22-7.36Z"/>
        <polygon class="cls-9" points="106.21 188.52 106.21 190.12 106.21 190.12 106.21 188.52"/>
        <polygon class="cls-9" points="105.92 178.54 106.21 188.52 105.92 178.54 105.92 178.54"/>
        <path class="cls-9" d="M110.21,186.79l-2.1-7.3v8.96c.67-.55,1.36-1.1,2.1-1.67Z"/>
        <path class="cls-9" d="M108.11,188.46v-8.96l-.54-1.88c-.58.23-1.12.55-1.65.92l.29,9.99v1.59c.61-.56,1.24-1.11,1.9-1.66Z"/>
        <path class="cls-9" d="M105.59,178.77c-.85.66-1.62,1.51-2.28,2.47l.21,7.36v4.46c.64-.8,1.32-1.57,2.07-2.32v-11.97Z"/>
        <path class="cls-9" d="M106.21,190.12v-1.59s-.29-9.99-.29-9.99c-.11.08-.22.15-.33.23v11.97c.17-.17.34-.35.52-.52.04-.03.07-.06.11-.1Z"/>
      </g>
      <g>
        <path class="cls-1" d="M78.93,104.29c-1.02.47-2.06.9-3.11,1.29,1.05-.39,2.09-.82,3.11-1.29Z"/>
        <path class="cls-1" d="M75.82,105.58c-1.05.39-2.13.73-3.21,1.04,1.09-.3,2.16-.65,3.21-1.04Z"/>
        <path class="cls-1" d="M85.22,100.72c-.6.41-1.21.82-1.84,1.2.62-.38,1.23-.79,1.84-1.2Z"/>
        <path class="cls-1" d="M72.6,106.62c-1.09.3-2.18.57-3.3.78,1.11-.22,2.21-.48,3.3-.78Z"/>
        <path class="cls-1" d="M54.4,108.05c-1.74-.17-3.46-.41-5.16-.71,1.7.31,3.42.55,5.16.71Z"/>
        <path class="cls-1" d="M32.53,102.28c-1.46-.61-2.87-1.24-4.22-1.88,1.36.64,2.77,1.27,4.22,1.88Z"/>
        <path class="cls-1" d="M44.22,106.24c-3.29-.84-6.47-1.9-9.47-3.06,3,1.17,6.18,2.22,9.47,3.06Z"/>
        <path class="cls-1" d="M91.33,95.64c-.87.88-1.79,1.71-2.73,2.5.94-.79,1.85-1.62,2.73-2.5l-.22,49.12h0l.22-49.12Z"/>
        <path class="cls-1" d="M98.93,82.04c.06.14.13.28.17.42-.05-.14-.11-.28-.17-.42Z"/>
        <path class="cls-1" d="M99.31,83.75c0-.12-.02-.23-.03-.35.01.14.03.29.03.43,0-.03,0-.06,0-.08Z"/>
        <path class="cls-1" d="M99.17,82.72c.03.13.07.26.09.4-.02-.13-.06-.26-.09-.4Z"/>
        <polygon class="cls-1" points="91.08 151.65 91 170.51 91.08 151.65 91.08 151.65"/>
        <path class="cls-1" d="M79.24,64.82c.67.34,1.33.7,1.98,1.06-.64-.36-1.3-.72-1.98-1.06Z"/>
        <path class="cls-1" d="M93.91,75.83c1.04,1.08,1.91,2.07,2.61,2.91-.7-.84-1.57-1.83-2.61-2.91Z"/>
        <path class="cls-1" d="M92.81,74.72c.38.38.75.75,1.1,1.11-.35-.36-.71-.73-1.1-1.11Z"/>
        <path class="cls-1" d="M81.22,65.88c4.82,2.73,8.72,6,11.6,8.84-2.88-2.84-6.78-6.12-11.6-8.84Z"/>
        <path class="cls-1" d="M61.16,60.15c-.35,0-.7-.02-1.05-.02.35,0,.7,0,1.05.02h0Z"/>
        <path class="cls-1" d="M98.84,81.84c-.1-.2-.22-.39-.36-.58-.25-.35-.91-1.26-1.96-2.52,1.05,1.26,1.71,2.17,1.96,2.52.14.18.26.38.36.58Z"/>
        <path class="cls-1" d="M7.94,84.9c-.04.17-.06.34-.08.52,0,.08,0,.15,0,.23,0,.02,0,.05,0,.07,0-.1,0-.2,0-.3.02-.17.04-.35.08-.52Z"/>
        <path class="cls-1" d="M78.22,64.32c-.48-.23-.97-.45-1.46-.66h0c.49.22.98.43,1.46.66Z"/>
        <path class="cls-1" d="M54.4,108.05c2.61.25,5.25.33,7.91.2-2.66.13-5.3.05-7.91-.2Z"/>
        <path class="cls-1" d="M22.11,75.18c1.55-.89,3.15-1.81,4.76-2.73-1.61.92-3.21,1.85-4.76,2.73Z"/>
        <path class="cls-1" d="M33.92,68.39c1.11-.64,2.17-1.26,3.16-1.83-.99.57-2.05,1.19-3.16,1.83Z"/>
        <path class="cls-1" d="M26.87,72.44c.8-.46,1.61-.92,2.4-1.38-.8.46-1.6.92-2.4,1.38Z"/>
        <path class="cls-1" d="M29.28,71.06c.8-.46,1.59-.91,2.36-1.36-.78.45-1.57.9-2.36,1.36Z"/>
        <path class="cls-1" d="M8.3,87.55s-.03-.06-.05-.09c.01.03.03.06.05.09Z"/>
        <path class="cls-1" d="M15.74,78.82c.62-.35,1.28-.73,1.96-1.12-.69.39-1.34.77-1.96,1.12Z"/>
        <path class="cls-1" d="M9.18,82.7c.25-.23.53-.44.84-.61-.31.17-.59.38-.84.61Z"/>
        <path class="cls-1" d="M7.98,86.67s-.02-.08-.03-.12c0,.04.02.08.03.12Z"/>
        <path class="cls-1" d="M18.75,77.1c1.07-.61,2.2-1.26,3.36-1.92-1.16.67-2.29,1.31-3.36,1.92Z"/>
        <path class="cls-14" d="M90.99,170.51h0l.08-18.86c-.93-.39-1.82-.91-2.64-1.53l-.08,17.75h-.01v2.64s0,40.81,0,40.81h2.64v-40.81Z"/>
        <path class="cls-14" d="M7.68,88.11l.88-.12c-.09-.14-.18-.29-.25-.44-.01-.03-.03-.06-.05-.09-.12-.25-.21-.52-.27-.79,0-.04-.02-.08-.03-.12-.06-.27-.09-.55-.09-.83,0-.02,0-.05,0-.07,0-.08,0-.15,0-.23.02-.17.04-.35.08-.52.18-.85.62-1.61,1.25-2.2.25-.23.53-.44.84-.61,0,0,2.31-1.32,5.72-3.27.62-.35,1.28-.73,1.96-1.12.34-.2.69-.4,1.05-.6,1.07-.61,2.2-1.26,3.36-1.92,1.55-.89,3.15-1.81,4.76-2.73.8-.46,1.61-.92,2.4-1.38.8-.46,1.59-.91,2.36-1.36.78-.45,1.54-.89,2.28-1.31,1.11-.64,2.17-1.26,3.16-1.83.66-.38,1.29-.75,1.87-1.09,1.64-.82,3.26-1.53,4.85-2.15,1.06-.41,2.11-.78,3.14-1.1s2.06-.61,3.06-.85c1.51-.37,3-.65,4.45-.85,1.94-.27,3.82-.39,5.65-.39.35,0,.7,0,1.05.02.07-.92.29-1.81.64-2.62-7.2-.29-15.25,1.21-24.03,5.57l-.08.04-.08.04c-9.28,5.42-28.71,16.5-28.91,16.61-1.97,1.1-3.28,3.11-3.48,5.38-.01.22-.02.34-.02.46h0c0,1.55.51,3.02,1.43,4.22-.03-.09-.08-.17-.09-.27-.1-.67.41-1.38,1.14-1.48Z"/>
        <path class="cls-14" d="M91.33,95.64c-.87.88-1.79,1.71-2.73,2.5-1.09.92-2.22,1.77-3.39,2.57-.6.41-1.21.82-1.84,1.2-.48.29-.96.58-1.45.85-.98.55-1.98,1.06-3,1.53-1.02.47-2.06.9-3.11,1.29s-2.13.73-3.21,1.04c-1.09.3-2.18.57-3.3.78-.56.11-1.11.21-1.68.29-1.78.29-3.55.47-5.33.55-2.66.13-5.3.05-7.91-.2-1.74-.17-3.46-.41-5.16-.71-1.7-.31-3.38-.68-5.02-1.1-3.29-.84-6.47-1.9-9.47-3.06-.75-.29-1.49-.59-2.22-.89-1.46-.61-2.87-1.24-4.22-1.88-1.36-.64-2.66-1.29-3.9-1.95-1.86-.98-3.59-1.95-5.17-2.88-1.05-.62-2.03-1.22-2.93-1.8s-1.72-1.11-2.47-1.61c-1.07-.72-1.95-1.35-2.65-1.85l-3.17.42c-.28.04-.54-.04-.77-.16.16.16.33.32.51.46,3.17,2.49,31.43,23.91,60.29,19.27,7.58-1.18,14.61-4.19,20.61-8.81l-.18,41.89c.93.57,1.79,1.01,2.64,1.36l.22-49.12Z"/>
        <path class="cls-14" d="M46.94,62.22c1.03-.32,2.06-.61,3.06-.85-1.01.24-2.03.53-3.06.85Z"/>
        <path class="cls-14" d="M98.84,81.84c.03.07.06.14.09.2-.03-.07-.05-.14-.09-.2Z"/>
        <path class="cls-14" d="M50.01,61.37c1.51-.37,3-.65,4.45-.85-1.45.2-2.94.48-4.45.85Z"/>
        <path class="cls-14" d="M19.24,95.57c-1.05-.62-2.03-1.22-2.93-1.8.9.57,1.88,1.17,2.93,1.8Z"/>
        <path class="cls-14" d="M43.8,63.32c1.06-.41,2.11-.78,3.14-1.1-1.03.32-2.08.69-3.14,1.1Z"/>
        <path class="cls-14" d="M8.25,87.46c-.12-.25-.21-.52-.27-.79.07.27.16.54.27.79Z"/>
        <path class="cls-14" d="M99.1,82.46c.03.09.04.17.06.26-.02-.09-.04-.18-.06-.26Z"/>
        <path class="cls-14" d="M11.2,90.31c.7.51,1.59,1.13,2.65,1.85-1.07-.72-1.95-1.35-2.65-1.85h0Z"/>
        <polygon class="cls-14" points="98.81 211.33 98.81 211.33 99.31 170.51 98.81 211.33"/>
        <path class="cls-14" d="M8.3,87.55c.07.15.16.3.25.44h.02c-.09-.15-.19-.29-.27-.44Z"/>
        <path class="cls-14" d="M99.26,83.12c.01.1.02.19.02.29,0-.1,0-.19-.02-.29Z"/>
        <path class="cls-14" d="M7.95,86.55c-.06-.27-.09-.55-.09-.83,0,.28.03.56.09.83Z"/>
        <path class="cls-14" d="M88.6,98.14c-1.09.92-2.22,1.77-3.39,2.57,1.17-.8,2.3-1.66,3.39-2.57Z"/>
        <path class="cls-14" d="M81.93,102.77c-.98.55-1.98,1.06-3,1.53,1.02-.47,2.02-.98,3-1.53Z"/>
        <path class="cls-14" d="M24.41,98.46c-1.86-.98-3.59-1.95-5.17-2.88,1.57.93,3.3,1.91,5.17,2.88Z"/>
        <path class="cls-14" d="M28.31,100.4c-1.36-.64-2.66-1.29-3.9-1.95,1.24.65,2.55,1.3,3.9,1.95Z"/>
        <path class="cls-14" d="M8.79,88.34s-.03-.03-.04-.05c.01.02.03.03.04.05Z"/>
        <path class="cls-14" d="M6.63,89.86c.12.32.33.56.62.71-.23-.22-.43-.46-.62-.71Z"/>
        <path class="cls-14" d="M11.2,90.31l11.7-1.55-.37-1.7h4.13l-.27,1.23,4.58-.61-.28-1.27h4.14l-.17.78,27.44-3.64c.67-.09,1.15-.66,1.15-1.31,0-.06,0-.12-.01-.18-.1-.73-.76-1.23-1.48-1.14l-53.18,7.06c.06.1.11.2.18.3.01.02.03.03.04.05.19.24.4.46.64.66.15.12.76.59,1.76,1.32Z"/>
        <path class="cls-14" d="M11.2,90.31c-1-.72-1.61-1.2-1.76-1.32-.24-.2-.45-.42-.64-.66-.01-.02-.03-.03-.04-.05-.07-.09-.14-.19-.2-.29l-.88.12c-.73.1-1.23.81-1.14,1.48.01.1.06.18.09.27.19.25.4.49.62.71.23.12.49.19.77.16l3.17-.42Z"/>
        <path class="cls-14" d="M9.44,88.99c-.24-.2-.45-.42-.64-.66.19.24.4.46.64.66.15.12.76.59,1.76,1.32h0c-1-.72-1.61-1.2-1.76-1.32Z"/>
        <path class="cls-14" d="M8.55,87.99c.06.1.13.2.2.29-.07-.09-.12-.2-.18-.3h-.02Z"/>
        <polygon class="cls-14" points="32.77 95.84 34.66 87.2 30.97 87.69 32.77 95.84"/>
        <polygon class="cls-14" points="30.69 86.41 30.97 87.69 34.66 87.2 34.83 86.41 30.69 86.41"/>
        <polygon class="cls-14" points="24.59 96.51 26.39 88.29 22.9 88.76 24.59 96.51"/>
        <polygon class="cls-14" points="22.53 87.06 22.9 88.76 26.39 88.29 26.66 87.06 22.53 87.06"/>
        <path class="cls-12" d="M69.18,61.15c-.81-.19-1.64-.35-2.48-.49.84.14,1.67.3,2.48.49Z"/>
        <path class="cls-12" d="M69.21,55.3c-1.89,0-3.56.97-4.53,2.44,3.54.38,6.85,1.19,9.92,2.28-.36-2.66-2.64-4.71-5.39-4.71Z"/>
        <path class="cls-12" d="M74.3,62.67h0c-.6-.22-1.21-.43-1.83-.62.62.2,1.23.4,1.83.62Z"/>
        <path class="cls-12" d="M69.21,66.19c2.32,0,4.3-1.47,5.09-3.52-.6-.22-1.21-.43-1.83-.62-1.07-.34-2.16-.64-3.29-.9-.81-.19-1.64-.35-2.48-.49-.84-.14-1.7-.25-2.57-.34-.11-.01-.22-.02-.33-.03-.01.15-.02.3-.02.45,0,3,2.44,5.45,5.44,5.45Z"/>
        <path class="cls-12" d="M66.7,60.66c.84.14,1.67.3,2.48.49,1.12.26,2.22.56,3.29.9.62.2,1.23.4,1.83.62.23-.6.36-1.25.36-1.93,0-.25-.02-.49-.05-.73-3.07-1.09-6.38-1.89-9.92-2.28-.5.74-.81,1.62-.89,2.56.11.01.22.02.33.03.87.09,1.73.2,2.57.34Z"/>
        <path class="cls-12" d="M63.79,60.3h0c.11.01.22.02.33.03-.11-.01-.22-.02-.33-.03Z"/>
        <path class="cls-12" d="M72.47,62.05c-1.07-.34-2.16-.64-3.29-.9,1.12.26,2.22.56,3.29.9Z"/>
        <path class="cls-12" d="M66.7,60.66c-.84-.14-1.7-.25-2.57-.34.87.09,1.73.2,2.57.34Z"/>
        <path class="cls-14" d="M61.53,60.15c-.12,0-.25,0-.37,0h0c.12,0,.25,0,.37,0Z"/>
        <path class="cls-14" d="M76.75,63.65c-.22-.09-.43-.19-.65-.28.22.09.44.19.65.28h0Z"/>
        <path class="cls-14" d="M69.22,53.98c3.66,0,6.63,2.91,6.75,6.54.44.17.88.35,1.32.53,0-.1.02-.2.02-.31,0-4.46-3.63-8.09-8.09-8.09-3.32,0-6.17,2.01-7.41,4.87.48.02.95.05,1.42.08,1.13-2.15,3.39-3.63,5.99-3.63Z"/>
        <path class="cls-14" d="M61.13,60.74c0,4.46,3.63,8.09,8.09,8.09,3.43,0,6.37-2.15,7.54-5.18-.22-.09-.43-.19-.65-.28-.19-.08-.38-.15-.56-.23-.97,2.55-3.43,4.36-6.32,4.36-3.74,0-6.76-3.03-6.76-6.77,0-.18.01-.36.03-.55-.31-.02-.63-.04-.95-.05-.12,0-.25,0-.37,0-.01.2-.03.4-.03.6Z"/>
        <path class="cls-14" d="M75.98,60.75c0,.85-.16,1.65-.45,2.4.19.08.38.15.56.23.22.09.44.19.65.28.31-.81.5-1.69.53-2.6-.43-.18-.87-.36-1.32-.53,0,.08.01.15.01.22Z"/>
        <path class="cls-14" d="M61.53,60.15c.32.01.63.03.95.05.07-.93.33-1.81.75-2.59-.47-.03-.95-.06-1.42-.08-.35.81-.57,1.69-.64,2.62.12,0,.25,0,.37,0Z"/>
        <path class="cls-14" d="M62.48,60.2c-.31-.02-.63-.04-.95-.05.32.01.63.03.95.05,0,0,0,0,0,0Z"/>
        <path class="cls-14" d="M69.21,55.3c2.75,0,5.03,2.06,5.39,4.71.46.16.92.33,1.36.51-.12-3.63-3.09-6.54-6.75-6.54-2.6,0-4.86,1.47-5.99,3.63.49.04.98.08,1.46.13.98-1.47,2.64-2.44,4.53-2.44Z"/>
        <path class="cls-14" d="M75,62.93c-.23-.09-.47-.17-.7-.26h0c.23.09.47.17.7.26Z"/>
        <path class="cls-14" d="M74.3,62.67c-.78,2.05-2.76,3.52-5.09,3.52-3,0-5.44-2.44-5.44-5.45,0-.15.01-.3.02-.45-.44-.04-.87-.07-1.32-.1-.01.18-.03.36-.03.55,0,3.74,3.03,6.77,6.76,6.77,2.89,0,5.35-1.82,6.32-4.36-.18-.07-.35-.14-.53-.21-.23-.09-.47-.17-.7-.26Z"/>
        <path class="cls-14" d="M64.68,57.74c-.48-.05-.97-.1-1.46-.13-.41.79-.67,1.66-.75,2.59.44.03.88.06,1.32.1.08-.94.39-1.81.89-2.56Z"/>
        <path class="cls-14" d="M74.66,60.74c0,.68-.13,1.33-.36,1.93.23.09.47.17.7.26.18.07.35.14.53.21.28-.75.45-1.55.45-2.4,0-.08,0-.15-.01-.22-.45-.17-.9-.34-1.36-.51.03.24.05.48.05.73Z"/>
        <path class="cls-14" d="M63.79,60.3h0c-.44-.04-.87-.07-1.32-.1,0,0,0,0,0,0,.44.03.88.06,1.32.1Z"/>
        <rect class="cls-9" x="91.1" y="144.76" height="6.89"/>
        <g>
          <path class="cls-9" d="M82.32,138.89h0c.27,4.2,2.63,8.61,6.13,11.24l.03-6.73c-1.68-1.03-3.61-2.46-6.16-4.51Z"/>
          <path class="cls-9" d="M91.84,151.95c1.43-1.06,3.09-1.84,4.8-2.09-1.04-1.26-1.82-2.63-2.39-4.18-1.1-.21-2.11-.5-3.13-.92l-.03,6.89c.25.11.5.21.76.3Z"/>
          <path class="cls-9" d="M91.11,144.76c-.84-.35-1.7-.79-2.64-1.36l-.03,6.73c.82.62,1.7,1.13,2.64,1.53l.03-6.89Z"/>
          <path class="cls-9" d="M99.31,170.51h0v-86.68c0-.14-.02-.29-.03-.43,0-.1,0-.19-.02-.29-.02-.13-.06-.26-.09-.4-.02-.09-.04-.18-.06-.26-.05-.14-.11-.28-.17-.42-.03-.07-.05-.14-.09-.2-.1-.2-.22-.39-.36-.58-.25-.35-.91-1.26-1.96-2.52-.7-.84-1.57-1.83-2.61-2.91-.35-.36-.71-.73-1.1-1.11-2.88-2.84-6.78-6.12-11.6-8.84-.64-.36-1.3-.72-1.98-1.06-.34-.17-.68-.34-1.02-.5-.48-.23-.97-.45-1.46-.66-1.17,3.02-4.1,5.18-7.54,5.18-4.46,0-8.09-3.63-8.09-8.09,0-.2.02-.4.03-.6-.35,0-.7-.02-1.05-.02-1.83,0-3.71.13-5.65.39-1.45.2-2.94.48-4.45.85-1.01.24-2.03.53-3.06.85s-2.08.69-3.14,1.1c-1.59.61-3.21,1.33-4.85,2.15-.59.34-1.21.71-1.87,1.09-.99.57-2.05,1.19-3.16,1.83-.74.43-1.5.87-2.28,1.31-.78.45-1.57.9-2.36,1.36-.8.46-1.6.92-2.4,1.38-1.61.92-3.21,1.85-4.76,2.73-1.16.67-2.29,1.31-3.36,1.92-.36.2-.71.4-1.05.6-.69.39-1.34.77-1.96,1.12-3.41,1.95-5.72,3.27-5.72,3.27-.31.17-.59.38-.84.61-.63.59-1.06,1.35-1.25,2.2-.04.17-.06.34-.08.52,0,.1,0,.2,0,.3,0,.28.03.56.09.83,0,.04.02.08.03.12.07.27.16.54.27.79.01.03.03.06.05.09.08.15.18.29.27.44l53.18-7.06c.72-.1,1.39.41,1.48,1.14,0,.06.01.12.01.18,0,.65-.48,1.22-1.15,1.31l-27.44,3.64-1.89,8.65-1.8-8.16-4.58.61-1.8,8.22-1.7-7.75-11.7,1.55c.7.51,1.59,1.13,2.65,1.85.74.5,1.56,1.04,2.47,1.61s1.88,1.17,2.93,1.8c1.57.93,3.3,1.91,5.17,2.88,1.24.65,2.55,1.3,3.9,1.95,1.36.64,2.77,1.27,4.22,1.88.73.3,1.47.6,2.22.89,3,1.17,6.18,2.22,9.47,3.06,1.65.42,3.32.79,5.02,1.1,1.7.31,3.42.55,5.16.71,2.61.25,5.25.33,7.91.2,1.77-.09,3.55-.27,5.33-.55.56-.09,1.12-.19,1.68-.29,1.11-.22,2.21-.48,3.3-.78s2.16-.65,3.21-1.04c1.05-.39,2.09-.82,3.11-1.29,1.02-.47,2.02-.98,3-1.53.49-.27.97-.56,1.45-.85.62-.38,1.23-.79,1.84-1.2,1.17-.8,2.3-1.66,3.39-2.57.94-.79,1.85-1.62,2.73-2.5l-.22,49.12c1.03.43,2.04.72,3.13.92.57,1.55,1.36,2.92,2.39,4.18-1.71.25-3.37,1.03-4.8,2.09-.26-.09-.51-.19-.76-.3l-.08,18.86h0v40.81h7.82l.5-40.81Z"/>
        </g>
      </g>
    </g>
  </g>
</svg>