<?xml version="1.0" encoding="UTF-8"?>
<svg id="Layer_2" data-name="Layer 2" xmlns="http://www.w3.org/2000/svg" viewBox="0 0 133.2 133.2">
  <defs>
    <style>
      .cls-1 {
        fill: #f8ead6;
      }

      .cls-2 {
        fill: #6db360;
      }

      .cls-3 {
        fill: #ee4324;
      }

      .cls-4 {
        fill: #081b1e;
      }

      .cls-5 {
        fill: #f9b72e;
      }
    </style>
  </defs>
  <g id="Art">
    <g>
      <rect class="cls-1" width="133.2" height="133.2"/>
      <g>
        <path class="cls-5" d="M63.17,61.67c1.99-2.64,4.55-4.53,7.6-5.6h0c1.97-.7,4.12-1.05,6.41-1.05.99,0,1.92-.47,2.48-1.26l.54-.74h0s25.09-34.53,25.09-34.53c2.82,2.73,3.28,7.2.94,10.43l-22.28,30.65h0s-.9,1.24-.9,1.24c-.8,1.1-2.17,1.61-3.49,1.3-.01,0-.03,0-.04,0-.44-.09-1.97-.35-3.86-.12,0,0,0,0,0,0t0,0c-2,.25-4.72,1.09-6.8,3.62l-5.69-3.93Z"/>
        <path class="cls-4" d="M68.85,66.89c-.25,0-.51-.07-.73-.23l-5.69-3.93c-.29-.2-.48-.51-.54-.86-.06-.35.03-.7.24-.98,2.15-2.85,4.91-4.88,8.2-6.04,2.11-.74,4.41-1.12,6.84-1.13h0c.58,0,1.11-.27,1.44-.72l.55-.75s.01-.02.02-.03l25.07-34.5c.22-.3.56-.49.93-.53.37-.04.74.1,1.01.36,3.31,3.2,3.77,8.41,1.09,12.11l-23.19,31.89c-1.1,1.51-3,2.22-4.83,1.8-.38-.08-1.76-.31-3.46-.11-1.71.21-4.13.93-5.96,3.16-.25.31-.62.47-1,.47ZM65.05,61.4l3.61,2.5c2.23-2.2,4.9-2.96,6.83-3.2,2.04-.24,3.67.02,4.28.14.9.21,1.75-.11,2.24-.78l23.18-31.89c1.64-2.25,1.65-5.29.17-7.57l-24.12,33.18s-.02.02-.03.03l-.52.71c-.8,1.11-2.12,1.78-3.52,1.78h0c-2.13,0-4.15.33-5.98.98-2.39.84-4.46,2.23-6.15,4.12Z"/>
        <path class="cls-3" d="M59.99,82.41l-8.92-6.01-20.2,29.81c-.8,1.18-1.08,2.6-.8,3.99.28,1.39,1.1,2.59,2.3,3.39,2.48,1.63,5.84.98,7.49-1.46l20.13-29.71Z"/>
        <path class="cls-4" d="M35.36,115.77c-1.28,0-2.57-.36-3.7-1.11-1.49-.98-2.5-2.48-2.85-4.2-.35-1.74,0-3.5,1-4.97l20.2-29.81c.4-.59,1.2-.74,1.79-.35l8.92,6.02c.28.19.48.49.54.82.06.34,0,.69-.2.97l-20.13,29.71c-1.28,1.9-3.4,2.92-5.56,2.92ZM51.42,78.19l-19.48,28.74c-.6.89-.82,1.96-.61,3.01.21,1.05.83,1.96,1.75,2.56,1.89,1.24,4.45.75,5.71-1.11l19.41-28.64-6.78-4.57Z"/>
        <path class="cls-2" d="M76.92,43.19c.94.47,2.1.46,3.04-.16.68-.45,1.12-1.13,1.28-1.87.61.11,1.24.1,1.83-.08,1.25-.38,2.08-1.23,2.34-2.4.29-1.29-.18-2.77-1.17-3.68-1.14-1.06-2.92-1.47-4.65-1.08-.19.04-.37.09-.56.15.06-.19.12-.38.19-.56,1.05-2.84,3.47-4.89,6.04-5.11,1.19-.1,2.41.17,3.56.49.25.07.5.15.75.23-.83-.01-1.66.24-2.34.82-.99.85-1.39,2.14-1.16,3.34,1.16.4,2.48.21,3.48-.65.95-.81,1.34-2.01,1.18-3.16,1.75.58,3.45,1.27,5.09,2.09.37.18.73.37,1.1.56,1.54.8,3.12,1.6,4.83,1.97-.47.68-.75,1.5-.68,2.4.11,1.38.96,2.51,2.13,3.07,1.06-.74,1.72-1.99,1.61-3.37-.06-.72-.32-1.36-.72-1.9.78-.04,1.59-.18,2.45-.48.64-.22,1.2-.59,1.7-1.03.06.37.15.74.34,1.09.6,1.12,1.74,1.76,2.92,1.8.62-1.01.72-2.31.11-3.43-.43-.8-1.13-1.33-1.92-1.6.47-1.3.43-2.73-.16-3.96-.25-.52-.53-1-.84-1.47-.02.59-.13,1.18-.36,1.76.03.06.07.12.1.18.49,1.04.52,2.22.08,3.27-.44,1.07-1.32,1.9-2.39,2.27-3.3,1.16-5.92-.19-8.69-1.63-.32-.16-.63-.33-.95-.48.59-.86.85-1.94.57-3.03-.34-1.34-1.37-2.32-2.62-2.67-.92.91-1.36,2.25-1.02,3.6.08.31.2.6.34.87-1.52-.63-3.08-1.17-4.67-1.6-.83-.22-1.7-.42-2.59-.5.21-1.02,0-2.13-.68-3.02-.85-1.1-2.18-1.59-3.46-1.42-.49,1.2-.36,2.61.48,3.71.3.39.66.7,1.06.93-1.48.4-2.86,1.3-3.96,2.53-.7-.95-1.8-1.57-3.07-1.54-1.39.03-2.57.82-3.19,1.95.68,1.1,1.89,1.83,3.28,1.8.65-.02,1.25-.21,1.78-.52-.26.46-.5.94-.68,1.44-.18.49-.33,1.02-.42,1.57-.71.39-1.41.91-2.11,1.55-.21.19-.41.38-.61.58-.28.27-.55.54-.84.79-.26.22-.27.6-.06.84.22.25.6.27.85.06.3-.26.6-.55.89-.83.2-.19.39-.38.59-.56.39-.36.78-.68,1.18-.95.02,1.44.48,2.86,1.62,3.94-.31.08-.61.2-.89.38-.95.62-1.42,1.67-1.37,2.72M78.78,35.45c.36-.16.73-.29,1.09-.37,1.34-.3,2.71,0,3.57.79.68.63,1.02,1.67.82,2.54-.12.52-.48,1.21-1.52,1.53-.86.26-1.84.05-2.55-.54-1.2-1-1.53-2.49-1.4-3.94"/>
        <path class="cls-5" d="M62.88,68.44h0c-2.35-1.59-5.55-.97-7.14,1.39l-2.06,3.06,8.53,5.75,2.06-3.06c1.59-2.35.97-5.55-1.39-7.14"/>
        <path class="cls-4" d="M62.21,79.93c-.26,0-.51-.08-.72-.22l-8.53-5.75c-.59-.4-.75-1.2-.35-1.79l2.06-3.06c1.98-2.94,5.99-3.72,8.93-1.73h0c1.42.96,2.39,2.42,2.72,4.11.33,1.69-.02,3.4-.98,4.82l-2.06,3.06c-.19.28-.49.48-.82.54-.08.01-.16.02-.25.02ZM55.47,72.54l6.39,4.31,1.34-1.99c.58-.85.78-1.88.59-2.89s-.77-1.88-1.63-2.46h0c-.85-.58-1.88-.78-2.89-.59-1.01.2-1.88.77-2.46,1.63l-1.34,1.99Z"/>
        <path class="cls-5" d="M74.54,61.67c-1.99-2.64-4.55-4.53-7.6-5.6h0c-1.97-.7-4.12-1.05-6.41-1.05-.99,0-1.92-.47-2.48-1.26l-.54-.74h0s-25.09-34.53-25.09-34.53c-2.82,2.73-3.28,7.2-.94,10.43l22.28,30.65h0s.9,1.24.9,1.24c.8,1.1,2.17,1.61,3.49,1.3.01,0,.03,0,.04,0,.44-.09,1.97-.35,3.86-.12,0,0,0,0,0,0t0,0c2,.25,4.72,1.09,6.8,3.62l5.69-3.93Z"/>
        <path class="cls-4" d="M68.86,66.89c-.37,0-.74-.16-1-.47-1.83-2.23-4.25-2.95-5.96-3.16-1.7-.2-3.08.03-3.46.11-1.84.42-3.74-.28-4.83-1.8l-23.18-31.89c-2.69-3.7-2.22-8.91,1.09-12.11.27-.26.63-.4,1.01-.36.37.03.71.22.93.53l25.07,34.5s.01.02.02.03l.54.74c.33.46.87.73,1.44.73h0c2.43,0,4.73.38,6.84,1.13,3.3,1.16,6.06,3.19,8.2,6.04.21.28.3.63.24.98-.06.35-.25.65-.54.85l-5.69,3.93c-.22.15-.48.23-.73.23ZM60.52,60.59c.52,0,1.08.03,1.68.1,1.95.24,4.61,1,6.85,3.2l3.61-2.5c-1.69-1.9-3.76-3.28-6.15-4.12-1.83-.65-3.85-.98-5.98-.98h0c-1.4,0-2.72-.67-3.52-1.79l-.52-.71s-.02-.02-.03-.03l-24.12-33.18c-1.48,2.28-1.47,5.32.17,7.57l23.18,31.89c.49.68,1.34.99,2.16.8.49-.1,1.44-.25,2.67-.25Z"/>
        <path class="cls-3" d="M77.72,82.41l8.92-6.01,20.2,29.81c.8,1.18,1.08,2.6.8,3.99-.28,1.39-1.1,2.59-2.3,3.39-2.48,1.63-5.84.98-7.49-1.46l-20.13-29.71Z"/>
        <path class="cls-4" d="M102.35,115.77c-2.16,0-4.27-1.03-5.56-2.92l-20.13-29.71c-.19-.28-.26-.63-.2-.97.07-.34.26-.63.54-.82l8.92-6.02c.59-.4,1.39-.24,1.79.35l20.2,29.81c1,1.47,1.35,3.24,1,4.97-.35,1.73-1.36,3.22-2.85,4.2-1.14.75-2.43,1.11-3.71,1.11ZM79.52,82.76l19.41,28.64c1.26,1.86,3.82,2.35,5.71,1.1.91-.6,1.53-1.51,1.74-2.56.21-1.05,0-2.12-.61-3.01l-19.48-28.74-6.78,4.57Z"/>
        <path class="cls-2" d="M59.43,40.47c-.28-.18-.58-.3-.89-.38,1.14-1.08,1.6-2.51,1.62-3.94.39.27.78.59,1.18.95.2.18.39.37.59.56.29.28.58.57.89.83.25.22.63.19.85-.06.22-.25.2-.63-.06-.84-.29-.25-.57-.52-.84-.79-.2-.2-.41-.39-.61-.58-.7-.64-1.4-1.16-2.11-1.55-.1-.55-.24-1.08-.42-1.57-.19-.51-.42-.98-.68-1.44.52.31,1.12.5,1.78.52,1.39.03,2.6-.7,3.28-1.8-.62-1.13-1.8-1.92-3.19-1.95-1.27-.03-2.37.6-3.07,1.54-1.1-1.23-2.48-2.12-3.96-2.53.4-.23.76-.54,1.06-.93.84-1.1.97-2.51.48-3.71-1.28-.17-2.61.32-3.46,1.42-.69.89-.89,2-.68,3.02-.89.08-1.76.27-2.59.5-1.59.43-3.15.98-4.67,1.6.15-.27.26-.56.34-.87.34-1.34-.1-2.69-1.02-3.6-1.24.35-2.27,1.33-2.62,2.67-.28,1.09-.02,2.17.57,3.03-.32.16-.63.32-.95.49-2.77,1.43-5.39,2.79-8.69,1.63-1.07-.38-1.94-1.2-2.39-2.27-.44-1.05-.42-2.22.08-3.27.03-.06.07-.12.1-.18-.23-.58-.35-1.17-.36-1.76-.3.47-.59.95-.84,1.47-.59,1.23-.63,2.66-.16,3.96-.79.27-1.49.81-1.92,1.6-.6,1.12-.51,2.42.11,3.43,1.19-.04,2.32-.68,2.92-1.8.19-.35.29-.72.34-1.09.5.44,1.06.81,1.7,1.03.86.3,1.67.44,2.45.48-.4.54-.66,1.18-.72,1.9-.11,1.38.55,2.64,1.61,3.37,1.17-.56,2.02-1.69,2.13-3.07.07-.89-.2-1.71-.68-2.4,1.71-.37,3.29-1.17,4.84-1.97.37-.19.73-.38,1.1-.56,1.64-.82,3.35-1.52,5.09-2.09-.16,1.15.24,2.35,1.18,3.16.99.85,2.32,1.05,3.48.65.22-1.2-.17-2.48-1.16-3.34-.68-.58-1.51-.83-2.34-.82.25-.07.5-.16.75-.23,1.14-.31,2.36-.58,3.56-.49,2.57.21,4.99,2.27,6.04,5.11.07.18.13.37.19.56-.19-.06-.37-.11-.56-.15-1.72-.39-3.51.02-4.65,1.08-1,.92-1.47,2.4-1.17,3.69.27,1.17,1.1,2.03,2.34,2.4.59.18,1.22.2,1.83.08.17.74.6,1.42,1.28,1.87.95.62,2.1.64,3.05.16.05-1.05-.42-2.11-1.37-2.72M57.54,39.39c-.72.6-1.7.8-2.55.54-1.04-.32-1.4-1.01-1.52-1.53-.2-.87.14-1.91.82-2.54.86-.79,2.23-1.09,3.57-.79.36.08.72.21,1.09.37.13,1.45-.19,2.95-1.4,3.94"/>
        <path class="cls-5" d="M74.83,68.44h0c2.35-1.59,5.55-.97,7.14,1.39l2.06,3.06-8.53,5.75-2.06-3.06c-1.59-2.35-.97-5.55,1.39-7.14"/>
        <path class="cls-4" d="M75.51,79.93c-.08,0-.16,0-.25-.02-.34-.07-.63-.26-.82-.54l-2.06-3.06c-.96-1.42-1.31-3.14-.98-4.82.33-1.68,1.29-3.14,2.72-4.1h0c1.43-.96,3.14-1.31,4.82-.98,1.69.33,3.15,1.29,4.11,2.72l2.06,3.06c.4.59.24,1.39-.35,1.79l-8.53,5.75c-.21.15-.47.22-.72.22ZM75.55,69.51c-.85.58-1.43,1.45-1.63,2.46-.2,1.01.01,2.04.59,2.89l1.34,1.99,6.39-4.31-1.34-1.99c-1.19-1.76-3.59-2.23-5.35-1.04h0Z"/>
      </g>
    </g>
  </g>
</svg>