<?xml version="1.0" encoding="UTF-8"?>
<svg id="Layer_2" data-name="Layer 2" xmlns="http://www.w3.org/2000/svg" viewBox="0 0 126 126">
  <defs>
    <style>
      .cls-1 {
        fill: none;
        stroke: #081b1e;
        stroke-linecap: round;
        stroke-linejoin: round;
        stroke-width: 1.4px;
      }

      .cls-2 {
        fill: #fab82f;
      }

      .cls-3 {
        fill: #f8ead6;
      }

      .cls-4 {
        fill: #ef4324;
      }

      .cls-5 {
        fill: #081b1e;
      }

      .cls-6 {
        fill: #6eb460;
      }
    </style>
  </defs>
  <g id="Layer_1-2" data-name="Layer 1">
    <g>
      <rect class="cls-3" width="126" height="126"/>
      <g>
        <path class="cls-2" d="m59.78,60.2c1.13-1.5,2.57-2.56,4.3-3.17h0c1.11-.39,2.33-.59,3.63-.6.56,0,1.09-.27,1.41-.71l.31-.42h0s14.2-19.54,14.2-19.54c1.59,1.54,1.86,4.08.53,5.9l-12.61,17.35h0s-.51.7-.51.7c-.45.62-1.23.91-1.98.74,0,0-.02,0-.02,0-.25-.05-1.11-.2-2.19-.07,0,0,0,0,0,0t0,0c-1.13.14-2.67.62-3.85,2.05l-3.22-2.22Z"/>
        <path class="cls-1" d="m59.78,60.2c1.13-1.5,2.57-2.56,4.3-3.17h0c1.11-.39,2.33-.59,3.63-.6.56,0,1.09-.27,1.41-.71l.31-.42h0s14.2-19.54,14.2-19.54c1.59,1.54,1.86,4.08.53,5.9l-12.61,17.35h0s-.51.7-.51.7c-.45.62-1.23.91-1.98.74,0,0-.02,0-.02,0-.25-.05-1.11-.2-2.19-.07,0,0,0,0,0,0t0,0c-1.13.14-2.67.62-3.85,2.05l-3.22-2.22Z"/>
        <path class="cls-4" d="m57.98,71.94l-5.05-3.4-11.43,16.87c-.45.67-.61,1.47-.45,2.26.16.79.62,1.47,1.3,1.92,1.4.92,3.3.55,4.24-.83l11.4-16.82Z"/>
        <path class="cls-1" d="m57.98,71.94l-5.05-3.4-11.43,16.87c-.45.67-.61,1.47-.45,2.26.16.79.62,1.47,1.3,1.92,1.4.92,3.3.55,4.24-.83l11.4-16.82Z"/>
        <path class="cls-6" d="m67.56,49.74c.53.27,1.19.26,1.72-.09.39-.25.63-.64.73-1.06.35.06.7.05,1.04-.05.71-.21,1.18-.7,1.33-1.36.17-.73-.1-1.57-.66-2.09-.65-.6-1.65-.83-2.63-.61-.11.02-.21.05-.32.09.03-.11.07-.22.1-.32.59-1.61,1.97-2.77,3.42-2.89.68-.06,1.37.1,2.01.27.14.04.28.09.43.13-.47,0-.94.14-1.32.47-.56.48-.78,1.21-.66,1.89.65.23,1.4.12,1.97-.37.54-.46.76-1.14.67-1.79.99.33,1.95.72,2.88,1.18.21.1.41.21.62.32.87.45,1.77.91,2.74,1.12-.27.39-.42.85-.38,1.36.06.78.55,1.42,1.21,1.74.6-.42.98-1.13.91-1.91-.03-.4-.18-.77-.4-1.07.44-.02.9-.1,1.39-.27.36-.13.68-.33.96-.59.03.21.09.42.19.62.34.64.98,1,1.66,1.02.35-.57.41-1.31.07-1.94-.24-.45-.64-.76-1.09-.91.27-.74.24-1.55-.09-2.24-.14-.29-.3-.57-.47-.83,0,.33-.08.67-.2,1,.02.03.04.07.06.1.28.59.29,1.26.04,1.85-.25.6-.74,1.07-1.35,1.29-1.87.66-3.35-.11-4.92-.92-.18-.09-.36-.18-.54-.27.34-.49.48-1.1.32-1.71-.19-.76-.78-1.31-1.48-1.51-.52.51-.77,1.28-.58,2.04.04.18.11.34.19.49-.86-.36-1.74-.66-2.64-.91-.47-.13-.96-.24-1.47-.28.12-.58,0-1.2-.39-1.71-.48-.62-1.23-.9-1.96-.8-.28.68-.2,1.48.27,2.1.17.22.38.4.6.53-.84.23-1.62.73-2.24,1.43-.4-.54-1.02-.89-1.74-.87-.78.02-1.45.46-1.8,1.11.38.62,1.07,1.04,1.86,1.02.37,0,.71-.12,1.01-.29-.15.26-.28.53-.39.82-.1.28-.19.58-.24.89-.4.22-.8.52-1.19.88-.12.11-.23.22-.35.33-.16.15-.31.3-.48.45-.15.12-.16.34-.03.48.12.14.34.16.48.03.17-.15.34-.31.5-.47.11-.11.22-.21.33-.32.22-.2.44-.38.67-.54.01.81.27,1.62.92,2.23-.17.05-.34.11-.5.22-.53.35-.8.95-.77,1.54m1.06-4.38c.21-.09.41-.16.62-.21.76-.17,1.54,0,2.02.45.38.36.58.95.46,1.44-.07.29-.27.68-.86.86-.49.15-1.04.03-1.45-.31-.68-.56-.87-1.41-.79-2.23"/>
        <path class="cls-2" d="m59.62,64.03h0c-1.33-.9-3.14-.55-4.04.79l-1.17,1.73,4.83,3.26,1.17-1.73c.9-1.33.55-3.14-.79-4.04"/>
        <path class="cls-1" d="m59.62,64.03h0c-1.33-.9-3.14-.55-4.04.79l-1.17,1.73,4.83,3.26,1.17-1.73c.9-1.33.55-3.14-.79-4.04Z"/>
        <path class="cls-2" d="m66.22,60.2c-1.13-1.5-2.57-2.56-4.3-3.17h0c-1.11-.39-2.33-.59-3.63-.6-.56,0-1.09-.27-1.41-.71l-.31-.42h0s-14.2-19.54-14.2-19.54c-1.59,1.54-1.86,4.08-.53,5.9l12.61,17.35h0s.51.7.51.7c.45.62,1.23.91,1.98.74,0,0,.02,0,.02,0,.25-.05,1.11-.2,2.19-.07,0,0,0,0,0,0t0,0c1.13.14,2.67.62,3.85,2.05l3.22-2.22Z"/>
        <path class="cls-1" d="m66.22,60.2c-1.13-1.5-2.57-2.56-4.3-3.17h0c-1.11-.39-2.33-.59-3.63-.6-.56,0-1.09-.27-1.41-.71l-.31-.42h0s-14.2-19.54-14.2-19.54c-1.59,1.54-1.86,4.08-.53,5.9l12.61,17.35h0s.51.7.51.7c.45.62,1.23.91,1.98.74,0,0,.02,0,.02,0,.25-.05,1.11-.2,2.19-.07,0,0,0,0,0,0t0,0c1.13.14,2.67.62,3.85,2.05l3.22-2.22Z"/>
        <path class="cls-4" d="m68.02,71.94l5.05-3.4,11.43,16.87c.45.67.61,1.47.45,2.26-.16.79-.62,1.47-1.3,1.92-1.4.92-3.3.55-4.24-.83l-11.4-16.82Z"/>
        <path class="cls-1" d="m68.02,71.94l5.05-3.4,11.43,16.87c.45.67.61,1.47.45,2.26-.16.79-.62,1.47-1.3,1.92-1.4.92-3.3.55-4.24-.83l-11.4-16.82Z"/>
        <path class="cls-6" d="m57.66,48.2c-.16-.1-.33-.17-.5-.21.65-.61.9-1.42.91-2.23.22.15.44.33.67.54.11.1.22.21.33.32.17.16.33.32.5.47.14.12.36.11.48-.03.12-.14.12-.35-.03-.48-.16-.14-.32-.29-.48-.45-.11-.11-.23-.22-.35-.33-.39-.36-.79-.66-1.19-.88-.05-.31-.14-.61-.24-.89-.11-.29-.24-.56-.39-.82.3.17.64.28,1.01.29.78.02,1.47-.4,1.85-1.02-.35-.64-1.02-1.09-1.8-1.11-.72-.02-1.34.34-1.74.87-.62-.7-1.4-1.2-2.24-1.43.23-.13.43-.31.6-.53.48-.62.55-1.42.27-2.1-.73-.09-1.48.18-1.96.8-.39.51-.51,1.13-.39,1.71-.51.05-1,.16-1.47.28-.9.24-1.78.55-2.64.91.08-.15.15-.31.19-.49.19-.76-.06-1.52-.58-2.04-.7.2-1.29.75-1.48,1.51-.16.62-.01,1.23.32,1.71-.18.09-.36.18-.54.27-1.57.81-3.05,1.58-4.92.92-.61-.21-1.1-.68-1.35-1.29-.25-.59-.23-1.26.04-1.85.02-.03.04-.07.06-.1-.13-.33-.2-.66-.2-1-.17.26-.33.54-.47.83-.33.7-.35,1.51-.09,2.24-.45.15-.85.46-1.09.91-.34.64-.29,1.37.07,1.94.67-.02,1.31-.38,1.66-1.02.11-.2.16-.41.19-.62.28.25.6.46.96.59.49.17.95.25,1.39.27-.22.3-.37.67-.4,1.07-.06.78.31,1.49.91,1.91.66-.32,1.14-.96,1.21-1.74.04-.51-.11-.97-.38-1.36.97-.21,1.86-.67,2.74-1.12.21-.11.41-.21.62-.32.93-.46,1.89-.86,2.88-1.19-.09.65.13,1.33.67,1.79.56.48,1.31.59,1.97.37.13-.68-.1-1.41-.66-1.89-.38-.33-.86-.47-1.32-.47.14-.04.28-.09.43-.13.65-.18,1.34-.33,2.01-.27,1.45.12,2.83,1.28,3.42,2.89.04.1.07.21.1.32-.11-.03-.21-.06-.32-.09-.98-.22-1.98.01-2.63.61-.56.52-.83,1.36-.66,2.09.15.66.62,1.15,1.33,1.36.34.1.69.11,1.04.05.1.42.34.8.73,1.06.54.35,1.19.36,1.72.09.03-.6-.24-1.19-.77-1.54m-1.07-.61c-.41.34-.96.46-1.45.31-.59-.18-.8-.57-.86-.86-.11-.49.08-1.08.46-1.44.49-.45,1.26-.62,2.02-.45.2.05.41.12.62.21.08.82-.11,1.67-.79,2.23"/>
        <path class="cls-2" d="m66.38,64.03h0c1.33-.9,3.14-.55,4.04.79l1.17,1.73-4.83,3.26-1.17-1.73c-.9-1.33-.55-3.14.79-4.04"/>
        <path class="cls-1" d="m66.38,64.03h0c1.33-.9,3.14-.55,4.04.79l1.17,1.73-4.83,3.26-1.17-1.73c-.9-1.33-.55-3.14.79-4.04Z"/>
      </g>
      <rect class="cls-5" x="35.91" y="10.45" width="54.17" height="1"/>
      <g>
        <rect class="cls-5" x="35.91" y="10.45" width="54.17" height="1"/>
        <rect class="cls-5" x="35.91" y="114.55" width="54.17" height="1"/>
        <rect class="cls-5" x="87.96" y="62.5" width="54.17" height="1" transform="translate(178.05 -52.05) rotate(90)"/>
        <rect class="cls-5" x="-16.14" y="62.5" width="54.17" height="1" transform="translate(73.95 52.05) rotate(90)"/>
      </g>
      <circle class="cls-5" cx="17.95" cy="17.95" r="10.46"/>
      <polygon class="cls-3" points="15.28 15.28 15.78 22.17 22.17 15.78 15.28 15.28"/>
      <g>
        <circle class="cls-5" cx="108.05" cy="17.95" r="10.46"/>
        <polygon class="cls-3" points="110.72 15.28 103.83 15.78 110.22 22.17 110.72 15.28"/>
      </g>
      <g>
        <circle class="cls-5" cx="108.05" cy="108.05" r="10.46"/>
        <polygon class="cls-3" points="110.72 110.72 110.22 103.83 103.83 110.22 110.72 110.72"/>
      </g>
      <g>
        <circle class="cls-5" cx="17.95" cy="108.05" r="10.46"/>
        <polygon class="cls-3" points="15.28 110.72 22.17 110.22 15.78 103.83 15.28 110.72"/>
      </g>
    </g>
  </g>
</svg>