<?xml version="1.0" encoding="UTF-8"?>
<svg id="Layer_2" data-name="Layer 2" xmlns="http://www.w3.org/2000/svg" xmlns:xlink="http://www.w3.org/1999/xlink" viewBox="0 0 228.92 228.92">
  <defs>
    <style>
      .cls-1, .cls-2 {
        fill: none;
      }

      .cls-2 {
        stroke: #d6b890;
        stroke-width: 4.42px;
      }

      .cls-2, .cls-3 {
        stroke-miterlimit: 10;
      }

      .cls-4 {
        fill: #f8ead6;
      }

      .cls-5 {
        fill: #6db360;
      }

      .cls-6 {
        clip-path: url(#clippath-6);
      }

      .cls-7, .cls-3 {
        fill: #f8b62c;
      }

      .cls-8 {
        fill: #081b1e;
      }

      .cls-9 {
        clip-path: url(#clippath);
      }

      .cls-3 {
        stroke: #081b1e;
        stroke-width: 2.5px;
      }

      .cls-10 {
        fill: #ee4423;
      }
    </style>
    <clipPath id="clippath">
      <rect class="cls-1" x="2.21" y="2.21" width="224.49" height="224.49" rx="18.06" ry="18.06"/>
    </clipPath>
    <clipPath id="clippath-6">
      <rect class="cls-2" x="2.21" y="2.21" width="224.49" height="224.49" rx="18.06" ry="18.06"/>
    </clipPath>
  </defs>
  <g id="Layer_1-2" data-name="Layer 1">
    <g>
      <g>
        <g class="cls-9">
          <rect class="cls-4" x="2.21" y="2.21" width="224.49" height="224.49"/>
        </g>
        <g>
          <g class="cls-6">
            <g>
              <rect class="cls-2" x="2.21" y="2.21" width="224.49" height="224.49"/>
              <rect class="cls-2" x="2.21" y="2.21" width="224.49" height="224.49"/>
              <rect class="cls-2" x="2.21" y="2.21" width="224.49" height="224.49"/>
              <rect class="cls-2" x="2.21" y="2.21" width="224.49" height="224.49"/>
              <rect class="cls-2" x="2.21" y="2.21" width="224.49" height="224.49"/>
              <rect class="cls-2" x="2.21" y="2.21" width="224.49" height="224.49"/>
            </g>
          </g>
          <rect class="cls-2" x="2.21" y="2.21" width="224.49" height="224.49" rx="18.06" ry="18.06"/>
        </g>
      </g>
      <g>
        <g>
          <path class="cls-10" d="M58.31,196.18c-2.04,0-4.01-.59-5.71-1.71-2.29-1.51-3.85-3.81-4.39-6.47-.54-2.67,0-5.39,1.54-7.64l34.57-51.01,17.02,11.48-34.46,50.85c-1.91,2.82-5.11,4.5-8.56,4.5h0Z"/>
          <path class="cls-8" d="M84.64,131.09l14.95,10.08-33.76,49.81c-1.74,2.56-4.61,3.95-7.53,3.95-1.73,0-3.48-.49-5.03-1.5-2.01-1.33-3.38-3.34-3.85-5.68-.47-2.34,0-4.71,1.34-6.69l33.87-49.97M83.97,127.62l-1.4,2.07-33.87,49.97c-1.72,2.54-2.33,5.59-1.73,8.59.61,2.99,2.36,5.57,4.93,7.27,1.91,1.26,4.12,1.92,6.4,1.92,3.87,0,7.45-1.89,9.6-5.05l33.76-49.81,1.41-2.07-2.08-1.4-14.95-10.08-2.07-1.4h0Z"/>
        </g>
        <path class="cls-5" d="M127.97,75.41c1.58.79,3.52.77,5.1-.27,1.15-.75,1.87-1.89,2.15-3.13,1.02.19,2.08.16,3.07-.14,2.09-.63,3.48-2.07,3.93-4.03.49-2.16-.3-4.64-1.97-6.18-1.91-1.77-4.9-2.46-7.79-1.81-.31.07-.63.16-.94.26.09-.32.2-.64.31-.95,1.76-4.76,5.82-8.2,10.13-8.56,2-.17,4.05.29,5.96.81.42.12.84.25,1.27.38-1.39-.02-2.78.4-3.92,1.38-1.67,1.43-2.32,3.58-1.95,5.6,1.94.67,4.16.35,5.83-1.08,1.59-1.36,2.25-3.38,1.98-5.3,2.93.97,5.79,2.14,8.54,3.51.61.31,1.22.62,1.84.94,2.59,1.34,5.23,2.68,8.11,3.31-.79,1.14-1.25,2.52-1.13,4.02.19,2.32,1.62,4.22,3.57,5.15,1.78-1.24,2.89-3.34,2.7-5.66-.1-1.2-.54-2.28-1.2-3.18,1.31-.07,2.67-.3,4.11-.81,1.07-.38,2.02-.99,2.85-1.73.1.62.26,1.24.58,1.83,1.01,1.88,2.91,2.95,4.9,3.02,1.04-1.7,1.2-3.88.19-5.76-.72-1.34-1.89-2.24-3.22-2.69.79-2.18.72-4.58-.26-6.65-.42-.87-.89-1.68-1.4-2.46-.03.98-.22,1.97-.61,2.95.05.1.12.2.17.3.83,1.75.86,3.72.13,5.48-.75,1.79-2.2,3.18-4,3.81-5.54,1.95-9.93-.33-14.57-2.73-.53-.27-1.06-.55-1.59-.81.99-1.44,1.42-3.25.96-5.08-.57-2.25-2.3-3.88-4.39-4.48-1.55,1.52-2.29,3.78-1.71,6.03.13.52.33,1,.58,1.45-2.55-1.05-5.17-1.97-7.83-2.69-1.39-.38-2.84-.7-4.34-.84.35-1.72,0-3.56-1.15-5.06-1.42-1.84-3.65-2.66-5.8-2.38-.82,2.01-.61,4.37.81,6.22.5.65,1.11,1.17,1.78,1.56-2.48.68-4.79,2.17-6.64,4.24-1.17-1.59-3.02-2.64-5.15-2.59-2.32.06-4.3,1.38-5.35,3.27,1.13,1.85,3.17,3.08,5.5,3.02,1.09-.03,2.1-.35,2.98-.87-.44.77-.84,1.57-1.15,2.42-.31.83-.55,1.72-.71,2.64-1.19.66-2.37,1.53-3.54,2.6-.34.32-.68.64-1.02.98-.46.45-.93.9-1.41,1.32-.44.37-.46,1-.1,1.42.36.42,1,.46,1.42.1.51-.44,1-.92,1.49-1.39.33-.32.66-.63.99-.94.66-.61,1.31-1.14,1.97-1.59.03,2.41.8,4.8,2.71,6.61-.52.14-1.02.33-1.49.64-1.58,1.04-2.38,2.8-2.29,4.57M131.09,62.43c.61-.27,1.22-.48,1.82-.62,2.25-.51,4.55,0,5.99,1.32,1.14,1.05,1.7,2.8,1.37,4.26-.2.87-.8,2.03-2.56,2.56-1.44.44-3.08.09-4.28-.91-2.01-1.67-2.56-4.18-2.34-6.61"/>
        <g>
          <path class="cls-10" d="M170.61,196.18c-3.45,0-6.65-1.68-8.56-4.5l-34.46-50.85,17.02-11.48,34.57,51.01c1.53,2.26,2.08,4.97,1.54,7.64-.54,2.66-2.1,4.96-4.39,6.47-1.7,1.12-3.68,1.71-5.72,1.71Z"/>
          <path class="cls-8" d="M144.28,131.09l33.87,49.97c1.34,1.98,1.82,4.35,1.34,6.69-.48,2.33-1.85,4.35-3.85,5.68-1.55,1.02-3.3,1.5-5.03,1.5-2.92,0-5.79-1.39-7.53-3.95l-33.76-49.81,14.95-10.08M144.95,127.62l-2.07,1.4-14.95,10.08-2.08,1.4,1.41,2.07,33.76,49.81c2.14,3.16,5.73,5.05,9.6,5.05,2.28,0,4.5-.66,6.4-1.92,2.57-1.7,4.32-4.28,4.93-7.26.61-3,0-6.05-1.72-8.59l-33.87-49.97-1.4-2.07h0Z"/>
        </g>
        <path class="cls-5" d="M98.65,70.85c-.47-.31-.98-.5-1.49-.64,1.91-1.81,2.67-4.2,2.71-6.61.66.45,1.31.99,1.97,1.59.33.31.66.62.99.94.49.47.98.95,1.49,1.39.42.36,1.05.32,1.42-.1.36-.42.34-1.05-.1-1.42-.48-.42-.95-.87-1.41-1.32-.34-.33-.68-.66-1.02-.98-1.17-1.08-2.35-1.94-3.54-2.6-.16-.92-.41-1.81-.71-2.64-.31-.85-.71-1.65-1.15-2.42.88.52,1.89.84,2.98.87,2.32.05,4.36-1.17,5.49-3.02-1.05-1.9-3.02-3.22-5.35-3.27-2.12-.05-3.97,1-5.15,2.59-1.85-2.06-4.16-3.56-6.64-4.24.67-.39,1.28-.91,1.78-1.56,1.42-1.84,1.63-4.21.81-6.22-2.15-.28-4.38.54-5.8,2.38-1.15,1.5-1.5,3.35-1.15,5.06-1.5.14-2.96.46-4.34.84-2.66.72-5.27,1.64-7.83,2.69.25-.45.44-.93.58-1.45.57-2.25-.17-4.51-1.71-6.03-2.09.59-3.81,2.23-4.39,4.48-.47,1.83-.04,3.64.96,5.08-.53.27-1.06.54-1.59.81-4.64,2.4-9.03,4.68-14.57,2.73-1.8-.63-3.25-2.02-4-3.81-.73-1.76-.7-3.73.13-5.48.05-.1.11-.2.17-.3-.38-.98-.58-1.97-.61-2.95-.51.78-.99,1.59-1.4,2.46-.98,2.07-1.05,4.47-.26,6.65-1.33.45-2.5,1.36-3.22,2.69-1.01,1.88-.85,4.06.19,5.76,1.99-.07,3.89-1.14,4.9-3.02.32-.59.48-1.21.58-1.83.84.74,1.78,1.36,2.85,1.73,1.44.51,2.8.74,4.11.81-.66.9-1.1,1.98-1.2,3.18-.19,2.32.92,4.42,2.7,5.66,1.95-.94,3.39-2.83,3.57-5.15.12-1.5-.34-2.87-1.13-4.02,2.87-.63,5.52-1.97,8.11-3.31.61-.32,1.23-.64,1.84-.94,2.75-1.37,5.61-2.55,8.54-3.51-.26,1.93.4,3.94,1.98,5.3,1.67,1.43,3.89,1.75,5.83,1.08.37-2.02-.28-4.17-1.95-5.6-1.14-.98-2.53-1.4-3.92-1.38.42-.13.84-.26,1.27-.38,1.92-.52,3.96-.98,5.96-.81,4.31.36,8.37,3.8,10.13,8.56.11.31.22.62.31.95-.31-.1-.63-.19-.94-.26-2.89-.65-5.88.04-7.79,1.81-1.67,1.54-2.46,4.02-1.97,6.18.45,1.96,1.84,3.4,3.93,4.03.99.3,2.05.33,3.07.14.28,1.24,1.01,2.38,2.15,3.13,1.59,1.04,3.52,1.06,5.11.27.09-1.76-.71-3.53-2.29-4.57M95.48,69.04c-1.2,1-2.84,1.35-4.28.91-1.75-.53-2.36-1.69-2.56-2.56-.33-1.45.23-3.2,1.37-4.26,1.44-1.33,3.73-1.83,5.99-1.32.6.14,1.21.34,1.82.62.22,2.43-.33,4.94-2.34,6.61"/>
      </g>
      <g>
        <path class="cls-7" d="M103.14,106.68l.78-1.04c3.43-4.55,7.83-7.82,13.06-9.72l.27-.1c3.44-1.21,7.19-1.83,11.16-1.84,1.26,0,2.44-.59,3.15-1.59l.98-1.33,42.86-58.97,1.03,1c5.22,5.06,5.96,13.28,1.72,19.12l-37.41,51.47-1.46,2c-1.29,1.78-3.37,2.84-5.57,2.84-.53,0-1.06-.06-1.58-.18-.53-.11-1.88-.34-3.7-.34-.64,0-1.27.03-1.9.09l-.05.06h-.61c-3.02.4-7.24,1.7-10.45,5.62l-.73.89-11.55-7.98Z"/>
        <path class="cls-8" d="M175.56,33.99c4.72,4.58,5.5,12.08,1.58,17.49l-37.35,51.39h0s-1.52,2.08-1.52,2.08c-1.08,1.49-2.78,2.33-4.56,2.33-.43,0-.86-.05-1.29-.15-.02,0-.05-.01-.07-.02-.52-.1-1.97-.35-3.91-.35-.79,0-1.65.04-2.57.15,0,0,0,0,0,0,0,0,0,0,0,0h0c-3.35.41-7.92,1.83-11.4,6.08l-9.53-6.59c3.34-4.43,7.62-7.59,12.75-9.39h0c3.3-1.17,6.91-1.76,10.74-1.77h0c1.66,0,3.21-.79,4.16-2.11l.91-1.25s0,0,0,0h0s42.07-57.89,42.07-57.89M175.23,30.19l-1.69,2.33-42,57.79-.07.1-.91,1.25c-.49.68-1.29,1.08-2.14,1.08-4.12,0-8.01.65-11.58,1.91l-.53.19h0c-5.35,2-9.84,5.38-13.37,10.06l-1.57,2.08,2.14,1.48,9.53,6.59,1.89,1.31,1.46-1.78c2.94-3.59,6.83-4.79,9.63-5.16h.88l.1-.1c.48-.04.96-.05,1.44-.05,1.7,0,2.96.21,3.42.31h.04c.62.15,1.22.21,1.81.21,2.6,0,5.06-1.26,6.59-3.36l1.39-1.9h0s.12-.17.12-.17l37.35-51.39c4.6-6.34,3.81-15.26-1.86-20.75l-2.07-2.01h0Z"/>
      </g>
      <path class="cls-3" d="M104.44,117.74h0c-3.95-2.66-9.31-1.62-11.97,2.33l-3.46,5.13,14.3,9.64,3.46-5.13c2.66-3.95,1.62-9.31-2.33-11.97"/>
      <g>
        <path class="cls-7" d="M113.96,113.01c-3.12-3.81-7.71-4.45-10.84-4.84l-.14-.02h-.12l-.07-.02c-.75-.08-1.53-.13-2.31-.13-1.82,0-3.17.23-3.66.33-.55.13-1.08.19-1.61.19-2.2,0-4.29-1.06-5.58-2.85l-1.52-2.07-37.35-51.39c-4.24-5.84-3.5-14.06,1.72-19.12l1.03-1,42.92,59.05.91,1.25c.72,1,1.9,1.59,3.15,1.59,3.97,0,7.73.62,11.16,1.84l.27.1c5.23,1.9,9.62,5.17,13.06,9.72l.81,1.08-11.14,7.16-.71-.86Z"/>
        <path class="cls-8" d="M53.35,33.99l42.07,57.89h0s0,0,0,0l.91,1.25c.95,1.32,2.5,2.11,4.16,2.11h0c3.83,0,7.44.6,10.74,1.77h0c5.13,1.8,9.41,4.96,12.75,9.39l-9.07,5.83c-3.49-4.25-8.51-4.9-11.87-5.32h0s0,0,0,0c0,0,0,0,0,0-.92-.11-1.78-.15-2.57-.15-1.93,0-3.38.25-3.91.35-.02,0-.05,0-.07.02-.43.1-.87.15-1.29.15-1.79,0-3.49-.84-4.56-2.33l-1.52-2.08h0s-37.35-51.39-37.35-51.39c-3.93-5.41-3.14-12.91,1.58-17.49M53.68,30.19l-2.07,2.01c-5.66,5.49-6.46,14.41-1.86,20.75l37.35,51.39.12.16h0s1.4,1.92,1.4,1.92c1.52,2.1,3.98,3.36,6.58,3.36.62,0,1.24-.07,1.84-.21h.02c.36-.07,1.67-.31,3.42-.31.48,0,.96.02,1.44.05l.1.1h.96c3.09.39,7.21.97,10.02,4.4l1.41,1.72,1.87-1.2,9.07-5.83,2.27-1.46-1.62-2.15c-3.52-4.67-8.02-8.05-13.36-10.04h0s-.54-.2-.54-.2c-3.57-1.26-7.46-1.9-11.57-1.91-.86,0-1.66-.4-2.14-1.07l-.92-1.26-.12-.16h0s-41.95-57.72-41.95-57.72l-1.69-2.33h0Z"/>
      </g>
      <path class="cls-3" d="M124.47,117.74h0c3.95-2.66,9.31-1.62,11.97,2.33l3.46,5.13-14.3,9.64-3.46-5.13c-2.66-3.95-1.62-9.31,2.33-11.97"/>
    </g>
  </g>
</svg>