<?xml version="1.0" encoding="UTF-8"?>
<svg id="Layer_2" data-name="Layer 2" xmlns="http://www.w3.org/2000/svg" viewBox="0 0 126 126">
  <defs>
    <style>
      .cls-1, .cls-2 {
        fill: none;
      }

      .cls-3, .cls-4 {
        fill: #f9b72d;
      }

      .cls-5 {
        fill: #f8ead6;
      }

      .cls-6 {
        fill: #f8e9d5;
      }

      .cls-7 {
        fill: #ef4324;
      }

      .cls-8 {
        fill: #081b1e;
      }

      .cls-9 {
        fill: #5e7dbe;
      }

      .cls-10 {
        fill: #ef4423;
      }

      .cls-10, .cls-11, .cls-4 {
        stroke: #000;
      }

      .cls-10, .cls-11, .cls-4, .cls-2 {
        stroke-miterlimit: 10;
      }

      .cls-11 {
        fill: #6cb460;
      }

      .cls-2 {
        stroke: #081b1e;
      }
    </style>
  </defs>
  <g id="Layer_1-2" data-name="Layer 1">
    <g>
      <rect class="cls-5" width="126" height="126"/>
      <path class="cls-1" d="m108.21,98.59c-3.63,0-6.78,2.06-8.37,5.07h16.74c-1.59-3.01-4.74-5.07-8.37-5.07Z"/>
      <path class="cls-1" d="m108.21,117.51c3.63,0,6.78-2.06,8.37-5.07h-16.74c1.59,3.01,4.74,5.07,8.37,5.07Z"/>
      <g>
        <path class="cls-8" d="m109.94,11.45c2.54,0,4.61,2.07,4.61,4.61v74.03h1V16.06c0-3.09-2.52-5.61-5.61-5.61H35.91v1h74.03Z"/>
        <path class="cls-8" d="m16.06,114.55c-2.54,0-4.61-2.07-4.61-4.61V35.91h-1v74.03c0,3.09,2.52,5.61,5.61,5.61h74.03v-1H16.06Z"/>
      </g>
      <path class="cls-2" d="m101.08,114.35c0-1.06.4-2.13,1.22-2.94l1.7-1.69,5.88-5.88,7.57,7.57c.81.81,1.22,1.88,1.22,2.94s-.41,2.13-1.22,2.94c-1.62,1.62-4.26,1.62-5.88,0l-1.69-1.69-1.69,1.69c-1.62,1.62-4.26,1.62-5.89,0-.82-.81-1.22-1.88-1.22-2.94Z"/>
      <line class="cls-2" x1="59.76" y1="32.33" x2="66.08" y2="32.33"/>
      <g>
        <path class="cls-7" d="m18.58,17.82l-2.44-.65c-1.23-.33-2.51-.27-3.71.16l-1.31.47,6.66,6.66,6.99-6.98-3.28.49c-.98.15-1.96.09-2.91-.16Z"/>
        <path class="cls-8" d="m25.72,11.37c-1.82-1.82-4.78-1.82-6.59,0l-1.34,1.34-1.34-1.34c-1.82-1.82-4.77-1.81-6.59,0-.88.88-1.37,2.05-1.37,3.29s.49,2.41,1.37,3.29l7.93,7.93,7.93-7.93c.22-.21.41-.45.57-.69l-1.52.23-6.99,6.98-6.66-6.66-.74.27-.34-.94.33-.12c-.56-.66-.88-1.48-.88-2.35,0-.98.38-1.89,1.07-2.59.71-.71,1.65-1.07,2.59-1.07s1.87.36,2.59,1.07l2.05,2.05,2.05-2.05c1.43-1.43,3.75-1.43,5.18,0,.69.69,1.07,1.6,1.07,2.59,0,.6-.16,1.17-.43,1.69l.5-.07.14.98c.51-.76.78-1.65.78-2.59,0-1.25-.49-2.42-1.37-3.29Z"/>
        <path class="cls-8" d="m25.66,16.35l-4.31.64c-.84.13-1.69.08-2.51-.14l-2.44-.65c-1.43-.38-2.91-.31-4.3.19l-1.72.62c.07.08.12.16.19.24l.56.56,1.31-.47c1.2-.43,2.48-.49,3.71-.16l2.44.65c.95.25,1.94.31,2.91.16l3.28-.49.24-.24c.27-.27.47-.57.64-.9Z"/>
        <path class="cls-8" d="m26.31,17.27h0s0,0-.01,0h.01Z"/>
        <path class="cls-8" d="m25.66,16.35c-.17.33-.38.63-.64.9l-.24.24,1.52-.23s0,0,.01-.01l-.14-.98-.5.07Z"/>
        <path class="cls-8" d="m10.37,17.02l-.33.12.34.94.74-.27-.56-.56c-.07-.07-.13-.16-.19-.24Z"/>
      </g>
      <g>
        <path class="cls-7" d="m109.08,111.3l2.44.65c1.23.33,2.51.27,3.71-.16l1.31-.47-6.66-6.66-6.99,6.98,3.28-.49c.98-.15,1.96-.09,2.91.16Z"/>
        <path class="cls-8" d="m101.94,117.75c1.82,1.82,4.78,1.82,6.59,0l1.34-1.34,1.34,1.34c1.82,1.82,4.77,1.81,6.59,0,.88-.88,1.37-2.05,1.37-3.29s-.49-2.41-1.37-3.29l-7.93-7.93-7.93,7.93c-.22.21-.41.45-.57.69l1.52-.23,6.99-6.98,6.66,6.66.74-.27.34.94-.33.12c.56.66.88,1.48.88,2.35,0,.98-.38,1.89-1.07,2.59-.71.71-1.65,1.07-2.59,1.07s-1.87-.36-2.59-1.07l-2.05-2.05-2.05,2.05c-1.43,1.43-3.75,1.43-5.18,0-.69-.69-1.07-1.6-1.07-2.59,0-.6.16-1.17.43-1.69l-.5.07-.14-.98c-.51.76-.78,1.65-.78,2.59,0,1.25.49,2.42,1.37,3.29Z"/>
        <path class="cls-8" d="m102,112.77l4.31-.64c.84-.13,1.69-.08,2.51.14l2.44.65c1.43.38,2.91.31,4.3-.19l1.72-.62c-.07-.08-.12-.16-.19-.24l-.56-.56-1.31.47c-1.2.43-2.48.49-3.71.16l-2.44-.65c-.95-.25-1.94-.31-2.91-.16l-3.28.49-.24.24c-.27.27-.47.57-.64.9Z"/>
        <path class="cls-8" d="m101.35,111.86h0s0,0,.01,0h-.01Z"/>
        <path class="cls-8" d="m102,112.77c.17-.33.38-.63.64-.9l.24-.24-1.52.23s0,0-.01.01l.14.98.5-.07Z"/>
        <path class="cls-8" d="m117.29,112.1l.33-.12-.34-.94-.74.27.56.56c.07.07.13.16.19.24Z"/>
      </g>
      <g>
        <polyline class="cls-3" points="66.97 38.51 80.7 38.51 84.3 53.03 79.27 53.03 77.12 43.39 68.25 43.39"/>
        <path class="cls-3" d="m62.92,36.15h-1.93c-.73,0-1.36.49-1.55,1.19l-2.85,9.51h12.66l-2.85-9.51c-.19-.7-.82-1.19-1.55-1.19h-1.93v-4.19"/>
        <path class="cls-3" d="m62.92,46.85h-6.76c-1.7,0-3.08,1.38-3.08,3.08v6.59h19.69"/>
        <path class="cls-3" d="m72.76,56.52v-6.59c0-1.7-1.38-3.08-3.08-3.08h-6.76"/>
        <line class="cls-2" x1="58.35" y1="40.3" x2="54.54" y2="40.3"/>
        <polygon class="cls-3" points="54.39 42.82 45.55 41.89 45.55 38.71 54.39 37.78 54.39 42.82"/>
        <polyline class="cls-2" points="66.97 38.51 80.7 38.51 84.3 53.03 79.27 53.03 77.12 43.39 68.25 43.39"/>
        <path class="cls-2" d="m62.92,36.15h-1.93c-.73,0-1.36.49-1.55,1.19l-2.85,9.51h12.66l-2.85-9.51c-.19-.7-.82-1.19-1.55-1.19h-1.93v-4.19"/>
        <path class="cls-2" d="m62.92,46.85h-6.76c-1.7,0-3.08,1.38-3.08,3.08v6.59h19.69"/>
        <path class="cls-2" d="m72.76,56.52v-6.59c0-1.7-1.38-3.08-3.08-3.08h-6.76"/>
        <polygon class="cls-2" points="54.39 42.82 45.55 41.89 45.55 38.71 54.39 37.78 54.39 42.82"/>
        <line class="cls-2" x1="41.83" y1="40.3" x2="33.72" y2="40.3"/>
        <line class="cls-2" x1="41.83" y1="37.26" x2="37.77" y2="35.53"/>
        <line class="cls-2" x1="41.83" y1="43.34" x2="37.77" y2="45.07"/>
        <g>
          <path class="cls-5" d="m62.92,55.63h-5.5c-5.55,0-10.05,4.5-10.05,10.05v22.74c0,2.72,2.21,4.93,4.93,4.93h10.63"/>
          <path class="cls-5" d="m62.92,55.63h5.5c5.55,0,10.05,4.5,10.05,10.05v22.74c0,2.72-2.21,4.93-4.93,4.93h-10.63"/>
        </g>
        <path class="cls-1" d="m68.42,56.13h-11c-5.01,0-9.12,3.88-9.52,8.79h30.03c-.39-4.91-4.51-8.79-9.52-8.79Z"/>
        <path class="cls-8" d="m68.42,56.13c5.01,0,9.12,3.88,9.52,8.79h1c-.4-5.46-4.95-9.79-10.52-9.79h-5.5v1h5.5Z"/>
        <path class="cls-8" d="m57.42,56.13h5.5v-1h-5.5c-5.56,0-10.12,4.32-10.52,9.79h1c.39-4.91,4.51-8.79,9.52-8.79Z"/>
        <path class="cls-9" d="m77.98,88.43v-20.58l-4.42,1.2c-3.83,1.04-7.74,1.56-11.68,1.56-1.44,0-2.88-.07-4.33-.21l-9.68-.94v18.97c0,2.44,1.99,4.43,4.43,4.43h21.26c2.44,0,4.43-1.99,4.43-4.43Z"/>
        <path class="cls-8" d="m77.98,65.69v1.12l.37-.1.26.96-.63.17v20.58c0,2.44-1.99,4.43-4.43,4.43h-10.63v1h10.63c2.99,0,5.43-2.44,5.43-5.43v-22.74c0-.26-.02-.51-.04-.77h-1c.02.25.04.51.04.77Z"/>
        <path class="cls-8" d="m46.87,88.43c0,2.99,2.43,5.43,5.43,5.43h10.63v-1h-10.63c-2.44,0-4.43-1.99-4.43-4.43v-18.97l-.55-.05.1-1,.45.04v-2.77c0-.26.02-.51.04-.77h-1c-.02.25-.04.51-.04.77v22.74Z"/>
        <path class="cls-8" d="m61.87,70.61c3.94,0,7.86-.52,11.68-1.56l4.42-1.2v-1.04l-4.69,1.27c-5.11,1.39-10.37,1.83-15.65,1.32l-9.77-.95v1.01l9.68.94c1.44.14,2.89.21,4.33.21Z"/>
        <polygon class="cls-8" points="78.61 67.67 78.35 66.71 77.98 66.81 77.98 67.85 78.61 67.67"/>
        <polygon class="cls-8" points="47.41 68.41 47.32 69.41 47.87 69.46 47.87 68.46 47.41 68.41"/>
        <g>
          <circle class="cls-6" cx="62.88" cy="86.33" r=".92"/>
          <circle class="cls-6" cx="74.17" cy="76.3" r="1.56"/>
        </g>
        <path class="cls-4" d="m68.48,86.84c.8-1.04,4.93-4.91,5.82-4.22s-1.81,5.67-2.6,6.7-2.17,1.32-3.05.63c-.89-.68-.96-2.08-.16-3.11"/>
        <path class="cls-11" d="m58.87,76.19c3.29-1.07,10.56-2.11,11.05-.63.48,1.48-6.01,4.91-9.31,5.98-3.29,1.07-.55-1.15-1.03-2.63-.48-1.48-4.01-1.66-.71-2.73"/>
        <path class="cls-10" d="m55.51,85.11c-1.3-1.79-3.17-2.9-5.18-3.28-.25,2.03.22,4.15,1.52,5.94,1.3,1.78,3.17,2.9,5.18,3.28.25-2.03-.22-4.15-1.52-5.94"/>
        <circle class="cls-6" cx="53.2" cy="74.04" r=".78"/>
      </g>
    </g>
  </g>
</svg>