<?xml version="1.0" encoding="UTF-8"?>
<svg id="Layer_2" data-name="Layer 2" xmlns="http://www.w3.org/2000/svg" viewBox="0 0 133.2 133.2">
  <defs>
    <style>
      .cls-1 {
        fill: none;
      }

      .cls-2 {
        fill: #5e7dbd;
      }

      .cls-3 {
        fill: #f8ead6;
      }

      .cls-4 {
        fill: #f8b62c;
      }

      .cls-5 {
        fill: #081b1e;
      }

      .cls-6 {
        fill: #f7e8d4;
      }

      .cls-7 {
        fill: #6cb360;
      }

      .cls-8 {
        fill: #ee4423;
      }
    </style>
  </defs>
  <g id="Art">
    <g>
      <rect class="cls-3" width="133.2" height="133.2"/>
      <g>
        <polyline class="cls-4" points="74.78 24.46 97.92 24.46 104 48.94 95.51 48.94 91.89 32.69 76.93 32.69"/>
        <path class="cls-4" d="M67.95,20.49h-3.25c-1.23,0-2.3.82-2.62,2.01l-4.8,16.02h21.33l-4.8-16.02c-.32-1.18-1.39-2.01-2.62-2.01h-3.25v-7.06"/>
        <path class="cls-4" d="M67.95,38.53h-11.4c-2.87,0-5.19,2.33-5.19,5.19v11.11h33.19"/>
        <path class="cls-4" d="M84.54,54.83v-11.11c0-2.87-2.33-5.19-5.19-5.19h-11.4"/>
        <rect class="cls-5" x="53.82" y="26.6" width="6.42" height="1.76"/>
        <polygon class="cls-4" points="53.56 31.73 38.67 30.16 38.67 24.8 53.56 23.23 53.56 31.73"/>
        <polygon class="cls-5" points="105.12 49.82 94.81 49.82 91.18 33.57 76.92 33.57 76.92 31.81 92.59 31.81 96.22 48.06 102.87 48.06 97.23 25.34 74.78 25.34 74.78 23.58 98.6 23.58 105.12 49.82"/>
        <path class="cls-5" d="M79.8,39.41h-23.69l5.14-17.15c.41-1.54,1.83-2.63,3.46-2.63h2.37v-6.18h1.76v6.18h2.38c1.62,0,3.05,1.09,3.46,2.66l5.13,17.13ZM58.46,37.65h18.97l-4.46-14.89c-.22-.82-.95-1.38-1.77-1.38h-6.51c-.83,0-1.55.56-1.77,1.36l-4.47,14.92Z"/>
        <path class="cls-5" d="M84.54,55.71h-34.06v-11.99c0-3.35,2.72-6.07,6.07-6.07h11.4v1.76h-11.4c-2.38,0-4.32,1.94-4.32,4.32v10.23h32.31v1.76Z"/>
        <path class="cls-5" d="M85.42,54.83h-1.76v-11.11c0-2.38-1.94-4.32-4.32-4.32h-11.4v-1.76h11.4c3.35,0,6.07,2.72,6.07,6.07v11.11Z"/>
        <path class="cls-5" d="M54.44,32.71l-16.65-1.76v-6.93l16.65-1.76v10.45ZM39.55,29.37l13.13,1.39v-6.55l-13.13,1.39v3.77Z"/>
        <rect class="cls-5" x="18.72" y="26.6" width="13.68" height="1.76"/>
        <rect class="cls-5" x="28.1" y="17.19" width="1.76" height="7.43" transform="translate(-1.62 39.36) rotate(-66.91)"/>
        <rect class="cls-5" x="25.26" y="33.18" width="7.43" height="1.76" transform="translate(-11.04 14.11) rotate(-23.11)"/>
        <g>
          <path class="cls-3" d="M67.95,53.33h-9.27c-9.36,0-16.95,7.59-16.95,16.95v38.33c0,4.59,3.72,8.31,8.31,8.31h17.91"/>
          <path class="cls-3" d="M67.95,53.33h9.27c9.36,0,16.95,7.59,16.95,16.95v38.33c0,4.59-3.72,8.31-8.31,8.31h-17.91"/>
        </g>
        <path class="cls-1" d="M77.22,54.17h-18.55c-8.44,0-15.38,6.53-16.04,14.81h50.63c-.66-8.28-7.6-14.81-16.04-14.81Z"/>
        <path class="cls-5" d="M77.22,54.17c8.44,0,15.38,6.53,16.04,14.81h1.69c-.67-9.21-8.35-16.5-17.73-16.5h-9.27v1.69h9.27Z"/>
        <path class="cls-5" d="M58.68,54.17h9.27v-1.69h-9.27c-9.37,0-17.06,7.29-17.73,16.5h1.69c.66-8.28,7.6-14.81,16.04-14.81Z"/>
        <path class="cls-2" d="M93.33,108.61v-34.69l-7.46,2.02c-6.45,1.75-13.05,2.63-19.69,2.63-2.43,0-4.86-.12-7.29-.35l-16.31-1.58v31.97c0,4.12,3.35,7.47,7.46,7.47h35.83c4.12,0,7.46-3.35,7.46-7.47Z"/>
        <path class="cls-5" d="M93.33,70.28v1.89l.62-.17.44,1.63-1.06.29v34.69c0,4.12-3.35,7.47-7.46,7.47h-17.92v1.69h17.92c5.05,0,9.15-4.11,9.15-9.15v-38.33c0-.44-.03-.87-.07-1.3h-1.69c.03.43.07.86.07,1.3Z"/>
        <path class="cls-5" d="M40.89,108.61c0,5.05,4.1,9.15,9.15,9.15h17.92v-1.69h-17.92c-4.12,0-7.46-3.35-7.46-7.47v-31.97l-.92-.09.16-1.68.76.07v-4.67c0-.44.03-.87.07-1.3h-1.69c-.03.43-.07.86-.07,1.3v38.33Z"/>
        <path class="cls-5" d="M66.18,78.57c6.64,0,13.24-.88,19.69-2.63l7.46-2.02v-1.75l-7.9,2.14c-8.62,2.34-17.49,3.09-26.38,2.23l-16.47-1.59v1.69l16.31,1.58c2.43.24,4.87.35,7.29.35Z"/>
        <polygon class="cls-5" points="94.39 73.63 93.95 72 93.33 72.17 93.33 73.91 94.39 73.63"/>
        <polygon class="cls-5" points="41.81 74.87 41.65 76.55 42.57 76.64 42.57 74.94 41.81 74.87"/>
        <g>
          <circle class="cls-6" cx="67.89" cy="105.07" r="1.55"/>
          <circle class="cls-6" cx="86.91" cy="88.16" r="2.64"/>
        </g>
        <g>
          <path class="cls-4" d="M77.32,105.94c1.35-1.75,8.31-8.27,9.81-7.12s-3.04,9.56-4.39,11.3c-1.35,1.75-3.65,2.22-5.15,1.07-1.5-1.15-1.62-3.5-.28-5.25"/>
          <path d="M79.49,112.69c-.87,0-1.72-.26-2.43-.81-1.88-1.45-2.08-4.36-.44-6.48h0c.08-.1,8.42-9.31,11.05-7.28.72.55,1.26,1.79-.86,6.49-1.14,2.52-2.64,5.1-3.37,6.05-1.02,1.32-2.51,2.03-3.95,2.03ZM78.01,106.48h0c-1.05,1.36-1,3.16.12,4.02,1.11.85,2.87.45,3.91-.91,1.64-2.12,4.76-8.58,4.52-10.02-1.46.13-6.91,4.79-8.55,6.92Z"/>
        </g>
        <g>
          <path class="cls-7" d="M61.12,87.98c5.55-1.8,17.81-3.55,18.62-1.06.81,2.49-10.14,8.28-15.69,10.09-5.55,1.8-.92-1.94-1.73-4.43-.81-2.49-6.75-2.8-1.2-4.6"/>
          <path d="M61.93,98.36c-.51,0-.91-.14-1.2-.46-.64-.71-.24-1.64.19-2.62.35-.8.78-1.79.57-2.44-.21-.65-1.14-1.2-1.89-1.64-.92-.54-1.79-1.06-1.69-2.01.1-.96,1.16-1.48,2.94-2.06,3.18-1.03,18.44-4.45,19.73-.5,1.28,3.96-13.08,10.16-16.25,11.19-.98.32-1.77.52-2.39.52ZM59.95,89.37c.17.11.37.23.54.32,1.01.59,2.25,1.33,2.67,2.61.42,1.28-.16,2.61-.63,3.68-.08.18-.17.39-.24.58.29-.05.76-.16,1.49-.4,6.8-2.21,15.36-7.55,15.12-8.98-.64-1.29-10.7-.59-17.51,1.63-.73.24-1.18.43-1.44.56Z"/>
        </g>
        <g>
          <path class="cls-8" d="M55.46,103.01c-2.19-3.01-5.34-4.88-8.73-5.53-.43,3.42.38,7,2.56,10.01,2.19,3.01,5.34,4.88,8.73,5.53.43-3.42-.38-7-2.56-10.01"/>
          <path d="M58.78,114.06l-.92-.18c-3.75-.72-7.04-2.81-9.28-5.88-2.23-3.07-3.2-6.85-2.72-10.64l.12-.93.92.18c3.75.72,7.04,2.81,9.28,5.88h0c2.23,3.07,3.2,6.85,2.72,10.64l-.12.93ZM47.52,98.56c-.16,3.01.71,5.97,2.49,8.41,1.78,2.45,4.32,4.19,7.23,4.97.16-3.01-.71-5.97-2.49-8.41h0c-1.78-2.45-4.32-4.19-7.23-4.97Z"/>
        </g>
        <circle class="cls-6" cx="51.56" cy="84.36" r="1.32"/>
      </g>
    </g>
  </g>
</svg>