<?xml version="1.0" encoding="UTF-8"?>
<svg id="Layer_2" data-name="Layer 2" xmlns="http://www.w3.org/2000/svg" viewBox="0 0 126 126">
  <defs>
    <style>
      .cls-1 {
        fill: #fab82f;
      }

      .cls-2 {
        fill: #f8ead6;
      }

      .cls-3 {
        fill: #e7a731;
      }

      .cls-4 {
        fill: #081b1e;
      }

      .cls-5 {
        fill: #ef4423;
      }

      .cls-5, .cls-6 {
        stroke: #081b1e;
        stroke-miterlimit: 10;
      }

      .cls-6 {
        fill: none;
      }
    </style>
  </defs>
  <g id="Layer_1-2" data-name="Layer 1">
    <g>
      <rect class="cls-2" width="126" height="126"/>
      <g>
        <path class="cls-5" d="m56.33,34.22c0,6.52,2.55,12.42,6.67,16.83,4.13-4.41,6.67-10.31,6.67-16.83s-2.55-12.42-6.67-16.83c-4.13,4.41-6.67,10.31-6.67,16.83"/>
        <path class="cls-5" d="m74.52,35.79c-3.83,5.27-5.24,11.54-4.49,17.54,5.93-1.14,11.46-4.42,15.29-9.69,3.83-5.27,5.24-11.55,4.49-17.54-5.93,1.14-11.46,4.42-15.29,9.69"/>
        <path class="cls-5" d="m88.31,47.76c-6.19,2.01-11.03,6.26-13.94,11.55,5.47,2.56,11.87,3.16,18.07,1.15,6.2-2.01,11.03-6.26,13.94-11.55-5.47-2.56-11.87-3.16-18.07-1.15"/>
        <path class="cls-5" d="m92.43,65.55c-6.19-2.01-12.6-1.42-18.07,1.15,2.92,5.29,7.75,9.53,13.94,11.55,6.2,2.01,12.6,1.42,18.07-1.15-2.92-5.29-7.75-9.53-13.94-11.55"/>
        <path class="cls-5" d="m85.31,82.36c-3.83-5.27-9.36-8.55-15.29-9.69-.75,5.99.66,12.27,4.49,17.54,3.83,5.27,9.36,8.55,15.29,9.69.75-5.99-.66-12.27-4.49-17.54"/>
        <path class="cls-5" d="m69.67,91.78c0-6.52-2.55-12.42-6.67-16.83-4.13,4.41-6.67,10.31-6.67,16.83s2.55,12.42,6.67,16.83c4.13-4.41,6.67-10.31,6.67-16.83"/>
        <path class="cls-5" d="m51.48,90.21c3.83-5.27,5.24-11.55,4.49-17.54-5.93,1.14-11.46,4.42-15.29,9.69-3.83,5.27-5.24,11.55-4.49,17.54,5.93-1.14,11.46-4.42,15.29-9.69"/>
        <path class="cls-5" d="m37.69,78.24c6.19-2.01,11.03-6.26,13.94-11.55-5.46-2.56-11.87-3.16-18.06-1.15-6.2,2.01-11.03,6.26-13.94,11.55,5.47,2.56,11.87,3.16,18.07,1.15"/>
        <path class="cls-5" d="m33.57,60.45c6.19,2.01,12.6,1.42,18.06-1.15-2.92-5.29-7.74-9.53-13.94-11.55-6.2-2.01-12.6-1.42-18.07,1.15,2.91,5.29,7.74,9.53,13.94,11.55"/>
        <path class="cls-5" d="m40.68,43.64c3.83,5.27,9.36,8.55,15.29,9.69.75-5.99-.66-12.27-4.49-17.54-3.83-5.27-9.36-8.55-15.29-9.69-.75,5.99.66,12.27,4.49,17.54"/>
      </g>
      <path class="cls-1" d="m72.96,63c0,5.5-4.46,9.96-9.96,9.96s-9.96-4.46-9.96-9.96,4.46-9.96,9.96-9.96,9.96,4.46,9.96,9.96"/>
      <path class="cls-2" d="m98.09,108.05c0-5.5,4.46-9.96,9.96-9.96s9.96,4.46,9.96,9.96-4.46,9.96-9.96,9.96-9.96-4.46-9.96-9.96"/>
      <path class="cls-4" d="m108.05,118.51c-5.77,0-10.46-4.69-10.46-10.46s4.69-10.46,10.46-10.46,10.46,4.69,10.46,10.46-4.69,10.46-10.46,10.46Zm0-19.92c-5.22,0-9.46,4.24-9.46,9.46s4.24,9.46,9.46,9.46,9.46-4.24,9.46-9.46-4.24-9.46-9.46-9.46Z"/>
      <path class="cls-4" d="m108.75,102.72v8.18l2.7-.97v1.77l-4.64,1.68h-.11v-10.66h2.06Z"/>
      <path class="cls-2" d="m27.91,17.95c0,5.5-4.46,9.96-9.96,9.96s-9.96-4.46-9.96-9.96,4.46-9.96,9.96-9.96,9.96,4.46,9.96,9.96"/>
      <path class="cls-4" d="m17.95,28.41c-5.77,0-10.46-4.69-10.46-10.46s4.69-10.46,10.46-10.46,10.46,4.69,10.46,10.46-4.69,10.46-10.46,10.46Zm0-19.92c-5.22,0-9.46,4.24-9.46,9.46s4.24,9.46,9.46,9.46,9.46-4.24,9.46-9.46-4.24-9.46-9.46-9.46Z"/>
      <path class="cls-4" d="m17.25,23.28v-8.18l-2.7.97v-1.77l4.64-1.68h.11v10.66h-2.06Z"/>
      <path class="cls-4" d="m109.94,11.45c2.54,0,4.61,2.07,4.61,4.61v74.03h1V16.06c0-3.09-2.52-5.61-5.61-5.61H35.91v1h74.03Z"/>
      <path class="cls-4" d="m16.06,114.55c-2.54,0-4.61-2.07-4.61-4.61V35.91h-1v74.03c0,3.09,2.52,5.61,5.61,5.61h74.03v-1H16.06Z"/>
      <g>
        <path class="cls-2" d="m54.6,66.23c.11.29.24.58.38.86,1.09,2.14,2.95,3.73,5.24,4.48.75.24,1.53.38,2.31.42v-8.33l-7.93,2.58Z"/>
        <path class="cls-2" d="m68.67,56.01l-4.89,6.74,7.92,2.57c.94-3.5-.34-7.12-3.02-9.31Z"/>
        <path class="cls-2" d="m63.48,71.99c3.55-.19,6.65-2.43,7.92-5.76l-7.92-2.57v8.33Z"/>
        <path class="cls-1" d="m67.9,55.45c-.64-.42-1.35-.77-2.11-1.02-.91-.29-1.84-.44-2.78-.44-1.79,0-3.48.53-4.9,1.45l4.9,6.75,4.89-6.74Z"/>
        <path class="cls-2" d="m57.33,56c-1.32,1.07-2.34,2.51-2.89,4.21-.55,1.68-.58,3.44-.13,5.11l7.93-2.58-4.9-6.74Z"/>
        <path class="cls-3" d="m53.7,66.52h0s-.02-.05-.03-.08l.02.08Z"/>
        <path class="cls-3" d="m62.53,63.15l-.29-.4-7.93,2.58c.08.31.18.61.29.91l7.93-2.58v-.5Z"/>
        <path class="cls-3" d="m62.71,62.59l.29-.4-4.9-6.75c-.27.17-.52.36-.77.56l4.9,6.74.48-.15Z"/>
        <path class="cls-3" d="m57.54,54.66l-.77.56h0c.25-.19.51-.37.77-.54v-.02Z"/>
        <polygon class="cls-3" points="63 63 62.62 62.72 62.71 62.59 62.23 62.75 62.53 63.15 62.53 63 63 63"/>
        <path class="cls-3" d="m72.31,66.52l.03-.09s-.02.06-.03.09h0Z"/>
        <path class="cls-3" d="m63.48,63.15v.5l7.92,2.57c.06-.15.12-.29.17-.45.05-.15.08-.31.12-.46l-7.92-2.57-.29.4Z"/>
        <path class="cls-3" d="m63,63.5l-.48.15v8.33c.16,0,.32.02.48.02s.32-.01.47-.02v-8.33l-.48-.15Z"/>
        <polygon class="cls-3" points="63 63 62.62 63.28 62.53 63.15 62.53 63.65 63 63.5 62.86 63.45 63 63"/>
        <polygon class="cls-3" points="63 63 62.53 63 62.53 63.15 62.62 63.28 63 63"/>
        <polygon class="cls-3" points="63 63 63.15 63.45 63 63.5 63.48 63.65 63.48 63.15 63.39 63.28 63 63"/>
        <polygon class="cls-3" points="63 63 62.86 63.45 63 63.5 63.15 63.45 63 63"/>
        <path class="cls-3" d="m69.23,55.24l-.1-.07s.06.05.09.07h0Z"/>
        <path class="cls-3" d="m68.46,54.68h0s.04.03.06.04l-.06-.04Z"/>
        <path class="cls-3" d="m63.3,62.59l.48.15,4.89-6.74c-.25-.2-.5-.39-.77-.56l-4.89,6.74.29.4Z"/>
        <polygon class="cls-3" points="63 63 63.15 62.55 63.3 62.59 63 62.19 62.71 62.59 62.86 62.55 63 63"/>
        <polygon class="cls-3" points="63 63 62.86 62.55 62.71 62.59 62.62 62.72 63 63"/>
        <polygon class="cls-3" points="63.39 62.72 63 63 63.48 63 63.48 63.15 63.77 62.75 63.3 62.59 63.39 62.72"/>
        <polygon class="cls-3" points="63 63 63.39 62.72 63.3 62.59 63.15 62.55 63 63"/>
        <polygon class="cls-3" points="63 63 63.39 63.28 63.48 63.15 63.48 63 63 63"/>
        <path class="cls-3" d="m68.52,54.72l.61.45c-.2-.16-.4-.3-.61-.45Z"/>
        <path class="cls-3" d="m72.47,66.08c.03-.1.05-.2.08-.3l-.21.66c.04-.12.09-.24.13-.36Z"/>
        <path class="cls-3" d="m63,53.99c.94,0,1.88.15,2.78.44.77.25,1.47.6,2.11,1.02l.56-.77c-.72-.47-1.52-.87-2.38-1.15-1.02-.33-2.06-.49-3.08-.49-1.96,0-3.85.59-5.45,1.64l.56.76c1.42-.92,3.11-1.45,4.9-1.45Z"/>
        <path class="cls-3" d="m54.31,65.32c-.45-1.67-.41-3.43.13-5.11.55-1.7,1.58-3.14,2.89-4.21l-.56-.77c-1.46,1.17-2.62,2.77-3.24,4.68-.72,2.22-.61,4.5.14,6.53l-.27-.83.9-.29Z"/>
        <path class="cls-3" d="m60.22,71.56c-2.29-.74-4.15-2.33-5.24-4.48-.14-.28-.27-.57-.38-.86l-.9.29c1.03,2.72,3.24,4.97,6.23,5.94.86.28,1.74.43,2.6.47v-.95c-.78-.04-1.55-.18-2.31-.42Z"/>
        <path class="cls-3" d="m63.48,71.99v.95c3.86-.19,7.39-2.63,8.83-6.42l-.91-.29c-1.28,3.33-4.37,5.57-7.92,5.76Z"/>
        <path class="cls-3" d="m71.69,65.32l.91.29c1.07-3.91-.35-7.95-3.37-10.38l-.56.77c2.69,2.18,3.96,5.81,3.02,9.31Z"/>
        <path class="cls-3" d="m54.31,65.32l-.9.29.27.83s.02.05.03.08l.9-.29c-.12-.3-.21-.6-.29-.91Z"/>
        <path class="cls-3" d="m58.1,55.44l-.56-.76c-.27.17-.52.36-.77.56l.56.77c.25-.2.5-.39.77-.56Z"/>
        <path class="cls-3" d="m71.69,65.32c-.04.15-.07.31-.12.46-.05.15-.11.3-.17.45l.91.29s.02-.06.03-.09l.21-.66c.02-.05.03-.11.04-.16l-.91-.29Z"/>
        <path class="cls-3" d="m68.67,56.01l.56-.77s-.06-.05-.09-.07l-.61-.45s-.04-.03-.06-.04l-.56.77c.27.17.53.36.77.56Z"/>
        <g>
          <g>
            <line class="cls-6" x1="63" y1="63" x2="53.55" y2="66.07"/>
            <line class="cls-6" x1="57.15" y1="54.94" x2="63" y2="63"/>
            <line class="cls-6" x1="63" y1="63" x2="72.45" y2="66.07"/>
            <line class="cls-6" x1="63" y1="72.96" x2="63" y2="63"/>
            <line class="cls-6" x1="63" y1="63" x2="68.84" y2="54.96"/>
          </g>
          <path class="cls-4" d="m63,54.04h0c.94,0,1.87.15,2.77.44,4.7,1.53,7.28,6.59,5.75,11.29-1.2,3.7-4.63,6.19-8.52,6.19-.94,0-1.87-.15-2.77-.44-2.28-.74-4.13-2.32-5.21-4.45-1.09-2.13-1.28-4.56-.54-6.83,1.2-3.7,4.63-6.19,8.52-6.19m0-1c-4.2,0-8.1,2.68-9.47,6.88-1.7,5.23,1.16,10.85,6.39,12.55,1.02.33,2.06.49,3.08.49,4.2,0,8.1-2.68,9.47-6.88,1.7-5.23-1.16-10.85-6.39-12.55-1.02-.33-2.06-.49-3.08-.49h0Z"/>
        </g>
      </g>
    </g>
  </g>
</svg>