<?xml version="1.0" encoding="UTF-8"?>
<svg id="Layer_2" data-name="Layer 2" xmlns="http://www.w3.org/2000/svg" xmlns:xlink="http://www.w3.org/1999/xlink" viewBox="0 0 228.92 228.92">
  <defs>
    <style>
      .cls-1, .cls-2 {
        fill: none;
      }

      .cls-2 {
        stroke: #d6b890;
        stroke-miterlimit: 10;
        stroke-width: 4.42px;
      }

      .cls-3 {
        fill: #f8ead6;
      }

      .cls-4 {
        clip-path: url(#clippath-6);
      }

      .cls-5 {
        fill: #fff;
      }

      .cls-6 {
        fill: #081b1e;
      }

      .cls-7 {
        fill: #6fb360;
      }

      .cls-8 {
        clip-path: url(#clippath);
      }
    </style>
    <clipPath id="clippath">
      <rect class="cls-1" x="2.21" y="2.21" width="224.49" height="224.49" rx="18.06" ry="18.06"/>
    </clipPath>
    <clipPath id="clippath-6">
      <rect class="cls-2" x="2.21" y="2.21" width="224.49" height="224.49" rx="18.06" ry="18.06"/>
    </clipPath>
  </defs>
  <g id="Layer_1-2" data-name="Layer 1">
    <g>
      <g class="cls-8">
        <rect class="cls-3" x="2.21" y="2.21" width="224.49" height="224.49"/>
      </g>
      <g>
        <g>
          <g>
            <path class="cls-7" d="M97.53,204.75c0-20.35,7.41-62.89,16.55-62.89s16.55,42.54,16.55,62.89-7.41.96-16.55.96-16.55,19.39-16.55-.96"/>
            <path class="cls-6" d="M128.22,215.25c-1.62,0-3.35-1.53-5.43-3.37-2.51-2.22-5.63-4.98-8.71-4.98s-6.2,2.76-8.71,4.98c-2.54,2.24-4.53,4.02-6.47,3.14-1.85-.83-2.56-3.71-2.56-10.28,0-19.02,6.89-64.09,17.74-64.09s17.74,45.06,17.74,64.09c0,6.56-.72,9.44-2.56,10.28-.34.16-.69.23-1.04.23ZM114.08,204.51c3.99,0,7.48,3.09,10.29,5.58,1.18,1.05,3.39,3,3.91,2.75.12-.05,1.16-.73,1.16-8.1,0-21.58-7.89-61.7-15.36-61.7s-15.36,40.12-15.36,61.7c0,7.37,1.04,8.05,1.16,8.1.54.24,2.73-1.71,3.91-2.75,2.81-2.49,6.3-5.58,10.29-5.58Z"/>
          </g>
          <g>
            <path class="cls-7" d="M47.7,177.56c11.96-16.46,42.97-46.53,50.36-41.16,7.39,5.37-11.62,44.15-23.58,60.61-11.96,16.46-6.56-3.58-13.95-8.95-7.39-5.37-24.79,5.96-12.83-10.51"/>
            <path class="cls-6" d="M67.85,204.57c-.18,0-.35-.02-.53-.05-2.08-.43-2.65-3.04-3.39-6.35-.72-3.27-1.62-7.34-4.12-9.15-2.49-1.81-6.64-1.41-9.97-1.09-3.37.33-6.03.58-7.08-1.26-1-1.76.11-4.51,3.97-9.82,11.18-15.39,43.24-47.82,52.02-41.42,3.89,2.82,2.5,12.1-4.14,27.58-5.19,12.1-12.89,26.05-19.18,34.7-3.52,4.85-5.72,6.86-7.59,6.86ZM54.21,185.27c2.51,0,5.03.39,7.01,1.83,3.23,2.34,4.23,6.9,5.04,10.56.34,1.54.98,4.41,1.54,4.52.14.03,1.38.07,5.7-5.87,6.19-8.52,13.79-22.28,18.92-34.23,6.82-15.91,7.01-23.2,4.93-24.71-6.03-4.37-36.01,23.44-48.7,40.89-4.33,5.96-3.89,7.12-3.82,7.24.29.5,3.21.22,4.78.07,1.44-.14,3.01-.29,4.59-.29Z"/>
          </g>
          <g>
            <path class="cls-7" d="M23.36,126.26c19.36-6.29,62.11-12.39,64.93-3.69,2.82,8.69-35.35,28.89-54.7,35.18-19.36,6.29-3.21-6.75-6.03-15.44-2.83-8.69-23.56-9.75-4.2-16.04"/>
            <path class="cls-6" d="M26.19,160.59c-1.32,0-2.21-.33-2.8-.98-1.43-1.57-.36-4.02.99-7.13,1.34-3.07,3-6.89,2.04-9.82-.95-2.93-4.54-5.04-7.43-6.74-2.92-1.72-5.22-3.07-4.99-5.18.22-2.01,2.74-3.59,8.98-5.61h0c18.09-5.88,63.08-13.25,66.43-2.93,3.35,10.33-37.38,30.8-55.47,36.68-3.54,1.15-6.03,1.71-7.76,1.71ZM23.73,127.4h0c-7.01,2.28-7.33,3.48-7.35,3.6-.06.58,2.47,2.07,3.83,2.87,3.23,1.9,7.25,4.27,8.49,8.06,1.23,3.79-.63,8.07-2.13,11.51-.63,1.45-1.8,4.14-1.41,4.57.08.1,1.06.88,8.06-1.4,20.52-6.67,56.24-26.57,53.94-33.67-2.31-7.09-42.91-2.21-63.43,4.46Z"/>
          </g>
          <g>
            <path class="cls-7" d="M33.82,70.46c19.36,6.29,57.53,26.48,54.7,35.18-2.82,8.69-45.58,2.59-64.93-3.69-19.36-6.29,1.38-7.35,4.2-16.04,2.83-8.69-13.33-21.73,6.03-15.44"/>
            <path class="cls-6" d="M73.26,111.16c-3.24,0-6.95-.19-11.12-.57-13.11-1.19-28.76-4.21-38.92-7.52-6.24-2.03-8.76-3.6-8.98-5.61-.23-2.11,2.07-3.47,4.99-5.18,2.88-1.7,6.47-3.81,7.42-6.74.95-2.93-.71-6.75-2.04-9.82-1.35-3.1-2.42-5.55-.99-7.12,1.36-1.49,4.32-1.29,10.56.74h0c10.17,3.31,24.61,10.06,35.91,16.8,14.46,8.62,21.04,15.31,19.56,19.88-1.12,3.43-6.61,5.16-16.39,5.16ZM26.37,69.99c-.75,0-.95.16-.99.2-.39.43.78,3.12,1.41,4.57,1.5,3.44,3.36,7.72,2.13,11.51-1.23,3.79-5.25,6.16-8.48,8.06-1.36.8-3.89,2.29-3.83,2.87.01.13.34,1.33,7.35,3.61,10.02,3.26,25.45,6.23,38.4,7.41,17.23,1.56,24.23-.5,25.02-2.95.8-2.46-3.64-8.24-18.51-17.1-11.17-6.66-25.41-13.32-35.43-16.58-4.03-1.31-6.06-1.61-7.08-1.61Z"/>
          </g>
          <g>
            <path class="cls-7" d="M75.08,31.46c11.96,16.46,30.97,55.24,23.58,60.61-7.4,5.37-38.4-24.69-50.36-41.16-11.96-16.46,5.43-5.13,12.82-10.51,7.4-5.37,1.99-25.41,13.96-8.95"/>
            <path class="cls-6" d="M96.54,93.86c-11.43,0-39-28.2-49.2-42.24-3.86-5.31-4.97-8.06-3.97-9.82,1.05-1.84,3.71-1.58,7.08-1.26,3.33.32,7.48.72,9.97-1.09,2.5-1.81,3.4-5.88,4.12-9.15.73-3.3,1.31-5.91,3.39-6.34,1.98-.41,4.25,1.49,8.11,6.81,6.29,8.65,14,22.59,19.18,34.7,6.63,15.48,8.02,24.76,4.14,27.58-.77.56-1.72.82-2.82.82ZM46.94,42.7c-.77,0-1.38.07-1.5.29-.06.11-.51,1.27,3.82,7.23,11.78,16.21,38.46,41.35,47.05,41.36.66,0,1.21-.15,1.65-.46,2.09-1.52,1.89-8.81-4.93-24.71-5.12-11.96-12.73-25.71-18.92-34.23-4.34-5.97-5.59-5.91-5.7-5.87-.57.12-1.2,2.99-1.55,4.53-.81,3.66-1.82,8.22-5.05,10.56-3.23,2.34-7.87,1.89-11.6,1.53-.9-.09-2.24-.22-3.28-.22Z"/>
          </g>
          <g>
            <path class="cls-7" d="M131.38,24.17c0,20.35-7.41,62.89-16.55,62.89s-16.55-42.54-16.55-62.89,7.41-.96,16.55-.96,16.55-19.39,16.55.96"/>
            <path class="cls-6" d="M114.83,88.25c-10.86,0-17.74-45.06-17.74-64.09,0-6.56.72-9.44,2.56-10.28,1.93-.87,3.94.9,6.47,3.14,2.51,2.22,5.63,4.98,8.71,4.98s6.2-2.76,8.71-4.98c2.53-2.24,4.53-4.02,6.47-3.14,1.85.83,2.56,3.71,2.56,10.28,0,19.02-6.89,64.09-17.74,64.09ZM100.74,16.05s-.08,0-.11.02c-.12.05-1.16.73-1.16,8.1,0,21.58,7.89,61.7,15.36,61.7s15.36-40.12,15.36-61.7c0-7.37-1.04-8.05-1.16-8.1-.51-.24-2.73,1.71-3.91,2.75-2.81,2.49-6.3,5.58-10.29,5.58s-7.48-3.09-10.29-5.58c-1.11-.99-3.13-2.77-3.8-2.77Z"/>
          </g>
          <g>
            <path class="cls-7" d="M181.22,51.36c-11.96,16.46-42.97,46.53-50.36,41.16-7.39-5.37,11.62-44.15,23.58-60.61,11.96-16.46,6.56,3.58,13.95,8.95,7.39,5.37,24.79-5.96,12.83,10.51"/>
            <path class="cls-6" d="M132.98,94.3c-1.1,0-2.05-.26-2.82-.82-3.89-2.82-2.5-12.1,4.14-27.58,5.19-12.1,12.89-26.05,19.18-34.7,3.86-5.31,6.14-7.22,8.11-6.81,2.08.43,2.65,3.04,3.39,6.34.72,3.27,1.62,7.34,4.12,9.15,2.49,1.81,6.64,1.41,9.97,1.09,3.37-.33,6.03-.58,7.08,1.26,1,1.76-.11,4.51-3.97,9.82-10.2,14.04-37.77,42.24-49.2,42.24ZM161.06,26.73c-.28,0-1.63.35-5.65,5.88-6.19,8.52-13.79,22.28-18.92,34.23-6.82,15.91-7.01,23.2-4.93,24.71,6.03,4.39,36.01-23.44,48.7-40.89,4.33-5.96,3.89-7.12,3.82-7.23-.29-.51-3.21-.22-4.78-.07-3.73.36-8.38.81-11.6-1.54-3.23-2.34-4.23-6.9-5.04-10.56-.34-1.54-.98-4.41-1.55-4.53,0,0-.02,0-.05,0Z"/>
          </g>
          <g>
            <path class="cls-7" d="M205.56,102.65c-19.36,6.29-62.11,12.39-64.93,3.69-2.82-8.69,35.35-28.89,54.7-35.18,19.36-6.29,3.21,6.75,6.03,15.44,2.83,8.69,23.56,9.75,4.2,16.04"/>
            <path class="cls-6" d="M156.34,111.88c-8.92,0-15.63-1.41-16.84-5.16-3.35-10.33,37.38-30.8,55.47-36.68,6.24-2.03,9.21-2.24,10.56-.74,1.43,1.57.36,4.02-.99,7.12-1.34,3.07-3,6.89-2.04,9.82.95,2.93,4.54,5.04,7.43,6.74,2.92,1.72,5.22,3.07,4.99,5.18-.22,2.01-2.74,3.58-8.98,5.61h0c-11.52,3.74-33.95,8.09-49.59,8.09ZM202.77,70.7c-1.02,0-3.05.3-7.08,1.61-20.52,6.67-56.24,26.57-53.94,33.67,2.31,7.1,42.91,2.2,63.43-4.46h0c7.01-2.28,7.33-3.48,7.35-3.6.06-.58-2.47-2.07-3.83-2.87-3.23-1.9-7.25-4.27-8.49-8.06-1.23-3.79.63-8.07,2.13-11.51.63-1.45,1.8-4.14,1.41-4.57-.04-.04-.23-.21-.99-.21Z"/>
          </g>
          <g>
            <path class="cls-7" d="M195.1,158.45c-19.36-6.29-57.53-26.48-54.7-35.18,2.82-8.69,45.58-2.59,64.93,3.69,19.36,6.29-1.38,7.35-4.2,16.04-2.83,8.69,13.33,21.73-6.03,15.44"/>
            <path class="cls-6" d="M202.49,161.3c-1.74,0-4.22-.56-7.76-1.71-10.17-3.31-24.61-10.06-35.91-16.8-14.46-8.62-21.04-15.31-19.56-19.88,1.48-4.57,10.74-6.11,27.51-4.59,13.11,1.19,28.76,4.21,38.92,7.52,6.24,2.03,8.76,3.6,8.98,5.61.23,2.11-2.07,3.47-4.99,5.18-2.88,1.7-6.47,3.81-7.42,6.74-.95,2.93.71,6.75,2.04,9.82,1.35,3.1,2.42,5.55.99,7.12-.59.65-1.48.98-2.8.98ZM155.79,120.15c-9.49,0-13.65,1.64-14.26,3.5-.8,2.46,3.64,8.24,18.51,17.1,11.17,6.66,25.41,13.32,35.43,16.58,7.01,2.28,7.98,1.5,8.06,1.4.39-.43-.78-3.12-1.41-4.57-1.5-3.44-3.36-7.72-2.12-11.51,1.23-3.79,5.25-6.16,8.48-8.06,1.36-.8,3.89-2.29,3.83-2.87-.01-.13-.34-1.33-7.35-3.6-10.02-3.26-25.45-6.23-38.4-7.41-4.17-.38-7.74-.55-10.77-.55Z"/>
          </g>
          <g>
            <path class="cls-7" d="M153.84,197.45c-11.96-16.46-30.97-55.24-23.58-60.61,7.4-5.37,38.4,24.69,50.36,41.16,11.96,16.46-5.43,5.13-12.82,10.51-7.4,5.37-1.99,25.41-13.96,8.95"/>
            <path class="cls-6" d="M160.46,205.01c-1.86,0-4.07-2.01-7.59-6.86-6.29-8.65-14-22.59-19.18-34.7-6.63-15.48-8.02-24.76-4.14-27.58,3.89-2.83,12.28,1.36,24.95,12.46,9.91,8.67,20.79,20.31,27.07,28.96,3.86,5.31,4.97,8.06,3.97,9.82-1.05,1.84-3.71,1.59-7.08,1.26-3.33-.32-7.48-.72-9.97,1.09-2.5,1.81-3.4,5.88-4.12,9.15-.73,3.3-1.31,5.91-3.39,6.35-.17.03-.35.05-.52.05ZM132.48,137.4c-.65,0-1.16.14-1.52.41-2.09,1.52-1.89,8.81,4.93,24.71,5.12,11.95,12.73,25.71,18.92,34.23h0c4.32,5.95,5.58,5.91,5.7,5.87.57-.12,1.2-2.99,1.55-4.52.81-3.66,1.82-8.22,5.05-10.56,3.22-2.35,7.87-1.9,11.6-1.54,1.57.15,4.49.43,4.78-.07.07-.11.51-1.28-3.82-7.24-6.19-8.52-16.93-20.01-26.71-28.57-10.77-9.43-17.33-12.73-20.46-12.73Z"/>
          </g>
        </g>
        <g>
          <g>
            <path class="cls-5" d="M114.46,152.37c-20.91,0-37.92-17.01-37.92-37.92s17.01-37.92,37.92-37.92,37.92,17.01,37.92,37.92-17.01,37.92-37.92,37.92Z"/>
            <path class="cls-6" d="M114.46,77.79c20.25,0,36.67,16.42,36.67,36.67s-16.42,36.67-36.67,36.67-36.67-16.42-36.67-36.67,16.42-36.67,36.67-36.67M114.46,75.29c-21.6,0-39.17,17.57-39.17,39.17s17.57,39.17,39.17,39.17,39.17-17.57,39.17-39.17-17.57-39.17-39.17-39.17h0Z"/>
          </g>
          <g>
            <path class="cls-5" d="M114.46,144.32c-16.46,0-29.86-13.39-29.86-29.86s13.4-29.86,29.86-29.86,29.86,13.4,29.86,29.86-13.4,29.86-29.86,29.86Z"/>
            <path class="cls-6" d="M114.46,85.85c15.8,0,28.61,12.81,28.61,28.61s-12.81,28.61-28.61,28.61-28.61-12.81-28.61-28.61,12.81-28.61,28.61-28.61M114.46,83.35c-17.15,0-31.11,13.96-31.11,31.11s13.96,31.11,31.11,31.11,31.11-13.96,31.11-31.11-13.96-31.11-31.11-31.11h0Z"/>
          </g>
        </g>
      </g>
      <path class="cls-6" d="M113.85,111.39c1.01,0,1.88-.14,2.61-.42.73-.28,1.32-.67,1.78-1.17.42-.43.74-.97.94-1.6.21-.63.32-1.31.32-2.05s-.1-1.38-.32-1.98c-.21-.59-.52-1.11-.94-1.55-.42-.42-.95-.75-1.6-.98-.65-.23-1.4-.35-2.25-.35-.71,0-1.37.1-1.98.3-.61.2-1.15.49-1.6.85-.47.39-.84.85-1.11,1.39-.27.54-.4,1.14-.4,1.81h-7c0-1.49.31-2.85.92-4.08.61-1.23,1.46-2.28,2.53-3.17,1.07-.87,2.34-1.55,3.79-2.04,1.45-.49,3.02-.73,4.69-.73,1.81,0,3.48.22,4.99.67,1.51.44,2.8,1.1,3.88,1.98,1.07.89,1.91,1.98,2.51,3.28.59,1.3.89,2.81.89,4.52,0,.79-.12,1.57-.35,2.33-.24.77-.58,1.49-1.03,2.18-.45.69-1.01,1.32-1.69,1.9-.67.58-1.44,1.08-2.32,1.5,1.02.37,1.91.84,2.66,1.41.75.57,1.36,1.22,1.85,1.94.49.74.85,1.54,1.08,2.42s.35,1.8.35,2.77c0,1.71-.33,3.24-.98,4.58-.66,1.34-1.55,2.47-2.7,3.37-1.14.92-2.5,1.63-4.07,2.1-1.57.48-3.26.72-5.08.72-1.56,0-3.08-.21-4.57-.64-1.48-.43-2.81-1.08-3.97-1.95-1.16-.86-2.09-1.94-2.78-3.25-.7-1.31-1.04-2.85-1.04-4.63h7c0,.71.13,1.36.4,1.95.27.6.65,1.1,1.16,1.52.49.44,1.06.78,1.74,1.02.67.24,1.41.37,2.22.37.91,0,1.72-.13,2.44-.38.72-.25,1.33-.62,1.81-1.11.47-.44.83-.97,1.07-1.61.24-.64.36-1.35.36-2.14,0-.99-.14-1.84-.43-2.55s-.7-1.28-1.23-1.74c-.56-.45-1.22-.79-1.98-1.01-.77-.21-1.63-.33-2.58-.33h-3.8v-5.44h3.8Z"/>
      <g>
        <g class="cls-4">
          <g>
            <rect class="cls-2" x="2.21" y="2.21" width="224.49" height="224.49"/>
            <rect class="cls-2" x="2.21" y="2.21" width="224.49" height="224.49"/>
            <rect class="cls-2" x="2.21" y="2.21" width="224.49" height="224.49"/>
            <rect class="cls-2" x="2.21" y="2.21" width="224.49" height="224.49"/>
            <rect class="cls-2" x="2.21" y="2.21" width="224.49" height="224.49"/>
            <rect class="cls-2" x="2.21" y="2.21" width="224.49" height="224.49"/>
          </g>
        </g>
        <rect class="cls-2" x="2.21" y="2.21" width="224.49" height="224.49" rx="18.06" ry="18.06"/>
      </g>
    </g>
  </g>
</svg>