<?xml version="1.0" encoding="UTF-8"?>
<svg id="Layer_2" data-name="Layer 2" xmlns="http://www.w3.org/2000/svg" viewBox="0 0 133.2 133.2">
  <defs>
    <style>
      .cls-1 {
        fill: #f8ead6;
      }

      .cls-2 {
        fill: #e6a631;
      }

      .cls-3 {
        fill: #f8b62c;
      }

      .cls-4 {
        fill: #081b1e;
      }

      .cls-5 {
        fill: #6fb360;
      }
    </style>
  </defs>
  <g id="Art">
    <g>
      <rect class="cls-1" width="133.2" height="133.2"/>
      <path class="cls-5" d="M80.23,66.6c0,7.52-6.1,13.62-13.62,13.62s-13.62-6.1-13.62-13.62,6.1-13.62,13.62-13.62,13.62,6.1,13.62,13.62"/>
      <path class="cls-3" d="M56.96,114.94c0-6.06,4.22-32,9.42-32s9.42,25.94,9.42,32-4.22,10.98-9.42,10.98-9.42-4.91-9.42-10.98"/>
      <path class="cls-4" d="M66.38,126.63c-5.59,0-10.13-5.24-10.13-11.69,0-4.39,3.84-32.71,10.13-32.71s10.13,28.32,10.13,32.71c0,6.45-4.55,11.69-10.13,11.69ZM66.38,83.65c-4.08,0-8.71,23.67-8.71,31.28,0,5.66,3.91,10.26,8.71,10.26s8.71-4.6,8.71-10.26c0-7.62-4.63-31.28-8.71-31.28Z"/>
      <path class="cls-3" d="M30.39,100.04c3.56-4.91,22.22-23.41,26.43-20.35,4.21,3.06-7.62,26.52-11.19,31.43-3.56,4.9-9.87,6.4-14.08,3.34-4.21-3.06-4.73-9.51-1.17-14.42"/>
      <path class="cls-4" d="M36.55,116.75c-1.93,0-3.81-.55-5.41-1.72-2.21-1.6-3.55-4.1-3.79-7.03-.23-2.89.64-5.87,2.47-8.38,2.58-3.55,22.33-24.21,27.43-20.51,5.09,3.7-8.45,28.87-11.03,32.42-2.45,3.37-6.14,5.22-9.66,5.22ZM55.54,80.03c-4.76,0-20.41,14.68-24.58,20.43h0c-1.62,2.23-2.4,4.87-2.2,7.42.2,2.51,1.34,4.64,3.21,6,3.88,2.82,9.75,1.39,13.08-3.18,4.47-6.16,14.64-28.04,11.34-30.43-.22-.16-.51-.24-.85-.24Z"/>
      <path class="cls-3" d="M17.65,72.37c5.77-1.87,31.74-5.88,33.34-.93,1.61,4.95-21.75,16.98-27.52,18.85-5.77,1.87-11.74-.62-13.35-5.57-1.61-4.95,1.76-10.48,7.53-12.35"/>
      <path class="cls-4" d="M19.6,91.62c-4.66,0-8.82-2.55-10.16-6.68-.84-2.59-.46-5.41,1.07-7.92,1.51-2.48,3.97-4.37,6.92-5.33,3.05-.99,11.17-2.45,18.39-3.06,14.61-1.22,15.54,1.64,15.85,2.58.3.94,1.23,3.8-11.3,11.41-6.2,3.76-13.63,7.35-16.68,8.34-1.37.44-2.75.65-4.09.65ZM17.87,73.04c-2.63.85-4.81,2.53-6.14,4.71-1.31,2.15-1.64,4.54-.93,6.74,1.48,4.56,7.07,6.86,12.45,5.11,2.97-.96,10.26-4.49,16.38-8.2,8.53-5.18,11.12-8.43,10.69-9.75-.43-1.32-4.43-2.43-14.38-1.6-7.13.59-15.1,2.03-18.07,2.99h0Z"/>
      <path class="cls-3" d="M23.61,42.49c5.77,1.87,29.13,13.9,27.52,18.85-1.61,4.95-27.58.95-33.34-.93-5.77-1.87-9.14-7.4-7.53-12.35,1.61-4.95,7.58-7.44,13.35-5.57"/>
      <path class="cls-4" d="M42.14,64.41c-9.17,0-21.88-2.44-24.58-3.32-6.13-1.99-9.71-7.94-7.99-13.25.84-2.59,2.8-4.65,5.52-5.78,2.68-1.12,5.78-1.2,8.73-.25,3.05.99,10.47,4.58,16.68,8.34,12.54,7.61,11.61,10.47,11.3,11.41-.69,2.12-4.65,2.85-9.67,2.85ZM19.72,42.58c-1.42,0-2.8.27-4.07.8-2.33.97-4,2.71-4.71,4.9-1.48,4.57,1.69,9.7,7.07,11.45,7.24,2.35,31.18,5.26,32.44,1.39.43-1.32-2.15-4.57-10.69-9.75-6.12-3.71-13.41-7.24-16.38-8.2h0c-1.21-.39-2.45-.59-3.67-.59Z"/>
      <path class="cls-3" d="M45.99,21.82c3.56,4.91,15.4,28.36,11.19,31.42-4.21,3.06-22.87-15.44-26.43-20.35-3.56-4.9-3.04-11.36,1.17-14.42,4.21-3.06,10.51-1.56,14.07,3.34"/>
      <path class="cls-4" d="M56.02,54.34c-1.77,0-5.32-1.32-12.76-7.74-5.5-4.74-11.2-10.69-13.08-13.28-1.82-2.51-2.7-5.48-2.46-8.38.24-2.93,1.58-5.43,3.79-7.04,2.21-1.6,5-2.11,7.86-1.43,2.82.67,5.38,2.42,7.21,4.93h0c2.58,3.55,16.12,28.72,11.03,32.42-.26.19-.71.51-1.58.51ZM36.91,17.6c-1.68,0-3.25.49-4.57,1.45-1.87,1.36-3,3.49-3.21,6-.21,2.55.57,5.19,2.2,7.42,1.84,2.53,7.44,8.37,12.86,13.04,7.56,6.52,11.45,7.96,12.57,7.15,3.3-2.4-6.87-24.26-11.35-30.43h0c-1.62-2.23-3.89-3.79-6.38-4.38-.72-.17-1.43-.25-2.12-.25Z"/>
      <path class="cls-3" d="M76.24,18.26c0,6.06-4.22,32-9.42,32s-9.42-25.94-9.42-32,4.22-10.98,9.42-10.98,9.42,4.91,9.42,10.98"/>
      <path class="cls-4" d="M66.82,50.97c-6.3,0-10.13-28.32-10.13-32.71,0-6.45,4.55-11.69,10.13-11.69s10.13,5.24,10.13,11.69c0,4.39-3.84,32.71-10.13,32.71ZM66.82,7.99c-4.8,0-8.71,4.6-8.71,10.26,0,7.62,4.63,31.29,8.71,31.29s8.71-23.67,8.71-31.29c0-5.66-3.91-10.26-8.71-10.26Z"/>
      <path class="cls-3" d="M102.82,33.16c-3.56,4.91-22.22,23.41-26.43,20.35-4.21-3.06,7.62-26.52,11.19-31.43,3.56-4.9,9.87-6.4,14.08-3.34,4.21,3.06,4.73,9.51,1.17,14.42"/>
      <path class="cls-4" d="M77.55,54.6c-.87,0-1.31-.32-1.58-.51-5.09-3.7,8.45-28.87,11.03-32.42,1.82-2.51,4.38-4.26,7.21-4.93,2.86-.68,5.66-.17,7.86,1.43,2.21,1.6,3.55,4.1,3.79,7.03.23,2.89-.64,5.87-2.47,8.38-1.88,2.59-7.59,8.55-13.08,13.28-7.44,6.42-10.99,7.74-12.76,7.74ZM96.65,17.87c-.69,0-1.4.08-2.12.25-2.49.59-4.76,2.15-6.38,4.38-4.48,6.16-14.64,28.03-11.34,30.43,1.12.81,5.01-.64,12.57-7.15,5.42-4.67,11.03-10.51,12.86-13.04h0c1.62-2.23,2.4-4.87,2.2-7.42-.2-2.51-1.34-4.64-3.21-6-1.32-.96-2.9-1.45-4.58-1.45Z"/>
      <path class="cls-3" d="M115.56,60.83c-5.77,1.87-31.74,5.88-33.34.93-1.61-4.95,21.75-16.98,27.52-18.85,5.77-1.87,11.74.62,13.35,5.57,1.61,4.95-1.76,10.48-7.53,12.35"/>
      <path class="cls-4" d="M91.2,64.83c-5.02,0-8.98-.73-9.67-2.85-.3-.94-1.23-3.8,11.3-11.41,6.2-3.76,13.63-7.35,16.68-8.34,6.13-1.99,12.52.71,14.25,6.03.84,2.59.46,5.41-1.07,7.92-1.51,2.48-3.97,4.37-6.92,5.33h0c-2.7.88-15.4,3.32-24.58,3.32ZM113.61,43c-1.2,0-2.43.19-3.66.59-2.97.96-10.26,4.49-16.38,8.2-8.53,5.18-11.12,8.43-10.69,9.75,1.26,3.88,25.2.97,32.45-1.39,2.63-.85,4.81-2.53,6.14-4.72,1.31-2.15,1.64-4.54.93-6.74-1.15-3.53-4.74-5.7-8.79-5.7Z"/>
      <path class="cls-3" d="M109.59,90.71c-5.77-1.87-29.13-13.9-27.52-18.85,1.61-4.95,27.58-.95,33.34.93,5.77,1.87,9.14,7.4,7.53,12.35-1.61,4.95-7.58,7.44-13.35,5.57"/>
      <path class="cls-4" d="M113.48,92.05c-1.36,0-2.75-.22-4.11-.66-3.05-.99-10.47-4.58-16.68-8.34-12.54-7.61-11.61-10.47-11.3-11.41,1.95-5.99,30.07-.88,34.24.47,6.13,1.99,9.71,7.94,7.99,13.25-.84,2.6-2.8,4.65-5.52,5.78-1.45.6-3.02.91-4.62.91ZM90.84,70.19c-4.37,0-7.64.52-8.08,1.89-.43,1.32,2.15,4.57,10.69,9.75,6.12,3.71,13.41,7.24,16.38,8.2,2.63.85,5.38.78,7.74-.21,2.33-.97,4-2.71,4.71-4.9,1.48-4.57-1.69-9.7-7.07-11.45-4.69-1.52-16.36-3.28-24.36-3.28Z"/>
      <path class="cls-3" d="M87.21,111.38c-3.56-4.91-15.4-28.36-11.19-31.42,4.21-3.06,22.87,15.44,26.43,20.35,3.56,4.9,3.04,11.36-1.17,14.42-4.21,3.06-10.51,1.56-14.07-3.34"/>
      <path class="cls-4" d="M96.3,117.02c-.8,0-1.63-.1-2.46-.3-2.82-.67-5.38-2.42-7.21-4.93h0c-2.58-3.55-16.12-28.72-11.03-32.42.8-.58,3.23-2.35,14.34,7.22,5.49,4.73,11.2,10.69,13.08,13.28,3.79,5.21,3.19,12.13-1.33,15.41-1.57,1.14-3.43,1.73-5.41,1.73ZM87.79,110.96c1.62,2.23,3.89,3.79,6.38,4.38,2.45.58,4.83.16,6.7-1.2,3.88-2.82,4.34-8.84,1.01-13.42-1.84-2.53-7.44-8.37-12.86-13.04-7.56-6.52-11.46-7.96-12.57-7.15-3.3,2.4,6.87,24.27,11.35,30.43h0Z"/>
      <path class="cls-1" d="M55.11,71.02c.15.4.33.79.52,1.17,1.49,2.93,4.04,5.11,7.17,6.12,1.03.33,2.09.52,3.16.58v-11.4l-10.85,3.52Z"/>
      <path class="cls-5" d="M74.36,57.04l-6.7,9.22,10.83,3.52c1.28-4.79-.46-9.75-4.14-12.74Z"/>
      <path class="cls-1" d="M67.26,78.9c4.86-.25,9.09-3.33,10.84-7.88l-10.84-3.52v11.4Z"/>
      <path class="cls-5" d="M73.3,56.28c-.88-.57-1.84-1.05-2.89-1.39-1.24-.4-2.52-.61-3.81-.61-2.45,0-4.76.72-6.7,1.99l6.7,9.23,6.7-9.22Z"/>
      <path class="cls-1" d="M58.85,57.03c-1.8,1.46-3.2,3.44-3.96,5.76-.75,2.3-.8,4.71-.18,6.99l10.84-3.52-6.7-9.23Z"/>
      <path class="cls-2" d="M53.87,71.42h0s-.02-.07-.04-.1l.03.1Z"/>
      <path class="cls-2" d="M65.96,66.81l-.4-.55-10.84,3.52c.11.42.24.83.4,1.24l10.85-3.52v-.69Z"/>
      <path class="cls-2" d="M66.21,66.05l.4-.55-6.7-9.23c-.36.24-.72.49-1.05.77l6.7,9.23.65-.21Z"/>
      <path class="cls-2" d="M59.13,55.2l-1.05.77v.02c.35-.27.71-.53,1.07-.76l-.02-.02Z"/>
      <polygon class="cls-2" points="66.61 66.6 66.08 66.22 66.21 66.05 65.55 66.26 65.96 66.81 65.96 66.6 66.61 66.6"/>
      <path class="cls-2" d="M79.34,71.42l.04-.12s-.03.08-.05.12h0Z"/>
      <path class="cls-2" d="M67.26,66.81v.69l10.84,3.52c.08-.2.16-.4.23-.61.07-.21.11-.42.17-.63l-10.83-3.52-.4.55Z"/>
      <path class="cls-2" d="M66.61,67.28l-.65.21v11.4c.22.01.44.03.65.03s.43-.01.65-.03v-11.4l-.65-.21Z"/>
      <polygon class="cls-2" points="66.61 66.6 66.08 66.98 65.96 66.81 65.96 67.5 66.61 67.28 66.41 67.22 66.61 66.6"/>
      <polygon class="cls-2" points="66.61 66.6 65.96 66.6 65.96 66.81 66.08 66.98 66.61 66.6"/>
      <polygon class="cls-2" points="66.61 66.6 66.81 67.22 66.61 67.28 67.26 67.5 67.26 66.81 67.13 66.98 66.61 66.6"/>
      <polygon class="cls-2" points="66.61 66.6 66.41 67.22 66.61 67.28 66.81 67.22 66.61 66.6"/>
      <path class="cls-2" d="M75.13,55.98l-.13-.1s.09.07.13.1h0Z"/>
      <path class="cls-2" d="M74.07,55.21h0s.06.04.09.06l-.08-.06Z"/>
      <path class="cls-2" d="M67.01,66.05l.65.21,6.7-9.22c-.34-.27-.69-.53-1.05-.76l-6.7,9.22.4.55Z"/>
      <polygon class="cls-2" points="66.61 66.6 66.81 65.98 67.01 66.05 66.61 65.49 66.21 66.05 66.41 65.98 66.61 66.6"/>
      <polygon class="cls-2" points="66.61 66.6 66.41 65.98 66.21 66.05 66.08 66.22 66.61 66.6"/>
      <polygon class="cls-2" points="67.13 66.22 66.61 66.6 67.26 66.6 67.26 66.81 67.66 66.26 67.01 66.05 67.13 66.22"/>
      <polygon class="cls-2" points="66.61 66.6 67.13 66.22 67.01 66.05 66.81 65.98 66.61 66.6"/>
      <polygon class="cls-2" points="66.61 66.6 67.13 66.98 67.26 66.81 67.26 66.6 66.61 66.6"/>
      <path class="cls-2" d="M74.16,55.28l.84.61c-.27-.21-.55-.42-.84-.61Z"/>
      <path class="cls-2" d="M79.56,70.81c.04-.14.07-.28.11-.41l-.29.9c.06-.16.13-.32.18-.49Z"/>
      <path class="cls-2" d="M66.61,54.28c1.29,0,2.57.2,3.81.61,1.05.34,2.01.82,2.89,1.39l.77-1.06c-.99-.65-2.07-1.19-3.25-1.57-1.4-.45-2.82-.67-4.21-.67-2.68,0-5.27.81-7.46,2.24l.76,1.05c1.95-1.26,4.26-1.99,6.7-1.99Z"/>
      <path class="cls-2" d="M54.71,69.78c-.61-2.28-.56-4.69.18-6.99.76-2.33,2.16-4.3,3.96-5.76l-.76-1.05c-2,1.6-3.58,3.79-4.43,6.41-.98,3.03-.84,6.15.19,8.93l-.37-1.13,1.24-.4Z"/>
      <path class="cls-2" d="M62.8,78.32c-3.13-1.02-5.68-3.19-7.17-6.12-.2-.38-.37-.78-.52-1.17l-1.23.4c1.41,3.73,4.44,6.81,8.52,8.13,1.18.38,2.37.59,3.56.64v-1.3c-1.07-.06-2.13-.25-3.16-.58Z"/>
      <path class="cls-2" d="M67.26,78.9v1.3c5.28-.25,10.12-3.59,12.08-8.78l-1.24-.4c-1.75,4.55-5.98,7.62-10.84,7.88Z"/>
      <path class="cls-2" d="M78.49,69.78l1.24.4c1.46-5.35-.48-10.88-4.61-14.19l-.77,1.06c3.68,2.99,5.42,7.95,4.14,12.74Z"/>
      <path class="cls-2" d="M54.71,69.78l-1.24.4.37,1.13s.02.07.04.1l1.23-.4c-.16-.41-.29-.82-.4-1.24Z"/>
      <path class="cls-2" d="M59.9,56.26l-.76-1.05c-.36.24-.72.49-1.06.76l.76,1.05c.34-.27.69-.53,1.05-.77Z"/>
      <path class="cls-2" d="M78.49,69.78c-.06.21-.1.42-.17.63-.07.21-.15.41-.23.61l1.24.4s.03-.08.05-.12l.29-.9c.02-.07.04-.14.06-.22l-1.24-.4Z"/>
      <path class="cls-2" d="M74.36,57.04l.77-1.06s-.09-.07-.13-.1l-.84-.61s-.06-.04-.09-.06l-.77,1.06c.37.24.72.49,1.05.76Z"/>
      <rect class="cls-4" x="53.33" y="67.99" width="13.6" height="1.43" transform="translate(-18.27 21.91) rotate(-17.97)"/>
      <rect class="cls-4" x="61.89" y="54.28" width="1.43" height="13.62" transform="translate(-23.95 48.46) rotate(-36)"/>
      <rect class="cls-4" x="72.36" y="61.9" width="1.43" height="13.6" transform="translate(-14.85 116.96) rotate(-72)"/>
      <rect class="cls-4" x="65.89" y="66.6" width="1.43" height="13.62"/>
      <rect class="cls-4" x="63.8" y="60.39" width="13.6" height="1.43" transform="translate(-20.34 82.27) rotate(-53.98)"/>
      <path class="cls-4" d="M66.6,54.4h0c1.28,0,2.54.2,3.77.6,3.1,1.01,5.62,3.16,7.1,6.06,1.48,2.9,1.74,6.21.73,9.3-1.64,5.04-6.3,8.43-11.6,8.43-1.28,0-2.54-.2-3.77-.6-3.1-1.01-5.62-3.16-7.1-6.06-1.48-2.9-1.74-6.21-.73-9.3,1.64-5.04,6.3-8.43,11.6-8.43M66.6,52.98c-5.74,0-11.08,3.66-12.95,9.42-2.32,7.15,1.59,14.84,8.75,17.16,1.4.45,2.82.67,4.21.67,5.74,0,11.08-3.66,12.95-9.42,2.32-7.15-1.59-14.84-8.75-17.16-1.4-.45-2.82-.67-4.21-.67h0Z"/>
    </g>
  </g>
</svg>