<?xml version="1.0" encoding="UTF-8"?>
<svg id="Layer_2" data-name="Layer 2" xmlns="http://www.w3.org/2000/svg" xmlns:xlink="http://www.w3.org/1999/xlink" viewBox="0 0 228.92 228.92">
  <defs>
    <style>
      .cls-1, .cls-2 {
        fill: none;
      }

      .cls-2 {
        stroke: #d6b890;
        stroke-miterlimit: 10;
        stroke-width: 4.42px;
      }

      .cls-3 {
        fill: #f8ead6;
      }

      .cls-4 {
        clip-path: url(#clippath-6);
      }

      .cls-5 {
        fill: #fff;
      }

      .cls-6 {
        fill: #984499;
      }

      .cls-7 {
        fill: #081b1e;
      }

      .cls-8 {
        clip-path: url(#clippath);
      }
    </style>
    <clipPath id="clippath">
      <rect class="cls-1" x="2.21" y="2.21" width="224.49" height="224.49" rx="18.06" ry="18.06"/>
    </clipPath>
    <clipPath id="clippath-6">
      <rect class="cls-2" x="2.21" y="2.21" width="224.49" height="224.49" rx="18.06" ry="18.06"/>
    </clipPath>
  </defs>
  <g id="Layer_1-2" data-name="Layer 1">
    <g>
      <g class="cls-8">
        <rect class="cls-3" x="2.21" y="2.21" width="224.49" height="224.49"/>
      </g>
      <g>
        <g>
          <g>
            <path class="cls-6" d="M95.92,92.12c-1.19.47-5.77,1.22-14.07-9.85-8.98-11.93-18.58-6.56-29.66-21.41-9.11-12.24-2.27-25.93.07-29.88h0c4.48-.99,19.62-3.22,28.41,9.26,10.64,15.16,2.55,22.61,11.08,34.86,7.92,11.34,5.4,15.78,4.59,16.76l-.43.26Z"/>
            <path class="cls-7" d="M94.64,93.53c-2.56,0-7.12-1.73-13.73-10.54-4.04-5.37-8.26-7.08-12.72-8.89-5.11-2.07-10.89-4.42-16.94-12.52-9.54-12.83-2.41-27.12,0-31.19l.26-.44.5-.11c4.62-1.02,20.43-3.34,29.64,9.73,5.81,8.27,6.23,14.51,6.61,20,.33,4.81.64,9.35,4.48,14.87,8.09,11.58,5.86,16.58,4.53,18.2l-.3.26-.6.34c-.41.16-.98.3-1.72.3ZM53.03,32.04c-2.43,4.27-8.24,16.89.12,28.12,5.65,7.57,10.87,9.69,15.93,11.74,4.57,1.85,9.29,3.77,13.73,9.67,7.77,10.37,11.88,9.71,12.61,9.48l.13-.08c.57-.85,2.41-4.93-4.75-15.19-4.22-6.06-4.57-11.14-4.9-16.06-.37-5.44-.75-11.07-6.18-18.8-8.05-11.43-21.87-9.86-26.68-8.89Z"/>
          </g>
          <g>
            <path class="cls-6" d="M112.77,85.77c-1.24-.32-5.39-2.4-5.62-16.23-.27-14.93-11.2-16.21-11.47-34.74-.2-15.26,13.37-22.33,17.58-24.16h0c4.21,1.83,17.78,8.9,17.58,24.16-.27,18.53-11.2,19.81-11.47,34.74-.23,13.83-4.87,15.95-6.11,16.27l-.49-.04Z"/>
            <path class="cls-7" d="M113.37,87.01l-.89-.09c-1.88-.48-6.27-3.15-6.51-17.35-.12-6.72-2.53-10.58-5.09-14.67-2.92-4.67-6.23-9.97-6.38-20.07-.21-15.99,13.95-23.38,18.29-25.27l.47-.21.47.21c4.35,1.88,18.51,9.28,18.3,25.26-.15,10.11-3.46,15.4-6.38,20.08-2.55,4.09-4.97,7.95-5.09,14.67-.24,14.13-4.98,16.87-7,17.39l-.19.05ZM112.99,84.6h.15c.96-.35,4.84-2.57,5.06-15.07.13-7.38,2.84-11.71,5.45-15.89,2.89-4.62,5.88-9.4,6.02-18.85.18-13.98-11.93-20.81-16.39-22.84-4.47,2.03-16.58,8.85-16.4,22.85.14,9.44,3.13,14.22,6.02,18.85,2.61,4.18,5.32,8.5,5.45,15.88.22,12.96,3.93,14.83,4.65,15.07Z"/>
          </g>
          <g>
            <path class="cls-6" d="M130.26,90.16c-.81-.99-2.93-5.12,5.06-16.41,8.61-12.2.56-19.7,11.29-34.8,8.86-12.43,23.99-10.11,28.46-9.09h0c2.31,3.97,9.08,17.69-.11,29.88-11.17,14.78-20.74,9.35-29.79,21.23-8.36,11.01-13.36,9.98-14.55,9.5l-.37-.33Z"/>
            <path class="cls-7" d="M132.22,91.95c-.88,0-1.55-.18-2.03-.37l-.34-.21-.51-.47c-1.23-1.5-3.2-6.25,5.01-17.85,3.88-5.49,4.21-10.03,4.57-14.84.41-5.49.87-11.72,6.72-19.96,9.28-13.01,25.07-10.61,29.69-9.56l.5.11.26.44c2.39,4.09,9.44,18.43-.18,31.2-6.1,8.06-11.9,10.38-17.01,12.42-4.48,1.78-8.7,3.47-12.78,8.82-6.47,8.52-11.17,10.25-13.91,10.25ZM131.24,89.44c.99.29,5.43.79,13-9.17,4.47-5.88,9.21-7.76,13.79-9.59,5.07-2.02,10.3-4.11,16-11.64,8.41-11.17,2.68-23.84.28-28.12-4.8-1-18.61-2.66-26.73,8.73-5.47,7.7-5.89,13.32-6.29,18.76-.36,4.92-.74,10-5,16.03-7.49,10.58-5.6,14.28-5.16,14.91l.11.1Z"/>
          </g>
          <g>
            <path class="cls-6" d="M141.51,104.07c-.07-1.27.64-5.86,13.73-10.32,14.13-4.83,12.01-15.62,29.56-21.55,14.47-4.86,25.35,5.89,28.38,9.34h0c-.45,4.57-3.03,19.65-17.62,24.14-17.72,5.41-22.28-4.6-36.58-.28-13.23,4.01-16.67.24-17.36-.84l-.11-.48Z"/>
            <path class="cls-7" d="M185.38,108.51c-4.13,0-7.45-.84-10.54-1.62-4.67-1.18-9.08-2.3-15.52-.36-13.53,4.1-17.59.43-18.7-1.34l-.15-.37-.14-.68c-.11-1.94,1.08-6.93,14.53-11.51,6.36-2.17,9.3-5.65,12.41-9.34,3.55-4.21,7.58-8.98,17.16-12.22,15.15-5.09,26.53,6.12,29.65,9.68l.34.39-.05.51c-.46,4.71-3.17,20.46-18.45,25.15-4.08,1.24-7.51,1.69-10.52,1.69ZM166.11,103.11c3.46,0,6.41.75,9.31,1.48,5.29,1.34,10.76,2.72,19.79-.04,13.37-4.11,16.16-17.73,16.73-22.6-3.3-3.63-13.5-13.07-26.77-8.62-8.95,3.02-12.58,7.33-16.1,11.5-3.18,3.77-6.47,7.66-13.45,10.05-12.27,4.17-12.92,8.28-12.93,9.04l.03.14c.63.8,3.94,3.83,15.91.2,2.78-.84,5.24-1.15,7.48-1.15Z"/>
          </g>
          <g>
            <path class="cls-6" d="M142.43,122.54c.69-1.08,3.95-4.38,17.17-.33,14.28,4.36,18.88-5.64,36.58-.17,14.58,4.53,17.11,19.62,17.54,24.18h0c-3.04,3.44-13.96,14.16-28.41,9.26-17.54-5.98-15.38-16.77-29.49-21.64-13.08-4.49-13.66-9.56-13.58-10.84l.19-.46Z"/>
            <path class="cls-7" d="M192.78,157.93c-2.48,0-5.1-.39-7.85-1.33-9.57-3.26-13.58-8.05-17.12-12.27-3.1-3.69-6.02-7.18-12.38-9.37-13.37-4.59-14.51-9.95-14.38-12.04l.09-.38.29-.64c1.04-1.64,4.93-4.99,18.52-.83,6.43,1.97,10.85.86,15.52-.31,5.34-1.33,11.4-2.85,21.06.14,15.27,4.74,17.92,20.49,18.37,25.2l.02.2-.12.48-.19.22c-2.57,2.9-10.68,10.92-21.83,10.92ZM143.42,123.25c.04,1.02.95,5.4,12.78,9.47,6.98,2.41,10.26,6.31,13.42,10.09,3.5,4.18,7.13,8.5,16.07,11.55,13.24,4.49,23.48-4.92,26.79-8.53-.55-4.87-3.3-18.5-16.66-22.65-9.02-2.79-14.49-1.42-19.79-.1-4.78,1.19-9.72,2.43-16.79.28-12.39-3.8-15.32-.85-15.77-.23l-.06.13Z"/>
          </g>
          <g>
            <g>
              <path class="cls-6" d="M133.02,136.79c1.19-.47,5.77-1.22,14.07,9.85,8.98,11.93,18.58,6.56,29.66,21.41,9.11,12.24,2.27,25.93-.07,29.88h0c-4.48.99-19.62,3.22-28.41-9.26-10.64-15.16-2.55-22.61-11.08-34.86-7.92-11.34-5.4-15.78-4.59-16.76l.43-.26Z"/>
              <path class="cls-7" d="M169.13,199.92c-6.73,0-15.73-1.9-21.84-10.57-5.81-8.28-6.23-14.5-6.61-20-.33-4.81-.64-9.35-4.48-14.87-8.09-11.58-5.86-16.58-4.53-18.2l.3-.26.61-.35c1.8-.7,6.92-1.13,15.45,10.24,4.04,5.37,8.26,7.08,12.72,8.89,5.1,2.07,10.89,4.42,16.94,12.52,9.54,12.82,2.41,27.12,0,31.19l-.26.44-.5.11c-1.56.34-4.39.83-7.8.83ZM133.41,137.94c-.57.85-2.42,4.93,4.75,15.19,4.22,6.06,4.57,11.15,4.9,16.06.37,5.44.75,11.06,6.18,18.8,8.05,11.43,21.86,9.86,26.68,8.89,2.42-4.27,8.24-16.89-.12-28.12-5.65-7.57-10.87-9.69-15.93-11.74-4.57-1.85-9.29-3.77-13.73-9.67-7.78-10.37-11.88-9.71-12.61-9.48l-.13.07Z"/>
            </g>
            <g>
              <path class="cls-6" d="M116.17,143.14c1.24.32,5.39,2.4,5.62,16.23.27,14.93,11.2,16.21,11.47,34.74.2,15.26-13.37,22.33-17.58,24.16h0c-4.21-1.83-17.78-8.9-17.58-24.16.27-18.53,11.2-19.81,11.47-34.74.23-13.83,4.87-15.95,6.11-16.27l.49.04Z"/>
              <path class="cls-7" d="M115.68,219.56l-.47-.2c-4.35-1.89-18.51-9.28-18.3-25.27.15-10.11,3.46-15.4,6.38-20.07,2.55-4.09,4.97-7.95,5.09-14.67.24-14.13,4.98-16.87,7-17.4l.19-.05.89.09c1.88.48,6.27,3.14,6.51,17.35.12,6.72,2.53,10.58,5.09,14.67,2.92,4.67,6.23,9.97,6.38,20.07.21,15.98-13.95,23.38-18.29,25.27l-.47.2ZM115.81,144.31c-.96.36-4.84,2.58-5.06,15.08-.13,7.38-2.84,11.7-5.45,15.88-2.89,4.62-5.88,9.4-6.02,18.85-.18,13.98,11.93,20.81,16.39,22.85,4.47-2.04,16.58-8.86,16.4-22.85-.14-9.44-3.13-14.22-6.02-18.85-2.61-4.18-5.32-8.5-5.45-15.88-.22-12.97-3.93-14.83-4.65-15.07h-.15Z"/>
            </g>
            <g>
              <path class="cls-6" d="M98.69,138.75c.81.99,2.93,5.12-5.06,16.41-8.61,12.2-.56,19.7-11.29,34.8-8.86,12.43-23.99,10.11-28.46,9.09h0c-2.31-3.97-9.08-17.69.11-29.88,11.17-14.78,20.74-9.35,29.79-21.23,8.36-11.01,13.36-9.98,14.55-9.5l.37.33Z"/>
              <path class="cls-7" d="M61.62,201.09c-3.51,0-6.42-.52-8-.88l-.5-.11-.26-.45c-2.39-4.09-9.44-18.42.18-31.19,6.1-8.06,11.9-10.38,17.01-12.42,4.48-1.78,8.7-3.47,12.78-8.82,8.55-11.26,13.99-10.67,15.93-9.89l.34.2.52.47c1.23,1.5,3.19,6.25-5.01,17.85-3.88,5.49-4.21,10.03-4.57,14.84-.41,5.49-.87,11.72-6.72,19.96-6.09,8.54-14.99,10.44-21.69,10.44ZM54.64,198c4.81,1.01,18.61,2.67,26.73-8.73,5.47-7.7,5.89-13.32,6.29-18.76.36-4.92.74-10,5-16.03,7.48-10.57,5.6-14.28,5.16-14.91l-.11-.1c-.98-.29-5.42-.8-13,9.18-4.47,5.87-9.21,7.76-13.79,9.59-5.07,2.02-10.3,4.11-16,11.64-8.41,11.17-2.68,23.83-.28,28.11Z"/>
            </g>
            <g>
              <path class="cls-6" d="M87.44,124.84c.07,1.27-.64,5.86-13.73,10.32-14.13,4.83-12.01,15.62-29.56,21.55-14.47,4.86-25.35-5.89-28.38-9.34h0c.45-4.57,3.03-19.65,17.62-24.14,17.72-5.41,22.28,4.6,36.58.28,13.23-4.01,16.67-.24,17.36.84l.11.48Z"/>
              <path class="cls-7" d="M36.75,159.14c-11.2,0-19.3-8.07-21.86-10.99l-.34-.39.05-.51c.46-4.71,3.16-20.46,18.45-25.15,9.67-2.96,15.72-1.42,21.06-.07,4.67,1.18,9.09,2.29,15.52.35,13.53-4.1,17.59-.42,18.7,1.34l.15.37.14.68c.11,1.94-1.08,6.94-14.53,11.51-6.36,2.17-9.3,5.65-12.4,9.33-3.55,4.21-7.58,8.98-17.16,12.22-2.73.92-5.33,1.31-7.79,1.31ZM17.01,146.97c3.3,3.63,13.5,13.07,26.77,8.61,8.95-3.02,12.58-7.33,16.1-11.5,3.18-3.77,6.47-7.66,13.45-10.05,12.27-4.17,12.92-8.28,12.93-9.04l-.03-.14c-.63-.8-3.93-3.83-15.91-.2-7.07,2.13-12.01.88-16.79-.33-5.29-1.34-10.76-2.72-19.79.04-13.37,4.11-16.16,17.73-16.73,22.6Z"/>
            </g>
            <g>
              <path class="cls-6" d="M86.52,106.37c-.69,1.08-3.95,4.38-17.17.33-14.28-4.36-18.88,5.64-36.58.17-14.58-4.53-17.11-19.62-17.54-24.18h0c3.04-3.44,13.96-14.16,28.41-9.26,17.54,5.98,15.38,16.77,29.49,21.64,13.08,4.49,13.66,9.56,13.58,10.84l-.19.46Z"/>
              <path class="cls-7" d="M80.08,109.84c-2.68,0-6.27-.53-11.08-2.01-6.43-1.96-10.85-.86-15.52.31-5.34,1.33-11.4,2.85-21.06-.14-15.26-4.74-17.92-20.49-18.38-25.2l-.05-.51.34-.39c3.14-3.55,14.55-14.74,29.68-9.6,9.57,3.26,13.58,8.05,17.12,12.27,3.1,3.69,6.02,7.18,12.38,9.37,13.36,4.59,14.51,9.95,14.38,12.04l-.09.39-.29.64c-.67,1.06-2.53,2.83-7.44,2.83ZM62.15,104.39c2.26,0,4.74.32,7.55,1.18,12.39,3.8,15.32.85,15.77.24l.06-.14c-.04-1.02-.95-5.4-12.78-9.47-6.98-2.41-10.26-6.31-13.42-10.09-3.5-4.18-7.13-8.5-16.07-11.55-13.24-4.5-23.48,4.92-26.79,8.53.55,4.88,3.3,18.5,16.66,22.65,9.02,2.79,14.49,1.42,19.78.1,2.88-.72,5.82-1.45,9.24-1.45Z"/>
            </g>
          </g>
        </g>
        <g>
          <g>
            <path class="cls-5" d="M114.46,152.37c-20.91,0-37.92-17.01-37.92-37.92s17.01-37.92,37.92-37.92,37.92,17.01,37.92,37.92-17.01,37.92-37.92,37.92Z"/>
            <path class="cls-7" d="M114.46,77.79c20.25,0,36.67,16.42,36.67,36.67s-16.42,36.67-36.67,36.67-36.67-16.42-36.67-36.67,16.42-36.67,36.67-36.67M114.46,75.29c-21.6,0-39.17,17.57-39.17,39.17s17.57,39.17,39.17,39.17,39.17-17.57,39.17-39.17-17.57-39.17-39.17-39.17h0Z"/>
          </g>
          <g>
            <path class="cls-5" d="M114.46,144.32c-16.46,0-29.86-13.39-29.86-29.86s13.4-29.86,29.86-29.86,29.86,13.4,29.86,29.86-13.39,29.86-29.86,29.86Z"/>
            <path class="cls-7" d="M114.46,85.85c15.8,0,28.61,12.81,28.61,28.61s-12.81,28.61-28.61,28.61-28.61-12.81-28.61-28.61,12.81-28.61,28.61-28.61M114.46,83.35c-17.15,0-31.11,13.96-31.11,31.11s13.96,31.11,31.11,31.11,31.11-13.96,31.11-31.11-13.96-31.11-31.11-31.11h0Z"/>
          </g>
        </g>
      </g>
      <path class="cls-7" d="M105.2,95.87h20.35v5.94h-14.58l-.88,8.06c.52-.3,1.26-.61,2.22-.93.96-.32,2.06-.48,3.3-.48,1.77,0,3.34.28,4.72.84,1.38.56,2.56,1.37,3.51,2.43.94,1.06,1.66,2.35,2.17,3.88.5,1.53.76,3.26.76,5.19,0,1.65-.25,3.21-.73,4.68-.49,1.48-1.24,2.78-2.24,3.9-1.01,1.13-2.28,2.01-3.8,2.67-1.53.65-3.33.98-5.42.98-1.58,0-3.1-.24-4.57-.71-1.47-.47-2.78-1.16-3.92-2.07-1.15-.91-2.07-2.02-2.78-3.34-.72-1.32-1.1-2.82-1.15-4.52h6.9c.17,1.6.75,2.83,1.73,3.7.98.87,2.24,1.31,3.77,1.31.94,0,1.74-.18,2.4-.53.66-.35,1.2-.84,1.63-1.46.4-.62.7-1.36.89-2.22.19-.86.29-1.78.29-2.77s-.12-1.87-.37-2.68c-.24-.81-.61-1.51-1.12-2.1s-1.13-1.04-1.89-1.36-1.65-.48-2.67-.48c-.69,0-1.28.06-1.79.17-.5.12-.95.27-1.34.45s-.73.4-1.03.64c-.3.25-.59.5-.85.77l-5.59-1.39,2.09-18.61Z"/>
      <g>
        <g class="cls-4">
          <g>
            <rect class="cls-2" x="2.21" y="2.21" width="224.49" height="224.49"/>
            <rect class="cls-2" x="2.21" y="2.21" width="224.49" height="224.49"/>
            <rect class="cls-2" x="2.21" y="2.21" width="224.49" height="224.49"/>
            <rect class="cls-2" x="2.21" y="2.21" width="224.49" height="224.49"/>
            <rect class="cls-2" x="2.21" y="2.21" width="224.49" height="224.49"/>
            <rect class="cls-2" x="2.21" y="2.21" width="224.49" height="224.49"/>
          </g>
        </g>
        <rect class="cls-2" x="2.21" y="2.21" width="224.49" height="224.49" rx="18.06" ry="18.06"/>
      </g>
    </g>
  </g>
</svg>