<?xml version="1.0" encoding="UTF-8"?>
<svg id="Layer_2" data-name="Layer 2" xmlns="http://www.w3.org/2000/svg" viewBox="0 0 126 126">
  <defs>
    <style>
      .cls-1 {
        fill: #f8ead6;
      }

      .cls-2 {
        fill: #e7a731;
      }

      .cls-3 {
        fill: #081b1e;
      }

      .cls-4 {
        fill: #99459a;
        stroke: #081b1e;
        stroke-miterlimit: 10;
      }

      .cls-5 {
        fill: #010101;
        fill-rule: evenodd;
      }
    </style>
  </defs>
  <g id="Layer_1-2" data-name="Layer 1">
    <g>
      <rect class="cls-1" width="126" height="126"/>
      <path class="cls-1" d="m98.09,108.05c0-5.5,4.46-9.96,9.96-9.96s9.96,4.46,9.96,9.96-4.46,9.96-9.96,9.96-9.96-4.46-9.96-9.96"/>
      <path class="cls-1" d="m27.91,17.95c0,5.5-4.46,9.96-9.96,9.96s-9.96-4.46-9.96-9.96,4.46-9.96,9.96-9.96,9.96,4.46,9.96,9.96"/>
      <path class="cls-3" d="m108.05,118.51c-5.77,0-10.46-4.69-10.46-10.46s4.69-10.46,10.46-10.46,10.46,4.69,10.46,10.46-4.69,10.46-10.46,10.46Zm0-19.92c-5.22,0-9.46,4.24-9.46,9.46s4.24,9.46,9.46,9.46,9.46-4.24,9.46-9.46-4.24-9.46-9.46-9.46Z"/>
      <path class="cls-3" d="m17.95,28.41c-5.77,0-10.46-4.69-10.46-10.46s4.69-10.46,10.46-10.46,10.46,4.69,10.46,10.46-4.69,10.46-10.46,10.46Zm0-19.92c-5.22,0-9.46,4.24-9.46,9.46s4.24,9.46,9.46,9.46,9.46-4.24,9.46-9.46-4.24-9.46-9.46-9.46Z"/>
      <path class="cls-3" d="m109.94,11.45c2.54,0,4.61,2.07,4.61,4.61v74.03h1V16.06c0-3.09-2.52-5.61-5.61-5.61H35.91v1h74.03Z"/>
      <path class="cls-3" d="m16.06,114.55c-2.54,0-4.61-2.07-4.61-4.61V35.91h-1v74.03c0,3.09,2.52,5.61,5.61,5.61h74.03v-1H16.06Z"/>
      <path class="cls-3" d="m15.26,12.54h5.92v1.73h-4.24l-.26,2.34c.15-.09.37-.18.64-.27.28-.09.6-.14.96-.14.51,0,.97.08,1.37.25.4.16.74.4,1.02.71.27.31.48.68.63,1.13s.22.95.22,1.51c0,.48-.07.93-.21,1.36-.14.43-.36.81-.65,1.13-.29.33-.66.59-1.11.78-.45.19-.97.29-1.58.29-.46,0-.9-.07-1.33-.21-.43-.14-.81-.34-1.14-.6-.33-.26-.6-.59-.81-.97-.21-.38-.32-.82-.33-1.31h2.01c.05.46.22.82.5,1.08.29.25.65.38,1.1.38.27,0,.51-.05.7-.15.19-.1.35-.24.47-.42.12-.18.2-.4.26-.64.06-.25.08-.52.08-.81s-.04-.54-.11-.78c-.07-.24-.18-.44-.33-.61s-.33-.3-.55-.4-.48-.14-.78-.14c-.2,0-.37.02-.52.05s-.28.08-.39.13-.21.12-.3.19c-.09.07-.17.15-.25.22l-1.63-.4.61-5.41Z"/>
      <path class="cls-3" d="m110.74,113.46h-5.92v-1.73h4.24l.26-2.34c-.15.09-.37.18-.64.27-.28.09-.6.14-.96.14-.51,0-.97-.08-1.37-.25-.4-.16-.74-.4-1.02-.71-.27-.31-.48-.68-.63-1.13s-.22-.95-.22-1.51c0-.48.07-.93.21-1.36.14-.43.36-.81.65-1.13.29-.33.66-.59,1.11-.78.45-.19.97-.29,1.58-.29.46,0,.9.07,1.33.21.43.14.81.34,1.14.6.33.26.6.59.81.97.21.38.32.82.33,1.31h-2.01c-.05-.46-.22-.82-.5-1.08-.29-.25-.65-.38-1.1-.38-.27,0-.51.05-.7.15-.19.1-.35.24-.47.42-.12.18-.2.4-.26.64-.06.25-.08.52-.08.81s.04.54.11.78c.07.24.18.44.33.61s.33.3.55.4.48.14.78.14c.2,0,.37-.02.52-.05s.28-.08.39-.13.21-.12.3-.19c.09-.07.17-.15.25-.22l1.63.4-.61,5.41Z"/>
      <path class="cls-2" d="m57.54,54.66l-.77.56h0c.25-.19.51-.37.77-.54v-.02Z"/>
      <path class="cls-2" d="m69.23,55.24l-.1-.07s.06.05.09.07h0Z"/>
      <path class="cls-2" d="m68.46,54.68h0s.04.03.06.04l-.06-.04Z"/>
      <path class="cls-2" d="m68.52,54.72l.61.45c-.2-.16-.4-.3-.61-.45Z"/>
      <path class="cls-5" d="m63.53,58.02l1.28,2.73,2.99.38c.49.06.68.67.33,1l-2.2,2.06.57,2.96c.09.49-.42.86-.85.62l-2.64-1.46-2.64,1.46c-.43.24-.95-.13-.85-.62l.57-2.96-2.2-2.06c-.36-.34-.17-.94.33-1l2.99-.38,1.28-2.73c.21-.45.84-.45,1.05,0h0Z"/>
      <path class="cls-3" d="m63,54.04h0c.94,0,1.87.15,2.77.44,2.28.74,4.13,2.32,5.21,4.45,1.09,2.13,1.28,4.56.54,6.83-1.2,3.7-4.63,6.19-8.52,6.19-.94,0-1.87-.15-2.77-.44-2.28-.74-4.13-2.32-5.21-4.45-1.09-2.13-1.28-4.56-.54-6.83,1.2-3.7,4.63-6.19,8.52-6.19m0-1c-4.2,0-8.1,2.68-9.47,6.88-1.7,5.23,1.16,10.85,6.39,12.55,1.02.33,2.06.49,3.08.49,4.2,0,8.1-2.68,9.47-6.88,1.7-5.23-1.16-10.85-6.39-12.55-1.02-.33-2.06-.49-3.08-.49h0Z"/>
      <g>
        <path class="cls-4" d="m54.85,53.19c-.52.2-2.53.53-6.18-4.32-3.94-5.24-8.16-2.88-13.02-9.4-4-5.38-1-11.38.03-13.12h0c1.97-.43,8.61-1.41,12.47,4.06,4.67,6.66,1.12,9.93,4.87,15.31,3.48,4.98,2.37,6.93,2.01,7.36l-.19.11Z"/>
        <path class="cls-4" d="m62.25,50.41c-.54-.14-2.37-1.05-2.47-7.12-.12-6.56-4.92-7.12-5.04-15.25-.09-6.7,5.87-9.8,7.72-10.61h0c1.85.8,7.81,3.91,7.72,10.61-.12,8.13-4.92,8.7-5.04,15.25-.1,6.07-2.14,7-2.68,7.14l-.22-.02Z"/>
        <path class="cls-4" d="m69.93,52.33c-.35-.43-1.28-2.25,2.22-7.2,3.78-5.36.24-8.65,4.96-15.28,3.89-5.46,10.53-4.44,12.5-3.99h0c1.02,1.74,3.99,7.77-.05,13.12-4.91,6.49-9.11,4.11-13.08,9.32-3.67,4.84-5.87,4.38-6.39,4.17l-.16-.14Z"/>
        <path class="cls-4" d="m74.87,58.44c-.03-.56.28-2.57,6.03-4.53,6.2-2.12,5.27-6.86,12.98-9.46,6.35-2.13,11.13,2.59,12.46,4.1h0c-.2,2.01-1.33,8.63-7.74,10.6-7.78,2.38-9.78-2.02-16.06-.13-5.81,1.76-7.32.11-7.62-.37l-.05-.21Z"/>
        <path class="cls-4" d="m75.27,66.55c.3-.47,1.73-1.92,7.54-.15,6.27,1.91,8.29-2.48,16.06-.08,6.4,1.99,7.51,8.61,7.7,10.62h0c-1.33,1.51-6.13,6.22-12.47,4.07-7.7-2.63-6.75-7.36-12.95-9.5-5.74-1.97-6-4.2-5.96-4.76l.08-.2Z"/>
        <g>
          <path class="cls-4" d="m71.15,72.81c.52-.2,2.53-.53,6.18,4.32,3.94,5.24,8.16,2.88,13.02,9.4,4,5.38,1,11.38-.03,13.12h0c-1.97.43-8.61,1.41-12.47-4.06-4.67-6.66-1.12-9.93-4.87-15.31-3.48-4.98-2.37-6.93-2.01-7.36l.19-.11Z"/>
          <path class="cls-4" d="m63.75,75.59c.54.14,2.37,1.05,2.47,7.12.12,6.56,4.92,7.12,5.04,15.25.09,6.7-5.87,9.8-7.72,10.61h0c-1.85-.8-7.81-3.91-7.72-10.61.12-8.13,4.92-8.7,5.04-15.25.1-6.07,2.14-7,2.68-7.14l.22.02Z"/>
          <path class="cls-4" d="m56.07,73.67c.35.43,1.28,2.25-2.22,7.2-3.78,5.36-.24,8.65-4.96,15.28-3.89,5.46-10.53,4.44-12.5,3.99h0c-1.02-1.74-3.99-7.77.05-13.12,4.91-6.49,9.11-4.11,13.08-9.32,3.67-4.84,5.87-4.38,6.39-4.17l.16.14Z"/>
          <path class="cls-4" d="m51.13,67.56c.03.56-.28,2.57-6.03,4.53-6.2,2.12-5.27,6.86-12.98,9.46-6.35,2.13-11.13-2.59-12.46-4.1h0c.2-2.01,1.33-8.63,7.74-10.6,7.78-2.38,9.78,2.02,16.06.13,5.81-1.76,7.32-.11,7.62.37l.05.21Z"/>
          <path class="cls-4" d="m50.73,59.45c-.3.47-1.73,1.92-7.54.15-6.27-1.91-8.29,2.48-16.06.08-6.4-1.99-7.51-8.61-7.7-10.62h0c1.33-1.51,6.13-6.22,12.47-4.07,7.7,2.63,6.75,7.36,12.95,9.5,5.74,1.97,6,4.2,5.96,4.76l-.08.2Z"/>
        </g>
      </g>
    </g>
  </g>
</svg>