<?xml version="1.0" encoding="UTF-8"?>
<svg id="Layer_2" data-name="Layer 2" xmlns="http://www.w3.org/2000/svg" xmlns:xlink="http://www.w3.org/1999/xlink" viewBox="0 0 228.92 228.92">
  <defs>
    <style>
      .cls-1, .cls-2 {
        fill: none;
      }

      .cls-2 {
        stroke: #d6b890;
        stroke-miterlimit: 10;
        stroke-width: 4.42px;
      }

      .cls-3 {
        fill: #f8ead6;
      }

      .cls-4 {
        clip-path: url(#clippath-6);
      }

      .cls-5 {
        fill: #fff;
      }

      .cls-6 {
        fill: #f8b62c;
      }

      .cls-7 {
        fill: #081b1e;
      }

      .cls-8 {
        clip-path: url(#clippath);
      }
    </style>
    <clipPath id="clippath">
      <rect class="cls-1" x="2.21" y="2.21" width="224.49" height="224.49" rx="18.06" ry="18.06"/>
    </clipPath>
    <clipPath id="clippath-6">
      <rect class="cls-2" x="2.21" y="2.21" width="224.49" height="224.49" rx="18.06" ry="18.06"/>
    </clipPath>
  </defs>
  <g id="Layer_1-2" data-name="Layer 1">
    <g>
      <g class="cls-8">
        <rect class="cls-3" x="2.21" y="2.21" width="224.49" height="224.49"/>
      </g>
      <g>
        <g>
          <g>
            <path class="cls-6" d="M97.64,198.77c0-10.58,7.36-55.81,16.43-55.81s16.43,45.24,16.43,55.81-7.36,19.14-16.43,19.14-16.43-8.57-16.43-19.14"/>
            <path class="cls-7" d="M114.07,219.16c-9.75,0-17.67-9.15-17.67-20.39,0-7.65,6.69-57.05,17.67-57.05s17.67,49.4,17.67,57.05c0,11.24-7.93,20.39-17.67,20.39ZM114.07,144.21c-7.12,0-15.19,41.28-15.19,54.57,0,9.87,6.81,17.9,15.19,17.9s15.19-8.03,15.19-17.9c0-13.28-8.07-54.57-15.19-54.57Z"/>
          </g>
          <g>
            <path class="cls-6" d="M51.29,172.79c6.21-8.56,38.75-40.83,46.1-35.49,7.34,5.33-13.3,46.25-19.51,54.81-6.22,8.55-17.21,11.17-24.55,5.83-7.34-5.33-8.25-16.59-2.04-25.15"/>
            <path class="cls-7" d="M62.04,201.93c-3.37,0-6.65-.97-9.44-2.99-3.85-2.8-6.2-7.15-6.61-12.27-.41-5.04,1.12-10.23,4.3-14.61,4.49-6.19,38.94-42.22,47.83-35.77,8.87,6.45-14.74,50.36-19.23,56.55-4.27,5.87-10.7,9.1-16.85,9.1ZM95.17,137.88c-8.31,0-35.59,25.61-42.87,35.63h0c-2.83,3.9-4.19,8.5-3.83,12.95.35,4.38,2.34,8.1,5.59,10.46,6.77,4.92,17.01,2.43,22.81-5.55,7.8-10.75,25.53-48.9,19.78-53.08-.39-.28-.89-.41-1.49-.41Z"/>
          </g>
          <g>
            <path class="cls-6" d="M29.07,124.52c10.06-3.27,55.35-10.25,58.16-1.62,2.8,8.63-37.94,29.61-48,32.87-10.06,3.27-20.48-1.08-23.29-9.71-2.8-8.63,3.07-18.28,13.13-21.54"/>
            <path class="cls-7" d="M32.48,158.1c-8.13,0-15.38-4.45-17.72-11.65-1.47-4.52-.81-9.43,1.86-13.81,2.63-4.32,6.92-7.62,12.07-9.29,5.32-1.73,19.48-4.28,32.08-5.33,25.48-2.12,27.11,2.87,27.64,4.51.53,1.64,2.15,6.63-19.71,19.9-10.82,6.56-23.77,12.82-29.08,14.55-2.38.77-4.79,1.14-7.13,1.14ZM29.46,125.7c-4.58,1.49-8.39,4.41-10.71,8.22-2.29,3.75-2.86,7.93-1.62,11.75,2.59,7.96,12.33,11.96,21.72,8.91,5.18-1.68,17.89-7.83,28.56-14.31,14.88-9.03,19.39-14.7,18.64-17-.75-2.3-7.72-4.23-25.07-2.8-12.43,1.03-26.33,3.53-31.52,5.22h0Z"/>
          </g>
          <g>
            <path class="cls-6" d="M39.47,72.41c10.06,3.27,50.8,24.24,48,32.87-2.8,8.63-48.1,1.65-58.16-1.62-10.06-3.27-15.94-12.91-13.13-21.54,2.8-8.63,13.23-12.98,23.29-9.71"/>
            <path class="cls-7" d="M71.79,110.63c-16,0-38.16-4.26-42.86-5.79-10.69-3.48-16.94-13.84-13.93-23.11,1.47-4.53,4.89-8.11,9.63-10.08,4.67-1.95,10.08-2.1,15.23-.43,5.32,1.73,18.27,7.98,29.09,14.54,21.87,13.27,20.25,18.26,19.71,19.89-1.2,3.69-8.11,4.97-16.86,4.97ZM32.68,72.56c-2.47,0-4.88.46-7.1,1.39-4.06,1.69-6.98,4.73-8.22,8.55-2.59,7.96,2.94,16.92,12.33,19.98,12.63,4.1,54.39,9.18,56.59,2.42.75-2.3-3.76-7.97-18.64-17-10.67-6.47-23.38-12.62-28.56-14.3h0c-2.12-.69-4.28-1.03-6.4-1.03Z"/>
          </g>
          <g>
            <path class="cls-6" d="M78.5,36.36c6.21,8.56,26.85,49.47,19.51,54.81-7.34,5.34-39.88-26.94-46.1-35.49-6.22-8.55-5.3-19.81,2.04-25.15,7.34-5.34,18.33-2.72,24.55,5.83"/>
            <path class="cls-7" d="M96,93.07c-3.09,0-9.28-2.31-22.26-13.49-9.58-8.26-19.54-18.65-22.82-23.17-3.18-4.38-4.71-9.57-4.3-14.61.42-5.12,2.76-9.48,6.61-12.27,3.85-2.8,8.72-3.69,13.71-2.5,4.93,1.17,9.39,4.23,12.57,8.6h0c4.5,6.19,28.11,50.09,19.24,56.54-.46.34-1.23.89-2.75.89ZM62.67,29c-2.93,0-5.68.86-7.98,2.53-3.25,2.36-5.24,6.08-5.6,10.46-.36,4.45,1,9.05,3.83,12.95,3.2,4.41,12.98,14.6,22.43,22.75,13.19,11.37,19.97,13.89,21.93,12.47,5.75-4.18-11.98-42.32-19.79-53.07h0c-2.83-3.9-6.78-6.61-11.13-7.65-1.25-.3-2.49-.44-3.7-.44Z"/>
          </g>
          <g>
            <path class="cls-6" d="M131.28,30.14c0,10.58-7.36,55.81-16.43,55.81s-16.43-45.24-16.43-55.81,7.36-19.14,16.43-19.14,16.43,8.57,16.43,19.14"/>
            <path class="cls-7" d="M114.85,87.2c-10.98,0-17.67-49.4-17.67-57.05,0-11.24,7.93-20.39,17.67-20.39s17.67,9.15,17.67,20.39c0,7.65-6.69,57.05-17.67,57.05ZM114.85,12.24c-8.37,0-15.19,8.03-15.19,17.9,0,13.28,8.07,54.57,15.19,54.57s15.19-41.28,15.19-54.57c0-9.87-6.81-17.9-15.19-17.9Z"/>
          </g>
          <g>
            <path class="cls-6" d="M177.62,56.13c-6.21,8.56-38.75,40.83-46.1,35.49-7.34-5.33,13.3-46.25,19.51-54.81,6.22-8.55,17.21-11.17,24.55-5.83,7.34,5.33,8.25,16.59,2.04,25.15"/>
            <path class="cls-7" d="M133.55,93.53c-1.52,0-2.29-.56-2.75-.89-8.88-6.45,14.74-50.36,19.23-56.55,3.18-4.38,7.65-7.43,12.57-8.6,5-1.18,9.87-.3,13.71,2.5,3.85,2.8,6.2,7.15,6.61,12.27.41,5.04-1.12,10.23-4.3,14.61-3.28,4.52-13.23,14.91-22.82,23.17-12.98,11.19-19.17,13.5-22.26,13.5ZM166.88,29.46c-1.21,0-2.45.15-3.7.44-4.35,1.03-8.3,3.75-11.13,7.64-7.81,10.75-25.54,48.9-19.78,53.07,1.96,1.42,8.74-1.11,21.93-12.47,9.45-8.15,19.23-18.34,22.43-22.75h0c2.83-3.9,4.19-8.5,3.83-12.95-.35-4.38-2.34-8.1-5.59-10.46-2.3-1.67-5.05-2.53-7.98-2.53Z"/>
          </g>
          <g>
            <path class="cls-6" d="M199.84,104.4c-10.06,3.27-55.35,10.25-58.16,1.62-2.8-8.63,37.94-29.61,48-32.87,10.06-3.27,20.48,1.08,23.29,9.71,2.8,8.63-3.07,18.28-13.13,21.54"/>
            <path class="cls-7" d="M157.36,111.37c-8.75,0-15.66-1.27-16.86-4.97-.53-1.64-2.15-6.63,19.71-19.9,10.82-6.56,23.77-12.82,29.09-14.55,10.69-3.47,21.84,1.24,24.85,10.51,1.47,4.52.81,9.43-1.86,13.81-2.64,4.32-6.92,7.62-12.07,9.3h0c-4.71,1.53-26.87,5.79-42.87,5.79ZM196.45,73.31c-2.09,0-4.24.33-6.38,1.02-5.18,1.68-17.89,7.83-28.56,14.31-14.88,9.03-19.39,14.7-18.64,17,2.2,6.77,43.96,1.69,56.59-2.42,4.58-1.49,8.39-4.41,10.71-8.22,2.29-3.75,2.86-7.93,1.62-11.75-2-6.15-8.26-9.94-15.34-9.94Z"/>
          </g>
          <g>
            <path class="cls-6" d="M189.45,156.51c-10.06-3.27-50.8-24.24-48-32.87,2.8-8.63,48.1-1.65,58.16,1.62,10.06,3.27,15.94,12.91,13.13,21.54-2.8,8.63-13.23,12.98-23.29,9.71"/>
            <path class="cls-7" d="M196.23,158.84c-2.38,0-4.8-.38-7.17-1.15-5.32-1.73-18.27-7.98-29.08-14.54-21.87-13.27-20.25-18.26-19.71-19.9,3.4-10.44,52.45-1.54,59.72.82,10.69,3.48,16.94,13.84,13.93,23.11-1.47,4.53-4.89,8.11-9.63,10.08-2.52,1.05-5.26,1.58-8.06,1.58ZM156.73,120.72c-7.62,0-13.32.91-14.1,3.3-.75,2.3,3.76,7.97,18.64,17,10.67,6.47,23.38,12.62,28.56,14.3,4.58,1.48,9.38,1.36,13.5-.36,4.06-1.69,6.98-4.73,8.22-8.55,2.59-7.96-2.94-16.93-12.33-19.98-8.17-2.65-28.53-5.72-42.49-5.72Z"/>
          </g>
          <g>
            <path class="cls-6" d="M150.41,192.56c-6.21-8.56-26.85-49.47-19.51-54.81,7.34-5.34,39.88,26.94,46.1,35.49,6.22,8.55,5.3,19.81-2.04,25.15-7.34,5.34-18.33,2.72-24.55-5.83"/>
            <path class="cls-7" d="M166.26,202.41c-1.4,0-2.84-.17-4.29-.51-4.93-1.17-9.39-4.23-12.57-8.6h0c-4.5-6.19-28.11-50.1-19.24-56.55,1.39-1.02,5.64-4.1,25.01,12.6,9.58,8.26,19.54,18.65,22.82,23.17,6.61,9.09,5.57,21.16-2.31,26.89-2.73,1.99-5.99,3.01-9.43,3.01ZM151.42,191.83c2.83,3.9,6.78,6.61,11.13,7.65,4.28,1.02,8.43.28,11.68-2.09,6.78-4.93,7.57-15.43,1.77-23.41-3.2-4.41-12.98-14.6-22.43-22.74-13.19-11.37-19.98-13.89-21.93-12.47-5.75,4.18,11.98,42.32,19.79,53.07h0Z"/>
          </g>
        </g>
        <g>
          <g>
            <path class="cls-5" d="M114.46,152.37c-20.91,0-37.92-17.01-37.92-37.92s17.01-37.92,37.92-37.92,37.92,17.01,37.92,37.92-17.01,37.92-37.92,37.92Z"/>
            <path class="cls-7" d="M114.46,77.79c20.25,0,36.67,16.42,36.67,36.67s-16.42,36.67-36.67,36.67-36.67-16.42-36.67-36.67,16.42-36.67,36.67-36.67M114.46,75.29c-21.6,0-39.17,17.57-39.17,39.17s17.57,39.17,39.17,39.17,39.17-17.57,39.17-39.17-17.57-39.17-39.17-39.17h0Z"/>
          </g>
          <g>
            <path class="cls-5" d="M114.46,144.32c-16.46,0-29.86-13.4-29.86-29.86s13.4-29.86,29.86-29.86,29.86,13.4,29.86,29.86-13.4,29.86-29.86,29.86Z"/>
            <path class="cls-7" d="M114.46,85.85c15.8,0,28.61,12.81,28.61,28.61s-12.81,28.61-28.61,28.61-28.61-12.81-28.61-28.61,12.81-28.61,28.61-28.61M114.46,83.35c-17.15,0-31.11,13.96-31.11,31.11s13.96,31.11,31.11,31.11,31.11-13.96,31.11-31.11-13.96-31.11-31.11-31.11h0Z"/>
          </g>
        </g>
      </g>
      <path class="cls-7" d="M102.33,133.04v-4.79l11.86-12.74c.92-1.01,1.71-1.92,2.34-2.75.64-.82,1.16-1.57,1.56-2.26.39-.67.67-1.3.84-1.89.18-.59.27-1.16.27-1.71,0-.82-.12-1.55-.35-2.19-.24-.63-.56-1.18-.98-1.64-.44-.44-.95-.77-1.55-1.01-.59-.24-1.26-.35-1.97-.35-.94,0-1.77.13-2.48.39-.72.26-1.31.64-1.78,1.15-.49.52-.86,1.17-1.11,1.94s-.38,1.66-.38,2.64h-7.03c0-1.63.31-3.17.93-4.62.62-1.45,1.5-2.72,2.65-3.81,1.12-1.09,2.49-1.95,4.09-2.58,1.6-.63,3.38-.94,5.33-.94s3.51.26,4.95.78c1.43.52,2.64,1.25,3.61,2.19.96.94,1.69,2.07,2.19,3.39.5,1.32.75,2.77.75,4.37,0,1.21-.19,2.36-.56,3.46-.38,1.1-.91,2.19-1.6,3.26-.71,1.07-1.55,2.17-2.52,3.28-.98,1.12-2.06,2.29-3.25,3.51l-6.9,7.31h16.09v5.61h-25.01Z"/>
      <g>
        <g class="cls-4">
          <g>
            <rect class="cls-2" x="2.21" y="2.21" width="224.49" height="224.49"/>
            <rect class="cls-2" x="2.21" y="2.21" width="224.49" height="224.49"/>
            <rect class="cls-2" x="2.21" y="2.21" width="224.49" height="224.49"/>
            <rect class="cls-2" x="2.21" y="2.21" width="224.49" height="224.49"/>
            <rect class="cls-2" x="2.21" y="2.21" width="224.49" height="224.49"/>
            <rect class="cls-2" x="2.21" y="2.21" width="224.49" height="224.49"/>
          </g>
        </g>
        <rect class="cls-2" x="2.21" y="2.21" width="224.49" height="224.49" rx="18.06" ry="18.06"/>
      </g>
    </g>
  </g>
</svg>