<?xml version="1.0" encoding="UTF-8"?>
<svg id="Layer_2" data-name="Layer 2" xmlns="http://www.w3.org/2000/svg" xmlns:xlink="http://www.w3.org/1999/xlink" viewBox="0 0 228.92 228.92">
  <defs>
    <style>
      .cls-1, .cls-2 {
        fill: none;
      }

      .cls-3 {
        fill: #5e7dbd;
      }

      .cls-2 {
        stroke: #d6b890;
        stroke-miterlimit: 10;
        stroke-width: 4.42px;
      }

      .cls-4 {
        fill: #f8ead6;
      }

      .cls-5 {
        clip-path: url(#clippath-6);
      }

      .cls-6 {
        fill: #fff;
      }

      .cls-7 {
        fill: #081b1e;
      }

      .cls-8 {
        clip-path: url(#clippath);
      }
    </style>
    <clipPath id="clippath">
      <rect class="cls-1" x="2.21" y="2.21" width="224.49" height="224.49" rx="18.06" ry="18.06"/>
    </clipPath>
    <clipPath id="clippath-6">
      <rect class="cls-2" x="2.21" y="2.21" width="224.49" height="224.49" rx="18.06" ry="18.06"/>
    </clipPath>
  </defs>
  <g id="Layer_1-2" data-name="Layer 1">
    <g>
      <g class="cls-8">
        <rect class="cls-4" x="2.21" y="2.21" width="224.49" height="224.49"/>
      </g>
      <g>
        <g>
          <g>
            <path class="cls-3" d="M119.12,148.41l9.75,30.05c2.74,8.44,1.66,18.63-2.68,25.3l-8.15,12.52c-2.01,3.1-5.28,3.1-7.3,0l-8.03-12.34c-4.34-6.68-5.42-16.88-2.67-25.33l9.83-30.21c1.91-5.85,7.34-5.84,9.24,0"/>
            <path class="cls-7" d="M114.4,219.83c-1.81,0-3.47-1.02-4.68-2.88l-8.03-12.34c-4.54-6.98-5.67-17.58-2.81-26.37l9.84-30.21c1.05-3.23,3.27-5.23,5.78-5.23h0c2.52,0,4.73,2.01,5.78,5.24l9.76,30.05c2.85,8.79,1.72,19.37-2.82,26.35l-8.15,12.52c-1.21,1.86-2.87,2.88-4.67,2.88h0ZM114.5,145.24c-1.42,0-2.74,1.36-3.45,3.54l-9.84,30.21c-2.65,8.12-1.63,17.88,2.53,24.28l8.03,12.34c1.48,2.28,3.76,2.28,5.25,0l8.15-12.52c4.16-6.39,5.18-16.13,2.54-24.26l-9.76-30.05c-.71-2.19-2.03-3.54-3.45-3.55h0Z"/>
          </g>
          <g>
            <path class="cls-3" d="M98.27,144.67l-9.77,30.04c-2.74,8.44-9.61,16.05-17.04,18.89l-13.95,5.34c-3.45,1.32-6.1-.6-5.91-4.29l.76-14.7c.41-7.96,5.54-16.84,12.73-22.06l25.72-18.66c4.98-3.61,9.37-.41,7.47,5.44"/>
            <path class="cls-7" d="M55.41,200.59c-1.1,0-2.1-.31-2.94-.92-1.46-1.06-2.2-2.87-2.09-5.08l.76-14.7c.43-8.32,5.75-17.56,13.23-22.99l25.72-18.66c2.74-1.99,5.71-2.31,7.75-.83,2.04,1.48,2.65,4.41,1.6,7.64l-9.77,30.04c-2.85,8.78-9.99,16.68-17.77,19.66l-13.95,5.34c-.88.33-1.73.5-2.54.5ZM94.87,138.93c-1,0-2.17.44-3.34,1.29l-25.72,18.66c-6.92,5.02-11.83,13.51-12.22,21.13l-.76,14.7c-.07,1.36.31,2.41,1.08,2.97.77.56,1.89.6,3.16.11l13.95-5.34c7.12-2.73,13.67-10.01,16.31-18.13l9.77-30.04c.71-2.19.44-4.06-.71-4.9-.42-.31-.95-.46-1.53-.46Z"/>
          </g>
          <g>
            <path class="cls-3" d="M83.61,129.39l-25.56,18.56c-7.18,5.21-17.2,7.34-24.89,5.27l-14.43-3.88c-3.57-.96-4.58-4.07-2.26-6.94l9.26-11.45c5.01-6.2,14.38-10.37,23.26-10.37l31.78.02c6.15,0,7.83,5.17,2.85,8.79"/>
            <path class="cls-7" d="M39.4,155.23c-2.28,0-4.5-.27-6.56-.82l-14.43-3.88c-2.14-.57-3.63-1.84-4.18-3.56-.56-1.72-.1-3.62,1.29-5.34l9.26-11.45c5.23-6.47,14.96-10.82,24.2-10.82h.02l31.77.02c3.39,0,5.98,1.49,6.76,3.89.78,2.39-.45,5.12-3.2,7.12l-25.56,18.56c-5.56,4.04-12.74,6.29-19.37,6.29ZM48.97,121.8c-8.54,0-17.5,3.98-22.29,9.91l-9.26,11.45c-.85,1.06-1.16,2.14-.87,3.04.29.9,1.18,1.6,2.49,1.95l14.43,3.88c7.36,1.98,16.94-.06,23.85-5.08l25.56-18.56c1.86-1.35,2.74-3.03,2.3-4.38-.44-1.35-2.14-2.19-4.43-2.19l-31.77-.02h-.01Z"/>
          </g>
          <g>
            <path class="cls-3" d="M80.73,108.4h-31.59c-8.87,0-18.23-4.18-23.23-10.37l-9.39-11.62c-2.33-2.87-1.32-5.98,2.26-6.95l14.22-3.82c7.69-2.07,17.73.06,24.91,5.29l25.7,18.69c4.97,3.62,3.29,8.78-2.86,8.78"/>
            <path class="cls-7" d="M80.73,109.63h-31.59c-9.23,0-18.95-4.36-24.19-10.83l-9.39-11.62c-1.39-1.72-1.86-3.62-1.3-5.34.56-1.72,2.05-2.99,4.19-3.56l14.22-3.82c8.04-2.16,18.47.04,25.95,5.48l25.7,18.69c2.74,2,3.96,4.72,3.19,7.12-.78,2.39-3.37,3.88-6.77,3.88ZM39.27,76.08c-2.08,0-4.1.24-5.97.75l-14.22,3.82c-1.31.35-2.2,1.05-2.49,1.95-.29.9.02,1.98.87,3.04l9.39,11.62c4.79,5.93,13.75,9.91,22.28,9.91h31.59c2.3,0,4-.83,4.44-2.18.44-1.35-.44-3.03-2.3-4.38l-25.7-18.69c-5.15-3.75-11.8-5.84-17.9-5.84Z"/>
          </g>
          <g>
            <path class="cls-3" d="M90.73,89.73l-25.55-18.58c-7.18-5.22-12.3-14.09-12.7-22.04l-.77-14.92c-.19-3.69,2.45-5.61,5.9-4.29l13.75,5.26c7.44,2.85,14.31,10.47,17.05,18.92l9.8,30.22c1.89,5.85-2.5,9.04-7.48,5.43"/>
            <path class="cls-7" d="M94.81,92.48c-1.53,0-3.2-.59-4.81-1.76l-25.55-18.58c-7.47-5.43-12.78-14.66-13.21-22.97l-.77-14.92c-.11-2.21.63-4.02,2.09-5.08,1.46-1.06,3.41-1.21,5.48-.42l13.75,5.26c7.78,2.98,14.92,10.89,17.77,19.69l9.8,30.22c1.05,3.23.43,6.16-1.61,7.63-.85.62-1.86.92-2.95.92ZM91.45,88.74c1.86,1.35,3.73,1.67,4.88.84,1.15-.83,1.42-2.71.72-4.9l-9.8-30.22c-2.63-8.13-9.19-15.42-16.32-18.15l-13.75-5.26c-1.27-.49-2.39-.45-3.16.11-.77.56-1.15,1.61-1.08,2.97l.77,14.92c.39,7.61,5.29,16.09,12.2,21.11l25.55,18.58Z"/>
          </g>
          <g>
            <path class="cls-3" d="M109.79,80.51l-9.75-30.05c-2.74-8.44-1.66-18.63,2.68-25.3l8.15-12.52c2.01-3.1,5.28-3.1,7.3,0l8.03,12.34c4.34,6.68,5.42,16.88,2.67,25.33l-9.83,30.21c-1.91,5.85-7.34,5.84-9.24,0"/>
            <path class="cls-7" d="M114.41,86.12h0c-2.52,0-4.73-2.01-5.78-5.24l-9.75-30.05c-2.85-8.78-1.72-19.37,2.82-26.35l8.15-12.52c1.21-1.86,2.87-2.88,4.67-2.88h0c1.81,0,3.47,1.02,4.68,2.88l8.03,12.34c4.54,6.98,5.67,17.58,2.81,26.37l-9.83,30.21c-1.05,3.23-3.27,5.23-5.78,5.23ZM110.96,80.13c.71,2.19,2.03,3.54,3.45,3.54,1.5-.05,2.75-1.36,3.46-3.54l9.83-30.21c2.65-8.12,1.63-17.88-2.53-24.28l-8.03-12.34c-1.48-2.28-3.77-2.28-5.25,0l-8.15,12.52c-4.15,6.39-5.17,16.14-2.54,24.26l9.75,30.05Z"/>
          </g>
          <g>
            <path class="cls-3" d="M130.64,84.25l9.77-30.04c2.74-8.44,9.61-16.05,17.04-18.89l13.95-5.34c3.45-1.32,6.1.6,5.91,4.29l-.76,14.7c-.41,7.96-5.54,16.84-12.73,22.06l-25.72,18.66c-4.98,3.61-9.37.41-7.47-5.44"/>
            <path class="cls-7" d="M134.03,92.43c-1.09,0-2.11-.3-2.96-.92-2.04-1.48-2.65-4.41-1.6-7.64l9.77-30.04c2.86-8.78,9.99-16.68,17.77-19.66l13.95-5.34c2.07-.8,4.02-.64,5.48.42,1.46,1.06,2.2,2.87,2.09,5.08l-.76,14.7c-.43,8.32-5.75,17.56-13.23,22.99l-25.72,18.66c-1.6,1.16-3.27,1.75-4.8,1.75ZM173.49,30.78c-.5,0-1.06.11-1.65.34l-13.95,5.34c-7.12,2.73-13.67,10.01-16.31,18.13l-9.77,30.04c-.71,2.18-.44,4.06.71,4.9,1.15.83,3.02.52,4.87-.83l25.72-18.66c6.92-5.02,11.83-13.51,12.22-21.13l.76-14.7c.07-1.36-.31-2.41-1.08-2.97-.41-.3-.93-.45-1.51-.45Z"/>
          </g>
          <g>
            <path class="cls-3" d="M145.3,99.53l25.56-18.56c7.18-5.21,17.2-7.34,24.89-5.27l14.43,3.88c3.57.96,4.58,4.07,2.26,6.94l-9.26,11.45c-5.01,6.2-14.38,10.37-23.26,10.37l-31.78-.02c-6.15,0-7.83-5.17-2.85-8.79"/>
            <path class="cls-7" d="M179.94,109.56h-.02l-31.77-.02c-3.39,0-5.98-1.49-6.76-3.89-.78-2.39.45-5.12,3.2-7.12l25.56-18.56c7.48-5.43,17.89-7.63,25.93-5.46l14.43,3.88c2.14.57,3.62,1.84,4.18,3.55.56,1.72.1,3.62-1.29,5.34l-9.26,11.45c-5.23,6.47-14.95,10.82-24.2,10.82ZM146.02,100.52h0c-1.86,1.35-2.74,3.03-2.3,4.38.44,1.35,2.14,2.19,4.43,2.19l31.77.02h.01c8.54,0,17.5-3.98,22.29-9.91l9.26-11.45c.85-1.06,1.16-2.14.87-3.04-.29-.9-1.18-1.59-2.49-1.95l-14.43-3.88c-7.35-1.98-16.94.07-23.85,5.08l-25.56,18.56Z"/>
          </g>
          <g>
            <path class="cls-3" d="M148.19,120.52h31.59c8.87,0,18.23,4.18,23.23,10.37l9.39,11.62c2.33,2.87,1.32,5.98-2.26,6.95l-14.22,3.82c-7.69,2.07-17.73-.06-24.91-5.29l-25.7-18.69c-4.97-3.62-3.29-8.78,2.86-8.78"/>
            <path class="cls-7" d="M189.69,155.28c-6.63,0-13.82-2.25-19.38-6.3l-25.7-18.69c-2.74-2-3.96-4.73-3.19-7.12.78-2.39,3.37-3.88,6.77-3.88h31.59c9.24,0,18.96,4.36,24.19,10.83l9.39,11.62c1.39,1.72,1.86,3.62,1.3,5.34-.56,1.72-2.04,2.98-4.19,3.56l-14.22,3.82c-2.06.56-4.28.82-6.57.82ZM148.19,121.74c-2.3,0-4,.84-4.44,2.19-.44,1.35.44,3.03,2.3,4.38l25.7,18.69c6.91,5.03,16.51,7.07,23.87,5.09l14.22-3.82c1.31-.35,2.2-1.05,2.49-1.95.29-.9-.02-1.99-.87-3.04l-9.39-11.62c-4.79-5.93-13.75-9.91-22.28-9.91h-31.59Z"/>
          </g>
          <g>
            <path class="cls-3" d="M138.19,139.19l25.55,18.58c7.18,5.22,12.3,14.09,12.7,22.04l.77,14.92c.19,3.69-2.45,5.61-5.9,4.29l-13.75-5.26c-7.44-2.85-14.31-10.47-17.05-18.92l-9.8-30.22c-1.89-5.85,2.5-9.04,7.48-5.43"/>
            <path class="cls-7" d="M173.41,200.66c-.81,0-1.66-.17-2.54-.5l-13.75-5.26c-7.78-2.98-14.93-10.89-17.77-19.69l-9.8-30.22c-1.05-3.23-.43-6.15,1.61-7.63,2.03-1.48,5.01-1.16,7.75.84l25.55,18.58c7.47,5.43,12.78,14.66,13.21,22.97l.77,14.92c.11,2.21-.63,4.01-2.09,5.08-.84.61-1.85.92-2.94.92ZM134.12,138.88c-.58,0-1.1.15-1.53.46-1.15.83-1.42,2.71-.72,4.89l9.8,30.22c2.63,8.13,9.19,15.42,16.32,18.15l13.75,5.26c1.27.48,2.39.45,3.16-.11.77-.56,1.15-1.61,1.08-2.97l-.77-14.93c-.39-7.61-5.29-16.09-12.2-21.11l-25.55-18.58c-1.17-.85-2.35-1.29-3.35-1.29Z"/>
          </g>
        </g>
        <g>
          <g>
            <path class="cls-6" d="M114.46,152.37c-20.91,0-37.92-17.01-37.92-37.92s17.01-37.92,37.92-37.92,37.92,17.01,37.92,37.92-17.01,37.92-37.92,37.92Z"/>
            <path class="cls-7" d="M114.46,77.79c20.25,0,36.67,16.42,36.67,36.67s-16.42,36.67-36.67,36.67-36.67-16.42-36.67-36.67,16.42-36.67,36.67-36.67M114.46,75.29c-21.6,0-39.17,17.57-39.17,39.17s17.57,39.17,39.17,39.17,39.17-17.57,39.17-39.17-17.57-39.17-39.17-39.17h0Z"/>
          </g>
          <g>
            <path class="cls-6" d="M114.46,144.32c-16.46,0-29.86-13.39-29.86-29.86s13.4-29.86,29.86-29.86,29.86,13.39,29.86,29.86-13.4,29.86-29.86,29.86Z"/>
            <path class="cls-7" d="M114.46,85.85c15.8,0,28.61,12.81,28.61,28.61s-12.81,28.61-28.61,28.61-28.61-12.81-28.61-28.61,12.81-28.61,28.61-28.61M114.46,83.35c-17.15,0-31.11,13.96-31.11,31.11s13.96,31.11,31.11,31.11,31.11-13.96,31.11-31.11-13.96-31.11-31.11-31.11h0Z"/>
          </g>
        </g>
      </g>
      <path class="cls-7" d="M125.36,119.17v5.67h-4.25v7.96h-7v-7.96h-15.23l-.28-4.38,15.41-24.33h7.11v23.04h4.25ZM114.1,119.17v-13.62l-.68,1.21-7.96,12.41h8.64Z"/>
      <g>
        <g class="cls-5">
          <g>
            <rect class="cls-2" x="2.21" y="2.21" width="224.49" height="224.49"/>
            <rect class="cls-2" x="2.21" y="2.21" width="224.49" height="224.49"/>
            <rect class="cls-2" x="2.21" y="2.21" width="224.49" height="224.49"/>
            <rect class="cls-2" x="2.21" y="2.21" width="224.49" height="224.49"/>
            <rect class="cls-2" x="2.21" y="2.21" width="224.49" height="224.49"/>
            <rect class="cls-2" x="2.21" y="2.21" width="224.49" height="224.49"/>
          </g>
        </g>
        <rect class="cls-2" x="2.21" y="2.21" width="224.49" height="224.49" rx="18.06" ry="18.06"/>
      </g>
    </g>
  </g>
</svg>