<?xml version="1.0" encoding="UTF-8"?>
<svg id="Layer_2" data-name="Layer 2" xmlns="http://www.w3.org/2000/svg" viewBox="0 0 133.2 133.2">
  <defs>
    <style>
      .cls-1 {
        fill: #5e7dbd;
      }

      .cls-2 {
        fill: #f8ead6;
      }

      .cls-3 {
        fill: #e6a631;
      }

      .cls-4 {
        fill: #081b1e;
      }

      .cls-5 {
        fill: #6fb360;
      }
    </style>
  </defs>
  <g id="Art">
    <g>
      <rect class="cls-2" width="133.2" height="133.2"/>
      <path class="cls-1" d="M79.66,66.6c0,7.21-5.85,13.06-13.06,13.06s-13.06-5.85-13.06-13.06,5.85-13.06,13.06-13.06,13.06,5.85,13.06,13.06"/>
      <path class="cls-5" d="M56.9,118.36c0-11.67,4.25-36.06,9.49-36.06s9.49,24.39,9.49,36.06-4.25.55-9.49.55-9.49,11.12-9.49-.55"/>
      <path class="cls-4" d="M74.49,124.39c-.93,0-1.92-.87-3.11-1.93-1.44-1.27-3.23-2.85-4.99-2.85s-3.56,1.58-4.99,2.85c-1.45,1.29-2.6,2.31-3.71,1.8-1.06-.48-1.47-2.13-1.47-5.89,0-10.91,3.95-36.74,10.17-36.74s10.17,25.84,10.17,36.74c0,3.76-.41,5.42-1.47,5.89-.2.09-.4.13-.6.13ZM66.39,118.23c2.29,0,4.29,1.77,5.9,3.2.68.6,1.95,1.72,2.24,1.58.07-.03.66-.42.66-4.64,0-12.37-4.53-35.38-8.8-35.38s-8.81,23-8.81,35.38c0,4.22.6,4.61.66,4.64.31.14,1.56-.98,2.24-1.58,1.61-1.43,3.61-3.2,5.9-3.2Z"/>
      <path class="cls-5" d="M28.32,102.78c6.86-9.44,24.63-26.68,28.87-23.6,4.24,3.08-6.66,25.31-13.52,34.75-6.86,9.44-3.76-2.05-8-5.13-4.24-3.08-14.21,3.42-7.35-6.02"/>
      <path class="cls-4" d="M39.88,118.27c-.1,0-.2-.01-.3-.03-1.19-.25-1.52-1.74-1.94-3.64-.41-1.87-.93-4.21-2.36-5.24-1.43-1.04-3.81-.81-5.72-.63-1.93.19-3.46.33-4.06-.72-.58-1.01.06-2.59,2.27-5.63,6.41-8.82,24.79-27.42,29.83-23.75,2.23,1.62,1.43,6.94-2.37,15.81-2.97,6.94-7.39,14.93-11,19.89-2.02,2.78-3.28,3.93-4.35,3.93ZM32.06,107.2c1.44,0,2.89.22,4.02,1.05,1.85,1.34,2.43,3.96,2.89,6.05.2.88.56,2.53.89,2.59.08.02.79.04,3.27-3.37,3.55-4.89,7.91-12.77,10.85-19.63,3.91-9.12,4.02-13.3,2.82-14.17-3.46-2.5-20.65,13.44-27.92,23.45-2.48,3.42-2.23,4.08-2.19,4.15.17.29,1.84.13,2.74.04.83-.08,1.73-.17,2.63-.17Z"/>
      <path class="cls-5" d="M14.37,73.37c11.1-3.6,35.61-7.1,37.23-2.12,1.62,4.98-20.27,16.56-31.36,20.17-11.1,3.61-1.84-3.87-3.46-8.85-1.62-4.98-13.51-5.59-2.41-9.2"/>
      <path class="cls-4" d="M16,93.05c-.76,0-1.27-.19-1.61-.56-.82-.9-.21-2.31.57-4.09.77-1.76,1.72-3.95,1.17-5.63-.55-1.68-2.6-2.89-4.26-3.87-1.67-.98-2.99-1.76-2.86-2.97.13-1.15,1.57-2.06,5.15-3.22h0c10.37-3.37,36.16-7.6,38.09-1.68,1.92,5.92-21.43,17.66-31.8,21.03-2.03.66-3.45.98-4.45.98ZM14.58,74.02h0c-4.02,1.31-4.2,1.99-4.21,2.07-.04.33,1.42,1.19,2.19,1.64,1.85,1.09,4.16,2.45,4.87,4.62.71,2.17-.36,4.63-1.22,6.6-.36.83-1.03,2.37-.81,2.62.05.06.61.5,4.62-.8,11.77-3.82,32.25-15.23,30.92-19.31-1.32-4.07-24.6-1.26-36.37,2.56Z"/>
      <path class="cls-5" d="M20.37,41.38c11.1,3.61,32.98,15.18,31.36,20.17-1.62,4.98-26.13,1.49-37.23-2.12-11.1-3.61.79-4.21,2.41-9.2,1.62-4.98-7.64-12.46,3.46-8.85"/>
      <path class="cls-4" d="M42.98,64.71c-1.86,0-3.98-.11-6.37-.33-7.52-.68-16.49-2.42-22.32-4.31-3.58-1.16-5.02-2.07-5.15-3.22-.13-1.21,1.19-1.99,2.86-2.97,1.65-.97,3.71-2.19,4.26-3.87.55-1.68-.41-3.87-1.17-5.63-.77-1.78-1.39-3.18-.57-4.08.78-.86,2.48-.74,6.06.42h0c5.83,1.9,14.11,5.77,20.59,9.63,8.29,4.94,12.06,8.78,11.21,11.4-.64,1.97-3.79,2.96-9.4,2.96ZM16.1,41.1c-.43,0-.54.09-.57.12-.22.25.45,1.79.81,2.62.86,1.97,1.93,4.43,1.22,6.6-.71,2.17-3.01,3.53-4.86,4.62-.78.46-2.23,1.31-2.2,1.64,0,.07.19.76,4.21,2.07,5.74,1.87,14.59,3.57,22.02,4.25,9.88.9,13.89-.29,14.35-1.69.46-1.41-2.09-4.72-10.61-9.8-6.4-3.82-14.57-7.64-20.31-9.5-2.31-.75-3.47-.92-4.06-.92Z"/>
      <path class="cls-5" d="M44.02,19.02c6.86,9.44,17.76,31.67,13.52,34.75-4.24,3.08-22.02-14.16-28.87-23.6-6.86-9.44,3.11-2.94,7.35-6.02,4.24-3.08,1.14-14.57,8-5.13"/>
      <path class="cls-4" d="M56.33,54.79c-6.55,0-22.36-16.17-28.21-24.22-2.21-3.04-2.85-4.62-2.27-5.63.6-1.06,2.13-.91,4.06-.72,1.91.18,4.29.41,5.72-.62,1.43-1.04,1.95-3.37,2.36-5.24.42-1.89.75-3.39,1.94-3.64,1.14-.23,2.44.86,4.65,3.9,3.6,4.96,8.02,12.95,11,19.89,3.8,8.87,4.6,14.19,2.37,15.81-.44.32-.99.47-1.62.47ZM27.89,25.46c-.44,0-.79.04-.86.16-.04.06-.29.73,2.19,4.15,6.75,9.29,22.05,23.71,26.97,23.71.38,0,.7-.09.94-.27,1.2-.87,1.08-5.05-2.82-14.17-2.94-6.85-7.3-14.74-10.85-19.63-2.49-3.42-3.2-3.39-3.27-3.37-.33.07-.69,1.71-.89,2.59-.47,2.1-1.04,4.71-2.89,6.06-1.85,1.34-4.51,1.08-6.65.88-.52-.05-1.29-.12-1.88-.12Z"/>
      <path class="cls-5" d="M76.3,14.83c0,11.67-4.25,36.06-9.49,36.06s-9.49-24.39-9.49-36.06,4.25-.55,9.49-.55,9.49-11.12,9.49.55"/>
      <path class="cls-4" d="M66.81,51.58c-6.22,0-10.17-25.84-10.17-36.74,0-3.76.41-5.42,1.47-5.89,1.11-.5,2.26.52,3.71,1.8,1.44,1.27,3.23,2.86,4.99,2.86s3.56-1.58,4.99-2.86c1.45-1.29,2.6-2.3,3.71-1.8,1.06.48,1.47,2.13,1.47,5.89,0,10.91-3.95,36.74-10.17,36.74ZM58.73,10.18s-.04,0-.06.01c-.07.03-.66.42-.66,4.65,0,12.37,4.53,35.38,8.8,35.38s8.81-23,8.81-35.38c0-4.22-.6-4.61-.66-4.64-.29-.13-1.56.98-2.24,1.58-1.61,1.43-3.61,3.2-5.9,3.2s-4.29-1.77-5.9-3.2c-.64-.57-1.8-1.59-2.18-1.59Z"/>
      <path class="cls-5" d="M104.88,30.42c-6.86,9.44-24.63,26.68-28.87,23.6-4.24-3.08,6.66-25.31,13.52-34.75,6.86-9.44,3.76,2.05,8,5.13,4.24,3.08,14.21-3.42,7.35,6.02"/>
      <path class="cls-4" d="M77.22,55.04c-.63,0-1.17-.15-1.62-.47-2.23-1.62-1.43-6.94,2.37-15.81,2.97-6.94,7.39-14.93,11-19.89,2.21-3.04,3.52-4.14,4.65-3.9,1.19.25,1.52,1.74,1.94,3.64.41,1.87.93,4.21,2.36,5.24,1.43,1.04,3.81.81,5.72.63,1.93-.19,3.46-.33,4.06.72.58,1.01-.06,2.59-2.27,5.63-5.85,8.05-21.66,24.22-28.21,24.22ZM93.32,16.3c-.16,0-.94.2-3.24,3.37-3.55,4.89-7.91,12.77-10.85,19.63-3.91,9.12-4.02,13.3-2.82,14.17,3.46,2.51,20.65-13.44,27.92-23.45,2.48-3.42,2.23-4.08,2.19-4.15-.17-.29-1.84-.13-2.74-.04-2.14.21-4.8.46-6.65-.88-1.85-1.34-2.43-3.96-2.89-6.05-.2-.88-.56-2.53-.89-2.59,0,0-.01,0-.03,0Z"/>
      <path class="cls-5" d="M118.83,59.83c-11.1,3.6-35.61,7.1-37.23,2.12-1.62-4.98,20.27-16.56,31.36-20.17,11.1-3.61,1.84,3.87,3.46,8.85,1.62,4.98,13.51,5.59,2.41,9.2"/>
      <path class="cls-4" d="M90.61,65.12c-5.11,0-8.96-.81-9.66-2.96-1.92-5.92,21.43-17.66,31.8-21.03,3.58-1.16,5.28-1.28,6.06-.42.82.9.21,2.31-.57,4.08-.77,1.76-1.72,3.95-1.17,5.63.55,1.68,2.6,2.89,4.26,3.87,1.67.98,2.99,1.76,2.86,2.97-.13,1.15-1.57,2.06-5.15,3.22h0c-6.61,2.15-19.47,4.64-28.43,4.64ZM117.23,41.51c-.58,0-1.75.17-4.06.92-11.77,3.82-32.25,15.24-30.92,19.31,1.32,4.07,24.6,1.26,36.37-2.56h0c4.02-1.31,4.2-1.99,4.21-2.07.04-.33-1.42-1.19-2.19-1.64-1.85-1.09-4.16-2.45-4.87-4.62-.71-2.17.36-4.63,1.22-6.6.36-.83,1.03-2.37.81-2.62-.02-.02-.13-.12-.57-.12Z"/>
      <path class="cls-5" d="M112.83,91.82c-11.1-3.61-32.98-15.18-31.36-20.17,1.62-4.98,26.13-1.49,37.23,2.12,11.1,3.61-.79,4.21-2.41,9.2-1.62,4.98,7.64,12.46-3.46,8.85"/>
      <path class="cls-4" d="M117.07,93.46c-1,0-2.42-.32-4.45-.98-5.83-1.9-14.11-5.76-20.59-9.63-8.29-4.94-12.06-8.78-11.21-11.4.85-2.62,6.16-3.51,15.77-2.63,7.52.68,16.49,2.42,22.32,4.31,3.58,1.16,5.02,2.07,5.15,3.22.13,1.21-1.19,1.99-2.86,2.97-1.65.97-3.71,2.19-4.26,3.87-.55,1.68.41,3.87,1.17,5.63.77,1.78,1.39,3.18.57,4.08-.34.37-.85.56-1.61.56ZM90.3,69.86c-5.44,0-7.83.94-8.17,2.01-.46,1.41,2.09,4.72,10.61,9.8,6.4,3.82,14.57,7.64,20.31,9.5,4.02,1.31,4.57.86,4.62.8.22-.25-.45-1.79-.81-2.62-.86-1.97-1.93-4.43-1.22-6.6.71-2.17,3.01-3.53,4.86-4.62.78-.46,2.23-1.31,2.2-1.65,0-.07-.2-.76-4.21-2.07-5.74-1.87-14.59-3.57-22.02-4.25-2.39-.22-4.44-.31-6.17-.31Z"/>
      <path class="cls-5" d="M89.18,114.18c-6.86-9.44-17.76-31.67-13.52-34.75,4.24-3.08,22.02,14.16,28.87,23.6,6.86,9.44-3.11,2.94-7.35,6.02-4.24,3.08-1.14,14.57-8,5.13"/>
      <path class="cls-4" d="M92.98,118.52c-1.07,0-2.33-1.15-4.35-3.93-3.6-4.96-8.02-12.95-11-19.89-3.8-8.87-4.6-14.19-2.37-15.81,2.23-1.62,7.04.78,14.31,7.14,5.68,4.97,11.92,11.64,15.52,16.61,2.21,3.04,2.85,4.62,2.27,5.63-.6,1.05-2.13.91-4.06.72-1.91-.18-4.29-.41-5.72.63-1.43,1.04-1.95,3.37-2.36,5.24-.42,1.89-.75,3.39-1.94,3.64-.1.02-.2.03-.3.03ZM76.93,79.75c-.37,0-.66.08-.87.23-1.2.87-1.08,5.05,2.82,14.17,2.94,6.85,7.3,14.74,10.85,19.63h0c2.48,3.41,3.2,3.39,3.27,3.37.33-.07.69-1.71.89-2.59.46-2.1,1.04-4.71,2.89-6.05,1.85-1.35,4.51-1.09,6.65-.88.9.09,2.58.25,2.74-.04.04-.07.29-.73-2.19-4.15-3.55-4.89-9.7-11.47-15.31-16.38-6.18-5.4-9.94-7.3-11.73-7.3Z"/>
      <path class="cls-2" d="M55.58,70.84c.15.38.31.76.5,1.12,1.43,2.81,3.87,4.9,6.87,5.87.99.32,2,.5,3.03.56v-10.93l-10.4,3.38Z"/>
      <path class="cls-1" d="M74.04,57.43l-6.42,8.84,10.39,3.37c1.23-4.59-.44-9.35-3.97-12.21Z"/>
      <path class="cls-1" d="M67.23,78.39c4.66-.24,8.72-3.19,10.39-7.55l-10.39-3.38v10.93Z"/>
      <path class="cls-1" d="M73.03,56.7c-.85-.55-1.77-1.01-2.77-1.33-1.19-.39-2.42-.58-3.65-.58-2.35,0-4.56.69-6.43,1.9l6.43,8.85,6.42-8.84Z"/>
      <path class="cls-2" d="M59.17,57.42c-1.73,1.4-3.07,3.29-3.79,5.53-.72,2.2-.76,4.51-.18,6.7l10.4-3.38-6.43-8.85Z"/>
      <path class="cls-3" d="M54.4,71.22h0s-.02-.07-.03-.1l.03.1Z"/>
      <path class="cls-3" d="M65.98,66.8l-.39-.53-10.4,3.38c.11.4.23.8.38,1.19l10.4-3.38v-.66Z"/>
      <path class="cls-3" d="M66.22,66.07l.39-.53-6.43-8.85c-.35.23-.69.47-1.01.73l6.43,8.85.62-.2Z"/>
      <path class="cls-3" d="M59.43,55.66l-1.01.73v.02c.34-.26.68-.5,1.02-.73v-.02Z"/>
      <polygon class="cls-3" points="66.61 66.6 66.1 66.23 66.22 66.07 65.6 66.27 65.98 66.8 65.98 66.6 66.61 66.6"/>
      <path class="cls-3" d="M78.82,71.22l.04-.12s-.03.08-.04.12h0Z"/>
      <path class="cls-3" d="M67.23,66.8v.66l10.39,3.38c.07-.19.15-.39.22-.59.06-.2.11-.4.16-.6l-10.39-3.37-.39.53Z"/>
      <path class="cls-3" d="M66.61,67.26l-.62.2v10.93c.21.01.42.02.63.02s.41-.01.62-.02v-10.93l-.62-.2Z"/>
      <polygon class="cls-3" points="66.61 66.6 66.1 66.97 65.98 66.8 65.98 67.46 66.61 67.26 66.41 67.19 66.61 66.6"/>
      <polygon class="cls-3" points="66.61 66.6 65.98 66.6 65.98 66.8 66.1 66.97 66.61 66.6"/>
      <polygon class="cls-3" points="66.61 66.6 66.8 67.19 66.61 67.26 67.23 67.46 67.23 66.8 67.11 66.97 66.61 66.6"/>
      <polygon class="cls-3" points="66.61 66.6 66.41 67.19 66.61 67.26 66.8 67.19 66.61 66.6"/>
      <path class="cls-3" d="M74.78,56.42l-.13-.09s.08.06.12.1h0Z"/>
      <path class="cls-3" d="M73.77,55.68h0s.06.04.08.06l-.08-.06Z"/>
      <path class="cls-3" d="M66.99,66.07l.62.2,6.42-8.84c-.32-.26-.66-.51-1.01-.73l-6.42,8.84.39.53Z"/>
      <polygon class="cls-3" points="66.61 66.6 66.8 66 66.99 66.07 66.61 65.54 66.22 66.07 66.41 66 66.61 66.6"/>
      <polygon class="cls-3" points="66.61 66.6 66.41 66 66.22 66.07 66.1 66.23 66.61 66.6"/>
      <polygon class="cls-3" points="67.11 66.23 66.61 66.6 67.23 66.6 67.23 66.8 67.62 66.27 66.99 66.07 67.11 66.23"/>
      <polygon class="cls-3" points="66.61 66.6 67.11 66.23 66.99 66.07 66.8 66 66.61 66.6"/>
      <polygon class="cls-3" points="66.61 66.6 67.11 66.97 67.23 66.8 67.23 66.6 66.61 66.6"/>
      <path class="cls-3" d="M73.85,55.74l.8.58c-.26-.2-.53-.4-.8-.58Z"/>
      <path class="cls-3" d="M79.03,70.63c.04-.13.07-.26.11-.4l-.28.86c.06-.16.12-.31.17-.47Z"/>
      <path class="cls-3" d="M66.61,54.78c1.24,0,2.46.2,3.65.58,1,.33,1.93.79,2.77,1.33l.74-1.01c-.95-.62-1.99-1.14-3.12-1.51-1.34-.44-2.7-.64-4.04-.64-2.57,0-5.05.77-7.16,2.15l.73,1c1.87-1.21,4.08-1.9,6.43-1.9Z"/>
      <path class="cls-3" d="M55.2,69.65c-.59-2.19-.54-4.5.18-6.7.73-2.23,2.07-4.12,3.79-5.53l-.73-1.01c-1.92,1.54-3.43,3.63-4.25,6.15-.94,2.91-.81,5.9.18,8.56l-.35-1.09,1.19-.39Z"/>
      <path class="cls-3" d="M62.96,77.83c-3-.97-5.44-3.06-6.87-5.87-.19-.37-.35-.74-.5-1.12l-1.18.38c1.36,3.57,4.25,6.53,8.17,7.8,1.13.37,2.28.56,3.41.62v-1.25c-1.02-.05-2.04-.24-3.03-.56Z"/>
      <path class="cls-3" d="M67.23,78.39v1.25c5.07-.24,9.7-3.44,11.58-8.42l-1.19-.39c-1.67,4.36-5.73,7.31-10.39,7.55Z"/>
      <path class="cls-3" d="M78,69.65l1.19.39c1.4-5.13-.46-10.44-4.42-13.61l-.74,1.01c3.53,2.87,5.19,7.62,3.97,12.21Z"/>
      <path class="cls-3" d="M55.2,69.65l-1.19.39.35,1.09s.02.07.03.1l1.18-.38c-.15-.39-.28-.79-.38-1.19Z"/>
      <path class="cls-3" d="M60.18,56.69l-.73-1c-.35.23-.69.47-1.01.73l.73,1.01c.32-.26.66-.51,1.01-.73Z"/>
      <path class="cls-3" d="M78,69.65c-.05.2-.1.4-.16.6-.06.2-.14.39-.22.59l1.19.39s.03-.08.04-.12l.28-.86c.02-.07.04-.14.06-.21l-1.19-.39Z"/>
      <path class="cls-3" d="M74.04,57.43l.74-1.01s-.08-.06-.12-.1l-.8-.58s-.06-.04-.08-.05l-.74,1.01c.35.23.69.47,1.01.73Z"/>
      <rect class="cls-4" x="53.88" y="67.93" width="13.04" height="1.37" transform="translate(-18.23 21.99) rotate(-17.97)"/>
      <rect class="cls-4" x="62.08" y="54.78" width="1.37" height="13.06" transform="translate(-24.05 48.6) rotate(-36)"/>
      <rect class="cls-4" x="72.12" y="62.09" width="1.37" height="13.04" transform="translate(-14.95 116.65) rotate(-72)"/>
      <rect class="cls-4" x="65.92" y="66.6" width="1.37" height="13.06"/>
      <rect class="cls-4" x="63.91" y="60.64" width="13.04" height="1.37" transform="translate(-20.59 82.23) rotate(-53.98)"/>
      <path class="cls-4" d="M66.6,54.9h0c1.22,0,2.44.19,3.62.58,2.97.97,5.39,3.03,6.81,5.81s1.67,5.95.7,8.92c-1.57,4.84-6.04,8.08-11.12,8.08-1.22,0-2.44-.19-3.62-.58-2.97-.97-5.39-3.03-6.81-5.81-1.42-2.78-1.67-5.95-.7-8.92,1.57-4.83,6.04-8.08,11.12-8.08M66.6,53.53c-5.51,0-10.63,3.51-12.42,9.03-2.23,6.86,1.53,14.23,8.39,16.46,1.34.44,2.7.64,4.04.64,5.51,0,10.63-3.51,12.42-9.03,2.23-6.86-1.53-14.23-8.39-16.46-1.34-.44-2.7-.64-4.04-.64h0Z"/>
    </g>
  </g>
</svg>