<?xml version="1.0" encoding="UTF-8"?>
<svg id="Layer_2" data-name="Layer 2" xmlns="http://www.w3.org/2000/svg" xmlns:xlink="http://www.w3.org/1999/xlink" viewBox="0 0 228.92 228.92">
  <defs>
    <style>
      .cls-1, .cls-2 {
        fill: none;
      }

      .cls-2 {
        stroke: #d6b890;
        stroke-miterlimit: 10;
        stroke-width: 4.42px;
      }

      .cls-3 {
        fill: #f8ead6;
      }

      .cls-4 {
        clip-path: url(#clippath-6);
      }

      .cls-5 {
        fill: #fff;
      }

      .cls-6 {
        fill: #081b1e;
      }

      .cls-7 {
        clip-path: url(#clippath);
      }

      .cls-8 {
        fill: #ee4423;
      }
    </style>
    <clipPath id="clippath">
      <rect class="cls-1" x="2.21" y="2.21" width="224.49" height="224.49" rx="18.06" ry="18.06"/>
    </clipPath>
    <clipPath id="clippath-6">
      <rect class="cls-2" x="2.21" y="2.21" width="224.49" height="224.49" rx="18.06" ry="18.06"/>
    </clipPath>
  </defs>
  <g id="Layer_1-2" data-name="Layer 1">
    <g>
      <g class="cls-7">
        <rect class="cls-3" x="2.21" y="2.21" width="224.49" height="224.49"/>
      </g>
      <g>
        <g id="Flower_1" data-name="Flower 1">
          <g>
            <g>
              <path class="cls-8" d="M99.25,48.89c0,14.84,5.8,28.3,15.2,38.33,9.4-10.04,15.2-23.49,15.2-38.33s-5.8-28.3-15.2-38.34c-9.4,10.04-15.2,23.49-15.2,38.34"/>
              <path class="cls-6" d="M114.46,88.96l-.87-.93c-10.01-10.69-15.53-24.59-15.53-39.15s5.51-28.46,15.53-39.15l.87-.93.87.93c10.01,10.69,15.53,24.59,15.53,39.15s-5.51,28.46-15.53,39.15l-.87.93ZM114.46,12.32c-9.05,10.11-14.02,23.05-14.02,36.58s4.97,26.47,14.02,36.58c9.05-10.11,14.02-23.05,14.02-36.58s-4.97-26.47-14.02-36.58Z"/>
            </g>
            <g>
              <path class="cls-8" d="M140.69,52.47c-8.72,12.01-11.94,26.3-10.23,39.95,13.51-2.59,26.11-10.07,34.83-22.08,8.72-12.01,11.94-26.3,10.23-39.95-13.51,2.59-26.11,10.07-34.84,22.08"/>
              <path class="cls-6" d="M129.44,93.83l-.16-1.26c-1.82-14.53,1.89-29.02,10.45-40.8h0c8.56-11.78,21.19-19.79,35.57-22.54l1.24-.24.16,1.26c1.82,14.53-1.89,29.02-10.45,40.79-8.56,11.77-21.19,19.78-35.57,22.54l-1.24.24ZM141.66,53.17c-7.95,10.94-11.54,24.33-10.16,37.83,13.27-2.86,24.89-10.41,32.84-21.35,7.95-10.94,11.54-24.33,10.16-37.83-13.26,2.86-24.89,10.41-32.84,21.35h0Z"/>
            </g>
            <g>
              <path class="cls-8" d="M172.12,79.74c-14.11,4.59-25.12,14.26-31.76,26.31,12.45,5.84,27.04,7.2,41.16,2.61,14.12-4.59,25.12-14.26,31.76-26.31-12.45-5.84-27.04-7.2-41.16-2.62"/>
              <path class="cls-6" d="M164.25,112.59c-8.34,0-16.65-1.83-24.39-5.47l-1.15-.54.61-1.11c7.07-12.82,18.58-22.36,32.43-26.87h0c13.84-4.5,28.77-3.55,42.03,2.67l1.15.54-.61,1.11c-7.07,12.82-18.59,22.36-32.43,26.86-5.76,1.87-11.7,2.8-17.63,2.8ZM142.03,105.5c12.41,5.48,26.25,6.21,39.12,2.03,12.86-4.18,23.63-12.9,30.45-24.63-12.41-5.48-26.26-6.21-39.12-2.03-12.87,4.18-23.64,12.91-30.45,24.64Z"/>
            </g>
            <g>
              <path class="cls-8" d="M181.51,120.26c-14.11-4.59-28.71-3.23-41.16,2.62,6.64,12.05,17.64,21.72,31.76,26.31,14.12,4.59,28.71,3.23,41.16-2.62-6.64-12.04-17.64-21.72-31.76-26.31"/>
              <path class="cls-6" d="M189.38,153.11c-5.93,0-11.87-.93-17.63-2.8-13.84-4.5-25.36-14.04-32.43-26.86l-.61-1.11,1.15-.54c13.25-6.22,28.18-7.17,42.03-2.67h0c13.84,4.5,25.36,14.04,32.43,26.86l.61,1.11-1.15.54c-7.74,3.64-16.06,5.47-24.4,5.47ZM142.03,123.42c6.82,11.73,17.59,20.45,30.45,24.63,12.87,4.18,26.71,3.45,39.12-2.03-6.82-11.73-17.59-20.46-30.45-24.63h0c-12.87-4.18-26.7-3.45-39.12,2.03Z"/>
            </g>
            <g>
              <path class="cls-8" d="M165.29,158.56c-8.72-12.01-21.33-19.49-34.83-22.08-1.71,13.65,1.51,27.94,10.23,39.95,8.73,12.01,21.33,19.48,34.84,22.08,1.7-13.65-1.51-27.94-10.23-39.95"/>
              <path class="cls-6" d="M176.55,199.92l-1.25-.24c-14.38-2.76-27.01-10.77-35.57-22.54-8.56-11.78-12.27-26.27-10.45-40.8l.16-1.26,1.24.24c14.38,2.76,27.01,10.77,35.57,22.55h0c8.55,11.77,12.27,26.26,10.45,40.79l-.16,1.26ZM131.49,137.91c-1.38,13.5,2.21,26.88,10.16,37.83,7.95,10.94,19.58,18.49,32.84,21.35,1.37-13.5-2.21-26.89-10.16-37.83h0c-7.95-10.95-19.58-18.49-32.84-21.35Z"/>
            </g>
            <g>
              <path class="cls-8" d="M129.66,180.02c0-14.84-5.8-28.3-15.2-38.33-9.4,10.04-15.2,23.49-15.2,38.33s5.8,28.3,15.2,38.33c9.4-10.04,15.2-23.49,15.2-38.33"/>
              <path class="cls-6" d="M114.46,220.09l-.87-.93c-10.01-10.69-15.53-24.59-15.53-39.15s5.51-28.46,15.53-39.15l.87-.93.87.93c10.01,10.69,15.53,24.59,15.53,39.15s-5.51,28.46-15.53,39.15l-.87.93ZM114.46,143.44c-9.05,10.11-14.02,23.05-14.02,36.58s4.97,26.47,14.02,36.58c9.05-10.11,14.02-23.05,14.02-36.58s-4.97-26.46-14.02-36.58Z"/>
            </g>
            <g>
              <path class="cls-8" d="M88.22,176.44c8.72-12.01,11.94-26.3,10.23-39.95-13.51,2.59-26.11,10.07-34.83,22.08-8.72,12.01-11.94,26.3-10.23,39.95,13.51-2.59,26.11-10.07,34.84-22.08"/>
              <path class="cls-6" d="M52.36,199.92l-.16-1.26c-1.82-14.53,1.89-29.02,10.45-40.8,8.55-11.77,21.19-19.78,35.57-22.54l1.24-.24.16,1.26c1.82,14.53-1.89,29.02-10.45,40.8h0c-8.56,11.78-21.19,19.79-35.57,22.54l-1.24.24ZM97.42,137.91c-13.27,2.86-24.89,10.41-32.84,21.35-7.95,10.94-11.54,24.33-10.16,37.83,13.26-2.86,24.89-10.41,32.84-21.35h0c7.95-10.95,11.54-24.33,10.16-37.83Z"/>
            </g>
            <g>
              <path class="cls-8" d="M56.8,149.18c14.11-4.59,25.12-14.26,31.76-26.31-12.45-5.84-27.04-7.2-41.16-2.61-14.12,4.59-25.12,14.26-31.76,26.31,12.45,5.84,27.04,7.2,41.16,2.62"/>
              <path class="cls-6" d="M39.54,153.11c-8.34,0-16.65-1.83-24.4-5.47l-1.15-.54.61-1.11c7.07-12.82,18.59-22.36,32.43-26.86,13.84-4.5,28.77-3.55,42.03,2.67l1.15.54-.61,1.11c-7.07,12.82-18.58,22.36-32.43,26.87h0c-5.75,1.87-11.7,2.8-17.63,2.8ZM17.31,146.02c12.42,5.48,26.26,6.21,39.12,2.03,12.87-4.18,23.64-12.91,30.45-24.64-12.41-5.48-26.25-6.21-39.12-2.03-12.87,4.18-23.64,12.9-30.46,24.63Z"/>
            </g>
            <g>
              <path class="cls-8" d="M47.4,108.66c14.11,4.59,28.71,3.23,41.16-2.62-6.64-12.05-17.64-21.72-31.76-26.31-14.12-4.59-28.71-3.23-41.16,2.62,6.64,12.04,17.64,21.72,31.76,26.31"/>
              <path class="cls-6" d="M64.67,112.59c-5.93,0-11.88-.93-17.63-2.8h0c-13.84-4.5-25.36-14.04-32.43-26.86l-.61-1.11,1.15-.54c13.25-6.22,28.18-7.17,42.03-2.67,13.85,4.5,25.36,14.04,32.43,26.86l.61,1.11-1.15.54c-7.74,3.63-16.06,5.47-24.39,5.47ZM17.31,82.89c6.82,11.73,17.59,20.46,30.46,24.63h0c12.87,4.18,26.71,3.46,39.12-2.03-6.82-11.73-17.59-20.45-30.45-24.63-12.87-4.18-26.71-3.45-39.12,2.03Z"/>
            </g>
            <g>
              <path class="cls-8" d="M63.62,70.35c8.72,12.01,21.33,19.49,34.83,22.08,1.71-13.65-1.51-27.94-10.23-39.95-8.73-12.01-21.33-19.48-34.84-22.08-1.7,13.65,1.51,27.94,10.23,39.95"/>
              <path class="cls-6" d="M99.47,93.83l-1.24-.24c-14.38-2.76-27.01-10.76-35.57-22.54-8.55-11.77-12.27-26.26-10.45-40.8l.16-1.26,1.25.24c14.38,2.76,27.01,10.77,35.57,22.54,8.56,11.78,12.27,26.27,10.45,40.8l-.16,1.26ZM54.42,31.82c-1.37,13.5,2.21,26.89,10.16,37.83h0c7.95,10.95,19.58,18.49,32.84,21.35,1.38-13.5-2.21-26.88-10.16-37.83-7.95-10.94-19.58-18.49-32.84-21.35Z"/>
            </g>
          </g>
        </g>
        <g>
          <g>
            <path class="cls-5" d="M114.46,152.37c-20.91,0-37.92-17.01-37.92-37.92s17.01-37.92,37.92-37.92,37.92,17.01,37.92,37.92-17.01,37.92-37.92,37.92Z"/>
            <path class="cls-6" d="M114.46,77.79c20.25,0,36.67,16.42,36.67,36.67s-16.42,36.67-36.67,36.67-36.67-16.42-36.67-36.67,16.42-36.67,36.67-36.67M114.46,75.29c-21.6,0-39.17,17.57-39.17,39.17s17.57,39.17,39.17,39.17,39.17-17.57,39.17-39.17-17.57-39.17-39.17-39.17h0Z"/>
          </g>
          <g>
            <path class="cls-5" d="M114.46,144.32c-16.46,0-29.86-13.4-29.86-29.86s13.4-29.86,29.86-29.86,29.86,13.4,29.86,29.86-13.4,29.86-29.86,29.86Z"/>
            <path class="cls-6" d="M114.46,85.85c15.8,0,28.61,12.81,28.61,28.61s-12.81,28.61-28.61,28.61-28.61-12.81-28.61-28.61,12.81-28.61,28.61-28.61M114.46,83.35c-17.15,0-31.11,13.96-31.11,31.11s13.96,31.11,31.11,31.11,31.11-13.96,31.11-31.11-13.96-31.11-31.11-31.11h0Z"/>
          </g>
        </g>
        <path class="cls-6" d="M112.15,133.15v-28.69l-9.45,3.39v-6.21l16.28-5.88h.39v37.39h-7.21Z"/>
      </g>
      <g>
        <g class="cls-4">
          <g>
            <rect class="cls-2" x="2.21" y="2.21" width="224.49" height="224.49"/>
            <rect class="cls-2" x="2.21" y="2.21" width="224.49" height="224.49"/>
            <rect class="cls-2" x="2.21" y="2.21" width="224.49" height="224.49"/>
            <rect class="cls-2" x="2.21" y="2.21" width="224.49" height="224.49"/>
            <rect class="cls-2" x="2.21" y="2.21" width="224.49" height="224.49"/>
            <rect class="cls-2" x="2.21" y="2.21" width="224.49" height="224.49"/>
          </g>
        </g>
        <rect class="cls-2" x="2.21" y="2.21" width="224.49" height="224.49" rx="18.06" ry="18.06"/>
      </g>
    </g>
  </g>
</svg>