<?xml version="1.0" encoding="UTF-8"?>
<svg id="Layer_2" data-name="Layer 2" xmlns="http://www.w3.org/2000/svg" xmlns:xlink="http://www.w3.org/1999/xlink" viewBox="0 0 228.92 228.92">
  <defs>
    <style>
      .cls-1, .cls-2 {
        fill: none;
      }

      .cls-2 {
        stroke: #d6b890;
        stroke-miterlimit: 10;
        stroke-width: 4.42px;
      }

      .cls-3 {
        fill: #f8ead6;
      }

      .cls-4 {
        fill: #6db360;
      }

      .cls-5 {
        clip-path: url(#clippath-6);
      }

      .cls-6 {
        fill: #081b1e;
      }

      .cls-7 {
        fill: #f9b72e;
      }

      .cls-8 {
        clip-path: url(#clippath);
      }
    </style>
    <clipPath id="clippath">
      <rect class="cls-1" x="2.21" y="2.21" width="224.49" height="224.49" rx="18.06" ry="18.06"/>
    </clipPath>
    <clipPath id="clippath-6">
      <rect class="cls-2" x="2.21" y="2.21" width="224.49" height="224.49" rx="18.06" ry="18.06"/>
    </clipPath>
  </defs>
  <g id="Layer_1-2" data-name="Layer 1">
    <g>
      <g>
        <g class="cls-8">
          <rect class="cls-3" x="2.21" y="2.21" width="224.49" height="224.49"/>
        </g>
        <g>
          <g class="cls-5">
            <g>
              <rect class="cls-2" x="2.21" y="2.21" width="224.49" height="224.49"/>
              <rect class="cls-2" x="2.21" y="2.21" width="224.49" height="224.49"/>
              <rect class="cls-2" x="2.21" y="2.21" width="224.49" height="224.49"/>
              <rect class="cls-2" x="2.21" y="2.21" width="224.49" height="224.49"/>
              <rect class="cls-2" x="2.21" y="2.21" width="224.49" height="224.49"/>
              <rect class="cls-2" x="2.21" y="2.21" width="224.49" height="224.49"/>
            </g>
          </g>
          <rect class="cls-2" x="2.21" y="2.21" width="224.49" height="224.49" rx="18.06" ry="18.06"/>
        </g>
      </g>
      <g>
        <path class="cls-6" d="M154.71,102.97v-.67c0-4.17-3.39-7.55-7.56-7.55h-7.23l5.17-7.17c2.33-3.22,4.01-6.38,5.15-9.66,1.39-3.99,2.09-8.17,2.09-12.42,0-20.84-16.95-37.79-37.97-37.79s-37.79,16.95-37.79,37.79c0,4.25.7,8.42,2.09,12.41,1.14,3.28,2.82,6.44,5.15,9.66l5.18,7.17h-7.24c-4.17,0-7.56,3.39-7.56,7.55v.67c0,2.22.98,4.19,2.5,5.58-1.53,1.38-2.5,3.36-2.5,5.58v.67c0,2.22.98,4.2,2.5,5.58-1.53,1.38-2.5,3.36-2.5,5.58v.67c0,4.17,3.39,7.55,7.56,7.55h7.24l-5.17,7.16c-2.33,3.22-4.01,6.38-5.15,9.66-1.39,3.99-2.09,8.17-2.09,12.42,0,20.84,16.95,37.8,37.79,37.8h.17c20.84,0,37.79-16.96,37.79-37.8,0-4.24-.7-8.42-2.09-12.41-1.14-3.28-2.82-6.44-5.15-9.66l-5.17-7.16h7.23c4.17,0,7.56-3.39,7.56-7.55v-.67c0-2.22-.98-4.2-2.5-5.58,1.53-1.38,2.5-3.36,2.5-5.58v-.67c0-2.22-.98-4.19-2.5-5.58,1.53-1.38,2.5-3.36,2.5-5.58M114.56,184.42s-.06.02-.09.02-.06-.02-.09-.02c-11.59,0-21.03-9.42-21.03-21.01,0-2.37.4-4.69,1.18-6.91.6-1.73,1.55-3.48,2.9-5.34l5.4-7.48c2.49,1.92,5.25,3.22,8.17,3.82l-6.39,8.84c-.85,1.18-1.41,2.18-1.72,3.07-.44,1.28-.67,2.62-.67,4,0,6.7,5.45,12.16,12.06,12.16.03.02.14,0,.22,0h.05c6.7,0,12.16-5.45,12.16-12.16,0-1.37-.23-2.72-.67-3.99-.31-.9-.87-1.9-1.72-3.07l-6.39-8.85c2.93-.59,5.69-1.89,8.18-3.82l5.4,7.48c1.35,1.86,2.3,3.61,2.9,5.35.77,2.17,1.15,4.49,1.15,6.9,0,11.58-9.42,21.01-21.01,21.01M121.11,158.67c.8,1.1,1.09,1.76,1.19,2.05.3.86.45,1.76.45,2.69,0,4.52-3.68,8.2-8.38,8.2s-8.2-3.68-8.2-8.2c0-.93.15-1.84.45-2.7h0c.1-.29.39-.94,1.19-2.05l6.65-9.2,6.65,9.21ZM114.46,143.94c-6.76,0-12.74-4.95-16.38-12.5,0,0,0-.01,0-.02-2.31-4.8-3.68-10.65-3.68-16.96s1.37-12.15,3.68-16.94c0-.01.01-.03.02-.04,3.64-7.55,9.62-12.5,16.38-12.5,11.07,0,20.07,13.22,20.07,29.48s-9,29.48-20.07,29.48M114.38,44.47s.06-.02.09-.02c.03,0,.06.02.09.02,11.58,0,21.01,9.43,21.01,21.03,0,2.39-.39,4.71-1.16,6.9-.6,1.73-1.58,3.53-2.9,5.35l-5.4,7.48c-2.49-1.93-5.25-3.23-8.18-3.82l6.39-8.85c.85-1.18,1.41-2.18,1.72-3.06.45-1.28.67-2.62.67-4,0-6.7-5.45-12.16-12.06-12.16h0s-.22,0-.26,0c-6.7,0-12.16,5.45-12.16,12.16,0,1.37.22,2.72.67,3.99.31.89.87,1.89,1.72,3.07l6.39,8.84c-2.93.59-5.69,1.9-8.18,3.82l-5.4-7.48c-1.32-1.82-2.3-3.62-2.9-5.35-.78-2.23-1.17-4.55-1.17-6.9,0-11.59,9.43-21.03,21.03-21.03M107.82,70.25c-.76-1.05-1.07-1.7-1.19-2.05-.3-.86-.45-1.76-.45-2.7,0-4.52,3.68-8.2,8.37-8.2s8.2,3.68,8.2,8.2c0,.93-.15,1.84-.45,2.7h0c-.12.35-.43.99-1.19,2.05l-6.65,9.2-6.65-9.21ZM87.03,85.25c-2.1-2.9-3.61-5.73-4.62-8.64-1.24-3.57-1.87-7.31-1.87-11.11,0-18.66,15.18-33.84,33.75-33.84.05,0,.22,0,.26,0,18.66,0,33.84,15.18,33.84,33.84,0,3.8-.63,7.54-1.87,11.12-1.01,2.91-2.52,5.73-4.62,8.64l-6.85,9.48h-1.22c-1.36-2.58-2.97-4.86-4.79-6.8l5.68-7.86c1.55-2.13,2.7-4.27,3.43-6.36.91-2.61,1.38-5.37,1.38-8.21,0-13.78-11.2-24.98-24.96-24.98-.03,0-.06.02-.09.02s-.06-.02-.09-.02c-13.78,0-24.98,11.21-24.98,24.98,0,2.8.47,5.56,1.4,8.21.73,2.09,1.89,4.23,3.43,6.36l5.67,7.86c-1.82,1.94-3.43,4.23-4.79,6.81h-1.22l-6.85-9.48ZM78.16,102.97v-.67c0-1.98,1.61-3.6,3.6-3.6h11.52c-.95,2.45-1.66,5.1-2.14,7.87h-9.38c-1.99,0-3.6-1.61-3.6-3.6M78.16,114.79v-.67c0-1.99,1.61-3.6,3.6-3.6h8.86c-.11,1.29-.18,2.6-.18,3.93s.07,2.64.18,3.94h-8.86c-1.99,0-3.6-1.61-3.6-3.6M78.16,126.63v-.67c0-1.98,1.61-3.6,3.6-3.6h9.38c.48,2.77,1.2,5.42,2.14,7.87h-11.52c-1.99,0-3.6-1.61-3.6-3.6M141.9,143.66c2.1,2.9,3.61,5.73,4.62,8.64,1.24,3.57,1.87,7.31,1.87,11.11,0,18.66-15.18,33.84-33.8,33.84-.04,0-.17,0-.21,0-18.66,0-33.84-15.18-33.84-33.84,0-3.8.63-7.54,1.87-11.12,1.01-2.91,2.52-5.73,4.62-8.64l6.84-9.48h1.23c1.36,2.58,2.97,4.86,4.79,6.81l-5.67,7.86c-1.58,2.18-2.71,4.26-3.43,6.36-.93,2.63-1.4,5.39-1.4,8.21,0,13.77,11.21,24.96,24.98,24.96.03,0,.06-.02.09-.02.03,0,.06.02.09.02,13.77,0,24.96-11.2,24.96-24.96,0-2.86-.46-5.62-1.37-8.2-.73-2.11-1.85-4.19-3.43-6.37l-5.68-7.86c1.82-1.94,3.43-4.23,4.79-6.8h1.23l6.85,9.48ZM150.76,125.95v.67c0,1.98-1.61,3.6-3.6,3.6h-11.51c.95-2.45,1.66-5.1,2.15-7.87h9.37c1.99,0,3.6,1.62,3.6,3.6M150.76,114.12v.67c0,1.99-1.61,3.6-3.6,3.6h-8.84c.11-1.29.18-2.6.18-3.94s-.07-2.64-.18-3.93h8.84c1.99,0,3.6,1.61,3.6,3.6M137.79,106.57c-.48-2.77-1.2-5.42-2.14-7.87h11.51c1.99,0,3.6,1.61,3.6,3.6v.67c0,1.98-1.61,3.6-3.6,3.6h-9.37Z"/>
        <path class="cls-7" d="M114.46,84.98c-6.76,0-12.74,4.95-16.38,12.5,0,.01-.01.03-.02.04-2.31,4.8-3.68,10.64-3.68,16.94s1.37,12.16,3.68,16.96c0,0,0,.01,0,.02,3.64,7.55,9.62,12.5,16.38,12.5,11.07,0,20.07-13.23,20.07-29.48s-9-29.48-20.07-29.48"/>
        <path class="cls-4" d="M131.51,77.76c1.32-1.83,2.3-3.62,2.9-5.35.77-2.19,1.16-4.51,1.16-6.9,0-11.6-9.42-21.03-21.01-21.03-.03,0-.06-.02-.09-.02-.03,0-.06.02-.09.02-11.6,0-21.03,9.43-21.03,21.03,0,2.35.4,4.68,1.17,6.9.6,1.73,1.58,3.52,2.9,5.35l5.4,7.48c2.49-1.93,5.25-3.23,8.18-3.82l-6.39-8.85c-.85-1.17-1.41-2.18-1.72-3.07-.45-1.27-.67-2.62-.67-3.99,0-6.71,5.45-12.16,12.16-12.16.04,0,.22,0,.26,0h0c6.61,0,12.06,5.45,12.06,12.16,0,1.37-.23,2.72-.67,4-.31.89-.87,1.89-1.72,3.06l-6.39,8.85c2.93.59,5.69,1.89,8.18,3.82l5.4-7.48Z"/>
        <path class="cls-4" d="M81.76,106.57h9.38c.48-2.77,1.2-5.42,2.14-7.87h-11.52c-1.98,0-3.6,1.61-3.6,3.6v.67c0,1.98,1.62,3.6,3.6,3.6"/>
        <path class="cls-4" d="M95.1,94.74c1.36-2.58,2.97-4.87,4.79-6.81l-5.67-7.86c-1.54-2.13-2.7-4.27-3.43-6.36-.93-2.65-1.4-5.41-1.4-8.21,0-13.78,11.21-24.98,24.98-24.98.03,0,.06.02.09.02.03,0,.06-.02.09-.02,13.77,0,24.96,11.21,24.96,24.98,0,2.83-.46,5.6-1.38,8.21-.73,2.09-1.89,4.23-3.43,6.36l-5.68,7.86c1.82,1.94,3.43,4.23,4.79,6.8h1.22l6.85-9.48c2.1-2.91,3.61-5.73,4.62-8.64,1.24-3.57,1.88-7.31,1.88-11.12,0-18.66-15.18-33.84-33.84-33.84-.05,0-.22,0-.27,0-18.57,0-33.75,15.18-33.75,33.84,0,3.8.63,7.54,1.87,11.11,1.01,2.91,2.53,5.74,4.62,8.64l6.85,9.48h1.22Z"/>
        <path class="cls-4" d="M81.76,118.4h8.86c-.11-1.29-.18-2.6-.18-3.94s.07-2.64.18-3.93h-8.86c-1.98,0-3.6,1.61-3.6,3.6v.67c0,1.99,1.62,3.6,3.6,3.6"/>
        <path class="cls-4" d="M97.43,151.16c-1.35,1.86-2.3,3.61-2.9,5.34-.78,2.22-1.18,4.54-1.18,6.91,0,11.58,9.43,21.01,21.03,21.01.03,0,.06.02.09.02.03,0,.06-.02.09-.02,11.58,0,21.01-9.42,21.01-21.01,0-2.41-.39-4.73-1.15-6.9-.6-1.74-1.55-3.49-2.9-5.35l-5.4-7.48c-2.49,1.93-5.25,3.23-8.18,3.82l6.39,8.85c.85,1.17,1.41,2.17,1.72,3.07.44,1.27.67,2.62.67,3.99,0,6.7-5.45,12.16-12.16,12.16h-.05c-.07,0-.19.02-.22,0-6.61,0-12.06-5.45-12.06-12.16,0-1.37.23-2.72.67-4,.31-.89.87-1.89,1.72-3.07l6.39-8.84c-2.93-.59-5.69-1.89-8.17-3.82l-5.4,7.48Z"/>
        <path class="cls-4" d="M147.16,98.69h-11.51c.95,2.45,1.66,5.1,2.14,7.87h9.37c1.99,0,3.6-1.61,3.6-3.6v-.67c0-1.98-1.61-3.6-3.6-3.6"/>
        <path class="cls-4" d="M91.14,122.35h-9.38c-1.98,0-3.6,1.61-3.6,3.6v.67c0,1.98,1.62,3.6,3.6,3.6h11.52c-.95-2.45-1.66-5.1-2.14-7.87"/>
        <path class="cls-4" d="M147.16,110.52h-8.84c.11,1.29.18,2.6.18,3.93s-.07,2.64-.18,3.94h8.84c1.99,0,3.6-1.61,3.6-3.6v-.67c0-1.99-1.61-3.6-3.6-3.6"/>
        <path class="cls-4" d="M147.16,122.35h-9.37c-.48,2.77-1.2,5.42-2.15,7.87h11.51c1.99,0,3.6-1.61,3.6-3.6v-.67c0-1.98-1.61-3.6-3.6-3.6"/>
        <path class="cls-4" d="M133.82,134.18c-1.36,2.57-2.97,4.86-4.79,6.8l5.68,7.86c1.58,2.18,2.7,4.26,3.43,6.37.91,2.58,1.37,5.35,1.37,8.2,0,13.77-11.2,24.96-24.96,24.96-.03,0-.06-.02-.09-.02-.03,0-.06.02-.09.02-13.78,0-24.98-11.2-24.98-24.96,0-2.82.47-5.58,1.4-8.21.72-2.09,1.85-4.18,3.43-6.36l5.68-7.86c-1.82-1.94-3.43-4.23-4.79-6.81h-1.23l-6.84,9.48c-2.1,2.91-3.61,5.73-4.62,8.64-1.24,3.57-1.87,7.31-1.87,11.12,0,18.66,15.18,33.84,33.84,33.84.04,0,.17,0,.21,0,18.62,0,33.8-15.18,33.8-33.84,0-3.8-.63-7.54-1.87-11.11-1.01-2.91-2.52-5.73-4.62-8.64l-6.85-9.48h-1.23Z"/>
        <path class="cls-6" d="M126.37,113.14l-4.87,7.07c-.21.3,0,.72.38.72h.59c.3,0,.48.34.31.59l-2.38,3.49c-.24.34.01.81.43.81h.71c.36,0,.56.42.32.7-.82.99-2.62,2.76-5.33,3.4v-19.55c3.34-.91,5.81-3.96,5.81-7.59,0-4.35-3.52-7.87-7.87-7.87s-7.87,3.52-7.87,7.87c0,3.63,2.46,6.68,5.81,7.59v19.55c-2.71-.64-4.5-2.41-5.33-3.4-.23-.28-.04-.7.32-.7h.71c.42,0,.66-.47.43-.81l-2.38-3.49c-.17-.25,0-.59.31-.59h.59c.37,0,.59-.42.38-.72l-4.87-7.07c-.36-.52-1.18-.27-1.18.37v7.39c0,7.23,5.86,13.09,13.09,13.09s13.09-5.86,13.09-13.09v-7.39c0-.63-.82-.89-1.18-.37M110.96,102.8c0-1.93,1.57-3.5,3.5-3.5s3.5,1.57,3.5,3.5-1.57,3.5-3.5,3.5-3.5-1.57-3.5-3.5"/>
      </g>
    </g>
  </g>
</svg>