<?xml version="1.0" encoding="UTF-8"?>
<svg id="Layer_2" data-name="Layer 2" xmlns="http://www.w3.org/2000/svg" viewBox="0 0 126 126">
  <defs>
    <style>
      .cls-1 {
        fill: #fab82f;
      }

      .cls-2 {
        fill: #f8ead6;
      }

      .cls-3 {
        fill: #081b1e;
      }

      .cls-4 {
        fill: #6eb460;
      }

      .cls-5 {
        fill: none;
        stroke: #081b1e;
        stroke-linecap: round;
        stroke-miterlimit: 10;
      }
    </style>
  </defs>
  <g id="Layer_1-2" data-name="Layer 1">
    <g>
      <rect class="cls-2" width="126" height="126"/>
      <g>
        <path class="cls-3" d="m109.94,11.45c2.54,0,4.61,2.07,4.61,4.61v74.03h1V16.06c0-3.09-2.52-5.61-5.61-5.61H35.91v1h74.03Z"/>
        <path class="cls-3" d="m16.06,114.55c-2.54,0-4.61-2.07-4.61-4.61V35.91h-1v74.03c0,3.09,2.52,5.61,5.61,5.61h74.03v-1H16.06Z"/>
      </g>
      <g>
        <path class="cls-3" d="m78.29,58.64v-.26c0-1.58-1.29-2.87-2.87-2.87h-2.75l1.97-2.72c.88-1.22,1.52-2.42,1.96-3.67.53-1.52.8-3.1.8-4.72,0-7.92-6.44-14.36-14.42-14.36s-14.36,6.44-14.36,14.36c0,1.61.27,3.2.79,4.72.43,1.25,1.07,2.45,1.96,3.67l1.97,2.72h-2.75c-1.58,0-2.87,1.29-2.87,2.87v.26c0,.84.37,1.59.95,2.12-.58.53-.95,1.28-.95,2.12v.26c0,.84.37,1.59.95,2.12-.58.53-.95,1.28-.95,2.12v.26c0,1.58,1.29,2.87,2.87,2.87h2.75l-1.96,2.72c-.88,1.22-1.52,2.42-1.96,3.67-.53,1.52-.8,3.1-.8,4.72,0,7.92,6.44,14.36,14.36,14.36h.07c7.92,0,14.36-6.44,14.36-14.36,0-1.61-.27-3.2-.79-4.72-.43-1.25-1.07-2.45-1.96-3.67l-1.97-2.72h2.75c1.58,0,2.87-1.29,2.87-2.87v-.26c0-.84-.37-1.59-.95-2.12.58-.53.95-1.28.95-2.12v-.26c0-.84-.37-1.59-.95-2.12.58-.53.95-1.28.95-2.12m-15.25,30.94s-.02,0-.03,0-.02,0-.03,0c-4.4,0-7.99-3.58-7.99-7.98,0-.9.15-1.78.45-2.62.23-.66.59-1.32,1.1-2.03l2.05-2.84c.94.73,1.99,1.22,3.11,1.45l-2.43,3.36c-.32.45-.54.83-.65,1.17-.17.48-.25,1-.25,1.52,0,2.55,2.07,4.62,4.58,4.62.01,0,.05,0,.08,0h.02c2.55,0,4.62-2.07,4.62-4.62,0-.52-.09-1.03-.25-1.52-.12-.34-.33-.72-.65-1.17l-2.43-3.36c1.11-.23,2.16-.72,3.11-1.45l2.05,2.84c.51.71.87,1.37,1.1,2.03.29.82.44,1.71.44,2.62,0,4.4-3.58,7.98-7.98,7.98m2.49-9.78c.3.42.41.67.45.78.11.33.17.67.17,1.02,0,1.72-1.4,3.12-3.18,3.12s-3.11-1.4-3.11-3.12c0-.35.06-.7.17-1.02h0c.04-.11.15-.36.45-.78l2.52-3.5,2.53,3.5Zm-2.53-5.6c-2.57,0-4.84-1.88-6.22-4.75,0,0,0,0,0,0-.88-1.82-1.4-4.04-1.4-6.44s.52-4.61,1.4-6.44c0,0,0,0,0-.02,1.38-2.87,3.65-4.75,6.22-4.75,4.21,0,7.63,5.02,7.63,11.2s-3.42,11.2-7.63,11.2m-.03-37.79s.02,0,.03,0c.01,0,.02,0,.03,0,4.4,0,7.98,3.58,7.98,7.99,0,.91-.15,1.79-.44,2.62-.23.66-.6,1.34-1.1,2.03l-2.05,2.84c-.95-.73-1.99-1.23-3.11-1.45l2.43-3.36c.32-.45.54-.83.65-1.16.17-.49.25-1,.25-1.52,0-2.55-2.07-4.62-4.58-4.62h0s-.08,0-.1,0c-2.55,0-4.62,2.07-4.62,4.62,0,.52.08,1.03.25,1.52.12.34.33.72.65,1.17l2.43,3.36c-1.11.23-2.16.72-3.11,1.45l-2.05-2.84c-.5-.69-.87-1.38-1.1-2.03-.3-.85-.45-1.73-.45-2.62,0-4.4,3.58-7.99,7.99-7.99m-2.49,9.79c-.29-.4-.41-.64-.45-.78-.11-.33-.17-.67-.17-1.02,0-1.72,1.4-3.12,3.18-3.12s3.12,1.4,3.12,3.12c0,.35-.06.7-.17,1.02h0c-.05.13-.16.38-.45.78l-2.53,3.5-2.52-3.5Zm-7.9,5.7c-.8-1.1-1.37-2.18-1.76-3.28-.47-1.36-.71-2.78-.71-4.22,0-7.09,5.77-12.85,12.82-12.86.02,0,.08,0,.1,0,7.09,0,12.85,5.77,12.85,12.85,0,1.45-.24,2.87-.71,4.22-.38,1.1-.96,2.18-1.75,3.28l-2.6,3.6h-.47c-.52-.98-1.13-1.85-1.82-2.59l2.16-2.99c.59-.81,1.03-1.62,1.3-2.42.35-.99.52-2.04.52-3.12,0-5.23-4.25-9.49-9.48-9.49-.01,0-.02,0-.03,0s-.02,0-.03,0c-5.23,0-9.49,4.26-9.49,9.49,0,1.06.18,2.11.53,3.12.28.79.72,1.61,1.3,2.42l2.16,2.99c-.69.74-1.3,1.61-1.82,2.59h-.46l-2.6-3.6Zm-3.37,6.73v-.26c0-.75.61-1.37,1.37-1.37h4.38c-.36.93-.63,1.94-.81,2.99h-3.56c-.75,0-1.37-.61-1.37-1.37m0,4.49v-.26c0-.75.61-1.37,1.37-1.37h3.36c-.04.49-.07.99-.07,1.49s.03,1,.07,1.5h-3.36c-.75,0-1.37-.61-1.37-1.37m0,4.49v-.26c0-.75.61-1.37,1.37-1.37h3.56c.18,1.05.45,2.06.81,2.99h-4.38c-.75,0-1.37-.61-1.37-1.37m24.21,6.47c.8,1.1,1.37,2.18,1.76,3.28.47,1.36.71,2.78.71,4.22,0,7.09-5.77,12.86-12.84,12.85-.02,0-.06,0-.08,0-7.09,0-12.85-5.77-12.85-12.86,0-1.45.24-2.87.71-4.22.38-1.1.96-2.18,1.76-3.28l2.6-3.6h.47c.52.98,1.13,1.85,1.82,2.59l-2.16,2.98c-.6.83-1.03,1.62-1.3,2.42-.35,1-.53,2.05-.53,3.12,0,5.23,4.26,9.48,9.49,9.48.01,0,.02,0,.03,0,.01,0,.02,0,.03,0,5.23,0,9.48-4.25,9.48-9.48,0-1.09-.18-2.14-.52-3.12-.28-.8-.7-1.59-1.3-2.42l-2.16-2.99c.69-.74,1.3-1.61,1.82-2.58h.47l2.6,3.6Zm3.37-6.73v.26c0,.75-.61,1.37-1.37,1.37h-4.37c.36-.93.63-1.94.82-2.99h3.56c.75,0,1.37.61,1.37,1.37m0-4.49v.26c0,.75-.61,1.37-1.37,1.37h-3.36c.04-.49.07-.99.07-1.5s-.03-1-.07-1.49h3.36c.75,0,1.37.61,1.37,1.37m-4.93-2.87c-.18-1.05-.45-2.06-.81-2.99h4.37c.75,0,1.37.61,1.37,1.37v.26c0,.75-.61,1.37-1.37,1.37h-3.56Z"/>
        <path class="cls-1" d="m63,51.8c-2.57,0-4.84,1.88-6.22,4.75,0,0,0,0,0,.02-.88,1.82-1.4,4.04-1.4,6.44s.52,4.62,1.4,6.44c0,0,0,0,0,0,1.38,2.87,3.65,4.75,6.22,4.75,4.21,0,7.63-5.02,7.63-11.2s-3.42-11.2-7.63-11.2"/>
        <path class="cls-4" d="m69.48,49.06c.5-.69.87-1.38,1.1-2.03.29-.83.44-1.71.44-2.62,0-4.41-3.58-7.99-7.98-7.99-.01,0-.02,0-.03,0-.01,0-.02,0-.03,0-4.41,0-7.99,3.58-7.99,7.99,0,.89.15,1.78.45,2.62.23.66.6,1.34,1.1,2.03l2.05,2.84c.94-.73,1.99-1.23,3.11-1.45l-2.43-3.36c-.32-.45-.54-.83-.65-1.17-.17-.48-.25-.99-.25-1.52,0-2.55,2.07-4.62,4.62-4.62.02,0,.08,0,.1,0h0c2.51,0,4.58,2.07,4.58,4.62,0,.52-.09,1.03-.26,1.52-.12.34-.33.72-.65,1.16l-2.43,3.36c1.11.23,2.16.72,3.11,1.45l2.05-2.84Z"/>
        <path class="cls-4" d="m50.58,60h3.56c.18-1.05.45-2.06.81-2.99h-4.38c-.75,0-1.37.61-1.37,1.37v.26c0,.75.61,1.37,1.37,1.37"/>
        <path class="cls-4" d="m55.65,55.51c.52-.98,1.13-1.85,1.82-2.59l-2.16-2.99c-.59-.81-1.02-1.62-1.3-2.42-.35-1.01-.53-2.06-.53-3.12,0-5.23,4.26-9.49,9.49-9.49.01,0,.02,0,.03,0,.01,0,.02,0,.03,0,5.23,0,9.48,4.26,9.48,9.49,0,1.08-.18,2.13-.52,3.12-.28.79-.72,1.61-1.3,2.42l-2.16,2.99c.69.74,1.3,1.61,1.82,2.59h.46l2.6-3.6c.8-1.1,1.37-2.18,1.75-3.28.47-1.36.71-2.78.71-4.22,0-7.09-5.77-12.86-12.85-12.86-.02,0-.08,0-.1,0-7.05,0-12.82,5.77-12.82,12.86,0,1.44.24,2.86.71,4.22.38,1.11.96,2.18,1.76,3.28l2.6,3.6h.46Z"/>
        <path class="cls-4" d="m50.58,64.5h3.36c-.04-.49-.07-.99-.07-1.5s.03-1,.07-1.49h-3.36c-.75,0-1.37.61-1.37,1.37v.26c0,.75.61,1.37,1.37,1.37"/>
        <path class="cls-4" d="m56.53,76.94c-.51.71-.87,1.37-1.1,2.03-.3.84-.45,1.72-.45,2.62,0,4.4,3.58,7.98,7.99,7.98.01,0,.02,0,.03,0,.01,0,.02,0,.03,0,4.4,0,7.98-3.58,7.98-7.98,0-.91-.15-1.8-.44-2.62-.23-.66-.59-1.33-1.1-2.03l-2.05-2.84c-.95.73-1.99,1.23-3.11,1.45l2.43,3.36c.32.44.54.83.65,1.17.17.48.25.99.25,1.52,0,2.55-2.07,4.62-4.62,4.62h-.02s-.07,0-.08,0c-2.51,0-4.58-2.07-4.58-4.62,0-.52.09-1.03.25-1.52.12-.34.33-.72.65-1.17l2.43-3.36c-1.11-.22-2.16-.72-3.11-1.45l-2.05,2.84Z"/>
        <path class="cls-4" d="m75.42,57.01h-4.37c.36.93.63,1.94.81,2.99h3.56c.75,0,1.37-.61,1.37-1.37v-.26c0-.75-.61-1.37-1.37-1.37"/>
        <path class="cls-4" d="m54.14,66h-3.56c-.75,0-1.37.61-1.37,1.37v.26c0,.75.61,1.37,1.37,1.37h4.38c-.36-.93-.63-1.94-.81-2.99"/>
        <path class="cls-4" d="m75.42,61.5h-3.36c.04.49.07.99.07,1.49s-.03,1-.07,1.5h3.36c.75,0,1.37-.61,1.37-1.37v-.26c0-.75-.61-1.37-1.37-1.37"/>
        <path class="cls-4" d="m75.42,66h-3.56c-.18,1.05-.46,2.06-.82,2.99h4.37c.75,0,1.37-.61,1.37-1.37v-.26c0-.75-.61-1.37-1.37-1.37"/>
        <path class="cls-4" d="m70.36,70.49c-.52.98-1.13,1.85-1.82,2.58l2.16,2.99c.6.83,1.03,1.62,1.3,2.42.35.98.52,2.03.52,3.12,0,5.23-4.25,9.48-9.48,9.48-.01,0-.02,0-.03,0-.01,0-.02,0-.03,0-5.23,0-9.49-4.25-9.49-9.48,0-1.07.18-2.12.53-3.12.28-.8.7-1.59,1.3-2.42l2.16-2.98c-.69-.74-1.3-1.61-1.82-2.59h-.47l-2.6,3.6c-.8,1.1-1.37,2.18-1.76,3.28-.47,1.36-.71,2.78-.71,4.22,0,7.09,5.77,12.86,12.85,12.86.02,0,.07,0,.08,0,7.07,0,12.84-5.77,12.84-12.85,0-1.45-.24-2.87-.71-4.22-.38-1.11-.96-2.18-1.76-3.28l-2.6-3.6h-.47Z"/>
        <path class="cls-3" d="m67.53,62.5l-1.85,2.69c-.08.12,0,.27.14.27h.22c.11,0,.18.13.12.22l-.9,1.33c-.09.13,0,.31.16.31h.27c.14,0,.21.16.12.27-.31.38-1,1.05-2.03,1.29v-7.43c1.27-.34,2.21-1.5,2.21-2.88,0-1.65-1.34-2.99-2.99-2.99s-2.99,1.34-2.99,2.99c0,1.38.94,2.54,2.21,2.88v7.43c-1.03-.24-1.71-.92-2.03-1.29-.09-.11-.01-.27.12-.27h.27c.16,0,.25-.18.16-.31l-.9-1.33c-.06-.09,0-.22.12-.22h.22c.14,0,.22-.16.14-.27l-1.85-2.69c-.14-.2-.45-.1-.45.14v2.81c0,2.75,2.23,4.97,4.97,4.97s4.97-2.23,4.97-4.97v-2.81c0-.24-.31-.34-.45-.14m-5.85-3.93c0-.73.6-1.33,1.33-1.33s1.33.6,1.33,1.33-.6,1.33-1.33,1.33-1.33-.6-1.33-1.33"/>
      </g>
      <g>
        <path class="cls-5" d="m17.95,6.75c-2.57,0-4.84,1.88-6.22,4.75,0,0,0,0,0,.02-.88,1.82-1.4,4.04-1.4,6.44s.52,4.62,1.4,6.44c0,0,0,0,0,0,1.38,2.87,3.65,4.75,6.22,4.75,4.21,0,7.63-5.02,7.63-11.2s-3.42-11.2-7.63-11.2"/>
        <path class="cls-3" d="m21.71,17.53l-1.54,2.23c-.07.1,0,.23.12.23h.19c.1,0,.15.11.1.19l-.75,1.1c-.07.11,0,.26.14.26h.22c.11,0,.18.13.1.22-.26.31-.83.87-1.68,1.07v-6.18c1.06-.29,1.83-1.25,1.83-2.4,0-1.37-1.11-2.49-2.49-2.49s-2.49,1.11-2.49,2.49c0,1.15.78,2.11,1.83,2.4v6.18c-.86-.2-1.42-.76-1.68-1.07-.07-.09-.01-.22.1-.22h.22c.13,0,.21-.15.14-.26l-.75-1.1c-.05-.08,0-.19.1-.19h.19c.12,0,.19-.13.12-.23l-1.54-2.23c-.11-.17-.37-.08-.37.12v2.34c0,2.28,1.85,4.13,4.13,4.13s4.13-1.85,4.13-4.13v-2.34c0-.2-.26-.28-.37-.12m-4.87-3.27c0-.61.49-1.11,1.11-1.11s1.11.49,1.11,1.11-.49,1.11-1.11,1.11-1.11-.49-1.11-1.11"/>
      </g>
      <g>
        <path class="cls-5" d="m108.05,119.25c2.57,0,4.84-1.88,6.22-4.75,0,0,0,0,0-.02.88-1.82,1.4-4.04,1.4-6.44s-.52-4.62-1.4-6.44c0,0,0,0,0,0-1.38-2.87-3.65-4.75-6.22-4.75-4.21,0-7.63,5.02-7.63,11.2s3.42,11.2,7.63,11.2"/>
        <path class="cls-3" d="m104.29,108.47l1.54-2.23c.07-.1,0-.23-.12-.23h-.19c-.1,0-.15-.11-.1-.19l.75-1.1c.07-.11,0-.26-.14-.26h-.22c-.11,0-.18-.13-.1-.22.26-.31.83-.87,1.68-1.07v6.18c-1.06.29-1.83,1.25-1.83,2.4,0,1.37,1.11,2.49,2.49,2.49s2.49-1.11,2.49-2.49c0-1.15-.78-2.11-1.83-2.4v-6.18c.86.2,1.42.76,1.68,1.07.07.09.01.22-.1.22h-.22c-.13,0-.21.15-.14.26l.75,1.1c.05.08,0,.19-.1.19h-.19c-.12,0-.19.13-.12.23l1.54,2.23c.11.17.37.08.37-.12v-2.34c0-2.28-1.85-4.13-4.13-4.13s-4.13,1.85-4.13,4.13v2.34c0,.2.26.28.37.12m4.87,3.27c0,.61-.49,1.11-1.11,1.11s-1.11-.49-1.11-1.11.49-1.11,1.11-1.11,1.11.49,1.11,1.11"/>
      </g>
    </g>
  </g>
</svg>