<?xml version="1.0" encoding="UTF-8"?>
<svg id="Layer_2" data-name="Layer 2" xmlns="http://www.w3.org/2000/svg" viewBox="0 0 126 126">
  <defs>
    <style>
      .cls-1 {
        fill: #f7e9d5;
      }

      .cls-2 {
        fill: #f8ead6;
      }

      .cls-3 {
        fill: #e7a731;
      }

      .cls-4 {
        fill: #091b1e;
      }

      .cls-5 {
        fill: #081b1e;
      }

      .cls-6 {
        stroke: #f7e9d5;
      }

      .cls-6, .cls-7 {
        fill: none;
        stroke-linecap: round;
      }

      .cls-6, .cls-7, .cls-8, .cls-9, .cls-10, .cls-11, .cls-12 {
        stroke-miterlimit: 10;
      }

      .cls-7, .cls-8, .cls-9, .cls-10, .cls-11, .cls-12 {
        stroke: #081b1e;
      }

      .cls-8 {
        fill: #99459a;
      }

      .cls-9 {
        fill: #ef4423;
      }

      .cls-10 {
        fill: #6eb460;
      }

      .cls-11 {
        fill: #5e7dbe;
      }

      .cls-12 {
        fill: #f9b72d;
      }
    </style>
  </defs>
  <g id="Layer_1-2" data-name="Layer 1">
    <g>
      <rect class="cls-2" width="126" height="126"/>
      <path class="cls-5" d="m115.68,16.06c0-3.09-2.52-5.61-5.61-5.61h-62.84v1h62.84c2.54,0,4.61,2.07,4.61,4.61v62.93h1V16.06Z"/>
      <path class="cls-5" d="m16.19,114.55c-2.54,0-4.61-2.07-4.61-4.61v-62.84h-1v62.84c0,3.09,2.52,5.61,5.61,5.61h62.8v-1H16.19Z"/>
      <g>
        <path class="cls-7" d="m16.23,14.09c1.16,2.18,7.65,10.68,9.52,9.68,1.87-1-1.59-11.12-2.76-13.29-1.16-2.18-3.62-3.13-5.49-2.13-1.87,1-2.44,3.57-1.28,5.75"/>
        <path class="cls-7" d="m26.89,7.25c-.13,4.95,1.41,15.35,3.63,15.41,2.22.06,4.29-10.25,4.42-15.2.13-4.95-1.8-.28-4.02-.34-2.22-.06-3.91-4.82-4.03.13"/>
        <path class="cls-7" d="m13.38,29.52c3.27-.07,6.26,1.15,8.51,3.18-2.17,2.12-5.11,3.45-8.38,3.52-3.27.06-6.26-1.15-8.51-3.18,2.17-2.12,5.11-3.45,8.38-3.52"/>
        <path class="cls-5" d="m13.18,33.15l-3.57-.15.37,1.17-.65-.03-.61-1.87v-.05s4.49.19,4.49.19l-.03.74Z"/>
        <path class="cls-5" d="m19.45,15.46l-.25-.51.68-2.3c.06-.19.1-.36.13-.51s.05-.27.06-.39c0-.11,0-.21-.01-.3-.02-.09-.04-.17-.08-.25-.05-.1-.11-.19-.19-.26-.07-.07-.15-.12-.24-.15-.09-.03-.18-.05-.28-.04-.1,0-.2.03-.3.08-.13.06-.24.14-.31.22s-.13.18-.16.27c-.03.1-.04.21-.02.33.02.12.06.24.12.37l-.74.36c-.1-.19-.15-.4-.16-.6-.01-.21.02-.41.09-.6.07-.19.18-.37.33-.54.15-.17.35-.31.58-.42.22-.11.43-.17.63-.19.2-.02.39,0,.57.05.17.06.33.15.46.27.14.13.25.28.35.47.07.14.11.29.13.44.02.15.02.32,0,.48-.02.17-.05.35-.1.53-.05.19-.1.38-.17.58l-.48,1.55,2.08-1.02.29.59-3,1.47Z"/>
        <g>
          <path class="cls-7" d="m22.44,25.32l-5.46-5.12c-1.53-1.44-3.83-2.23-5.7-1.97l-3.51.49c-.87.12-1.2.82-.73,1.57l1.84,2.96c1,1.6,3.08,2.86,5.16,3.12l7.47.93c1.45.18,1.99-.99.93-1.98"/>
          <path class="cls-5" d="m13.43,20.57l.6.27-.26.57,1.01.46-.34.74-1.01-.46-.89,1.96-.47-.19-2.18-3.34.35-.77,2.92,1.32.26-.57Zm-.59,1.31l-1.92-.87.12.16,1.25,1.93.55-1.22Z"/>
        </g>
        <path class="cls-4" d="m31.08,10.65c.15,0,.27,0,.39-.04s.21-.08.28-.15c.07-.06.13-.14.17-.23s.06-.19.07-.3c0-.12,0-.23-.03-.32-.03-.1-.07-.18-.13-.25-.06-.06-.14-.12-.23-.16-.09-.04-.2-.06-.33-.07-.11,0-.22,0-.31.03s-.18.07-.25.13c-.07.06-.13.13-.18.21-.05.08-.07.18-.08.29l-.82-.05c.01-.2.06-.38.15-.54.09-.16.21-.3.36-.41.15-.11.32-.2.52-.25s.41-.08.64-.06.45.06.64.13.36.17.49.3c.13.13.23.28.3.46.07.18.09.39.08.62,0,.1-.03.2-.07.3-.04.1-.09.2-.16.29-.07.09-.15.17-.25.25-.1.08-.21.14-.34.19.15.06.27.13.37.22s.18.18.24.29c.06.11.1.22.12.34s.03.24.02.37c-.01.23-.07.44-.17.61-.1.18-.22.32-.38.43-.16.12-.34.2-.55.25-.21.05-.43.07-.67.06-.21-.01-.42-.05-.61-.13-.2-.07-.36-.17-.51-.3s-.25-.28-.33-.46c-.08-.18-.11-.38-.1-.62l.82.05c0,.11,0,.21.04.3.03.1.09.18.16.24.07.07.15.13.25.17.1.04.21.07.33.08.13,0,.25,0,.36-.03.11-.03.2-.08.28-.14.07-.06.13-.14.18-.24.04-.1.07-.21.08-.34,0-.14,0-.27-.04-.37-.04-.11-.09-.19-.17-.27-.08-.07-.17-.13-.29-.17s-.24-.06-.38-.07l-.49-.03.04-.64.49.03Z"/>
        <line class="cls-7" x1="15.23" y1="19" x2="17.68" y2="16.29"/>
        <line class="cls-7" x1="26.88" y1="12.13" x2="24.17" y2="12.72"/>
        <line class="cls-7" x1="10.58" y1="29.9" x2="11.33" y2="25.86"/>
      </g>
      <g>
        <path class="cls-7" d="m109.77,111.91c-1.16-2.18-7.65-10.68-9.52-9.68-1.87,1,1.59,11.12,2.76,13.29,1.16,2.18,3.62,3.13,5.49,2.13,1.87-1,2.44-3.57,1.28-5.75"/>
        <path class="cls-7" d="m99.11,118.75c.13-4.95-1.41-15.35-3.63-15.41-2.22-.06-4.29,10.25-4.42,15.2-.13,4.95,1.8.28,4.02.34,2.22.06,3.91,4.82,4.03-.13"/>
        <path class="cls-7" d="m112.62,96.48c-3.27.07-6.26-1.15-8.51-3.18,2.17-2.12,5.11-3.45,8.38-3.52,3.27-.06,6.26,1.15,8.51,3.18-2.17,2.12-5.11,3.45-8.38,3.52"/>
        <path class="cls-5" d="m112.82,92.85l3.57.15-.37-1.17.65.03.61,1.87v.05s-4.49-.19-4.49-.19l.03-.74Z"/>
        <path class="cls-5" d="m106.55,110.54l.25.51-.68,2.3c-.06.19-.1.36-.13.51s-.05.27-.06.39c0,.11,0,.21.01.3.02.09.04.17.08.25.05.1.11.19.19.26.07.07.15.12.24.15.09.03.18.05.28.04.1,0,.2-.03.3-.08.13-.06.24-.14.31-.22s.13-.18.16-.27c.03-.1.04-.21.02-.33-.02-.12-.06-.24-.12-.37l.74-.36c.1.19.15.4.16.6.01.21-.02.41-.09.6-.07.19-.18.37-.33.54-.15.17-.35.31-.58.42-.22.11-.43.17-.63.19-.2.02-.39,0-.57-.05-.17-.06-.33-.15-.46-.27-.14-.13-.25-.28-.35-.47-.07-.14-.11-.29-.13-.44-.02-.15-.02-.32,0-.48.02-.17.05-.35.1-.53.05-.19.1-.38.17-.58l.48-1.55-2.08,1.02-.29-.59,3-1.47Z"/>
        <g>
          <path class="cls-7" d="m103.56,100.68l5.46,5.12c1.53,1.44,3.83,2.23,5.7,1.97l3.51-.49c.87-.12,1.2-.82.73-1.57l-1.84-2.96c-1-1.6-3.08-2.86-5.16-3.12l-7.47-.93c-1.45-.18-1.99.99-.93,1.98"/>
          <path class="cls-5" d="m112.57,105.43l-.6-.27.26-.57-1.01-.46.34-.74,1.01.46.89-1.96.47.19,2.18,3.34-.35.77-2.92-1.32-.26.57Zm.59-1.31l1.92.87-.12-.16-1.25-1.93-.55,1.22Z"/>
        </g>
        <path class="cls-4" d="m94.92,115.35c-.15,0-.27,0-.39.04s-.21.08-.28.15c-.07.06-.13.14-.17.23s-.06.19-.07.3c0,.12,0,.23.03.32.03.1.07.18.13.25.06.06.14.12.23.16.09.04.2.06.33.07.11,0,.22,0,.31-.03s.18-.07.25-.13c.07-.06.13-.13.18-.21.05-.08.07-.18.08-.29l.82.05c-.01.2-.06.38-.15.54-.09.16-.21.3-.36.41-.15.11-.32.2-.52.25s-.41.08-.64.06-.45-.06-.64-.13-.36-.17-.49-.3c-.13-.13-.23-.28-.3-.46-.07-.18-.09-.39-.08-.62,0-.1.03-.2.07-.3.04-.1.09-.2.16-.29.07-.09.15-.17.25-.25.1-.08.21-.14.34-.19-.15-.06-.27-.13-.37-.22s-.18-.18-.24-.29c-.06-.11-.1-.22-.12-.34s-.03-.24-.02-.37c.01-.23.07-.44.17-.61.1-.18.22-.32.38-.43.16-.12.34-.2.55-.25.21-.05.43-.07.67-.06.21.01.42.05.61.13.2.07.36.17.51.3s.25.28.33.46c.08.18.11.38.1.62l-.82-.05c0-.11,0-.21-.04-.3-.03-.1-.09-.18-.16-.24-.07-.07-.15-.13-.25-.17-.1-.04-.21-.07-.33-.08-.13,0-.25,0-.36.03-.11.03-.2.08-.28.14-.07.06-.13.14-.18.24-.04.1-.07.21-.08.34,0,.14,0,.27.04.37.04.11.09.19.17.27.08.07.17.13.29.17s.24.06.38.07l.49.03-.04.64-.49-.03Z"/>
        <line class="cls-7" x1="110.77" y1="107" x2="108.32" y2="109.71"/>
        <line class="cls-7" x1="99.12" y1="113.87" x2="101.83" y2="113.28"/>
        <line class="cls-7" x1="115.42" y1="96.1" x2="114.67" y2="100.14"/>
      </g>
      <circle class="cls-5" cx="63" cy="63" r="8.9"/>
      <g>
        <line class="cls-6" x1="59.19" y1="57.75" x2="62.83" y2="62.77"/>
        <line class="cls-6" x1="63" y1="62.98" x2="67.32" y2="64.38"/>
      </g>
      <circle class="cls-1" cx="63" cy="63" r="1.32"/>
      <path class="cls-3" d="m54.28,66.3h0s-.02-.05-.02-.07l.02.07Z"/>
      <path class="cls-3" d="m71.73,66.3l.03-.09s-.02.06-.03.08h0Z"/>
      <path class="cls-3" d="m68.84,55.72l-.09-.07s.06.05.09.07h0Z"/>
      <path class="cls-3" d="m68.12,55.2h0s.04.03.06.04l-.06-.04Z"/>
      <path class="cls-3" d="m54.07,66.38h0s-.02-.05-.02-.07l.02.07Z"/>
      <path class="cls-3" d="m71.94,66.38l.03-.09s-.02.06-.03.09h0Z"/>
      <path class="cls-3" d="m68.98,55.55l-.09-.07s.06.05.09.07h0Z"/>
      <path class="cls-3" d="m68.25,55.01h0s.04.03.06.04l-.06-.04Z"/>
      <path class="cls-9" d="m56.55,90.62c0-6.26,2.46-11.92,6.44-16.15,3.96,4.24,6.39,9.91,6.38,16.17-.01,6.26-2.46,11.92-6.44,16.15-3.96-4.24-6.39-9.91-6.38-16.17"/>
      <path class="cls-9" d="m69.45,35.38c0,6.26-2.46,11.92-6.44,16.15-3.96-4.24-6.39-9.91-6.38-16.17.01-6.26,2.46-11.92,6.44-16.15,3.96,4.24,6.39,9.91,6.38,16.17"/>
      <path class="cls-12" d="m77.52,31.6c-2.51,3.44-10.84,19.89-7.89,22.04,2.95,2.15,16.07-10.81,18.57-14.25,2.51-3.44,2.15-7.97-.8-10.12-2.95-2.15-7.37-1.11-9.88,2.33"/>
      <path class="cls-12" d="m48.48,94.4c2.51-3.44,10.84-19.89,7.89-22.04-2.95-2.15-16.07,10.81-18.57,14.25-2.51,3.44-2.15,7.97.8,10.12,2.95,2.15,7.37,1.11,9.88-2.33"/>
      <g>
        <path class="cls-10" d="m96.88,44.59c-8.13,2.63-24.16,11.07-22.98,14.73,1.18,3.65,19.13,1.12,27.25-1.51,8.13-2.63-.57-3.08-1.75-6.73-1.18-3.65,5.61-9.11-2.52-6.49"/>
        <path class="cls-10" d="m29.12,81.41c8.13-2.63,24.16-11.07,22.98-14.73-1.18-3.65-19.13-1.12-27.25,1.51-8.13,2.63.57,3.08,1.75,6.73,1.18,3.65-5.61,9.11,2.52,6.49"/>
      </g>
      <path class="cls-11" d="m75.59,69.12l10.43,7.6c2.93,2.14,7.02,3.01,10.16,2.17l5.9-1.57c1.46-.39,1.87-1.66.93-2.83l-3.77-4.68c-2.04-2.53-5.87-4.25-9.5-4.25h-12.98c-2.51-.02-3.2,2.09-1.17,3.57"/>
      <path class="cls-11" d="m50.41,56.88l-10.43-7.6c-2.93-2.14-7.02-3.01-10.16-2.17l-5.9,1.57c-1.46.39-1.87,1.66-.93,2.83l3.77,4.68c2.04,2.53,5.87,4.25,9.5,4.25h12.98c2.51.02,3.2-2.09,1.17-3.57"/>
      <line class="cls-8" x1="37.22" y1="26.64" x2="37.21" y2="26.64"/>
      <g>
        <path class="cls-8" d="m56.38,53.49c-.52.2-2.53.53-6.18-4.32-3.94-5.24-8.16-2.88-13.02-9.4-4-5.38-1-11.38.03-13.12h0c1.97-.43,8.61-1.41,12.47,4.06,4.67,6.66,1.12,9.93,4.87,15.31,3.48,4.98,2.37,6.93,2.01,7.36l-.19.11Z"/>
        <path class="cls-8" d="m69.61,72.56c.52-.2,2.53-.53,6.18,4.32,3.94,5.24,8.16,2.88,13.02,9.4,4,5.38,1,11.38-.03,13.12h0c-1.97.44-8.61,1.42-12.47-4.06-4.67-6.66-1.12-9.93-4.87-15.31-3.48-4.98-2.37-6.93-2.02-7.36l.19-.11Z"/>
      </g>
      <path class="cls-8" d="m56.38,53.49c-.52.2-2.53.53-6.18-4.32-3.94-5.24-8.16-2.88-13.02-9.4-4-5.38-1-11.38.03-13.12h0c1.97-.43,8.61-1.41,12.47,4.06,4.67,6.66,1.12,9.93,4.87,15.31,3.48,4.98,2.37,6.93,2.01,7.36l-.19.11Z"/>
      <path class="cls-8" d="m69.61,72.56c.52-.2,2.53-.53,6.18,4.32,3.94,5.24,8.16,2.88,13.02,9.4,4,5.38,1,11.38-.03,13.12h0c-1.97.44-8.61,1.42-12.47-4.06-4.67-6.66-1.12-9.93-4.87-15.31-3.48-4.98-2.37-6.93-2.02-7.36l.19-.11Z"/>
    </g>
  </g>
</svg>