<?xml version="1.0" encoding="UTF-8"?>
<svg id="Layer_2" data-name="Layer 2" xmlns="http://www.w3.org/2000/svg" viewBox="0 0 133.2 133.2">
  <defs>
    <style>
      .cls-1 {
        fill: #5e7dbd;
      }

      .cls-2 {
        fill: #f8ead6;
      }

      .cls-3 {
        fill: #984499;
      }

      .cls-4 {
        fill: #e6a631;
      }

      .cls-5 {
        fill: #f7e9d5;
      }

      .cls-6 {
        fill: #f8b62c;
      }

      .cls-7 {
        fill: #081b1e;
      }

      .cls-8 {
        fill: #6fb360;
      }

      .cls-9 {
        fill: #ee4423;
      }
    </style>
  </defs>
  <g id="Art">
    <g>
      <rect class="cls-2" width="133.2" height="133.2"/>
      <g>
        <circle class="cls-7" cx="66.6" cy="66.6" r="11.42"/>
        <g>
          <path class="cls-5" d="M66.38,66.97c-.21,0-.41-.1-.54-.28l-4.66-6.44c-.22-.3-.15-.72.15-.93.29-.22.72-.15.93.15l4.66,6.44c.22.3.15.72-.15.93-.12.09-.25.13-.39.13Z"/>
          <path class="cls-5" d="M72.14,69.03c-.07,0-.14-.01-.21-.03l-5.54-1.8c-.35-.11-.54-.49-.43-.84.11-.35.49-.54.84-.43l5.54,1.8c.35.11.54.49.43.84-.09.28-.35.46-.64.46Z"/>
        </g>
        <circle class="cls-5" cx="66.6" cy="66.6" r="1.7"/>
        <path class="cls-4" d="M55.41,70.84h0s-.02-.06-.03-.09l.03.09Z"/>
        <path class="cls-4" d="M77.8,70.84l.04-.11s-.03.07-.04.11h0Z"/>
        <path class="cls-4" d="M74.1,57.26l-.12-.08s.08.06.11.09h0Z"/>
        <path class="cls-4" d="M73.17,56.59h0s.05.04.08.05l-.07-.05Z"/>
        <path class="cls-4" d="M55.14,70.94h0s-.02-.06-.03-.09l.03.09Z"/>
        <path class="cls-4" d="M78.07,70.94l.04-.11s-.03.07-.04.11h0Z"/>
        <path class="cls-4" d="M74.28,57.04l-.12-.09s.08.06.12.09h0Z"/>
        <path class="cls-4" d="M73.33,56.35h0s.05.04.08.05l-.08-.05Z"/>
        <g>
          <path class="cls-9" d="M58.32,102.03c.01-8.02,3.16-15.29,8.25-20.71,5.07,5.43,8.2,12.71,8.19,20.74-.01,8.02-3.16,15.29-8.26,20.71-5.07-5.44-8.2-12.71-8.18-20.74"/>
          <path class="cls-7" d="M66.51,123.75l-.49-.52c-5.41-5.79-8.38-13.32-8.37-21.19.01-7.88,3.01-15.39,8.44-21.17l.49-.52.49.52c5.41,5.79,8.38,13.32,8.37,21.19-.01,7.88-3.01,15.4-8.44,21.17l-.49.52ZM58.32,102.03h.67c-.01,7.29,2.65,14.28,7.52,19.75,4.88-5.45,7.57-12.42,7.58-19.72.01-7.3-2.65-14.28-7.52-19.75-4.89,5.45-7.57,12.42-7.58,19.72h-.67Z"/>
        </g>
        <g>
          <path class="cls-9" d="M74.88,31.17c-.01,8.02-3.16,15.29-8.25,20.71-5.07-5.43-8.2-12.71-8.19-20.74.01-8.02,3.16-15.29,8.26-20.71,5.07,5.44,8.2,12.71,8.18,20.74"/>
          <path class="cls-7" d="M66.62,52.86l-.49-.52c-5.41-5.79-8.38-13.32-8.37-21.19.01-7.88,3.01-15.39,8.44-21.17l.49-.52.49.52c5.41,5.79,8.38,13.32,8.36,21.2-.01,7.88-3.01,15.39-8.44,21.17l-.49.52ZM66.69,11.42c-4.89,5.45-7.57,12.42-7.59,19.72-.01,7.3,2.65,14.28,7.52,19.75,4.89-5.45,7.57-12.42,7.58-19.72h0c.01-7.29-2.65-14.28-7.52-19.75Z"/>
        </g>
        <g>
          <path class="cls-6" d="M85.22,26.32c-3.22,4.41-13.9,25.51-10.12,28.27s20.61-13.87,23.82-18.28c3.22-4.41,2.75-10.22-1.03-12.98-3.79-2.76-9.46-1.42-12.67,2.99"/>
          <path class="cls-7" d="M76.15,55.6c-.8,0-1.2-.29-1.44-.47-.72-.53-2.92-2.13,2.21-14.32,2.54-6.02,6.06-12.56,7.76-14.89h0c1.65-2.26,3.96-3.84,6.51-4.44,2.59-.61,5.11-.14,7.1,1.31,4.07,2.97,4.6,9.21,1.18,13.91-1.7,2.33-6.85,7.69-11.8,11.94-6.71,5.76-9.91,6.95-11.52,6.95ZM93.39,22.57c-.62,0-1.25.07-1.89.23-2.24.53-4.28,1.92-5.74,3.93h0c-1.66,2.27-5.11,8.69-7.61,14.62-3.48,8.26-3.66,11.99-2.66,12.72.99.73,4.49-.57,11.29-6.42,4.88-4.19,9.94-9.44,11.59-11.71,2.99-4.11,2.6-9.51-.88-12.05-1.19-.86-2.6-1.31-4.11-1.31Z"/>
        </g>
        <g>
          <path class="cls-6" d="M47.98,106.88c3.22-4.41,13.9-25.51,10.12-28.27-3.78-2.76-20.61,13.87-23.82,18.28-3.22,4.41-2.75,10.22,1.03,12.98,3.79,2.76,9.46,1.42,12.67-2.99"/>
          <path class="cls-7" d="M39.81,111.97c-1.79,0-3.48-.53-4.9-1.57-4.08-2.97-4.6-9.21-1.18-13.91,2.33-3.2,20.16-21.76,24.76-18.43.72.53,2.92,2.13-2.21,14.32-2.54,6.02-6.06,12.56-7.76,14.89h0c-1.65,2.26-3.96,3.84-6.51,4.44-.74.17-1.48.26-2.2.26ZM56.94,78.93c-4.27,0-18.36,13.18-22.13,18.35-2.99,4.1-2.6,9.51.89,12.05,1.67,1.22,3.8,1.61,6,1.08,2.24-.53,4.28-1.92,5.74-3.93h0c1.66-2.27,5.11-8.69,7.61-14.62,3.48-8.26,3.66-11.99,2.66-12.72-.2-.14-.46-.21-.76-.21Z"/>
        </g>
        <g>
          <g>
            <path class="cls-8" d="M110.05,42.99c-10.42,3.37-30.99,14.2-29.48,18.89,1.51,4.68,24.53,1.44,34.96-1.93,10.42-3.37-.73-3.95-2.25-8.64-1.51-4.68,7.19-11.69-3.23-8.32"/>
            <path class="cls-7" d="M89.11,64.89c-4.86,0-8.52-.77-9.18-2.81-1.8-5.57,20.16-16.58,29.91-19.73h0c3.37-1.09,4.98-1.2,5.72-.38.78.86.2,2.19-.53,3.86-.72,1.65-1.62,3.7-1.11,5.27.51,1.57,2.43,2.71,3.98,3.62,1.58.93,2.82,1.67,2.69,2.82-.12,1.09-1.48,1.95-4.86,3.04-6.18,2-18.2,4.31-26.62,4.31ZM110.26,43.62h0c-11.04,3.57-30.28,14.24-29.05,18.05,1.23,3.81,23.07,1.21,34.12-2.36,3.76-1.21,3.93-1.84,3.94-1.91.03-.29-1.37-1.12-2.05-1.52-1.74-1.03-3.91-2.31-4.57-4.36-.66-2.05.35-4.36,1.16-6.21.31-.72.97-2.21.77-2.43-.05-.05-.55-.46-4.31.75Z"/>
          </g>
          <g>
            <path class="cls-8" d="M23.15,90.21c10.42-3.37,30.99-14.2,29.48-18.89-1.51-4.68-24.53-1.44-34.96,1.93-10.43,3.37.73,3.95,2.25,8.64,1.51,4.68-7.19,11.69,3.23,8.32"/>
            <path class="cls-7" d="M19.18,91.76c-.73,0-1.21-.18-1.54-.54-.78-.86-.2-2.19.54-3.86.72-1.65,1.61-3.7,1.11-5.27-.51-1.57-2.43-2.71-3.98-3.62-1.58-.93-2.82-1.67-2.69-2.82.12-1.1,1.48-1.95,4.86-3.04,5.48-1.77,13.9-3.39,20.97-4.02,9.04-.81,14.03.04,14.83,2.51,1.8,5.57-20.16,16.58-29.91,19.73h0c-1.9.61-3.24.92-4.18.92ZM44.29,69.65c-1.62,0-3.52.09-5.73.28-6.97.62-15.28,2.21-20.67,3.96-3.76,1.21-3.93,1.84-3.94,1.91-.03.29,1.37,1.12,2.05,1.52,1.74,1.03,3.91,2.31,4.57,4.36.66,2.05-.34,4.36-1.16,6.21-.31.72-.97,2.21-.77,2.43.04.05.56.46,4.31-.75,11.04-3.57,30.28-14.24,29.05-18.05-.32-1-2.57-1.88-7.71-1.88Z"/>
          </g>
        </g>
        <g>
          <path class="cls-1" d="M82.75,74.45l13.38,9.75c3.76,2.74,9.01,3.86,13.04,2.78l7.56-2.02c1.87-.5,2.4-2.13,1.19-3.64l-4.84-6.01c-2.62-3.25-7.53-5.45-12.18-5.45l-16.65-.02c-3.22,0-4.1,2.71-1.5,4.6"/>
          <path class="cls-7" d="M105.92,88.05c-3.48,0-7.26-1.19-10.18-3.31l-13.38-9.75c-1.45-1.05-2.09-2.5-1.68-3.76.41-1.26,1.78-2.05,3.56-2.05h0l16.65.02c4.85,0,9.95,2.3,12.7,5.7l4.84,6.01c.73.91.97,1.91.68,2.82-.3.91-1.08,1.58-2.22,1.88l-7.56,2.02c-1.07.29-2.23.43-3.42.43ZM84.24,70.51c-1.19,0-2.07.43-2.29,1.13-.23.7.23,1.57,1.19,2.27h0l13.38,9.75c3.61,2.63,8.61,3.7,12.47,2.68l7.56-2.02c.68-.18,1.14-.54,1.29-1,.15-.46,0-1.02-.45-1.57l-4.84-6.01c-2.5-3.11-7.19-5.2-11.66-5.2l-16.65-.02h0Z"/>
        </g>
        <g>
          <path class="cls-1" d="M50.45,58.75l-13.38-9.75c-3.76-2.74-9.01-3.86-13.04-2.78l-7.56,2.02c-1.87.5-2.4,2.13-1.19,3.64l4.84,6.01c2.62,3.25,7.53,5.45,12.18,5.45l16.65.02c3.22,0,4.1-2.71,1.5-4.6"/>
          <path class="cls-7" d="M48.96,64.02h0l-16.65-.02c-4.85,0-9.96-2.3-12.7-5.7l-4.84-6.01c-.73-.91-.98-1.91-.68-2.82.3-.91,1.08-1.58,2.22-1.88l7.56-2.02c4.22-1.13,9.69.03,13.6,2.89l13.38,9.75c1.45,1.05,2.09,2.5,1.68,3.76-.41,1.26-1.78,2.05-3.57,2.05ZM27.31,46.48c-1.08,0-2.13.13-3.1.39l-7.56,2.02c-.68.18-1.14.54-1.29,1-.15.46,0,1.02.45,1.57l4.84,6.01c2.5,3.11,7.19,5.2,11.66,5.2l16.65.02h0c1.19,0,2.07-.43,2.3-1.13.23-.7-.23-1.57-1.19-2.27h0l-13.38-9.75c-2.69-1.97-6.17-3.06-9.37-3.06Z"/>
        </g>
        <g>
          <g>
            <path class="cls-3" d="M58.12,54.4c-.67.26-3.25.68-7.92-5.55-5.05-6.72-10.46-3.7-16.7-12.06-5.13-6.9-1.28-14.6.04-16.83h0c2.52-.56,11.05-1.81,16,5.21,5.99,8.54,1.43,12.73,6.24,19.63,4.46,6.38,3.04,8.88,2.58,9.44l-.24.14Z"/>
            <path class="cls-7" d="M57.39,55.19c-1.44,0-4.01-.97-7.73-5.94-2.28-3.03-4.65-3.99-7.17-5.01-2.87-1.17-6.13-2.49-9.54-7.05-5.37-7.22-1.36-15.27,0-17.57l.15-.25.28-.06c2.6-.58,11.51-1.88,16.69,5.48,3.27,4.66,3.51,8.17,3.72,11.26.18,2.71.36,5.26,2.52,8.37,4.56,6.52,3.3,9.34,2.55,10.25l-.17.15-.34.19c-.23.09-.55.17-.97.17ZM33.96,20.56c-1.37,2.4-4.64,9.51.07,15.84,3.18,4.26,6.12,5.45,8.97,6.61,2.57,1.04,5.23,2.12,7.73,5.45,4.38,5.84,6.7,5.47,7.1,5.34l.07-.04c.32-.48,1.36-2.77-2.67-8.55-2.38-3.41-2.57-6.28-2.76-9.05-.21-3.06-.42-6.23-3.48-10.59-4.54-6.44-12.31-5.55-15.02-5Z"/>
          </g>
          <g>
            <path class="cls-3" d="M75.08,78.86c.67-.26,3.25-.69,7.92,5.54,5.06,6.72,10.46,3.7,16.71,12.06,5.13,6.89,1.28,14.6-.04,16.83h0c-2.52.56-11.05,1.82-16-5.21-6-8.54-1.44-12.73-6.24-19.63-4.46-6.38-3.04-8.88-2.59-9.44l.24-.14Z"/>
            <path class="cls-7" d="M95.42,114.41c-3.79,0-8.86-1.07-12.29-5.95-3.27-4.66-3.51-8.17-3.72-11.26-.18-2.71-.36-5.26-2.52-8.37-4.56-6.53-3.3-9.34-2.55-10.25l.17-.14.34-.2c1.02-.4,3.9-.63,8.7,5.77,2.28,3.02,4.65,3.99,7.17,5.01,2.87,1.17,6.13,2.49,9.54,7.05,5.37,7.22,1.36,15.27,0,17.57l-.1.17-.33.14c-.88.19-2.47.47-4.39.47ZM75.3,79.51c-.32.48-1.36,2.77,2.68,8.55,2.38,3.41,2.57,6.28,2.76,9.05.21,3.06.42,6.23,3.48,10.58,4.54,6.44,12.32,5.55,15.02,5,1.36-2.4,4.63-9.52-.07-15.84-3.18-4.26-6.12-5.45-8.97-6.61-2.57-1.04-5.23-2.12-7.73-5.44-4.38-5.84-6.69-5.47-7.1-5.34l-.07.04Z"/>
          </g>
        </g>
        <g>
          <path class="cls-3" d="M58.12,54.4c-.67.26-3.25.68-7.92-5.55-5.05-6.72-10.46-3.7-16.7-12.06-5.13-6.9-1.28-14.6.04-16.83h0c2.52-.56,11.05-1.81,16,5.21,5.99,8.54,1.43,12.73,6.24,19.63,4.46,6.38,3.04,8.88,2.58,9.44l-.24.14Z"/>
          <path class="cls-7" d="M57.39,55.19c-1.44,0-4.01-.97-7.73-5.94-2.28-3.03-4.65-3.99-7.17-5.01-2.87-1.17-6.13-2.49-9.54-7.05-5.37-7.22-1.36-15.27,0-17.57l.15-.25.28-.06c2.6-.58,11.51-1.88,16.69,5.48,3.27,4.66,3.51,8.17,3.72,11.26.18,2.71.36,5.26,2.52,8.37,4.56,6.52,3.3,9.34,2.55,10.25l-.17.15-.34.19c-.23.09-.55.17-.97.17ZM33.96,20.56c-1.37,2.4-4.64,9.51.07,15.84,3.18,4.26,6.12,5.45,8.97,6.61,2.57,1.04,5.23,2.12,7.73,5.45,4.38,5.84,6.7,5.47,7.1,5.34l.07-.04c.32-.48,1.36-2.77-2.67-8.55-2.38-3.41-2.57-6.28-2.76-9.05-.21-3.06-.42-6.23-3.48-10.59-4.54-6.44-12.31-5.55-15.02-5Z"/>
        </g>
        <g>
          <path class="cls-3" d="M75.08,78.86c.67-.26,3.25-.69,7.92,5.54,5.06,6.72,10.46,3.7,16.71,12.06,5.13,6.89,1.28,14.6-.04,16.83h0c-2.52.56-11.05,1.82-16-5.21-6-8.54-1.44-12.73-6.24-19.63-4.46-6.38-3.04-8.88-2.59-9.44l.24-.14Z"/>
          <path class="cls-7" d="M95.42,114.41c-3.79,0-8.86-1.07-12.29-5.95-3.27-4.66-3.51-8.17-3.72-11.26-.18-2.71-.36-5.26-2.52-8.37-4.56-6.53-3.3-9.34-2.55-10.25l.17-.14.34-.2c1.02-.4,3.9-.63,8.7,5.77,2.28,3.02,4.65,3.99,7.17,5.01,2.87,1.17,6.13,2.49,9.54,7.05,5.37,7.22,1.36,15.27,0,17.57l-.1.17-.33.14c-.88.19-2.47.47-4.39.47ZM75.3,79.51c-.32.48-1.36,2.77,2.68,8.55,2.38,3.41,2.57,6.28,2.76,9.05.21,3.06.42,6.23,3.48,10.58,4.54,6.44,12.32,5.55,15.02,5,1.36-2.4,4.63-9.52-.07-15.84-3.18-4.26-6.12-5.45-8.97-6.61-2.57-1.04-5.23-2.12-7.73-5.44-4.38-5.84-6.69-5.47-7.1-5.34l-.07.04Z"/>
        </g>
      </g>
    </g>
  </g>
</svg>