<?xml version="1.0" encoding="UTF-8"?>
<svg id="Layer_2" data-name="Layer 2" xmlns="http://www.w3.org/2000/svg" xmlns:xlink="http://www.w3.org/1999/xlink" viewBox="0 0 228.92 228.92">
  <defs>
    <style>
      .cls-1, .cls-2 {
        fill: none;
      }

      .cls-3 {
        fill: #5e7dbd;
      }

      .cls-2 {
        stroke: #d6b890;
        stroke-miterlimit: 10;
        stroke-width: 4.42px;
      }

      .cls-4 {
        fill: #f8ead6;
      }

      .cls-5 {
        clip-path: url(#clippath-6);
      }

      .cls-6 {
        fill: #fff;
      }

      .cls-7 {
        fill: #984499;
      }

      .cls-8 {
        fill: #e6a631;
      }

      .cls-9 {
        fill: #f7e9d5;
      }

      .cls-10 {
        fill: #f8b62c;
      }

      .cls-11 {
        fill: #081b1e;
      }

      .cls-12 {
        fill: #6fb360;
      }

      .cls-13 {
        clip-path: url(#clippath);
      }

      .cls-14 {
        fill: #ee4423;
      }
    </style>
    <clipPath id="clippath">
      <rect class="cls-1" x="2.21" y="2.21" width="224.49" height="224.49" rx="18.06" ry="18.06"/>
    </clipPath>
    <clipPath id="clippath-6">
      <rect class="cls-2" x="2.21" y="2.21" width="224.49" height="224.49" rx="18.06" ry="18.06"/>
    </clipPath>
  </defs>
  <g id="Layer_1-2" data-name="Layer 1">
    <g>
      <g>
        <g class="cls-13">
          <rect class="cls-4" x="2.21" y="2.21" width="224.49" height="224.49"/>
        </g>
        <g>
          <g class="cls-5">
            <g>
              <rect class="cls-2" x="2.21" y="2.21" width="224.49" height="224.49"/>
              <rect class="cls-2" x="2.21" y="2.21" width="224.49" height="224.49"/>
              <rect class="cls-2" x="2.21" y="2.21" width="224.49" height="224.49"/>
              <rect class="cls-2" x="2.21" y="2.21" width="224.49" height="224.49"/>
              <rect class="cls-2" x="2.21" y="2.21" width="224.49" height="224.49"/>
              <rect class="cls-2" x="2.21" y="2.21" width="224.49" height="224.49"/>
            </g>
          </g>
          <rect class="cls-2" x="2.21" y="2.21" width="224.49" height="224.49" rx="18.06" ry="18.06"/>
        </g>
      </g>
      <circle class="cls-9" cx="114.46" cy="114.46" r="2.94"/>
      <path class="cls-8" d="M95.09,121.79h0c-.02-.05-.03-.11-.05-.16l.05.16Z"/>
      <path class="cls-8" d="M133.84,121.79l.06-.19c-.02.06-.05.12-.07.19h0Z"/>
      <path class="cls-8" d="M127.43,98.3l-.2-.15c.07.05.13.1.2.15h0Z"/>
      <path class="cls-8" d="M125.83,97.14h0s.09.06.13.09l-.13-.09Z"/>
      <path class="cls-8" d="M94.63,121.97h0c-.02-.05-.04-.11-.05-.16l.05.16Z"/>
      <path class="cls-8" d="M134.31,121.97l.06-.19c-.02.06-.05.13-.07.19h0Z"/>
      <path class="cls-8" d="M127.74,97.91l-.21-.15c.07.05.13.1.2.16h0Z"/>
      <path class="cls-8" d="M126.1,96.72h0s.09.06.14.09l-.13-.09Z"/>
      <g>
        <g>
          <path class="cls-7" d="M99.77,93.34c-1.16.45-5.63,1.19-13.71-9.6-8.75-11.63-18.11-6.4-28.91-20.87-8.88-11.94-2.21-25.27.07-29.12h0c4.37-.97,19.12-3.14,27.69,9.02,10.38,14.78,2.48,22.04,10.8,33.98,7.72,11.05,5.27,15.38,4.47,16.34l-.41.25Z"/>
          <path class="cls-11" d="M98.52,94.71c-2.49,0-6.94-1.68-13.39-10.28-3.94-5.24-8.05-6.9-12.4-8.67-4.98-2.02-10.62-4.31-16.51-12.2-9.3-12.5-2.35-26.43,0-30.41l.26-.43.49-.11c4.51-1,19.92-3.25,28.89,9.48,5.66,8.07,6.07,14.14,6.44,19.5.32,4.69.62,9.11,4.37,14.49,7.89,11.29,5.71,16.17,4.41,17.74l-.29.25-.59.34c-.4.15-.95.3-1.67.3ZM57.96,34.77c-2.37,4.16-8.03,16.47.11,27.41,5.51,7.38,10.6,9.44,15.53,11.44,4.45,1.81,9.06,3.68,13.38,9.42,7.58,10.11,11.59,9.46,12.29,9.24l.12-.07c.55-.83,2.35-4.8-4.63-14.8-4.11-5.9-4.45-10.86-4.78-15.66-.36-5.3-.73-10.79-6.02-18.32-7.85-11.15-21.31-9.61-26-8.66Z"/>
        </g>
        <g>
          <path class="cls-7" d="M129.14,135.69c1.16-.45,5.63-1.19,13.71,9.6,8.75,11.63,18.11,6.4,28.92,20.87,8.88,11.93,2.21,25.27-.06,29.12h0c-4.37.97-19.12,3.14-27.69-9.02-10.38-14.78-2.49-22.04-10.81-33.98-7.72-11.05-5.27-15.38-4.47-16.34l.41-.25Z"/>
          <path class="cls-11" d="M164.34,197.22c-6.56,0-15.33-1.85-21.28-10.3-5.66-8.06-6.08-14.14-6.44-19.5-.32-4.69-.62-9.11-4.37-14.49-7.9-11.3-5.72-16.17-4.42-17.74l.29-.25.59-.34c1.76-.68,6.75-1.1,15.06,9.98,3.94,5.24,8.05,6.9,12.4,8.67,4.98,2.02,10.62,4.3,16.51,12.2,9.3,12.5,2.36,26.43,0,30.41l-.17.29-.58.25c-1.52.33-4.28.81-7.61.81ZM129.52,136.81c-.55.82-2.36,4.79,4.63,14.8,4.11,5.9,4.45,10.86,4.78,15.66.36,5.3.73,10.79,6.03,18.32,7.85,11.15,21.32,9.61,26.01,8.66,2.36-4.16,8.02-16.47-.12-27.41-5.51-7.38-10.6-9.44-15.53-11.44-4.45-1.81-9.06-3.67-13.38-9.42-7.58-10.11-11.58-9.46-12.29-9.24l-.12.07Z"/>
        </g>
      </g>
      <g>
        <g>
          <path class="cls-14" d="M100.13,175.78c.02-13.89,5.47-26.47,14.29-35.85,8.78,9.41,14.19,22.01,14.17,35.89-.02,13.89-5.47,26.47-14.29,35.85-8.78-9.41-14.19-22.01-14.17-35.89"/>
          <path class="cls-11" d="M114.3,213.37l-.84-.9c-9.36-10.03-14.5-23.06-14.48-36.68.02-13.63,5.21-26.65,14.6-36.64l.85-.9.84.9c9.36,10.02,14.5,23.05,14.48,36.68-.02,13.64-5.21,26.65-14.6,36.64l-.85.9ZM100.13,175.78h1.16c-.02,12.63,4.59,24.71,13.01,34.18,8.45-9.43,13.11-21.5,13.13-34.13.02-12.63-4.59-24.72-13.01-34.18-8.46,9.43-13.11,21.5-13.13,34.14h-1.16Z"/>
        </g>
        <g>
          <path class="cls-14" d="M128.79,53.13c-.02,13.89-5.47,26.47-14.29,35.85-8.78-9.41-14.19-22.01-14.17-35.89.02-13.89,5.47-26.47,14.29-35.85,8.78,9.41,14.19,22.01,14.17,35.89"/>
          <path class="cls-11" d="M114.49,90.67l-.84-.9c-9.36-10.02-14.5-23.05-14.48-36.69.02-13.63,5.21-26.65,14.6-36.64l.85-.9.84.9c9.36,10.03,14.5,23.06,14.48,36.69-.02,13.63-5.21,26.64-14.6,36.64l-.85.9ZM114.62,18.95c-8.46,9.43-13.11,21.5-13.13,34.14-.02,12.63,4.59,24.72,13.01,34.18,8.46-9.43,13.11-21.5,13.13-34.13h0c.02-12.62-4.59-24.71-13.01-34.18Z"/>
        </g>
        <g>
          <path class="cls-10" d="M146.69,44.75c-5.57,7.63-24.06,44.16-17.51,48.93,6.55,4.78,35.67-24.01,41.23-31.64,5.57-7.63,4.76-17.69-1.78-22.47-6.55-4.78-16.37-2.46-21.94,5.17"/>
          <path class="cls-11" d="M130.98,95.42c-1.38,0-2.07-.51-2.49-.81-1.25-.91-5.06-3.69,3.83-24.78,4.39-10.42,10.49-21.74,13.43-25.77h0c2.86-3.92,6.86-6.64,11.27-7.68,4.48-1.06,8.84-.25,12.29,2.26,7.05,5.14,7.97,15.95,2.04,24.08-2.94,4.04-11.85,13.31-20.43,20.67-11.61,9.97-17.16,12.03-19.93,12.03ZM160.83,38.24c-1.07,0-2.16.13-3.27.39-3.87.91-7.4,3.33-9.93,6.8h0c-2.87,3.93-8.84,15.04-13.17,25.31-6.03,14.31-6.33,20.75-4.6,22.01,1.72,1.26,7.77-.99,19.55-11.11,8.45-7.26,17.2-16.34,20.07-20.28,5.18-7.11,4.49-16.46-1.53-20.85-2.05-1.5-4.51-2.27-7.12-2.27Z"/>
        </g>
        <g>
          <path class="cls-10" d="M82.23,184.17c5.57-7.63,24.06-44.16,17.51-48.93-6.55-4.78-35.67,24.01-41.23,31.64-5.57,7.63-4.76,17.69,1.78,22.47,6.55,4.78,16.37,2.46,21.94-5.17"/>
          <path class="cls-11" d="M68.08,192.99c-3.1,0-6.02-.92-8.47-2.71-7.05-5.15-7.97-15.95-2.04-24.09,4.04-5.53,34.9-37.66,42.85-31.89,1.25.91,5.06,3.69-3.83,24.78-4.39,10.42-10.49,21.74-13.43,25.77h0c-2.86,3.91-6.86,6.64-11.27,7.68-1.29.3-2.56.45-3.81.45ZM97.74,135.81c-7.4,0-31.78,22.82-38.3,31.76-5.18,7.1-4.49,16.46,1.53,20.85,2.89,2.11,6.58,2.78,10.39,1.88,3.87-.91,7.4-3.33,9.93-6.8h0c2.87-3.93,8.84-15.04,13.17-25.31,6.03-14.31,6.33-20.75,4.6-22.01-.34-.25-.79-.37-1.32-.37Z"/>
        </g>
        <g>
          <g>
            <path class="cls-12" d="M189.66,73.59c-18.04,5.83-53.64,24.59-51.02,32.69,2.62,8.1,42.46,2.49,60.51-3.34,18.04-5.83-1.27-6.85-3.89-14.95-2.62-8.11,12.45-20.23-5.59-14.4"/>
            <path class="cls-11" d="M153.42,111.5c-8.41,0-14.74-1.33-15.89-4.86-3.12-9.65,34.89-28.69,51.77-34.15h0c5.83-1.89,8.61-2.07,9.89-.66,1.35,1.49.35,3.78-.92,6.69-1.25,2.85-2.8,6.4-1.92,9.12.88,2.72,4.21,4.69,6.89,6.27,2.73,1.61,4.89,2.89,4.66,4.88-.21,1.89-2.57,3.37-8.41,5.25-10.7,3.46-31.5,7.46-46.08,7.46ZM190.02,74.69h0c-19.12,6.18-52.41,24.64-50.28,31.24,2.13,6.6,39.93,2.09,59.05-4.09,6.51-2.1,6.81-3.19,6.82-3.31.06-.51-2.37-1.94-3.54-2.63-3.01-1.78-6.77-4-7.91-7.55-1.15-3.55.6-7.54,2-10.75.54-1.24,1.67-3.83,1.33-4.21-.08-.09-.96-.79-7.47,1.31Z"/>
          </g>
          <g>
            <path class="cls-12" d="M39.25,155.33c18.04-5.83,53.64-24.59,51.02-32.69-2.62-8.1-42.46-2.49-60.51,3.34-18.04,5.83,1.27,6.85,3.89,14.95,2.62,8.11-12.45,20.23,5.59,14.4"/>
            <path class="cls-11" d="M32.37,158.02c-1.26,0-2.1-.31-2.66-.93-1.35-1.49-.34-3.78.93-6.69,1.25-2.85,2.8-6.4,1.92-9.12-.88-2.72-4.21-4.68-6.89-6.27-2.73-1.61-4.89-2.89-4.66-4.88.21-1.9,2.57-3.37,8.41-5.26,9.48-3.07,24.07-5.86,36.29-6.95,15.65-1.4,24.29.07,25.67,4.35,3.12,9.65-34.89,28.69-51.77,34.15h0c-3.29,1.06-5.61,1.59-7.24,1.59ZM75.84,119.74c-2.8,0-6.09.15-9.93.49-12.07,1.08-26.45,3.83-35.79,6.85-6.51,2.1-6.81,3.19-6.82,3.31-.06.51,2.37,1.94,3.54,2.63,3.01,1.78,6.77,4,7.91,7.55,1.15,3.55-.6,7.54-2,10.75-.54,1.24-1.67,3.83-1.33,4.21.08.08.96.79,7.47-1.31,19.12-6.18,52.41-24.64,50.28-31.24-.56-1.73-4.45-3.25-13.34-3.25Z"/>
          </g>
        </g>
        <g>
          <path class="cls-3" d="M142.41,128.04l23.15,16.87c6.5,4.74,15.59,6.68,22.57,4.82l13.09-3.5c3.24-.87,4.16-3.68,2.06-6.29l-8.38-10.4c-4.53-5.63-13.03-9.43-21.08-9.44l-28.82-.03c-5.58,0-7.1,4.68-2.59,7.97"/>
          <path class="cls-11" d="M182.51,151.59c-6.03,0-12.57-2.05-17.62-5.73l-23.15-16.87c-2.51-1.83-3.62-4.32-2.9-6.51.71-2.19,3.08-3.55,6.17-3.55h.01l28.82.03c8.4,0,17.23,3.97,21.98,9.87l8.38,10.4c1.27,1.58,1.69,3.31,1.17,4.89-.52,1.57-1.88,2.73-3.83,3.25l-13.09,3.5c-1.86.49-3.86.74-5.92.74ZM145,121.23c-2.06,0-3.57.75-3.97,1.95-.39,1.21.4,2.71,2.07,3.92h0l23.15,16.87c6.24,4.55,14.91,6.41,21.59,4.63l13.09-3.5c1.17-.31,1.97-.93,2.23-1.73.26-.8-.01-1.77-.78-2.72l-8.38-10.4c-4.33-5.38-12.44-9-20.18-9l-28.82-.03h0Z"/>
        </g>
        <g>
          <path class="cls-3" d="M86.5,100.88l-23.15-16.87c-6.5-4.74-15.59-6.68-22.57-4.82l-13.09,3.5c-3.24.87-4.16,3.68-2.06,6.29l8.38,10.4c4.53,5.63,13.03,9.43,21.08,9.44l28.82.03c5.58,0,7.1-4.68,2.59-7.97"/>
          <path class="cls-11" d="M83.92,110h-.01l-28.82-.03c-8.4,0-17.23-3.98-21.98-9.87l-8.38-10.4c-1.27-1.58-1.69-3.31-1.17-4.88.51-1.57,1.88-2.73,3.83-3.25l13.09-3.5c7.3-1.95,16.76.06,23.55,5l23.15,16.87c2.51,1.83,3.62,4.32,2.9,6.51-.71,2.19-3.08,3.55-6.17,3.55ZM46.45,79.64c-1.87,0-3.68.22-5.37.67l-13.09,3.5c-1.18.32-1.97.93-2.23,1.74-.26.8.01,1.77.78,2.71l8.38,10.4c4.33,5.38,12.44,9,20.18,9.01l28.82.03h0c2.06,0,3.58-.75,3.97-1.95.39-1.21-.4-2.71-2.07-3.92h0l-23.16-16.87c-4.66-3.4-10.69-5.3-16.21-5.3Z"/>
        </g>
        <g>
          <path class="cls-7" d="M99.77,93.34c-1.16.45-5.63,1.19-13.71-9.6-8.75-11.63-18.11-6.4-28.91-20.87-8.88-11.94-2.21-25.27.07-29.12h0c4.37-.97,19.12-3.14,27.69,9.02,10.38,14.78,2.48,22.04,10.8,33.98,7.72,11.05,5.27,15.38,4.47,16.34l-.41.25Z"/>
          <path class="cls-11" d="M98.52,94.71c-2.49,0-6.94-1.68-13.39-10.28-3.94-5.24-8.05-6.9-12.4-8.67-4.98-2.02-10.62-4.31-16.51-12.2-9.3-12.5-2.35-26.43,0-30.41l.26-.43.49-.11c4.51-1,19.92-3.25,28.89,9.48,5.66,8.07,6.07,14.14,6.44,19.5.32,4.69.62,9.11,4.37,14.49,7.89,11.29,5.71,16.17,4.41,17.74l-.29.25-.59.34c-.4.15-.95.3-1.67.3ZM57.96,34.77c-2.37,4.16-8.03,16.47.11,27.41,5.51,7.38,10.6,9.44,15.53,11.44,4.45,1.81,9.06,3.68,13.38,9.42,7.58,10.11,11.59,9.46,12.29,9.24l.12-.07c.55-.83,2.35-4.8-4.63-14.8-4.11-5.9-4.45-10.86-4.78-15.66-.36-5.3-.73-10.79-6.02-18.32-7.85-11.15-21.31-9.61-26-8.66Z"/>
        </g>
        <g>
          <path class="cls-7" d="M129.14,135.69c1.16-.45,5.63-1.19,13.71,9.6,8.75,11.63,18.11,6.4,28.92,20.87,8.88,11.93,2.21,25.27-.06,29.12h0c-4.37.97-19.12,3.14-27.69-9.02-10.38-14.78-2.49-22.04-10.81-33.98-7.72-11.05-5.27-15.38-4.47-16.34l.41-.25Z"/>
          <path class="cls-11" d="M164.34,197.22c-6.56,0-15.33-1.85-21.28-10.3-5.66-8.06-6.08-14.14-6.44-19.5-.32-4.69-.62-9.11-4.37-14.49-7.9-11.3-5.72-16.17-4.42-17.74l.29-.25.59-.34c1.76-.68,6.75-1.1,15.06,9.98,3.94,5.24,8.05,6.9,12.4,8.67,4.98,2.02,10.62,4.3,16.51,12.2,9.3,12.5,2.36,26.43,0,30.41l-.17.29-.58.25c-1.52.33-4.28.81-7.61.81ZM129.52,136.81c-.55.82-2.36,4.79,4.63,14.8,4.11,5.9,4.45,10.86,4.78,15.66.36,5.3.73,10.79,6.03,18.32,7.85,11.15,21.32,9.61,26.01,8.66,2.36-4.16,8.02-16.47-.12-27.41-5.51-7.38-10.6-9.44-15.53-11.44-4.45-1.81-9.06-3.67-13.38-9.42-7.58-10.11-11.58-9.46-12.29-9.24l-.12.07Z"/>
        </g>
      </g>
      <g>
        <g>
          <path class="cls-6" d="M114.46,159.13c-24.63,0-44.67-20.04-44.67-44.67s20.04-44.67,44.67-44.67,44.67,20.04,44.67,44.67-20.04,44.67-44.67,44.67Z"/>
          <path class="cls-11" d="M114.46,71.26c23.86,0,43.2,19.34,43.2,43.2s-19.34,43.2-43.2,43.2-43.2-19.34-43.2-43.2,19.34-43.2,43.2-43.2M114.46,68.31c-25.44,0-46.15,20.7-46.15,46.15s20.7,46.15,46.15,46.15,46.15-20.7,46.15-46.15-20.7-46.15-46.15-46.15h0Z"/>
        </g>
        <g>
          <path class="cls-6" d="M114.46,149.64c-19.4,0-35.18-15.78-35.18-35.18s15.78-35.18,35.18-35.18,35.18,15.78,35.18,35.18-15.78,35.18-35.18,35.18Z"/>
          <path class="cls-11" d="M114.46,80.75c18.62,0,33.71,15.09,33.71,33.71s-15.09,33.71-33.71,33.71-33.71-15.09-33.71-33.71,15.09-33.71,33.71-33.71M114.46,77.8c-20.21,0-36.65,16.44-36.65,36.65s16.44,36.65,36.65,36.65,36.65-16.44,36.65-36.65-16.44-36.65-36.65-36.65h0Z"/>
        </g>
      </g>
      <circle class="cls-11" cx="114.46" cy="114.46" r="27.5"/>
      <g>
        <path class="cls-9" d="M113.93,115.36c-.5,0-.99-.23-1.3-.66l-11.23-15.51c-.52-.72-.36-1.73.36-2.25.71-.52,1.73-.36,2.25.36l11.23,15.51c.52.72.36,1.73-.36,2.25-.28.21-.61.31-.94.31Z"/>
        <path class="cls-9" d="M127.79,120.32c-.16,0-.33-.03-.5-.08l-13.33-4.33c-.85-.28-1.31-1.18-1.03-2.03.27-.85,1.19-1.31,2.03-1.03l13.33,4.33c.85.28,1.31,1.18,1.03,2.03-.22.68-.85,1.11-1.53,1.11Z"/>
      </g>
    </g>
  </g>
</svg>