<?xml version="1.0" encoding="UTF-8"?>
<svg id="Layer_2" data-name="Layer 2" xmlns="http://www.w3.org/2000/svg" viewBox="0 0 133.2 133.2">
  <defs>
    <style>
      .cls-1 {
        fill: #071b1e;
      }

      .cls-2 {
        fill: #f7e9d5;
      }

      .cls-3 {
        fill: #984499;
        stroke: #081b1e;
        stroke-miterlimit: 10;
      }
    </style>
  </defs>
  <g id="Art">
    <g>
      <line class="cls-3" x1="44.03" y1="94.94" x2="44.02" y2="94.94"/>
      <rect class="cls-1" width="133.2" height="133.2"/>
      <g>
        <path class="cls-2" d="M58.18,30.22c0,8.22,3.21,15.66,8.42,21.22,5.21-5.56,8.42-13.01,8.42-21.22s-3.21-15.66-8.42-21.22c-5.21,5.56-8.42,13.01-8.42,21.22"/>
        <path class="cls-2" d="M86.37,34.92c-5.81,5.81-8.81,13.35-9.06,20.96,7.61-.25,15.15-3.25,20.96-9.06,5.81-5.81,8.81-13.35,9.06-20.96-7.61.25-15.15,3.25-20.96,9.06"/>
        <path class="cls-2" d="M102.98,58.18c-8.22,0-15.66,3.21-21.22,8.42,5.56,5.21,13.01,8.42,21.22,8.42s15.66-3.21,21.22-8.42c-5.56-5.21-13.01-8.42-21.22-8.42"/>
        <path class="cls-2" d="M98.27,86.37c-5.81-5.81-13.35-8.81-20.96-9.06.25,7.61,3.25,15.15,9.06,20.96,5.81,5.81,13.35,8.81,20.96,9.06-.25-7.61-3.25-15.15-9.06-20.96"/>
        <path class="cls-2" d="M75.02,102.97c0-8.22-3.21-15.66-8.42-21.22-5.21,5.56-8.42,13.01-8.42,21.22s3.21,15.66,8.42,21.22c5.21-5.56,8.42-13.01,8.42-21.22"/>
        <path class="cls-2" d="M46.83,98.27c5.81-5.81,8.81-13.35,9.06-20.96-7.61.25-15.15,3.25-20.96,9.06-5.81,5.81-8.81,13.35-9.06,20.96,7.61-.25,15.15-3.25,20.96-9.06"/>
        <path class="cls-2" d="M30.23,75.01c8.22,0,15.66-3.21,21.22-8.42-5.56-5.21-13.01-8.42-21.22-8.42s-15.66,3.21-21.22,8.42c5.56,5.21,13.01,8.42,21.22,8.42"/>
        <path class="cls-2" d="M34.93,46.83c5.81,5.81,13.35,8.81,20.96,9.06-.25-7.61-3.25-15.15-9.06-20.96-5.81-5.81-13.35-8.81-20.96-9.06.25,7.61,3.25,15.15,9.06,20.96"/>
        <path class="cls-2" d="M77.53,66.6c0,6.04-4.9,10.93-10.93,10.93s-10.93-4.9-10.93-10.93,4.9-10.93,10.93-10.93,10.93,4.9,10.93,10.93"/>
      </g>
    </g>
  </g>
</svg>