<?xml version="1.0" encoding="UTF-8"?>
<svg id="Layer_2" data-name="Layer 2" xmlns="http://www.w3.org/2000/svg" xmlns:xlink="http://www.w3.org/1999/xlink" viewBox="0 0 228.92 228.92">
  <defs>
    <style>
      .cls-1, .cls-2, .cls-3, .cls-4 {
        fill: none;
      }

      .cls-5 {
        fill: #897967;
      }

      .cls-2 {
        stroke: #d6b890;
      }

      .cls-2, .cls-6, .cls-3, .cls-4, .cls-7 {
        stroke-miterlimit: 10;
      }

      .cls-2, .cls-3 {
        stroke-width: 4.42px;
      }

      .cls-6, .cls-8, .cls-7 {
        fill: #f8ead6;
      }

      .cls-6, .cls-4 {
        stroke-width: 2.01px;
      }

      .cls-6, .cls-4, .cls-7 {
        stroke: #897967;
      }

      .cls-9 {
        fill: #6db360;
      }

      .cls-3 {
        stroke: #457c3c;
      }

      .cls-10 {
        clip-path: url(#clippath-6);
      }

      .cls-7 {
        stroke-width: 2.54px;
      }

      .cls-11 {
        fill: #e6a631;
      }

      .cls-12 {
        clip-path: url(#clippath);
      }
    </style>
    <clipPath id="clippath">
      <rect class="cls-1" x="2.21" y="2.21" width="224.49" height="224.49" rx="18.06" ry="18.06"/>
    </clipPath>
    <clipPath id="clippath-6">
      <rect class="cls-3" x="2.21" y="2.21" width="224.49" height="224.49" rx="18.06" ry="18.06"/>
    </clipPath>
  </defs>
  <g id="Layer_1-2" data-name="Layer 1">
    <g>
      <g>
        <g class="cls-12">
          <rect class="cls-9" x="2.21" y="2.21" width="224.49" height="224.49"/>
        </g>
        <g>
          <g class="cls-10">
            <g>
              <rect class="cls-2" x="2.21" y="2.21" width="224.49" height="224.49"/>
              <rect class="cls-2" x="2.21" y="2.21" width="224.49" height="224.49"/>
              <rect class="cls-2" x="2.21" y="2.21" width="224.49" height="224.49"/>
              <rect class="cls-2" x="2.21" y="2.21" width="224.49" height="224.49"/>
              <rect class="cls-2" x="2.21" y="2.21" width="224.49" height="224.49"/>
              <rect class="cls-2" x="2.21" y="2.21" width="224.49" height="224.49"/>
            </g>
          </g>
          <rect class="cls-3" x="2.21" y="2.21" width="224.49" height="224.49" rx="18.06" ry="18.06"/>
        </g>
      </g>
      <rect class="cls-4" x="73.8" y="73.8" width="81.31" height="81.31" rx="5.48" ry="5.48"/>
      <rect class="cls-6" x="37.59" y="37.59" width="153.74" height="153.74" rx="8.56" ry="8.56" transform="translate(114.46 -47.41) rotate(45)"/>
      <g>
        <circle class="cls-5" cx="114.46" cy="24.91" r="5.99"/>
        <circle class="cls-5" cx="114.46" cy="204" r="5.99"/>
      </g>
      <g>
        <circle class="cls-5" cx="204" cy="114.46" r="5.99"/>
        <circle class="cls-5" cx="24.91" cy="114.46" r="5.99"/>
      </g>
      <g>
        <rect class="cls-7" x="36.26" y="36.26" width="156.4" height="156.4" rx="10.44" ry="10.44"/>
        <circle class="cls-7" cx="114.46" cy="114.46" r="53.02"/>
        <g>
          <line class="cls-7" x1="114.46" y1="36.26" x2="114.46" y2="61.44"/>
          <line class="cls-7" x1="114.46" y1="167.48" x2="114.46" y2="192.66"/>
        </g>
        <g>
          <line class="cls-7" x1="192.66" y1="114.46" x2="167.48" y2="114.46"/>
          <line class="cls-7" x1="61.44" y1="114.46" x2="36.26" y2="114.46"/>
        </g>
        <g>
          <g>
            <g>
              <g>
                <path class="cls-5" d="M109.42,92.74c0,4.92,1.92,9.37,5.04,12.7,3.11-3.32,5.04-7.78,5.04-12.7s-1.92-9.37-5.04-12.7c-3.11,3.32-5.04,7.78-5.04,12.7"/>
                <path class="cls-8" d="M114.46,106.01l-.29-.31c-3.32-3.54-5.14-8.14-5.14-12.96s1.83-9.43,5.14-12.97l.29-.31.29.31c3.32,3.54,5.14,8.14,5.14,12.97s-1.83,9.43-5.14,12.96l-.29.31ZM114.46,80.63c-3,3.35-4.64,7.63-4.64,12.11s1.65,8.77,4.64,12.11c3-3.35,4.64-7.63,4.64-12.11s-1.65-8.77-4.64-12.11Z"/>
              </g>
              <g>
                <path class="cls-5" d="M123.15,93.93c-2.89,3.98-3.95,8.71-3.39,13.23,4.47-.86,8.65-3.33,11.54-7.31,2.89-3.98,3.95-8.71,3.39-13.23-4.47.86-8.65,3.33-11.54,7.31"/>
                <path class="cls-8" d="M119.42,107.63l-.05-.42c-.6-4.81.63-9.61,3.46-13.51h0c2.83-3.9,7.02-6.55,11.78-7.47l.41-.08.05.42c.6,4.81-.63,9.61-3.46,13.51-2.83,3.9-7.02,6.55-11.78,7.47l-.41.08ZM123.47,94.16c-2.63,3.62-3.82,8.06-3.36,12.53,4.39-.95,8.24-3.45,10.88-7.07,2.63-3.62,3.82-8.06,3.37-12.53-4.39.95-8.24,3.45-10.88,7.07h0Z"/>
              </g>
              <g>
                <path class="cls-5" d="M133.55,102.96c-4.67,1.52-8.32,4.72-10.52,8.71,4.12,1.93,8.96,2.38,13.63.87,4.67-1.52,8.32-4.72,10.52-8.71-4.12-1.93-8.96-2.39-13.63-.87"/>
                <path class="cls-8" d="M130.95,113.84c-2.76,0-5.51-.61-8.08-1.81l-.38-.18.2-.37c2.34-4.25,6.15-7.41,10.74-8.9h0c4.58-1.49,9.53-1.18,13.92.88l.38.18-.2.37c-2.34,4.25-6.16,7.41-10.74,8.9-1.91.62-3.88.93-5.84.93ZM123.59,111.49c4.11,1.82,8.69,2.06,12.96.67,4.26-1.38,7.83-4.27,10.09-8.16-4.11-1.82-8.7-2.06-12.96-.67-4.26,1.39-7.83,4.27-10.09,8.16Z"/>
              </g>
              <g>
                <path class="cls-5" d="M136.66,116.38c-4.67-1.52-9.51-1.07-13.63.87,2.2,3.99,5.84,7.19,10.52,8.71,4.67,1.52,9.51,1.07,13.63-.87-2.2-3.99-5.84-7.19-10.52-8.71"/>
                <path class="cls-8" d="M139.27,127.26c-1.96,0-3.93-.31-5.84-.93-4.58-1.49-8.4-4.65-10.74-8.9l-.2-.37.38-.18c4.39-2.06,9.33-2.37,13.92-.88h0c4.58,1.49,8.4,4.65,10.74,8.9l.2.37-.38.18c-2.56,1.2-5.32,1.81-8.08,1.81ZM123.59,117.42c2.26,3.89,5.83,6.77,10.09,8.16,4.26,1.39,8.85,1.14,12.96-.67-2.26-3.89-5.83-6.77-10.09-8.16h0c-4.26-1.38-8.84-1.14-12.96.67Z"/>
              </g>
              <g>
                <path class="cls-5" d="M131.29,129.07c-2.89-3.98-7.06-6.45-11.54-7.31-.57,4.52.5,9.25,3.39,13.23,2.89,3.98,7.06,6.45,11.54,7.31.56-4.52-.5-9.25-3.39-13.23"/>
                <path class="cls-8" d="M135.02,142.76l-.41-.08c-4.76-.91-8.95-3.57-11.78-7.47-2.83-3.9-4.06-8.7-3.46-13.51l.05-.42.41.08c4.76.91,8.95,3.57,11.78,7.47h0c2.83,3.9,4.06,8.7,3.46,13.51l-.05.42ZM120.1,122.22c-.46,4.47.73,8.9,3.36,12.53,2.63,3.62,6.48,6.12,10.88,7.07.46-4.47-.73-8.91-3.36-12.53h0c-2.63-3.63-6.48-6.13-10.88-7.07Z"/>
              </g>
              <g>
                <path class="cls-5" d="M119.49,136.17c0-4.92-1.92-9.37-5.04-12.7-3.11,3.32-5.04,7.78-5.04,12.7s1.92,9.37,5.04,12.7c3.11-3.32,5.04-7.78,5.04-12.7"/>
                <path class="cls-8" d="M114.46,149.44l-.29-.31c-3.32-3.54-5.14-8.14-5.14-12.97s1.83-9.43,5.14-12.96l.29-.31.29.31c3.32,3.54,5.14,8.14,5.14,12.96s-1.83,9.43-5.14,12.97l-.29.31ZM114.46,124.06c-3,3.35-4.64,7.63-4.64,12.11s1.65,8.77,4.64,12.11c3-3.35,4.64-7.63,4.64-12.11s-1.65-8.76-4.64-12.11Z"/>
              </g>
              <g>
                <path class="cls-5" d="M105.77,134.98c2.89-3.98,3.95-8.71,3.39-13.23-4.47.86-8.65,3.33-11.54,7.31-2.89,3.98-3.95,8.71-3.39,13.23,4.47-.86,8.65-3.33,11.54-7.31"/>
                <path class="cls-8" d="M93.89,142.76l-.05-.42c-.6-4.81.63-9.61,3.46-13.51,2.83-3.9,7.02-6.55,11.78-7.47l.41-.08.05.42c.6,4.81-.63,9.61-3.46,13.51h0c-2.84,3.9-7.02,6.55-11.78,7.47l-.41.08ZM108.81,122.22c-4.39.95-8.24,3.45-10.88,7.07-2.63,3.62-3.82,8.06-3.37,12.53,4.39-.95,8.24-3.45,10.88-7.07h0c2.63-3.63,3.82-8.06,3.36-12.53Z"/>
              </g>
              <g>
                <path class="cls-5" d="M95.36,125.96c4.67-1.52,8.32-4.72,10.52-8.71-4.12-1.93-8.96-2.38-13.63-.87-4.67,1.52-8.32,4.72-10.52,8.71,4.12,1.93,8.96,2.39,13.63.87"/>
                <path class="cls-8" d="M89.65,127.26c-2.76,0-5.52-.61-8.08-1.81l-.38-.18.2-.37c2.34-4.25,6.16-7.41,10.74-8.9,4.58-1.49,9.53-1.18,13.92.88l.38.18-.2.37c-2.34,4.25-6.15,7.41-10.74,8.9h0c-1.91.62-3.87.93-5.84.93ZM82.28,124.91c4.11,1.81,8.7,2.06,12.96.67,4.26-1.39,7.83-4.27,10.09-8.16-4.11-1.82-8.69-2.06-12.96-.67-4.26,1.38-7.83,4.27-10.09,8.16Z"/>
              </g>
              <g>
                <path class="cls-5" d="M92.25,112.54c4.67,1.52,9.51,1.07,13.63-.87-2.2-3.99-5.84-7.19-10.52-8.71-4.67-1.52-9.51-1.07-13.63.87,2.2,3.99,5.84,7.19,10.52,8.71"/>
                <path class="cls-8" d="M97.97,113.84c-1.96,0-3.93-.31-5.84-.93h0c-4.59-1.49-8.4-4.65-10.74-8.9l-.2-.37.38-.18c4.39-2.06,9.33-2.37,13.92-.88,4.59,1.49,8.4,4.65,10.74,8.9l.2.37-.38.18c-2.56,1.2-5.32,1.81-8.08,1.81ZM82.28,104c2.26,3.89,5.83,6.77,10.09,8.16h0c4.26,1.39,8.84,1.14,12.96-.67-2.26-3.89-5.83-6.77-10.09-8.16-4.26-1.38-8.85-1.14-12.96.67Z"/>
              </g>
              <g>
                <path class="cls-5" d="M97.62,99.85c2.89,3.98,7.06,6.45,11.54,7.31.57-4.52-.5-9.25-3.39-13.23-2.89-3.98-7.06-6.45-11.54-7.31-.56,4.52.5,9.25,3.39,13.23"/>
                <path class="cls-8" d="M109.49,107.63l-.41-.08c-4.76-.91-8.95-3.56-11.78-7.47-2.83-3.9-4.06-8.7-3.46-13.51l.05-.42.41.08c4.76.91,8.95,3.57,11.78,7.47,2.83,3.9,4.06,8.7,3.46,13.51l-.05.42ZM94.57,87.09c-.46,4.47.73,8.91,3.36,12.53h0c2.63,3.63,6.48,6.12,10.88,7.07.46-4.47-.73-8.9-3.36-12.53-2.63-3.62-6.48-6.12-10.88-7.07Z"/>
              </g>
            </g>
            <path class="cls-11" d="M107.44,117.12h0s-.01-.04-.02-.06l.02.06Z"/>
          </g>
          <path class="cls-8" d="M114.46,107.73h0c.7,0,1.4.11,2.08.33,1.71.56,3.1,1.74,3.91,3.34.82,1.6.96,3.42.4,5.13-.9,2.78-3.47,4.65-6.39,4.65-.7,0-1.4-.11-2.08-.33-1.71-.56-3.1-1.74-3.91-3.34-.82-1.6-.96-3.42-.4-5.13.9-2.78,3.47-4.65,6.4-4.65M114.46,106.94c-3.17,0-6.11,2.02-7.14,5.19-1.28,3.95.88,8.18,4.82,9.47.77.25,1.55.37,2.32.37,3.17,0,6.11-2.02,7.14-5.19,1.28-3.95-.88-8.18-4.82-9.47-.77-.25-1.55-.37-2.32-.37h0Z"/>
          <circle class="cls-5" cx="114.46" cy="114.46" r="7.51"/>
        </g>
      </g>
    </g>
  </g>
</svg>