<?xml version="1.0" encoding="UTF-8"?>
<svg id="Layer_2" data-name="Layer 2" xmlns="http://www.w3.org/2000/svg" xmlns:xlink="http://www.w3.org/1999/xlink" viewBox="0 0 126 126">
  <defs>
    <style>
      .cls-1 {
        fill: none;
      }

      .cls-2 {
        clip-path: url(#clippath);
      }

      .cls-3 {
        fill: #f8ead6;
      }

      .cls-4 {
        fill: #091b1e;
      }

      .cls-5 {
        fill: #081b1e;
      }

      .cls-6 {
        fill: #6eb460;
      }

      .cls-7 {
        clip-path: url(#clippath-1);
      }

      .cls-8 {
        clip-path: url(#clippath-3);
      }

      .cls-9 {
        clip-path: url(#clippath-2);
      }
    </style>
    <clipPath id="clippath">
      <rect class="cls-1" x="103.57" y="100.32" width="12.43" height="15.68"/>
    </clipPath>
    <clipPath id="clippath-1">
      <rect class="cls-1" x="10" y="10" width="12.43" height="15.68"/>
    </clipPath>
    <clipPath id="clippath-2">
      <rect class="cls-1" x="10" y="103.57" width="15.68" height="12.43"/>
    </clipPath>
    <clipPath id="clippath-3">
      <rect class="cls-1" x="100.32" y="10" width="15.68" height="12.43"/>
    </clipPath>
  </defs>
  <g id="Layer_1-2" data-name="Layer 1">
    <g>
      <rect class="cls-6" x="0" width="126" height="126"/>
      <g>
        <path class="cls-3" d="m54.45,105.38c-3.67,0-7.01-5.49-8.44-7.83-2.15-3.53-3.39-10.2-.68-12.18l.04-.03.05-.02c.65-.29,1.33-.44,2.03-.44,3.94,0,7.35,4.53,8.31,5.92,1.89,2.76,3.84,7.16,3.13,10.5-.32,1.52-1.16,2.7-2.47,3.51-.62.38-1.28.57-1.97.57h0Zm18.71-.02c-.69,0-1.41-.1-2.14-.3-2.39-.65-4.36-2.22-5.7-4.56-1.95-3.4-2.46-8.33-1.31-12.55,1.26-4.24,6.45-10.14,12.06-10.14.61,0,1.23.07,1.82.21,5.55,1.66,7.29,6.4,5.36,14.51-2,8.39-5.49,12.82-10.09,12.82,0,0,0,0,0,0Zm-37.58-6.22c-2.19,0-3.87-3.59-5.1-6.21-.15-.32-.29-.63-.43-.91-1.37-2.83-2.87-8.35-2.09-10.53.17-.47.44-.79.8-.96l.05-.02h.06c.28-.07.56-.1.85-.1,2.78,0,5.35,2.76,7.23,4.77l.41.44c1.61,2.42,2.69,6.95,1.7,10.16-.48,1.56-1.4,2.66-2.68,3.19-.26.11-.53.16-.8.16Zm53.83-4.44c-.33,0-.63-.05-.88-.14-.29-.11-.67-.36-.88-.97-.67-1.91.81-6.2,2.16-8.44.15-.26.32-.55.49-.86,1.14-2.03,2.71-4.8,5.12-4.8.19,0,.39.02.59.06,1.5.49,2.48,1.54,2.92,3.04.75,2.61-.33,6.02-1.81,7.81-1.9,2.29-5.49,4.3-7.7,4.3h0Zm-31.34-8.01c-.27,0-.54-.04-.81-.13-.41-.14-.7-.43-.86-.85-.42-1.16.38-3.14.98-4.12.69-1.1,1.84-2.95,3.43-2.95.24,0,.47.04.71.13l.07.02.06.04c1.87,1.35.69,4.13-.3,5.56-1.07,1.55-2.14,2.3-3.27,2.3h0Zm-8.71-5.36c-1.34,0-2.27-.43-2.74-1.29-.18-.33-.2-.69-.04-1.04.49-1.09,2.61-1.75,3.38-1.91l.27-.06c.62-.13,1.26-.26,1.88-.26.96,0,1.72.33,2.33,1l.1.11.02.14c.09.51-.03,1.02-.34,1.46-.69.97-2.26,1.54-3.5,1.74-.5.08-.96.12-1.37.12h0Zm-9.11-1.76c-.3,0-.59-.07-.88-.22-1.87-.93-.36-5.72.15-6.95l.16-.38c.6-1.49,1.61-3.99,3.27-3.99.27,0,.54.07.8.2l.08.04.06.07c1.73,1.88.61,5.81-.33,7.84-1.07,2.32-2.12,3.4-3.31,3.4Zm-10.39-3.56c-.59,0-1.21-.09-1.85-.27-5.71-1.61-3.47-11.72-2.97-13.73l.25-1.01c.99-4.08,2.23-9.15,6.08-9.15.12,0,.25,0,.38.02,4.18.77,6.03,5,5.69,12.93-1.06,7.36-3.68,11.22-7.59,11.22h0Zm62.22-.02c-.61,0-1.25-.09-1.89-.27-5.02-1.42-3.79-6.41-2.24-12.71l.25-1.02c.21-.86.41-1.73.61-2.6,1.27-5.58,2.47-10.85,6.06-11.08,1.92.1,3.46.94,4.65,2.5,2.56,3.37,2.75,9.12,1.81,13.32-1.32,5.41-3.99,11.86-9.24,11.86h0Zm-29.06-.87c-7.11-.07-14.76-2.76-14.76-8.51.24-6.75,9.76-8.2,13.83-8.51,6.96.06,21.04,4.46,21.04,9.4,0,2.56-2.53,4.64-7.31,6.01-4.14,1.19-9.14,1.61-12.43,1.61,0,0-.37,0-.37,0Zm-16.22-15.14c-2.22,0-5.63-3.4-6.89-6.86-.89-2.46-.81-6.65.89-9.4.91-1.47,2.18-2.35,3.67-2.53.1-.01.19-.02.29-.02,2.57,0,3.35,4.03,3.92,6.98.07.34.13.66.19.95.59,2.86.63,8.22-.66,10.1-.3.44-.67.69-1.09.76-.1.02-.21.02-.32.02h0Zm32.63-1.77c-1.3,0-2.42-.25-2.97-.4-2.95-.81-4.33-2.16-4.1-4.02.22-1.23,1.64-1.87,4.11-1.87.8,0,1.66.07,2.38.19,1.95.43,4.37,1.21,5.02,2.53.22.46.22.95,0,1.43-.66,1.4-2.2,2.15-4.44,2.15Zm-15.77-3.58c-2.34,0-5.22-1.57-6.61-2.32-2.73-1.48-6.04-5.36-5.01-7.68.54-1.11,1.68-1.67,3.39-1.67,2.12,0,4.51.84,5.43,1.21,2.3,1.09,5.23,3.22,6.02,5.65.36,1.12.26,2.21-.3,3.24-.56,1.03-1.58,1.58-2.93,1.58h0Zm-32.63-7.11c-.38,0-.76-.08-1.14-.22-.48-.19-.84-.58-1.04-1.11-.61-1.67.38-4.54,1.15-5.96.89-1.63,2.34-4.29,4.37-4.29.34,0,.69.08,1.02.23l.06.03.05.04c2.42,1.97.96,5.95-.28,7.99-1.35,2.22-2.72,3.29-4.18,3.29h0Zm50.39-.9c-3.17,0-6.72-.48-9.72-1.31-6.69-1.86-12.53-8.93-10.57-16.49,1.39-4.83,6.32-8.19,12-8.19,1.6,0,3.22.26,4.82.78,7.23,2.01,17.55,11.78,15.65,19.13-1.02,3.93-5.34,6.09-12.18,6.09Zm-28.65-7.11c-1.47-.03-2.68-.57-3.6-1.6-1.6-1.8-1.95-4.73-1.74-6.88.32-2.73,1.97-6.77,5.22-6.77,2.84.24,4.72,4.59,4.64,7.41-.06,1.94-.24,7.83-4.43,7.83h-.09Zm-11.1-2.68c-1.66,0-2.89-1.39-3.67-4.14-.61-2.17-.95-6.16,1.66-7.38l.07-.03h.08c.12-.03.23-.03.35-.03,2.06,0,2.73,2.4,3.26,4.33.07.24.13.47.2.7.35,1.54.55,4.44-.41,5.79-.3.43-.71.69-1.19.74-.12.01-.24.02-.36.02h0Z"/>
        <path class="cls-4" d="m73.1,21.12c1.5,0,3.07.24,4.67.75,6.81,1.89,17.15,11.47,15.32,18.53-1.12,4.32-6.29,5.72-11.69,5.72-3.43,0-6.95-.56-9.59-1.3-6.82-1.89-12.05-8.83-10.22-15.88h0c1.28-4.46,5.88-7.82,11.51-7.82m-20.47,3.65s0,0,.01,0c2.45.21,4.2,4.33,4.12,6.9-.06,2.06-.26,7.34-3.93,7.34-.03,0-.05,0-.08,0-4.38-.09-5.12-5.08-4.85-7.93h0c.27-2.27,1.72-6.31,4.72-6.31m-12.49.98c1.9,0,2.39,2.66,2.98,4.66.43,1.88.54,5.7-1.17,5.9-.1.01-.2.02-.3.02-1.71,0-2.64-1.83-3.18-3.77-.58-2.05-.88-5.73,1.39-6.79h0c.1-.01.19-.02.28-.02m-5.8,10.68c.26,0,.53.06.81.19,2.12,1.73.79,5.41-.39,7.34-.98,1.61-2.23,3.05-3.75,3.05-.31,0-.63-.06-.96-.19-1.75-.69-.61-4.57.36-6.37h0c.78-1.43,2.18-4.03,3.93-4.03m10.4,5.24c2.43,0,3.07,4.91,3.62,7.53.72,3.45.55,9.96-1.34,10.27-.08.01-.16.02-.24.02-1.86,0-5.17-3.1-6.42-6.53-1.3-3.58-.32-10.73,4.15-11.27h0c.08,0,.15-.01.23-.01m10.68,1.79c1.82,0,3.99.68,5.25,1.17,2.87,1.37,7.35,4.72,5.46,8.18-.53.96-1.43,1.32-2.49,1.32-2.19,0-5.01-1.52-6.37-2.26-2.51-1.36-5.69-5.01-4.79-7.04h0c.5-1.02,1.63-1.37,2.94-1.37m39.46,5.35h0c5.91.31,7.35,8.89,5.93,15.22-1.46,6-4.21,11.47-8.75,11.47-.56,0-1.14-.08-1.75-.26-4.8-1.36-3.29-6.4-1.64-13.13,1.49-6.1,2.47-13.06,6.21-13.3m-63.52,3.55c.11,0,.22,0,.34.02h0c4.86.9,5.46,7.11,5.24,12.41-.78,5.44-2.76,10.74-7.09,10.74-.53,0-1.1-.08-1.71-.25-4.74-1.34-3.5-9.64-2.62-13.13.99-3.94,2.08-9.78,5.85-9.78m45.1.05c.87,0,1.71.09,2.29.19,1.52.34,5.52,1.41,4.65,3.25-.67,1.42-2.33,1.86-3.99,1.86-1.03,0-2.05-.17-2.84-.39-2.06-.56-3.98-1.56-3.73-3.48h0c.2-1.12,1.95-1.44,3.61-1.44m-14.34,6.19c7.07.07,20.5,4.45,20.5,8.9,0,5.25-12.11,7.12-19.24,7.12-.12,0-.25,0-.37,0-7.07-.07-14.26-2.67-14.26-8.01h0c.19-5.19,6.67-7.5,13.37-8.01m-19.18,9.93c.18,0,.38.05.57.14,1.52,1.65.48,5.34-.42,7.29-.76,1.64-1.72,3.11-2.85,3.11-.21,0-.43-.05-.66-.16-1.27-.63-.36-4.5.39-6.31h0c.52-1.24,1.51-4.07,2.96-4.07m9.18,8.74c.72,0,1.38.2,1.96.84.27,1.55-1.99,2.38-3.43,2.62-.43.07-.87.12-1.29.12-.99,0-1.87-.25-2.31-1.03-.55-1,1.73-1.95,3.01-2.23h0c.71-.14,1.4-.31,2.06-.31m23.96,1.06c.57,0,1.14.06,1.71.2,5.81,1.74,6.65,6.95,4.99,13.91-1.48,6.21-4.33,12.44-9.6,12.44-.63,0-1.31-.09-2.01-.28-6.58-1.78-8.32-10.41-6.66-16.5h0c1.18-3.97,6.15-9.77,11.58-9.77m-15.27.82c.17,0,.35.03.54.1,1.52,1.1.48,3.57-.42,4.87-.76,1.1-1.72,2.08-2.86,2.08-.21,0-.43-.03-.65-.11-1.27-.42-.36-3.02.39-4.23h0c.66-1.06,1.71-2.71,3-2.71m34.61.86c.16,0,.33.02.49.05,4.05,1.34,3.02,7.37.81,10.04-1.94,2.34-5.4,4.12-7.31,4.12-.27,0-.51-.04-.71-.11-1.7-.63-.09-6,1.53-8.68h0c1.11-1.85,2.72-5.42,5.19-5.42m-65.7.92c2.77,0,5.43,3.09,7.28,5.06,2.21,3.34,3.25,10.87-.81,12.55-.21.09-.41.12-.61.12-2.12,0-3.92-4.44-5.07-6.83-1.62-3.35-3.23-10.03-1.53-10.82h0c.25-.05.5-.08.75-.08m17.74,4.47c3.08,0,6.1,3.1,7.9,5.71,2.43,3.54,5.36,10.51.81,13.3-.57.35-1.14.5-1.71.5-3.36,0-6.63-5.32-8.01-7.59-2.01-3.3-3.24-9.74-.81-11.52h0c.6-.27,1.22-.39,1.83-.39m25.65-65.26s0,0,0,0c-5.9,0-11.03,3.51-12.48,8.54-2.04,7.88,4,15.2,10.92,17.12,3.05.85,6.64,1.33,9.86,1.33,7.09,0,11.58-2.3,12.66-6.47,1.97-7.6-8.6-17.68-16.02-19.74-1.61-.52-3.29-.79-4.94-.79h0Zm-20.47,3.65c-3.57,0-5.38,4.3-5.72,7.2-.22,2.27.15,5.36,1.86,7.28,1.01,1.14,2.35,1.73,3.96,1.76h.1c4.68,0,4.87-6.26,4.93-8.31.09-2.98-1.87-7.66-5.04-7.93h-.04s-.04,0-.04,0h-.02Zm-12.49.98h0s0,0,0,0c-.13,0-.27,0-.41.03l-.15.02-.14.07c-2.92,1.36-2.59,5.65-1.93,7.97.84,2.99,2.24,4.5,4.15,4.5.13,0,.27,0,.41-.02.62-.07,1.15-.4,1.54-.95,1.18-1.67.75-5.02.49-6.16v-.03s-.01-.03-.01-.03c-.07-.22-.13-.46-.19-.69-.55-1.98-1.3-4.69-3.74-4.69h0Zm-5.8,10.68c-2.33,0-3.87,2.83-4.79,4.52-.6,1.11-1.95,4.36-1.2,6.41.25.68.71,1.16,1.33,1.41.44.17.88.26,1.32.26,1.65,0,3.16-1.16,4.61-3.53,1.33-2.18,2.85-6.45.17-8.64l-.1-.08-.11-.05c-.4-.19-.81-.28-1.23-.28h0Zm10.4,5.24h0c-.11,0-.23,0-.35.02-1.66.2-3.05,1.16-4.04,2.76-1.77,2.89-1.86,7.27-.93,9.84,1.34,3.69,4.92,7.19,7.36,7.19.14,0,.27-.01.4-.03.39-.06.95-.28,1.42-.97,1.39-2.01,1.36-7.46.74-10.48-.06-.29-.12-.61-.19-.94-.6-3.12-1.42-7.38-4.41-7.38h0Zm10.68,1.79c-2.39,0-3.41,1.05-3.84,1.93-.58,1.31-.16,2.96,1.21,4.8,1.07,1.43,2.6,2.79,4,3.55,1.42.77,4.39,2.38,6.85,2.38,1.95,0,2.91-1,3.36-1.84.63-1.15.74-2.37.34-3.63-1.08-3.33-5.39-5.53-6.24-5.93l-.03-.02h-.03c-.95-.39-3.41-1.26-5.62-1.26h0Zm39.45,5.35h-.06c-3.96.26-5.2,5.7-6.52,11.47-.2.87-.4,1.74-.6,2.59l-.25,1.01c-1.55,6.31-2.89,11.76,2.59,13.32.69.19,1.37.29,2.02.29,4.41,0,7.77-4.23,9.72-12.23.97-4.33.76-10.26-1.89-13.75-1.26-1.66-2.98-2.6-4.96-2.7h-.06Zm-63.51,3.54c-4.24,0-5.59,5.51-6.57,9.53-.08.34-.17.68-.25,1-.32,1.26-1.03,4.52-.83,7.68.3,4.62,2.42,6.17,4.14,6.65.68.19,1.35.29,1.98.29,2.92,0,6.7-2.01,8.08-11.6v-.05s0-.05,0-.05c.13-3.02.51-12.22-6.05-13.43h-.04s-.04-.01-.04-.01c-.15-.01-.29-.02-.43-.02h0Zm45.1.05s0,0,0,0c-3.47,0-4.41,1.23-4.6,2.26v.03s0,.03,0,.03c-.19,1.47.44,3.46,4.46,4.57.57.16,1.74.42,3.1.42,2.42,0,4.15-.86,4.89-2.43.29-.62.29-1.27,0-1.86-.59-1.2-2.39-2.14-5.34-2.79-.79-.14-1.68-.21-2.51-.21h0Zm-14.37,6.19h-.04c-8.9.68-14.11,3.95-14.3,8.98,0,2.91,1.74,5.29,5.03,6.92,2.7,1.34,6.33,2.1,10.22,2.13h.38c5.63,0,20.24-1.46,20.24-8.12,0-3.14-4.48-5.56-8.23-7.03-4.37-1.71-9.58-2.84-13.26-2.88h-.04Zm-19.15,9.93v1s0-1,0-1c-2,0-3.04,2.59-3.73,4.31l-.15.38c-.03.07-2.51,6.3.09,7.59.36.18.73.27,1.1.27,1.84,0,3.03-2.11,3.76-3.69.27-.59,2.59-5.84.24-8.39l-.12-.14-.16-.08c-.33-.16-.67-.25-1.02-.25h0Zm9.18,8.74c-.67,0-1.34.14-1.99.27l-.27.06c-.13.03-3.04.66-3.74,2.2-.22.49-.2,1.02.06,1.49.39.71,1.26,1.55,3.18,1.55.44,0,.93-.04,1.45-.13.65-.11,2.85-.56,3.83-1.95.39-.55.54-1.19.42-1.83l-.05-.28-.19-.21c-.71-.79-1.59-1.17-2.7-1.17h0Zm23.96,1.06c-2.69,0-5.56,1.3-8.07,3.67-2.12,2-3.79,4.55-4.47,6.82-1.19,4.37-.66,9.44,1.35,12.95,1.41,2.45,3.48,4.11,6,4.79.78.21,1.54.32,2.27.32,4.86,0,8.51-4.57,10.58-13.21,2.01-8.42.15-13.36-5.67-15.1h-.03s-.03-.02-.03-.02c-.63-.15-1.28-.22-1.94-.22h0Zm-15.27.82v1s0-1,0-1c-1.86,0-3.11,1.99-3.85,3.18-.59.95-1.55,3.11-1.03,4.55.2.56.62.97,1.17,1.15.32.11.64.16.97.16,1.3,0,2.51-.82,3.68-2.51,1.47-2.12,2.09-4.87.18-6.25l-.11-.08-.13-.05c-.29-.1-.58-.16-.88-.16h0Zm34.61.86c-2.7,0-4.35,2.92-5.56,5.05-.17.31-.33.59-.49.85-1.37,2.27-2.95,6.73-2.2,8.86.28.79.79,1.13,1.18,1.28.31.11.66.17,1.06.17,2.37,0,6.07-2.05,8.08-4.48,1.54-1.86,2.74-5.39,1.91-8.27-.48-1.67-1.58-2.84-3.17-3.36l-.06-.02h-.07c-.23-.06-.45-.08-.68-.08h0Zm-65.7.92s0,0,0,0c-.32,0-.64.03-.95.1l-.11.02-.1.05c-.33.16-.79.5-1.06,1.25-.9,2.52.87,8.35,2.11,10.92.13.28.28.58.43.9,1.36,2.89,3.04,6.49,5.55,6.49.34,0,.67-.07.99-.2,1.42-.59,2.45-1.8,2.97-3.51,1.04-3.4-.05-8.02-1.71-10.52l-.05-.07-.06-.06-.41-.44c-1.94-2.08-4.59-4.93-7.59-4.93h0Zm17.74,4.47c-.77,0-1.52.16-2.24.48l-.1.04-.08.06c-3.03,2.21-1.68,9.2.54,12.85,1.47,2.42,4.92,8.07,8.87,8.07.78,0,1.53-.22,2.23-.65,1.44-.88,2.35-2.17,2.7-3.83.96-4.51-2.5-9.86-3.21-10.89-.99-1.44-4.54-6.14-8.72-6.14h0Z"/>
      </g>
      <g>
        <g>
          <g class="cls-2">
            <path class="cls-5" d="m112.39,103.66c1.14-.24,2.14-.02,1.86-1.34-.28-1.32-1.44-2.2-2.58-1.96-1.14.24-1.86,1.54-1.58,2.86.28,1.32,1.14.7,2.3.44h0Z"/>
            <path class="cls-5" d="m112.49,104.24c-.08.02-.14.04-.22.06-.38.12-.74.26-1.04.52-.32.28-.5.7-.58,1.12-.2,1.04-.06,2.2.28,3.18.28.8.7,1.54,1.32,2.12.48.46,1.14.84,1.82.72.7-.12,1.22-.76,1.52-1.42.44-1,.5-2.12.28-3.18-.16-.76-.5-1.5-.88-2.18-.24-.4-.56-.78-1-.96-.5-.2-1.02-.12-1.5.02h0Z"/>
            <path class="cls-5" d="m106.78,107.57c1.14.08,2.1.8,2.32-.54.22-1.34-.58-2.56-1.74-2.74-1.16-.18-2.28.76-2.48,2.1-.2,1.34.76.92,1.9,1.18h0Z"/>
            <path class="cls-5" d="m105.58,115.98c1.08.16,1.84-.62,2.34-1.46.54-.88.84-1.9.92-2.94.04-.54,0-1.08-.1-1.62-.1-.46-.18-.94-.58-1.26-.26-.2-.58-.3-.9-.38-.46-.12-.92-.16-1.4-.16-.58,0-.94.22-1.26.7-.6.88-.94,1.9-1.02,2.96-.06.98.1,2.1.54,3,.16.3.36.6.62.82.26.18.52.28.84.34h0Z"/>
          </g>
          <g class="cls-7">
            <path class="cls-5" d="m13.61,22.34c-1.14.24-2.14.02-1.86,1.34.28,1.32,1.44,2.2,2.58,1.96,1.14-.24,1.86-1.54,1.58-2.86-.28-1.32-1.14-.7-2.3-.44h0Z"/>
            <path class="cls-5" d="m13.51,21.76c.08-.02.14-.04.22-.06.38-.12.74-.26,1.04-.52.32-.28.5-.7.58-1.12.2-1.04.06-2.2-.28-3.18-.28-.8-.7-1.54-1.32-2.12-.48-.46-1.14-.84-1.82-.72-.7.12-1.22.76-1.52,1.42-.44,1-.5,2.12-.28,3.18.16.76.5,1.5.88,2.18.24.4.56.78,1,.96.5.2,1.02.12,1.5-.02h0Z"/>
            <path class="cls-5" d="m19.22,18.43c-1.14-.08-2.1-.8-2.32.54-.22,1.34.58,2.56,1.74,2.74,1.16.18,2.28-.76,2.48-2.1.2-1.34-.76-.92-1.9-1.18h0Z"/>
            <path class="cls-5" d="m20.42,10.02c-1.08-.16-1.84.62-2.34,1.46-.54.88-.84,1.9-.92,2.94-.04.54,0,1.08.1,1.62.1.46.18.94.58,1.26.26.2.58.3.9.38.46.12.92.16,1.4.16.58,0,.94-.22,1.26-.7.6-.88.94-1.9,1.02-2.96.06-.98-.1-2.1-.54-3-.16-.3-.36-.6-.62-.82-.26-.18-.52-.28-.84-.34h0Z"/>
          </g>
        </g>
        <g class="cls-9">
          <path class="cls-5" d="m22.34,112.39c.24,1.14.02,2.14,1.34,1.86,1.32-.28,2.2-1.44,1.96-2.58-.24-1.14-1.54-1.86-2.86-1.58-1.32.28-.7,1.14-.44,2.3h0Z"/>
          <path class="cls-5" d="m21.76,112.49c-.02-.08-.04-.14-.06-.22-.12-.38-.26-.74-.52-1.04-.28-.32-.7-.5-1.12-.58-1.04-.2-2.2-.06-3.18.28-.8.28-1.54.7-2.12,1.32-.46.48-.84,1.14-.72,1.82.12.7.76,1.22,1.42,1.52,1,.44,2.12.5,3.18.28.76-.16,1.5-.5,2.18-.88.4-.24.78-.56.96-1,.2-.5.12-1.02-.02-1.5h0Z"/>
          <path class="cls-5" d="m18.43,106.78c-.08,1.14-.8,2.1.54,2.32,1.34.22,2.56-.58,2.74-1.74.18-1.16-.76-2.28-2.1-2.48-1.34-.2-.92.76-1.18,1.9h0Z"/>
          <path class="cls-5" d="m10.02,105.58c-.16,1.08.62,1.84,1.46,2.34.88.54,1.9.84,2.94.92.54.04,1.08,0,1.62-.1.46-.1.94-.18,1.26-.58.2-.26.3-.58.38-.9.12-.46.16-.92.16-1.4,0-.58-.22-.94-.7-1.26-.88-.6-1.9-.94-2.96-1.02-.98-.06-2.1.1-3,.54-.3.16-.6.36-.82.62-.18.26-.28.52-.34.84h0Z"/>
        </g>
        <g class="cls-8">
          <path class="cls-5" d="m103.66,13.61c-.24-1.14-.02-2.14-1.34-1.86-1.32.28-2.2,1.44-1.96,2.58.24,1.14,1.54,1.86,2.86,1.58,1.32-.28.7-1.14.44-2.3h0Z"/>
          <path class="cls-5" d="m104.24,13.51c.02.08.04.14.06.22.12.38.26.74.52,1.04.28.32.7.5,1.12.58,1.04.2,2.2.06,3.18-.28.8-.28,1.54-.7,2.12-1.32.46-.48.84-1.14.72-1.82-.12-.7-.76-1.22-1.42-1.52-1-.44-2.12-.5-3.18-.28-.76.16-1.5.5-2.18.88-.4.24-.78.56-.96,1-.2.5-.12,1.02.02,1.5h0Z"/>
          <path class="cls-5" d="m107.57,19.22c.08-1.14.8-2.1-.54-2.32-1.34-.22-2.56.58-2.74,1.74-.18,1.16.76,2.28,2.1,2.48,1.34.2.92-.76,1.18-1.9h0Z"/>
          <path class="cls-5" d="m115.98,20.42c.16-1.08-.62-1.84-1.46-2.34-.88-.54-1.9-.84-2.94-.92-.54-.04-1.08,0-1.62.1-.46.1-.94.18-1.26.58-.2.26-.3.58-.38.9-.12.46-.16.92-.16,1.4,0,.58.22.94.7,1.26.88.6,1.9.94,2.96,1.02.98.06,2.1-.1,3-.54.3-.16.6-.36.82-.62.18-.26.28-.52.34-.84h0Z"/>
        </g>
        <g>
          <rect class="cls-5" x="35.91" y="10.45" width="54.17" height="1"/>
          <rect class="cls-5" x="35.91" y="114.55" width="54.17" height="1"/>
          <rect class="cls-5" x="87.96" y="62.5" width="54.17" height="1" transform="translate(178.05 -52.05) rotate(90)"/>
          <rect class="cls-5" x="-16.14" y="62.5" width="54.17" height="1" transform="translate(73.95 52.05) rotate(90)"/>
        </g>
      </g>
      <path class="cls-3" d="m61.59,28.94c-1.83,7.06,3.41,13.99,10.22,15.88,6.81,1.89,19.46,2.64,21.28-4.42,1.83-7.06-8.51-16.64-15.32-18.53-7.63-2.46-14.56,1.42-16.19,7.07h0Zm-13.68,2.14c-.28,2.85.47,7.84,4.85,7.93,3.75.07,3.95-5.27,4.01-7.34.08-2.57-1.67-6.69-4.12-6.9-3.01-.01-4.47,4.04-4.74,6.31h0Zm-8.05-5.31c-2.27,1.06-1.97,4.73-1.39,6.79.58,2.06,1.58,3.98,3.48,3.76,1.71-.2,1.6-4.01,1.17-5.9-.61-2.1-1.12-4.92-3.26-4.65h0Zm-9.44,14.69c-.97,1.8-2.11,5.68-.36,6.37,1.95.77,3.53-.93,4.71-2.87,1.18-1.94,2.51-5.62.39-7.34-2.12-.99-3.84,2.2-4.74,3.84h0Zm14.1,1.22c-4.47.54-5.46,7.68-4.15,11.27,1.3,3.58,4.86,6.8,6.66,6.51,1.89-.31,2.05-6.81,1.34-10.27-.56-2.7-1.22-7.83-3.84-7.51h0Zm7.97,3.14c-.9,2.02,2.28,5.67,4.79,7.04,2.02,1.1,7.24,3.91,8.86.95,1.89-3.46-2.59-6.81-5.46-8.18-2.17-.85-7-2.24-8.19.19h0Zm42.4,3.98c-3.74.24-4.72,7.19-6.21,13.3-1.64,6.73-3.16,11.77,1.64,13.13,5.6,1.59,8.86-4.48,10.5-11.21,1.42-6.33-.02-14.91-5.93-15.22h0Zm-63.18,3.56c-4.04-.36-5.16,5.71-6.18,9.76-.88,3.5-2.12,11.8,2.62,13.13,5.53,1.56,7.92-4.37,8.8-10.49.22-5.3-.37-11.51-5.24-12.41h0Zm41.14,1.47c-.24,1.91,1.68,2.91,3.73,3.48,2.06.56,5.74.82,6.82-1.47.87-1.85-3.13-2.92-4.65-3.25-1.71-.29-5.6-.46-5.91,1.25h0Zm-24.1,12.77c0,5.34,7.19,7.95,14.26,8.01,7.07.07,19.61-1.78,19.61-7.12,0-4.45-13.43-8.84-20.5-8.9-6.7.51-13.18,2.82-13.37,8.01h0Zm-8.78,5.98c-.75,1.81-1.66,5.68-.39,6.31,1.42.71,2.61-1,3.51-2.95.9-1.95,1.94-5.64.42-7.29-1.77-.88-2.95,2.52-3.54,3.92h0Zm10.08,4.98c-1.28.27-3.56,1.23-3.01,2.23.62,1.11,2.16,1.15,3.59.92,1.44-.24,3.7-1.07,3.43-2.62-1.1-1.22-2.53-.83-4.01-.53h0Zm14.43,10.52c-1.66,6.09.07,14.72,6.66,16.5,6.58,1.78,9.96-5.2,11.62-12.16,1.66-6.96.82-12.17-4.99-13.91-6.06-1.42-11.99,5.19-13.29,9.57h0Zm-6.69-6.23c-.75,1.21-1.66,3.81-.39,4.23,1.42.47,2.61-.67,3.51-1.98.9-1.3,1.94-3.77.42-4.87-1.54-.55-2.79,1.41-3.54,2.61h0Zm32.43,3.56c-1.62,2.68-3.23,8.05-1.53,8.68,1.61.6,5.81-1.34,8.02-4.01,2.21-2.67,3.25-8.7-.81-10.04-2.75-.52-4.5,3.4-5.68,5.37h0Zm-61.26-4.42c-1.7.79-.09,7.47,1.53,10.82,1.27,2.62,3.3,7.69,5.68,6.7,4.05-1.68,3.02-9.21.81-12.55-2.02-2.14-4.99-5.62-8.02-4.98h0Zm16.66,4.78c-2.43,1.77-1.2,8.22.81,11.52,1.62,2.66,5.82,9.49,9.72,7.09,4.56-2.79,1.62-9.75-.81-13.3-2.15-3.13-6.06-6.95-9.72-5.31h0Z"/>
    </g>
  </g>
</svg>