<?xml version="1.0" encoding="UTF-8"?>
<svg id="Layer_2" data-name="Layer 2" xmlns="http://www.w3.org/2000/svg" xmlns:xlink="http://www.w3.org/1999/xlink" viewBox="0 0 133.26 133.28">
  <defs>
    <style>
      .cls-1 {
        fill: none;
      }

      .cls-2 {
        fill: #f8ead6;
      }

      .cls-3 {
        fill: #6db360;
      }

      .cls-4 {
        fill: #071b1e;
      }

      .cls-5 {
        clip-path: url(#clippath);
      }
    </style>
    <clipPath id="clippath">
      <rect class="cls-1" width="133.25" height="133.25"/>
    </clipPath>
  </defs>
  <g id="_of_Tiles" data-name="# of Tiles">
    <g>
      <rect class="cls-3" x=".06" y=".08" width="133.2" height="133.2"/>
      <g class="cls-5">
        <path class="cls-2" d="M94,110.99c-6.8-4.54-20.83.61-20.73,9.5.1,8.79,13.96,18.2,20.75,15.83,7.56-2.65,7.48-20.33-.02-25.33Z"/>
        <path class="cls-2" d="M100.61,72.97c-6.37,3.23-11.77,11.2-10.5,19.83,1.04,7.07,6.28,12.72,12.06,14.78,13.07,4.66,30.95-8.34,30.14-19.44-.78-10.75-19.21-21.5-31.7-15.17Z"/>
        <path class="cls-2" d="M93.93,57.38c7.76,3.52,16.02-.12,17.29-.71,2.11-.96,9.76-4.47,10.19-9.5.89-10.44-29.39-26.57-37.18-19.61-5.59,4.99-2.37,24.35,9.7,29.82Z"/>
        <path class="cls-2" d="M-7.86,4.23c-3.73,4.13-12.8,14.19-9.73,21.17,3.57,8.09,23.07,11.16,33.91,2.04,12.13-10.21,10.09-32.89,1.98-37.11C10.68-13.63-2.67-1.53-7.86,4.23Z"/>
        <path class="cls-2" d="M93.84-5.31c-2.84,8.96,12.72,20.31,21.44,24.98,3.31,1.78,15.91,8.53,19.74,4.58,4.02-4.15-3.57-18.13-10.87-26.32-4.52-5.07-10.25-11.5-18.31-10.87-4.49.35-10.52,2.95-12,7.63Z"/>
        <path class="cls-2" d="M114.45,117.51c-4.59,5-4.07,11.59-3.85,14.4.4,5.09,2.93,13.88,8.3,14.3,9.06.7,26.67-22.45,21.33-30.72-3.65-5.66-18.83-5.56-25.78,2.02Z"/>
        <path class="cls-2" d="M40.71,56.66c14.17,5.73,24.14-12.85,27.71-19.49,3.06-5.7,9.63-17.94,5.51-22.39-7.69-8.31-52.58,10.64-46.08,29.4,1.91,5.52,8.12,10.57,12.86,12.49Z"/>
        <path class="cls-2" d="M45.44,105.4c-2.25-.78-6.93-2.42-10.55-.29-6.83,4.03-7.36,20.01-.29,24.52,7.47,4.76,22.71-3.68,22.81-11.97.07-5.63-6.86-10.47-11.97-12.26Z"/>
        <path class="cls-2" d="M49.12,81.33c-.28-10.06,7.19-19.76,16.69-21.51.98-.18,8.45-1.45,13.48,3.05,10.27,9.18,4.09,36.8-7.54,39.65-8.29,2.03-22.26-7.79-22.63-21.19Z"/>
        <path class="cls-2" d="M7.33,64.37c-6.64,7.88-.29,28.2,11.93,30.28,7.38,1.26,16.72-4.17,18.72-12.46,2.43-10.04-7.08-19.43-16.21-21.27-.69-.14-9.95-1.88-14.44,3.45Z"/>
        <path class="cls-2" d="M-14.94,127.9c-1.48-2.14-6.18-8.95-3.27-13.88,4.22-7.16,22.73-7.38,31.49-.07,10.41,8.69,5.17,26.41-5.41,27.72-7.74.96-18.06-6.9-22.81-13.77Z"/>
        <path class="cls-4" d="M91.62,137.51c-3.09,0-6.9-1.4-10.56-3.96-4.13-2.89-8.56-7.84-8.61-13.05-.04-3.9,2.4-7.46,6.69-9.79,5.17-2.8,11.47-2.97,15.31-.4h0c4.85,3.24,6.61,11.08,5.84,17.14-.64,5.02-2.83,8.53-6.01,9.64-.8.28-1.7.42-2.67.42ZM87.74,110.14c-2.57,0-5.35.68-7.81,2.01-3.74,2.03-5.87,5.07-5.84,8.33.04,3.84,3.07,8.33,7.92,11.73,4.3,3.02,8.91,4.33,11.74,3.34,2.54-.89,4.38-3.99,4.93-8.3.69-5.43-.88-12.73-5.13-15.57-1.53-1.02-3.59-1.53-5.81-1.53Z"/>
        <path class="cls-4" d="M108.04,109.39c-2.06,0-4.13-.32-6.15-1.04-6.51-2.32-11.57-8.52-12.59-15.43-1.36-9.25,4.48-17.41,10.94-20.68h0c6.17-3.13,14.58-2.47,21.97,1.71,6.36,3.6,10.55,9.01,10.92,14.13.37,5.13-2.92,10.88-8.82,15.36-4.18,3.18-10.16,5.95-16.27,5.95ZM108.86,71.91c-2.68,0-5.38.52-7.88,1.79h0c-5.94,3.01-11.31,10.5-10.06,18.99.93,6.33,5.56,12,11.52,14.13,7.4,2.63,15.64-.69,20.88-4.68,5.37-4.09,8.5-9.43,8.17-13.94-.33-4.58-4.2-9.49-10.09-12.82-3.42-1.94-7.96-3.47-12.55-3.47Z"/>
        <path class="cls-4" d="M101.25,59.72c-2.44,0-5.07-.42-7.65-1.59h0c-7.69-3.49-11.52-11.89-12.55-18.59-.86-5.64.12-10.35,2.63-12.59,4.36-3.9,14.02-1.23,21.6,2.56,8.81,4.41,17.47,11.6,16.95,17.73-.31,3.66-3.9,7.08-10.66,10.18-1.51.69-5.54,2.3-10.32,2.3ZM94.27,56.64c7.04,3.19,14.49.27,16.61-.7,7.71-3.53,9.54-6.75,9.71-8.83.44-5.1-7.74-11.97-16.05-16.13-8.78-4.39-16.73-5.52-19.77-2.8-2.07,1.84-2.87,6.1-2.11,11.12.92,5.99,4.5,14.12,11.6,17.34h0Z"/>
        <path class="cls-4" d="M-.43,33.81c-2.51,0-4.87-.29-6.88-.76-5.52-1.28-9.53-3.95-11.02-7.33-3.29-7.46,5.93-17.68,9.86-22.04h0c.71-.79,17.43-19.13,27.15-14.08,3.56,1.85,6.12,6.87,6.85,13.44.87,7.84-.96,18.53-8.68,25.02-5.06,4.26-11.57,5.75-17.28,5.75ZM-7.26,4.78h0c-3.4,3.78-12.44,13.8-9.58,20.29,1.26,2.86,4.96,5.25,9.89,6.39,6.22,1.44,15.91,1.09,22.74-4.65,7.23-6.08,8.88-16.51,8.1-23.59-.66-5.93-2.95-10.59-5.98-12.16C11.53-12.26-.64-2.56-7.26,4.78Z"/>
        <path class="cls-4" d="M131.4,26.31c-3.68,0-9.14-1.96-16.51-5.91-8.89-4.76-24.89-16.32-21.84-25.95h0c1.54-4.85,7.56-7.79,12.72-8.19,8.46-.64,14.3,5.88,18.98,11.14,7.33,8.22,15.41,22.72,10.85,27.43-.96.99-2.36,1.49-4.21,1.49ZM94.62-5.06h0c-2.53,7.99,11.2,18.74,21.05,24.01,13.37,7.16,17.49,6.04,18.76,4.73,3.34-3.45-3.23-16.6-10.89-25.2-4.45-4.99-9.98-11.19-17.63-10.6-4.5.35-9.98,2.94-11.29,7.06Z"/>
        <path class="cls-4" d="M119.3,147.05c-.16,0-.31,0-.46-.02-5.8-.45-8.59-9.24-9.05-15.05-.23-2.92-.77-9.76,4.06-15.02h0c4.84-5.28,12.66-6.64,17.9-6.19,4.31.36,7.65,1.92,9.17,4.28,2.19,3.4,1.11,9.28-2.98,16.14-4.72,7.93-12.88,15.86-18.64,15.86ZM129.86,112.33c-5,0-11.1,1.69-14.81,5.74h0c-4.35,4.74-3.85,11.08-3.63,13.78.43,5.42,3.06,13.2,7.55,13.55,4.5.32,12.42-6.4,17.57-15.05,3.7-6.21,4.82-11.59,3.01-14.41-1.24-1.93-4.14-3.22-7.93-3.54-.56-.05-1.15-.07-1.75-.07Z"/>
        <path class="cls-4" d="M46.09,58.69c-2.56,0-4.51-.79-5.68-1.26h0c-4.98-2.01-11.34-7.25-13.33-12.98-2.75-7.94,2.8-16.77,15.24-24.22,11.73-7.03,27.47-11.13,32.22-6,4.51,4.88-2.18,17.34-5.39,23.33-9.44,17.58-17.62,21.13-23.05,21.13ZM67.42,13.57c-6.25,0-15.8,2.99-24.25,8.06-11.54,6.92-16.97,15.25-14.54,22.28,1.76,5.08,7.68,10.09,12.39,12h0c13.49,5.46,23.07-12.4,26.68-19.12,2.8-5.22,9.36-17.43,5.63-21.45-1.11-1.2-3.2-1.76-5.92-1.76Z"/>
        <path class="cls-4" d="M39.83,131.84c-2.02,0-3.98-.44-5.66-1.51-3.47-2.21-5.56-7.22-5.45-13.09.1-5.88,2.31-10.79,5.76-12.83,3.94-2.32,8.87-.61,11.23.22l-.27.77.27-.77c4.88,1.7,12.59,6.75,12.52,13.04-.05,4.09-3.58,8.62-9,11.55-2.71,1.47-6.14,2.61-9.4,2.61ZM39.1,104.88c-1.31,0-2.62.25-3.8.94-2.92,1.72-4.86,6.21-4.96,11.44-.09,5.3,1.71,9.77,4.7,11.67,3.14,2,8.4,1.55,13.41-1.16,4.9-2.65,8.1-6.63,8.14-10.13.06-5.14-6.65-9.81-11.43-11.48h0c-1.37-.48-3.7-1.29-6.07-1.29Z"/>
        <path class="cls-4" d="M69.47,103.6c-3.57,0-7.77-1.58-11.49-4.42-5.88-4.48-9.5-11.15-9.68-17.82h0c-.29-10.5,7.5-20.52,17.36-22.34,1.46-.27,9.01-1.38,14.18,3.25,6.32,5.65,6.28,16.8,4.32,24.63-2.2,8.82-6.88,15.11-12.22,16.42-.78.19-1.61.28-2.47.28ZM69.34,60.34c-1.63,0-2.89.2-3.38.29-9.1,1.68-16.29,10.95-16.02,20.68h0c.17,6.19,3.55,12.38,9.04,16.57,4.24,3.24,9.06,4.7,12.58,3.85,4.67-1.15,9-7.12,11.02-15.22,1.99-7.98,1.58-18.19-3.82-23.02-2.89-2.58-6.67-3.14-9.41-3.14Z"/>
        <path class="cls-4" d="M21.4,95.64c-.78,0-1.54-.06-2.28-.19-5.83-.99-10.92-5.99-13.62-13.37-2.61-7.12-2.13-14.28,1.21-18.25,4.75-5.64,14.17-3.94,15.23-3.72,5.67,1.15,11.37,5.09,14.54,10.06,2.5,3.92,3.3,8.14,2.31,12.21-1.97,8.13-10.28,13.26-17.38,13.26ZM7.96,64.89h0c-2.92,3.47-3.3,10.16-.92,16.63,1.93,5.27,6.19,11.27,12.36,12.31,6.63,1.13,15.85-3.8,17.79-11.84,1.11-4.58-.53-8.48-2.1-10.95-2.93-4.61-8.22-8.27-13.48-9.33-.38-.08-9.44-1.83-13.65,3.17Z"/>
        <path class="cls-4" d="M6.55,142.57c-7.68,0-17.26-7.1-22.17-14.21l.67-.47-.68.46c-1.6-2.32-6.48-9.38-3.3-14.76,1.59-2.69,5.07-4.62,9.81-5.44,8.16-1.41,17.58.71,22.91,5.16,6.28,5.24,6.78,12.98,5.17,18.48-1.75,5.97-5.97,10.06-11,10.68-.46.06-.94.08-1.42.08ZM-3.88,109.36c-1.67,0-3.33.13-4.94.41-4.26.74-7.34,2.39-8.68,4.66-2.64,4.48,1.78,10.89,3.24,13h0c4.96,7.19,15,14.28,22.03,13.43,4.37-.54,8.07-4.19,9.63-9.52,1.47-5,1.02-12.03-4.64-16.76-3.95-3.29-10.33-5.22-16.64-5.22Z"/>
      </g>
    </g>
  </g>
</svg>