<?xml version="1.0" encoding="UTF-8"?>
<svg id="Layer_2" data-name="Layer 2" xmlns="http://www.w3.org/2000/svg" xmlns:xlink="http://www.w3.org/1999/xlink" viewBox="0 0 126 126">
  <defs>
    <style>
      .cls-1 {
        fill: none;
      }

      .cls-2 {
        clip-path: url(#clippath);
      }

      .cls-3 {
        fill: #f7e9d5;
      }

      .cls-4 {
        fill: #f8ead6;
      }

      .cls-5 {
        fill: #091b1e;
      }

      .cls-6 {
        fill: #081b1e;
      }

      .cls-7 {
        fill: #415e8d;
      }

      .cls-8 {
        fill: #5e7dbe;
      }
    </style>
    <clipPath id="clippath">
      <path class="cls-1" d="m38.81,72.32h2.64c3.48,0,6.26,3.07,5.8,6.63-.39,2.95-3.04,5.08-6.02,5.08h-2.27c-3.08,0-5.66,2.39-5.74,5.31-.05,1.66.63,3.21,1.9,4.32,1.03.91,2.4,1.33,3.78,1.33h24.11c3.02,0,5.48-2.47,5.48-5.5v-.16c0-2.92-2.36-5.29-5.29-5.29h-3.96c-2.51,0-4.66-1.87-4.89-4.28-.12-1.34.32-2.67,1.22-3.65s2.18-1.55,3.51-1.55h18.35c.5,0,.99-.2,1.34-.56,1.41-1.53,3.19-2.43,5.08-2.44,1.94,0,3.7.82,5.09,2.3.39.41.95.61,1.51.55h.02c.61-.07,1.37-.17,1.82-.31,4.51-1.39,7.7-5.78,7.22-10.84-.51-5.34-5.22-9.29-10.59-9.29h-1.7c-3.91,0-7.18-3.06-7.29-6.82-.06-2.06.76-4,2.29-5.41,1.35-1.23,3.16-1.84,5-1.84h6.08c1.77,0,3.18-1.62,2.8-3.46-.27-1.34-1.51-2.26-2.88-2.26h-52.87c-3.22,0-5.8,2.83-5.37,6.13.35,2.73,2.81,4.7,5.56,4.7h3.44c2.61,0,4.84,1.95,5.08,4.46.13,1.38-.33,2.77-1.26,3.8-.93,1.02-2.26,1.61-3.65,1.61h-5.33c-4.62,0-8.38,3.75-8.38,8.38v.7c0,4.62,3.75,8.38,8.38,8.38Z"/>
    </clipPath>
  </defs>
  <g id="Layer_1-2" data-name="Layer 1">
    <g>
      <rect class="cls-4" width="126" height="126"/>
      <path class="cls-6" d="m91.76,76.03c5.69-1.22,9.9-6.47,9.49-12.6-.42-6.14-5.98-11.22-12.38-11.22h.03s-1.68,0-1.68,0c-2.97,0-5.44-2.29-5.53-5.11-.04-1.59.61-3.1,1.82-4.16,1-.87,2.32-1.28,3.65-1.28h5.92c2.41,0,4.57-1.76,4.81-4.17.26-2.76-1.9-5.08-4.6-5.08h-52.71c-3.82,0-7.16,2.87-7.42,6.68-.28,4.17,3.04,7.67,7.16,7.67h3.64c1.72,0,3.18,1.26,3.33,2.86.1,1.04-.29,2.03-1.09,2.72-.6.52-1.39.76-2.18.76h-5.22c-5.6,0-10.14,4.54-10.14,10.14v.7c0,5.6,4.54,10.14,10.14,10.14h2.46c2.14,0,4.05,1.56,4.26,3.68.24,2.44-1.68,4.5-4.08,4.5h-2.47c-4.02,0-7.38,3.14-7.5,7.01-.06,2.12.77,4.11,2.35,5.57,1.38,1.28,3.25,1.9,5.13,1.9h24.07c3.99,0,7.24-3.26,7.24-7.27v-.16c0-3.89-3.15-7.05-7.05-7.05h-3.96c-1.61,0-2.99-1.18-3.14-2.69-.1-.98.27-1.9,1.02-2.56.56-.49,1.3-.72,2.05-.72h16.42c.51,0,.8.59.48.99l-3.56,4.57c-.3.38-.34.91-.13,1.35.2.4.58.64,1.01.64l5.45-.03c.45,0,.81.39.76.84l-.99,10.54c-.08.83.57,1.54,1.4,1.54h7.67c.83,0,1.48-.71,1.4-1.54l-.99-10.54c-.04-.45.31-.84.76-.84l5.44.03c.45.04.82-.25,1.02-.64.22-.44.17-.97-.13-1.35l-1.25-1.61c-.13.14-.29.26-.5.31-.59.16-1.19-.18-1.35-.77-.14-.5.1-.99.53-1.23l-1.23-1.58c-.27-.35-.09-.88.34-.97Z"/>
      <path class="cls-8" d="m99.51,63.25c-.51-5.34-5.22-9.29-10.59-9.29h-1.7c-3.91,0-7.18-3.06-7.29-6.82-.06-2.06.76-4,2.29-5.41,1.35-1.23,3.16-1.84,5-1.84h6.08c1.77,0,3.18-1.62,2.8-3.46-.27-1.34-1.51-2.26-2.88-2.26h-52.87c-3.22,0-5.8,2.83-5.37,6.13.35,2.73,2.81,4.7,5.56,4.7h3.44c2.61,0,4.84,1.95,5.08,4.46.13,1.38-.33,2.77-1.26,3.8-.93,1.02-2.26,1.61-3.65,1.61h-5.33c-4.62,0-8.38,3.75-8.38,8.38v.7c0,4.62,3.75,8.38,8.38,8.38h2.64c3.48,0,6.26,3.07,5.8,6.63-.39,2.95-3.04,5.08-6.02,5.08h-2.27c-3.08,0-5.66,2.39-5.74,5.31-.05,1.66.63,3.21,1.9,4.32,1.03.91,2.4,1.33,3.78,1.33h24.11c3.02,0,5.48-2.47,5.48-5.5v-.16c0-2.92-2.36-5.29-5.29-5.29h-3.96c-2.51,0-4.66-1.87-4.89-4.28-.12-1.34.32-2.67,1.22-3.65.9-.99,2.18-1.55,3.52-1.55h18.35c.5,0,.99-.2,1.34-.56,1.41-1.53,3.19-2.43,5.08-2.44,1.94,0,3.7.82,5.09,2.3.39.41.95.61,1.51.55h.02c.61-.07,1.37-.17,1.82-.31,4.51-1.39,7.7-5.78,7.22-10.84Zm-56.54-2.06c0,.28-.23.51-.51.51h-4.52c-.28,0-.51-.28-.51-.51v-.74c0-.28.23-.51.51-.51h4.52c.28,0,.51.28.51.51v.74Zm5.49,29.28c0,.28-.23.51-.51.51h-7.82c-.28,0-.51-.28-.51-.51v-.74c0-.28.23-.51.51-.51h7.82c.28,0,.51.28.51.51v.74Zm5.11-51.7c0,.28-.23.51-.51.51h-12.17c-.28,0-.51-.28-.51-.51v-.74c0-.28.23-.51.51-.51h12.17c.28,0,.51.28.51.51v.74Zm5.08,48.4c.28,0,.51.28.51.51v.74c0,.28-.23.51-.51.51h-4.52c-.28,0-.51-.28-.51-.51v-.74c0-.28.23-.51.51-.51h4.52Zm12.47-48.4c0,.28-.23.51-.51.51h-5.13c-.28,0-.51-.28-.51-.51v-.74c0-.28.23-.51.51-.51h5.13c.28,0,.51.28.51.51v.74Zm15.2,22.93c-.28,0-.51-.28-.51-.51v-.74c0-.28.23-.51.51-.51h6.06c.28,0,.51.28.51.51v.74c0,.28-.23.51-.51.51h-6.06Z"/>
      <g>
        <path class="cls-8" d="m53.56,38.78v-.74c0-.23-.23-.51-.51-.51h-12.17c-.28,0-.51.23-.51.51v.74c0,.23.23.51.51.51h12.17c.28,0,.51-.23.51-.51Z"/>
        <path class="cls-8" d="m54.12,88.93h4.52c.28,0,.51-.23.51-.51v-.74c0-.23-.23-.51-.51-.51h-4.52c-.28,0-.51.23-.51.51v.74c0,.23.23.51.51.51Z"/>
        <path class="cls-8" d="m86.31,61.71h6.06c.28,0,.51-.23.51-.51v-.74c0-.23-.23-.51-.51-.51h-6.06c-.28,0-.51.23-.51.51v.74c0,.23.23.51.51.51Z"/>
        <path class="cls-8" d="m39.61,89.74v.74c0,.23.23.51.51.51h7.82c.28,0,.51-.23.51-.51v-.74c0-.23-.23-.51-.51-.51h-7.82c-.28,0-.51.23-.51.51Z"/>
        <path class="cls-8" d="m37.93,61.71h4.52c.28,0,.51-.23.51-.51v-.74c0-.23-.23-.51-.51-.51h-4.52c-.28,0-.51.23-.51.51v.74c0,.23.23.51.51.51Z"/>
        <path class="cls-8" d="m65.48,39.29h5.13c.28,0,.51-.23.51-.51v-.74c0-.23-.23-.51-.51-.51h-5.13c-.28,0-.51.23-.51.51v.74c0,.23.23.51.51.51Z"/>
      </g>
      <g class="cls-2">
        <path class="cls-7" d="m15.18,64.58c0,27.47,22.35,49.81,49.81,49.81s49.81-22.35,49.81-49.81c0-5.69-1.01-11.14-2.77-16.24-.02-.1-.03-.2-.04-.3,0,0-.05,0-.06.01-6.84-19.35-25.27-33.29-46.94-33.29-27.47,0-49.81,22.35-49.81,49.81m49.81-43.98c19.19,0,35.5,12.37,41.5,29.54,2.93,20.4-9.24,38.9-28.84,45.1-2.01.54-4.08.93-6.24,1.08-4.62.33-9.17-.28-13.56-1.85-6.55-2.34-12-6.21-16.08-11.88-5.05-7.03-6.9-14.87-5.35-23.4,1.29-7.11,4.69-13.1,10.27-17.74,6.45-5.36,13.86-7.44,22.15-6.01,6.21,1.07,11.47,3.96,15.59,8.76,4.72,5.51,6.74,11.88,5.65,19.1-.98,6.54-4.16,11.82-9.59,15.62-4.25,2.97-9.02,4.16-14.18,3.48-4.04-.53-7.63-2.17-10.68-4.9-3.47-3.1-5.49-6.99-5.89-11.63-.31-3.59.49-6.98,2.45-10.01,3.31-5.1,7.94-7.72,14.11-6.88,3.87.53,6.93,2.53,8.93,5.94,2.33,3.97,1.64,8.84-1.67,12.01-2.48,2.38-6.18,2.55-8.81.41-1.5-1.22-1.88-3.25-.87-4.65.23-.31.47-.6.96-.49,1.97.43,3.67-.61,4.16-2.5.47-1.82-.56-3.61-2.45-4.14-2.87-.8-5.36-.04-7.39,2.07-3.98,4.14-3.58,10.48.61,14.47,3.49,3.31,7.71,4.34,12.38,3.19,7.64-1.88,12.47-10.03,11.1-18.06-.76-4.47-2.95-8.14-6.52-10.94-5.06-3.98-10.78-5.25-17.05-3.85-4.45.99-8.17,3.28-11.12,6.74-5,5.88-6.78,12.66-5.26,20.21,1.17,5.8,4.18,10.56,8.85,14.17,7.09,5.48,15.03,7.19,23.72,4.94,6.27-1.62,11.33-5.15,15.18-10.33,5.43-7.3,7.32-15.48,5.56-24.38-1.43-7.23-5.12-13.22-10.84-17.87-8.24-6.69-17.67-9.12-28.09-7.18-8.02,1.49-14.66,5.57-19.9,11.82-5.82,6.95-8.7,15.02-8.83,24.71.08.95.16,2.5.33,4.05.44,4.01,1.61,7.83,3.36,11.44,3.76,7.75,9.51,13.6,17.1,17.64,8.32,4.43,17.17,5.84,26.44,4.22,1.08-.19,2.14-.43,3.17-.7l.03.1c.47-.16.9-.36,1.36-.53.53-.16,1.08-.31,1.6-.49l-.07-.1c4.5-1.84,8.5-4.17,12.33-7.03,3.87-2.77,7.11-6.16,9.77-9.94-7.18,14.55-22.13,24.6-39.42,24.6-24.25,0-43.98-19.73-43.98-43.98s19.73-43.98,43.98-43.98"/>
      </g>
      <path class="cls-4" d="m86.28,62.75c-.59.16-.94.76-.77,1.35.16.59.76.94,1.35.77.59-.16.94-.76.77-1.35-.16-.59-.76-.94-1.35-.77Z"/>
      <path class="cls-4" d="m52.42,88.6c.48-.13.77-.63.64-1.12-.13-.48-.63-.77-1.12-.64-.48.13-.77.63-.64,1.12.13.48.63.77,1.12.64Z"/>
      <path class="cls-4" d="m55.4,90.84c.76-.2,1.21-.98,1-1.73-.2-.76-.98-1.21-1.73-1-.76.2-1.21.98-1,1.73.2.76.98,1.21,1.73,1Z"/>
      <path class="cls-4" d="m76.97,79.56c-.59.16-.94.76-.77,1.35.16.59.76.94,1.35.77.59-.16.94-.76.77-1.35-.16-.59-.76-.94-1.35-.77Z"/>
      <path class="cls-1" d="m70.61,37.53h-5.13c-.28,0-.51.23-.51.51v.74c0,.23.23.51.51.51h5.13c.28,0,.51-.23.51-.51v-.74c0-.23-.23-.51-.51-.51Z"/>
      <path class="cls-1" d="m53.61,87.68v.74c0,.23.23.51.51.51h4.52c.28,0,.51-.23.51-.51v-.74c0-.23-.23-.51-.51-.51h-4.52c-.28,0-.51.23-.51.51Z"/>
      <path class="cls-1" d="m53.05,37.53h-12.17c-.28,0-.51.23-.51.51v.74c0,.23.23.51.51.51h12.17c.28,0,.51-.23.51-.51v-.74c0-.23-.23-.51-.51-.51Z"/>
      <path class="cls-1" d="m42.45,59.94h-4.52c-.28,0-.51.23-.51.51v.74c0,.23.23.51.51.51h4.52c.28,0,.51-.23.51-.51v-.74c0-.23-.23-.51-.51-.51Z"/>
      <path class="cls-1" d="m47.94,89.23h-7.82c-.28,0-.51.23-.51.51v.74c0,.23.23.51.51.51h7.82c.28,0,.51-.23.51-.51v-.74c0-.23-.23-.51-.51-.51Z"/>
      <path class="cls-6" d="m92.1,79.81c.16.59.76.94,1.35.77.2-.05.36-.17.5-.31l-1.31-1.69c-.43.24-.67.73-.53,1.23Z"/>
      <path class="cls-1" d="m99.51,63.25c-.51-5.34-5.22-9.29-10.59-9.29h-1.7c-3.91,0-7.18-3.06-7.29-6.82-.06-2.06.76-4,2.29-5.41,1.35-1.23,3.16-1.84,5-1.84h6.08c1.77,0,3.18-1.62,2.8-3.46-.27-1.34-1.51-2.26-2.88-2.26h-52.87c-3.22,0-5.8,2.83-5.37,6.13.35,2.73,2.81,4.7,5.56,4.7h3.44c2.61,0,4.84,1.95,5.08,4.46.13,1.38-.33,2.77-1.26,3.8-.93,1.02-2.26,1.61-3.65,1.61h-5.33c-4.62,0-8.38,3.75-8.38,8.38v.7c0,4.62,3.75,8.38,8.38,8.38h2.64c3.48,0,6.26,3.07,5.8,6.63-.39,2.95-3.04,5.08-6.02,5.08h-2.27c-3.08,0-5.66,2.39-5.74,5.31-.05,1.66.63,3.21,1.9,4.32,1.03.91,2.4,1.33,3.78,1.33h24.11c3.02,0,5.48-2.47,5.48-5.5v-.16c0-2.92-2.36-5.29-5.29-5.29h-3.96c-2.51,0-4.66-1.87-4.89-4.28-.12-1.34.32-2.67,1.22-3.65.9-.99,2.18-1.55,3.52-1.55h18.35c.5,0,.99-.2,1.34-.56,1.41-1.53,3.19-2.43,5.08-2.44.32,0,.64.03.95.08.12-.32.37-.59.73-.69.59-.16,1.19.18,1.35.77.05.19.03.39-.01.57.76.38,1.46.9,2.08,1.57.39.41.95.61,1.51.55h.02c.61-.07,1.37-.17,1.82-.31,4.51-1.39,7.7-5.78,7.22-10.84Z"/>
      <path class="cls-4" d="m84.74,72.29c.16.59.76.94,1.35.77.4-.11.66-.42.76-.78-.65-.33-1.34-.55-2.06-.65-.08.21-.11.43-.05.66Z"/>
      <path class="cls-4" d="m81.31,74.69c-.97.26-1.54,1.25-1.27,2.22.26.97,1.25,1.54,2.22,1.27.97-.26,1.54-1.25,1.27-2.22-.26-.97-1.25-1.54-2.22-1.27Z"/>
      <path class="cls-4" d="m89.24,78.84c-.49.13-.77.62-.64,1.11.13.49.62.77,1.11.64.49-.13.77-.62.64-1.11-.13-.49-.62-.77-1.11-.64Z"/>
      <path class="cls-4" d="m55.4,41.73c.76-.2,1.21-.98,1-1.73-.2-.76-.98-1.21-1.73-1-.76.2-1.21.98-1,1.73.2.76.98,1.21,1.73,1Z"/>
      <path class="cls-4" d="m58.63,39.58c.38-.09.6-.46.5-.81-.1-.35-.49-.57-.87-.47-.38.09-.6.46-.5.81.1.35.49.57.87.47Z"/>
      <path class="cls-4" d="m39.79,60.63c.38-.1.6-.49.5-.87-.1-.38-.49-.6-.87-.5-.38.1-.6.49-.5.87.1.38.49.6.87.5Z"/>
      <path class="cls-4" d="m86.71,60.67c-.3.08-.47.38-.39.67.08.3.38.47.67.39.3-.08.47-.38.39-.67-.08-.3-.38-.47-.67-.39Z"/>
      <path class="cls-4" d="m92.24,37.87c.38-.1.6-.49.5-.87-.1-.38-.49-.6-.87-.5-.38.1-.6.49-.5.87.1.38.49.6.87.5Z"/>
      <path class="cls-3" d="m5.68,24.71c.2-.2.45-.37.71-.48-.27.11-.51.28-.71.48Z"/>
      <path class="cls-3" d="m6.39,35.74c-.27-.11-.51-.28-.71-.48.2.2.45.37.71.48Z"/>
      <path class="cls-3" d="m5.02,26.3c0-.62.25-1.18.66-1.59-.41.41-.66.97-.66,1.59v7.36c0,.62.25,1.18.66,1.59-.41-.41-.66-.97-.66-1.59v-7.36Z"/>
      <path class="cls-6" d="m14.63,35.91c.16,0,.31-.02.45-.05-.15.03-.3.05-.45.05h0Z"/>
      <path class="cls-6" d="m14.63,24.05h0c.16,0,.31.02.45.05-.15-.03-.3-.05-.45-.05Z"/>
      <path class="cls-6" d="m16.88,33.66h0c0,.16-.02.31-.05.45.03-.15.05-.3.05-.45Z"/>
      <g>
        <path class="cls-6" d="m109.94,11.45c2.54,0,4.61,2.07,4.61,4.61v74.03h1V16.06c0-3.09-2.52-5.61-5.61-5.61H35.91v1h74.03Z"/>
        <path class="cls-6" d="m16.06,114.55c-2.54,0-4.61-2.07-4.61-4.61V35.91h-1v74.03c0,3.09,2.52,5.61,5.61,5.61h74.03v-1H16.06Z"/>
      </g>
      <g>
        <path class="cls-5" d="m25.27,10.53c-1.91-1.91-4.52-3.05-7.36-3.05s-5.45,1.18-7.36,3.05h-.04s0,0,0,.04c-1.87,1.87-3.01,4.48-3.01,7.32s1.18,5.45,3.05,7.36v.04s0,0,.04,0c1.87,1.87,4.48,3.05,7.36,3.05s5.45-1.18,7.36-3.05h.04v-.04c1.87-1.87,3.05-4.48,3.05-7.36-.08-2.85-1.22-5.45-3.13-7.36h0Zm1.02,7.93h.85c-.12,2.12-.98,4.03-2.28,5.53l-.61-.61c-.24-.24-.61-.24-.81,0-.24.24-.24.61,0,.81l.61.61c-1.51,1.3-3.42,2.16-5.53,2.28v-.85c0-.33-.24-.57-.57-.57s-.57.24-.57.57v.85c-2.12-.12-4.03-.98-5.53-2.28l.61-.61c.24-.24.24-.61,0-.81-.24-.24-.61-.24-.81,0l-.69.61c-1.3-1.51-2.16-3.42-2.28-5.53h.85c.33,0,.57-.24.57-.57s-.24-.57-.57-.57h-.85c.12-2.12.98-4.03,2.28-5.53l.61.61c.12.12.24.16.41.16s.28-.04.41-.16c.24-.24.24-.61,0-.81l-.57-.65c1.51-1.3,3.42-2.16,5.53-2.28v.85c0,.33.24.57.57.57s.57-.24.57-.57v-.85c2.12.12,4.03.98,5.53,2.28l-.61.61c-.24.24-.24.61,0,.81.12.12.24.16.41.16s.28-.04.41-.16l.61-.61c1.3,1.51,2.16,3.42,2.28,5.53h-.85c-.33,0-.57.24-.57.57s.28.61.61.61Z"/>
        <path class="cls-5" d="m22.14,12.85l-5.7,3.5c-.08.04-.12.12-.2.2l-3.42,5.57c-.12.24-.12.53.08.73.12.12.24.16.41.16.12,0,.2-.04.33-.08l5.7-3.5c.08-.04.12-.12.2-.2l3.42-5.57c.12-.24.12-.53-.08-.73s-.49-.24-.73-.08Zm-3.54,5.66l-3.46,2.16,2.08-3.38,3.46-2.16-2.08,3.38Z"/>
        <path class="cls-5" d="m17.83,18.58c.16,0,.28-.04.41-.16l.2-.2c.24-.24.24-.61,0-.81-.24-.24-.61-.24-.81,0l-.2.2c-.24.24-.24.61,0,.81.08.08.24.16.41.16Z"/>
      </g>
      <g>
        <path class="cls-5" d="m115.37,99.53c-1.91-1.91-4.52-3.05-7.36-3.05-2.85,0-5.45,1.18-7.36,3.05h-.04s0,0,0,.04c-1.87,1.87-3.01,4.48-3.01,7.32s1.18,5.45,3.05,7.36v.04s0,0,.04,0c1.87,1.87,4.48,3.05,7.36,3.05,2.85,0,5.45-1.18,7.36-3.05h.04v-.04c1.87-1.87,3.05-4.48,3.05-7.36-.08-2.85-1.22-5.45-3.13-7.36h0Zm1.02,7.93h.85c-.12,2.12-.98,4.03-2.28,5.53l-.61-.61c-.24-.24-.61-.24-.81,0-.24.24-.24.61,0,.81l.61.61c-1.51,1.3-3.42,2.16-5.53,2.28v-.85c0-.33-.24-.57-.57-.57s-.57.24-.57.57v.85c-2.12-.12-4.03-.98-5.53-2.28l.61-.61c.24-.24.24-.61,0-.81-.24-.24-.61-.24-.81,0l-.69.61c-1.3-1.51-2.16-3.42-2.28-5.53h.85c.33,0,.57-.24.57-.57s-.24-.57-.57-.57h-.85c.12-2.12.98-4.03,2.28-5.53l.61.61c.12.12.24.16.41.16s.28-.04.41-.16c.24-.24.24-.61,0-.81l-.57-.65c1.51-1.3,3.42-2.16,5.53-2.28v.85c0,.33.24.57.57.57s.57-.24.57-.57v-.85c2.12.12,4.03.98,5.53,2.28l-.61.61c-.24.24-.24.61,0,.81.12.12.24.16.41.16s.28-.04.41-.16l.61-.61c1.3,1.51,2.16,3.42,2.28,5.53h-.85c-.33,0-.57.24-.57.57s.28.61.61.61Z"/>
        <path class="cls-5" d="m112.24,101.84l-5.7,3.5c-.08.04-.12.12-.2.2l-3.42,5.57c-.12.24-.12.53.08.73.12.12.24.16.41.16.12,0,.2-.04.33-.08l5.7-3.5c.08-.04.12-.12.2-.2l3.42-5.57c.12-.24.12-.53-.08-.73s-.49-.24-.73-.08Zm-3.54,5.66l-3.46,2.16,2.08-3.38,3.46-2.16-2.08,3.38Z"/>
        <path class="cls-5" d="m107.93,107.58c.16,0,.28-.04.41-.16l.2-.2c.24-.24.24-.61,0-.81-.24-.24-.61-.24-.81,0l-.2.2c-.24.24-.24.61,0,.81.08.08.24.16.41.16Z"/>
      </g>
    </g>
  </g>
</svg>