<?xml version="1.0" encoding="UTF-8"?>
<svg id="Layer_2" data-name="Layer 2" xmlns="http://www.w3.org/2000/svg" xmlns:xlink="http://www.w3.org/1999/xlink" viewBox="0 0 228.92 228.92">
  <defs>
    <style>
      .cls-1, .cls-2 {
        fill: none;
      }

      .cls-3 {
        fill: #5e7dbd;
      }

      .cls-2 {
        stroke: #d6b890;
        stroke-miterlimit: 10;
        stroke-width: 4.42px;
      }

      .cls-4 {
        fill: #f8ead6;
      }

      .cls-5 {
        clip-path: url(#clippath-13);
      }

      .cls-6 {
        clip-path: url(#clippath-6);
      }

      .cls-7 {
        fill: #415e8c;
      }

      .cls-8 {
        fill: #081b1e;
      }

      .cls-9 {
        clip-path: url(#clippath);
      }
    </style>
    <clipPath id="clippath">
      <rect class="cls-1" x="2.21" y="2.21" width="224.49" height="224.49" rx="18.06" ry="18.06"/>
    </clipPath>
    <clipPath id="clippath-6">
      <rect class="cls-2" x="2.21" y="2.21" width="224.49" height="224.49" rx="18.06" ry="18.06"/>
    </clipPath>
    <clipPath id="clippath-13">
      <path class="cls-1" d="M46.6,134.52h6.85c9.02,0,16.24,7.95,15.06,17.21-1,7.66-7.89,13.18-15.61,13.18h-5.9c-8,0-14.68,6.19-14.9,13.78-.14,4.3,1.62,8.34,4.92,11.2,2.68,2.35,6.23,3.45,9.8,3.45h62.54c7.83,0,14.21-6.4,14.21-14.28v-.41c0-7.57-6.13-13.71-13.71-13.71h-10.28c-6.52,0-12.09-4.86-12.69-11.1-.31-3.47.83-6.92,3.16-9.48,2.33-2.56,5.65-4.03,9.12-4.03h47.6c1.3,0,2.58-.51,3.47-1.46,3.66-3.98,8.27-6.31,13.18-6.33,5.03.02,9.6,2.12,13.21,5.96,1,1.07,2.47,1.57,3.93,1.41h.04c1.57-.19,3.54-.44,4.73-.81,11.7-3.62,19.99-14.99,18.73-28.11-1.32-13.85-13.55-24.11-27.47-24.11h-4.41c-10.15,0-18.62-7.93-18.92-17.69-.15-5.34,1.97-10.37,5.95-14.03,3.49-3.2,8.2-4.77,12.96-4.77h15.77c4.6,0,8.25-4.21,7.27-8.98-.71-3.47-3.93-5.87-7.47-5.87H50.57c-8.36,0-15.04,7.33-13.94,15.91.92,7.09,7.29,12.2,14.42,12.2h8.93c6.76,0,12.57,5.07,13.18,11.56.34,3.59-.84,7.17-3.27,9.85-2.42,2.65-5.87,4.19-9.48,4.19h-13.83c-11.99,0-21.73,9.74-21.73,21.73v1.81c0,11.99,9.74,21.73,21.73,21.73Z"/>
    </clipPath>
  </defs>
  <g id="Layer_1-2" data-name="Layer 1">
    <g>
      <g>
        <g class="cls-9">
          <rect class="cls-4" x="2.21" y="2.21" width="224.49" height="224.49"/>
        </g>
        <g>
          <g class="cls-6">
            <g>
              <rect class="cls-2" x="2.21" y="2.21" width="224.49" height="224.49"/>
              <rect class="cls-2" x="2.21" y="2.21" width="224.49" height="224.49"/>
              <rect class="cls-2" x="2.21" y="2.21" width="224.49" height="224.49"/>
              <rect class="cls-2" x="2.21" y="2.21" width="224.49" height="224.49"/>
              <rect class="cls-2" x="2.21" y="2.21" width="224.49" height="224.49"/>
              <rect class="cls-2" x="2.21" y="2.21" width="224.49" height="224.49"/>
            </g>
          </g>
          <rect class="cls-2" x="2.21" y="2.21" width="224.49" height="224.49" rx="18.06" ry="18.06"/>
        </g>
      </g>
      <g>
        <path class="cls-8" d="M142.02,144.87c1.33,0,2.08,1.53,1.25,2.58l-9.23,11.86c-.78.98-.89,2.35-.35,3.49.51,1.03,1.51,1.67,2.63,1.67l14.15-.07c1.17,0,2.1,1,1.98,2.17l-2.56,27.36c-.21,2.15,1.49,4,3.63,4h19.91c2.15,0,3.84-1.85,3.63-4l-2.56-27.36c-.11-1.17.8-2.17,1.98-2.17l14.12.07c1.16.11,2.13-.64,2.65-1.67.57-1.14.43-2.51-.35-3.49l-3.25-4.17c-.35.36-.76.67-1.29.81-1.53.42-3.09-.47-3.49-2.01-.35-1.29.26-2.56,1.37-3.18l-3.19-4.09c-.71-.92-.22-2.28.89-2.51,14.77-3.17,25.68-16.78,24.61-32.7-1.08-15.93-15.51-29.11-32.13-29.11h.09s-4.36,0-4.36,0c-7.7,0-14.12-5.95-14.35-13.26-.11-4.14,1.57-8.04,4.73-10.79,2.6-2.27,6.01-3.31,9.46-3.31h15.35c6.26,0,11.86-4.57,12.48-10.81.68-7.15-4.93-13.18-11.93-13.18H51.19c-9.91,0-18.58,7.44-19.24,17.34-.73,10.83,7.88,19.91,18.58,19.91h9.44c4.46,0,8.25,3.27,8.64,7.42.25,2.7-.76,5.25-2.84,7.06-1.55,1.35-3.61,1.98-5.66,1.98h-13.53c-14.53,0-26.3,11.77-26.3,26.3v1.81c0,14.53,11.77,26.3,26.3,26.3h6.38c5.55,0,10.51,4.04,11.04,9.55.62,6.33-4.36,11.68-10.58,11.68h-6.42c-10.42,0-19.15,8.15-19.47,18.19-.16,5.51,2.01,10.67,6.1,14.45,3.59,3.31,8.44,4.92,13.32,4.92h62.43c10.36,0,18.78-8.45,18.78-18.86v-.41c0-10.1-8.18-18.29-18.29-18.29h-10.28c-4.19,0-7.77-3.06-8.14-6.97-.25-2.54.71-4.93,2.65-6.65,1.46-1.28,3.38-1.87,5.33-1.87"/>
        <path class="cls-3" d="M204.06,111c-1.32-13.85-13.55-24.11-27.47-24.11h-4.41c-10.15,0-18.62-7.93-18.92-17.69-.15-5.34,1.97-10.37,5.95-14.03,3.49-3.2,8.2-4.77,12.96-4.77h15.77c4.6,0,8.25-4.21,7.27-8.98-.71-3.47-3.93-5.87-7.47-5.87H50.57c-8.36,0-15.04,7.33-13.94,15.91.92,7.09,7.3,12.2,14.42,12.2h8.93c6.76,0,12.57,5.07,13.18,11.56.34,3.59-.84,7.17-3.27,9.85-2.42,2.65-5.87,4.19-9.48,4.19h-13.83c-11.99,0-21.73,9.74-21.73,21.73v1.81c0,11.99,9.74,21.73,21.73,21.73h6.85c9.02,0,16.24,7.95,15.06,17.21-1,7.66-7.89,13.18-15.61,13.18h-5.9c-8,0-14.68,6.19-14.9,13.78-.14,4.3,1.62,8.34,4.92,11.2,2.68,2.35,6.23,3.45,9.8,3.45h62.54c7.83,0,14.21-6.4,14.21-14.28v-.41c0-7.57-6.13-13.71-13.71-13.71h-10.28c-6.52,0-12.09-4.86-12.69-11.1-.31-3.47.83-6.92,3.16-9.48,2.33-2.56,5.65-4.03,9.12-4.03h47.6c1.3,0,2.58-.51,3.47-1.46,3.66-3.98,8.27-6.31,13.18-6.33,5.03.02,9.6,2.12,13.21,5.96,1,1.07,2.47,1.57,3.93,1.41h.04c1.57-.19,3.54-.44,4.73-.81,11.7-3.62,19.99-14.99,18.73-28.11ZM57.37,105.67c0,.73-.59,1.33-1.33,1.33h-11.72c-.73,0-1.33-.73-1.33-1.33v-1.92c0-.73.59-1.33,1.33-1.33h11.72c.73,0,1.33.73,1.33,1.33v1.92ZM71.62,181.63c0,.73-.59,1.33-1.33,1.33h-20.29c-.73,0-1.33-.73-1.33-1.33v-1.92c0-.73.59-1.33,1.33-1.33h20.29c.73,0,1.33.73,1.33,1.33v1.92ZM84.86,47.5c0,.73-.59,1.33-1.33,1.33h-31.58c-.73,0-1.33-.73-1.33-1.33v-1.92c0-.73.59-1.33,1.33-1.33h31.58c.73,0,1.33.73,1.33,1.33v1.92ZM98.05,173.05c.73,0,1.33.73,1.33,1.33v1.92c0,.73-.59,1.33-1.33,1.33h-11.72c-.73,0-1.33-.73-1.33-1.33v-1.92c0-.73.59-1.33,1.33-1.33h11.72ZM130.41,47.5c0,.73-.59,1.33-1.33,1.33h-13.3c-.73,0-1.33-.73-1.33-1.33v-1.92c0-.73.59-1.33,1.33-1.33h13.3c.73,0,1.33.73,1.33,1.33v1.92ZM169.83,106.99c-.73,0-1.33-.73-1.33-1.33v-1.92c0-.73.59-1.33,1.33-1.33h15.72c.73,0,1.33.73,1.33,1.33v1.92c0,.73-.59,1.33-1.33,1.33h-15.72Z"/>
        <g>
          <path class="cls-3" d="M84.86,47.5v-1.92c0-.59-.59-1.33-1.33-1.33h-31.58c-.73,0-1.33.59-1.33,1.33v1.92c0,.59.59,1.33,1.33,1.33h31.58c.73,0,1.33-.59,1.33-1.33Z"/>
          <path class="cls-3" d="M86.33,177.63h11.72c.73,0,1.33-.59,1.33-1.33v-1.92c0-.59-.59-1.33-1.33-1.33h-11.72c-.73,0-1.33.59-1.33,1.33v1.92c0,.59.59,1.33,1.33,1.33Z"/>
          <path class="cls-3" d="M169.83,106.99h15.72c.73,0,1.33-.59,1.33-1.33v-1.92c0-.59-.59-1.33-1.33-1.33h-15.72c-.73,0-1.33.59-1.33,1.33v1.92c0,.59.59,1.33,1.33,1.33Z"/>
          <path class="cls-3" d="M48.67,179.71v1.92c0,.59.59,1.33,1.33,1.33h20.29c.73,0,1.33-.59,1.33-1.33v-1.92c0-.59-.59-1.33-1.33-1.33h-20.29c-.73,0-1.33.59-1.33,1.33Z"/>
          <path class="cls-3" d="M44.33,106.99h11.72c.73,0,1.33-.59,1.33-1.33v-1.92c0-.59-.59-1.33-1.33-1.33h-11.72c-.73,0-1.33.59-1.33,1.33v1.92c0,.59.59,1.33,1.33,1.33Z"/>
          <path class="cls-3" d="M115.79,48.83h13.3c.73,0,1.33-.59,1.33-1.33v-1.92c0-.59-.59-1.33-1.33-1.33h-13.3c-.73,0-1.33.59-1.33,1.33v1.92c0,.59.59,1.33,1.33,1.33Z"/>
        </g>
        <g class="cls-5">
          <path class="cls-7" d="M-14.7,114.45c0,71.25,57.97,129.22,129.23,129.22s129.22-57.97,129.22-129.22c0-14.77-2.61-28.9-7.19-42.13-.05-.25-.07-.51-.11-.78,0,0-.13.02-.16.03C218.55,21.37,170.74-14.78,114.53-14.78,43.27-14.78-14.7,43.19-14.7,114.45M114.52.36c49.78,0,92.1,32.1,107.65,76.64,7.61,52.92-23.96,100.91-74.81,116.99-5.22,1.39-10.59,2.41-16.18,2.81-12,.86-23.79-.72-35.18-4.79-17-6.08-31.14-16.11-41.7-30.82-13.11-18.25-17.89-38.58-13.88-60.69,3.34-18.45,12.16-33.98,26.65-46.01,16.73-13.9,35.95-19.3,57.47-15.6,16.12,2.77,29.75,10.29,40.43,22.73,12.24,14.28,17.47,30.81,14.67,49.54-2.55,16.97-10.78,30.67-24.87,40.52-11.03,7.7-23.4,10.8-36.78,9.03-10.49-1.39-19.8-5.63-27.7-12.71-8.99-8.05-14.24-18.14-15.29-30.16-.8-9.3,1.26-18.12,6.36-25.98,8.58-13.24,20.59-20.03,36.61-17.85,10.04,1.37,17.97,6.55,23.17,15.41,6.06,10.3,4.26,22.94-4.32,31.16-6.44,6.18-16.02,6.63-22.85,1.07-3.88-3.16-4.88-8.43-2.25-12.05.6-.81,1.21-1.54,2.49-1.26,5.11,1.11,9.53-1.57,10.78-6.49,1.22-4.72-1.45-9.38-6.35-10.74-7.44-2.08-13.92-.09-19.18,5.38-10.31,10.74-9.29,27.2,1.57,37.53,9.05,8.59,19.99,11.26,32.12,8.27,19.82-4.89,32.35-26.03,28.81-46.86-1.97-11.61-7.67-21.12-16.9-28.39-13.12-10.31-27.96-13.61-44.22-9.98-11.54,2.57-21.2,8.5-28.84,17.48-12.98,15.25-17.59,32.84-13.65,52.43,3.02,15.04,10.84,27.38,22.96,36.77,18.38,14.23,38.99,18.65,61.55,12.82,16.28-4.2,29.39-13.36,39.38-26.8,14.08-18.93,18.98-40.15,14.41-63.25-3.71-18.75-13.27-34.3-28.12-46.36-21.38-17.36-45.84-23.66-72.86-18.63-20.81,3.87-38.04,14.45-51.62,30.67-15.11,18.04-22.57,38.97-22.9,64.09.2,2.45.4,6.5.85,10.51,1.15,10.4,4.16,20.3,8.71,29.69,9.75,20.11,24.68,35.28,44.35,45.77,21.59,11.49,44.54,15.16,68.58,10.96,2.8-.49,5.54-1.1,8.24-1.82l.07.26c1.23-.41,2.34-.93,3.54-1.38,1.39-.42,2.8-.8,4.16-1.27l-.19-.27c11.68-4.78,22.04-10.83,31.99-18.24,10.03-7.2,18.46-15.99,25.34-25.78-18.62,37.74-57.41,63.83-102.27,63.83C51.61,228.54.42,177.36.42,114.45S51.61.36,114.52.36"/>
        </g>
        <path class="cls-4" d="M169.74,109.7c-1.53.41-2.43,1.97-2.01,3.49.41,1.53,1.97,2.43,3.49,2.01,1.53-.41,2.43-1.97,2.01-3.49-.41-1.53-1.97-2.43-3.49-2.01Z"/>
        <path class="cls-4" d="M81.9,176.75c1.25-.35,2.01-1.62,1.67-2.9-.35-1.25-1.62-2.01-2.9-1.67-1.25.35-2.01,1.62-1.67,2.9.35,1.25,1.62,2.01,2.9,1.67Z"/>
        <path class="cls-4" d="M89.63,182.57c1.97-.52,3.13-2.54,2.6-4.5-.52-1.97-2.54-3.13-4.5-2.6-1.97.52-3.13,2.54-2.6,4.5.52,1.97,2.54,3.13,4.5,2.6Z"/>
        <path class="cls-4" d="M145.59,153.31c-1.53.41-2.43,1.97-2.01,3.49.41,1.53,1.97,2.43,3.49,2.01,1.53-.41,2.43-1.97,2.01-3.49-.41-1.53-1.97-2.43-3.49-2.01Z"/>
        <path class="cls-1" d="M129.09,44.26h-13.3c-.73,0-1.33.59-1.33,1.33v1.92c0,.59.59,1.33,1.33,1.33h13.3c.73,0,1.33-.59,1.33-1.33v-1.92c0-.59-.59-1.33-1.33-1.33Z"/>
        <path class="cls-1" d="M85,174.38v1.92c0,.59.59,1.33,1.33,1.33h11.72c.73,0,1.33-.59,1.33-1.33v-1.92c0-.59-.59-1.33-1.33-1.33h-11.72c-.73,0-1.33.59-1.33,1.33Z"/>
        <path class="cls-1" d="M83.54,44.26h-31.58c-.73,0-1.33.59-1.33,1.33v1.92c0,.59.59,1.33,1.33,1.33h31.58c.73,0,1.33-.59,1.33-1.33v-1.92c0-.59-.59-1.33-1.33-1.33Z"/>
        <path class="cls-1" d="M56.05,102.42h-11.72c-.73,0-1.33.59-1.33,1.33v1.92c0,.59.59,1.33,1.33,1.33h11.72c.73,0,1.33-.59,1.33-1.33v-1.92c0-.59-.59-1.33-1.33-1.33Z"/>
        <path class="cls-1" d="M70.29,178.38h-20.29c-.73,0-1.33.59-1.33,1.33v1.92c0,.59.59,1.33,1.33,1.33h20.29c.73,0,1.33-.59,1.33-1.33v-1.92c0-.59-.59-1.33-1.33-1.33Z"/>
        <path class="cls-8" d="M184.84,153.95c.41,1.53,1.97,2.43,3.49,2.01.53-.14.94-.45,1.29-.81l-3.41-4.38c-1.11.62-1.73,1.89-1.37,3.18Z"/>
        <path class="cls-1" d="M204.06,111c-1.32-13.85-13.55-24.11-27.47-24.11h-4.41c-10.15,0-18.62-7.93-18.92-17.69-.15-5.34,1.97-10.37,5.95-14.03,3.49-3.2,8.2-4.77,12.96-4.77h15.77c4.6,0,8.25-4.21,7.27-8.98-.71-3.47-3.93-5.87-7.47-5.87H50.57c-8.36,0-15.04,7.33-13.94,15.91.92,7.09,7.3,12.2,14.42,12.2h8.93c6.76,0,12.57,5.07,13.18,11.56.34,3.59-.84,7.17-3.27,9.85-2.42,2.65-5.87,4.19-9.48,4.19h-13.83c-11.99,0-21.73,9.74-21.73,21.73v1.81c0,11.99,9.74,21.73,21.73,21.73h6.85c9.02,0,16.24,7.95,15.06,17.21-1,7.66-7.89,13.18-15.61,13.18h-5.9c-8,0-14.68,6.19-14.9,13.78-.14,4.3,1.62,8.34,4.92,11.2,2.68,2.35,6.23,3.45,9.8,3.45h62.54c7.83,0,14.21-6.4,14.21-14.28v-.41c0-7.57-6.13-13.71-13.71-13.71h-10.28c-6.52,0-12.09-4.86-12.69-11.1-.31-3.47.83-6.92,3.16-9.48,2.33-2.56,5.65-4.03,9.12-4.03h47.6c1.3,0,2.58-.51,3.47-1.46,3.66-3.98,8.27-6.31,13.18-6.33.84,0,1.65.08,2.46.2.31-.84.95-1.53,1.89-1.78,1.53-.42,3.09.47,3.49,2.01.14.51.09,1-.04,1.47,1.96.99,3.78,2.34,5.4,4.07,1,1.07,2.47,1.57,3.93,1.41h.04c1.57-.19,3.54-.44,4.73-.81,11.7-3.62,19.99-14.99,18.73-28.11Z"/>
        <path class="cls-4" d="M165.76,134.46c.41,1.53,1.97,2.43,3.49,2.01,1.03-.27,1.72-1.08,1.97-2.03-1.68-.85-3.48-1.42-5.35-1.69-.2.54-.28,1.12-.12,1.71Z"/>
        <path class="cls-4" d="M156.84,140.68c-2.52.67-3.99,3.24-3.3,5.75.67,2.52,3.24,3.99,5.75,3.3,2.52-.67,3.99-3.24,3.3-5.75-.67-2.52-3.24-3.99-5.75-3.3Z"/>
        <path class="cls-4" d="M177.42,151.45c-1.26.34-2,1.62-1.65,2.88.34,1.26,1.62,2,2.88,1.65,1.26-.34,2-1.62,1.65-2.88-.34-1.26-1.62-2-2.88-1.65Z"/>
        <path class="cls-4" d="M89.63,55.17c1.97-.52,3.13-2.54,2.6-4.5-.52-1.97-2.54-3.13-4.5-2.6-1.97.52-3.13,2.54-2.6,4.5.52,1.97,2.54,3.13,4.5,2.6Z"/>
        <path class="cls-4" d="M98.01,49.6c.98-.24,1.57-1.19,1.3-2.1-.26-.92-1.27-1.47-2.25-1.22-.98.24-1.57,1.19-1.3,2.1.26.92,1.27,1.47,2.25,1.22Z"/>
        <path class="cls-4" d="M49.15,104.2c.98-.26,1.57-1.27,1.3-2.25-.26-.98-1.27-1.57-2.25-1.3-.98.26-1.57,1.27-1.3,2.25.26.98,1.27,1.57,2.25,1.3Z"/>
        <path class="cls-4" d="M170.85,104.31c-.77.2-1.21.98-1,1.75.2.77.98,1.21,1.75,1,.77-.2,1.21-.98,1-1.75-.2-.77-.98-1.21-1.75-1Z"/>
        <path class="cls-4" d="M185.21,45.16c.98-.26,1.57-1.27,1.3-2.25-.26-.98-1.27-1.57-2.25-1.3-.98.26-1.57,1.27-1.3,2.25.26.98,1.27,1.57,2.25,1.3Z"/>
        <path class="cls-4" d="M165.06,156.65c-1.26.34-2,1.62-1.65,2.88.34,1.26,1.62,2,2.88,1.65,1.26-.34,2-1.62,1.65-2.88-.34-1.26-1.62-2-2.88-1.65Z"/>
      </g>
    </g>
  </g>
</svg>