<?xml version="1.0" encoding="UTF-8"?>
<svg id="Layer_2" data-name="Layer 2" xmlns="http://www.w3.org/2000/svg" xmlns:xlink="http://www.w3.org/1999/xlink" viewBox="0 0 228.91 228.91">
  <defs>
    <style>
      .cls-1 {
        fill: none;
      }

      .cls-1, .cls-2 {
        stroke: #071b1e;
        stroke-miterlimit: 10;
        stroke-width: 4.42px;
      }

      .cls-3 {
        clip-path: url(#clippath-6);
      }

      .cls-4, .cls-2 {
        fill: #071b1e;
      }

      .cls-5 {
        fill: #f7e9d5;
      }

      .cls-6 {
        fill: #6fb360;
      }

      .cls-7 {
        clip-path: url(#clippath);
      }
    </style>
    <clipPath id="clippath">
      <rect class="cls-2" x="2.21" y="2.21" width="224.49" height="224.49" rx="18.06" ry="18.06"/>
    </clipPath>
    <clipPath id="clippath-6">
      <rect class="cls-2" x="2.21" y="2.21" width="224.49" height="224.49" rx="18.06" ry="18.06"/>
    </clipPath>
  </defs>
  <g id="Layer_1-2" data-name="Layer 1">
    <g>
      <g>
        <g>
          <rect class="cls-4" x="2.21" y="2.21" width="224.49" height="224.49" rx="18.06" ry="18.06"/>
          <g class="cls-7">
            <g>
              <g>
                <rect class="cls-4" x="2.21" y="2.21" width="224.48" height="224.48"/>
                <rect class="cls-1" x="2.21" y="2.21" width="224.48" height="224.48"/>
              </g>
              <rect class="cls-2" x="2.21" y="2.21" width="224.49" height="224.48"/>
              <g>
                <rect class="cls-4" x="2.21" y="2.21" width="224.49" height="224.48"/>
                <rect class="cls-1" x="2.21" y="2.21" width="224.49" height="224.48"/>
              </g>
              <g>
                <rect class="cls-4" x="2.21" y="2.21" width="224.49" height="224.48"/>
                <rect class="cls-1" x="2.21" y="2.21" width="224.49" height="224.48"/>
              </g>
              <g>
                <rect class="cls-4" x="2.21" y="2.21" width="224.49" height="224.48"/>
                <rect class="cls-1" x="2.21" y="2.21" width="224.49" height="224.48"/>
              </g>
              <g>
                <rect class="cls-4" x="2.21" y="2.21" width="224.49" height="224.48"/>
                <rect class="cls-1" x="2.21" y="2.21" width="224.49" height="224.48"/>
              </g>
            </g>
          </g>
          <rect class="cls-1" x="2.21" y="2.21" width="224.49" height="224.49" rx="18.06" ry="18.06"/>
        </g>
        <g>
          <rect class="cls-4" x="2.21" y="2.21" width="224.49" height="224.49" rx="18.06" ry="18.06"/>
          <g class="cls-3">
            <g>
              <g>
                <rect class="cls-4" x="2.21" y="2.21" width="224.48" height="224.48"/>
                <rect class="cls-1" x="2.21" y="2.21" width="224.48" height="224.48"/>
              </g>
              <rect class="cls-6" x="2.21" y="2.21" width="224.49" height="224.48"/>
              <g>
                <rect class="cls-4" x="2.21" y="2.21" width="224.49" height="224.48"/>
                <rect class="cls-1" x="2.21" y="2.21" width="224.49" height="224.48"/>
              </g>
              <g>
                <rect class="cls-4" x="2.21" y="2.21" width="224.49" height="224.48"/>
                <rect class="cls-1" x="2.21" y="2.21" width="224.49" height="224.48"/>
              </g>
              <g>
                <rect class="cls-4" x="2.21" y="2.21" width="224.49" height="224.48"/>
                <rect class="cls-1" x="2.21" y="2.21" width="224.49" height="224.48"/>
              </g>
              <g>
                <rect class="cls-4" x="2.21" y="2.21" width="224.49" height="224.48"/>
                <rect class="cls-1" x="2.21" y="2.21" width="224.49" height="224.48"/>
              </g>
            </g>
          </g>
          <rect class="cls-1" x="2.21" y="2.21" width="224.49" height="224.49" rx="18.06" ry="18.06"/>
        </g>
      </g>
      <g>
        <path class="cls-5" d="M100.77,55.33c0,13.35,5.22,25.46,13.68,34.5,8.46-9.04,13.68-21.14,13.68-34.5s-5.22-25.46-13.68-34.5c-8.46,9.04-13.68,21.14-13.68,34.5"/>
        <path class="cls-5" d="M146.59,62.98c-9.44,9.44-14.31,21.7-14.72,34.07,12.38-.41,24.63-5.28,34.07-14.72,9.44-9.44,14.31-21.69,14.72-34.07-12.37.41-24.63,5.28-34.07,14.72"/>
        <path class="cls-5" d="M173.58,100.78c-13.35,0-25.46,5.22-34.5,13.68,9.04,8.46,21.14,13.68,34.5,13.68s25.46-5.22,34.5-13.68c-9.04-8.46-21.14-13.68-34.5-13.68"/>
        <path class="cls-5" d="M165.94,146.59c-9.44-9.44-21.7-14.31-34.07-14.72.41,12.38,5.28,24.63,14.72,34.07,9.44,9.44,21.69,14.31,34.07,14.72-.41-12.37-5.28-24.63-14.72-34.07"/>
        <path class="cls-5" d="M128.14,173.59c0-13.35-5.22-25.46-13.68-34.5-8.46,9.04-13.68,21.14-13.68,34.5s5.22,25.46,13.68,34.5c8.46-9.04,13.68-21.14,13.68-34.5"/>
        <path class="cls-5" d="M82.32,165.94c9.44-9.44,14.31-21.7,14.72-34.07-12.38.41-24.63,5.28-34.07,14.72-9.44,9.44-14.31,21.69-14.72,34.07,12.37-.41,24.63-5.28,34.07-14.72"/>
        <path class="cls-5" d="M55.33,128.14c13.35,0,25.46-5.22,34.5-13.68-9.04-8.46-21.14-13.68-34.5-13.68s-25.46,5.22-34.5,13.68c9.04,8.46,21.14,13.68,34.5,13.68"/>
        <path class="cls-5" d="M62.97,82.33c9.44,9.44,21.7,14.31,34.07,14.72-.41-12.38-5.28-24.63-14.72-34.07-9.44-9.44-21.69-14.31-34.07-14.72.41,12.37,5.28,24.63,14.72,34.07"/>
        <path class="cls-5" d="M132.23,114.46c0,9.82-7.96,17.77-17.77,17.77s-17.77-7.96-17.77-17.77,7.96-17.77,17.77-17.77,17.77,7.96,17.77,17.77"/>
      </g>
    </g>
  </g>
</svg>