<?xml version="1.0" encoding="UTF-8"?>
<svg id="Layer_2" data-name="Layer 2" xmlns="http://www.w3.org/2000/svg" viewBox="0 0 136.13 135.2">
  <defs>
    <style>
      .cls-1 {
        fill: #5e7dbd;
      }

      .cls-2 {
        fill: #984498;
      }

      .cls-3 {
        fill: #ec6a5d;
      }

      .cls-4, .cls-5 {
        fill: #6db360;
      }

      .cls-6 {
        fill: #eac75d;
      }

      .cls-7 {
        fill: #071b1e;
      }

      .cls-5 {
        fill-rule: evenodd;
      }

      .cls-8 {
        fill: #081b1e;
      }
    </style>
  </defs>
  <g id="Art">
    <rect class="cls-7" x="1.93" y="1" width="133.2" height="133.2"/>
    <path class="cls-7" d="M118.47,128.04H18.59c-5.8,0-10.51-4.7-10.51-10.51V17.66c0-5.8,4.7-10.51,10.51-10.51h99.88c5.8,0,10.51,4.7,10.51,10.51v99.88c0,5.8-4.7,10.51-10.51,10.51"/>
    <path class="cls-4" d="M61.91,98.72c.35,0,.69-.1.98-.31.94-.66,12.58-9.25,5.98-22.53-2.08-3.56-6.29-10.95-6.29-10.95-.26-.46-.73-.77-1.26-.82-.52-.03-1.02.19-1.35.6-.35.44-8.81,11.26-7.08,22.02.53,3.4,2.13,6.54,4.56,8.97l-28.33-.12h0s-28.11,0-28.11,0v2.81l28.11.34h0s32.8,0,32.8,0Z"/>
    <path class="cls-8" d="M61.22,64.11s.06,0,.09,0c.53.05,1,.35,1.26.82,0,0,4.22,7.39,6.29,10.95,6.61,13.28-5.03,21.87-5.98,22.53-.27.2-.6.31-.94.31-.01,0-.02,0-.03,0H29.11s-28.11-.34-28.11-.34v-2.81h28.11s28.33.13,28.33.13c-2.44-2.43-4.03-5.57-4.56-8.97-1.73-10.76,6.73-21.58,7.08-22.02.31-.38.78-.6,1.27-.6M61.22,63.11h0c-.79,0-1.54.35-2.04.97-.94,1.2-9.05,11.89-7.29,22.81.45,2.87,1.59,5.53,3.33,7.8l-25.12-.11h0s-1,0-1,0H0v4.79h.99s28.11.35,28.11.35h32.81s0,0,0,0c.58,0,1.13-.18,1.57-.51.52-.37,13.34-9.56,6.27-23.77v-.03s-.03-.03-.03-.03c-2.05-3.51-6.24-10.87-6.29-10.94-.41-.74-1.18-1.24-2.04-1.32-.08,0-.13,0-.18,0h0Z"/>
    <path class="cls-8" d="M62.51,85.07c-.25,0-.46-.18-.5-.43l-2.72-20.46c-.04-.27.16-.53.43-.56.25-.04.52.15.56.43l2.72,20.46c.04.27-.16.52-.43.56-.02,0-.04,0-.07,0Z"/>
    <polygon class="cls-8" points="60.93 74.31 57.36 73.53 60.93 72.75 60.93 74.31"/>
    <polygon class="cls-8" points="60.69 71.22 57.11 70.44 60.69 69.66 60.69 71.22"/>
    <circle class="cls-6" cx="70.64" cy="87.33" r="2.56"/>
    <path class="cls-8" d="M70.64,90.39c-1.69,0-3.06-1.37-3.06-3.06s1.37-3.06,3.06-3.06,3.06,1.37,3.06,3.06-1.37,3.06-3.06,3.06ZM70.64,85.27c-1.14,0-2.06.92-2.06,2.06s.92,2.06,2.06,2.06,2.06-.92,2.06-2.06-.92-2.06-2.06-2.06Z"/>
    <path class="cls-5" d="M41.07,92.29c-2.06.13-4.26,1.59-4.94,3.61.4.54.7,1.17.79,1.82.48-.39.99-.69,1.58-.91.26-1.37.84-2.36,2.57-4.51h0Z"/>
    <path class="cls-4" d="M120.91,85.23c.48-.28.77-.8.77-1.35s-.29-1.07-.77-1.35l-12.9-8.02c-2.85-1.77-6.12-2.73-9.47-2.79-3.35-.06-6.66.8-9.56,2.47-1.91,1.06-3.5,2.63-4.58,4.54-1.08,1.9-1.62,4.07-1.56,6.25l.44,15.2.03,26.44h-.03v7.58h3.15v-7c.01-.08.03-.16.03-.25v-26.8l-.35-12.36c11.55,10.95,33.76-1.95,34.8-2.55Z"/>
    <path class="cls-8" d="M98.23,71.71c.1,0,.2,0,.31,0,3.35.06,6.63,1.02,9.47,2.79l12.9,8.02c.48.28.77.8.77,1.35s-.29,1.07-.77,1.35c-.73.42-11.96,6.94-22.57,6.94-4.46,0-8.81-1.15-12.23-4.39l.35,12.36v26.8c0,.08-.02.16-.03.25v7h-3.15v-7.58h.03l-.03-26.44-.44-15.2c-.06-2.19.48-4.35,1.56-6.25,1.08-1.9,2.67-3.47,4.58-4.54,2.82-1.62,6.01-2.48,9.25-2.48M98.23,70.71h0c-3.42,0-6.79.9-9.75,2.61-2.06,1.15-3.78,2.85-4.95,4.91-1.17,2.06-1.76,4.41-1.69,6.78l.44,15.2.03,25.45-.03.97v8.58h5.15v-7.92c.02-.13.03-.23.03-.33v-26.8l-.28-10.2c3.01,2.14,6.76,3.23,11.17,3.23,10.27,0,21-5.88,23.05-7.06.81-.48,1.29-1.33,1.29-2.23s-.48-1.75-1.26-2.21l-12.88-8.01c-3-1.86-6.45-2.88-9.99-2.94-.11,0-.22,0-.32,0h0Z"/>
    <path class="cls-8" d="M121.68,84.38s-.04,0-.07,0l-20.46-2.72c-.27-.04-.47-.29-.43-.56.04-.28.31-.46.56-.43l20.46,2.72c.27.04.47.29.43.56-.03.25-.25.43-.5.43Z"/>
    <polygon class="cls-8" points="112.26 86.3 111.47 82.74 113.04 82.74 112.26 86.3"/>
    <polygon class="cls-8" points="115.34 86.55 114.56 82.98 116.13 82.98 115.34 86.55"/>
    <circle class="cls-3" cx="98.46" cy="73.02" r="2.56"/>
    <path class="cls-8" d="M98.46,76.08c-1.69,0-3.06-1.37-3.06-3.06s1.37-3.06,3.06-3.06,3.06,1.37,3.06,3.06-1.37,3.06-3.06,3.06ZM98.46,70.96c-1.14,0-2.06.92-2.06,2.06s.92,2.06,2.06,2.06,2.06-.92,2.06-2.06-.92-2.06-2.06-2.06Z"/>
    <path class="cls-5" d="M81.75,102.57c.43-.63.91-1.21,1.49-1.77.46-.43.96-.84,1.53-1.27l-.98-3.41c-2,.78-3.32,4.2-2.03,6.45h0Z"/>
    <path class="cls-4" d="M13.34,48.57c0,.38,2.27,8.97,3.3,11.61.76,1.95,1.91,3.73,3.39,5.21,1.48,1.48,3.25,2.64,5.2,3.41,3.73,1.13,7.75.9,11.33-.66l2.86,1.42c1.82.89,3.97.78,5.69-.29,1.72-1.08,2.76-2.96,2.74-4.99v-17.95h0V1h-3.02v35.39s-.03.09-.03.13v27.72c0,.94-.47,1.82-1.27,2.32-.8.5-1.79.55-2.64.14l-2.36-1.16c1.04-3.5.45-7.27-1.6-10.29-5.73-8.09-21.3-8.62-22.02-8.62-.48,0-.94.2-1.26.57-.3.4-.39.91-.25,1.38h-.06Z"/>
    <path class="cls-8" d="M47.85,1v63.27c.01,2.03-1.03,3.91-2.74,4.99-.95.59-2.03.89-3.11.89-.88,0-1.76-.2-2.58-.6l-2.86-1.42c-2.09.91-4.32,1.37-6.56,1.37-1.6,0-3.21-.23-4.76-.7-1.95-.76-3.72-1.92-5.2-3.41-1.48-1.48-2.63-3.26-3.39-5.21-1.04-2.64-3.3-11.23-3.3-11.61h.06c-.14-.47-.05-.99.25-1.38.31-.36.76-.57,1.24-.57,0,0,.01,0,.02,0,.72,0,16.3.53,22.02,8.62,2.05,3.01,2.64,6.79,1.6,10.29l2.36,1.16c.38.19.79.28,1.2.28.5,0,1-.14,1.44-.42.8-.5,1.27-1.38,1.27-2.32v-27.72s.02-.09.03-.13V1h3.02M48.85,0h-5.02v36.27c-.01.06-.03.15-.03.24v27.73c0,.6-.3,1.16-.8,1.47-.27.17-.59.26-.91.26-.26,0-.52-.06-.75-.18l-1.63-.8c.81-3.56.12-7.27-1.95-10.31-6.14-8.67-22.68-9.06-22.85-9.06h0c-.79,0-1.51.33-2.01.91l-.02.03-.02.03c-.22.29-.37.61-.45.96h-.07s0,1.03,0,1.03c0,.74,2.47,9.68,3.37,11.98.81,2.09,2.02,3.96,3.61,5.55,1.59,1.59,3.45,2.81,5.55,3.63h.04s.04.03.04.03c1.64.5,3.34.75,5.05.75,2.25,0,4.45-.43,6.53-1.27l2.45,1.21c.94.46,1.98.7,3.02.7,1.29,0,2.55-.36,3.64-1.05,2.02-1.27,3.23-3.45,3.21-5.84V0h0Z"/>
    <path class="cls-8" d="M30.9,58.7c-.09,0-.19-.03-.27-.08l-17.35-11.18c-.23-.15-.3-.46-.15-.69.15-.23.46-.3.69-.15l17.35,11.18c.23.15.3.46.15.69-.1.15-.26.23-.42.23Z"/>
    <polygon class="cls-8" points="21.14 52.14 19.72 51.48 21.95 48.59 21.14 52.14"/>
    <circle class="cls-1" cx="29.07" cy="68.06" r="2.56"/>
    <path class="cls-8" d="M29.06,71.12c-.44,0-.88-.09-1.3-.29-1.53-.72-2.18-2.55-1.46-4.07h0c.72-1.53,2.55-2.18,4.07-1.46.74.35,1.3.96,1.58,1.73.28.77.24,1.6-.11,2.34-.52,1.11-1.62,1.75-2.77,1.75ZM27.2,67.19c-.48,1.03-.04,2.26.99,2.74.5.23,1.06.26,1.57.08.52-.19.93-.56,1.17-1.06s.26-1.06.08-1.58c-.19-.52-.56-.93-1.06-1.17-1.03-.48-2.26-.04-2.74.99h0Z"/>
    <path class="cls-5" d="M44.47,29.84c-2.48.47-4.4,1.69-5.54,3.03,3.7-.27,6.15-.28,8.1.02.25-.21.53-.4.82-.59-1.12-.68-2.06-1.54-2.83-2.54-.22.01-.39.04-.56.08h0Z"/>
    <path class="cls-5" d="M51,53.53c-2.23-.16-4.37,1.13-5.6,2.96.06.28.13.57.13.82h2.3c.82-1.42,1.95-2.71,3.18-3.77h0Z"/>
    <path class="cls-4" d="M88.32,26.08c-.38,0-8.97,2.27-11.61,3.3-1.95.76-3.73,1.91-5.21,3.39-1.48,1.48-2.64,3.25-3.41,5.2-1.13,3.73-.9,7.75.66,11.33l-1.42,2.86c-.89,1.82-.78,3.97.29,5.69,1.08,1.72,2.96,2.76,4.99,2.74h62.51v-3.02h-34.63s-.09-.03-.13-.03h-27.72c-.94,0-1.82-.47-2.32-1.27-.5-.8-.55-1.79-.14-2.64l1.16-2.36c3.5,1.04,7.27.45,10.29-1.6,8.09-5.73,8.62-21.3,8.62-22.02,0-.48-.2-.94-.57-1.26-.4-.3-.91-.39-1.38-.25v-.06Z"/>
    <path class="cls-8" d="M88.32,26.08v.06c.14-.04.29-.06.44-.06.34,0,.67.11.94.31.37.32.57.78.57,1.26,0,.72-.53,16.3-8.62,22.02-2.04,1.39-4.42,2.11-6.83,2.11-1.16,0-2.32-.17-3.45-.5l-1.16,2.36c-.42.84-.36,1.84.14,2.64.5.79,1.36,1.27,2.29,1.27,0,0,.02,0,.03,0h27.72s.09.02.13.03h34.63v3.02h-62.51s-.02,0-.03,0c-2.01,0-3.89-1.04-4.96-2.74-1.08-1.72-1.19-3.87-.29-5.69l1.42-2.86c-1.56-3.58-1.79-7.59-.66-11.33.76-1.95,1.92-3.72,3.41-5.2,1.48-1.48,3.26-2.63,5.21-3.39,2.64-1.04,11.23-3.3,11.61-3.3M89.35,25.08h-1.03c-.74,0-9.68,2.47-11.98,3.37-2.09.81-3.96,2.02-5.55,3.61-1.59,1.59-2.81,3.45-3.63,5.55v.04s-.03.04-.03.04c-1.15,3.81-.96,7.9.52,11.58l-1.21,2.45c-1.05,2.15-.93,4.64.34,6.66,1.26,2.01,3.43,3.21,5.81,3.21h17.98s44.56,0,44.56,0h1v-5.02h-35.51c-.06-.01-.15-.03-.24-.03h-27.73s0,0,0,0c-.62,0-1.16-.3-1.47-.8-.31-.5-.35-1.13-.09-1.66l.8-1.63c.96.22,1.93.33,2.92.33,2.65,0,5.21-.79,7.4-2.28,8.67-6.14,9.06-22.68,9.06-22.85,0-.77-.32-1.51-.91-2.01l-.03-.02-.03-.02c-.28-.21-.61-.36-.96-.45v-.07h0Z"/>
    <path class="cls-8" d="M78.69,44.14c-.09,0-.19-.03-.27-.08-.23-.15-.3-.46-.15-.69l11.18-17.35c.15-.23.46-.3.69-.15.23.15.3.46.15.69l-11.18,17.35c-.1.15-.26.23-.42.23Z"/>
    <polygon class="cls-8" points="88.31 34.7 84.75 33.88 85.41 32.47 88.31 34.7"/>
    <circle class="cls-2" cx="68.83" cy="41.81" r="2.56"/>
    <path class="cls-8" d="M68.82,44.87c-.45,0-.89-.1-1.3-.29-1.53-.72-2.18-2.55-1.46-4.07.35-.74.96-1.3,1.73-1.58.77-.28,1.6-.24,2.34.11.74.35,1.3.96,1.58,1.73s.24,1.6-.11,2.34-.96,1.3-1.73,1.57c-.34.12-.69.18-1.04.18ZM68.83,39.75c-.24,0-.47.04-.7.12-.52.19-.93.56-1.17,1.06-.48,1.03-.04,2.26.98,2.74.5.23,1.06.26,1.58.08.52-.19.93-.56,1.17-1.06.23-.5.26-1.06.08-1.58-.19-.52-.56-.93-1.06-1.17h0c-.28-.13-.58-.2-.88-.2Z"/>
    <path class="cls-5" d="M107.06,57.21c-.47-2.48-1.69-4.4-3.03-5.54.27,3.7.28,6.15-.02,8.1.21.25.4.53.59.82.68-1.12,1.54-2.06,2.54-2.83-.01-.22-.04-.39-.08-.56h0Z"/>
    <path class="cls-5" d="M83.36,63.74c.16-2.23-1.13-4.37-2.96-5.6-.28.06-.57.13-.82.13v2.3c1.42.82,2.71,1.95,3.77,3.18h0Z"/>
  </g>
</svg>