<?xml version="1.0" encoding="UTF-8"?>
<svg id="Layer_2" data-name="Layer 2" xmlns="http://www.w3.org/2000/svg" viewBox="0 0 133.2 133.2">
  <defs>
    <style>
      .cls-1 {
        fill: #f8ead6;
      }

      .cls-2 {
        fill: #6db360;
      }

      .cls-3 {
        fill: #ee4324;
      }

      .cls-4 {
        fill: #081b1e;
      }

      .cls-5 {
        fill: #f9b72e;
      }
    </style>
  </defs>
  <g id="Art">
    <rect class="cls-1" width="133.2" height="133.2"/>
    <g>
      <path class="cls-5" d="M63.51,63.91c1.08-1.44,2.47-2.46,4.13-3.04h0c1.07-.38,2.24-.57,3.48-.57.54,0,1.04-.25,1.35-.68l.3-.4h0s13.63-18.75,13.63-18.75c1.53,1.48,1.78,3.91.51,5.66l-12.1,16.64h0s-.49.67-.49.67c-.43.6-1.18.87-1.9.71,0,0-.02,0-.02,0-.24-.05-1.07-.19-2.1-.07,0,0,0,0,0,0t0,0c-1.09.13-2.56.59-3.69,1.97l-3.09-2.13Z"/>
      <path class="cls-4" d="M66.6,66.75c-.14,0-.28-.04-.4-.12l-3.09-2.13c-.16-.11-.26-.28-.29-.46-.03-.19.02-.38.13-.53,1.17-1.55,2.67-2.65,4.46-3.28,1.14-.4,2.39-.61,3.71-.61h0c.31,0,.6-.15.78-.39l.3-.41s0-.01.01-.02l13.62-18.73c.12-.16.3-.27.51-.29.2-.02.4.05.55.19,1.8,1.74,2.05,4.57.59,6.58l-12.59,17.32c-.6.82-1.63,1.21-2.62.98-.21-.04-.95-.17-1.88-.06-.93.11-2.24.51-3.24,1.72-.14.17-.34.26-.54.26ZM64.53,63.77l1.96,1.36c1.21-1.2,2.66-1.61,3.71-1.74,1.11-.13,1.99,0,2.32.07.49.11.95-.06,1.22-.43l12.59-17.32c.89-1.22.9-2.87.09-4.11l-13.1,18.02s0,.01-.01.02l-.28.39c-.43.6-1.15.97-1.91.97h0c-1.16,0-2.25.18-3.25.53-1.3.46-2.42,1.21-3.34,2.24Z"/>
      <path class="cls-3" d="M61.78,75.18l-4.84-3.27-10.97,16.19c-.43.64-.59,1.41-.44,2.17.15.76.6,1.41,1.25,1.84,1.35.89,3.17.53,4.07-.79l10.93-16.13Z"/>
      <path class="cls-4" d="M48.41,93.29c-.69,0-1.39-.19-2.01-.6-.81-.53-1.36-1.34-1.55-2.28-.19-.94,0-1.9.54-2.7l10.97-16.19c.22-.32.65-.4.97-.19l4.84,3.27c.15.1.26.26.3.45.04.18,0,.37-.11.53l-10.93,16.13c-.7,1.03-1.85,1.59-3.02,1.59ZM57.13,72.88l-10.58,15.61c-.33.48-.44,1.07-.33,1.64.12.57.45,1.07.95,1.39,1.03.67,2.42.41,3.1-.6l10.54-15.55-3.68-2.48Z"/>
      <path class="cls-2" d="M70.98,53.88c.51.26,1.14.25,1.65-.09.37-.24.61-.61.7-1.01.33.06.67.05,1-.05.68-.2,1.13-.67,1.27-1.31.16-.7-.1-1.5-.64-2-.62-.57-1.59-.8-2.52-.59-.1.02-.2.05-.3.08.03-.1.06-.21.1-.31.57-1.54,1.89-2.66,3.28-2.77.65-.05,1.31.09,1.93.26.14.04.27.08.41.12-.45,0-.9.13-1.27.45-.54.46-.75,1.16-.63,1.81.63.22,1.35.11,1.89-.35.51-.44.73-1.09.64-1.72.95.31,1.87.69,2.77,1.14.2.1.4.2.6.3.84.43,1.7.87,2.63,1.07-.26.37-.41.82-.37,1.3.06.75.52,1.37,1.16,1.67.58-.4.94-1.08.88-1.83-.03-.39-.17-.74-.39-1.03.42-.02.87-.1,1.33-.26.35-.12.65-.32.92-.56.03.2.08.4.19.59.33.61.94.96,1.59.98.34-.55.39-1.26.06-1.86-.23-.43-.61-.72-1.04-.87.26-.71.23-1.48-.08-2.15-.14-.28-.29-.54-.45-.8,0,.32-.07.64-.2.96.02.03.04.06.05.1.27.57.28,1.2.04,1.77-.24.58-.71,1.03-1.3,1.23-1.79.63-3.22-.11-4.72-.88-.17-.09-.34-.18-.51-.26.32-.47.46-1.05.31-1.64-.19-.73-.74-1.26-1.42-1.45-.5.49-.74,1.22-.56,1.95.04.17.11.32.19.47-.83-.34-1.67-.64-2.53-.87-.45-.12-.92-.23-1.41-.27.11-.56,0-1.15-.37-1.64-.46-.6-1.18-.86-1.88-.77-.27.65-.2,1.42.26,2.01.16.21.36.38.58.51-.8.22-1.55.7-2.15,1.37-.38-.51-.98-.85-1.67-.84-.75.02-1.39.45-1.73,1.06.37.6,1.03,1,1.78.98.35,0,.68-.11.97-.28-.14.25-.27.51-.37.78-.1.27-.18.56-.23.85-.38.21-.77.49-1.15.84-.11.1-.22.21-.33.32-.15.15-.3.29-.46.43-.14.12-.15.32-.03.46.12.14.32.15.46.03.16-.14.32-.3.48-.45.11-.1.21-.21.32-.3.21-.2.43-.37.64-.52.01.78.26,1.56.88,2.14-.17.04-.33.11-.48.21-.51.34-.77.91-.74,1.48M71.99,49.67c.2-.09.39-.16.59-.2.73-.17,1.47,0,1.94.43.37.34.55.91.44,1.38-.06.28-.26.66-.83.83-.47.14-1,.03-1.39-.29-.65-.54-.83-1.35-.76-2.14"/>
      <path class="cls-5" d="M63.36,67.59h0c-1.28-.86-3.01-.53-3.88.75l-1.12,1.66,4.63,3.12,1.12-1.66c.86-1.28.53-3.01-.75-3.88"/>
      <path class="cls-4" d="M62.99,73.83c-.14,0-.27-.04-.39-.12l-4.63-3.12c-.32-.22-.4-.65-.19-.97l1.12-1.66c1.08-1.6,3.25-2.02,4.85-.94h0c.77.52,1.3,1.31,1.48,2.23.18.92-.01,1.85-.53,2.62l-1.12,1.66c-.1.15-.26.26-.45.3-.04,0-.09.01-.13.01ZM59.33,69.81l3.47,2.34.73-1.08c.31-.46.43-1.02.32-1.57s-.42-1.02-.88-1.34h0c-.46-.31-1.02-.43-1.57-.32-.55.11-1.02.42-1.34.88l-.73,1.08Z"/>
      <path class="cls-5" d="M69.69,63.91c-1.08-1.44-2.47-2.46-4.13-3.04h0c-1.07-.38-2.24-.57-3.48-.57-.54,0-1.04-.25-1.35-.68l-.3-.4h0s-13.63-18.75-13.63-18.75c-1.53,1.48-1.78,3.91-.51,5.66l12.1,16.64h0s.49.67.49.67c.43.6,1.18.87,1.9.71,0,0,.02,0,.02,0,.24-.05,1.07-.19,2.1-.07,0,0,0,0,0,0t0,0c1.09.13,2.56.59,3.69,1.97l3.09-2.13Z"/>
      <path class="cls-4" d="M66.6,66.75c-.2,0-.4-.09-.54-.26-.99-1.21-2.31-1.6-3.24-1.72-.92-.11-1.67.02-1.88.06-1,.23-2.03-.15-2.63-.98l-12.59-17.32c-1.46-2.01-1.21-4.84.59-6.58.15-.14.34-.21.55-.19.2.02.39.12.51.29l13.61,18.73s0,0,.01.01l.3.4c.18.25.47.4.78.4h0c1.32,0,2.57.21,3.71.61,1.79.63,3.29,1.73,4.46,3.28.11.15.16.34.13.53-.03.19-.14.36-.29.46l-3.09,2.13c-.12.08-.26.12-.4.12ZM62.08,63.33c.28,0,.59.02.91.05,1.06.13,2.5.54,3.72,1.74l1.96-1.35c-.92-1.03-2.04-1.78-3.34-2.24-1-.35-2.09-.53-3.25-.53h0c-.76,0-1.48-.36-1.91-.97l-.28-.38s0-.01-.01-.02l-13.1-18.02c-.8,1.24-.8,2.89.09,4.11l12.59,17.32c.27.37.73.54,1.17.44.26-.05.78-.14,1.45-.14Z"/>
      <path class="cls-3" d="M71.42,75.18l4.84-3.27,10.97,16.19c.43.64.59,1.41.44,2.17-.15.76-.6,1.41-1.25,1.84-1.35.89-3.17.53-4.07-.79l-10.93-16.13Z"/>
      <path class="cls-4" d="M84.79,93.29c-1.17,0-2.32-.56-3.02-1.59l-10.93-16.13c-.1-.15-.14-.34-.11-.53.04-.18.14-.34.3-.45l4.84-3.27c.32-.22.76-.13.97.19l10.97,16.19c.54.8.73,1.76.54,2.7-.19.94-.74,1.75-1.55,2.28-.62.41-1.32.6-2.01.6ZM72.39,75.37l10.54,15.55c.68,1.01,2.08,1.28,3.1.6.49-.33.83-.82.95-1.39.12-.57,0-1.15-.33-1.64l-10.58-15.61-3.68,2.48Z"/>
      <path class="cls-2" d="M61.48,52.4c-.15-.1-.32-.16-.48-.21.62-.59.87-1.36.88-2.14.21.15.43.32.64.52.11.1.21.2.32.3.16.15.32.31.48.45.14.12.34.1.46-.03.12-.13.11-.34-.03-.46-.16-.14-.31-.28-.46-.43-.11-.11-.22-.21-.33-.32-.38-.35-.76-.63-1.15-.84-.05-.3-.13-.59-.23-.85-.1-.28-.23-.53-.37-.78.28.17.61.27.97.28.75.02,1.41-.38,1.78-.98-.34-.61-.98-1.04-1.73-1.06-.69-.02-1.29.32-1.67.84-.6-.67-1.35-1.15-2.15-1.37.22-.13.41-.29.58-.51.46-.6.53-1.36.26-2.01-.7-.09-1.42.17-1.88.77-.37.49-.48,1.08-.37,1.64-.48.04-.96.15-1.41.27-.86.23-1.71.53-2.54.87.08-.15.14-.3.19-.47.19-.73-.05-1.46-.56-1.95-.68.19-1.24.72-1.42,1.45-.15.59-.01,1.18.31,1.64-.17.09-.34.17-.51.26-1.5.78-2.93,1.51-4.72.88-.58-.2-1.05-.65-1.3-1.23-.24-.57-.23-1.21.04-1.77.02-.03.04-.06.05-.1-.12-.32-.19-.64-.2-.96-.16.25-.32.51-.45.8-.32.67-.34,1.45-.08,2.15-.43.15-.81.44-1.04.87-.33.61-.28,1.32.06,1.86.64-.02,1.26-.37,1.59-.98.1-.19.16-.39.19-.59.27.24.58.44.92.56.47.16.91.24,1.33.26-.21.29-.36.64-.39,1.03-.06.75.3,1.43.88,1.83.63-.3,1.1-.92,1.16-1.67.04-.48-.11-.93-.37-1.3.93-.2,1.79-.64,2.63-1.07.2-.1.4-.21.6-.3.89-.44,1.82-.82,2.77-1.14-.08.62.13,1.28.64,1.72.54.46,1.26.57,1.89.35.12-.65-.09-1.35-.63-1.81-.37-.32-.82-.45-1.27-.45.14-.04.27-.09.41-.12.62-.17,1.28-.32,1.93-.26,1.39.12,2.71,1.23,3.28,2.77.04.1.07.2.1.31-.1-.03-.2-.06-.3-.08-.94-.21-1.9.01-2.52.59-.54.5-.8,1.3-.64,2,.14.64.6,1.1,1.27,1.3.32.1.66.11,1,.05.09.4.33.77.7,1.01.51.34,1.14.34,1.65.09.03-.57-.23-1.14-.74-1.48M60.45,51.81c-.39.32-.92.44-1.39.29-.57-.17-.76-.55-.83-.83-.11-.47.07-1.04.44-1.38.47-.43,1.21-.59,1.94-.43.2.04.39.11.59.2.07.79-.11,1.6-.76,2.14"/>
      <path class="cls-5" d="M69.84,67.59h0c1.28-.86,3.01-.53,3.88.75l1.12,1.66-4.63,3.12-1.12-1.66c-.86-1.28-.53-3.01.75-3.88"/>
      <path class="cls-4" d="M70.21,73.83s-.09,0-.13-.01c-.18-.04-.34-.14-.45-.3l-1.12-1.66c-.52-.77-.71-1.7-.53-2.62.18-.92.7-1.71,1.48-2.23h0c.77-.52,1.71-.71,2.62-.53.92.18,1.71.7,2.23,1.48l1.12,1.66c.22.32.13.76-.19.97l-4.63,3.12c-.12.08-.25.12-.39.12ZM70.24,68.17c-.46.31-.78.79-.88,1.34-.11.55,0,1.11.32,1.57l.73,1.08,3.47-2.34-.73-1.08c-.65-.96-1.95-1.21-2.91-.56h0Z"/>
    </g>
  </g>
</svg>