<?xml version="1.0" encoding="UTF-8"?>
<svg id="Layer_2" data-name="Layer 2" xmlns="http://www.w3.org/2000/svg" viewBox="0 0 133.2 133.2">
  <defs>
    <style>
      .cls-1 {
        fill: none;
      }

      .cls-2 {
        fill: #5e7dbd;
      }

      .cls-3 {
        fill: #f8ead6;
      }

      .cls-4 {
        fill: #f8b62c;
      }

      .cls-5 {
        fill: #081b1e;
      }

      .cls-6 {
        fill: #f7e8d4;
      }

      .cls-7 {
        fill: #6cb360;
      }

      .cls-8 {
        fill: #ee4423;
      }
    </style>
  </defs>
  <g id="Art">
    <rect class="cls-3" width="133.2" height="133.2"/>
    <g>
      <polyline class="cls-4" points="69.24 42.18 82.41 42.18 85.87 56.12 81.04 56.12 78.98 46.87 70.46 46.87"/>
      <path class="cls-4" d="M65.35,39.93h-1.85c-.7,0-1.31.47-1.49,1.14l-2.73,9.12h12.14l-2.73-9.12c-.18-.67-.79-1.14-1.49-1.14h-1.85v-4.02"/>
      <path class="cls-4" d="M65.35,50.19h-6.49c-1.63,0-2.96,1.32-2.96,2.96v6.32h18.89"/>
      <path class="cls-4" d="M74.8,59.47v-6.32c0-1.63-1.32-2.96-2.96-2.96h-6.49"/>
      <rect class="cls-5" x="57.31" y="43.4" width="3.65" height="1"/>
      <polygon class="cls-4" points="57.16 46.32 48.69 45.43 48.69 42.38 57.16 41.48 57.16 46.32"/>
      <polygon class="cls-5" points="86.51 56.62 80.64 56.62 78.58 47.37 70.46 47.37 70.46 46.37 79.38 46.37 81.44 55.62 85.23 55.62 82.02 42.68 69.24 42.68 69.24 41.68 82.8 41.68 86.51 56.62"/>
      <path class="cls-5" d="M72.1,50.69h-13.49l2.92-9.76c.23-.88,1.04-1.5,1.97-1.5h1.35v-3.52h1v3.52h1.35c.92,0,1.73.62,1.97,1.51l2.92,9.75ZM59.95,49.69h10.8l-2.54-8.48c-.13-.47-.54-.79-1.01-.79h-3.7c-.47,0-.88.32-1,.77l-2.54,8.49Z"/>
      <path class="cls-5" d="M74.8,59.97h-19.39v-6.82c0-1.91,1.55-3.46,3.46-3.46h6.49v1h-6.49c-1.35,0-2.46,1.1-2.46,2.46v5.82h18.39v1Z"/>
      <path class="cls-5" d="M75.3,59.47h-1v-6.32c0-1.35-1.1-2.46-2.46-2.46h-6.49v-1h6.49c1.91,0,3.46,1.55,3.46,3.46v6.32Z"/>
      <path class="cls-5" d="M57.66,46.88l-9.47-1v-3.95l9.47-1v5.95ZM49.19,44.98l7.47.79v-3.73l-7.47.79v2.15Z"/>
      <rect class="cls-5" x="37.33" y="43.4" width="7.78" height="1"/>
      <rect class="cls-5" x="42.67" y="38.04" width="1" height="4.23" transform="translate(-10.7 64.12) rotate(-66.91)"/>
      <rect class="cls-5" x="41.05" y="47.15" width="4.23" height="1" transform="translate(-15.24 20.77) rotate(-23.11)"/>
      <g>
        <path class="cls-3" d="M65.35,58.61h-5.28c-5.33,0-9.65,4.32-9.65,9.65v21.82c0,2.61,2.12,4.73,4.73,4.73h10.2"/>
        <path class="cls-3" d="M65.35,58.61h5.28c5.33,0,9.65,4.32,9.65,9.65v21.82c0,2.61-2.12,4.73-4.73,4.73h-10.2"/>
      </g>
      <path class="cls-1" d="M70.63,59.09h-10.56c-4.81,0-8.75,3.72-9.13,8.43h28.82c-.38-4.71-4.32-8.43-9.13-8.43Z"/>
      <path class="cls-5" d="M70.63,59.09c4.81,0,8.75,3.72,9.13,8.43h.96c-.38-5.24-4.75-9.39-10.09-9.39h-5.28v.96h5.28Z"/>
      <path class="cls-5" d="M60.07,59.09h5.28v-.96h-5.28c-5.34,0-9.71,4.15-10.09,9.39h.96c.38-4.71,4.32-8.43,9.13-8.43Z"/>
      <path class="cls-2" d="M79.8,90.08v-19.75l-4.24,1.15c-3.67,1-7.43,1.5-11.21,1.5-1.38,0-2.77-.07-4.15-.2l-9.29-.9v18.2c0,2.34,1.91,4.25,4.25,4.25h20.39c2.34,0,4.25-1.91,4.25-4.25Z"/>
      <path class="cls-5" d="M79.8,68.26v1.08l.35-.1.25.93-.61.16v19.75c0,2.34-1.91,4.25-4.25,4.25h-10.2v.96h10.2c2.87,0,5.21-2.34,5.21-5.21v-21.82c0-.25-.02-.49-.04-.74h-.96c.02.24.04.49.04.74Z"/>
      <path class="cls-5" d="M49.95,90.08c0,2.87,2.34,5.21,5.21,5.21h10.2v-.96h-10.2c-2.34,0-4.25-1.91-4.25-4.25v-18.2l-.53-.05.09-.96.43.04v-2.66c0-.25.02-.49.04-.74h-.96c-.02.24-.04.49-.04.74v21.82Z"/>
      <path class="cls-5" d="M64.34,72.98c3.78,0,7.54-.5,11.21-1.5l4.24-1.15v-.99l-4.5,1.22c-4.9,1.33-9.95,1.76-15.02,1.27l-9.38-.91v.96l9.29.9c1.38.13,2.77.2,4.15.2Z"/>
      <polygon class="cls-5" points="80.4 70.17 80.15 69.24 79.8 69.34 79.8 70.33 80.4 70.17"/>
      <polygon class="cls-5" points="50.47 70.88 50.38 71.83 50.91 71.88 50.91 70.92 50.47 70.88"/>
      <g>
        <circle class="cls-6" cx="65.32" cy="88.06" r=".88"/>
        <circle class="cls-6" cx="76.14" cy="78.44" r="1.5"/>
      </g>
      <g>
        <path class="cls-4" d="M70.69,88.56c.77-.99,4.73-4.71,5.59-4.05s-1.73,5.44-2.5,6.43-2.08,1.27-2.93.61c-.85-.66-.92-1.99-.16-2.99"/>
        <path d="M71.92,92.4c-.5,0-.98-.15-1.38-.46-1.07-.83-1.18-2.48-.25-3.69h0c.04-.06,4.79-5.3,6.29-4.14.41.31.72,1.02-.49,3.69-.65,1.43-1.5,2.9-1.92,3.44-.58.75-1.43,1.16-2.25,1.16ZM71.08,88.87h0c-.6.77-.57,1.8.07,2.29.63.48,1.63.25,2.23-.52.93-1.21,2.71-4.88,2.57-5.71-.83.07-3.93,2.73-4.87,3.94Z"/>
      </g>
      <g>
        <path class="cls-7" d="M61.47,78.34c3.16-1.03,10.14-2.02,10.6-.6.46,1.42-5.77,4.71-8.93,5.74-3.16,1.03-.52-1.1-.98-2.52-.46-1.42-3.84-1.59-.69-2.62"/>
        <path d="M61.93,84.25c-.29,0-.52-.08-.68-.26-.37-.4-.14-.93.11-1.49.2-.45.44-1.02.32-1.39-.12-.37-.65-.68-1.08-.93-.53-.31-1.02-.6-.96-1.14.06-.55.66-.84,1.67-1.17,1.81-.59,10.49-2.53,11.23-.28.73,2.25-7.44,5.78-9.25,6.37-.56.18-1.01.3-1.36.3ZM60.8,79.13c.1.06.21.13.31.18.57.34,1.28.76,1.52,1.49.24.73-.09,1.49-.36,2.09-.04.1-.1.22-.14.33.17-.03.43-.09.85-.23,3.87-1.26,8.74-4.3,8.61-5.11-.37-.74-6.09-.33-9.97.93-.42.14-.67.24-.82.32Z"/>
      </g>
      <g>
        <path class="cls-8" d="M58.24,86.89c-1.24-1.71-3.04-2.78-4.97-3.15-.24,1.95.22,3.99,1.46,5.7,1.24,1.71,3.04,2.78,4.97,3.15.24-1.95-.22-3.99-1.46-5.7"/>
        <path d="M60.13,93.18l-.52-.1c-2.13-.41-4.01-1.6-5.28-3.35-1.27-1.75-1.82-3.9-1.55-6.05l.07-.53.52.1c2.13.41,4.01,1.6,5.28,3.35h0c1.27,1.75,1.82,3.9,1.55,6.05l-.07.53ZM53.72,84.36c-.09,1.71.4,3.4,1.42,4.79,1.01,1.39,2.46,2.38,4.12,2.83.09-1.71-.41-3.4-1.42-4.79h0c-1.01-1.39-2.46-2.38-4.12-2.83Z"/>
      </g>
      <circle class="cls-6" cx="56.02" cy="76.28" r=".75"/>
    </g>
  </g>
</svg>