<?xml version="1.0" encoding="UTF-8"?>
<svg id="Layer_2" data-name="Layer 2" xmlns="http://www.w3.org/2000/svg" viewBox="0 0 133.2 133.2">
  <defs>
    <style>
      .cls-1 {
        fill: #f8ead6;
      }

      .cls-2 {
        fill: #e6a631;
      }

      .cls-3 {
        fill: #f8b62c;
      }

      .cls-4 {
        fill: #081b1e;
      }

      .cls-5 {
        fill: #6fb360;
      }
    </style>
  </defs>
  <g id="Art">
    <rect class="cls-1" width="133.2" height="133.2"/>
    <path class="cls-5" d="M76.16,66.6c0,5.28-4.28,9.56-9.56,9.56s-9.56-4.28-9.56-9.56,4.28-9.56,9.56-9.56,9.56,4.28,9.56,9.56"/>
    <path class="cls-3" d="M59.84,100.5c0-4.25,2.96-22.44,6.61-22.44s6.61,18.19,6.61,22.44-2.96,7.7-6.61,7.7-6.61-3.45-6.61-7.7"/>
    <path class="cls-4" d="M66.44,108.7c-3.92,0-7.11-3.68-7.11-8.2,0-3.08,2.69-22.94,7.11-22.94s7.11,19.86,7.11,22.94c0,4.52-3.19,8.2-7.11,8.2ZM66.44,78.56c-2.86,0-6.11,16.6-6.11,21.94,0,3.97,2.74,7.2,6.11,7.2s6.11-3.23,6.11-7.2c0-5.34-3.25-21.94-6.11-21.94Z"/>
    <path class="cls-3" d="M41.2,90.05c2.5-3.44,15.58-16.42,18.54-14.27,2.95,2.14-5.35,18.6-7.84,22.04-2.5,3.44-6.92,4.49-9.87,2.34-2.95-2.14-3.32-6.67-.82-10.11"/>
    <path class="cls-4" d="M45.52,101.77c-1.35,0-2.67-.39-3.79-1.2-1.55-1.12-2.49-2.88-2.66-4.93-.16-2.03.45-4.12,1.73-5.88,1.81-2.49,15.66-16.98,19.23-14.38,3.57,2.59-5.93,20.25-7.73,22.74-1.72,2.36-4.3,3.66-6.78,3.66ZM58.85,76.02c-3.34,0-14.31,10.3-17.24,14.33h0c-1.14,1.57-1.69,3.42-1.54,5.21.14,1.76.94,3.26,2.25,4.21,2.72,1.98,6.84.98,9.17-2.23,3.14-4.32,10.27-19.66,7.96-21.34-.16-.11-.36-.17-.6-.17Z"/>
    <path class="cls-3" d="M32.27,70.64c4.04-1.31,22.26-4.12,23.38-.65,1.13,3.47-15.26,11.91-19.3,13.22-4.04,1.31-8.24-.43-9.36-3.91-1.13-3.47,1.24-7.35,5.28-8.66"/>
    <path class="cls-4" d="M33.64,84.15c-3.27,0-6.19-1.79-7.13-4.69-.59-1.82-.32-3.79.75-5.55,1.06-1.74,2.78-3.07,4.85-3.74,2.14-.69,7.83-1.72,12.9-2.14,10.25-.85,10.9,1.15,11.12,1.81.21.66.87,2.66-7.93,8-4.35,2.64-9.56,5.15-11.69,5.85-.96.31-1.93.46-2.87.46ZM32.42,71.12c-1.84.6-3.37,1.77-4.31,3.31-.92,1.51-1.15,3.19-.65,4.73,1.04,3.2,4.96,4.81,8.73,3.58,2.08-.68,7.19-3.15,11.48-5.75,5.98-3.63,7.8-5.91,7.5-6.84-.3-.92-3.11-1.7-10.08-1.12-5,.42-10.59,1.42-12.67,2.1h0Z"/>
    <path class="cls-3" d="M36.45,49.69c4.04,1.31,20.43,9.75,19.3,13.22-1.13,3.47-19.34.66-23.38-.65-4.04-1.31-6.41-5.19-5.28-8.66,1.13-3.47,5.32-5.22,9.36-3.91"/>
    <path class="cls-4" d="M49.45,65.06c-6.43,0-15.34-1.71-17.24-2.33-4.3-1.4-6.81-5.57-5.6-9.29.59-1.82,1.97-3.26,3.87-4.05,1.88-.78,4.05-.84,6.12-.17,2.14.69,7.35,3.21,11.7,5.85,8.79,5.33,8.14,7.34,7.93,8-.48,1.48-3.26,2-6.78,2ZM33.72,49.75c-.99,0-1.96.19-2.85.56-1.63.68-2.81,1.9-3.3,3.44-1.04,3.2,1.18,6.81,4.96,8.03,5.08,1.65,21.87,3.69,22.75.97.3-.92-1.51-3.21-7.5-6.84-4.29-2.6-9.4-5.08-11.48-5.75h0c-.85-.28-1.72-.41-2.57-.41Z"/>
    <path class="cls-3" d="M52.14,35.2c2.5,3.44,10.8,19.89,7.85,22.04-2.95,2.15-16.04-10.83-18.54-14.27-2.5-3.44-2.13-7.97.82-10.11,2.95-2.15,7.37-1.09,9.87,2.34"/>
    <path class="cls-4" d="M59.18,58c-1.24,0-3.73-.93-8.95-5.43-3.85-3.32-7.86-7.5-9.18-9.32-1.28-1.76-1.89-3.85-1.73-5.88.17-2.06,1.11-3.81,2.66-4.93,1.55-1.12,3.51-1.48,5.51-1,1.98.47,3.78,1.7,5.05,3.46h0c1.81,2.49,11.3,20.14,7.73,22.74-.19.13-.49.36-1.11.36ZM45.78,32.24c-1.18,0-2.28.35-3.21,1.02-1.31.95-2.11,2.44-2.25,4.21-.15,1.79.4,3.64,1.54,5.21,1.29,1.77,5.22,5.87,9.02,9.15,5.3,4.57,8.03,5.59,8.82,5.02,2.31-1.68-4.82-17.02-7.96-21.34h0c-1.14-1.57-2.73-2.66-4.48-3.07-.5-.12-1-.18-1.49-.18Z"/>
    <path class="cls-3" d="M73.36,32.7c0,4.25-2.96,22.44-6.61,22.44s-6.61-18.19-6.61-22.44,2.96-7.7,6.61-7.7,6.61,3.45,6.61,7.7"/>
    <path class="cls-4" d="M66.76,55.64c-4.42,0-7.11-19.86-7.11-22.94,0-4.52,3.19-8.2,7.11-8.2s7.11,3.68,7.11,8.2c0,3.08-2.69,22.94-7.11,22.94ZM66.76,25.5c-3.37,0-6.11,3.23-6.11,7.2,0,5.34,3.25,21.94,6.11,21.94s6.11-16.6,6.11-21.94c0-3.97-2.74-7.2-6.11-7.2Z"/>
    <path class="cls-3" d="M92,43.15c-2.5,3.44-15.58,16.42-18.54,14.27-2.95-2.14,5.35-18.6,7.84-22.04,2.5-3.44,6.92-4.49,9.87-2.34,2.95,2.14,3.32,6.67.82,10.11"/>
    <path class="cls-4" d="M74.28,58.18c-.61,0-.92-.22-1.11-.36-3.57-2.59,5.93-20.25,7.73-22.74,1.28-1.76,3.07-2.99,5.06-3.46,2.01-.48,3.97-.12,5.51,1,1.55,1.12,2.49,2.88,2.66,4.93.16,2.03-.45,4.12-1.73,5.88-1.32,1.82-5.32,5.99-9.18,9.32-5.22,4.5-7.71,5.43-8.95,5.43ZM87.68,32.42c-.49,0-.98.06-1.49.18-1.75.42-3.34,1.51-4.48,3.07-3.14,4.32-10.27,19.66-7.96,21.34.79.57,3.52-.45,8.82-5.02,3.8-3.28,7.73-7.37,9.02-9.15h0c1.14-1.57,1.69-3.42,1.54-5.21-.14-1.76-.94-3.26-2.25-4.21-.93-.67-2.03-1.02-3.21-1.02Z"/>
    <path class="cls-3" d="M100.93,62.55c-4.04,1.31-22.26,4.12-23.38.65-1.13-3.47,15.26-11.91,19.3-13.22,4.04-1.31,8.24.43,9.36,3.91,1.13,3.47-1.24,7.35-5.28,8.66"/>
    <path class="cls-4" d="M83.85,65.36c-3.52,0-6.3-.51-6.78-2-.21-.66-.87-2.66,7.93-8,4.35-2.64,9.56-5.15,11.7-5.85,4.3-1.4,8.78.5,9.99,4.23.59,1.82.33,3.79-.75,5.55-1.06,1.74-2.78,3.07-4.85,3.74h0c-1.89.61-10.8,2.33-17.24,2.33ZM99.57,50.05c-.84,0-1.71.13-2.57.41-2.08.68-7.2,3.15-11.48,5.75-5.98,3.63-7.8,5.91-7.5,6.84.88,2.72,17.67.68,22.75-.97,1.84-.6,3.37-1.77,4.31-3.31.92-1.51,1.15-3.19.65-4.73-.8-2.47-3.32-4-6.17-4Z"/>
    <path class="cls-3" d="M96.75,83.51c-4.04-1.31-20.43-9.75-19.3-13.22,1.13-3.47,19.34-.66,23.38.65,4.04,1.31,6.41,5.19,5.28,8.66-1.13,3.47-5.32,5.22-9.36,3.91"/>
    <path class="cls-4" d="M99.48,84.45c-.96,0-1.93-.15-2.88-.46-2.14-.69-7.35-3.21-11.69-5.85-8.79-5.33-8.14-7.34-7.93-8,1.37-4.2,21.09-.62,24.01.33,4.3,1.4,6.81,5.57,5.6,9.29-.59,1.82-1.97,3.26-3.87,4.05-1.01.42-2.12.63-3.24.63ZM83.6,69.12c-3.06,0-5.36.37-5.67,1.33-.3.92,1.51,3.21,7.49,6.84,4.29,2.6,9.4,5.08,11.48,5.75,1.84.6,3.77.55,5.43-.14,1.63-.68,2.81-1.9,3.3-3.44,1.04-3.2-1.18-6.81-4.96-8.03-3.29-1.07-11.47-2.3-17.08-2.3Z"/>
    <path class="cls-3" d="M81.06,98c-2.5-3.44-10.8-19.89-7.85-22.04,2.95-2.15,16.04,10.83,18.54,14.27,2.5,3.44,2.13,7.97-.82,10.11-2.95,2.15-7.37,1.09-9.87-2.34"/>
    <path class="cls-4" d="M87.43,101.96c-.56,0-1.14-.07-1.72-.21-1.98-.47-3.78-1.7-5.05-3.46h0c-1.81-2.49-11.3-20.14-7.73-22.74.56-.41,2.27-1.65,10.06,5.07,3.85,3.32,7.86,7.5,9.18,9.32,2.66,3.66,2.24,8.51-.93,10.81-1.1.8-2.41,1.21-3.79,1.21ZM81.46,97.71c1.14,1.57,2.73,2.66,4.48,3.07,1.72.41,3.39.11,4.7-.84,2.72-1.98,3.04-6.2.71-9.41-1.29-1.77-5.22-5.87-9.02-9.15-5.3-4.57-8.03-5.58-8.82-5.02-2.31,1.68,4.82,17.02,7.96,21.34h0Z"/>
    <path class="cls-1" d="M58.54,69.7c.11.28.23.55.37.82,1.05,2.06,2.83,3.58,5.03,4.29.72.23,1.46.37,2.21.41v-7.99l-7.61,2.47Z"/>
    <path class="cls-5" d="M72.04,59.9l-4.7,6.46,7.6,2.47c.9-3.36-.32-6.84-2.9-8.93Z"/>
    <path class="cls-1" d="M67.06,75.22c3.41-.18,6.38-2.33,7.6-5.53l-7.6-2.47v7.99Z"/>
    <path class="cls-5" d="M71.3,59.36c-.62-.4-1.29-.74-2.03-.98-.87-.28-1.77-.43-2.67-.43-1.72,0-3.34.51-4.7,1.39l4.7,6.47,4.7-6.46Z"/>
    <path class="cls-1" d="M61.16,59.89c-1.26,1.03-2.24,2.41-2.78,4.04-.52,1.61-.56,3.3-.13,4.9l7.61-2.47-4.7-6.47Z"/>
    <path class="cls-2" d="M57.68,69.98h0s-.02-.05-.02-.07l.02.07Z"/>
    <path class="cls-2" d="M66.15,66.75l-.28-.39-7.61,2.47c.08.29.17.58.28.87l7.61-2.47v-.48Z"/>
    <path class="cls-2" d="M66.32,66.21l.28-.39-4.7-6.47c-.26.17-.5.34-.74.54l4.7,6.47.46-.15Z"/>
    <path class="cls-2" d="M61.36,58.6l-.74.54h0c.24-.18.49-.36.74-.52h-.01Z"/>
    <polygon class="cls-2" points="66.61 66.6 66.24 66.33 66.32 66.21 65.87 66.36 66.15 66.75 66.15 66.6 66.61 66.6"/>
    <path class="cls-2" d="M75.54,69.98l.03-.09s-.02.06-.03.09h0Z"/>
    <path class="cls-2" d="M67.06,66.75v.48l7.6,2.47c.05-.14.11-.28.16-.43.05-.15.08-.29.12-.44l-7.6-2.47-.28.39Z"/>
    <path class="cls-2" d="M66.61,67.08l-.46.15v7.99c.15,0,.31.02.46.02s.3-.01.45-.02v-7.99l-.46-.15Z"/>
    <polygon class="cls-2" points="66.61 66.6 66.24 66.87 66.15 66.75 66.15 67.23 66.61 67.08 66.46 67.03 66.61 66.6"/>
    <polygon class="cls-2" points="66.61 66.6 66.15 66.6 66.15 66.75 66.24 66.87 66.61 66.6"/>
    <polygon class="cls-2" points="66.61 66.6 66.75 67.03 66.61 67.08 67.06 67.23 67.06 66.75 66.97 66.87 66.61 66.6"/>
    <polygon class="cls-2" points="66.61 66.6 66.46 67.03 66.61 67.08 66.75 67.03 66.61 66.6"/>
    <path class="cls-2" d="M72.58,59.15l-.09-.07s.06.05.09.07h0Z"/>
    <path class="cls-2" d="M71.84,58.61h0s.04.03.06.04l-.06-.04Z"/>
    <path class="cls-2" d="M66.89,66.21l.46.15,4.7-6.46c-.24-.19-.48-.37-.74-.54l-4.7,6.46.28.39Z"/>
    <polygon class="cls-2" points="66.61 66.6 66.75 66.17 66.89 66.21 66.61 65.82 66.32 66.21 66.46 66.17 66.61 66.6"/>
    <polygon class="cls-2" points="66.61 66.6 66.46 66.17 66.32 66.21 66.24 66.33 66.61 66.6"/>
    <polygon class="cls-2" points="66.97 66.33 66.61 66.6 67.06 66.6 67.06 66.75 67.34 66.36 66.89 66.21 66.97 66.33"/>
    <polygon class="cls-2" points="66.61 66.6 66.97 66.33 66.89 66.21 66.75 66.17 66.61 66.6"/>
    <polygon class="cls-2" points="66.61 66.6 66.97 66.87 67.06 66.75 67.06 66.6 66.61 66.6"/>
    <path class="cls-2" d="M71.9,58.66l.59.43c-.19-.15-.38-.29-.59-.43Z"/>
    <path class="cls-2" d="M75.69,69.55c.03-.1.05-.19.08-.29l-.21.63c.04-.11.09-.23.13-.34Z"/>
    <path class="cls-2" d="M66.6,57.96c.9,0,1.8.14,2.67.43.73.24,1.41.57,2.03.98l.54-.74c-.69-.46-1.45-.84-2.28-1.1-.98-.32-1.98-.47-2.95-.47-1.88,0-3.69.57-5.23,1.57l.53.73c1.37-.89,2.98-1.39,4.7-1.39Z"/>
    <path class="cls-2" d="M58.26,68.83c-.43-1.6-.4-3.29.13-4.9.53-1.63,1.51-3.02,2.78-4.04l-.53-.74c-1.41,1.13-2.51,2.65-3.11,4.49-.69,2.13-.59,4.32.13,6.26l-.26-.8.87-.28Z"/>
    <path class="cls-2" d="M63.94,74.82c-2.19-.71-3.98-2.24-5.03-4.29-.14-.27-.26-.54-.37-.82l-.87.28c.99,2.61,3.11,4.77,5.98,5.7.83.27,1.67.41,2.5.45v-.91c-.75-.04-1.49-.17-2.21-.41Z"/>
    <path class="cls-2" d="M67.06,75.22v.91c3.71-.18,7.09-2.52,8.47-6.16l-.87-.28c-1.22,3.19-4.19,5.35-7.6,5.53Z"/>
    <path class="cls-2" d="M74.94,68.83l.87.28c1.03-3.75-.34-7.63-3.23-9.95l-.54.74c2.58,2.1,3.8,5.57,2.9,8.93Z"/>
    <path class="cls-2" d="M58.26,68.83l-.87.28.26.8s.02.05.02.07l.87-.28c-.11-.29-.2-.58-.28-.87Z"/>
    <path class="cls-2" d="M61.9,59.35l-.53-.73c-.25.17-.5.34-.74.54l.53.74c.24-.19.48-.37.74-.54Z"/>
    <path class="cls-2" d="M74.94,68.83c-.04.15-.07.29-.12.44-.05.15-.1.29-.16.43l.87.28s.02-.06.03-.09l.21-.63c.01-.05.03-.1.04-.15l-.87-.28Z"/>
    <path class="cls-2" d="M72.04,59.9l.54-.74s-.06-.05-.09-.07l-.59-.43s-.04-.03-.06-.04l-.54.74c.26.17.5.35.74.54Z"/>
    <rect class="cls-4" x="57.3" y="67.57" width="9.54" height="1" transform="translate(-17.98 22.48) rotate(-17.97)"/>
    <rect class="cls-4" x="63.29" y="57.96" width="1" height="9.55" transform="translate(-24.69 49.48) rotate(-36)"/>
    <rect class="cls-4" x="70.64" y="63.3" width="1" height="9.54" transform="translate(-15.59 114.69) rotate(-72)"/>
    <rect class="cls-4" x="66.1" y="66.6" width="1" height="9.55"/>
    <rect class="cls-4" x="64.64" y="62.24" width="9.54" height="1" transform="translate(-22.16 81.98) rotate(-53.98)"/>
    <path class="cls-4" d="M66.6,58.04h0c.89,0,1.78.14,2.64.42,2.17.71,3.94,2.22,4.98,4.25,1.04,2.04,1.22,4.35.51,6.53-1.15,3.54-4.42,5.91-8.13,5.91-.89,0-1.78-.14-2.64-.42-2.17-.71-3.94-2.22-4.98-4.25-1.04-2.04-1.22-4.35-.51-6.53,1.15-3.54,4.42-5.91,8.13-5.91M66.6,57.04c-4.03,0-7.77,2.57-9.08,6.6-1.63,5.02,1.12,10.41,6.13,12.04.98.32,1.98.47,2.95.47,4.03,0,7.77-2.57,9.08-6.6,1.63-5.02-1.12-10.41-6.13-12.04-.98-.32-1.98-.47-2.95-.47h0Z"/>
  </g>
</svg>