<?xml version="1.0" encoding="UTF-8"?>
<svg id="Layer_2" data-name="Layer 2" xmlns="http://www.w3.org/2000/svg" viewBox="0 0 133.2 133.2">
  <defs>
    <style>
      .cls-1 {
        fill: #5e7dbd;
      }

      .cls-2 {
        fill: #f8ead6;
      }

      .cls-3 {
        fill: #e6a631;
      }

      .cls-4 {
        fill: #081b1e;
      }

      .cls-5 {
        fill: #984398;
      }
    </style>
  </defs>
  <g id="Art">
    <rect class="cls-2" width="133.2" height="133.2"/>
    <path class="cls-5" d="M76.16,66.6c0,5.28-4.28,9.56-9.56,9.56s-9.56-4.28-9.56-9.56,4.28-9.56,9.56-9.56,9.56,4.28,9.56,9.56"/>
    <path class="cls-1" d="M68.5,80.46l3.98,12.26c1.12,3.45.68,7.6-1.09,10.33l-3.33,5.11c-.82,1.26-2.16,1.26-2.98,0l-3.28-5.04c-1.77-2.73-2.21-6.89-1.09-10.34l4.01-12.33c.78-2.39,3-2.39,3.77,0"/>
    <path class="cls-4" d="M66.58,109.61c-.74,0-1.42-.42-1.91-1.18l-3.28-5.04c-1.85-2.85-2.31-7.18-1.15-10.76l4.01-12.33c.43-1.32,1.33-2.14,2.36-2.14h0c1.03,0,1.93.82,2.36,2.14l3.98,12.26c1.16,3.59.7,7.91-1.15,10.75l-3.33,5.11c-.49.76-1.17,1.18-1.91,1.18h0ZM66.62,79.16c-.58,0-1.12.55-1.41,1.45l-4.01,12.33c-1.08,3.32-.67,7.3,1.03,9.91l3.28,5.04c.61.93,1.54.93,2.14,0l3.33-5.11c1.7-2.61,2.11-6.59,1.04-9.9l-3.98-12.26c-.29-.89-.83-1.45-1.41-1.45h0Z"/>
    <path class="cls-1" d="M60,78.93l-3.99,12.26c-1.12,3.44-3.92,6.55-6.96,7.71l-5.7,2.18c-1.41.54-2.49-.24-2.41-1.75l.31-6c.17-3.25,2.26-6.88,5.19-9l10.5-7.62c2.03-1.47,3.83-.17,3.05,2.22"/>
    <path class="cls-4" d="M42.5,101.76c-.45,0-.86-.13-1.2-.38-.6-.43-.9-1.17-.85-2.07l.31-6c.18-3.4,2.35-7.17,5.4-9.38l10.5-7.62c1.12-.81,2.33-.94,3.16-.34.83.6,1.08,1.8.65,3.12l-3.99,12.26c-1.17,3.58-4.08,6.81-7.25,8.02l-5.7,2.18c-.36.14-.71.21-1.04.21ZM58.61,76.59c-.41,0-.89.18-1.37.53l-10.5,7.62c-2.82,2.05-4.83,5.52-4.99,8.63l-.31,6c-.03.55.13.98.44,1.21.31.23.77.24,1.29.05l5.7-2.18c2.91-1.11,5.58-4.09,6.66-7.4l3.99-12.26c.29-.89.18-1.66-.29-2-.17-.13-.39-.19-.62-.19Z"/>
    <path class="cls-1" d="M54.01,72.69l-10.44,7.58c-2.93,2.13-7.02,3-10.16,2.15l-5.89-1.58c-1.46-.39-1.87-1.66-.92-2.83l3.78-4.67c2.04-2.53,5.87-4.23,9.49-4.23h12.97c2.51,0,3.19,2.12,1.16,3.59"/>
    <path class="cls-4" d="M35.96,83.24c-.93,0-1.84-.11-2.68-.34l-5.89-1.58c-.87-.23-1.48-.75-1.71-1.45-.23-.7-.04-1.48.53-2.18l3.78-4.67c2.14-2.64,6.1-4.42,9.88-4.42h12.98c1.38,0,2.44.62,2.76,1.59.32.98-.18,2.09-1.3,2.91l-10.43,7.58c-2.27,1.65-5.2,2.57-7.9,2.57ZM39.87,69.6c-3.49,0-7.14,1.62-9.1,4.05l-3.78,4.67c-.35.43-.47.87-.35,1.24.12.37.48.65,1.02.8l5.89,1.58c3,.81,6.92-.03,9.73-2.07l10.43-7.58c.76-.55,1.12-1.24.94-1.79-.18-.55-.87-.89-1.81-.89h-12.97s0,0,0,0Z"/>
    <path class="cls-1" d="M52.83,64.13h-12.9c-3.62,0-7.44-1.71-9.48-4.23l-3.83-4.74c-.95-1.17-.54-2.44.92-2.84l5.8-1.56c3.14-.84,7.24.02,10.17,2.16l10.49,7.63c2.03,1.48,1.34,3.59-1.17,3.59"/>
    <path class="cls-4" d="M52.83,64.63h-12.9c-3.77,0-7.74-1.78-9.87-4.42l-3.83-4.74c-.57-.7-.76-1.48-.53-2.18.23-.7.83-1.22,1.71-1.45l5.8-1.56c3.28-.88,7.54.02,10.59,2.24l10.49,7.63c1.12.81,1.62,1.93,1.3,2.91-.32.98-1.38,1.58-2.76,1.58ZM35.91,50.93c-.85,0-1.67.1-2.44.31l-5.8,1.56c-.54.14-.9.43-1.02.8-.12.37,0,.81.36,1.24l3.83,4.74c1.96,2.42,5.61,4.04,9.09,4.05h12.9c.94,0,1.63-.34,1.81-.89.18-.55-.18-1.24-.94-1.79l-10.49-7.63c-2.1-1.53-4.82-2.38-7.31-2.38Z"/>
    <path class="cls-1" d="M56.92,56.51l-10.43-7.58c-2.93-2.13-5.02-5.75-5.19-9l-.31-6.09c-.08-1.51,1-2.29,2.41-1.75l5.61,2.15c3.04,1.16,5.84,4.27,6.96,7.72l4,12.34c.77,2.39-1.02,3.69-3.05,2.21"/>
    <path class="cls-4" d="M58.58,57.63c-.62,0-1.31-.24-1.96-.72l-10.43-7.58c-3.05-2.22-5.22-5.98-5.39-9.38l-.31-6.09c-.05-.9.26-1.64.85-2.07.6-.43,1.39-.5,2.24-.17l5.61,2.15c3.18,1.22,6.09,4.45,7.25,8.04l4,12.34c.43,1.32.17,2.51-.66,3.12-.35.25-.76.38-1.2.38ZM57.21,56.1c.76.55,1.52.68,1.99.34.47-.34.58-1.11.29-2l-4-12.34c-1.07-3.32-3.75-6.3-6.66-7.41l-5.61-2.15c-.52-.2-.98-.18-1.29.05-.31.23-.47.66-.44,1.21l.31,6.09c.16,3.11,2.16,6.57,4.98,8.62l10.43,7.58Z"/>
    <path class="cls-1" d="M64.7,52.74l-3.98-12.26c-1.12-3.45-.68-7.6,1.09-10.33l3.33-5.11c.82-1.26,2.16-1.26,2.98,0l3.28,5.04c1.77,2.73,2.21,6.89,1.09,10.34l-4.01,12.33c-.78,2.39-3,2.39-3.77,0"/>
    <path class="cls-4" d="M66.58,55.03h0c-1.03,0-1.93-.82-2.36-2.14l-3.98-12.26c-1.16-3.59-.7-7.91,1.15-10.75l3.33-5.11c.49-.76,1.17-1.18,1.91-1.18h0c.74,0,1.42.42,1.91,1.18l3.28,5.04c1.85,2.85,2.31,7.18,1.15,10.76l-4.01,12.33c-.43,1.32-1.33,2.13-2.36,2.13ZM65.17,52.59c.29.89.83,1.45,1.41,1.45.61-.02,1.12-.55,1.41-1.44l4.01-12.33c1.08-3.32.67-7.3-1.03-9.91l-3.28-5.04c-.61-.93-1.54-.93-2.14,0l-3.33,5.11c-1.7,2.61-2.11,6.59-1.04,9.9l3.98,12.26Z"/>
    <path class="cls-1" d="M73.21,54.27l3.99-12.26c1.12-3.44,3.92-6.55,6.96-7.71l5.7-2.18c1.41-.54,2.49.24,2.41,1.75l-.31,6c-.17,3.25-2.26,6.88-5.19,9l-10.5,7.62c-2.03,1.47-3.83.17-3.05-2.22"/>
    <path class="cls-4" d="M74.59,57.61c-.45,0-.86-.12-1.21-.38-.83-.6-1.08-1.8-.65-3.12l3.99-12.26c1.17-3.58,4.08-6.81,7.25-8.02l5.7-2.18c.85-.32,1.64-.26,2.24.17.6.43.9,1.17.85,2.07l-.31,6c-.18,3.4-2.35,7.17-5.4,9.38l-10.5,7.62c-.65.47-1.34.72-1.96.72ZM90.7,32.44c-.21,0-.43.05-.67.14l-5.7,2.18c-2.91,1.11-5.58,4.09-6.66,7.4l-3.99,12.26c-.29.89-.18,1.66.29,2,.47.34,1.23.21,1.99-.34l10.5-7.62c2.82-2.05,4.83-5.51,4.99-8.63l.31-6c.03-.55-.13-.98-.44-1.21-.17-.12-.38-.18-.62-.18Z"/>
    <path class="cls-1" d="M79.19,60.51l10.44-7.58c2.93-2.13,7.02-3,10.16-2.15l5.89,1.58c1.46.39,1.87,1.66.92,2.83l-3.78,4.67c-2.04,2.53-5.87,4.23-9.49,4.23h-12.97c-2.51,0-3.19-2.12-1.16-3.59"/>
    <path class="cls-4" d="M93.33,64.6h-12.98c-1.39,0-2.44-.62-2.76-1.59-.32-.98.18-2.09,1.3-2.91l10.44-7.58c3.05-2.22,7.3-3.11,10.58-2.23l5.89,1.58c.87.23,1.48.75,1.71,1.45.23.7.04,1.48-.53,2.18l-3.78,4.67c-2.13,2.64-6.1,4.42-9.88,4.42ZM79.49,60.91h0c-.76.55-1.12,1.24-.94,1.79.18.55.87.89,1.81.89h12.97s0,0,0,0c3.49,0,7.14-1.63,9.1-4.05l3.78-4.67c.35-.43.47-.87.35-1.24-.12-.37-.48-.65-1.02-.79l-5.89-1.58c-3-.81-6.91.03-9.73,2.07l-10.44,7.58Z"/>
    <path class="cls-1" d="M80.37,69.07h12.9c3.62,0,7.44,1.71,9.48,4.23l3.83,4.74c.95,1.17.54,2.44-.92,2.84l-5.8,1.56c-3.14.84-7.24-.02-10.17-2.16l-10.49-7.63c-2.03-1.48-1.34-3.59,1.17-3.59"/>
    <path class="cls-4" d="M97.31,83.26c-2.71,0-5.64-.92-7.91-2.57l-10.49-7.63c-1.12-.82-1.62-1.93-1.3-2.91.32-.98,1.38-1.58,2.76-1.58h12.9c3.77,0,7.74,1.78,9.87,4.42l3.83,4.74c.57.7.76,1.48.53,2.18-.23.7-.83,1.22-1.71,1.45l-5.8,1.56c-.84.23-1.75.34-2.68.34ZM80.37,69.57c-.94,0-1.63.34-1.81.89-.18.55.18,1.24.94,1.79l10.49,7.63c2.82,2.05,6.74,2.88,9.74,2.08l5.8-1.56c.54-.14.9-.43,1.02-.8.12-.37,0-.81-.36-1.24l-3.83-4.74c-1.96-2.42-5.61-4.04-9.09-4.05h-12.9Z"/>
    <path class="cls-1" d="M76.29,76.69l10.43,7.58c2.93,2.13,5.02,5.75,5.19,9l.31,6.09c.08,1.51-1,2.29-2.41,1.75l-5.61-2.15c-3.04-1.16-5.84-4.27-6.96-7.72l-4-12.34c-.77-2.39,1.02-3.69,3.05-2.21"/>
    <path class="cls-4" d="M90.66,101.79c-.33,0-.68-.07-1.04-.21l-5.61-2.15c-3.18-1.22-6.09-4.45-7.25-8.04l-4-12.34c-.43-1.32-.18-2.51.66-3.12.83-.6,2.04-.47,3.17.34l10.43,7.58c3.05,2.22,5.22,5.98,5.39,9.38l.31,6.09c.05.9-.26,1.64-.85,2.07-.34.25-.75.38-1.2.38ZM74.63,76.57c-.24,0-.45.06-.62.19-.47.34-.58,1.11-.29,2l4,12.34c1.07,3.32,3.75,6.29,6.66,7.41l5.61,2.15c.52.2.98.18,1.29-.05.31-.23.47-.66.44-1.21l-.31-6.09c-.16-3.11-2.16-6.57-4.98-8.62l-10.43-7.58c-.48-.35-.96-.53-1.37-.53Z"/>
    <path class="cls-5" d="M58.54,69.7c.11.28.23.55.37.82,1.05,2.06,2.83,3.58,5.03,4.29.72.23,1.46.37,2.21.41v-8l-7.61,2.47Z"/>
    <path class="cls-5" d="M72.04,59.9l-4.7,6.46,7.6,2.47c.9-3.36-.32-6.84-2.9-8.93Z"/>
    <path class="cls-5" d="M67.06,75.22c3.41-.18,6.38-2.33,7.6-5.53l-7.6-2.47v8Z"/>
    <path class="cls-5" d="M71.3,59.36c-.62-.4-1.29-.74-2.03-.98-.87-.28-1.77-.43-2.67-.43-1.72,0-3.34.51-4.7,1.39l4.7,6.47,4.7-6.46Z"/>
    <path class="cls-2" d="M61.16,59.89c-1.26,1.03-2.25,2.41-2.78,4.04-.52,1.61-.56,3.3-.13,4.9l7.61-2.47-4.7-6.47Z"/>
    <path class="cls-3" d="M57.68,69.98h0s-.02-.05-.02-.07l.02.07Z"/>
    <path class="cls-3" d="M66.15,66.75l-.28-.39-7.61,2.47c.08.29.17.58.28.87l7.61-2.47v-.48Z"/>
    <path class="cls-3" d="M66.32,66.21l.28-.39-4.7-6.47c-.26.17-.5.34-.74.54l4.7,6.47.46-.15Z"/>
    <path class="cls-3" d="M61.36,58.6l-.74.54h0c.24-.18.49-.36.74-.52h-.01Z"/>
    <polygon class="cls-3" points="66.61 66.6 66.24 66.33 66.32 66.21 65.87 66.36 66.15 66.75 66.15 66.6 66.61 66.6"/>
    <path class="cls-3" d="M75.54,69.98l.03-.09s-.02.06-.03.09h0Z"/>
    <path class="cls-3" d="M67.06,66.75v.48l7.6,2.47c.05-.14.11-.28.16-.43.05-.15.08-.29.12-.44l-7.6-2.47-.28.39Z"/>
    <path class="cls-3" d="M66.61,67.08l-.46.15v8c.15,0,.31.02.46.02s.3-.01.45-.02v-8l-.46-.15Z"/>
    <polygon class="cls-3" points="66.61 66.6 66.24 66.87 66.15 66.75 66.15 67.23 66.61 67.08 66.46 67.03 66.61 66.6"/>
    <polygon class="cls-3" points="66.61 66.6 66.15 66.6 66.15 66.75 66.24 66.87 66.61 66.6"/>
    <polygon class="cls-3" points="66.61 66.6 66.75 67.03 66.61 67.08 67.06 67.23 67.06 66.75 66.97 66.87 66.61 66.6"/>
    <polygon class="cls-3" points="66.61 66.6 66.46 67.03 66.61 67.08 66.75 67.03 66.61 66.6"/>
    <path class="cls-3" d="M72.58,59.15l-.09-.07s.06.05.09.07h0Z"/>
    <path class="cls-3" d="M71.84,58.61h0s.04.03.06.04l-.06-.04Z"/>
    <path class="cls-3" d="M66.89,66.21l.46.15,4.7-6.46c-.24-.19-.48-.37-.74-.54l-4.7,6.46.28.39Z"/>
    <polygon class="cls-3" points="66.61 66.6 66.75 66.17 66.89 66.21 66.61 65.82 66.32 66.21 66.46 66.17 66.61 66.6"/>
    <polygon class="cls-3" points="66.61 66.6 66.46 66.17 66.32 66.21 66.24 66.33 66.61 66.6"/>
    <polygon class="cls-3" points="66.97 66.33 66.61 66.6 67.06 66.6 67.06 66.75 67.34 66.36 66.89 66.21 66.97 66.33"/>
    <polygon class="cls-3" points="66.61 66.6 66.97 66.33 66.89 66.21 66.75 66.17 66.61 66.6"/>
    <polygon class="cls-3" points="66.61 66.6 66.97 66.87 67.06 66.75 67.06 66.6 66.61 66.6"/>
    <path class="cls-3" d="M71.9,58.66l.59.43c-.19-.15-.38-.29-.59-.43Z"/>
    <path class="cls-3" d="M75.69,69.55c.03-.1.05-.19.08-.29l-.21.63c.04-.11.09-.23.13-.34Z"/>
    <path class="cls-3" d="M66.6,57.96c.9,0,1.8.14,2.67.43.73.24,1.41.57,2.03.98l.54-.74c-.69-.46-1.45-.84-2.28-1.1-.98-.32-1.98-.47-2.95-.47-1.88,0-3.7.57-5.23,1.57l.53.73c1.37-.89,2.98-1.39,4.7-1.39Z"/>
    <path class="cls-3" d="M58.26,68.83c-.43-1.6-.4-3.29.13-4.9.53-1.63,1.51-3.02,2.78-4.04l-.53-.74c-1.41,1.13-2.51,2.65-3.11,4.5-.69,2.13-.59,4.32.13,6.26l-.26-.8.87-.28Z"/>
    <path class="cls-3" d="M63.94,74.82c-2.19-.71-3.98-2.24-5.03-4.29-.14-.27-.26-.54-.37-.82l-.87.28c.99,2.61,3.11,4.77,5.98,5.7.83.27,1.67.41,2.5.45v-.91c-.75-.04-1.49-.17-2.21-.41Z"/>
    <path class="cls-3" d="M67.06,75.22v.91c3.71-.18,7.09-2.52,8.47-6.16l-.87-.28c-1.22,3.19-4.19,5.35-7.6,5.53Z"/>
    <path class="cls-3" d="M74.94,68.83l.87.28c1.03-3.75-.34-7.63-3.23-9.95l-.54.74c2.58,2.1,3.8,5.57,2.9,8.93Z"/>
    <path class="cls-3" d="M58.26,68.83l-.87.28.26.8s.02.05.02.07l.87-.28c-.11-.29-.2-.58-.28-.87Z"/>
    <path class="cls-3" d="M61.9,59.35l-.53-.73c-.25.17-.5.34-.74.54l.53.74c.24-.19.48-.37.74-.54Z"/>
    <path class="cls-3" d="M74.94,68.83c-.04.15-.07.29-.12.44-.05.15-.1.29-.16.43l.87.28s.02-.06.03-.09l.21-.63c.01-.05.03-.1.04-.15l-.87-.28Z"/>
    <path class="cls-3" d="M72.04,59.9l.54-.74s-.06-.05-.09-.07l-.59-.43s-.04-.03-.06-.04l-.54.74c.26.17.5.35.74.54Z"/>
    <rect class="cls-4" x="57.3" y="67.57" width="9.54" height="1" transform="translate(-17.98 22.48) rotate(-17.97)"/>
    <rect class="cls-4" x="63.29" y="57.96" width="1" height="9.55" transform="translate(-24.69 49.48) rotate(-36)"/>
    <rect class="cls-4" x="70.64" y="63.3" width="1" height="9.54" transform="translate(-15.59 114.69) rotate(-72)"/>
    <rect class="cls-4" x="66.1" y="66.6" width="1" height="9.55"/>
    <rect class="cls-4" x="64.64" y="62.24" width="9.54" height="1" transform="translate(-22.16 81.98) rotate(-53.98)"/>
    <path class="cls-4" d="M66.6,58.04h0c.89,0,1.78.14,2.64.42,2.17.71,3.94,2.22,4.98,4.25s1.22,4.35.51,6.53c-1.15,3.54-4.42,5.91-8.13,5.91-.89,0-1.78-.14-2.64-.42-4.49-1.46-6.95-6.29-5.49-10.78,1.15-3.54,4.42-5.91,8.13-5.91M66.6,57.04c-4.03,0-7.77,2.57-9.08,6.6-1.63,5.02,1.12,10.41,6.13,12.04.98.32,1.98.47,2.95.47,4.03,0,7.77-2.57,9.08-6.6,1.63-5.02-1.12-10.41-6.13-12.04-.98-.32-1.98-.47-2.95-.47h0Z"/>
  </g>
</svg>