<?xml version="1.0" encoding="UTF-8"?>
<svg id="Layer_2" data-name="Layer 2" xmlns="http://www.w3.org/2000/svg" viewBox="0 0 133.2 133.2">
  <defs>
    <style>
      .cls-1 {
        fill: #f8ead6;
      }

      .cls-2 {
        fill-rule: evenodd;
      }

      .cls-3 {
        fill: #984499;
      }

      .cls-4 {
        fill: #081b1e;
      }
    </style>
  </defs>
  <g id="Art">
    <rect class="cls-1" width="133.2" height="133.2"/>
    <g>
      <path class="cls-2" d="M67.11,61.82l1.23,2.62,2.87.36c.47.06.66.64.31.96l-2.11,1.98.54,2.84c.09.47-.41.82-.82.59l-2.54-1.4-2.54,1.4c-.41.23-.91-.13-.82-.59l.54-2.84-2.11-1.98c-.34-.32-.16-.9.31-.96l2.87-.36,1.23-2.62c.2-.43.81-.43,1.01,0h0Z"/>
      <path class="cls-4" d="M66.6,58.04h0c.89,0,1.78.14,2.64.42,2.17.71,3.94,2.22,4.98,4.25s1.22,4.35.51,6.53c-1.15,3.54-4.42,5.91-8.13,5.91-.89,0-1.78-.14-2.64-.42-2.17-.71-3.94-2.22-4.98-4.25s-1.22-4.35-.51-6.53c1.15-3.54,4.42-5.91,8.13-5.91M66.6,57.04c-4.03,0-7.77,2.57-9.08,6.6-1.63,5.02,1.12,10.41,6.13,12.04.98.32,1.98.47,2.95.47,4.03,0,7.77-2.57,9.08-6.6,1.63-5.02-1.12-10.41-6.13-12.04-.98-.32-1.98-.47-2.95-.47h0Z"/>
      <g>
        <g>
          <path class="cls-3" d="M58.79,57.19c-.5.2-2.43.51-5.93-4.15-3.78-5.03-7.83-2.77-12.5-9.02-3.84-5.16-.96-10.92.03-12.59h0c1.89-.42,8.27-1.36,11.97,3.9,4.48,6.39,1.07,9.52,4.67,14.69,3.34,4.78,2.28,6.65,1.93,7.06l-.18.11Z"/>
          <path class="cls-4" d="M58.25,57.78c-1.08,0-3-.73-5.79-4.44-1.7-2.26-3.48-2.98-5.36-3.75-2.15-.87-4.59-1.86-7.14-5.27-4.02-5.4-1.02-11.42,0-13.14l.11-.19.21-.05c1.95-.43,8.61-1.41,12.49,4.1,2.45,3.49,2.63,6.11,2.78,8.43.14,2.03.27,3.94,1.89,6.26,3.41,4.88,2.47,6.99,1.91,7.67l-.13.11-.25.15c-.17.07-.41.13-.72.13ZM40.72,31.88c-1.02,1.8-3.47,7.12.05,11.85,2.38,3.19,4.58,4.08,6.71,4.94,1.92.78,3.91,1.59,5.78,4.07,3.27,4.37,5.01,4.09,5.31,3.99l.05-.03c.24-.36,1.02-2.08-2-6.4-1.78-2.55-1.92-4.69-2.06-6.77-.16-2.29-.32-4.66-2.6-7.92-3.39-4.82-9.21-4.15-11.24-3.74Z"/>
        </g>
        <g>
          <path class="cls-3" d="M65.89,54.51c-.52-.13-2.27-1.01-2.37-6.84-.11-6.29-4.72-6.83-4.83-14.63-.08-6.43,5.63-9.41,7.41-10.18h0c1.77.77,7.49,3.75,7.41,10.18-.11,7.8-4.72,8.34-4.83,14.63-.1,5.82-2.05,6.72-2.58,6.85l-.21-.02Z"/>
          <path class="cls-4" d="M66.14,55.04l-.38-.04c-.79-.2-2.64-1.33-2.74-7.31-.05-2.83-1.07-4.46-2.14-6.18-1.23-1.97-2.62-4.2-2.69-8.46-.09-6.73,5.88-9.85,7.71-10.64l.2-.09.2.09c1.83.79,7.8,3.91,7.71,10.64-.06,4.26-1.46,6.49-2.69,8.46-1.08,1.72-2.09,3.35-2.14,6.18-.1,5.95-2.1,7.11-2.95,7.33l-.08.02ZM65.98,54.02h.06c.4-.15,2.04-1.08,2.13-6.35.06-3.11,1.19-4.93,2.3-6.69,1.22-1.95,2.48-3.96,2.54-7.94.08-5.89-5.03-8.77-6.91-9.62-1.88.86-6.98,3.73-6.91,9.62.06,3.98,1.32,5.99,2.54,7.94,1.1,1.76,2.24,3.58,2.3,6.69.09,5.46,1.65,6.25,1.96,6.35Z"/>
        </g>
        <g>
          <path class="cls-3" d="M73.25,56.36c-.34-.42-1.23-2.16,2.13-6.91,3.63-5.14.23-8.3,4.76-14.66,3.73-5.23,10.1-4.26,11.99-3.83h0c.97,1.67,3.82,7.45-.04,12.59-4.71,6.23-8.74,3.94-12.55,8.95-3.52,4.64-5.63,4.2-6.13,4l-.16-.14Z"/>
          <path class="cls-4" d="M74.08,57.12c-.37,0-.65-.07-.85-.15l-.14-.09-.22-.2c-.52-.63-1.35-2.63,2.11-7.52,1.63-2.31,1.77-4.23,1.92-6.25.17-2.31.37-4.94,2.83-8.41,3.91-5.48,10.56-4.47,12.51-4.03l.21.05.11.19c1.01,1.72,3.98,7.76-.08,13.14-2.57,3.4-5.01,4.37-7.17,5.23-1.89.75-3.67,1.46-5.38,3.72-2.73,3.59-4.7,4.32-5.86,4.32ZM73.66,56.06c.42.12,2.29.33,5.48-3.86,1.88-2.48,3.88-3.27,5.81-4.04,2.13-.85,4.34-1.73,6.74-4.9,3.54-4.71,1.13-10.04.12-11.84-2.02-.42-7.84-1.12-11.26,3.68-2.31,3.24-2.48,5.61-2.65,7.9-.15,2.07-.31,4.21-2.1,6.75-3.15,4.46-2.36,6.02-2.17,6.28l.05.04Z"/>
        </g>
        <g>
          <path class="cls-3" d="M77.99,62.22c-.03-.54.27-2.47,5.78-4.35,5.95-2.03,5.06-6.58,12.45-9.08,6.09-2.05,10.68,2.48,11.96,3.93h0c-.19,1.93-1.28,8.28-7.42,10.17-7.46,2.28-9.39-1.94-15.41-.12-5.58,1.69-7.02.1-7.31-.35l-.05-.2Z"/>
          <path class="cls-4" d="M96.47,64.09c-1.74,0-3.14-.35-4.44-.68-1.97-.5-3.83-.97-6.54-.15-5.7,1.73-7.41.18-7.88-.57l-.06-.15-.06-.29c-.05-.82.45-2.92,6.12-4.85,2.68-.92,3.92-2.38,5.23-3.93,1.5-1.77,3.19-3.78,7.23-5.15,6.38-2.15,11.17,2.58,12.49,4.08l.14.16-.02.22c-.2,1.99-1.34,8.62-7.77,10.6-1.72.52-3.17.71-4.43.71ZM88.35,61.82c1.46,0,2.7.31,3.92.62,2.23.56,4.53,1.15,8.33-.02,5.63-1.73,6.81-7.47,7.05-9.52-1.39-1.53-5.69-5.51-11.28-3.63-3.77,1.27-5.3,3.09-6.78,4.84-1.34,1.59-2.72,3.23-5.67,4.23-5.17,1.76-5.44,3.49-5.45,3.81v.06c.28.34,1.67,1.61,6.72.08,1.17-.35,2.21-.49,3.15-.49Z"/>
        </g>
        <g>
          <path class="cls-3" d="M78.38,70c.29-.45,1.66-1.85,7.23-.14,6.02,1.83,7.95-2.38,15.41-.07,6.14,1.91,7.21,8.26,7.39,10.19h0c-1.28,1.45-5.88,5.97-11.97,3.9-7.39-2.52-6.48-7.06-12.42-9.12-5.51-1.89-5.75-4.03-5.72-4.57l.08-.19Z"/>
          <path class="cls-4" d="M99.59,84.91c-1.04,0-2.15-.17-3.31-.56-4.03-1.38-5.72-3.39-7.21-5.17-1.3-1.56-2.54-3.02-5.21-3.95-5.63-1.94-6.11-4.19-6.06-5.07l.04-.16.12-.27c.44-.69,2.08-2.1,7.8-.35,2.71.83,4.57.36,6.54-.13,2.25-.56,4.8-1.2,8.87.06,6.43,2,7.55,8.63,7.74,10.62v.09s-.04.2-.04.2l-.08.09c-1.08,1.22-4.5,4.6-9.2,4.6ZM78.8,70.3c.02.43.4,2.28,5.39,3.99,2.94,1.01,4.32,2.66,5.65,4.25,1.48,1.76,3,3.58,6.77,4.86,5.58,1.89,9.89-2.07,11.29-3.59-.23-2.05-1.39-7.79-7.02-9.54-3.8-1.17-6.11-.6-8.33-.04-2.02.5-4.1,1.02-7.07.12-5.22-1.6-6.45-.36-6.65-.1l-.02.06Z"/>
        </g>
        <g>
          <g>
            <path class="cls-3" d="M74.42,76.01c.5-.2,2.43-.51,5.93,4.15,3.78,5.03,7.83,2.77,12.5,9.02,3.84,5.16.96,10.92-.03,12.59h0c-1.89.42-8.27,1.36-11.97-3.9-4.48-6.39-1.07-9.52-4.67-14.69-3.34-4.78-2.28-6.65-1.93-7.06l.18-.11Z"/>
            <path class="cls-4" d="M89.63,102.6c-2.83,0-6.63-.8-9.2-4.45-2.45-3.49-2.62-6.11-2.78-8.43-.14-2.03-.27-3.94-1.89-6.26-3.41-4.88-2.47-6.99-1.91-7.67l.13-.11.26-.15c.76-.3,2.92-.47,6.51,4.31,1.7,2.26,3.48,2.98,5.36,3.75,2.15.87,4.59,1.86,7.14,5.27,4.02,5.4,1.02,11.42,0,13.14l-.11.19-.21.05c-.66.14-1.85.35-3.29.35ZM74.58,76.49c-.24.36-1.02,2.08,2,6.4,1.78,2.55,1.92,4.7,2.06,6.77.16,2.29.32,4.66,2.6,7.92,3.39,4.82,9.21,4.15,11.24,3.74,1.02-1.8,3.47-7.12-.05-11.85-2.38-3.19-4.58-4.08-6.71-4.94-1.92-.78-3.91-1.59-5.78-4.07-3.28-4.37-5.01-4.09-5.31-4l-.05.03Z"/>
          </g>
          <g>
            <path class="cls-3" d="M67.32,78.68c.52.13,2.27,1.01,2.37,6.84.11,6.29,4.72,6.83,4.83,14.63.08,6.43-5.63,9.41-7.41,10.18h0c-1.77-.77-7.49-3.75-7.41-10.18.11-7.8,4.72-8.34,4.83-14.63.1-5.82,2.05-6.72,2.58-6.85l.21.02Z"/>
            <path class="cls-4" d="M67.11,110.88l-.2-.09c-1.83-.79-7.8-3.91-7.71-10.64.06-4.26,1.46-6.49,2.69-8.46,1.08-1.72,2.09-3.35,2.14-6.18.1-5.95,2.1-7.11,2.95-7.33l.08-.02.38.04c.79.2,2.64,1.32,2.74,7.31.05,2.83,1.07,4.46,2.14,6.18,1.23,1.97,2.62,4.2,2.69,8.46.09,6.73-5.88,9.85-7.71,10.64l-.2.09ZM67.16,79.17c-.4.15-2.04,1.09-2.13,6.35-.06,3.11-1.19,4.93-2.3,6.69-1.22,1.95-2.48,3.96-2.54,7.94-.08,5.89,5.02,8.77,6.91,9.62,1.88-.86,6.98-3.73,6.91-9.62-.06-3.98-1.32-5.99-2.54-7.94-1.1-1.76-2.24-3.58-2.3-6.69-.09-5.46-1.65-6.25-1.96-6.35h-.06Z"/>
          </g>
          <g>
            <path class="cls-3" d="M59.95,76.83c.34.42,1.23,2.16-2.13,6.91-3.63,5.14-.23,8.3-4.76,14.66-3.73,5.23-10.1,4.26-11.99,3.83h0c-.97-1.67-3.82-7.45.04-12.59,4.71-6.23,8.74-3.94,12.55-8.95,3.52-4.64,5.63-4.2,6.13-4l.16.14Z"/>
            <path class="cls-4" d="M44.33,103.09c-1.48,0-2.7-.22-3.37-.37l-.21-.05-.11-.19c-1.01-1.72-3.98-7.76.08-13.14,2.57-3.4,5.01-4.37,7.17-5.23,1.89-.75,3.67-1.46,5.38-3.72,3.6-4.74,5.89-4.5,6.71-4.17l.14.09.22.2c.52.63,1.35,2.63-2.11,7.52-1.63,2.31-1.77,4.23-1.92,6.25-.17,2.31-.37,4.94-2.83,8.41-2.57,3.6-6.31,4.4-9.14,4.4ZM41.4,101.79c2.02.42,7.84,1.12,11.26-3.68,2.31-3.24,2.48-5.61,2.65-7.9.15-2.07.31-4.21,2.1-6.75,3.15-4.45,2.36-6.02,2.17-6.28l-.05-.04c-.41-.12-2.28-.34-5.48,3.87-1.88,2.47-3.88,3.27-5.81,4.04-2.13.85-4.34,1.73-6.74,4.91-3.54,4.71-1.13,10.04-.12,11.84Z"/>
          </g>
          <g>
            <path class="cls-3" d="M55.21,70.97c.03.54-.27,2.47-5.78,4.35-5.95,2.03-5.06,6.58-12.45,9.08-6.09,2.05-10.68-2.48-11.96-3.93h0c.19-1.93,1.28-8.28,7.42-10.17,7.46-2.28,9.39,1.94,15.41.12,5.58-1.69,7.02-.1,7.31.35l.05.2Z"/>
            <path class="cls-4" d="M33.86,85.42c-4.72,0-8.13-3.4-9.21-4.63l-.14-.16.02-.22c.2-1.99,1.33-8.62,7.77-10.6,4.07-1.25,6.62-.6,8.87-.03,1.97.5,3.83.97,6.54.15,5.7-1.73,7.41-.18,7.88.57l.06.15.06.29c.05.82-.45,2.92-6.12,4.85-2.68.92-3.92,2.38-5.23,3.93-1.5,1.77-3.19,3.78-7.23,5.15-1.15.39-2.25.55-3.28.55ZM25.54,80.3c1.39,1.53,5.69,5.5,11.28,3.63,3.77-1.27,5.3-3.09,6.78-4.84,1.34-1.59,2.72-3.23,5.67-4.23,5.17-1.76,5.44-3.49,5.45-3.81v-.06c-.28-.34-1.67-1.61-6.72-.08-2.98.9-5.06.37-7.07-.14-2.23-.56-4.53-1.14-8.33.02-5.63,1.73-6.81,7.47-7.05,9.52Z"/>
          </g>
          <g>
            <path class="cls-3" d="M54.82,63.19c-.29.45-1.66,1.85-7.23.14-6.02-1.83-7.95,2.38-15.41.07-6.14-1.91-7.21-8.26-7.39-10.19h0c1.28-1.45,5.88-5.97,11.97-3.9,7.39,2.52,6.48,7.06,12.42,9.12,5.51,1.89,5.75,4.03,5.72,4.57l-.08.19Z"/>
            <path class="cls-4" d="M52.11,64.66c-1.13,0-2.64-.22-4.67-.84-2.71-.83-4.57-.36-6.54.13-2.25.56-4.8,1.2-8.87-.06-6.43-2-7.55-8.63-7.74-10.62l-.02-.22.14-.16c1.32-1.5,6.13-6.21,12.5-4.04,4.03,1.38,5.72,3.39,7.21,5.17,1.3,1.56,2.54,3.02,5.21,3.95,5.63,1.94,6.11,4.19,6.06,5.07l-.04.16-.12.27c-.28.45-1.07,1.19-3.13,1.19ZM44.56,62.36c.95,0,2,.13,3.18.5,5.22,1.6,6.45.36,6.64.1l.02-.06c-.02-.43-.4-2.28-5.39-3.99-2.94-1.01-4.32-2.66-5.66-4.25-1.48-1.76-3-3.58-6.77-4.86-5.58-1.9-9.89,2.07-11.29,3.59.23,2.05,1.39,7.79,7.02,9.54,3.8,1.17,6.11.6,8.33.04,1.21-.3,2.45-.61,3.89-.61Z"/>
          </g>
        </g>
      </g>
    </g>
  </g>
</svg>