<?xml version="1.0" encoding="UTF-8"?>
<svg id="Layer_2" data-name="Layer 2" xmlns="http://www.w3.org/2000/svg" viewBox="0 0 133.2 133.2">
  <defs>
    <style>
      .cls-1 {
        fill: #5e7dbd;
      }

      .cls-2 {
        fill: #f8ead6;
      }

      .cls-3 {
        fill: #e6a631;
      }

      .cls-4 {
        fill: #081b1e;
      }

      .cls-5 {
        fill: #6fb360;
      }
    </style>
  </defs>
  <g id="Art">
    <rect class="cls-2" width="133.2" height="133.2"/>
    <path class="cls-1" d="M76.16,66.6c0,5.28-4.28,9.56-9.56,9.56s-9.56-4.28-9.56-9.56,4.28-9.56,9.56-9.56,9.56,4.28,9.56,9.56"/>
    <path class="cls-5" d="M59.5,104.46c0-8.54,3.11-26.38,6.94-26.38s6.94,17.84,6.94,26.38-3.11.4-6.94.4-6.94,8.13-6.94-.4"/>
    <path class="cls-4" d="M72.37,108.87c-.68,0-1.4-.64-2.28-1.41-1.05-.93-2.36-2.09-3.65-2.09s-2.6,1.16-3.65,2.09c-1.06.94-1.9,1.69-2.71,1.32-.77-.35-1.08-1.56-1.08-4.31,0-7.98,2.89-26.88,7.44-26.88s7.44,18.9,7.44,26.88c0,2.75-.3,3.96-1.08,4.31-.14.07-.29.09-.44.09ZM66.44,104.37c1.67,0,3.14,1.3,4.31,2.34.5.44,1.42,1.26,1.64,1.15.05-.02.49-.31.49-3.4,0-9.05-3.31-25.88-6.44-25.88s-6.44,16.83-6.44,25.88c0,3.09.44,3.38.49,3.4.23.1,1.14-.72,1.64-1.15,1.18-1.04,2.64-2.34,4.31-2.34Z"/>
    <path class="cls-5" d="M38.6,93.06c5.02-6.9,18.02-19.51,21.12-17.26,3.1,2.25-4.87,18.51-9.89,25.42-5.02,6.9-2.75-1.5-5.85-3.75-3.1-2.25-10.4,2.5-5.38-4.41"/>
    <path class="cls-4" d="M47.06,104.39c-.07,0-.15,0-.22-.02-.87-.18-1.11-1.28-1.42-2.66-.3-1.37-.68-3.08-1.73-3.84-1.05-.76-2.79-.59-4.18-.46-1.41.14-2.53.24-2.97-.53-.42-.74.05-1.89,1.66-4.12,4.69-6.45,18.13-20.05,21.82-17.37,1.63,1.18,1.05,5.08-1.73,11.57-2.17,5.08-5.41,10.92-8.04,14.55-1.48,2.03-2.4,2.88-3.18,2.88ZM41.33,96.3c1.05,0,2.11.16,2.94.77,1.35.98,1.78,2.89,2.12,4.43.14.65.41,1.85.65,1.9.06.01.58.03,2.39-2.46,2.6-3.57,5.79-9.34,7.93-14.36,2.86-6.67,2.94-9.73,2.07-10.36-2.53-1.83-15.1,9.83-20.42,17.15-1.82,2.5-1.63,2.99-1.6,3.03.12.21,1.35.09,2.01.03.6-.06,1.26-.12,1.92-.12Z"/>
    <path class="cls-5" d="M28.4,71.55c8.12-2.64,26.05-5.2,27.23-1.55,1.18,3.65-14.82,12.12-22.94,14.75-8.12,2.64-1.34-2.83-2.53-6.48-1.18-3.65-9.88-4.09-1.76-6.73"/>
    <path class="cls-4" d="M29.59,85.95c-.56,0-.93-.14-1.18-.41-.6-.66-.15-1.69.42-2.99.56-1.29,1.26-2.89.86-4.12-.4-1.23-1.91-2.12-3.11-2.83-1.22-.72-2.19-1.29-2.09-2.17.09-.84,1.15-1.5,3.77-2.35h0c7.59-2.46,26.45-5.56,27.86-1.23,1.41,4.33-15.67,12.92-23.26,15.38-1.48.48-2.53.72-3.26.72ZM28.55,72.03h0c-2.94.96-3.08,1.46-3.08,1.51-.03.24,1.04.87,1.61,1.2,1.35.8,3.04,1.79,3.56,3.38.52,1.59-.26,3.38-.89,4.83-.26.61-.76,1.74-.59,1.92.04.04.44.37,3.38-.59,8.61-2.8,23.59-11.14,22.62-14.12-.97-2.97-17.99-.92-26.6,1.87Z"/>
    <path class="cls-5" d="M32.78,48.15c8.12,2.64,24.13,11.11,22.94,14.75-1.18,3.64-19.11,1.09-27.23-1.55-8.12-2.64.58-3.08,1.76-6.73,1.19-3.65-5.59-9.11,2.53-6.48"/>
    <path class="cls-4" d="M49.32,65.22c-1.36,0-2.91-.08-4.66-.24-5.5-.5-12.06-1.77-16.32-3.15-2.62-.85-3.67-1.51-3.77-2.35-.1-.88.87-1.45,2.09-2.17,1.21-.71,2.71-1.6,3.11-2.83.4-1.23-.3-2.83-.86-4.12-.57-1.3-1.01-2.33-.42-2.99.57-.63,1.81-.54,4.43.31h0c4.27,1.39,10.32,4.22,15.06,7.04,6.07,3.62,8.82,6.42,8.2,8.34-.47,1.44-2.77,2.16-6.87,2.16ZM29.66,47.95c-.32,0-.4.07-.41.09-.16.18.33,1.31.59,1.92.63,1.44,1.41,3.24.89,4.83-.52,1.59-2.2,2.58-3.56,3.38-.57.34-1.63.96-1.61,1.2,0,.05.14.56,3.08,1.51,4.2,1.37,10.67,2.61,16.11,3.11,7.23.66,10.16-.21,10.49-1.24.33-1.03-1.53-3.45-7.76-7.17-4.68-2.79-10.65-5.59-14.86-6.95-1.69-.55-2.54-.67-2.97-.67Z"/>
    <path class="cls-5" d="M50.09,31.79c5.02,6.9,12.99,23.17,9.89,25.42-3.1,2.25-16.1-10.36-21.12-17.26-5.02-6.9,2.28-2.15,5.38-4.41,3.1-2.25.84-10.66,5.85-3.75"/>
    <path class="cls-4" d="M59.09,57.96c-4.79,0-16.36-11.83-20.63-17.71-1.62-2.23-2.08-3.38-1.66-4.12.44-.77,1.56-.66,2.97-.53,1.4.13,3.14.3,4.18-.46,1.05-.76,1.42-2.47,1.73-3.84.31-1.39.55-2.48,1.42-2.66.83-.17,1.78.63,3.4,2.85,2.64,3.63,5.87,9.48,8.04,14.55,2.78,6.49,3.37,10.38,1.73,11.57-.32.23-.72.34-1.18.34ZM38.29,36.51c-.32,0-.58.03-.63.12-.03.05-.21.53,1.6,3.03,4.94,6.8,16.13,17.34,19.73,17.34.28,0,.51-.06.69-.19.88-.64.79-3.69-2.07-10.36-2.15-5.01-5.34-10.78-7.93-14.36-1.82-2.5-2.34-2.48-2.39-2.46-.24.05-.5,1.25-.65,1.9-.34,1.54-.76,3.45-2.12,4.43-1.35.98-3.3.79-4.87.64-.38-.04-.94-.09-1.38-.09Z"/>
    <path class="cls-5" d="M73.7,28.73c0,8.54-3.11,26.38-6.94,26.38s-6.94-17.84-6.94-26.38,3.11-.4,6.94-.4,6.94-8.13,6.94.4"/>
    <path class="cls-4" d="M66.76,55.61c-4.55,0-7.44-18.9-7.44-26.88,0-2.75.3-3.96,1.08-4.31.81-.37,1.65.38,2.71,1.32,1.05.93,2.36,2.09,3.65,2.09s2.6-1.16,3.65-2.09c1.06-.94,1.9-1.68,2.71-1.32.77.35,1.08,1.56,1.08,4.31,0,7.98-2.89,26.88-7.44,26.88ZM60.85,25.33s-.03,0-.04,0c-.05.02-.49.31-.49,3.4,0,9.05,3.31,25.88,6.44,25.88s6.44-16.83,6.44-25.88c0-3.09-.44-3.38-.49-3.4-.21-.1-1.14.72-1.64,1.15-1.18,1.04-2.64,2.34-4.31,2.34s-3.14-1.3-4.31-2.34c-.47-.41-1.31-1.16-1.6-1.16Z"/>
    <path class="cls-5" d="M94.6,40.14c-5.02,6.9-18.02,19.51-21.12,17.26-3.1-2.25,4.87-18.51,9.89-25.42,5.02-6.9,2.75,1.5,5.85,3.75,3.1,2.25,10.4-2.5,5.38,4.41"/>
    <path class="cls-4" d="M74.37,58.15c-.46,0-.86-.11-1.18-.34-1.63-1.18-1.05-5.08,1.73-11.57,2.17-5.08,5.41-10.92,8.04-14.55,1.62-2.23,2.58-3.03,3.4-2.85.87.18,1.11,1.28,1.42,2.66.3,1.37.68,3.08,1.73,3.84,1.05.76,2.79.59,4.18.46,1.41-.14,2.53-.24,2.97.53.42.74-.05,1.89-1.66,4.12-4.28,5.89-15.84,17.71-20.63,17.71ZM86.14,29.81c-.12,0-.69.15-2.37,2.46-2.6,3.57-5.79,9.34-7.93,14.36-2.86,6.67-2.94,9.73-2.07,10.36,2.53,1.84,15.1-9.83,20.42-17.15,1.82-2.5,1.63-2.99,1.6-3.03-.12-.21-1.35-.09-2.01-.03-1.57.15-3.51.34-4.87-.64-1.35-.98-1.78-2.89-2.12-4.43-.14-.65-.41-1.85-.65-1.9,0,0,0,0-.02,0Z"/>
    <path class="cls-5" d="M104.81,61.65c-8.12,2.64-26.05,5.2-27.23,1.55-1.18-3.65,14.82-12.12,22.94-14.75,8.12-2.64,1.34,2.83,2.53,6.48,1.18,3.65,9.88,4.09,1.76,6.73"/>
    <path class="cls-4" d="M84.16,65.52c-3.74,0-6.55-.59-7.06-2.17-1.41-4.33,15.67-12.92,23.26-15.38,2.62-.85,3.86-.94,4.43-.31.6.66.15,1.69-.42,2.99-.56,1.29-1.26,2.89-.86,4.12.4,1.23,1.91,2.12,3.11,2.83,1.22.72,2.19,1.29,2.09,2.17-.09.84-1.15,1.5-3.77,2.35h0c-4.83,1.57-14.24,3.39-20.8,3.39ZM103.64,48.25c-.43,0-1.28.13-2.97.67-8.61,2.8-23.59,11.14-22.62,14.12.97,2.98,17.99.92,26.6-1.87h0c2.94-.95,3.08-1.46,3.08-1.51.03-.24-1.04-.87-1.61-1.2-1.35-.8-3.04-1.79-3.56-3.38-.52-1.59.26-3.38.89-4.83.26-.61.76-1.74.59-1.92-.02-.02-.1-.09-.41-.09Z"/>
    <path class="cls-5" d="M100.42,85.05c-8.12-2.64-24.13-11.11-22.94-14.75,1.18-3.64,19.11-1.09,27.23,1.55,8.12,2.64-.58,3.08-1.76,6.73-1.19,3.65,5.59,9.11-2.53,6.48"/>
    <path class="cls-4" d="M103.52,86.24c-.73,0-1.77-.24-3.25-.72-4.27-1.39-10.32-4.22-15.06-7.04-6.07-3.62-8.82-6.42-8.2-8.34.62-1.92,4.5-2.56,11.54-1.92,5.5.5,12.06,1.77,16.32,3.15,2.62.85,3.67,1.51,3.77,2.35.1.88-.87,1.45-2.09,2.17-1.21.71-2.71,1.6-3.11,2.83-.4,1.23.3,2.83.86,4.12.57,1.3,1.01,2.33.42,2.99-.25.27-.62.41-1.18.41ZM83.93,68.99c-3.98,0-5.73.69-5.98,1.47-.33,1.03,1.53,3.45,7.76,7.17,4.68,2.79,10.65,5.59,14.86,6.95,2.94.96,3.34.63,3.38.59.16-.18-.33-1.31-.59-1.92-.63-1.44-1.41-3.24-.89-4.83.52-1.59,2.2-2.58,3.56-3.38.57-.34,1.63-.96,1.61-1.2,0-.05-.14-.56-3.08-1.51-4.2-1.37-10.67-2.61-16.11-3.11-1.75-.16-3.25-.23-4.52-.23Z"/>
    <path class="cls-5" d="M83.12,101.4c-5.02-6.9-12.99-23.17-9.89-25.42,3.1-2.25,16.1,10.36,21.12,17.26,5.02,6.9-2.28,2.15-5.38,4.41-3.1,2.25-.84,10.66-5.85,3.75"/>
    <path class="cls-4" d="M85.89,104.58c-.78,0-1.71-.84-3.18-2.88-2.64-3.63-5.87-9.48-8.04-14.55-2.78-6.49-3.37-10.38-1.73-11.57,1.63-1.19,5.15.57,10.46,5.22,4.15,3.64,8.72,8.52,11.35,12.15,1.62,2.23,2.08,3.38,1.66,4.12-.44.77-1.56.67-2.97.53-1.4-.13-3.14-.3-4.18.46-1.05.76-1.42,2.47-1.73,3.84-.31,1.39-.55,2.48-1.42,2.66-.07.01-.15.02-.22.02ZM74.16,76.22c-.27,0-.49.06-.64.17-.88.64-.79,3.69,2.07,10.36,2.15,5.01,5.34,10.78,7.93,14.36h0c1.81,2.5,2.34,2.48,2.39,2.46.24-.05.5-1.25.65-1.9.34-1.54.76-3.45,2.12-4.43,1.35-.98,3.3-.79,4.87-.64.66.06,1.88.18,2.01-.03.03-.05.21-.54-1.6-3.03-2.6-3.57-7.1-8.39-11.2-11.98-4.52-3.95-7.27-5.34-8.58-5.34Z"/>
    <path class="cls-2" d="M58.54,69.7c.11.28.23.55.37.82,1.05,2.06,2.83,3.58,5.03,4.29.72.23,1.46.37,2.21.41v-8l-7.61,2.47Z"/>
    <path class="cls-1" d="M72.04,59.89l-4.7,6.46,7.6,2.47c.9-3.36-.32-6.84-2.9-8.93Z"/>
    <path class="cls-1" d="M67.06,75.22c3.41-.18,6.38-2.33,7.6-5.53l-7.6-2.47v8Z"/>
    <path class="cls-1" d="M71.3,59.36c-.62-.4-1.29-.74-2.03-.98-.87-.28-1.77-.43-2.67-.43-1.72,0-3.34.51-4.7,1.39l4.7,6.47,4.7-6.46Z"/>
    <path class="cls-2" d="M61.16,59.89c-1.26,1.03-2.25,2.41-2.78,4.04-.52,1.61-.56,3.3-.13,4.9l7.61-2.47-4.7-6.47Z"/>
    <path class="cls-3" d="M57.67,69.98h0s-.02-.05-.02-.07l.02.07Z"/>
    <path class="cls-3" d="M66.15,66.75l-.28-.39-7.61,2.47c.08.29.17.58.28.87l7.61-2.47v-.48Z"/>
    <path class="cls-3" d="M66.32,66.21l.28-.39-4.7-6.47c-.26.17-.5.35-.74.54l4.7,6.47.46-.15Z"/>
    <path class="cls-3" d="M61.36,58.6l-.74.54h0c.24-.18.49-.36.74-.52h-.01Z"/>
    <polygon class="cls-3" points="66.61 66.6 66.24 66.33 66.32 66.21 65.87 66.36 66.15 66.75 66.15 66.6 66.61 66.6"/>
    <path class="cls-3" d="M75.54,69.98l.03-.09s-.02.06-.03.09h0Z"/>
    <path class="cls-3" d="M67.06,66.75v.48l7.6,2.47c.05-.14.11-.28.16-.43.05-.15.08-.29.12-.44l-7.6-2.47-.28.39Z"/>
    <path class="cls-3" d="M66.61,67.08l-.46.15v8c.15,0,.31.02.46.02s.3-.01.45-.02v-8l-.46-.15Z"/>
    <polygon class="cls-3" points="66.61 66.6 66.24 66.87 66.15 66.75 66.15 67.23 66.61 67.08 66.46 67.03 66.61 66.6"/>
    <polygon class="cls-3" points="66.61 66.6 66.15 66.6 66.15 66.75 66.24 66.87 66.61 66.6"/>
    <polygon class="cls-3" points="66.61 66.6 66.75 67.03 66.61 67.08 67.06 67.23 67.06 66.75 66.97 66.87 66.61 66.6"/>
    <polygon class="cls-3" points="66.61 66.6 66.46 67.03 66.61 67.08 66.75 67.03 66.61 66.6"/>
    <path class="cls-3" d="M72.58,59.15l-.09-.07s.06.05.09.07h0Z"/>
    <path class="cls-3" d="M71.84,58.61h0s.04.03.06.04l-.06-.04Z"/>
    <path class="cls-3" d="M66.89,66.21l.46.15,4.7-6.46c-.24-.19-.48-.37-.74-.54l-4.7,6.46.28.39Z"/>
    <polygon class="cls-3" points="66.61 66.6 66.75 66.16 66.89 66.21 66.61 65.82 66.32 66.21 66.46 66.16 66.61 66.6"/>
    <polygon class="cls-3" points="66.61 66.6 66.46 66.16 66.32 66.21 66.24 66.33 66.61 66.6"/>
    <polygon class="cls-3" points="66.97 66.33 66.61 66.6 67.06 66.6 67.06 66.75 67.34 66.36 66.89 66.21 66.97 66.33"/>
    <polygon class="cls-3" points="66.61 66.6 66.97 66.33 66.89 66.21 66.75 66.16 66.61 66.6"/>
    <polygon class="cls-3" points="66.61 66.6 66.97 66.87 67.06 66.75 67.06 66.6 66.61 66.6"/>
    <path class="cls-3" d="M71.9,58.66l.59.43c-.19-.15-.38-.29-.59-.43Z"/>
    <path class="cls-3" d="M75.69,69.55c.03-.1.05-.19.08-.29l-.21.63c.04-.11.09-.23.13-.34Z"/>
    <path class="cls-3" d="M66.6,57.96c.9,0,1.8.14,2.67.43.73.24,1.41.57,2.03.98l.54-.74c-.69-.46-1.45-.84-2.28-1.1-.98-.32-1.98-.47-2.95-.47-1.88,0-3.7.57-5.23,1.57l.53.73c1.37-.89,2.99-1.39,4.7-1.39Z"/>
    <path class="cls-3" d="M58.26,68.83c-.43-1.6-.4-3.29.13-4.9.53-1.63,1.51-3.02,2.78-4.04l-.53-.74c-1.41,1.13-2.51,2.66-3.11,4.5-.69,2.13-.59,4.32.13,6.26l-.26-.8.87-.28Z"/>
    <path class="cls-3" d="M63.94,74.82c-2.2-.71-3.98-2.24-5.03-4.29-.14-.27-.26-.54-.37-.82l-.87.28c.99,2.61,3.11,4.77,5.98,5.7.83.27,1.67.41,2.5.45v-.91c-.75-.04-1.49-.17-2.21-.41Z"/>
    <path class="cls-3" d="M67.06,75.22v.91c3.71-.18,7.1-2.52,8.47-6.16l-.87-.28c-1.22,3.19-4.19,5.35-7.6,5.53Z"/>
    <path class="cls-3" d="M74.94,68.83l.87.28c1.03-3.75-.34-7.63-3.23-9.96l-.54.74c2.58,2.1,3.8,5.57,2.9,8.93Z"/>
    <path class="cls-3" d="M58.26,68.83l-.87.28.26.8s.02.05.02.07l.87-.28c-.11-.29-.2-.58-.28-.87Z"/>
    <path class="cls-3" d="M61.9,59.35l-.53-.73c-.25.17-.5.34-.74.54l.53.74c.24-.19.48-.37.74-.54Z"/>
    <path class="cls-3" d="M74.94,68.83c-.04.15-.07.29-.12.44-.05.15-.1.29-.16.43l.87.28s.02-.06.03-.09l.21-.63c.01-.05.03-.1.04-.15l-.87-.28Z"/>
    <path class="cls-3" d="M72.04,59.89l.54-.74s-.06-.05-.09-.07l-.59-.43s-.04-.03-.06-.04l-.54.74c.26.17.5.35.74.54Z"/>
    <rect class="cls-4" x="57.3" y="67.57" width="9.54" height="1" transform="translate(-17.98 22.48) rotate(-17.97)"/>
    <rect class="cls-4" x="63.29" y="57.96" width="1" height="9.55" transform="translate(-24.69 49.47) rotate(-36)"/>
    <rect class="cls-4" x="70.64" y="63.3" width="1" height="9.54" transform="translate(-15.59 114.69) rotate(-72)"/>
    <rect class="cls-4" x="66.1" y="66.6" width="1" height="9.55"/>
    <rect class="cls-4" x="64.63" y="62.24" width="9.54" height="1" transform="translate(-22.16 81.98) rotate(-53.98)"/>
    <path class="cls-4" d="M66.6,58.04h0c.89,0,1.78.14,2.64.42,2.17.71,3.94,2.22,4.98,4.25s1.22,4.35.51,6.53c-1.15,3.54-4.42,5.91-8.13,5.91-.9,0-1.79-.14-2.65-.42-2.17-.71-3.94-2.22-4.98-4.25-1.04-2.04-1.22-4.35-.51-6.53,1.15-3.54,4.42-5.91,8.13-5.91M66.6,57.04c-4.03,0-7.77,2.57-9.08,6.6-1.63,5.02,1.12,10.41,6.13,12.04.98.32,1.98.47,2.95.47,4.03,0,7.77-2.57,9.08-6.6,1.63-5.02-1.12-10.41-6.13-12.04-.98-.32-1.98-.47-2.95-.47h0Z"/>
  </g>
</svg>