<?xml version="1.0" encoding="UTF-8"?>
<svg id="Layer_2" data-name="Layer 2" xmlns="http://www.w3.org/2000/svg" viewBox="0 0 133.2 133.2">
  <defs>
    <style>
      .cls-1 {
        fill: #f8ead6;
      }

      .cls-2 {
        fill: #e6a631;
      }

      .cls-3 {
        fill: #081b1e;
      }

      .cls-4 {
        fill: #f9b72e;
      }

      .cls-5 {
        fill: #ee4423;
      }
    </style>
  </defs>
  <g id="Art">
    <rect class="cls-1" width="133.2" height="133.2"/>
    <path class="cls-5" d="M60.2,38.99c0,6.25,2.44,11.92,6.4,16.14,3.96-4.23,6.4-9.89,6.4-16.14s-2.44-11.92-6.4-16.14c-3.96,4.23-6.4,9.89-6.4,16.14"/>
    <path class="cls-3" d="M66.6,55.86l-.36-.39c-4.22-4.5-6.54-10.35-6.54-16.49s2.32-11.99,6.54-16.49l.36-.39.36.39c4.22,4.5,6.54,10.36,6.54,16.49s-2.32,11.99-6.54,16.49l-.36.39ZM66.6,23.58c-3.81,4.26-5.9,9.71-5.9,15.4s2.09,11.15,5.9,15.4c3.81-4.26,5.9-9.71,5.9-15.4s-2.09-11.15-5.9-15.4Z"/>
    <path class="cls-5" d="M77.65,40.5c-3.67,5.06-5.03,11.08-4.31,16.82,5.69-1.09,11-4.24,14.67-9.3,3.67-5.06,5.03-11.08,4.31-16.82-5.69,1.09-11,4.24-14.67,9.3"/>
    <path class="cls-3" d="M72.91,57.91l-.07-.53c-.77-6.12.8-12.22,4.4-17.18h0c3.6-4.96,8.92-8.33,14.98-9.49l.52-.1.07.53c.77,6.12-.8,12.22-4.4,17.18-3.6,4.96-8.92,8.33-14.98,9.49l-.52.1ZM78.06,40.79c-3.35,4.61-4.86,10.25-4.28,15.93,5.59-1.21,10.48-4.38,13.83-8.99,3.35-4.61,4.86-10.25,4.28-15.93-5.59,1.2-10.48,4.38-13.83,8.99h0Z"/>
    <path class="cls-5" d="M90.88,51.98c-5.94,1.93-10.58,6.01-13.37,11.08,5.24,2.46,11.39,3.03,17.33,1.1,5.94-1.93,10.58-6.01,13.38-11.08-5.24-2.46-11.39-3.03-17.33-1.1"/>
    <path class="cls-3" d="M87.57,65.81c-3.51,0-7.01-.77-10.27-2.3l-.48-.23.26-.47c2.98-5.4,7.83-9.42,13.66-11.31h0c5.83-1.9,12.12-1.5,17.7,1.12l.48.23-.26.47c-2.98,5.4-7.83,9.42-13.66,11.31-2.42.79-4.93,1.18-7.43,1.18ZM78.21,62.83c5.23,2.31,11.05,2.61,16.47.85,5.42-1.76,9.95-5.43,12.83-10.37-5.23-2.31-11.06-2.62-16.47-.85-5.42,1.76-9.95,5.44-12.83,10.38Z"/>
    <path class="cls-5" d="M94.84,69.04c-5.94-1.93-12.09-1.36-17.33,1.1,2.8,5.07,7.43,9.15,13.37,11.08,5.94,1.93,12.09,1.36,17.33-1.1-2.8-5.07-7.43-9.15-13.38-11.08"/>
    <path class="cls-3" d="M98.15,82.88c-2.5,0-5-.39-7.43-1.18-5.83-1.89-10.68-5.91-13.66-11.31l-.26-.47.48-.23c5.58-2.62,11.87-3.02,17.7-1.12h0c5.83,1.89,10.68,5.91,13.66,11.31l.26.47-.48.23c-3.26,1.53-6.76,2.3-10.27,2.3ZM78.21,70.37c2.87,4.94,7.41,8.61,12.82,10.37,5.42,1.76,11.25,1.45,16.48-.85-2.87-4.94-7.41-8.62-12.83-10.37h0c-5.42-1.76-11.25-1.45-16.47.85Z"/>
    <path class="cls-5" d="M88.01,85.17c-3.67-5.06-8.98-8.21-14.67-9.3-.72,5.75.64,11.77,4.31,16.82,3.67,5.06,8.98,8.21,14.67,9.3.72-5.75-.64-11.77-4.31-16.82"/>
    <path class="cls-3" d="M92.75,102.59l-.52-.1c-6.06-1.16-11.38-4.53-14.98-9.49-3.6-4.96-5.17-11.06-4.4-17.18l.07-.53.52.1c6.06,1.16,11.38,4.53,14.98,9.5h0c3.6,4.96,5.17,11.06,4.4,17.18l-.07.53ZM73.78,76.48c-.58,5.68.93,11.32,4.28,15.93,3.35,4.61,8.25,7.79,13.83,8.99.58-5.69-.93-11.33-4.28-15.93h0c-3.35-4.61-8.24-7.79-13.83-8.99Z"/>
    <path class="cls-5" d="M73,94.21c0-6.25-2.44-11.92-6.4-16.14-3.96,4.23-6.4,9.89-6.4,16.14s2.44,11.92,6.4,16.14c3.96-4.23,6.4-9.89,6.4-16.14"/>
    <path class="cls-3" d="M66.6,111.09l-.36-.39c-4.22-4.5-6.54-10.36-6.54-16.49s2.32-11.99,6.54-16.49l.36-.39.36.39c4.22,4.5,6.54,10.36,6.54,16.49s-2.32,11.99-6.54,16.49l-.36.39ZM66.6,78.81c-3.81,4.26-5.9,9.71-5.9,15.4s2.09,11.15,5.9,15.41c3.81-4.26,5.9-9.71,5.9-15.41s-2.09-11.15-5.9-15.4Z"/>
    <path class="cls-5" d="M55.55,92.7c3.67-5.06,5.03-11.08,4.31-16.82-5.69,1.09-11,4.24-14.67,9.3-3.67,5.06-5.03,11.08-4.31,16.82,5.69-1.09,11-4.24,14.67-9.3"/>
    <path class="cls-3" d="M40.45,102.59l-.07-.53c-.77-6.12.8-12.22,4.4-17.18,3.6-4.96,8.92-8.33,14.98-9.49l.52-.1.07.53c.77,6.12-.8,12.22-4.4,17.18h0c-3.61,4.96-8.93,8.33-14.98,9.49l-.52.1ZM59.42,76.48c-5.59,1.21-10.48,4.38-13.83,8.99-3.35,4.61-4.86,10.25-4.28,15.93,5.58-1.2,10.48-4.38,13.83-8.99h0c3.35-4.61,4.86-10.25,4.28-15.93Z"/>
    <path class="cls-5" d="M42.32,81.22c5.94-1.93,10.58-6.01,13.37-11.08-5.24-2.46-11.39-3.03-17.33-1.1-5.94,1.93-10.58,6.01-13.38,11.08,5.24,2.46,11.39,3.03,17.33,1.1"/>
    <path class="cls-3" d="M35.05,82.88c-3.51,0-7.01-.77-10.28-2.3l-.48-.23.26-.47c2.98-5.4,7.83-9.42,13.66-11.31,5.83-1.9,12.12-1.5,17.7,1.12l.48.23-.26.47c-2.98,5.4-7.83,9.42-13.66,11.31h0c-2.42.79-4.93,1.18-7.42,1.18ZM25.69,79.89c5.23,2.31,11.06,2.62,16.48.85,5.42-1.76,9.95-5.44,12.83-10.38-5.23-2.31-11.05-2.61-16.47-.85-5.42,1.76-9.95,5.43-12.83,10.38Z"/>
    <path class="cls-5" d="M38.36,64.16c5.94,1.93,12.09,1.36,17.33-1.1-2.8-5.07-7.43-9.15-13.37-11.08-5.94-1.93-12.09-1.36-17.33,1.1,2.8,5.07,7.43,9.15,13.38,11.08"/>
    <path class="cls-3" d="M45.63,65.81c-2.5,0-5-.39-7.43-1.18h0c-5.83-1.89-10.68-5.91-13.66-11.31l-.26-.47.48-.23c5.58-2.62,11.87-3.02,17.7-1.12,5.83,1.9,10.68,5.91,13.66,11.31l.26.47-.48.23c-3.26,1.53-6.76,2.3-10.27,2.3ZM25.69,53.31c2.87,4.94,7.41,8.61,12.83,10.37h0c5.42,1.76,11.25,1.46,16.47-.85-2.87-4.94-7.41-8.61-12.83-10.38-5.42-1.76-11.25-1.45-16.48.85Z"/>
    <path class="cls-5" d="M45.19,48.02c3.67,5.06,8.98,8.21,14.67,9.3.72-5.75-.64-11.77-4.31-16.82-3.67-5.06-8.98-8.21-14.67-9.3-.72,5.75.64,11.77,4.31,16.82"/>
    <path class="cls-3" d="M60.29,57.91l-.52-.1c-6.06-1.16-11.38-4.53-14.98-9.49-3.6-4.96-5.17-11.06-4.4-17.18l.07-.53.52.1c6.06,1.16,11.38,4.53,14.98,9.49,3.6,4.96,5.17,11.06,4.4,17.18l-.07.53ZM41.32,31.8c-.58,5.69.93,11.33,4.28,15.93h0c3.35,4.61,8.24,7.79,13.83,8.99.58-5.68-.93-11.32-4.28-15.93-3.35-4.61-8.25-7.79-13.83-8.99Z"/>
    <path class="cls-4" d="M76.16,66.6c0,5.28-4.28,9.56-9.56,9.56s-9.56-4.28-9.56-9.56,4.28-9.56,9.56-9.56,9.56,4.28,9.56,9.56"/>
    <path class="cls-1" d="M58.54,69.7c.11.28.23.55.37.82,1.05,2.06,2.83,3.58,5.03,4.29.72.23,1.46.37,2.21.41v-7.99l-7.61,2.47Z"/>
    <path class="cls-1" d="M72.04,59.9l-4.7,6.46,7.6,2.47c.9-3.36-.32-6.84-2.9-8.93Z"/>
    <path class="cls-1" d="M67.06,75.22c3.41-.18,6.38-2.33,7.6-5.53l-7.6-2.47v7.99Z"/>
    <path class="cls-4" d="M71.3,59.36c-.62-.4-1.29-.74-2.03-.98-.87-.28-1.77-.43-2.67-.43-1.72,0-3.34.51-4.7,1.39l4.7,6.47,4.7-6.46Z"/>
    <path class="cls-1" d="M61.16,59.89c-1.26,1.03-2.24,2.41-2.78,4.04-.52,1.61-.56,3.3-.13,4.9l7.61-2.47-4.7-6.47Z"/>
    <path class="cls-2" d="M57.68,69.98h0s-.02-.05-.02-.07l.02.07Z"/>
    <path class="cls-2" d="M66.15,66.75l-.28-.39-7.61,2.47c.08.29.17.58.28.87l7.61-2.47v-.48Z"/>
    <path class="cls-2" d="M66.32,66.21l.28-.39-4.7-6.47c-.26.17-.5.34-.74.54l4.7,6.47.46-.15Z"/>
    <path class="cls-2" d="M61.36,58.6l-.74.54h0c.24-.18.49-.36.74-.52h-.01Z"/>
    <polygon class="cls-2" points="66.61 66.6 66.24 66.33 66.32 66.21 65.87 66.36 66.15 66.75 66.15 66.6 66.61 66.6"/>
    <path class="cls-2" d="M75.54,69.98l.03-.09s-.02.06-.03.09h0Z"/>
    <path class="cls-2" d="M67.06,66.75v.48l7.6,2.47c.05-.14.11-.28.16-.43.05-.15.08-.29.12-.44l-7.6-2.47-.28.39Z"/>
    <path class="cls-2" d="M66.61,67.08l-.46.15v7.99c.15,0,.31.02.46.02s.3-.01.45-.02v-7.99l-.46-.15Z"/>
    <polygon class="cls-2" points="66.61 66.6 66.24 66.87 66.15 66.75 66.15 67.23 66.61 67.08 66.46 67.03 66.61 66.6"/>
    <polygon class="cls-2" points="66.61 66.6 66.15 66.6 66.15 66.75 66.24 66.87 66.61 66.6"/>
    <polygon class="cls-2" points="66.61 66.6 66.75 67.03 66.61 67.08 67.06 67.23 67.06 66.75 66.97 66.87 66.61 66.6"/>
    <polygon class="cls-2" points="66.61 66.6 66.46 67.03 66.61 67.08 66.75 67.03 66.61 66.6"/>
    <path class="cls-2" d="M72.58,59.15l-.09-.07s.06.05.09.07h0Z"/>
    <path class="cls-2" d="M71.84,58.61h0s.04.03.06.04l-.06-.04Z"/>
    <path class="cls-2" d="M66.89,66.21l.46.15,4.7-6.46c-.24-.19-.48-.37-.74-.54l-4.7,6.46.28.39Z"/>
    <polygon class="cls-2" points="66.61 66.6 66.75 66.16 66.89 66.21 66.61 65.82 66.32 66.21 66.46 66.16 66.61 66.6"/>
    <polygon class="cls-2" points="66.61 66.6 66.46 66.16 66.32 66.21 66.24 66.33 66.61 66.6"/>
    <polygon class="cls-2" points="66.97 66.33 66.61 66.6 67.06 66.6 67.06 66.75 67.34 66.36 66.89 66.21 66.97 66.33"/>
    <polygon class="cls-2" points="66.61 66.6 66.97 66.33 66.89 66.21 66.75 66.16 66.61 66.6"/>
    <polygon class="cls-2" points="66.61 66.6 66.97 66.87 67.06 66.75 67.06 66.6 66.61 66.6"/>
    <path class="cls-2" d="M71.9,58.66l.59.43c-.19-.15-.38-.29-.59-.43Z"/>
    <path class="cls-2" d="M75.69,69.55c.03-.1.05-.19.08-.29l-.21.63c.04-.11.09-.23.13-.34Z"/>
    <path class="cls-2" d="M66.6,57.96c.9,0,1.8.14,2.67.43.73.24,1.41.57,2.03.98l.54-.74c-.69-.46-1.45-.84-2.28-1.1-.98-.32-1.98-.47-2.95-.47-1.88,0-3.69.57-5.23,1.57l.53.73c1.37-.89,2.98-1.39,4.7-1.39Z"/>
    <path class="cls-2" d="M58.26,68.83c-.43-1.6-.4-3.29.13-4.9.53-1.63,1.51-3.02,2.78-4.04l-.53-.74c-1.41,1.13-2.51,2.65-3.11,4.49-.69,2.13-.59,4.32.13,6.26l-.26-.8.87-.28Z"/>
    <path class="cls-2" d="M63.94,74.82c-2.19-.71-3.98-2.24-5.03-4.29-.14-.27-.26-.54-.37-.82l-.87.28c.99,2.61,3.11,4.77,5.98,5.7.83.27,1.67.41,2.5.45v-.91c-.75-.04-1.49-.17-2.21-.41Z"/>
    <path class="cls-2" d="M67.06,75.22v.91c3.71-.18,7.09-2.52,8.47-6.16l-.87-.28c-1.22,3.19-4.19,5.35-7.6,5.53Z"/>
    <path class="cls-2" d="M74.94,68.83l.87.28c1.03-3.75-.34-7.63-3.23-9.95l-.54.74c2.58,2.1,3.8,5.57,2.9,8.93Z"/>
    <path class="cls-2" d="M58.26,68.83l-.87.28.26.8s.02.05.02.07l.87-.28c-.11-.29-.2-.58-.28-.87Z"/>
    <path class="cls-2" d="M61.9,59.35l-.53-.73c-.25.17-.5.34-.74.54l.53.74c.24-.19.48-.37.74-.54Z"/>
    <path class="cls-2" d="M74.94,68.83c-.04.15-.07.29-.12.44-.05.15-.1.29-.16.43l.87.28s.02-.06.03-.09l.21-.63c.01-.05.03-.1.04-.15l-.87-.28Z"/>
    <path class="cls-2" d="M72.04,59.9l.54-.74s-.06-.05-.09-.07l-.59-.43s-.04-.03-.06-.04l-.54.74c.26.17.5.35.74.54Z"/>
    <rect class="cls-3" x="57.3" y="67.57" width="9.54" height="1" transform="translate(-17.98 22.48) rotate(-17.97)"/>
    <rect class="cls-3" x="63.29" y="57.96" width="1" height="9.55" transform="translate(-24.69 49.48) rotate(-36)"/>
    <rect class="cls-3" x="70.64" y="63.3" width="1" height="9.54" transform="translate(-15.59 114.69) rotate(-72)"/>
    <rect class="cls-3" x="66.1" y="66.6" width="1" height="9.55"/>
    <rect class="cls-3" x="64.64" y="62.24" width="9.54" height="1" transform="translate(-22.16 81.98) rotate(-53.98)"/>
    <path class="cls-3" d="M66.6,58.04h0c.89,0,1.78.14,2.64.42,2.17.71,3.94,2.22,4.98,4.25,1.04,2.04,1.22,4.35.51,6.53-1.15,3.54-4.42,5.91-8.13,5.91-.89,0-1.78-.14-2.64-.42-2.17-.71-3.94-2.22-4.98-4.25-1.04-2.04-1.22-4.35-.51-6.53,1.15-3.54,4.42-5.91,8.13-5.91M66.6,57.04c-4.03,0-7.77,2.57-9.08,6.6-1.63,5.02,1.12,10.41,6.13,12.04.98.32,1.98.47,2.95.47,4.03,0,7.77-2.57,9.08-6.6,1.63-5.02-1.12-10.41-6.13-12.04-.98-.32-1.98-.47-2.95-.47h0Z"/>
  </g>
</svg>