<?xml version="1.0" encoding="UTF-8"?>
<svg id="Layer_2" data-name="Layer 2" xmlns="http://www.w3.org/2000/svg" viewBox="0 0 133.2 133.2">
  <defs>
    <style>
      .cls-1 {
        fill: #f8ead6;
      }

      .cls-2 {
        fill: #6db360;
      }

      .cls-3 {
        fill: #081b1e;
      }

      .cls-4 {
        fill: #f9b72e;
      }
    </style>
  </defs>
  <g id="Art">
    <rect class="cls-1" width="133.2" height="133.2"/>
    <g>
      <path class="cls-3" d="M81.27,62.41v-.25c0-1.52-1.24-2.75-2.75-2.75h-2.63l1.89-2.61c.85-1.17,1.46-2.33,1.88-3.52.51-1.45.76-2.98.76-4.53,0-7.6-6.18-13.78-13.84-13.78s-13.78,6.18-13.78,13.78c0,1.55.26,3.07.76,4.52.42,1.2,1.03,2.35,1.88,3.52l1.89,2.61h-2.64c-1.52,0-2.75,1.23-2.75,2.75v.25c0,.81.36,1.53.91,2.03-.56.5-.91,1.22-.91,2.03v.25c0,.81.36,1.53.91,2.03-.56.5-.91,1.22-.91,2.03v.25c0,1.52,1.24,2.75,2.75,2.75h2.64l-1.88,2.61c-.85,1.17-1.46,2.33-1.88,3.52-.51,1.45-.76,2.98-.76,4.53,0,7.6,6.18,13.78,13.78,13.78h.06c7.6,0,13.78-6.18,13.78-13.78,0-1.55-.26-3.07-.76-4.52-.42-1.2-1.03-2.35-1.88-3.52l-1.89-2.61h2.63c1.52,0,2.75-1.24,2.75-2.75v-.25c0-.81-.36-1.53-.91-2.03.56-.5.91-1.22.91-2.03v-.25c0-.81-.36-1.53-.91-2.03.56-.5.91-1.22.91-2.03M66.64,92.1s-.02,0-.03,0-.02,0-.03,0c-4.23,0-7.66-3.43-7.66-7.66,0-.86.14-1.71.43-2.52.22-.63.56-1.27,1.06-1.95l1.97-2.72c.91.7,1.91,1.18,2.98,1.39l-2.33,3.22c-.31.43-.51.79-.63,1.12-.16.47-.24.96-.24,1.46,0,2.44,1.99,4.43,4.4,4.43.01,0,.05,0,.08,0h.02c2.44,0,4.43-1.99,4.43-4.43,0-.5-.08-.99-.24-1.45-.11-.33-.32-.69-.63-1.12l-2.33-3.22c1.07-.22,2.07-.69,2.98-1.39l1.97,2.73c.49.68.84,1.32,1.06,1.95.28.79.42,1.64.42,2.51,0,4.22-3.43,7.66-7.66,7.66M69.03,82.71c.29.4.4.64.43.75.11.31.16.64.16.98,0,1.65-1.34,2.99-3.05,2.99s-2.99-1.34-2.99-2.99c0-.34.05-.67.16-.98h0c.04-.11.14-.34.43-.75l2.42-3.35,2.42,3.36ZM66.6,77.34c-2.47,0-4.64-1.8-5.97-4.56,0,0,0,0,0,0-.84-1.75-1.34-3.88-1.34-6.18s.5-4.43,1.34-6.18c0,0,0,0,0-.01,1.33-2.75,3.51-4.55,5.97-4.55,4.03,0,7.32,4.82,7.32,10.74s-3.28,10.75-7.32,10.75M66.57,41.09s.02,0,.03,0c.01,0,.02,0,.03,0,4.22,0,7.66,3.44,7.66,7.66,0,.87-.14,1.72-.42,2.52-.22.63-.58,1.29-1.06,1.95l-1.97,2.72c-.91-.7-1.91-1.18-2.98-1.39l2.33-3.22c.31-.43.51-.79.63-1.12.16-.47.24-.96.24-1.46,0-2.44-1.99-4.43-4.4-4.43h0s-.08,0-.1,0c-2.44,0-4.43,1.99-4.43,4.43,0,.5.08.99.24,1.46.11.33.32.69.63,1.12l2.33,3.22c-1.07.22-2.07.69-2.98,1.39l-1.97-2.72c-.48-.66-.84-1.32-1.06-1.95-.28-.81-.43-1.66-.43-2.52,0-4.23,3.44-7.66,7.66-7.66M64.18,50.48c-.28-.38-.39-.62-.43-.75-.11-.31-.16-.64-.16-.98,0-1.65,1.34-2.99,3.05-2.99s2.99,1.34,2.99,2.99c0,.34-.06.67-.16.98h0c-.04.13-.16.36-.43.75l-2.42,3.35-2.42-3.36ZM56.61,55.95c-.76-1.06-1.32-2.09-1.68-3.15-.45-1.3-.68-2.66-.68-4.05,0-6.8,5.53-12.33,12.3-12.33.02,0,.08,0,.1,0,6.8,0,12.33,5.53,12.33,12.33,0,1.39-.23,2.75-.68,4.05-.37,1.06-.92,2.09-1.68,3.15l-2.5,3.46h-.45c-.49-.94-1.08-1.77-1.75-2.48l2.07-2.87c.56-.78.98-1.56,1.25-2.32.33-.95.5-1.96.5-2.99,0-5.02-4.08-9.11-9.1-9.11-.01,0-.02,0-.03,0s-.02,0-.03,0c-5.02,0-9.11,4.09-9.11,9.11,0,1.02.17,2.03.51,2.99.27.76.69,1.54,1.25,2.32l2.07,2.86c-.66.71-1.25,1.54-1.75,2.48h-.45l-2.5-3.46ZM53.37,62.41v-.25c0-.72.59-1.31,1.31-1.31h4.2c-.35.89-.6,1.86-.78,2.87h-3.42c-.72,0-1.31-.59-1.31-1.31M53.37,66.72v-.25c0-.72.59-1.31,1.31-1.31h3.23c-.04.47-.07.95-.07,1.43s.03.96.07,1.44h-3.23c-.72,0-1.31-.59-1.31-1.31M53.37,71.03v-.25c0-.72.59-1.31,1.31-1.31h3.42c.18,1.01.44,1.97.78,2.87h-4.2c-.72,0-1.31-.59-1.31-1.31M76.6,77.24c.76,1.06,1.32,2.09,1.68,3.15.45,1.3.68,2.66.68,4.05,0,6.8-5.53,12.33-12.32,12.33-.01,0-.06,0-.08,0-6.8,0-12.33-5.53-12.33-12.33,0-1.39.23-2.75.68-4.05.37-1.06.92-2.09,1.68-3.15l2.49-3.45h.45c.5.94,1.08,1.77,1.75,2.48l-2.07,2.86c-.58.79-.99,1.55-1.25,2.32-.34.96-.51,1.97-.51,2.99,0,5.02,4.09,9.1,9.11,9.1.01,0,.02,0,.03,0,.01,0,.02,0,.03,0,5.02,0,9.1-4.08,9.1-9.1,0-1.04-.17-2.05-.5-2.99-.27-.77-.67-1.53-1.25-2.32l-2.07-2.87c.66-.71,1.25-1.54,1.75-2.48h.45l2.5,3.45ZM79.83,70.79v.25c0,.72-.59,1.31-1.31,1.31h-4.2c.35-.89.61-1.86.78-2.87h3.41c.72,0,1.31.59,1.31,1.31M79.83,66.48v.25c0,.72-.59,1.31-1.31,1.31h-3.22c.04-.47.07-.95.07-1.44s-.03-.96-.07-1.43h3.22c.72,0,1.31.59,1.31,1.31M75.11,63.72c-.18-1.01-.44-1.97-.78-2.87h4.2c.72,0,1.31.59,1.31,1.31v.25c0,.72-.59,1.31-1.31,1.31h-3.41Z"/>
      <path class="cls-4" d="M66.6,55.85c-2.46,0-4.64,1.8-5.97,4.55,0,0,0,0,0,.01-.84,1.75-1.34,3.88-1.34,6.18s.5,4.43,1.34,6.18c0,0,0,0,0,0,1.33,2.75,3.51,4.56,5.97,4.56,4.03,0,7.32-4.82,7.32-10.75s-3.28-10.74-7.32-10.74"/>
      <path class="cls-2" d="M72.82,53.22c.48-.67.84-1.32,1.06-1.95.28-.8.42-1.65.42-2.52,0-4.23-3.43-7.66-7.66-7.66-.01,0-.02,0-.03,0-.01,0-.02,0-.03,0-4.23,0-7.66,3.44-7.66,7.66,0,.86.14,1.7.43,2.52.22.63.58,1.28,1.06,1.95l1.97,2.73c.91-.7,1.91-1.18,2.98-1.39l-2.33-3.22c-.31-.43-.51-.79-.63-1.12-.16-.46-.24-.95-.24-1.45,0-2.44,1.99-4.43,4.43-4.43.02,0,.08,0,.1,0h0c2.41,0,4.4,1.99,4.4,4.43,0,.5-.08.99-.25,1.46-.11.32-.32.69-.63,1.12l-2.33,3.22c1.07.22,2.07.69,2.98,1.39l1.97-2.73Z"/>
      <path class="cls-2" d="M54.68,63.72h3.42c.18-1.01.44-1.97.78-2.87h-4.2c-.72,0-1.31.59-1.31,1.31v.25c0,.72.59,1.31,1.31,1.31"/>
      <path class="cls-2" d="M59.55,59.41c.5-.94,1.08-1.77,1.75-2.48l-2.07-2.86c-.56-.78-.98-1.56-1.25-2.32-.34-.97-.51-1.97-.51-2.99,0-5.02,4.09-9.11,9.11-9.11.01,0,.02,0,.03,0,.01,0,.02,0,.03,0,5.02,0,9.1,4.09,9.1,9.11,0,1.03-.17,2.04-.5,2.99-.27.76-.69,1.54-1.25,2.32l-2.07,2.86c.66.71,1.25,1.54,1.75,2.48h.45l2.5-3.46c.76-1.06,1.32-2.09,1.68-3.15.45-1.3.68-2.67.68-4.05,0-6.8-5.53-12.33-12.33-12.33-.02,0-.08,0-.1,0-6.77,0-12.3,5.53-12.3,12.33,0,1.39.23,2.75.68,4.05.37,1.06.92,2.09,1.68,3.15l2.5,3.46h.44Z"/>
      <path class="cls-2" d="M54.68,68.03h3.23c-.04-.47-.07-.95-.07-1.44s.03-.96.07-1.43h-3.23c-.72,0-1.31.59-1.31,1.31v.25c0,.72.59,1.31,1.31,1.31"/>
      <path class="cls-2" d="M60.39,79.98c-.49.68-.84,1.32-1.06,1.95-.28.81-.43,1.65-.43,2.52,0,4.22,3.44,7.66,7.66,7.66.01,0,.02,0,.03,0,.01,0,.02,0,.03,0,4.22,0,7.66-3.43,7.66-7.66,0-.88-.14-1.72-.42-2.51-.22-.64-.57-1.27-1.06-1.95l-1.97-2.73c-.91.7-1.91,1.18-2.98,1.39l2.33,3.22c.31.43.51.79.63,1.12.16.46.24.95.24,1.45,0,2.44-1.99,4.43-4.43,4.43h-.02s-.07,0-.08,0c-2.41,0-4.4-1.99-4.4-4.43,0-.5.08-.99.24-1.46.11-.32.32-.69.63-1.12l2.33-3.22c-1.07-.22-2.07-.69-2.98-1.39l-1.97,2.72Z"/>
      <path class="cls-2" d="M78.52,60.85h-4.2c.35.89.6,1.86.78,2.87h3.41c.72,0,1.31-.59,1.31-1.31v-.25c0-.72-.59-1.31-1.31-1.31"/>
      <path class="cls-2" d="M58.1,69.48h-3.42c-.72,0-1.31.59-1.31,1.31v.25c0,.72.59,1.31,1.31,1.31h4.2c-.35-.89-.6-1.86-.78-2.87"/>
      <path class="cls-2" d="M78.52,65.16h-3.22c.04.47.07.95.07,1.43s-.03.96-.07,1.44h3.22c.72,0,1.31-.59,1.31-1.31v-.25c0-.72-.59-1.31-1.31-1.31"/>
      <path class="cls-2" d="M78.52,69.48h-3.41c-.18,1.01-.44,1.97-.78,2.87h4.2c.72,0,1.31-.59,1.31-1.31v-.25c0-.72-.59-1.31-1.31-1.31"/>
      <path class="cls-2" d="M73.66,73.79c-.49.94-1.08,1.77-1.75,2.48l2.07,2.87c.58.79.98,1.55,1.25,2.32.33.94.5,1.95.5,2.99,0,5.02-4.08,9.1-9.1,9.1-.01,0-.02,0-.03,0-.01,0-.02,0-.03,0-5.02,0-9.11-4.08-9.11-9.1,0-1.03.17-2.04.51-2.99.26-.76.67-1.52,1.25-2.32l2.07-2.86c-.66-.71-1.25-1.54-1.75-2.48h-.45l-2.49,3.45c-.76,1.06-1.32,2.09-1.68,3.15-.45,1.3-.68,2.67-.68,4.05,0,6.8,5.53,12.33,12.33,12.33.02,0,.06,0,.08,0,6.79,0,12.32-5.53,12.32-12.33,0-1.39-.23-2.75-.68-4.05-.37-1.06-.92-2.09-1.68-3.15l-2.5-3.45h-.45Z"/>
      <path class="cls-3" d="M70.94,66.12l-1.78,2.58c-.08.11,0,.26.14.26h.21c.11,0,.18.12.11.21l-.87,1.27c-.09.13,0,.3.16.3h.26c.13,0,.2.15.12.26-.3.36-.96,1.01-1.94,1.24v-7.12c1.22-.33,2.12-1.44,2.12-2.77,0-1.58-1.28-2.87-2.87-2.87s-2.87,1.28-2.87,2.87c0,1.32.9,2.43,2.12,2.77v7.12c-.99-.23-1.64-.88-1.94-1.24-.08-.1-.01-.26.12-.26h.26c.15,0,.24-.17.16-.3l-.87-1.27c-.06-.09,0-.21.11-.21h.21c.13,0,.21-.15.14-.26l-1.78-2.58c-.13-.19-.43-.1-.43.13v2.7c0,2.63,2.14,4.77,4.77,4.77s4.77-2.13,4.77-4.77v-2.7c0-.23-.3-.32-.43-.13M65.33,62.35c0-.7.57-1.28,1.28-1.28s1.28.57,1.28,1.28-.57,1.28-1.28,1.28-1.28-.57-1.28-1.28"/>
    </g>
  </g>
</svg>