<?xml version="1.0" encoding="UTF-8"?>
<svg id="Layer_2" data-name="Layer 2" xmlns="http://www.w3.org/2000/svg" viewBox="0 0 133.2 133.2">
  <defs>
    <style>
      .cls-1 {
        fill: #5e7dbd;
      }

      .cls-2 {
        fill: #f8ead6;
      }

      .cls-3 {
        fill: #984499;
      }

      .cls-4 {
        fill: #e6a631;
      }

      .cls-5 {
        fill: #f7e9d5;
      }

      .cls-6 {
        fill: #f8b62c;
      }

      .cls-7 {
        fill: #081b1e;
      }

      .cls-8 {
        fill: #6fb360;
      }

      .cls-9 {
        fill: #ee4423;
      }
    </style>
  </defs>
  <g id="Art">
    <rect class="cls-2" width="133.2" height="133.2"/>
    <g>
      <circle class="cls-7" cx="66.6" cy="66.6" r="8.54"/>
      <g>
        <path class="cls-5" d="M66.44,66.88c-.15,0-.31-.07-.41-.21l-3.49-4.82c-.16-.22-.11-.54.11-.7.22-.16.54-.11.7.11l3.49,4.82c.16.22.11.54-.11.7-.09.06-.19.1-.29.1Z"/>
        <path class="cls-5" d="M70.74,68.42c-.05,0-.1,0-.15-.02l-4.14-1.35c-.26-.09-.41-.37-.32-.63.08-.26.37-.41.63-.32l4.14,1.35c.26.09.41.37.32.63-.07.21-.26.35-.48.35Z"/>
      </g>
      <circle class="cls-5" cx="66.6" cy="66.6" r="1.27"/>
      <path class="cls-4" d="M58.23,69.77h0s-.01-.05-.02-.07l.02.07Z"/>
      <path class="cls-4" d="M74.98,69.77l.03-.08s-.02.05-.03.08h0Z"/>
      <path class="cls-4" d="M72.21,59.62l-.09-.06s.06.04.08.07h0Z"/>
      <path class="cls-4" d="M71.52,59.11h0s.04.03.06.04l-.05-.04Z"/>
      <path class="cls-4" d="M58.03,69.85h0s-.02-.05-.02-.07l.02.07Z"/>
      <path class="cls-4" d="M75.18,69.85l.03-.08s-.02.06-.03.08h0Z"/>
      <path class="cls-4" d="M72.34,59.45l-.09-.06s.06.04.09.07h0Z"/>
      <path class="cls-4" d="M71.63,58.93h0s.04.03.06.04l-.06-.04Z"/>
      <g>
        <path class="cls-9" d="M60.41,93.1c0-6,2.36-11.44,6.17-15.49,3.8,4.06,6.13,9.51,6.12,15.51-.01,6-2.36,11.44-6.18,15.49-3.8-4.07-6.13-9.51-6.12-15.51"/>
        <path class="cls-7" d="M66.53,109.35l-.36-.39c-4.04-4.33-6.27-9.96-6.26-15.85,0-5.89,2.25-11.52,6.31-15.83l.37-.39.36.39c4.04,4.33,6.27,9.96,6.26,15.85-.01,5.89-2.25,11.52-6.31,15.83l-.37.39ZM60.41,93.1h.5c0,5.46,1.98,10.68,5.62,14.77,3.65-4.08,5.66-9.29,5.67-14.75,0-5.46-1.98-10.68-5.62-14.77-3.65,4.08-5.67,9.29-5.67,14.75h-.5Z"/>
      </g>
      <g>
        <path class="cls-9" d="M72.79,40.09c0,6-2.36,11.44-6.17,15.49-3.8-4.06-6.13-9.51-6.12-15.51.01-6,2.36-11.44,6.18-15.49,3.8,4.07,6.13,9.51,6.12,15.51"/>
        <path class="cls-7" d="M66.62,56.32l-.36-.39c-4.04-4.33-6.27-9.96-6.26-15.85.01-5.89,2.25-11.52,6.31-15.83l.37-.39.36.39c4.05,4.33,6.27,9.97,6.26,15.86,0,5.89-2.25,11.52-6.31,15.83l-.37.39ZM66.67,25.32c-3.65,4.08-5.67,9.29-5.67,14.75,0,5.46,1.99,10.68,5.62,14.77,3.66-4.08,5.67-9.29,5.67-14.75h0c0-5.46-1.98-10.68-5.62-14.77Z"/>
      </g>
      <g>
        <path class="cls-6" d="M80.53,36.47c-2.41,3.3-10.4,19.08-7.57,21.15s15.42-10.38,17.82-13.67c2.41-3.3,2.06-7.65-.77-9.71-2.83-2.07-7.08-1.06-9.48,2.24"/>
        <path class="cls-7" d="M73.74,58.37c-.59,0-.9-.22-1.08-.35-.54-.39-2.19-1.59,1.65-10.71,1.9-4.5,4.53-9.39,5.8-11.14h0c1.23-1.69,2.96-2.87,4.87-3.32,1.94-.46,3.82-.11,5.31.98,3.05,2.22,3.44,6.89.88,10.41-1.27,1.74-5.12,5.75-8.83,8.93-5.02,4.31-7.42,5.2-8.62,5.2ZM86.64,33.66c-.46,0-.94.06-1.41.17-1.67.4-3.2,1.44-4.29,2.94h0c-1.24,1.7-3.82,6.5-5.69,10.94-2.61,6.18-2.73,8.97-1.99,9.51.74.54,3.36-.43,8.45-4.8,3.65-3.14,7.43-7.06,8.67-8.76,2.24-3.07,1.94-7.11-.66-9.01-.89-.65-1.95-.98-3.08-.98Z"/>
      </g>
      <g>
        <path class="cls-6" d="M52.67,96.73c2.41-3.3,10.4-19.08,7.57-21.15-2.83-2.06-15.42,10.38-17.82,13.67-2.41,3.3-2.06,7.65.77,9.71,2.83,2.07,7.08,1.06,9.48-2.24"/>
        <path class="cls-7" d="M46.56,100.54c-1.34,0-2.6-.4-3.66-1.17-3.05-2.22-3.44-6.89-.88-10.41,1.74-2.39,15.08-16.28,18.52-13.78.54.39,2.19,1.59-1.65,10.71-1.9,4.5-4.53,9.39-5.8,11.14h0c-1.23,1.69-2.96,2.87-4.87,3.32-.56.13-1.11.2-1.65.2ZM59.37,75.83c-3.2,0-13.73,9.86-16.55,13.72-2.24,3.07-1.94,7.11.66,9.01,1.25.91,2.84,1.2,4.49.81,1.67-.39,3.2-1.44,4.29-2.94h0c1.24-1.7,3.82-6.5,5.69-10.94,2.61-6.18,2.73-8.97,1.99-9.51-.15-.11-.34-.16-.57-.16Z"/>
      </g>
      <g>
        <g>
          <path class="cls-8" d="M99.1,48.94c-7.8,2.52-23.18,10.63-22.05,14.13,1.13,3.5,18.35,1.08,26.15-1.44,7.8-2.52-.55-2.96-1.68-6.46-1.13-3.5,5.38-8.74-2.42-6.22"/>
          <path class="cls-7" d="M83.44,65.32c-3.63,0-6.37-.57-6.87-2.1-1.35-4.17,15.08-12.4,22.37-14.76h0c2.52-.82,3.72-.9,4.28-.28.58.64.15,1.63-.4,2.89-.54,1.23-1.21,2.77-.83,3.94.38,1.17,1.82,2.03,2.98,2.71,1.18.7,2.11,1.25,2.02,2.11-.09.82-1.11,1.46-3.63,2.27-4.63,1.5-13.61,3.22-19.91,3.22ZM99.26,49.41h0c-8.26,2.67-22.65,10.65-21.73,13.5.92,2.85,17.26.9,25.52-1.77,2.81-.91,2.94-1.38,2.95-1.43.02-.22-1.03-.84-1.53-1.14-1.3-.77-2.92-1.73-3.42-3.26-.5-1.54.26-3.26.87-4.65.23-.54.72-1.65.57-1.82-.03-.04-.41-.34-3.23.56Z"/>
        </g>
        <g>
          <path class="cls-8" d="M34.1,84.26c7.8-2.52,23.18-10.63,22.05-14.13-1.13-3.5-18.35-1.08-26.15,1.44-7.8,2.52.55,2.96,1.68,6.46,1.13,3.5-5.38,8.74,2.42,6.22"/>
          <path class="cls-7" d="M31.12,85.42c-.54,0-.91-.13-1.15-.4-.58-.64-.15-1.63.4-2.89.54-1.23,1.21-2.77.83-3.94-.38-1.17-1.82-2.02-2.98-2.71-1.18-.7-2.11-1.25-2.02-2.11.09-.82,1.11-1.46,3.63-2.27,4.1-1.33,10.4-2.53,15.68-3,6.76-.6,10.5.03,11.09,1.88,1.35,4.17-15.08,12.4-22.37,14.76h0c-1.42.46-2.42.69-3.13.69ZM49.91,68.88c-1.21,0-2.63.06-4.29.21-5.22.47-11.43,1.66-15.47,2.96-2.81.91-2.94,1.38-2.95,1.43-.02.22,1.03.84,1.53,1.14,1.3.77,2.92,1.73,3.42,3.26.5,1.53-.26,3.26-.86,4.65-.23.54-.72,1.65-.57,1.82.03.04.42.34,3.23-.56,8.26-2.67,22.65-10.65,21.73-13.5-.24-.75-1.92-1.4-5.76-1.4Z"/>
        </g>
      </g>
      <g>
        <path class="cls-1" d="M78.68,72.47l10.01,7.29c2.81,2.05,6.74,2.89,9.75,2.08l5.66-1.51c1.4-.37,1.8-1.59.89-2.72l-3.62-4.49c-1.96-2.43-5.63-4.07-9.11-4.08h-12.45c-2.41-.02-3.07,2.01-1.12,3.43"/>
        <path class="cls-7" d="M96.01,82.65c-2.61,0-5.43-.89-7.62-2.48l-10.01-7.29c-1.08-.79-1.56-1.87-1.25-2.81.31-.95,1.33-1.53,2.67-1.53h12.46c3.63.02,7.45,1.73,9.5,4.28l3.62,4.49c.55.68.73,1.43.51,2.11-.22.68-.81,1.18-1.66,1.41l-5.66,1.51c-.8.21-1.67.32-2.56.32ZM79.8,69.53c-.89,0-1.54.32-1.71.84-.17.52.17,1.17.89,1.7h0l10.01,7.29c2.7,1.97,6.44,2.77,9.33,2l5.66-1.51c.51-.14.85-.4.96-.75.11-.35,0-.76-.33-1.17l-3.62-4.49c-1.87-2.32-5.38-3.89-8.72-3.89h-12.46s0-.01,0-.01Z"/>
      </g>
      <g>
        <path class="cls-1" d="M54.52,60.73l-10.01-7.29c-2.81-2.05-6.74-2.89-9.75-2.08l-5.66,1.51c-1.4.37-1.8,1.59-.89,2.72l3.62,4.49c1.96,2.43,5.63,4.07,9.11,4.08h12.45c2.41.02,3.07-2.01,1.12-3.43"/>
        <path class="cls-7" d="M53.4,64.67h-12.46c-3.63-.02-7.45-1.73-9.5-4.28l-3.62-4.49c-.55-.68-.73-1.43-.51-2.11.22-.68.81-1.18,1.66-1.41l5.66-1.51c3.15-.84,7.25.02,10.18,2.16l10.01,7.29c1.08.79,1.56,1.87,1.25,2.81-.31.95-1.33,1.53-2.67,1.53ZM37.21,51.55c-.81,0-1.59.09-2.32.29l-5.66,1.51c-.51.14-.85.4-.96.75-.11.35,0,.76.34,1.17l3.62,4.49c1.87,2.32,5.38,3.89,8.72,3.89h12.45s0,.01,0,.01c.89,0,1.55-.32,1.72-.84.17-.52-.17-1.17-.89-1.7h0l-10.01-7.29c-2.02-1.47-4.62-2.29-7.01-2.29Z"/>
      </g>
      <g>
        <g>
          <path class="cls-3" d="M60.25,57.47c-.5.2-2.43.51-5.93-4.15-3.78-5.03-7.83-2.77-12.5-9.02-3.84-5.16-.96-10.92.03-12.59h0c1.89-.42,8.27-1.36,11.97,3.9,4.48,6.39,1.07,9.52,4.67,14.69,3.34,4.78,2.28,6.65,1.93,7.06l-.18.11Z"/>
          <path class="cls-7" d="M59.71,58.07c-1.08,0-3-.73-5.79-4.44-1.7-2.26-3.48-2.98-5.36-3.75-2.15-.87-4.59-1.86-7.14-5.27-4.02-5.4-1.02-11.42,0-13.14l.11-.19.21-.05c1.95-.43,8.61-1.41,12.49,4.1,2.45,3.49,2.62,6.11,2.78,8.43.14,2.03.27,3.94,1.89,6.26,3.41,4.88,2.47,6.99,1.91,7.67l-.13.11-.25.15c-.17.07-.41.13-.72.13ZM42.18,32.16c-1.02,1.8-3.47,7.12.05,11.85,2.38,3.19,4.58,4.08,6.71,4.94,1.92.78,3.92,1.59,5.78,4.07,3.28,4.37,5.01,4.09,5.31,3.99l.05-.03c.24-.36,1.02-2.08-2-6.4-1.78-2.55-1.92-4.69-2.06-6.77-.16-2.29-.32-4.66-2.6-7.92-3.39-4.82-9.21-4.15-11.24-3.74Z"/>
        </g>
        <g>
          <path class="cls-3" d="M72.95,75.77c.5-.2,2.43-.51,5.93,4.15,3.78,5.03,7.83,2.76,12.5,9.02,3.84,5.16.96,10.92-.03,12.59h0c-1.89.42-8.27,1.36-11.97-3.9-4.49-6.39-1.07-9.52-4.67-14.69-3.34-4.78-2.28-6.65-1.93-7.06l.18-.11Z"/>
          <path class="cls-7" d="M88.16,102.37c-2.83,0-6.62-.8-9.2-4.45-2.45-3.49-2.63-6.11-2.78-8.43-.14-2.03-.27-3.94-1.89-6.26-3.41-4.88-2.47-6.99-1.91-7.67l.12-.11.26-.15c.76-.3,2.92-.47,6.51,4.31,1.7,2.26,3.48,2.98,5.36,3.75,2.15.87,4.59,1.86,7.14,5.27,4.02,5.4,1.02,11.42,0,13.14l-.08.13-.25.11c-.66.14-1.85.35-3.29.35ZM73.11,76.26c-.24.36-1.02,2.07,2,6.4,1.78,2.55,1.92,4.69,2.07,6.77.16,2.29.32,4.66,2.6,7.92,3.39,4.82,9.21,4.15,11.24,3.74,1.02-1.8,3.47-7.12-.05-11.85-2.38-3.19-4.58-4.08-6.71-4.94-1.92-.78-3.92-1.59-5.78-4.07-3.28-4.37-5-4.09-5.31-3.99l-.05.03Z"/>
        </g>
      </g>
      <g>
        <path class="cls-3" d="M60.25,57.47c-.5.2-2.43.51-5.93-4.15-3.78-5.03-7.83-2.77-12.5-9.02-3.84-5.16-.96-10.92.03-12.59h0c1.89-.42,8.27-1.36,11.97,3.9,4.48,6.39,1.07,9.52,4.67,14.69,3.34,4.78,2.28,6.65,1.93,7.06l-.18.11Z"/>
        <path class="cls-7" d="M59.71,58.07c-1.08,0-3-.73-5.79-4.44-1.7-2.26-3.48-2.98-5.36-3.75-2.15-.87-4.59-1.86-7.14-5.27-4.02-5.4-1.02-11.42,0-13.14l.11-.19.21-.05c1.95-.43,8.61-1.41,12.49,4.1,2.45,3.49,2.62,6.11,2.78,8.43.14,2.03.27,3.94,1.89,6.26,3.41,4.88,2.47,6.99,1.91,7.67l-.13.11-.25.15c-.17.07-.41.13-.72.13ZM42.18,32.16c-1.02,1.8-3.47,7.12.05,11.85,2.38,3.19,4.58,4.08,6.71,4.94,1.92.78,3.92,1.59,5.78,4.07,3.28,4.37,5.01,4.09,5.31,3.99l.05-.03c.24-.36,1.02-2.08-2-6.4-1.78-2.55-1.92-4.69-2.06-6.77-.16-2.29-.32-4.66-2.6-7.92-3.39-4.82-9.21-4.15-11.24-3.74Z"/>
      </g>
      <g>
        <path class="cls-3" d="M72.95,75.77c.5-.2,2.43-.51,5.93,4.15,3.78,5.03,7.83,2.76,12.5,9.02,3.84,5.16.96,10.92-.03,12.59h0c-1.89.42-8.27,1.36-11.97-3.9-4.49-6.39-1.07-9.52-4.67-14.69-3.34-4.78-2.28-6.65-1.93-7.06l.18-.11Z"/>
        <path class="cls-7" d="M88.16,102.37c-2.83,0-6.62-.8-9.2-4.45-2.45-3.49-2.63-6.11-2.78-8.43-.14-2.03-.27-3.94-1.89-6.26-3.41-4.88-2.47-6.99-1.91-7.67l.12-.11.26-.15c.76-.3,2.92-.47,6.51,4.31,1.7,2.26,3.48,2.98,5.36,3.75,2.15.87,4.59,1.86,7.14,5.27,4.02,5.4,1.02,11.42,0,13.14l-.08.13-.25.11c-.66.14-1.85.35-3.29.35ZM73.11,76.26c-.24.36-1.02,2.07,2,6.4,1.78,2.55,1.92,4.69,2.07,6.77.16,2.29.32,4.66,2.6,7.92,3.39,4.82,9.21,4.15,11.24,3.74,1.02-1.8,3.47-7.12-.05-11.85-2.38-3.19-4.58-4.08-6.71-4.94-1.92-.78-3.92-1.59-5.78-4.07-3.28-4.37-5-4.09-5.31-3.99l-.05.03Z"/>
      </g>
    </g>
  </g>
</svg>