<?xml version="1.0" encoding="UTF-8"?>
<svg id="Layer_2" data-name="Layer 2" xmlns="http://www.w3.org/2000/svg" xmlns:xlink="http://www.w3.org/1999/xlink" viewBox="0 0 133.26 133.26">
  <defs>
    <style>
      .cls-1 {
        fill: none;
      }

      .cls-2 {
        fill: #f8ead6;
      }

      .cls-3 {
        fill: #6db360;
      }

      .cls-4 {
        fill: #071b1e;
      }

      .cls-5 {
        clip-path: url(#clippath);
      }
    </style>
    <clipPath id="clippath">
      <rect class="cls-1" width="133.25" height="133.25"/>
    </clipPath>
  </defs>
  <g id="Layer_2-2" data-name="Layer 2">
    <g>
      <rect class="cls-3" x=".06" y=".06" width="133.2" height="133.2"/>
      <g id="_Clip_Group_" data-name=" Clip Group ">
        <g class="cls-5">
          <g>
            <path class="cls-2" d="M-2.25,41.9c-14.29-1.61-34.47,30.49-25.76,43.94,4.04,6.23,13.72,7.56,20.26,6.44,11.72-2.01,20.15-13.07,20.83-24.62.71-11.99-6.91-24.81-15.34-25.76h.01Z"/>
            <path class="cls-2" d="M71.01,117.92c-16.54.06-31.66,23.34-26.5,36.92,6.39,16.8,44.09,19.51,52.41,6.32,7.74-12.26-6.77-43.31-25.91-43.25h0Z"/>
            <path class="cls-2" d="M92.34,97.63c-5.38-3.59-16.48.48-16.4,7.52.08,6.96,11.04,14.4,16.42,12.52,5.99-2.1,5.92-16.08-.01-20.04h0Z"/>
            <path class="cls-2" d="M97.56,67.54c-5.04,2.56-9.31,8.86-8.31,15.7.82,5.6,4.97,10.07,9.54,11.69,10.35,3.69,24.49-6.6,23.85-15.39-.62-8.51-15.2-17.01-25.08-12Z"/>
            <path class="cls-2" d="M92.28,55.21c6.14,2.78,12.68-.1,13.68-.56,1.67-.76,7.72-3.54,8.06-7.52.71-8.27-23.26-21.02-29.42-15.52-4.43,3.95-1.88,19.26,7.68,23.59h0Z"/>
            <path class="cls-2" d="M11.73,13.15c-2.95,3.27-10.13,11.23-7.7,16.75,2.82,6.4,18.26,8.83,26.83,1.61,9.6-8.08,7.99-26.03,1.56-29.36C26.39-.98,15.83,8.6,11.72,13.15h.01Z"/>
            <path class="cls-2" d="M92.21,5.6c-2.25,7.09,10.07,16.07,16.97,19.77,2.62,1.41,12.59,6.75,15.62,3.62,3.18-3.28-2.82-14.35-8.6-20.82-3.57-4.01-8.11-9.1-14.49-8.6-3.55.28-8.33,2.33-9.5,6.03h0Z"/>
            <path class="cls-2" d="M139.17,48.04c-1.4,0-7.55-.02-10.33,5.63-3.08,6.26-.42,16.23,2.88,21.6,8.29,13.5,28.68,11.05,31.33,2.11,2.64-8.9-10.76-29.31-23.88-29.34Z"/>
            <path class="cls-2" d="M108.52,102.79c-3.63,3.96-3.22,9.17-3.04,11.4.32,4.02,2.32,10.98,6.57,11.31,7.17.56,21.11-17.76,16.88-24.31-2.89-4.48-14.9-4.4-20.4,1.6h-.01Z"/>
            <path class="cls-2" d="M50.17,54.64c11.21,4.54,19.11-10.17,21.93-15.43,2.42-4.51,7.62-14.2,4.36-17.72-6.09-6.58-41.61,8.42-36.47,23.26,1.51,4.37,6.42,8.36,10.18,9.88h0Z"/>
            <path class="cls-2" d="M53.91,93.21c-1.78-.62-5.48-1.91-8.35-.23-5.41,3.19-5.83,15.83-.23,19.4,5.91,3.77,17.97-2.91,18.05-9.47.05-4.46-5.43-8.29-9.47-9.7Z"/>
            <path class="cls-2" d="M56.82,74.16c-.22-7.96,5.69-15.63,13.21-17.02.78-.14,6.69-1.14,10.67,2.41,8.13,7.27,3.23,29.12-5.97,31.37-6.56,1.61-17.62-6.17-17.91-16.77h0Z"/>
            <path class="cls-2" d="M43.55,1.81c3.48,4.71,6.55,8.87,10.78,10.33,12.26,4.21,33.07-14.77,30.22-23.46-3.51-10.72-44.42-10.06-47.63-.68-1.13,3.31,2.33,7.99,6.63,13.81Z"/>
            <path class="cls-2" d="M23.76,60.73c-5.25,6.24-.23,22.32,9.44,23.96,5.84.99,13.23-3.3,14.82-9.86,1.92-7.94-5.61-15.37-12.83-16.83-.54-.11-7.87-1.49-11.43,2.73Z"/>
            <path class="cls-2" d="M6.13,111.01c-1.17-1.7-4.89-7.09-2.59-10.99,3.34-5.66,17.98-5.84,24.92-.05,8.24,6.87,4.09,20.9-4.28,21.94-6.13.76-14.29-5.46-18.05-10.9Z"/>
            <path class="cls-4" d="M-12.13,93.29c-6.4,0-13.23-2.19-16.42-7.1-5.01-7.73-.69-20.34,4.54-28.78,4.96-8.03,13.72-17.06,21.84-16.15h0c8.76.99,16.64,14.08,15.91,26.44-.73,12.41-9.92,23.25-21.37,25.22-1.44.25-2.96.37-4.5.37ZM-3.27,42.49c-6.02,0-13.78,6.11-19.65,15.6-5.03,8.13-9.23,20.18-4.55,27.39,3.65,5.62,12.63,7.35,19.61,6.15,10.87-1.87,19.59-12.19,20.29-24.02.68-11.52-6.77-24.17-14.76-25.07-.31-.04-.63-.05-.94-.05Z"/>
            <path class="cls-4" d="M74.88,170.14c-1.68,0-3.34-.08-4.95-.25-10.25-1.03-22.46-5.46-26.02-14.82-2.5-6.59-.54-15.8,5.12-24.04,5.9-8.59,14.12-13.73,21.98-13.76v.65-.65h.06c8.73,0,17.47,6.36,23.38,17.04,5.64,10.19,6.86,21.13,3.02,27.21-3.86,6.12-13.43,8.63-22.58,8.63h-.01ZM71.07,118.57h-.06c-7.44.03-15.26,4.96-20.92,13.2-5.43,7.9-7.33,16.65-4.98,22.85,3.35,8.81,15.08,13,24.94,13.99,12.04,1.21,22.62-1.92,26.31-7.78,3.54-5.6,2.28-16.25-3.06-25.89-5.68-10.25-13.99-16.37-22.24-16.37h0Z"/>
            <path class="cls-4" d="M90.45,118.61c-2.45,0-5.46-1.11-8.35-3.13-3.27-2.29-6.77-6.21-6.82-10.33-.03-3.08,1.9-5.91,5.3-7.75,4.09-2.22,9.08-2.35,12.11-.32h0c3.84,2.56,5.23,8.76,4.62,13.56-.5,3.97-2.24,6.75-4.76,7.63-.63.22-1.34.33-2.11.33h.01ZM87.38,96.96c-2.03,0-4.24.54-6.18,1.59-2.96,1.61-4.65,4.01-4.62,6.59.03,3.04,2.43,6.59,6.26,9.28,3.4,2.39,7.05,3.42,9.29,2.64,2.01-.7,3.47-3.16,3.9-6.57.54-4.3-.69-10.08-4.06-12.32-1.21-.81-2.84-1.21-4.6-1.21h0Z"/>
            <path class="cls-4" d="M103.44,96.36c-1.63,0-3.27-.25-4.87-.82-5.15-1.84-9.16-6.74-9.96-12.21-1.08-7.32,3.54-13.77,8.66-16.37h0c4.88-2.47,11.54-1.95,17.39,1.35,5.03,2.85,8.34,7.13,8.64,11.18.29,4.06-2.31,8.61-6.98,12.15-3.3,2.51-8.04,4.71-12.88,4.71h0ZM104.09,66.7c-2.12,0-4.25.41-6.23,1.42h0c-4.7,2.38-8.95,8.31-7.96,15.02.74,5.01,4.4,9.5,9.12,11.18,5.86,2.08,12.37-.54,16.52-3.7,4.25-3.23,6.73-7.46,6.47-11.03-.26-3.62-3.32-7.51-7.98-10.15-2.71-1.53-6.3-2.74-9.93-2.74h-.01Z"/>
            <path class="cls-4" d="M98.07,57.06c-1.93,0-4.01-.33-6.06-1.26h0c-6.09-2.76-9.12-9.41-9.93-14.71-.68-4.46.1-8.19,2.08-9.96,3.45-3.08,11.09-.98,17.09,2.02,6.98,3.49,13.83,9.18,13.41,14.03-.25,2.89-3.08,5.6-8.44,8.05-1.2.55-4.39,1.82-8.17,1.82h.02ZM92.55,54.62c5.57,2.52,11.47.21,13.15-.56,6.1-2.79,7.55-5.34,7.69-6.99.34-4.04-6.13-9.48-12.7-12.76-6.95-3.48-13.24-4.37-15.65-2.22-1.63,1.46-2.27,4.83-1.67,8.8.72,4.74,3.56,11.18,9.18,13.72h0Z"/>
            <path class="cls-4" d="M17.61,36.56c-1.99,0-3.85-.23-5.45-.6-4.36-1.01-7.54-3.13-8.72-5.8-2.6-5.9,4.69-13.99,7.81-17.44h0c.56-.62,13.79-15.14,21.48-11.14,2.82,1.46,4.84,5.44,5.42,10.63.69,6.2-.76,14.66-6.86,19.8-4.01,3.37-9.16,4.55-13.68,4.55ZM12.21,13.58h0c-2.69,2.99-9.84,10.92-7.58,16.05,1,2.26,3.92,4.15,7.83,5.06,4.92,1.14,12.59.87,17.99-3.68,5.72-4.81,7.03-13.06,6.41-18.66-.52-4.69-2.33-8.38-4.73-9.63C27.07.09,17.45,7.77,12.21,13.58Z"/>
            <path class="cls-4" d="M121.93,30.62c-2.91,0-7.23-1.55-13.06-4.68-7.03-3.77-19.69-12.91-17.28-20.54h0c1.22-3.84,5.98-6.17,10.07-6.48,6.7-.51,11.31,4.66,15.02,8.82,5.8,6.51,12.19,17.98,8.58,21.71-.76.78-1.86,1.18-3.33,1.18h0ZM92.82,5.79h0c-2,6.32,8.87,14.83,16.66,19,10.58,5.67,13.84,4.78,14.85,3.74,2.64-2.73-2.56-13.14-8.62-19.94-3.52-3.95-7.9-8.85-13.95-8.39-3.56.28-7.9,2.33-8.93,5.58h-.01Z"/>
            <path class="cls-4" d="M149.45,85.38c-6.18,0-13.81-2.49-18.28-9.77-3.19-5.19-6.2-15.52-2.91-22.22,1.35-2.74,4.32-6,10.86-6h.05c6.1.02,13,4.39,18.44,11.71,4.93,6.63,7.37,14.05,6.05,18.46-1.17,3.93-5.53,6.86-11.38,7.63-.9.12-1.85.18-2.84.18h0ZM139.12,48.69c-4.65,0-8,1.82-9.7,5.27-3.08,6.26-.18,16.03,2.85,20.97,4.87,7.92,13.73,9.79,19.85,8.98,5.25-.69,9.3-3.33,10.31-6.72,1.2-4.04-1.15-11.01-5.85-17.32-5.2-6.99-11.71-11.18-17.41-11.19h-.05Z"/>
            <path class="cls-4" d="M112.36,126.16c-.12,0-.25,0-.37-.02-4.59-.36-6.8-7.32-7.16-11.91-.18-2.31-.61-7.72,3.21-11.89h0c3.83-4.18,10.02-5.25,14.17-4.9,3.41.29,6.05,1.52,7.26,3.39,1.74,2.69.88,7.34-2.35,12.77-3.74,6.27-10.19,12.55-14.75,12.55h0ZM120.71,98.69c-3.96,0-8.78,1.34-11.72,4.54h0c-3.44,3.75-3.04,8.77-2.87,10.91.34,4.29,2.42,10.44,5.97,10.72,3.56.25,9.83-5.06,13.9-11.91,2.93-4.91,3.82-9.18,2.38-11.4-.98-1.52-3.27-2.54-6.28-2.8-.44-.04-.91-.06-1.38-.06Z"/>
            <path class="cls-4" d="M54.42,56.24c-2.03,0-3.57-.62-4.5-1h0c-3.94-1.59-8.98-5.74-10.55-10.27-2.18-6.28,2.22-13.27,12.06-19.17,9.28-5.56,21.74-8.8,25.49-4.75,3.57,3.86-1.72,13.72-4.27,18.46-7.47,13.91-13.95,16.72-18.24,16.72h.01ZM71.3,20.54c-4.95,0-12.51,2.37-19.19,6.38-9.13,5.47-13.43,12.06-11.5,17.63,1.39,4.02,6.08,7.98,9.81,9.49h0c10.68,4.32,18.26-9.81,21.11-15.13,2.22-4.13,7.4-13.79,4.46-16.97-.88-.95-2.54-1.4-4.68-1.4h0Z"/>
            <path class="cls-4" d="M49.47,114.13c-1.6,0-3.15-.35-4.48-1.2-2.74-1.75-4.4-5.72-4.32-10.36.08-4.65,1.83-8.54,4.56-10.15,3.12-1.84,7.02-.48,8.89.17l-.21.61.21-.61c3.86,1.35,9.97,5.34,9.91,10.32-.04,3.23-2.83,6.82-7.12,9.14-2.15,1.16-4.86,2.07-7.44,2.07h0ZM48.89,92.8c-1.03,0-2.08.2-3,.74-2.31,1.36-3.85,4.92-3.92,9.06-.07,4.19,1.35,7.73,3.72,9.24,2.49,1.58,6.65,1.23,10.61-.92,3.88-2.1,6.41-5.25,6.44-8.02.05-4.07-5.26-7.76-9.04-9.08h0c-1.09-.38-2.93-1.02-4.8-1.02h-.01Z"/>
            <path class="cls-4" d="M72.93,91.78c-2.83,0-6.14-1.25-9.09-3.5-4.65-3.55-7.52-8.82-7.66-14.1h0c-.23-8.31,5.94-16.24,13.74-17.67,1.15-.21,7.13-1.09,11.22,2.57,5,4.47,4.97,13.29,3.42,19.49-1.74,6.98-5.44,11.96-9.67,12.99-.62.15-1.27.22-1.96.23h0ZM72.82,57.55c-1.29,0-2.28.16-2.67.23-7.2,1.33-12.89,8.67-12.68,16.36h0c.13,4.9,2.81,9.8,7.15,13.11,3.36,2.56,7.17,3.72,9.95,3.05,3.7-.91,7.12-5.63,8.72-12.05,1.57-6.31,1.25-14.39-3.03-18.21-2.29-2.04-5.28-2.49-7.44-2.49Z"/>
            <path class="cls-4" d="M58.18,13.39c-1.41,0-2.77-.2-4.05-.64-4.42-1.52-7.51-5.7-11.09-10.54h0l.52-.39-.53.38c-4.44-6.02-7.96-10.77-6.71-14.4,1.82-5.36,14.15-7.73,24.8-7.65,9.86.07,22.08,2.29,24.06,8.32,1.22,3.72-1.47,9.42-7.02,14.88-5.46,5.39-13.25,10.03-19.98,10.03h0ZM44.07,1.42h0c3.45,4.68,6.43,8.71,10.47,10.1,6.87,2.36,16.58-3.06,22.7-9.09,5.11-5.04,7.74-10.36,6.69-13.56-1.65-5.03-12.65-7.36-22.83-7.43-12.33-.09-22.2,2.76-23.57,6.75-1.02,2.98,2.48,7.72,6.53,13.21l-.52.39.52-.39v.02Z"/>
            <path class="cls-4" d="M34.89,85.48c-.62,0-1.22-.05-1.8-.15-4.61-.78-8.64-4.74-10.78-10.58-2.06-5.63-1.69-11.3.95-14.44,3.76-4.46,11.21-3.12,12.05-2.95,4.49.91,9,4.03,11.5,7.96,1.97,3.1,2.61,6.44,1.83,9.66-1.56,6.44-8.14,10.49-13.76,10.49h0ZM24.25,61.15h0c-2.31,2.75-2.61,8.04-.73,13.16,1.53,4.17,4.9,8.91,9.78,9.74,5.24.89,12.54-3.01,14.08-9.37.88-3.62-.42-6.71-1.66-8.66-2.32-3.65-6.51-6.54-10.66-7.38-.3-.06-7.47-1.45-10.8,2.51h-.01Z"/>
            <path class="cls-4" d="M23.14,122.62c-6.08,0-13.66-5.62-17.54-11.24l.53-.37-.53.37c-1.27-1.84-5.13-7.43-2.61-11.68,1.26-2.13,4.01-3.66,7.76-4.31,6.46-1.11,13.91.56,18.13,4.08,4.97,4.14,5.37,10.27,4.09,14.62-1.39,4.72-4.73,7.96-8.71,8.45-.37.05-.74.07-1.12.07h0ZM14.88,96.34c-1.32,0-2.64.11-3.91.33-3.37.58-5.81,1.89-6.87,3.69-2.09,3.54,1.41,8.62,2.56,10.29h0c3.93,5.69,11.87,11.3,17.44,10.62,3.46-.43,6.38-3.32,7.62-7.53,1.16-3.96.81-9.52-3.67-13.26-3.12-2.61-8.17-4.13-13.17-4.13h0Z"/>
          </g>
        </g>
      </g>
    </g>
  </g>
</svg>