<?xml version="1.0" encoding="UTF-8"?>
<svg id="Layer_2" data-name="Layer 2" xmlns="http://www.w3.org/2000/svg" xmlns:xlink="http://www.w3.org/1999/xlink" viewBox="0 0 133.2 133.2">
  <defs>
    <style>
      .cls-1 {
        fill: none;
      }

      .cls-2 {
        fill: #5e7dbd;
      }

      .cls-3 {
        fill: #f8ead6;
      }

      .cls-4 {
        fill: #415e8c;
      }

      .cls-5 {
        fill: #081b1e;
      }

      .cls-6 {
        clip-path: url(#clippath);
      }
    </style>
    <clipPath id="clippath">
      <path class="cls-1" d="M41.5,74.02h2.53c3.34,0,6.01,2.94,5.57,6.36-.37,2.83-2.92,4.88-5.77,4.88h-2.18c-2.96,0-5.43,2.29-5.51,5.1-.05,1.59.6,3.08,1.82,4.14.99.87,2.31,1.28,3.63,1.28h23.13c2.9,0,5.26-2.37,5.26-5.28v-.15c0-2.8-2.27-5.07-5.07-5.07h-3.8c-2.41,0-4.47-1.8-4.69-4.11-.12-1.28.31-2.56,1.17-3.51s2.09-1.49,3.37-1.49h17.61c.48,0,.95-.19,1.28-.54,1.35-1.47,3.06-2.33,4.88-2.34,1.86,0,3.55.78,4.88,2.2.37.4.91.58,1.45.52h.02c.58-.07,1.31-.16,1.75-.3,4.33-1.34,7.39-5.54,6.93-10.4-.49-5.12-5.01-8.92-10.16-8.92h-1.63c-3.75,0-6.89-2.93-7-6.54-.06-1.98.73-3.84,2.2-5.19,1.29-1.18,3.03-1.76,4.79-1.76h5.83c1.7,0,3.05-1.56,2.69-3.32-.26-1.28-1.45-2.17-2.76-2.17h-50.73c-3.09,0-5.56,2.71-5.16,5.88.34,2.62,2.7,4.51,5.33,4.51h3.3c2.5,0,4.65,1.87,4.88,4.28.12,1.33-.31,2.65-1.21,3.64-.89.98-2.17,1.55-3.51,1.55h-5.11c-4.44,0-8.04,3.6-8.04,8.04v.67c0,4.44,3.6,8.04,8.04,8.04Z"/>
    </clipPath>
  </defs>
  <g id="Art">
    <rect class="cls-3" width="133.2" height="133.2"/>
    <g>
      <path class="cls-5" d="M92.31,77.58c5.46-1.17,9.5-6.2,9.1-12.09-.4-5.89-5.74-10.77-11.88-10.77h.03s-1.61,0-1.61,0c-2.85,0-5.22-2.2-5.31-4.9-.04-1.53.58-2.97,1.75-3.99.96-.84,2.22-1.22,3.5-1.22h5.68c2.31,0,4.39-1.69,4.61-4,.25-2.64-1.82-4.88-4.41-4.88h-50.57c-3.67,0-6.87,2.75-7.12,6.41-.27,4.01,2.91,7.36,6.87,7.36h3.49c1.65,0,3.05,1.21,3.19,2.75.09,1-.28,1.94-1.05,2.61-.57.5-1.33.73-2.09.73h-5c-5.38,0-9.73,4.35-9.73,9.73v.67c0,5.38,4.35,9.73,9.73,9.73h2.36c2.05,0,3.89,1.49,4.08,3.53.23,2.34-1.61,4.32-3.91,4.32h-2.37c-3.85,0-7.08,3.02-7.2,6.73-.06,2.04.74,3.95,2.26,5.34,1.33,1.22,3.12,1.82,4.93,1.82h23.09c3.83,0,6.95-3.13,6.95-6.97v-.15c0-3.73-3.02-6.76-6.76-6.76h-3.8c-1.55,0-2.87-1.13-3.01-2.58-.09-.94.26-1.82.98-2.46.54-.47,1.25-.69,1.97-.69h15.75c.49,0,.77.57.46.95l-3.41,4.39c-.29.36-.33.87-.13,1.29.19.38.56.62.97.62l5.23-.03c.43,0,.78.37.73.8l-.95,10.12c-.08.79.55,1.48,1.34,1.48h7.36c.79,0,1.42-.68,1.34-1.48l-.95-10.12c-.04-.43.3-.8.73-.8l5.22.03c.43.04.79-.24.98-.62.21-.42.16-.93-.13-1.29l-1.2-1.54c-.13.13-.28.25-.48.3-.56.15-1.14-.18-1.29-.74-.13-.48.1-.95.51-1.18l-1.18-1.51c-.26-.34-.08-.84.33-.93Z"/>
      <path class="cls-2" d="M99.74,65.32c-.49-5.12-5.01-8.92-10.16-8.92h-1.63c-3.75,0-6.89-2.93-7-6.54-.06-1.98.73-3.84,2.2-5.19,1.29-1.18,3.03-1.77,4.79-1.77h5.83c1.7,0,3.05-1.56,2.69-3.32-.26-1.28-1.45-2.17-2.76-2.17h-50.73c-3.09,0-5.56,2.71-5.16,5.88.34,2.62,2.7,4.51,5.33,4.51h3.3c2.5,0,4.65,1.87,4.88,4.28.12,1.33-.31,2.65-1.21,3.64-.89.98-2.17,1.55-3.51,1.55h-5.11c-4.44,0-8.04,3.6-8.04,8.04v.67c0,4.44,3.6,8.04,8.04,8.04h2.53c3.34,0,6.01,2.94,5.57,6.36-.37,2.83-2.92,4.88-5.77,4.88h-2.18c-2.96,0-5.43,2.29-5.51,5.1-.05,1.59.6,3.08,1.82,4.14.99.87,2.31,1.28,3.63,1.28h23.13c2.9,0,5.26-2.37,5.26-5.28v-.15c0-2.8-2.27-5.07-5.07-5.07h-3.8c-2.41,0-4.47-1.8-4.69-4.11-.12-1.28.31-2.56,1.17-3.51.86-.95,2.09-1.49,3.37-1.49h17.61c.48,0,.95-.19,1.28-.54,1.35-1.47,3.06-2.33,4.88-2.34,1.86,0,3.55.78,4.88,2.2.37.4.91.58,1.45.52h.02c.58-.07,1.31-.16,1.75-.3,4.33-1.34,7.39-5.54,6.93-10.4ZM45.49,63.35c0,.27-.22.49-.49.49h-4.34c-.27,0-.49-.27-.49-.49v-.71c0-.27.22-.49.49-.49h4.34c.27,0,.49.27.49.49v.71ZM50.76,91.44c0,.27-.22.49-.49.49h-7.51c-.27,0-.49-.27-.49-.49v-.71c0-.27.22-.49.49-.49h7.51c.27,0,.49.27.49.49v.71ZM55.66,41.84c0,.27-.22.49-.49.49h-11.68c-.27,0-.49-.27-.49-.49v-.71c0-.27.22-.49.49-.49h11.68c.27,0,.49.27.49.49v.71ZM60.53,88.27c.27,0,.49.27.49.49v.71c0,.27-.22.49-.49.49h-4.34c-.27,0-.49-.27-.49-.49v-.71c0-.27.22-.49.49-.49h4.34ZM72.5,41.84c0,.27-.22.49-.49.49h-4.92c-.27,0-.49-.27-.49-.49v-.71c0-.27.22-.49.49-.49h4.92c.27,0,.49.27.49.49v.71ZM87.08,63.84c-.27,0-.49-.27-.49-.49v-.71c0-.27.22-.49.49-.49h5.81c.27,0,.49.27.49.49v.71c0,.27-.22.49-.49.49h-5.81Z"/>
      <g>
        <path class="cls-2" d="M55.66,41.84v-.71c0-.22-.22-.49-.49-.49h-11.68c-.27,0-.49.22-.49.49v.71c0,.22.22.49.49.49h11.68c.27,0,.49-.22.49-.49Z"/>
        <path class="cls-2" d="M56.2,89.96h4.34c.27,0,.49-.22.49-.49v-.71c0-.22-.22-.49-.49-.49h-4.34c-.27,0-.49.22-.49.49v.71c0,.22.22.49.49.49Z"/>
        <path class="cls-2" d="M87.08,63.84h5.81c.27,0,.49-.22.49-.49v-.71c0-.22-.22-.49-.49-.49h-5.81c-.27,0-.49.22-.49.49v.71c0,.22.22.49.49.49Z"/>
        <path class="cls-2" d="M42.27,90.73v.71c0,.22.22.49.49.49h7.51c.27,0,.49-.22.49-.49v-.71c0-.22-.22-.49-.49-.49h-7.51c-.27,0-.49.22-.49.49Z"/>
        <path class="cls-2" d="M40.66,63.84h4.34c.27,0,.49-.22.49-.49v-.71c0-.22-.22-.49-.49-.49h-4.34c-.27,0-.49.22-.49.49v.71c0,.22.22.49.49.49Z"/>
        <path class="cls-2" d="M67.09,42.33h4.92c.27,0,.49-.22.49-.49v-.71c0-.22-.22-.49-.49-.49h-4.92c-.27,0-.49.22-.49.49v.71c0,.22.22.49.49.49Z"/>
      </g>
      <g class="cls-6">
        <path class="cls-4" d="M18.83,66.6c0,26.35,21.44,47.79,47.79,47.79s47.79-21.44,47.79-47.79c0-5.46-.97-10.69-2.66-15.58-.02-.09-.02-.19-.04-.29,0,0-.05,0-.06.01-6.56-18.57-24.24-31.94-45.03-31.94-26.35,0-47.79,21.44-47.79,47.79M66.62,24.4c18.41,0,34.06,11.87,39.81,28.35,2.81,19.57-8.86,37.32-27.67,43.27-1.93.52-3.91.89-5.98,1.04-4.44.32-8.8-.27-13.01-1.77-6.29-2.25-11.52-5.96-15.42-11.4-4.85-6.75-6.62-14.27-5.13-22.45,1.24-6.82,4.5-12.57,9.85-17.02,6.19-5.14,13.3-7.14,21.26-5.77,5.96,1.02,11,3.8,14.95,8.41,4.53,5.28,6.46,11.39,5.42,18.32-.94,6.28-3.99,11.34-9.2,14.99-4.08,2.85-8.65,3.99-13.6,3.34-3.88-.51-7.32-2.08-10.25-4.7-3.33-2.98-5.27-6.71-5.66-11.16-.3-3.44.47-6.7,2.35-9.61,3.17-4.9,7.62-7.41,13.54-6.6,3.71.51,6.65,2.42,8.57,5.7,2.24,3.81,1.57,8.48-1.6,11.52-2.38,2.28-5.93,2.45-8.45.39-1.44-1.17-1.8-3.12-.83-4.46.22-.3.45-.57.92-.47,1.89.41,3.52-.58,3.99-2.4.45-1.74-.54-3.47-2.35-3.97-2.75-.77-5.15-.03-7.09,1.99-3.81,3.97-3.44,10.06.58,13.88,3.35,3.18,7.39,4.16,11.88,3.06,7.33-1.81,11.97-9.63,10.65-17.33-.73-4.29-2.83-7.81-6.25-10.5-4.85-3.81-10.34-5.03-16.35-3.69-4.27.95-7.84,3.14-10.67,6.47-4.8,5.64-6.5,12.15-5.05,19.39,1.12,5.56,4.01,10.13,8.49,13.6,6.8,5.26,14.42,6.9,22.76,4.74,6.02-1.55,10.87-4.94,14.57-9.91,5.21-7,7.02-14.85,5.33-23.39-1.37-6.93-4.91-12.69-10.4-17.14-7.91-6.42-16.95-8.75-26.95-6.89-7.69,1.43-14.07,5.34-19.09,11.34-5.59,6.67-8.35,14.41-8.47,23.7.07.91.15,2.4.31,3.89.43,3.85,1.54,7.51,3.22,10.98,3.61,7.44,9.13,13.05,16.4,16.93,7.99,4.25,16.47,5.61,25.36,4.05,1.03-.18,2.05-.41,3.05-.67l.03.1c.45-.15.87-.34,1.31-.51.51-.16,1.03-.29,1.54-.47l-.07-.1c4.32-1.77,8.15-4,11.83-6.75,3.71-2.66,6.83-5.91,9.37-9.53-6.89,13.96-21.23,23.61-37.82,23.61-23.27,0-42.2-18.93-42.2-42.19s18.93-42.2,42.2-42.2"/>
      </g>
      <path class="cls-3" d="M87.05,64.84c-.57.15-.9.73-.74,1.29.15.57.73.9,1.29.74.57-.15.9-.73.74-1.29-.15-.57-.73-.9-1.29-.74Z"/>
      <path class="cls-3" d="M54.56,89.64c.46-.13.74-.6.62-1.07-.13-.46-.6-.74-1.07-.62-.46.13-.74.6-.62,1.07.13.46.6.74,1.07.62Z"/>
      <path class="cls-3" d="M57.42,91.79c.73-.19,1.16-.94.96-1.66-.19-.73-.94-1.16-1.66-.96-.73.19-1.16.94-.96,1.66.19.73.94,1.16,1.66.96Z"/>
      <path class="cls-3" d="M78.12,80.97c-.57.15-.9.73-.74,1.29.15.57.73.9,1.29.74.57-.15.9-.73.74-1.29-.15-.57-.73-.9-1.29-.74Z"/>
      <path class="cls-1" d="M72.01,40.64h-4.92c-.27,0-.49.22-.49.49v.71c0,.22.22.49.49.49h4.92c.27,0,.49-.22.49-.49v-.71c0-.22-.22-.49-.49-.49Z"/>
      <path class="cls-1" d="M55.71,88.76v.71c0,.22.22.49.49.49h4.34c.27,0,.49-.22.49-.49v-.71c0-.22-.22-.49-.49-.49h-4.34c-.27,0-.49.22-.49.49Z"/>
      <path class="cls-1" d="M55.17,40.64h-11.68c-.27,0-.49.22-.49.49v.71c0,.22.22.49.49.49h11.68c.27,0,.49-.22.49-.49v-.71c0-.22-.22-.49-.49-.49Z"/>
      <path class="cls-1" d="M45,62.15h-4.34c-.27,0-.49.22-.49.49v.71c0,.22.22.49.49.49h4.34c.27,0,.49-.22.49-.49v-.71c0-.22-.22-.49-.49-.49Z"/>
      <path class="cls-1" d="M50.27,90.24h-7.51c-.27,0-.49.22-.49.49v.71c0,.22.22.49.49.49h7.51c.27,0,.49-.22.49-.49v-.71c0-.22-.22-.49-.49-.49Z"/>
      <path class="cls-5" d="M92.63,81.21c.15.57.73.9,1.29.74.2-.05.35-.17.48-.3l-1.26-1.62c-.41.23-.64.7-.51,1.18Z"/>
      <path class="cls-1" d="M99.74,65.32c-.49-5.12-5.01-8.92-10.16-8.92h-1.63c-3.75,0-6.89-2.93-7-6.54-.06-1.98.73-3.84,2.2-5.19,1.29-1.18,3.03-1.77,4.79-1.77h5.83c1.7,0,3.05-1.56,2.69-3.32-.26-1.28-1.45-2.17-2.76-2.17h-50.73c-3.09,0-5.56,2.71-5.16,5.88.34,2.62,2.7,4.51,5.33,4.51h3.3c2.5,0,4.65,1.87,4.88,4.28.12,1.33-.31,2.65-1.21,3.64-.89.98-2.17,1.55-3.51,1.55h-5.11c-4.44,0-8.04,3.6-8.04,8.04v.67c0,4.44,3.6,8.04,8.04,8.04h2.53c3.34,0,6.01,2.94,5.57,6.36-.37,2.83-2.92,4.88-5.77,4.88h-2.18c-2.96,0-5.43,2.29-5.51,5.1-.05,1.59.6,3.08,1.82,4.14.99.87,2.31,1.28,3.63,1.28h23.13c2.9,0,5.26-2.37,5.26-5.28v-.15c0-2.8-2.27-5.07-5.07-5.07h-3.8c-2.41,0-4.47-1.8-4.69-4.11-.12-1.28.31-2.56,1.17-3.51.86-.95,2.09-1.49,3.37-1.49h17.61c.48,0,.95-.19,1.28-.54,1.35-1.47,3.06-2.33,4.88-2.34.31,0,.61.03.91.07.11-.31.35-.57.7-.66.56-.15,1.14.18,1.29.74.05.19.03.37-.01.54.72.37,1.4.87,2,1.5.37.4.91.58,1.45.52h.02c.58-.07,1.31-.16,1.75-.3,4.33-1.34,7.39-5.54,6.93-10.4Z"/>
      <path class="cls-3" d="M85.57,74c.15.57.73.9,1.29.74.38-.1.64-.4.73-.75-.62-.32-1.29-.53-1.98-.63-.07.2-.1.41-.04.63Z"/>
      <path class="cls-3" d="M82.28,76.3c-.93.25-1.48,1.2-1.22,2.13.25.93,1.2,1.48,2.13,1.22.93-.25,1.48-1.2,1.22-2.13-.25-.93-1.2-1.48-2.13-1.22Z"/>
      <path class="cls-3" d="M89.89,80.28c-.47.12-.74.6-.61,1.06.12.47.6.74,1.06.61.47-.12.74-.6.61-1.06-.12-.47-.6-.74-1.06-.61Z"/>
      <path class="cls-3" d="M57.42,44.67c.73-.19,1.16-.94.96-1.66-.19-.73-.94-1.16-1.66-.96-.73.19-1.16.94-.96,1.66.19.73.94,1.16,1.66.96Z"/>
      <path class="cls-3" d="M60.52,42.61c.36-.09.58-.44.48-.78-.1-.34-.47-.54-.83-.45-.36.09-.58.44-.48.78.1.34.47.54.83.45Z"/>
      <path class="cls-3" d="M42.45,62.8c.36-.1.58-.47.48-.83-.1-.36-.47-.58-.83-.48-.36.1-.58.47-.48.83.1.36.47.58.83.48Z"/>
      <path class="cls-3" d="M87.46,62.85c-.28.08-.45.36-.37.65.08.28.36.45.65.37.28-.08.45-.36.37-.65-.08-.28-.36-.45-.65-.37Z"/>
      <path class="cls-3" d="M92.77,40.97c.36-.1.58-.47.48-.83-.1-.36-.47-.58-.83-.48-.36.1-.58.47-.48.83.1.36.47.58.83.48Z"/>
      <path class="cls-3" d="M85.32,82.2c-.47.12-.74.6-.61,1.06.12.47.6.74,1.06.61.47-.12.74-.6.61-1.06-.12-.47-.6-.74-1.06-.61Z"/>
    </g>
  </g>
</svg>